M48
; DRILL file {KiCad 7.0.1} date Mon Jun 12 23:07:58 2023
; FORMAT={-:-/ absolute / inch / decimal}
; #@! TF.CreationDate,2023-06-12T23:07:58+03:00
; #@! TF.GenerationSoftware,Kicad,Pcbnew,7.0.1
; #@! TF.FileFunction,Plated,1,4,PTH
FMAT,2
INCH
; #@! TA.AperFunction,Plated,PTH,ViaDrill
T1C0.0118
; #@! TA.AperFunction,Plated,PTH,ComponentDrill
T2C0.0315
; #@! TA.AperFunction,Plated,PTH,ComponentDrill
T3C0.0394
; #@! TA.AperFunction,Plated,PTH,ComponentDrill
T4C0.1260
%
G90
G05
T1
X1.88Y-5.42
X1.93Y-5.42
X1.98Y-5.42
X2.08Y-5.42
X2.18Y-5.42
X2.225Y-4.165
X2.25Y-5.415
X2.3Y-3.955
X2.3Y-4.05
X2.305Y-5.375
X2.335Y-5.415
X2.575Y-3.835
X2.58Y-5.42
X2.63Y-5.415
X2.635Y-3.725
X2.72Y-5.41
X2.76Y-5.415
X2.775Y-5.305
X2.785Y-3.475
X2.795Y-3.65
X2.85Y-5.41
X2.87Y-5.175
X2.9Y-5.13
X3.005Y-5.41
X3.105Y-5.42
X3.225Y-4.795
X3.255Y-5.4056
X3.2822Y-4.8103
X3.355Y-4.765
X3.385Y-4.14
X3.385Y-5.42
X3.405Y-4.23
X3.445Y-3.265
X3.445Y-3.475
X3.45Y-4.6653
X3.53Y-5.415
X3.535Y-4.52
X3.56Y-4.83
X3.565Y-4.4671
X3.6Y-4.47
X3.6Y-4.85
X3.605Y-4.575
X3.625Y-4.79
X3.63Y-5.415
X3.635Y-4.845
X3.65Y-4.13
X3.66Y-4.6245
X3.695Y-3.26
X3.695Y-3.475
X3.705Y-5.415
X3.715Y-5.14
X3.765Y-4.28
X3.785Y-4.19
X3.79Y-4.115
X3.79Y-4.23
X3.795Y-4.32
X3.8Y-4.9591
X3.805Y-4.41
X3.815Y-4.93
X3.822Y-5.085
X3.825Y-4.73
X3.825Y-4.765
X3.83Y-4.855
X3.835Y-4.7
X3.835Y-4.8
X3.845Y-4.905
X3.855Y-4.465
X3.86Y-4.675
X3.86Y-4.83
X3.8613Y-5.085
X3.8614Y-5.415
X3.8818Y-3.92
X3.885Y-4.075
X3.9007Y-5.085
X3.91Y-3.94
X3.915Y-3.885
X3.915Y-4.36
X3.93Y-5.06
X3.95Y-4.33
X3.96Y-3.93
X3.96Y-5.115
X3.97Y-5.07
X3.985Y-4.345
X3.985Y-4.405
X3.9991Y-5.0859
X4.01Y-5.395
X4.02Y-4.065
X4.025Y-5.115
X4.0582Y-5.0868
X4.0976Y-5.0874
X4.11Y-5.415
X4.1369Y-5.0881
X4.145Y-3.28
X4.145Y-5.045
X4.17Y-3.645
X4.175Y-4.995
X4.18Y-3.945
X4.18Y-5.045
X4.195Y-3.28
X4.195Y-3.475
X4.2Y-5.07
X4.2164Y-5.105
X4.235Y-5.05
X4.245Y-3.28
X4.245Y-3.475
X4.26Y-5.09
X4.26Y-5.39
X4.295Y-3.28
X4.295Y-3.475
X4.305Y-5.42
X4.315Y-5.085
X4.345Y-3.28
X4.345Y-3.475
X4.355Y-5.085
X4.3928Y-5.0872
X4.395Y-3.28
X4.405Y-3.455
X4.41Y-5.245
X4.425Y-4.075
X4.43Y-5.39
X4.45Y-5.085
X4.49Y-5.085
X4.525Y-5.085
X4.545Y-5.055
X4.57Y-5.08
X4.605Y-5.415
X4.61Y-5.08
X4.63Y-4.07
X4.65Y-5.08
X4.675Y-5.115
X4.71Y-5.115
X4.765Y-4.56
X4.765Y-4.605
X4.765Y-4.645
X4.765Y-4.685
X4.81Y-3.455
X4.81Y-4.515
X4.81Y-4.585
X4.81Y-4.625
X4.81Y-4.665
X4.81Y-4.705
X4.81Y-4.92
X4.815Y-3.265
X4.825Y-4.25
X4.825Y-4.43
X4.825Y-4.745
X4.83Y-4.54
X4.83Y-4.96
X4.835Y-4.19
X4.835Y-4.49
X4.835Y-4.785
X4.855Y-3.935
X5.055Y-3.995
X5.065Y-3.27
X5.065Y-3.455
X5.17Y-4.495
X5.18Y-4.445
X5.21Y-4.49
X5.215Y-4.23
X5.42Y-3.665
X5.425Y-3.105
X5.465Y-4.535
X5.485Y-3.645
X5.485Y-3.69
X5.485Y-3.985
X5.485Y-4.235
X5.485Y-4.935
X5.495Y-4.735
X5.495Y-4.785
X5.495Y-4.835
X5.495Y-4.885
X5.515Y-3.28
X5.515Y-5.13
X5.555Y-4.58
X5.565Y-3.28
X5.565Y-3.475
X5.58Y-4.31
X5.585Y-4.6297
X5.605Y-4.385
X5.61Y-4.335
X5.615Y-3.28
X5.615Y-3.475
X5.62Y-4.435
X5.625Y-4.285
X5.66Y-4.02
X5.665Y-3.28
X5.665Y-3.475
X5.67Y-5.13
X5.675Y-4.685
X5.675Y-4.735
X5.675Y-4.785
X5.675Y-4.835
X5.675Y-4.885
X5.685Y-4.235
X5.69Y-3.985
X5.69Y-4.585
X5.69Y-4.63
X5.69Y-4.935
X5.715Y-3.28
X5.715Y-3.475
X5.765Y-3.275
X5.765Y-3.49
X5.825Y-3.905
X5.83Y-3.94
X5.835Y-3.985
X5.865Y-4.015
X5.89Y-4.045
X5.96Y-3.195
X5.975Y-4.975
X5.975Y-5.01
X5.9773Y-5.0403
X5.98Y-5.08
X6.065Y-3.255
X6.075Y-4.625
X6.1Y-3.93
X6.105Y-3.24
X6.105Y-4.645
X6.145Y-3.255
X6.195Y-3.25
X6.245Y-4.48
X6.265Y-3.985
X6.265Y-4.235
X6.28Y-4.735
X6.28Y-4.785
X6.28Y-4.835
X6.28Y-4.885
X6.28Y-4.935
X6.285Y-4.555
X6.32Y-4.585
X6.45Y-4.635
X6.455Y-4.685
X6.455Y-4.735
X6.455Y-4.785
X6.455Y-4.835
X6.455Y-4.885
X6.455Y-4.935
X6.465Y-4.235
X6.47Y-3.985
X6.725Y-5.1398
X6.775Y-3.61
X6.9194Y-3.545
X7.305Y-5.35
X7.525Y-5.34
X8.595Y-5.31
X8.78Y-5.345
X9.03Y-4.9
X9.16Y-4.905
X9.38Y-5.365
X9.555Y-4.7
X9.69Y-5.115
X10.04Y-5.36
X10.115Y-5.245
X10.29Y-5.375
X10.356Y-4.386
X10.445Y-4.1
X10.555Y-3.685
X10.56Y-3.85
T2
X3.1871Y-3.93
X3.38Y-3.93
X7.945Y-4.585
X7.945Y-5.185
X8.045Y-4.585
X8.045Y-5.185
X8.145Y-4.585
X8.145Y-5.185
X8.245Y-4.585
X8.245Y-5.185
X8.345Y-4.585
X8.345Y-5.185
X8.445Y-4.585
X8.445Y-5.185
X8.545Y-4.585
X8.545Y-5.185
X8.645Y-4.585
X8.645Y-5.185
X8.745Y-4.585
X8.745Y-5.185
X8.845Y-4.585
X8.845Y-5.185
X8.945Y-4.585
X8.945Y-5.185
X9.045Y-4.585
X9.045Y-5.185
X9.145Y-4.585
X9.145Y-5.185
X9.245Y-4.585
X9.245Y-5.185
X9.345Y-4.585
X9.345Y-5.185
X9.445Y-4.585
X9.445Y-5.185
T3
X1.9Y-3.115
X1.9Y-3.215
X1.9Y-3.315
X1.9Y-3.415
X1.9Y-3.515
X1.9Y-3.615
X1.9Y-3.715
X1.9Y-3.815
X1.9Y-3.915
X1.9Y-4.015
X1.9Y-4.115
X1.9Y-4.215
X1.9Y-4.315
X1.95Y-4.625
X1.95Y-4.725
X1.95Y-4.825
X2.0Y-3.115
X2.0Y-3.215
X2.0Y-3.315
X2.0Y-3.415
X2.0Y-3.515
X2.0Y-3.615
X2.0Y-3.715
X2.0Y-3.815
X2.0Y-3.915
X2.0Y-4.015
X2.0Y-4.115
X2.0Y-4.215
X2.0Y-4.315
X10.115Y-4.2302
X10.115Y-4.3302
X10.7701Y-3.6654
X10.7701Y-3.7555
X10.7701Y-3.8457
X10.7701Y-3.9358
X10.7701Y-4.026
X10.848Y-3.6203
X10.848Y-3.7104
X10.848Y-3.8006
X10.848Y-3.8907
X10.848Y-3.9809
X10.926Y-3.6654
X10.926Y-3.7555
X10.926Y-3.8457
X10.926Y-3.9358
X10.926Y-4.026
T4
X10.826Y-3.3431
X10.826Y-4.3274
T0
M30
