%TF.GenerationSoftware,KiCad,Pcbnew,7.0.1*%
%TF.CreationDate,2023-07-13T14:21:50+03:00*%
%TF.ProjectId,virge-vlb,76697267-652d-4766-9c62-2e6b69636164,rev?*%
%TF.SameCoordinates,Original*%
%TF.FileFunction,Paste,Top*%
%TF.FilePolarity,Positive*%
%FSLAX46Y46*%
G04 Gerber Fmt 4.6, Leading zero omitted, Abs format (unit mm)*
G04 Created by KiCad (PCBNEW 7.0.1) date 2023-07-13 14:21:50*
%MOMM*%
%LPD*%
G01*
G04 APERTURE LIST*
G04 Aperture macros list*
%AMRoundRect*
0 Rectangle with rounded corners*
0 $1 Rounding radius*
0 $2 $3 $4 $5 $6 $7 $8 $9 X,Y pos of 4 corners*
0 Add a 4 corners polygon primitive as box body*
4,1,4,$2,$3,$4,$5,$6,$7,$8,$9,$2,$3,0*
0 Add four circle primitives for the rounded corners*
1,1,$1+$1,$2,$3*
1,1,$1+$1,$4,$5*
1,1,$1+$1,$6,$7*
1,1,$1+$1,$8,$9*
0 Add four rect primitives between the rounded corners*
20,1,$1+$1,$2,$3,$4,$5,0*
20,1,$1+$1,$4,$5,$6,$7,0*
20,1,$1+$1,$6,$7,$8,$9,0*
20,1,$1+$1,$8,$9,$2,$3,0*%
G04 Aperture macros list end*
%ADD10RoundRect,0.250000X0.350000X0.450000X-0.350000X0.450000X-0.350000X-0.450000X0.350000X-0.450000X0*%
%ADD11RoundRect,0.250000X0.450000X-0.350000X0.450000X0.350000X-0.450000X0.350000X-0.450000X-0.350000X0*%
%ADD12RoundRect,0.250000X0.337500X0.475000X-0.337500X0.475000X-0.337500X-0.475000X0.337500X-0.475000X0*%
%ADD13RoundRect,0.250000X-0.475000X0.337500X-0.475000X-0.337500X0.475000X-0.337500X0.475000X0.337500X0*%
%ADD14RoundRect,0.250000X-0.350000X-0.450000X0.350000X-0.450000X0.350000X0.450000X-0.350000X0.450000X0*%
%ADD15RoundRect,0.250000X-0.337500X-0.475000X0.337500X-0.475000X0.337500X0.475000X-0.337500X0.475000X0*%
%ADD16RoundRect,0.075000X0.075000X-0.662500X0.075000X0.662500X-0.075000X0.662500X-0.075000X-0.662500X0*%
%ADD17RoundRect,0.075000X0.662500X-0.075000X0.662500X0.075000X-0.662500X0.075000X-0.662500X-0.075000X0*%
%ADD18RoundRect,0.250000X-0.450000X0.350000X-0.450000X-0.350000X0.450000X-0.350000X0.450000X0.350000X0*%
%ADD19RoundRect,0.150000X-0.700000X-0.150000X0.700000X-0.150000X0.700000X0.150000X-0.700000X0.150000X0*%
%ADD20RoundRect,0.250000X0.450000X-0.325000X0.450000X0.325000X-0.450000X0.325000X-0.450000X-0.325000X0*%
%ADD21RoundRect,0.150000X0.150000X-0.825000X0.150000X0.825000X-0.150000X0.825000X-0.150000X-0.825000X0*%
%ADD22RoundRect,0.150000X0.150000X-0.700000X0.150000X0.700000X-0.150000X0.700000X-0.150000X-0.700000X0*%
%ADD23RoundRect,0.150000X0.837500X0.150000X-0.837500X0.150000X-0.837500X-0.150000X0.837500X-0.150000X0*%
G04 APERTURE END LIST*
D10*
%TO.C,R48*%
X256905000Y-108331000D03*
X254905000Y-108331000D03*
%TD*%
D11*
%TO.C,R47*%
X78232000Y-131734000D03*
X78232000Y-129734000D03*
%TD*%
%TO.C,R21*%
X97155000Y-97444000D03*
X97155000Y-95444000D03*
%TD*%
D12*
%TO.C,C14*%
X74697500Y-103683000D03*
X72622500Y-103683000D03*
%TD*%
D11*
%TO.C,R17*%
X141097000Y-79791000D03*
X141097000Y-77791000D03*
%TD*%
D10*
%TO.C,R39*%
X116443000Y-106096000D03*
X114443000Y-106096000D03*
%TD*%
D13*
%TO.C,C12*%
X138938000Y-78083500D03*
X138938000Y-80158500D03*
%TD*%
D10*
%TO.C,R43*%
X74660000Y-105715000D03*
X72660000Y-105715000D03*
%TD*%
%TO.C,R11*%
X177250000Y-122100000D03*
X175250000Y-122100000D03*
%TD*%
D14*
%TO.C,R41*%
X73676000Y-109779000D03*
X75676000Y-109779000D03*
%TD*%
D15*
%TO.C,C4*%
X247755500Y-86030000D03*
X249830500Y-86030000D03*
%TD*%
D13*
%TO.C,C18*%
X117602000Y-130712500D03*
X117602000Y-132787500D03*
%TD*%
D15*
%TO.C,C6*%
X251692500Y-96317000D03*
X253767500Y-96317000D03*
%TD*%
D10*
%TO.C,R34*%
X161528000Y-112700000D03*
X159528000Y-112700000D03*
%TD*%
D14*
%TO.C,R4*%
X247793000Y-88316000D03*
X249793000Y-88316000D03*
%TD*%
D10*
%TO.C,R32*%
X161528000Y-108636000D03*
X159528000Y-108636000D03*
%TD*%
D12*
%TO.C,C2*%
X253767500Y-116002000D03*
X251692500Y-116002000D03*
%TD*%
D16*
%TO.C,U7*%
X82373000Y-130329500D03*
X82873000Y-130329500D03*
X83373000Y-130329500D03*
X83873000Y-130329500D03*
X84373000Y-130329500D03*
X84873000Y-130329500D03*
X85373000Y-130329500D03*
X85873000Y-130329500D03*
X86373000Y-130329500D03*
X86873000Y-130329500D03*
X87373000Y-130329500D03*
X87873000Y-130329500D03*
X88373000Y-130329500D03*
X88873000Y-130329500D03*
X89373000Y-130329500D03*
X89873000Y-130329500D03*
X90373000Y-130329500D03*
X90873000Y-130329500D03*
X91373000Y-130329500D03*
X91873000Y-130329500D03*
X92373000Y-130329500D03*
X92873000Y-130329500D03*
X93373000Y-130329500D03*
X93873000Y-130329500D03*
X94373000Y-130329500D03*
X94873000Y-130329500D03*
X95373000Y-130329500D03*
X95873000Y-130329500D03*
X96373000Y-130329500D03*
X96873000Y-130329500D03*
X97373000Y-130329500D03*
X97873000Y-130329500D03*
X98373000Y-130329500D03*
X98873000Y-130329500D03*
X99373000Y-130329500D03*
X99873000Y-130329500D03*
X100373000Y-130329500D03*
X100873000Y-130329500D03*
X101373000Y-130329500D03*
X101873000Y-130329500D03*
X102373000Y-130329500D03*
X102873000Y-130329500D03*
X103373000Y-130329500D03*
X103873000Y-130329500D03*
X104373000Y-130329500D03*
X104873000Y-130329500D03*
X105373000Y-130329500D03*
X105873000Y-130329500D03*
X106373000Y-130329500D03*
X106873000Y-130329500D03*
X107373000Y-130329500D03*
X107873000Y-130329500D03*
D17*
X110085500Y-128117000D03*
X110085500Y-127617000D03*
X110085500Y-127117000D03*
X110085500Y-126617000D03*
X110085500Y-126117000D03*
X110085500Y-125617000D03*
X110085500Y-125117000D03*
X110085500Y-124617000D03*
X110085500Y-124117000D03*
X110085500Y-123617000D03*
X110085500Y-123117000D03*
X110085500Y-122617000D03*
X110085500Y-122117000D03*
X110085500Y-121617000D03*
X110085500Y-121117000D03*
X110085500Y-120617000D03*
X110085500Y-120117000D03*
X110085500Y-119617000D03*
X110085500Y-119117000D03*
X110085500Y-118617000D03*
X110085500Y-118117000D03*
X110085500Y-117617000D03*
X110085500Y-117117000D03*
X110085500Y-116617000D03*
X110085500Y-116117000D03*
X110085500Y-115617000D03*
X110085500Y-115117000D03*
X110085500Y-114617000D03*
X110085500Y-114117000D03*
X110085500Y-113617000D03*
X110085500Y-113117000D03*
X110085500Y-112617000D03*
X110085500Y-112117000D03*
X110085500Y-111617000D03*
X110085500Y-111117000D03*
X110085500Y-110617000D03*
X110085500Y-110117000D03*
X110085500Y-109617000D03*
X110085500Y-109117000D03*
X110085500Y-108617000D03*
X110085500Y-108117000D03*
X110085500Y-107617000D03*
X110085500Y-107117000D03*
X110085500Y-106617000D03*
X110085500Y-106117000D03*
X110085500Y-105617000D03*
X110085500Y-105117000D03*
X110085500Y-104617000D03*
X110085500Y-104117000D03*
X110085500Y-103617000D03*
X110085500Y-103117000D03*
X110085500Y-102617000D03*
D16*
X107873000Y-100404500D03*
X107373000Y-100404500D03*
X106873000Y-100404500D03*
X106373000Y-100404500D03*
X105873000Y-100404500D03*
X105373000Y-100404500D03*
X104873000Y-100404500D03*
X104373000Y-100404500D03*
X103873000Y-100404500D03*
X103373000Y-100404500D03*
X102873000Y-100404500D03*
X102373000Y-100404500D03*
X101873000Y-100404500D03*
X101373000Y-100404500D03*
X100873000Y-100404500D03*
X100373000Y-100404500D03*
X99873000Y-100404500D03*
X99373000Y-100404500D03*
X98873000Y-100404500D03*
X98373000Y-100404500D03*
X97873000Y-100404500D03*
X97373000Y-100404500D03*
X96873000Y-100404500D03*
X96373000Y-100404500D03*
X95873000Y-100404500D03*
X95373000Y-100404500D03*
X94873000Y-100404500D03*
X94373000Y-100404500D03*
X93873000Y-100404500D03*
X93373000Y-100404500D03*
X92873000Y-100404500D03*
X92373000Y-100404500D03*
X91873000Y-100404500D03*
X91373000Y-100404500D03*
X90873000Y-100404500D03*
X90373000Y-100404500D03*
X89873000Y-100404500D03*
X89373000Y-100404500D03*
X88873000Y-100404500D03*
X88373000Y-100404500D03*
X87873000Y-100404500D03*
X87373000Y-100404500D03*
X86873000Y-100404500D03*
X86373000Y-100404500D03*
X85873000Y-100404500D03*
X85373000Y-100404500D03*
X84873000Y-100404500D03*
X84373000Y-100404500D03*
X83873000Y-100404500D03*
X83373000Y-100404500D03*
X82873000Y-100404500D03*
X82373000Y-100404500D03*
D17*
X80160500Y-102617000D03*
X80160500Y-103117000D03*
X80160500Y-103617000D03*
X80160500Y-104117000D03*
X80160500Y-104617000D03*
X80160500Y-105117000D03*
X80160500Y-105617000D03*
X80160500Y-106117000D03*
X80160500Y-106617000D03*
X80160500Y-107117000D03*
X80160500Y-107617000D03*
X80160500Y-108117000D03*
X80160500Y-108617000D03*
X80160500Y-109117000D03*
X80160500Y-109617000D03*
X80160500Y-110117000D03*
X80160500Y-110617000D03*
X80160500Y-111117000D03*
X80160500Y-111617000D03*
X80160500Y-112117000D03*
X80160500Y-112617000D03*
X80160500Y-113117000D03*
X80160500Y-113617000D03*
X80160500Y-114117000D03*
X80160500Y-114617000D03*
X80160500Y-115117000D03*
X80160500Y-115617000D03*
X80160500Y-116117000D03*
X80160500Y-116617000D03*
X80160500Y-117117000D03*
X80160500Y-117617000D03*
X80160500Y-118117000D03*
X80160500Y-118617000D03*
X80160500Y-119117000D03*
X80160500Y-119617000D03*
X80160500Y-120117000D03*
X80160500Y-120617000D03*
X80160500Y-121117000D03*
X80160500Y-121617000D03*
X80160500Y-122117000D03*
X80160500Y-122617000D03*
X80160500Y-123117000D03*
X80160500Y-123617000D03*
X80160500Y-124117000D03*
X80160500Y-124617000D03*
X80160500Y-125117000D03*
X80160500Y-125617000D03*
X80160500Y-126117000D03*
X80160500Y-126617000D03*
X80160500Y-127117000D03*
X80160500Y-127617000D03*
X80160500Y-128117000D03*
%TD*%
D12*
%TO.C,C1*%
X253767500Y-118542000D03*
X251692500Y-118542000D03*
%TD*%
D18*
%TO.C,R20*%
X145161000Y-77791000D03*
X145161000Y-79791000D03*
%TD*%
D14*
%TO.C,R12*%
X113681000Y-111811000D03*
X115681000Y-111811000D03*
%TD*%
D19*
%TO.C,U3*%
X122934000Y-99873000D03*
X122934000Y-101143000D03*
X122934000Y-102413000D03*
X122934000Y-103683000D03*
X122934000Y-104953000D03*
X122934000Y-106223000D03*
X122934000Y-107493000D03*
X122934000Y-108763000D03*
X122934000Y-110033000D03*
X122934000Y-111303000D03*
X122934000Y-112573000D03*
X122934000Y-113843000D03*
X122934000Y-115113000D03*
X122934000Y-116383000D03*
X122934000Y-117653000D03*
X122934000Y-118923000D03*
X122934000Y-120193000D03*
X122934000Y-121463000D03*
X122934000Y-122733000D03*
X122934000Y-124003000D03*
X132334000Y-124003000D03*
X132334000Y-122733000D03*
X132334000Y-121463000D03*
X132334000Y-120193000D03*
X132334000Y-118923000D03*
X132334000Y-117653000D03*
X132334000Y-116383000D03*
X132334000Y-115113000D03*
X132334000Y-113843000D03*
X132334000Y-112573000D03*
X132334000Y-111303000D03*
X132334000Y-110033000D03*
X132334000Y-108763000D03*
X132334000Y-107493000D03*
X132334000Y-106223000D03*
X132334000Y-104953000D03*
X132334000Y-103683000D03*
X132334000Y-102413000D03*
X132334000Y-101143000D03*
X132334000Y-99873000D03*
%TD*%
D18*
%TO.C,R44*%
X52250000Y-132700000D03*
X52250000Y-134700000D03*
%TD*%
%TO.C,R14*%
X162814000Y-126813000D03*
X162814000Y-128813000D03*
%TD*%
D15*
%TO.C,C8*%
X243564500Y-96317000D03*
X245639500Y-96317000D03*
%TD*%
D13*
%TO.C,C19*%
X130403600Y-131372700D03*
X130403600Y-133447700D03*
%TD*%
D15*
%TO.C,C5*%
X243564500Y-86030000D03*
X245639500Y-86030000D03*
%TD*%
D14*
%TO.C,R2*%
X251730000Y-113843000D03*
X253730000Y-113843000D03*
%TD*%
D12*
%TO.C,C17*%
X68601500Y-94666000D03*
X66526500Y-94666000D03*
%TD*%
D10*
%TO.C,R30*%
X161528000Y-104572000D03*
X159528000Y-104572000D03*
%TD*%
D20*
%TO.C,FB1*%
X251841000Y-93278000D03*
X251841000Y-91228000D03*
%TD*%
D14*
%TO.C,R7*%
X221377000Y-132893000D03*
X223377000Y-132893000D03*
%TD*%
D10*
%TO.C,R23*%
X161528000Y-90348000D03*
X159528000Y-90348000D03*
%TD*%
D14*
%TO.C,R42*%
X73676000Y-107747000D03*
X75676000Y-107747000D03*
%TD*%
D10*
%TO.C,R27*%
X161528000Y-98476000D03*
X159528000Y-98476000D03*
%TD*%
D15*
%TO.C,C3*%
X251819500Y-86030000D03*
X253894500Y-86030000D03*
%TD*%
D10*
%TO.C,R26*%
X161528000Y-96444000D03*
X159528000Y-96444000D03*
%TD*%
%TO.C,R38*%
X161528000Y-121082000D03*
X159528000Y-121082000D03*
%TD*%
D15*
%TO.C,C11*%
X143562500Y-129600000D03*
X145637500Y-129600000D03*
%TD*%
D10*
%TO.C,R9*%
X173450000Y-120050000D03*
X171450000Y-120050000D03*
%TD*%
D11*
%TO.C,R45*%
X76250800Y-131734000D03*
X76250800Y-129734000D03*
%TD*%
D21*
%TO.C,U8*%
X120396000Y-134682000D03*
X121666000Y-134682000D03*
X122936000Y-134682000D03*
X124206000Y-134682000D03*
X125476000Y-134682000D03*
X126746000Y-134682000D03*
X128016000Y-134682000D03*
X128016000Y-129732000D03*
X126746000Y-129732000D03*
X125476000Y-129732000D03*
X124206000Y-129732000D03*
X122936000Y-129732000D03*
X121666000Y-129732000D03*
X120396000Y-129732000D03*
%TD*%
D22*
%TO.C,U6*%
X108077000Y-89154000D03*
X109347000Y-89154000D03*
X110617000Y-89154000D03*
X111887000Y-89154000D03*
X113157000Y-89154000D03*
X114427000Y-89154000D03*
X115697000Y-89154000D03*
X116967000Y-89154000D03*
X118237000Y-89154000D03*
X119507000Y-89154000D03*
X120777000Y-89154000D03*
X122047000Y-89154000D03*
X123317000Y-89154000D03*
X124587000Y-89154000D03*
X125857000Y-89154000D03*
X127127000Y-89154000D03*
X128397000Y-89154000D03*
X129667000Y-89154000D03*
X130937000Y-89154000D03*
X132207000Y-89154000D03*
X132207000Y-79754000D03*
X130937000Y-79754000D03*
X129667000Y-79754000D03*
X128397000Y-79754000D03*
X127127000Y-79754000D03*
X125857000Y-79754000D03*
X124587000Y-79754000D03*
X123317000Y-79754000D03*
X122047000Y-79754000D03*
X120777000Y-79754000D03*
X119507000Y-79754000D03*
X118237000Y-79754000D03*
X116967000Y-79754000D03*
X115697000Y-79754000D03*
X114427000Y-79754000D03*
X113157000Y-79754000D03*
X111887000Y-79754000D03*
X110617000Y-79754000D03*
X109347000Y-79754000D03*
X108077000Y-79754000D03*
%TD*%
D10*
%TO.C,R36*%
X161528000Y-116764000D03*
X159528000Y-116764000D03*
%TD*%
D11*
%TO.C,R16*%
X143129000Y-79791000D03*
X143129000Y-77791000D03*
%TD*%
D10*
%TO.C,R28*%
X161528000Y-100508000D03*
X159528000Y-100508000D03*
%TD*%
D12*
%TO.C,C15*%
X48662500Y-128956000D03*
X46587500Y-128956000D03*
%TD*%
D10*
%TO.C,R31*%
X161528000Y-106604000D03*
X159528000Y-106604000D03*
%TD*%
%TO.C,R33*%
X161528000Y-110668000D03*
X159528000Y-110668000D03*
%TD*%
D11*
%TO.C,R22*%
X99187000Y-97444000D03*
X99187000Y-95444000D03*
%TD*%
D20*
%TO.C,FB3*%
X247777000Y-93405000D03*
X247777000Y-91355000D03*
%TD*%
D10*
%TO.C,R35*%
X161528000Y-114732000D03*
X159528000Y-114732000D03*
%TD*%
D14*
%TO.C,R40*%
X115713000Y-100254000D03*
X117713000Y-100254000D03*
%TD*%
%TO.C,R1*%
X251730000Y-120701000D03*
X253730000Y-120701000D03*
%TD*%
D13*
%TO.C,C13*%
X66800000Y-86770500D03*
X66800000Y-88845500D03*
%TD*%
D19*
%TO.C,U4*%
X142748000Y-99873000D03*
X142748000Y-101143000D03*
X142748000Y-102413000D03*
X142748000Y-103683000D03*
X142748000Y-104953000D03*
X142748000Y-106223000D03*
X142748000Y-107493000D03*
X142748000Y-108763000D03*
X142748000Y-110033000D03*
X142748000Y-111303000D03*
X142748000Y-112573000D03*
X142748000Y-113843000D03*
X142748000Y-115113000D03*
X142748000Y-116383000D03*
X142748000Y-117653000D03*
X142748000Y-118923000D03*
X142748000Y-120193000D03*
X142748000Y-121463000D03*
X142748000Y-122733000D03*
X142748000Y-124003000D03*
X152148000Y-124003000D03*
X152148000Y-122733000D03*
X152148000Y-121463000D03*
X152148000Y-120193000D03*
X152148000Y-118923000D03*
X152148000Y-117653000D03*
X152148000Y-116383000D03*
X152148000Y-115113000D03*
X152148000Y-113843000D03*
X152148000Y-112573000D03*
X152148000Y-111303000D03*
X152148000Y-110033000D03*
X152148000Y-108763000D03*
X152148000Y-107493000D03*
X152148000Y-106223000D03*
X152148000Y-104953000D03*
X152148000Y-103683000D03*
X152148000Y-102413000D03*
X152148000Y-101143000D03*
X152148000Y-99873000D03*
%TD*%
D14*
%TO.C,R5*%
X243602000Y-88316000D03*
X245602000Y-88316000D03*
%TD*%
D11*
%TO.C,R13*%
X158496000Y-128813000D03*
X158496000Y-126813000D03*
%TD*%
%TO.C,R15*%
X160655000Y-128813000D03*
X160655000Y-126813000D03*
%TD*%
D10*
%TO.C,R25*%
X161528000Y-94412000D03*
X159528000Y-94412000D03*
%TD*%
D23*
%TO.C,U1*%
X242857500Y-129845000D03*
X242857500Y-128575000D03*
X242857500Y-127305000D03*
X242857500Y-126035000D03*
X242857500Y-124765000D03*
X242857500Y-123495000D03*
X242857500Y-122225000D03*
X242857500Y-120955000D03*
X242857500Y-119685000D03*
X242857500Y-118415000D03*
X235932500Y-118415000D03*
X235932500Y-119685000D03*
X235932500Y-120955000D03*
X235932500Y-122225000D03*
X235932500Y-123495000D03*
X235932500Y-124765000D03*
X235932500Y-126035000D03*
X235932500Y-127305000D03*
X235932500Y-128575000D03*
X235932500Y-129845000D03*
%TD*%
D18*
%TO.C,R19*%
X139827000Y-82617000D03*
X139827000Y-84617000D03*
%TD*%
D14*
%TO.C,R6*%
X229500000Y-118850000D03*
X231500000Y-118850000D03*
%TD*%
D13*
%TO.C,C9*%
X232150000Y-129912500D03*
X232150000Y-131987500D03*
%TD*%
D10*
%TO.C,R24*%
X161528000Y-92380000D03*
X159528000Y-92380000D03*
%TD*%
D14*
%TO.C,R3*%
X251857000Y-88316000D03*
X253857000Y-88316000D03*
%TD*%
D21*
%TO.C,U9*%
X132461000Y-134733000D03*
X133731000Y-134733000D03*
X135001000Y-134733000D03*
X136271000Y-134733000D03*
X137541000Y-134733000D03*
X138811000Y-134733000D03*
X140081000Y-134733000D03*
X140081000Y-129783000D03*
X138811000Y-129783000D03*
X137541000Y-129783000D03*
X136271000Y-129783000D03*
X135001000Y-129783000D03*
X133731000Y-129783000D03*
X132461000Y-129783000D03*
%TD*%
D12*
%TO.C,C10*%
X118131500Y-123241000D03*
X116056500Y-123241000D03*
%TD*%
D22*
%TO.C,U5*%
X73279000Y-89154000D03*
X74549000Y-89154000D03*
X75819000Y-89154000D03*
X77089000Y-89154000D03*
X78359000Y-89154000D03*
X79629000Y-89154000D03*
X80899000Y-89154000D03*
X82169000Y-89154000D03*
X83439000Y-89154000D03*
X84709000Y-89154000D03*
X85979000Y-89154000D03*
X87249000Y-89154000D03*
X88519000Y-89154000D03*
X89789000Y-89154000D03*
X91059000Y-89154000D03*
X92329000Y-89154000D03*
X93599000Y-89154000D03*
X94869000Y-89154000D03*
X96139000Y-89154000D03*
X97409000Y-89154000D03*
X97409000Y-79754000D03*
X96139000Y-79754000D03*
X94869000Y-79754000D03*
X93599000Y-79754000D03*
X92329000Y-79754000D03*
X91059000Y-79754000D03*
X89789000Y-79754000D03*
X88519000Y-79754000D03*
X87249000Y-79754000D03*
X85979000Y-79754000D03*
X84709000Y-79754000D03*
X83439000Y-79754000D03*
X82169000Y-79754000D03*
X80899000Y-79754000D03*
X79629000Y-79754000D03*
X78359000Y-79754000D03*
X77089000Y-79754000D03*
X75819000Y-79754000D03*
X74549000Y-79754000D03*
X73279000Y-79754000D03*
%TD*%
D14*
%TO.C,R8*%
X175250000Y-120050000D03*
X177250000Y-120050000D03*
%TD*%
D10*
%TO.C,R37*%
X161528000Y-118923000D03*
X159528000Y-118923000D03*
%TD*%
D14*
%TO.C,R10*%
X171450000Y-122100000D03*
X173450000Y-122100000D03*
%TD*%
D10*
%TO.C,R46*%
X78216000Y-127842000D03*
X76216000Y-127842000D03*
%TD*%
D13*
%TO.C,C16*%
X76200000Y-95914500D03*
X76200000Y-97989500D03*
%TD*%
D15*
%TO.C,C7*%
X247628500Y-96317000D03*
X249703500Y-96317000D03*
%TD*%
D18*
%TO.C,R18*%
X141859000Y-82617000D03*
X141859000Y-84617000D03*
%TD*%
D10*
%TO.C,R29*%
X161528000Y-102540000D03*
X159528000Y-102540000D03*
%TD*%
D20*
%TO.C,FB2*%
X243586000Y-93405000D03*
X243586000Y-91355000D03*
%TD*%
M02*
