%TF.GenerationSoftware,KiCad,Pcbnew,7.0.1*%
%TF.CreationDate,2023-06-12T23:07:52+03:00*%
%TF.ProjectId,virge-vlb,76697267-652d-4766-9c62-2e6b69636164,rev?*%
%TF.SameCoordinates,Original*%
%TF.FileFunction,Soldermask,Bot*%
%TF.FilePolarity,Negative*%
%FSLAX46Y46*%
G04 Gerber Fmt 4.6, Leading zero omitted, Abs format (unit mm)*
G04 Created by KiCad (PCBNEW 7.0.1) date 2023-06-12 23:07:52*
%MOMM*%
%LPD*%
G01*
G04 APERTURE LIST*
%TA.AperFunction,Profile*%
%ADD10C,0.120000*%
%TD*%
%ADD11R,1.700000X1.700000*%
%ADD12O,1.700000X1.700000*%
%ADD13C,1.500000*%
%ADD14C,4.000000*%
%ADD15R,1.600000X1.600000*%
%ADD16C,1.600000*%
%ADD17R,1.020000X4.570000*%
%ADD18R,0.510000X0.760000*%
%ADD19R,1.780000X7.620000*%
%ADD20O,1.600000X1.600000*%
G04 APERTURE END LIST*
D10*
%TO.C,J1*%
X45600000Y-138200000D02*
X45600000Y-76600000D01*
X45600000Y-138200000D02*
X45600000Y-147000000D01*
X45600000Y-147000000D02*
X60200000Y-147000000D01*
X60200000Y-138700000D02*
X62000000Y-138700000D01*
X60200000Y-147000000D02*
X60200000Y-138700000D01*
X62000000Y-138700000D02*
X62000000Y-147000000D01*
X62000000Y-147000000D02*
X119800000Y-147000000D01*
X119800000Y-138100000D02*
X119800000Y-147000000D01*
X182300000Y-138100000D02*
X119800000Y-138100000D01*
X182300000Y-138100000D02*
X182300000Y-147000000D01*
X182300000Y-147000000D02*
X263700000Y-147000000D01*
X263700000Y-138100000D02*
X286140004Y-138100000D01*
X263700000Y-147000000D02*
X263700000Y-138100000D01*
X286140004Y-76600000D02*
X45600000Y-76600000D01*
X286140004Y-138100000D02*
X286140004Y-76600000D01*
%TD*%
D11*
%TO.C,J3*%
X48260000Y-79121000D03*
D12*
X50800000Y-79121000D03*
X48260000Y-81661000D03*
X50800000Y-81661000D03*
X48260000Y-84201000D03*
X50800000Y-84201000D03*
X48260000Y-86741000D03*
X50800000Y-86741000D03*
X48260000Y-89281000D03*
X50800000Y-89281000D03*
X48260000Y-91821000D03*
X50800000Y-91821000D03*
X48260000Y-94361000D03*
X50800000Y-94361000D03*
X48260000Y-96901000D03*
X50800000Y-96901000D03*
X48260000Y-99441000D03*
X50800000Y-99441000D03*
X48260000Y-101981000D03*
X50800000Y-101981000D03*
X48260000Y-104521000D03*
X50800000Y-104521000D03*
X48260000Y-107061000D03*
X50800000Y-107061000D03*
X48260000Y-109601000D03*
X50800000Y-109601000D03*
%TD*%
D11*
%TO.C,JP1*%
X256921000Y-109987000D03*
D12*
X256921000Y-107447000D03*
%TD*%
D13*
%TO.C,Y1*%
X80952000Y-99822000D03*
X85852000Y-99822000D03*
%TD*%
D14*
%TO.C,J2*%
X274979669Y-109915000D03*
X274979669Y-84915000D03*
D15*
X273559669Y-93100000D03*
D16*
X273559669Y-95390000D03*
X273559669Y-97680000D03*
X273559669Y-99970000D03*
X273559669Y-102260000D03*
X275539669Y-91955000D03*
X275539669Y-94245000D03*
X275539669Y-96535000D03*
X275539669Y-98825000D03*
X275539669Y-101115000D03*
X277519669Y-93100000D03*
X277519669Y-95390000D03*
X277519669Y-97680000D03*
X277519669Y-99970000D03*
X277519669Y-102260000D03*
%TD*%
D11*
%TO.C,JP2*%
X49530000Y-117475000D03*
D12*
X49530000Y-120015000D03*
X49530000Y-122555000D03*
%TD*%
D17*
%TO.C,J1*%
X118900000Y-142300000D03*
D18*
X118900000Y-144960000D03*
D17*
X117630000Y-142300000D03*
D18*
X117630000Y-144960000D03*
D17*
X116370000Y-142300000D03*
D18*
X116370000Y-144960000D03*
D17*
X115090000Y-142300000D03*
D18*
X115090000Y-144960000D03*
D17*
X113820000Y-142300000D03*
D18*
X113820000Y-144960000D03*
D17*
X112550000Y-142300000D03*
D18*
X112550000Y-144960000D03*
D17*
X111280000Y-142300000D03*
D18*
X111280000Y-144960000D03*
D17*
X110010000Y-142300000D03*
D18*
X110010000Y-144960000D03*
D17*
X108740000Y-142300000D03*
D18*
X108740000Y-144960000D03*
D17*
X107470000Y-142300000D03*
D18*
X107470000Y-144960000D03*
D17*
X106200000Y-142300000D03*
D18*
X106200000Y-144960000D03*
D17*
X104940000Y-142300000D03*
D18*
X104940000Y-144960000D03*
D17*
X103660000Y-142300000D03*
D18*
X103660000Y-144960000D03*
D17*
X102390000Y-142300000D03*
D18*
X102390000Y-144960000D03*
D17*
X101120000Y-142300000D03*
D18*
X101120000Y-144960000D03*
D17*
X99850000Y-142300000D03*
D18*
X99850000Y-144960000D03*
D17*
X98580000Y-142300000D03*
D18*
X98580000Y-144960000D03*
D17*
X97310000Y-142300000D03*
D18*
X97310000Y-144960000D03*
D17*
X96050000Y-142300000D03*
D18*
X96050000Y-144960000D03*
D17*
X94770000Y-142300000D03*
D18*
X94770000Y-144960000D03*
D17*
X93510000Y-142300000D03*
D18*
X93510000Y-144960000D03*
D17*
X92230000Y-142300000D03*
D18*
X92230000Y-144960000D03*
D17*
X90960000Y-142300000D03*
D18*
X90960000Y-144960000D03*
D17*
X89690000Y-142300000D03*
D18*
X89690000Y-144960000D03*
D17*
X88420000Y-142300000D03*
D18*
X88420000Y-144960000D03*
D17*
X87150000Y-142300000D03*
D18*
X87150000Y-144960000D03*
D17*
X85880000Y-142300000D03*
D18*
X85880000Y-144960000D03*
D17*
X84610000Y-142300000D03*
D18*
X84610000Y-144960000D03*
D17*
X83340000Y-142300000D03*
D18*
X83340000Y-144960000D03*
D17*
X82070000Y-142300000D03*
D18*
X82070000Y-144960000D03*
D17*
X80800000Y-142300000D03*
D18*
X80800000Y-144960000D03*
D17*
X79530000Y-142300000D03*
D18*
X79530000Y-144960000D03*
D17*
X78260000Y-142300000D03*
D18*
X78260000Y-144960000D03*
D17*
X76990000Y-142300000D03*
D18*
X76990000Y-144960000D03*
D17*
X75720000Y-142300000D03*
D18*
X75720000Y-144960000D03*
D17*
X74450000Y-142300000D03*
D18*
X74450000Y-144960000D03*
D17*
X73180000Y-142300000D03*
D18*
X73180000Y-144960000D03*
D17*
X71910000Y-142300000D03*
D18*
X71910000Y-144960000D03*
D17*
X70640000Y-142300000D03*
D18*
X70640000Y-144960000D03*
D17*
X69370000Y-142300000D03*
D18*
X69370000Y-144960000D03*
D17*
X68100000Y-142300000D03*
D18*
X68100000Y-144960000D03*
D17*
X66830000Y-142300000D03*
D18*
X66830000Y-144960000D03*
D17*
X65560000Y-142300000D03*
D18*
X65560000Y-144960000D03*
D17*
X64290000Y-142300000D03*
D18*
X64290000Y-144960000D03*
D17*
X63020000Y-142300000D03*
D18*
X63020000Y-144960000D03*
D17*
X59210000Y-142300000D03*
D18*
X59210000Y-144960000D03*
D17*
X57940000Y-142300000D03*
D18*
X57940000Y-144960000D03*
D17*
X56670000Y-142300000D03*
D18*
X56670000Y-144960000D03*
D17*
X55400000Y-142300000D03*
D18*
X55400000Y-144960000D03*
D17*
X54130000Y-142300000D03*
D18*
X54130000Y-144960000D03*
D17*
X52860000Y-142300000D03*
D18*
X52860000Y-144960000D03*
D17*
X51590000Y-142300000D03*
D18*
X51590000Y-144960000D03*
D17*
X50320000Y-142300000D03*
D18*
X50320000Y-144960000D03*
D17*
X49050000Y-142300000D03*
D18*
X49050000Y-144960000D03*
D17*
X47780000Y-142300000D03*
D18*
X47780000Y-144960000D03*
D17*
X46510000Y-142300000D03*
D18*
X46510000Y-144960000D03*
D19*
X261100000Y-142000000D03*
X258560000Y-142000000D03*
X256020000Y-142000000D03*
X253480000Y-142000000D03*
X250940000Y-142000000D03*
X248400000Y-142000000D03*
X245860000Y-142000000D03*
X243320000Y-142000000D03*
X240780000Y-142000000D03*
X238240000Y-142000000D03*
X235700000Y-142000000D03*
X233160000Y-142000000D03*
X230620000Y-142000000D03*
X228080000Y-142000000D03*
X225540000Y-142000000D03*
X223000000Y-142000000D03*
X220460000Y-142000000D03*
X217920000Y-142000000D03*
X215380000Y-142000000D03*
X212840000Y-142000000D03*
X210300000Y-142000000D03*
X207760000Y-142000000D03*
X205220000Y-142000000D03*
X202680000Y-142000000D03*
X200140000Y-142000000D03*
X197600000Y-142000000D03*
X195060000Y-142000000D03*
X192520000Y-142000000D03*
X189980000Y-142000000D03*
X187440000Y-142000000D03*
X184900000Y-142000000D03*
%TD*%
D15*
%TO.C,U2*%
X239903000Y-116459000D03*
D20*
X237363000Y-116459000D03*
X234823000Y-116459000D03*
X232283000Y-116459000D03*
X229743000Y-116459000D03*
X227203000Y-116459000D03*
X224663000Y-116459000D03*
X222123000Y-116459000D03*
X219583000Y-116459000D03*
X217043000Y-116459000D03*
X214503000Y-116459000D03*
X211963000Y-116459000D03*
X209423000Y-116459000D03*
X206883000Y-116459000D03*
X204343000Y-116459000D03*
X201803000Y-116459000D03*
X201803000Y-131699000D03*
X204343000Y-131699000D03*
X206883000Y-131699000D03*
X209423000Y-131699000D03*
X211963000Y-131699000D03*
X214503000Y-131699000D03*
X217043000Y-131699000D03*
X219583000Y-131699000D03*
X222123000Y-131699000D03*
X224663000Y-131699000D03*
X227203000Y-131699000D03*
X229743000Y-131699000D03*
X232283000Y-131699000D03*
X234823000Y-131699000D03*
X237363000Y-131699000D03*
X239903000Y-131699000D03*
%TD*%
M02*
