%TF.GenerationSoftware,KiCad,Pcbnew,7.0.1*%
%TF.CreationDate,2023-06-12T23:07:52+03:00*%
%TF.ProjectId,virge-vlb,76697267-652d-4766-9c62-2e6b69636164,rev?*%
%TF.SameCoordinates,Original*%
%TF.FileFunction,Soldermask,Top*%
%TF.FilePolarity,Negative*%
%FSLAX46Y46*%
G04 Gerber Fmt 4.6, Leading zero omitted, Abs format (unit mm)*
G04 Created by KiCad (PCBNEW 7.0.1) date 2023-06-12 23:07:52*
%MOMM*%
%LPD*%
G01*
G04 APERTURE LIST*
G04 Aperture macros list*
%AMRoundRect*
0 Rectangle with rounded corners*
0 $1 Rounding radius*
0 $2 $3 $4 $5 $6 $7 $8 $9 X,Y pos of 4 corners*
0 Add a 4 corners polygon primitive as box body*
4,1,4,$2,$3,$4,$5,$6,$7,$8,$9,$2,$3,0*
0 Add four circle primitives for the rounded corners*
1,1,$1+$1,$2,$3*
1,1,$1+$1,$4,$5*
1,1,$1+$1,$6,$7*
1,1,$1+$1,$8,$9*
0 Add four rect primitives between the rounded corners*
20,1,$1+$1,$2,$3,$4,$5,0*
20,1,$1+$1,$4,$5,$6,$7,0*
20,1,$1+$1,$6,$7,$8,$9,0*
20,1,$1+$1,$8,$9,$2,$3,0*%
G04 Aperture macros list end*
%TA.AperFunction,Profile*%
%ADD10C,0.120000*%
%TD*%
%ADD11RoundRect,0.250000X-0.350000X-0.450000X0.350000X-0.450000X0.350000X0.450000X-0.350000X0.450000X0*%
%ADD12RoundRect,0.250000X0.475000X-0.337500X0.475000X0.337500X-0.475000X0.337500X-0.475000X-0.337500X0*%
%ADD13RoundRect,0.250000X0.450000X-0.350000X0.450000X0.350000X-0.450000X0.350000X-0.450000X-0.350000X0*%
%ADD14RoundRect,0.250000X0.337500X0.475000X-0.337500X0.475000X-0.337500X-0.475000X0.337500X-0.475000X0*%
%ADD15RoundRect,0.250000X0.350000X0.450000X-0.350000X0.450000X-0.350000X-0.450000X0.350000X-0.450000X0*%
%ADD16R,1.700000X1.700000*%
%ADD17O,1.700000X1.700000*%
%ADD18RoundRect,0.250000X0.325000X0.450000X-0.325000X0.450000X-0.325000X-0.450000X0.325000X-0.450000X0*%
%ADD19C,1.500000*%
%ADD20RoundRect,0.075000X0.075000X-0.662500X0.075000X0.662500X-0.075000X0.662500X-0.075000X-0.662500X0*%
%ADD21RoundRect,0.075000X0.662500X-0.075000X0.662500X0.075000X-0.662500X0.075000X-0.662500X-0.075000X0*%
%ADD22RoundRect,0.250000X-0.450000X0.350000X-0.450000X-0.350000X0.450000X-0.350000X0.450000X0.350000X0*%
%ADD23RoundRect,0.150000X-0.700000X-0.150000X0.700000X-0.150000X0.700000X0.150000X-0.700000X0.150000X0*%
%ADD24RoundRect,0.250000X-0.337500X-0.475000X0.337500X-0.475000X0.337500X0.475000X-0.337500X0.475000X0*%
%ADD25C,4.000000*%
%ADD26R,1.600000X1.600000*%
%ADD27C,1.600000*%
%ADD28RoundRect,0.150000X0.837500X0.150000X-0.837500X0.150000X-0.837500X-0.150000X0.837500X-0.150000X0*%
%ADD29RoundRect,0.150000X0.150000X-0.700000X0.150000X0.700000X-0.150000X0.700000X-0.150000X-0.700000X0*%
%ADD30RoundRect,0.250000X-0.475000X0.337500X-0.475000X-0.337500X0.475000X-0.337500X0.475000X0.337500X0*%
%ADD31R,1.020000X4.570000*%
%ADD32R,0.510000X0.760000*%
%ADD33R,1.780000X7.620000*%
%ADD34O,1.600000X1.600000*%
G04 APERTURE END LIST*
D10*
%TO.C,J1*%
X45600000Y-138200000D02*
X45600000Y-76600000D01*
X45600000Y-138200000D02*
X45600000Y-147000000D01*
X45600000Y-147000000D02*
X60200000Y-147000000D01*
X60200000Y-138700000D02*
X62000000Y-138700000D01*
X60200000Y-147000000D02*
X60200000Y-138700000D01*
X62000000Y-138700000D02*
X62000000Y-147000000D01*
X62000000Y-147000000D02*
X119800000Y-147000000D01*
X119800000Y-138100000D02*
X119800000Y-147000000D01*
X182300000Y-138100000D02*
X119800000Y-138100000D01*
X182300000Y-138100000D02*
X182300000Y-147000000D01*
X182300000Y-147000000D02*
X263700000Y-147000000D01*
X263700000Y-138100000D02*
X286140004Y-138100000D01*
X263700000Y-147000000D02*
X263700000Y-138100000D01*
X286140004Y-76600000D02*
X45600000Y-76600000D01*
X286140004Y-138100000D02*
X286140004Y-76600000D01*
%TD*%
D11*
%TO.C,R28*%
X63389000Y-93726000D03*
X65389000Y-93726000D03*
%TD*%
D12*
%TO.C,C4*%
X266446000Y-91588500D03*
X266446000Y-89513500D03*
%TD*%
D13*
%TO.C,R7*%
X111379000Y-98790000D03*
X111379000Y-96790000D03*
%TD*%
D14*
%TO.C,C9*%
X89937500Y-105029000D03*
X87862500Y-105029000D03*
%TD*%
D13*
%TO.C,R14*%
X155321000Y-81137000D03*
X155321000Y-79137000D03*
%TD*%
D15*
%TO.C,R49*%
X130667000Y-107442000D03*
X128667000Y-107442000D03*
%TD*%
%TO.C,R34*%
X89900000Y-107061000D03*
X87900000Y-107061000D03*
%TD*%
D16*
%TO.C,J3*%
X48260000Y-79121000D03*
D17*
X50800000Y-79121000D03*
X48260000Y-81661000D03*
X50800000Y-81661000D03*
X48260000Y-84201000D03*
X50800000Y-84201000D03*
X48260000Y-86741000D03*
X50800000Y-86741000D03*
X48260000Y-89281000D03*
X50800000Y-89281000D03*
X48260000Y-91821000D03*
X50800000Y-91821000D03*
X48260000Y-94361000D03*
X50800000Y-94361000D03*
X48260000Y-96901000D03*
X50800000Y-96901000D03*
X48260000Y-99441000D03*
X50800000Y-99441000D03*
X48260000Y-101981000D03*
X50800000Y-101981000D03*
X48260000Y-104521000D03*
X50800000Y-104521000D03*
X48260000Y-107061000D03*
X50800000Y-107061000D03*
X48260000Y-109601000D03*
X50800000Y-109601000D03*
%TD*%
D11*
%TO.C,R26*%
X67326000Y-90297000D03*
X69326000Y-90297000D03*
%TD*%
%TO.C,R35*%
X87900000Y-111125000D03*
X89900000Y-111125000D03*
%TD*%
D15*
%TO.C,R21*%
X56499000Y-86741000D03*
X54499000Y-86741000D03*
%TD*%
%TO.C,R53*%
X175752000Y-114046000D03*
X173752000Y-114046000D03*
%TD*%
%TO.C,R27*%
X69326000Y-88265000D03*
X67326000Y-88265000D03*
%TD*%
D16*
%TO.C,JP1*%
X256921000Y-109987000D03*
D17*
X256921000Y-107447000D03*
%TD*%
D13*
%TO.C,R1*%
X258445000Y-91551000D03*
X258445000Y-89551000D03*
%TD*%
D18*
%TO.C,FB3*%
X263407000Y-99822000D03*
X261357000Y-99822000D03*
%TD*%
D15*
%TO.C,R46*%
X175752000Y-109982000D03*
X173752000Y-109982000D03*
%TD*%
D19*
%TO.C,Y1*%
X80952000Y-99822000D03*
X85852000Y-99822000D03*
%TD*%
D20*
%TO.C,U1*%
X96597000Y-131675500D03*
X97097000Y-131675500D03*
X97597000Y-131675500D03*
X98097000Y-131675500D03*
X98597000Y-131675500D03*
X99097000Y-131675500D03*
X99597000Y-131675500D03*
X100097000Y-131675500D03*
X100597000Y-131675500D03*
X101097000Y-131675500D03*
X101597000Y-131675500D03*
X102097000Y-131675500D03*
X102597000Y-131675500D03*
X103097000Y-131675500D03*
X103597000Y-131675500D03*
X104097000Y-131675500D03*
X104597000Y-131675500D03*
X105097000Y-131675500D03*
X105597000Y-131675500D03*
X106097000Y-131675500D03*
X106597000Y-131675500D03*
X107097000Y-131675500D03*
X107597000Y-131675500D03*
X108097000Y-131675500D03*
X108597000Y-131675500D03*
X109097000Y-131675500D03*
X109597000Y-131675500D03*
X110097000Y-131675500D03*
X110597000Y-131675500D03*
X111097000Y-131675500D03*
X111597000Y-131675500D03*
X112097000Y-131675500D03*
X112597000Y-131675500D03*
X113097000Y-131675500D03*
X113597000Y-131675500D03*
X114097000Y-131675500D03*
X114597000Y-131675500D03*
X115097000Y-131675500D03*
X115597000Y-131675500D03*
X116097000Y-131675500D03*
X116597000Y-131675500D03*
X117097000Y-131675500D03*
X117597000Y-131675500D03*
X118097000Y-131675500D03*
X118597000Y-131675500D03*
X119097000Y-131675500D03*
X119597000Y-131675500D03*
X120097000Y-131675500D03*
X120597000Y-131675500D03*
X121097000Y-131675500D03*
X121597000Y-131675500D03*
X122097000Y-131675500D03*
D21*
X124309500Y-129463000D03*
X124309500Y-128963000D03*
X124309500Y-128463000D03*
X124309500Y-127963000D03*
X124309500Y-127463000D03*
X124309500Y-126963000D03*
X124309500Y-126463000D03*
X124309500Y-125963000D03*
X124309500Y-125463000D03*
X124309500Y-124963000D03*
X124309500Y-124463000D03*
X124309500Y-123963000D03*
X124309500Y-123463000D03*
X124309500Y-122963000D03*
X124309500Y-122463000D03*
X124309500Y-121963000D03*
X124309500Y-121463000D03*
X124309500Y-120963000D03*
X124309500Y-120463000D03*
X124309500Y-119963000D03*
X124309500Y-119463000D03*
X124309500Y-118963000D03*
X124309500Y-118463000D03*
X124309500Y-117963000D03*
X124309500Y-117463000D03*
X124309500Y-116963000D03*
X124309500Y-116463000D03*
X124309500Y-115963000D03*
X124309500Y-115463000D03*
X124309500Y-114963000D03*
X124309500Y-114463000D03*
X124309500Y-113963000D03*
X124309500Y-113463000D03*
X124309500Y-112963000D03*
X124309500Y-112463000D03*
X124309500Y-111963000D03*
X124309500Y-111463000D03*
X124309500Y-110963000D03*
X124309500Y-110463000D03*
X124309500Y-109963000D03*
X124309500Y-109463000D03*
X124309500Y-108963000D03*
X124309500Y-108463000D03*
X124309500Y-107963000D03*
X124309500Y-107463000D03*
X124309500Y-106963000D03*
X124309500Y-106463000D03*
X124309500Y-105963000D03*
X124309500Y-105463000D03*
X124309500Y-104963000D03*
X124309500Y-104463000D03*
X124309500Y-103963000D03*
D20*
X122097000Y-101750500D03*
X121597000Y-101750500D03*
X121097000Y-101750500D03*
X120597000Y-101750500D03*
X120097000Y-101750500D03*
X119597000Y-101750500D03*
X119097000Y-101750500D03*
X118597000Y-101750500D03*
X118097000Y-101750500D03*
X117597000Y-101750500D03*
X117097000Y-101750500D03*
X116597000Y-101750500D03*
X116097000Y-101750500D03*
X115597000Y-101750500D03*
X115097000Y-101750500D03*
X114597000Y-101750500D03*
X114097000Y-101750500D03*
X113597000Y-101750500D03*
X113097000Y-101750500D03*
X112597000Y-101750500D03*
X112097000Y-101750500D03*
X111597000Y-101750500D03*
X111097000Y-101750500D03*
X110597000Y-101750500D03*
X110097000Y-101750500D03*
X109597000Y-101750500D03*
X109097000Y-101750500D03*
X108597000Y-101750500D03*
X108097000Y-101750500D03*
X107597000Y-101750500D03*
X107097000Y-101750500D03*
X106597000Y-101750500D03*
X106097000Y-101750500D03*
X105597000Y-101750500D03*
X105097000Y-101750500D03*
X104597000Y-101750500D03*
X104097000Y-101750500D03*
X103597000Y-101750500D03*
X103097000Y-101750500D03*
X102597000Y-101750500D03*
X102097000Y-101750500D03*
X101597000Y-101750500D03*
X101097000Y-101750500D03*
X100597000Y-101750500D03*
X100097000Y-101750500D03*
X99597000Y-101750500D03*
X99097000Y-101750500D03*
X98597000Y-101750500D03*
X98097000Y-101750500D03*
X97597000Y-101750500D03*
X97097000Y-101750500D03*
X96597000Y-101750500D03*
D21*
X94384500Y-103963000D03*
X94384500Y-104463000D03*
X94384500Y-104963000D03*
X94384500Y-105463000D03*
X94384500Y-105963000D03*
X94384500Y-106463000D03*
X94384500Y-106963000D03*
X94384500Y-107463000D03*
X94384500Y-107963000D03*
X94384500Y-108463000D03*
X94384500Y-108963000D03*
X94384500Y-109463000D03*
X94384500Y-109963000D03*
X94384500Y-110463000D03*
X94384500Y-110963000D03*
X94384500Y-111463000D03*
X94384500Y-111963000D03*
X94384500Y-112463000D03*
X94384500Y-112963000D03*
X94384500Y-113463000D03*
X94384500Y-113963000D03*
X94384500Y-114463000D03*
X94384500Y-114963000D03*
X94384500Y-115463000D03*
X94384500Y-115963000D03*
X94384500Y-116463000D03*
X94384500Y-116963000D03*
X94384500Y-117463000D03*
X94384500Y-117963000D03*
X94384500Y-118463000D03*
X94384500Y-118963000D03*
X94384500Y-119463000D03*
X94384500Y-119963000D03*
X94384500Y-120463000D03*
X94384500Y-120963000D03*
X94384500Y-121463000D03*
X94384500Y-121963000D03*
X94384500Y-122463000D03*
X94384500Y-122963000D03*
X94384500Y-123463000D03*
X94384500Y-123963000D03*
X94384500Y-124463000D03*
X94384500Y-124963000D03*
X94384500Y-125463000D03*
X94384500Y-125963000D03*
X94384500Y-126463000D03*
X94384500Y-126963000D03*
X94384500Y-127463000D03*
X94384500Y-127963000D03*
X94384500Y-128463000D03*
X94384500Y-128963000D03*
X94384500Y-129463000D03*
%TD*%
D22*
%TO.C,R8*%
X159385000Y-79137000D03*
X159385000Y-81137000D03*
%TD*%
D12*
%TO.C,C6*%
X266446000Y-99843500D03*
X266446000Y-97768500D03*
%TD*%
%TO.C,C3*%
X256159000Y-99843500D03*
X256159000Y-97768500D03*
%TD*%
D11*
%TO.C,R9*%
X127905000Y-113157000D03*
X129905000Y-113157000D03*
%TD*%
D23*
%TO.C,U3*%
X137158000Y-101219000D03*
X137158000Y-102489000D03*
X137158000Y-103759000D03*
X137158000Y-105029000D03*
X137158000Y-106299000D03*
X137158000Y-107569000D03*
X137158000Y-108839000D03*
X137158000Y-110109000D03*
X137158000Y-111379000D03*
X137158000Y-112649000D03*
X137158000Y-113919000D03*
X137158000Y-115189000D03*
X137158000Y-116459000D03*
X137158000Y-117729000D03*
X137158000Y-118999000D03*
X137158000Y-120269000D03*
X137158000Y-121539000D03*
X137158000Y-122809000D03*
X137158000Y-124079000D03*
X137158000Y-125349000D03*
X146558000Y-125349000D03*
X146558000Y-124079000D03*
X146558000Y-122809000D03*
X146558000Y-121539000D03*
X146558000Y-120269000D03*
X146558000Y-118999000D03*
X146558000Y-117729000D03*
X146558000Y-116459000D03*
X146558000Y-115189000D03*
X146558000Y-113919000D03*
X146558000Y-112649000D03*
X146558000Y-111379000D03*
X146558000Y-110109000D03*
X146558000Y-108839000D03*
X146558000Y-107569000D03*
X146558000Y-106299000D03*
X146558000Y-105029000D03*
X146558000Y-103759000D03*
X146558000Y-102489000D03*
X146558000Y-101219000D03*
%TD*%
D18*
%TO.C,FB1*%
X263407000Y-91567000D03*
X261357000Y-91567000D03*
%TD*%
D12*
%TO.C,C5*%
X266446000Y-95652500D03*
X266446000Y-93577500D03*
%TD*%
D15*
%TO.C,R23*%
X56499000Y-91821000D03*
X54499000Y-91821000D03*
%TD*%
%TO.C,R17*%
X68818000Y-134874000D03*
X66818000Y-134874000D03*
%TD*%
D22*
%TO.C,R11*%
X177038000Y-128159000D03*
X177038000Y-130159000D03*
%TD*%
D15*
%TO.C,R25*%
X56499000Y-96901000D03*
X54499000Y-96901000D03*
%TD*%
D24*
%TO.C,C10*%
X141075500Y-132200000D03*
X143150500Y-132200000D03*
%TD*%
D15*
%TO.C,R24*%
X56499000Y-94361000D03*
X54499000Y-94361000D03*
%TD*%
%TO.C,R29*%
X65389000Y-95885000D03*
X63389000Y-95885000D03*
%TD*%
D11*
%TO.C,R5*%
X266716000Y-104140000D03*
X268716000Y-104140000D03*
%TD*%
D25*
%TO.C,J2*%
X274979669Y-109915000D03*
X274979669Y-84915000D03*
D26*
X273559669Y-93100000D03*
D27*
X273559669Y-95390000D03*
X273559669Y-97680000D03*
X273559669Y-99970000D03*
X273559669Y-102260000D03*
X275539669Y-91955000D03*
X275539669Y-94245000D03*
X275539669Y-96535000D03*
X275539669Y-98825000D03*
X275539669Y-101115000D03*
X277519669Y-93100000D03*
X277519669Y-95390000D03*
X277519669Y-97680000D03*
X277519669Y-99970000D03*
X277519669Y-102260000D03*
%TD*%
D11*
%TO.C,R30*%
X54499000Y-101854000D03*
X56499000Y-101854000D03*
%TD*%
D15*
%TO.C,R38*%
X175752000Y-105918000D03*
X173752000Y-105918000D03*
%TD*%
D16*
%TO.C,JP2*%
X49530000Y-117475000D03*
D17*
X49530000Y-120015000D03*
X49530000Y-122555000D03*
%TD*%
D15*
%TO.C,R19*%
X56499000Y-81661000D03*
X54499000Y-81661000D03*
%TD*%
D11*
%TO.C,R54*%
X235601000Y-134239000D03*
X237601000Y-134239000D03*
%TD*%
D15*
%TO.C,R44*%
X175752000Y-91694000D03*
X173752000Y-91694000D03*
%TD*%
D11*
%TO.C,R33*%
X87900000Y-109093000D03*
X89900000Y-109093000D03*
%TD*%
D15*
%TO.C,R41*%
X175752000Y-99822000D03*
X173752000Y-99822000D03*
%TD*%
%TO.C,R40*%
X175752000Y-97790000D03*
X173752000Y-97790000D03*
%TD*%
%TO.C,R50*%
X175752000Y-122428000D03*
X173752000Y-122428000D03*
%TD*%
D28*
%TO.C,U10*%
X255303500Y-131191000D03*
X255303500Y-129921000D03*
X255303500Y-128651000D03*
X255303500Y-127381000D03*
X255303500Y-126111000D03*
X255303500Y-124841000D03*
X255303500Y-123571000D03*
X255303500Y-122301000D03*
X255303500Y-121031000D03*
X255303500Y-119761000D03*
X248378500Y-119761000D03*
X248378500Y-121031000D03*
X248378500Y-122301000D03*
X248378500Y-123571000D03*
X248378500Y-124841000D03*
X248378500Y-126111000D03*
X248378500Y-127381000D03*
X248378500Y-128651000D03*
X248378500Y-129921000D03*
X248378500Y-131191000D03*
%TD*%
D12*
%TO.C,C1*%
X256159000Y-91588500D03*
X256159000Y-89513500D03*
%TD*%
D29*
%TO.C,U6*%
X122301000Y-90500000D03*
X123571000Y-90500000D03*
X124841000Y-90500000D03*
X126111000Y-90500000D03*
X127381000Y-90500000D03*
X128651000Y-90500000D03*
X129921000Y-90500000D03*
X131191000Y-90500000D03*
X132461000Y-90500000D03*
X133731000Y-90500000D03*
X135001000Y-90500000D03*
X136271000Y-90500000D03*
X137541000Y-90500000D03*
X138811000Y-90500000D03*
X140081000Y-90500000D03*
X141351000Y-90500000D03*
X142621000Y-90500000D03*
X143891000Y-90500000D03*
X145161000Y-90500000D03*
X146431000Y-90500000D03*
X146431000Y-81100000D03*
X145161000Y-81100000D03*
X143891000Y-81100000D03*
X142621000Y-81100000D03*
X141351000Y-81100000D03*
X140081000Y-81100000D03*
X138811000Y-81100000D03*
X137541000Y-81100000D03*
X136271000Y-81100000D03*
X135001000Y-81100000D03*
X133731000Y-81100000D03*
X132461000Y-81100000D03*
X131191000Y-81100000D03*
X129921000Y-81100000D03*
X128651000Y-81100000D03*
X127381000Y-81100000D03*
X126111000Y-81100000D03*
X124841000Y-81100000D03*
X123571000Y-81100000D03*
X122301000Y-81100000D03*
%TD*%
D15*
%TO.C,R52*%
X175752000Y-118110000D03*
X173752000Y-118110000D03*
%TD*%
D13*
%TO.C,R13*%
X157353000Y-81137000D03*
X157353000Y-79137000D03*
%TD*%
D12*
%TO.C,C13*%
X80391000Y-83460500D03*
X80391000Y-81385500D03*
%TD*%
D15*
%TO.C,R42*%
X175752000Y-101854000D03*
X173752000Y-101854000D03*
%TD*%
D30*
%TO.C,C15*%
X62738000Y-130407500D03*
X62738000Y-132482500D03*
%TD*%
D15*
%TO.C,R45*%
X175752000Y-107950000D03*
X173752000Y-107950000D03*
%TD*%
%TO.C,R47*%
X175752000Y-112014000D03*
X173752000Y-112014000D03*
%TD*%
D13*
%TO.C,R6*%
X113411000Y-98790000D03*
X113411000Y-96790000D03*
%TD*%
%TO.C,R3*%
X258445000Y-99806000D03*
X258445000Y-97806000D03*
%TD*%
D15*
%TO.C,R48*%
X175752000Y-116078000D03*
X173752000Y-116078000D03*
%TD*%
D31*
%TO.C,J1*%
X118900000Y-142300000D03*
D32*
X118900000Y-144960000D03*
D31*
X117630000Y-142300000D03*
D32*
X117630000Y-144960000D03*
D31*
X116370000Y-142300000D03*
D32*
X116370000Y-144960000D03*
D31*
X115090000Y-142300000D03*
D32*
X115090000Y-144960000D03*
D31*
X113820000Y-142300000D03*
D32*
X113820000Y-144960000D03*
D31*
X112550000Y-142300000D03*
D32*
X112550000Y-144960000D03*
D31*
X111280000Y-142300000D03*
D32*
X111280000Y-144960000D03*
D31*
X110010000Y-142300000D03*
D32*
X110010000Y-144960000D03*
D31*
X108740000Y-142300000D03*
D32*
X108740000Y-144960000D03*
D31*
X107470000Y-142300000D03*
D32*
X107470000Y-144960000D03*
D31*
X106200000Y-142300000D03*
D32*
X106200000Y-144960000D03*
D31*
X104940000Y-142300000D03*
D32*
X104940000Y-144960000D03*
D31*
X103660000Y-142300000D03*
D32*
X103660000Y-144960000D03*
D31*
X102390000Y-142300000D03*
D32*
X102390000Y-144960000D03*
D31*
X101120000Y-142300000D03*
D32*
X101120000Y-144960000D03*
D31*
X99850000Y-142300000D03*
D32*
X99850000Y-144960000D03*
D31*
X98580000Y-142300000D03*
D32*
X98580000Y-144960000D03*
D31*
X97310000Y-142300000D03*
D32*
X97310000Y-144960000D03*
D31*
X96050000Y-142300000D03*
D32*
X96050000Y-144960000D03*
D31*
X94770000Y-142300000D03*
D32*
X94770000Y-144960000D03*
D31*
X93510000Y-142300000D03*
D32*
X93510000Y-144960000D03*
D31*
X92230000Y-142300000D03*
D32*
X92230000Y-144960000D03*
D31*
X90960000Y-142300000D03*
D32*
X90960000Y-144960000D03*
D31*
X89690000Y-142300000D03*
D32*
X89690000Y-144960000D03*
D31*
X88420000Y-142300000D03*
D32*
X88420000Y-144960000D03*
D31*
X87150000Y-142300000D03*
D32*
X87150000Y-144960000D03*
D31*
X85880000Y-142300000D03*
D32*
X85880000Y-144960000D03*
D31*
X84610000Y-142300000D03*
D32*
X84610000Y-144960000D03*
D31*
X83340000Y-142300000D03*
D32*
X83340000Y-144960000D03*
D31*
X82070000Y-142300000D03*
D32*
X82070000Y-144960000D03*
D31*
X80800000Y-142300000D03*
D32*
X80800000Y-144960000D03*
D31*
X79530000Y-142300000D03*
D32*
X79530000Y-144960000D03*
D31*
X78260000Y-142300000D03*
D32*
X78260000Y-144960000D03*
D31*
X76990000Y-142300000D03*
D32*
X76990000Y-144960000D03*
D31*
X75720000Y-142300000D03*
D32*
X75720000Y-144960000D03*
D31*
X74450000Y-142300000D03*
D32*
X74450000Y-144960000D03*
D31*
X73180000Y-142300000D03*
D32*
X73180000Y-144960000D03*
D31*
X71910000Y-142300000D03*
D32*
X71910000Y-144960000D03*
D31*
X70640000Y-142300000D03*
D32*
X70640000Y-144960000D03*
D31*
X69370000Y-142300000D03*
D32*
X69370000Y-144960000D03*
D31*
X68100000Y-142300000D03*
D32*
X68100000Y-144960000D03*
D31*
X66830000Y-142300000D03*
D32*
X66830000Y-144960000D03*
D31*
X65560000Y-142300000D03*
D32*
X65560000Y-144960000D03*
D31*
X64290000Y-142300000D03*
D32*
X64290000Y-144960000D03*
D31*
X63020000Y-142300000D03*
D32*
X63020000Y-144960000D03*
D31*
X59210000Y-142300000D03*
D32*
X59210000Y-144960000D03*
D31*
X57940000Y-142300000D03*
D32*
X57940000Y-144960000D03*
D31*
X56670000Y-142300000D03*
D32*
X56670000Y-144960000D03*
D31*
X55400000Y-142300000D03*
D32*
X55400000Y-144960000D03*
D31*
X54130000Y-142300000D03*
D32*
X54130000Y-144960000D03*
D31*
X52860000Y-142300000D03*
D32*
X52860000Y-144960000D03*
D31*
X51590000Y-142300000D03*
D32*
X51590000Y-144960000D03*
D31*
X50320000Y-142300000D03*
D32*
X50320000Y-144960000D03*
D31*
X49050000Y-142300000D03*
D32*
X49050000Y-144960000D03*
D31*
X47780000Y-142300000D03*
D32*
X47780000Y-144960000D03*
D31*
X46510000Y-142300000D03*
D32*
X46510000Y-144960000D03*
D33*
X261100000Y-142000000D03*
X258560000Y-142000000D03*
X256020000Y-142000000D03*
X253480000Y-142000000D03*
X250940000Y-142000000D03*
X248400000Y-142000000D03*
X245860000Y-142000000D03*
X243320000Y-142000000D03*
X240780000Y-142000000D03*
X238240000Y-142000000D03*
X235700000Y-142000000D03*
X233160000Y-142000000D03*
X230620000Y-142000000D03*
X228080000Y-142000000D03*
X225540000Y-142000000D03*
X223000000Y-142000000D03*
X220460000Y-142000000D03*
X217920000Y-142000000D03*
X215380000Y-142000000D03*
X212840000Y-142000000D03*
X210300000Y-142000000D03*
X207760000Y-142000000D03*
X205220000Y-142000000D03*
X202680000Y-142000000D03*
X200140000Y-142000000D03*
X197600000Y-142000000D03*
X195060000Y-142000000D03*
X192520000Y-142000000D03*
X189980000Y-142000000D03*
X187440000Y-142000000D03*
X184900000Y-142000000D03*
%TD*%
D30*
%TO.C,C14*%
X244348000Y-130788500D03*
X244348000Y-132863500D03*
%TD*%
D11*
%TO.C,R36*%
X129937000Y-101600000D03*
X131937000Y-101600000D03*
%TD*%
D18*
%TO.C,FB2*%
X263407000Y-95631000D03*
X261357000Y-95631000D03*
%TD*%
D24*
%TO.C,C11*%
X160760500Y-132200000D03*
X162835500Y-132200000D03*
%TD*%
D12*
%TO.C,C2*%
X256159000Y-95636500D03*
X256159000Y-93561500D03*
%TD*%
D15*
%TO.C,R31*%
X56499000Y-104140000D03*
X54499000Y-104140000D03*
%TD*%
D11*
%TO.C,R4*%
X266732000Y-110998000D03*
X268732000Y-110998000D03*
%TD*%
D23*
%TO.C,U4*%
X156972000Y-101219000D03*
X156972000Y-102489000D03*
X156972000Y-103759000D03*
X156972000Y-105029000D03*
X156972000Y-106299000D03*
X156972000Y-107569000D03*
X156972000Y-108839000D03*
X156972000Y-110109000D03*
X156972000Y-111379000D03*
X156972000Y-112649000D03*
X156972000Y-113919000D03*
X156972000Y-115189000D03*
X156972000Y-116459000D03*
X156972000Y-117729000D03*
X156972000Y-118999000D03*
X156972000Y-120269000D03*
X156972000Y-121539000D03*
X156972000Y-122809000D03*
X156972000Y-124079000D03*
X156972000Y-125349000D03*
X166372000Y-125349000D03*
X166372000Y-124079000D03*
X166372000Y-122809000D03*
X166372000Y-121539000D03*
X166372000Y-120269000D03*
X166372000Y-118999000D03*
X166372000Y-117729000D03*
X166372000Y-116459000D03*
X166372000Y-115189000D03*
X166372000Y-113919000D03*
X166372000Y-112649000D03*
X166372000Y-111379000D03*
X166372000Y-110109000D03*
X166372000Y-108839000D03*
X166372000Y-107569000D03*
X166372000Y-106299000D03*
X166372000Y-105029000D03*
X166372000Y-103759000D03*
X166372000Y-102489000D03*
X166372000Y-101219000D03*
%TD*%
D13*
%TO.C,R2*%
X258445000Y-95599000D03*
X258445000Y-93599000D03*
%TD*%
%TO.C,R10*%
X172720000Y-130159000D03*
X172720000Y-128159000D03*
%TD*%
%TO.C,R12*%
X174879000Y-130159000D03*
X174879000Y-128159000D03*
%TD*%
D15*
%TO.C,R22*%
X56499000Y-89281000D03*
X54499000Y-89281000D03*
%TD*%
%TO.C,R39*%
X175752000Y-95758000D03*
X173752000Y-95758000D03*
%TD*%
D22*
%TO.C,R16*%
X154051000Y-83963000D03*
X154051000Y-85963000D03*
%TD*%
D13*
%TO.C,R55*%
X244475000Y-121396000D03*
X244475000Y-119396000D03*
%TD*%
D26*
%TO.C,U2*%
X239903000Y-116459000D03*
D34*
X237363000Y-116459000D03*
X234823000Y-116459000D03*
X232283000Y-116459000D03*
X229743000Y-116459000D03*
X227203000Y-116459000D03*
X224663000Y-116459000D03*
X222123000Y-116459000D03*
X219583000Y-116459000D03*
X217043000Y-116459000D03*
X214503000Y-116459000D03*
X211963000Y-116459000D03*
X209423000Y-116459000D03*
X206883000Y-116459000D03*
X204343000Y-116459000D03*
X201803000Y-116459000D03*
X201803000Y-131699000D03*
X204343000Y-131699000D03*
X206883000Y-131699000D03*
X209423000Y-131699000D03*
X211963000Y-131699000D03*
X214503000Y-131699000D03*
X217043000Y-131699000D03*
X219583000Y-131699000D03*
X222123000Y-131699000D03*
X224663000Y-131699000D03*
X227203000Y-131699000D03*
X229743000Y-131699000D03*
X232283000Y-131699000D03*
X234823000Y-131699000D03*
X237363000Y-131699000D03*
X239903000Y-131699000D03*
%TD*%
D15*
%TO.C,R43*%
X175752000Y-93726000D03*
X173752000Y-93726000D03*
%TD*%
D29*
%TO.C,U5*%
X87503000Y-90500000D03*
X88773000Y-90500000D03*
X90043000Y-90500000D03*
X91313000Y-90500000D03*
X92583000Y-90500000D03*
X93853000Y-90500000D03*
X95123000Y-90500000D03*
X96393000Y-90500000D03*
X97663000Y-90500000D03*
X98933000Y-90500000D03*
X100203000Y-90500000D03*
X101473000Y-90500000D03*
X102743000Y-90500000D03*
X104013000Y-90500000D03*
X105283000Y-90500000D03*
X106553000Y-90500000D03*
X107823000Y-90500000D03*
X109093000Y-90500000D03*
X110363000Y-90500000D03*
X111633000Y-90500000D03*
X111633000Y-81100000D03*
X110363000Y-81100000D03*
X109093000Y-81100000D03*
X107823000Y-81100000D03*
X106553000Y-81100000D03*
X105283000Y-81100000D03*
X104013000Y-81100000D03*
X102743000Y-81100000D03*
X101473000Y-81100000D03*
X100203000Y-81100000D03*
X98933000Y-81100000D03*
X97663000Y-81100000D03*
X96393000Y-81100000D03*
X95123000Y-81100000D03*
X93853000Y-81100000D03*
X92583000Y-81100000D03*
X91313000Y-81100000D03*
X90043000Y-81100000D03*
X88773000Y-81100000D03*
X87503000Y-81100000D03*
%TD*%
D15*
%TO.C,R51*%
X175752000Y-120269000D03*
X173752000Y-120269000D03*
%TD*%
%TO.C,R18*%
X56499000Y-79121000D03*
X54499000Y-79121000D03*
%TD*%
D24*
%TO.C,C7*%
X266710500Y-108839000D03*
X268785500Y-108839000D03*
%TD*%
%TO.C,C8*%
X266678500Y-106299000D03*
X268753500Y-106299000D03*
%TD*%
D15*
%TO.C,R32*%
X56499000Y-99441000D03*
X54499000Y-99441000D03*
%TD*%
D22*
%TO.C,R15*%
X156083000Y-83963000D03*
X156083000Y-85963000D03*
%TD*%
D15*
%TO.C,R37*%
X175752000Y-103886000D03*
X173752000Y-103886000D03*
%TD*%
D12*
%TO.C,C12*%
X153289000Y-81174500D03*
X153289000Y-79099500D03*
%TD*%
D15*
%TO.C,R20*%
X56499000Y-84201000D03*
X54499000Y-84201000D03*
%TD*%
M02*
