%TF.GenerationSoftware,KiCad,Pcbnew,7.0.1*%
%TF.CreationDate,2023-06-12T23:07:52+03:00*%
%TF.ProjectId,virge-vlb,76697267-652d-4766-9c62-2e6b69636164,rev?*%
%TF.SameCoordinates,Original*%
%TF.FileFunction,Copper,L1,Top*%
%TF.FilePolarity,Positive*%
%FSLAX46Y46*%
G04 Gerber Fmt 4.6, Leading zero omitted, Abs format (unit mm)*
G04 Created by KiCad (PCBNEW 7.0.1) date 2023-06-12 23:07:52*
%MOMM*%
%LPD*%
G01*
G04 APERTURE LIST*
G04 Aperture macros list*
%AMRoundRect*
0 Rectangle with rounded corners*
0 $1 Rounding radius*
0 $2 $3 $4 $5 $6 $7 $8 $9 X,Y pos of 4 corners*
0 Add a 4 corners polygon primitive as box body*
4,1,4,$2,$3,$4,$5,$6,$7,$8,$9,$2,$3,0*
0 Add four circle primitives for the rounded corners*
1,1,$1+$1,$2,$3*
1,1,$1+$1,$4,$5*
1,1,$1+$1,$6,$7*
1,1,$1+$1,$8,$9*
0 Add four rect primitives between the rounded corners*
20,1,$1+$1,$2,$3,$4,$5,0*
20,1,$1+$1,$4,$5,$6,$7,0*
20,1,$1+$1,$6,$7,$8,$9,0*
20,1,$1+$1,$8,$9,$2,$3,0*%
G04 Aperture macros list end*
%TA.AperFunction,SMDPad,CuDef*%
%ADD10RoundRect,0.250000X-0.350000X-0.450000X0.350000X-0.450000X0.350000X0.450000X-0.350000X0.450000X0*%
%TD*%
%TA.AperFunction,SMDPad,CuDef*%
%ADD11RoundRect,0.250000X0.475000X-0.337500X0.475000X0.337500X-0.475000X0.337500X-0.475000X-0.337500X0*%
%TD*%
%TA.AperFunction,SMDPad,CuDef*%
%ADD12RoundRect,0.250000X0.450000X-0.350000X0.450000X0.350000X-0.450000X0.350000X-0.450000X-0.350000X0*%
%TD*%
%TA.AperFunction,SMDPad,CuDef*%
%ADD13RoundRect,0.250000X0.337500X0.475000X-0.337500X0.475000X-0.337500X-0.475000X0.337500X-0.475000X0*%
%TD*%
%TA.AperFunction,SMDPad,CuDef*%
%ADD14RoundRect,0.250000X0.350000X0.450000X-0.350000X0.450000X-0.350000X-0.450000X0.350000X-0.450000X0*%
%TD*%
%TA.AperFunction,ComponentPad*%
%ADD15R,1.700000X1.700000*%
%TD*%
%TA.AperFunction,ComponentPad*%
%ADD16O,1.700000X1.700000*%
%TD*%
%TA.AperFunction,SMDPad,CuDef*%
%ADD17RoundRect,0.250000X0.325000X0.450000X-0.325000X0.450000X-0.325000X-0.450000X0.325000X-0.450000X0*%
%TD*%
%TA.AperFunction,ComponentPad*%
%ADD18C,1.500000*%
%TD*%
%TA.AperFunction,SMDPad,CuDef*%
%ADD19RoundRect,0.075000X0.075000X-0.662500X0.075000X0.662500X-0.075000X0.662500X-0.075000X-0.662500X0*%
%TD*%
%TA.AperFunction,SMDPad,CuDef*%
%ADD20RoundRect,0.075000X0.662500X-0.075000X0.662500X0.075000X-0.662500X0.075000X-0.662500X-0.075000X0*%
%TD*%
%TA.AperFunction,SMDPad,CuDef*%
%ADD21RoundRect,0.250000X-0.450000X0.350000X-0.450000X-0.350000X0.450000X-0.350000X0.450000X0.350000X0*%
%TD*%
%TA.AperFunction,SMDPad,CuDef*%
%ADD22RoundRect,0.150000X-0.700000X-0.150000X0.700000X-0.150000X0.700000X0.150000X-0.700000X0.150000X0*%
%TD*%
%TA.AperFunction,SMDPad,CuDef*%
%ADD23RoundRect,0.250000X-0.337500X-0.475000X0.337500X-0.475000X0.337500X0.475000X-0.337500X0.475000X0*%
%TD*%
%TA.AperFunction,ComponentPad*%
%ADD24C,4.000000*%
%TD*%
%TA.AperFunction,ComponentPad*%
%ADD25R,1.600000X1.600000*%
%TD*%
%TA.AperFunction,ComponentPad*%
%ADD26C,1.600000*%
%TD*%
%TA.AperFunction,SMDPad,CuDef*%
%ADD27RoundRect,0.150000X0.837500X0.150000X-0.837500X0.150000X-0.837500X-0.150000X0.837500X-0.150000X0*%
%TD*%
%TA.AperFunction,SMDPad,CuDef*%
%ADD28RoundRect,0.150000X0.150000X-0.700000X0.150000X0.700000X-0.150000X0.700000X-0.150000X-0.700000X0*%
%TD*%
%TA.AperFunction,SMDPad,CuDef*%
%ADD29RoundRect,0.250000X-0.475000X0.337500X-0.475000X-0.337500X0.475000X-0.337500X0.475000X0.337500X0*%
%TD*%
%TA.AperFunction,ConnectorPad*%
%ADD30R,1.020000X4.570000*%
%TD*%
%TA.AperFunction,ConnectorPad*%
%ADD31R,0.510000X0.760000*%
%TD*%
%TA.AperFunction,ConnectorPad*%
%ADD32R,1.780000X7.620000*%
%TD*%
%TA.AperFunction,ComponentPad*%
%ADD33O,1.600000X1.600000*%
%TD*%
%TA.AperFunction,ViaPad*%
%ADD34C,0.600000*%
%TD*%
%TA.AperFunction,Conductor*%
%ADD35C,0.400000*%
%TD*%
%TA.AperFunction,Conductor*%
%ADD36C,0.200000*%
%TD*%
%TA.AperFunction,Conductor*%
%ADD37C,0.600000*%
%TD*%
%TA.AperFunction,Conductor*%
%ADD38C,0.150000*%
%TD*%
%TA.AperFunction,Conductor*%
%ADD39C,0.127000*%
%TD*%
G04 APERTURE END LIST*
D10*
%TO.P,R28,1*%
%TO.N,Net-(J3-Pin_9)*%
X63389000Y-93726000D03*
%TO.P,R28,2*%
%TO.N,/ESYNC*%
X65389000Y-93726000D03*
%TD*%
D11*
%TO.P,C4,1*%
%TO.N,/RED*%
X266446000Y-91588500D03*
%TO.P,C4,2*%
%TO.N,GND*%
X266446000Y-89513500D03*
%TD*%
D12*
%TO.P,R7,1*%
%TO.N,Net-(U1F-~{WE})*%
X111379000Y-98790000D03*
%TO.P,R7,2*%
%TO.N,/Memory Bus/WE*%
X111379000Y-96790000D03*
%TD*%
D13*
%TO.P,C9,1*%
%TO.N,Net-(U1H-VREF)*%
X89937500Y-105029000D03*
%TO.P,C9,2*%
%TO.N,GND*%
X87862500Y-105029000D03*
%TD*%
D12*
%TO.P,R14,1*%
%TO.N,Net-(U1F-~{CAS5})*%
X155321000Y-81137000D03*
%TO.P,R14,2*%
%TO.N,/Memory Bus/CAS5*%
X155321000Y-79137000D03*
%TD*%
D14*
%TO.P,R49,1*%
%TO.N,GND*%
X130667000Y-107442000D03*
%TO.P,R49,2*%
%TO.N,/Memory Bus/PD11*%
X128667000Y-107442000D03*
%TD*%
%TO.P,R34,1*%
%TO.N,Net-(U1H-~{PDOWN})*%
X89900000Y-107061000D03*
%TO.P,R34,2*%
%TO.N,VCC*%
X87900000Y-107061000D03*
%TD*%
D15*
%TO.P,J3,1,Pin_1*%
%TO.N,GND*%
X48260000Y-79121000D03*
D16*
%TO.P,J3,2,Pin_2*%
%TO.N,Net-(J3-Pin_2)*%
X50800000Y-79121000D03*
%TO.P,J3,3,Pin_3*%
%TO.N,GND*%
X48260000Y-81661000D03*
%TO.P,J3,4,Pin_4*%
%TO.N,Net-(J3-Pin_4)*%
X50800000Y-81661000D03*
%TO.P,J3,5,Pin_5*%
%TO.N,GND*%
X48260000Y-84201000D03*
%TO.P,J3,6,Pin_6*%
%TO.N,Net-(J3-Pin_6)*%
X50800000Y-84201000D03*
%TO.P,J3,7,Pin_7*%
%TO.N,Net-(J3-Pin_7)*%
X48260000Y-86741000D03*
%TO.P,J3,8,Pin_8*%
%TO.N,Net-(J3-Pin_8)*%
X50800000Y-86741000D03*
%TO.P,J3,9,Pin_9*%
%TO.N,Net-(J3-Pin_9)*%
X48260000Y-89281000D03*
%TO.P,J3,10,Pin_10*%
%TO.N,Net-(J3-Pin_10)*%
X50800000Y-89281000D03*
%TO.P,J3,11,Pin_11*%
%TO.N,Net-(J3-Pin_11)*%
X48260000Y-91821000D03*
%TO.P,J3,12,Pin_12*%
%TO.N,Net-(J3-Pin_12)*%
X50800000Y-91821000D03*
%TO.P,J3,13,Pin_13*%
%TO.N,unconnected-(J3-Pin_13-Pad13)*%
X48260000Y-94361000D03*
%TO.P,J3,14,Pin_14*%
%TO.N,Net-(J3-Pin_14)*%
X50800000Y-94361000D03*
%TO.P,J3,15,Pin_15*%
%TO.N,GND*%
X48260000Y-96901000D03*
%TO.P,J3,16,Pin_16*%
%TO.N,Net-(J3-Pin_16)*%
X50800000Y-96901000D03*
%TO.P,J3,17,Pin_17*%
%TO.N,GND*%
X48260000Y-99441000D03*
%TO.P,J3,18,Pin_18*%
%TO.N,Net-(J3-Pin_18)*%
X50800000Y-99441000D03*
%TO.P,J3,19,Pin_19*%
%TO.N,GND*%
X48260000Y-101981000D03*
%TO.P,J3,20,Pin_20*%
%TO.N,/BLANK*%
X50800000Y-101981000D03*
%TO.P,J3,21,Pin_21*%
%TO.N,GND*%
X48260000Y-104521000D03*
%TO.P,J3,22,Pin_22*%
%TO.N,/HS*%
X50800000Y-104521000D03*
%TO.P,J3,23,Pin_23*%
%TO.N,unconnected-(J3-Pin_23-Pad23)*%
X48260000Y-107061000D03*
%TO.P,J3,24,Pin_24*%
%TO.N,/VS*%
X50800000Y-107061000D03*
%TO.P,J3,25,Pin_25*%
%TO.N,unconnected-(J3-Pin_25-Pad25)*%
X48260000Y-109601000D03*
%TO.P,J3,26,Pin_26*%
%TO.N,GND*%
X50800000Y-109601000D03*
%TD*%
D10*
%TO.P,R26,1*%
%TO.N,Net-(J3-Pin_7)*%
X67326000Y-90297000D03*
%TO.P,R26,2*%
%TO.N,/EVIDEO*%
X69326000Y-90297000D03*
%TD*%
%TO.P,R35,1*%
%TO.N,GND*%
X87900000Y-111125000D03*
%TO.P,R35,2*%
%TO.N,Net-(U1H-RSET)*%
X89900000Y-111125000D03*
%TD*%
D14*
%TO.P,R21,1*%
%TO.N,Net-(U1D-LD3{slash}PA3)*%
X56499000Y-86741000D03*
%TO.P,R21,2*%
%TO.N,Net-(J3-Pin_8)*%
X54499000Y-86741000D03*
%TD*%
%TO.P,R53,1*%
%TO.N,GND*%
X175752000Y-114046000D03*
%TO.P,R53,2*%
%TO.N,/Memory Bus/PD28*%
X173752000Y-114046000D03*
%TD*%
%TO.P,R27,1*%
%TO.N,VCC*%
X69326000Y-88265000D03*
%TO.P,R27,2*%
%TO.N,Net-(J3-Pin_7)*%
X67326000Y-88265000D03*
%TD*%
D15*
%TO.P,JP1,1,Pin_1*%
%TO.N,VCC*%
X256921000Y-109987000D03*
D16*
%TO.P,JP1,2,Pin_2*%
%TO.N,Net-(JP1-Pin_2)*%
X256921000Y-107447000D03*
%TD*%
D12*
%TO.P,R1,1*%
%TO.N,/S3_RED*%
X258445000Y-91551000D03*
%TO.P,R1,2*%
%TO.N,GND*%
X258445000Y-89551000D03*
%TD*%
D17*
%TO.P,FB3,1*%
%TO.N,/BLUE*%
X263407000Y-99822000D03*
%TO.P,FB3,2*%
%TO.N,/S3_BLUE*%
X261357000Y-99822000D03*
%TD*%
D14*
%TO.P,R46,1*%
%TO.N,GND*%
X175752000Y-109982000D03*
%TO.P,R46,2*%
%TO.N,/Memory Bus/PD17*%
X173752000Y-109982000D03*
%TD*%
D18*
%TO.P,Y1,1,1*%
%TO.N,Net-(U1H-XOUT)*%
X80952000Y-99822000D03*
%TO.P,Y1,2,2*%
%TO.N,Net-(U1H-XIN)*%
X85852000Y-99822000D03*
%TD*%
D19*
%TO.P,U1,1,SD29*%
%TO.N,/VL Bus/VL_D29*%
X96597000Y-131675500D03*
%TO.P,U1,2,SD28*%
%TO.N,/VL Bus/VL_D28*%
X97097000Y-131675500D03*
%TO.P,U1,3,SD27*%
%TO.N,/VL Bus/VL_D27*%
X97597000Y-131675500D03*
%TO.P,U1,4,SD26*%
%TO.N,/VL Bus/VL_D26*%
X98097000Y-131675500D03*
%TO.P,U1,5,SD25*%
%TO.N,/VL Bus/VL_D25*%
X98597000Y-131675500D03*
%TO.P,U1,6,SD24*%
%TO.N,/VL Bus/VL_D24*%
X99097000Y-131675500D03*
%TO.P,U1,7,~{SBE3}*%
%TO.N,/VL Bus/BE3*%
X99597000Y-131675500D03*
%TO.P,U1,8,SM/~{IO}*%
%TO.N,/VL Bus/M{slash}IO*%
X100097000Y-131675500D03*
%TO.P,U1,9,VSS*%
%TO.N,GND*%
X100597000Y-131675500D03*
%TO.P,U1,10,SD23*%
%TO.N,/VL Bus/VL_D23*%
X101097000Y-131675500D03*
%TO.P,U1,11,SD22*%
%TO.N,/VL Bus/VL_D22*%
X101597000Y-131675500D03*
%TO.P,U1,12,VDD*%
%TO.N,VCC*%
X102097000Y-131675500D03*
%TO.P,U1,13,SD21*%
%TO.N,/VL Bus/VL_D21*%
X102597000Y-131675500D03*
%TO.P,U1,14,SD20*%
%TO.N,/VL Bus/VL_D20*%
X103097000Y-131675500D03*
%TO.P,U1,15,SD19*%
%TO.N,/VL Bus/VL_D19*%
X103597000Y-131675500D03*
%TO.P,U1,16,SD18*%
%TO.N,/VL Bus/VL_D18*%
X104097000Y-131675500D03*
%TO.P,U1,17,SD17*%
%TO.N,/VL Bus/VL_D17*%
X104597000Y-131675500D03*
%TO.P,U1,18,SD16*%
%TO.N,/VL Bus/VL_D16*%
X105097000Y-131675500D03*
%TO.P,U1,19,~{SBE2}*%
%TO.N,/VL Bus/BE2*%
X105597000Y-131675500D03*
%TO.P,U1,20,~{SADS}*%
%TO.N,/VL Bus/ADS*%
X106097000Y-131675500D03*
%TO.P,U1,21,~{RDYIN}*%
%TO.N,/VL Bus/RDYR*%
X106597000Y-131675500D03*
%TO.P,U1,22,VSS*%
%TO.N,GND*%
X107097000Y-131675500D03*
%TO.P,U1,23,~{SRDY}*%
%TO.N,/VL Bus/LRDY*%
X107597000Y-131675500D03*
%TO.P,U1,24,~{LOCA}*%
%TO.N,/VL Bus/LDEV*%
X108097000Y-131675500D03*
%TO.P,U1,25,SAUP1*%
%TO.N,unconnected-(U1H-SAUP1-Pad25)*%
X108597000Y-131675500D03*
%TO.P,U1,26,SW/~{R}*%
%TO.N,/VL Bus/W{slash}R*%
X109097000Y-131675500D03*
%TO.P,U1,27,~{SBE1}*%
%TO.N,/VL Bus/BE1*%
X109597000Y-131675500D03*
%TO.P,U1,28,SD15*%
%TO.N,/VL Bus/VL_D15*%
X110097000Y-131675500D03*
%TO.P,U1,29,SD14*%
%TO.N,/VL Bus/VL_D14*%
X110597000Y-131675500D03*
%TO.P,U1,30,SD13*%
%TO.N,/VL Bus/VL_D13*%
X111097000Y-131675500D03*
%TO.P,U1,31,SD12*%
%TO.N,/VL Bus/VL_D12*%
X111597000Y-131675500D03*
%TO.P,U1,32,VSS*%
%TO.N,GND*%
X112097000Y-131675500D03*
%TO.P,U1,33,SD11*%
%TO.N,/VL Bus/VL_D11*%
X112597000Y-131675500D03*
%TO.P,U1,34,SD10*%
%TO.N,/VL Bus/VL_D10*%
X113097000Y-131675500D03*
%TO.P,U1,35,SD9*%
%TO.N,/VL Bus/VL_D9*%
X113597000Y-131675500D03*
%TO.P,U1,36,SD8*%
%TO.N,/VL Bus/VL_D8*%
X114097000Y-131675500D03*
%TO.P,U1,37,VDD*%
%TO.N,VCC*%
X114597000Y-131675500D03*
%TO.P,U1,38,~{SBE0}*%
%TO.N,/VL Bus/BE0*%
X115097000Y-131675500D03*
%TO.P,U1,39,SD7*%
%TO.N,/VL Bus/VL_D7*%
X115597000Y-131675500D03*
%TO.P,U1,40,SD6*%
%TO.N,/VL Bus/VL_D6*%
X116097000Y-131675500D03*
%TO.P,U1,41,SD5*%
%TO.N,/VL Bus/VL_D5*%
X116597000Y-131675500D03*
%TO.P,U1,42,SD4*%
%TO.N,/VL Bus/VL_D4*%
X117097000Y-131675500D03*
%TO.P,U1,43,SD3*%
%TO.N,/VL Bus/VL_D3*%
X117597000Y-131675500D03*
%TO.P,U1,44,SD2*%
%TO.N,/VL Bus/VL_D2*%
X118097000Y-131675500D03*
%TO.P,U1,45,SD1*%
%TO.N,/VL Bus/VL_D1*%
X118597000Y-131675500D03*
%TO.P,U1,46,SD0*%
%TO.N,/VL Bus/VL_D0*%
X119097000Y-131675500D03*
%TO.P,U1,47,VSS*%
%TO.N,GND*%
X119597000Y-131675500D03*
%TO.P,U1,48,~{CAS4}*%
%TO.N,Net-(U1F-~{CAS4})*%
X120097000Y-131675500D03*
%TO.P,U1,49,~{CAS5}*%
%TO.N,Net-(U1F-~{CAS5})*%
X120597000Y-131675500D03*
%TO.P,U1,50,SAUP2*%
%TO.N,unconnected-(U1H-SAUP2-Pad50)*%
X121097000Y-131675500D03*
%TO.P,U1,51,~{CAS6}*%
%TO.N,Net-(U1F-~{CAS6})*%
X121597000Y-131675500D03*
%TO.P,U1,52,~{CAS7}*%
%TO.N,Net-(U1F-~{CAS7})*%
X122097000Y-131675500D03*
D20*
%TO.P,U1,53,PD23*%
%TO.N,/Memory Bus/PD23*%
X124309500Y-129463000D03*
%TO.P,U1,54,PD24*%
%TO.N,/Memory Bus/PD24*%
X124309500Y-128963000D03*
%TO.P,U1,55,PD22*%
%TO.N,/Memory Bus/PD22*%
X124309500Y-128463000D03*
%TO.P,U1,56,PD25*%
%TO.N,/Memory Bus/PD25*%
X124309500Y-127963000D03*
%TO.P,U1,57,PD21*%
%TO.N,/Memory Bus/PD21*%
X124309500Y-127463000D03*
%TO.P,U1,58,PD26*%
%TO.N,/Memory Bus/PD26*%
X124309500Y-126963000D03*
%TO.P,U1,59,PD20*%
%TO.N,/Memory Bus/PD20*%
X124309500Y-126463000D03*
%TO.P,U1,60,VSS*%
%TO.N,GND*%
X124309500Y-125963000D03*
%TO.P,U1,61,PD27*%
%TO.N,/Memory Bus/PD27*%
X124309500Y-125463000D03*
%TO.P,U1,62,VDD*%
%TO.N,VCC*%
X124309500Y-124963000D03*
%TO.P,U1,63,PD19*%
%TO.N,/Memory Bus/PD19*%
X124309500Y-124463000D03*
%TO.P,U1,64,PD28*%
%TO.N,/Memory Bus/PD28*%
X124309500Y-123963000D03*
%TO.P,U1,65,PD18*%
%TO.N,/Memory Bus/PD18*%
X124309500Y-123463000D03*
%TO.P,U1,66,PD29*%
%TO.N,/Memory Bus/PD29*%
X124309500Y-122963000D03*
%TO.P,U1,67,PD17*%
%TO.N,/Memory Bus/PD17*%
X124309500Y-122463000D03*
%TO.P,U1,68,PD30*%
%TO.N,/Memory Bus/PD30*%
X124309500Y-121963000D03*
%TO.P,U1,69,PD16*%
%TO.N,/Memory Bus/PD16*%
X124309500Y-121463000D03*
%TO.P,U1,70,PD31*%
%TO.N,/Memory Bus/PD31*%
X124309500Y-120963000D03*
%TO.P,U1,71,VSS*%
%TO.N,GND*%
X124309500Y-120463000D03*
%TO.P,U1,72,MA4*%
%TO.N,/Memory Bus/MA4*%
X124309500Y-119963000D03*
%TO.P,U1,73,MA3*%
%TO.N,/Memory Bus/MA3*%
X124309500Y-119463000D03*
%TO.P,U1,74,MA5*%
%TO.N,/Memory Bus/MA5*%
X124309500Y-118963000D03*
%TO.P,U1,75,MA2*%
%TO.N,/Memory Bus/MA2*%
X124309500Y-118463000D03*
%TO.P,U1,76,MA6*%
%TO.N,/Memory Bus/MA6*%
X124309500Y-117963000D03*
%TO.P,U1,77,MA1*%
%TO.N,/Memory Bus/MA1*%
X124309500Y-117463000D03*
%TO.P,U1,78,MA7*%
%TO.N,/Memory Bus/MA7*%
X124309500Y-116963000D03*
%TO.P,U1,79,MA0*%
%TO.N,/Memory Bus/MA0*%
X124309500Y-116463000D03*
%TO.P,U1,80,MA8*%
%TO.N,/Memory Bus/MA8*%
X124309500Y-115963000D03*
%TO.P,U1,81,VDD*%
%TO.N,VCC*%
X124309500Y-115463000D03*
%TO.P,U1,82,~{CAS3}*%
%TO.N,Net-(U1F-~{CAS3})*%
X124309500Y-114963000D03*
%TO.P,U1,83,~{CAS2}*%
%TO.N,Net-(U1F-~{CAS2})*%
X124309500Y-114463000D03*
%TO.P,U1,84,~{RAS0}*%
%TO.N,Net-(U1F-~{RAS0})*%
X124309500Y-113963000D03*
%TO.P,U1,85,~{CAS1}*%
%TO.N,Net-(U1F-~{CAS1})*%
X124309500Y-113463000D03*
%TO.P,U1,86,~{CAS0}*%
%TO.N,Net-(U1F-~{CAS0})*%
X124309500Y-112963000D03*
%TO.P,U1,87,VSS*%
%TO.N,GND*%
X124309500Y-112463000D03*
%TO.P,U1,88,PD7*%
%TO.N,/Memory Bus/PD7*%
X124309500Y-111963000D03*
%TO.P,U1,89,PD8*%
%TO.N,/Memory Bus/PD8*%
X124309500Y-111463000D03*
%TO.P,U1,90,PD6*%
%TO.N,/Memory Bus/PD6*%
X124309500Y-110963000D03*
%TO.P,U1,91,PD9*%
%TO.N,/Memory Bus/PD9*%
X124309500Y-110463000D03*
%TO.P,U1,92,PD5*%
%TO.N,/Memory Bus/PD5*%
X124309500Y-109963000D03*
%TO.P,U1,93,PD10*%
%TO.N,/Memory Bus/PD10*%
X124309500Y-109463000D03*
%TO.P,U1,94,PD4*%
%TO.N,/Memory Bus/PD4*%
X124309500Y-108963000D03*
%TO.P,U1,95,PD11*%
%TO.N,/Memory Bus/PD11*%
X124309500Y-108463000D03*
%TO.P,U1,96,VDD*%
%TO.N,VCC*%
X124309500Y-107963000D03*
%TO.P,U1,97,PD3*%
%TO.N,/Memory Bus/PD3*%
X124309500Y-107463000D03*
%TO.P,U1,98,PD12*%
%TO.N,/Memory Bus/PD12*%
X124309500Y-106963000D03*
%TO.P,U1,99,VSS*%
%TO.N,GND*%
X124309500Y-106463000D03*
%TO.P,U1,100,PD2*%
%TO.N,/Memory Bus/PD2*%
X124309500Y-105963000D03*
%TO.P,U1,101,PD13*%
%TO.N,/Memory Bus/PD13*%
X124309500Y-105463000D03*
%TO.P,U1,102,PD1*%
%TO.N,/Memory Bus/PD1*%
X124309500Y-104963000D03*
%TO.P,U1,103,PD14*%
%TO.N,/Memory Bus/PD14*%
X124309500Y-104463000D03*
%TO.P,U1,104,PD0*%
%TO.N,/Memory Bus/PD0*%
X124309500Y-103963000D03*
D19*
%TO.P,U1,105,PD15*%
%TO.N,/Memory Bus/PD15*%
X122097000Y-101750500D03*
%TO.P,U1,106,VCLKI/PD55*%
%TO.N,/Memory Bus/PD55*%
X121597000Y-101750500D03*
%TO.P,U1,107,PD56*%
%TO.N,/Memory Bus/PD56*%
X121097000Y-101750500D03*
%TO.P,U1,108,PD54*%
%TO.N,/Memory Bus/PD54*%
X120597000Y-101750500D03*
%TO.P,U1,109,PD57*%
%TO.N,/Memory Bus/PD57*%
X120097000Y-101750500D03*
%TO.P,U1,110,PD53*%
%TO.N,/Memory Bus/PD53*%
X119597000Y-101750500D03*
%TO.P,U1,111,PD58*%
%TO.N,/Memory Bus/PD58*%
X119097000Y-101750500D03*
%TO.P,U1,112,PD52*%
%TO.N,/Memory Bus/PD52*%
X118597000Y-101750500D03*
%TO.P,U1,113,PD59*%
%TO.N,/Memory Bus/PD59*%
X118097000Y-101750500D03*
%TO.P,U1,114,VSS*%
%TO.N,GND*%
X117597000Y-101750500D03*
%TO.P,U1,115,PD51*%
%TO.N,/Memory Bus/PD51*%
X117097000Y-101750500D03*
%TO.P,U1,116,PD60*%
%TO.N,/Memory Bus/PD60*%
X116597000Y-101750500D03*
%TO.P,U1,117,PD50*%
%TO.N,/Memory Bus/PD50*%
X116097000Y-101750500D03*
%TO.P,U1,118,PD61*%
%TO.N,/Memory Bus/PD61*%
X115597000Y-101750500D03*
%TO.P,U1,119,PD49*%
%TO.N,/Memory Bus/PD49*%
X115097000Y-101750500D03*
%TO.P,U1,120,PD62*%
%TO.N,/Memory Bus/PD62*%
X114597000Y-101750500D03*
%TO.P,U1,121,PD48*%
%TO.N,/Memory Bus/PD48*%
X114097000Y-101750500D03*
%TO.P,U1,122,PD63*%
%TO.N,/Memory Bus/PD63*%
X113597000Y-101750500D03*
%TO.P,U1,123,VSS*%
%TO.N,GND*%
X113097000Y-101750500D03*
%TO.P,U1,124,~{OE}*%
%TO.N,Net-(U1F-~{OE})*%
X112597000Y-101750500D03*
%TO.P,U1,125,~{WE}*%
%TO.N,Net-(U1F-~{WE})*%
X112097000Y-101750500D03*
%TO.P,U1,126,VSS*%
%TO.N,GND*%
X111597000Y-101750500D03*
%TO.P,U1,127,PD39*%
%TO.N,/Memory Bus/PD39*%
X111097000Y-101750500D03*
%TO.P,U1,128,PD40*%
%TO.N,/Memory Bus/PD40*%
X110597000Y-101750500D03*
%TO.P,U1,129,PD38*%
%TO.N,/Memory Bus/PD38*%
X110097000Y-101750500D03*
%TO.P,U1,130,PD41*%
%TO.N,/Memory Bus/PD41*%
X109597000Y-101750500D03*
%TO.P,U1,131,PD37*%
%TO.N,/Memory Bus/PD37*%
X109097000Y-101750500D03*
%TO.P,U1,132,PD42*%
%TO.N,/Memory Bus/PD42*%
X108597000Y-101750500D03*
%TO.P,U1,133,PD36*%
%TO.N,/Memory Bus/PD36*%
X108097000Y-101750500D03*
%TO.P,U1,134,PD43*%
%TO.N,/Memory Bus/PD43*%
X107597000Y-101750500D03*
%TO.P,U1,135,VSS*%
%TO.N,GND*%
X107097000Y-101750500D03*
%TO.P,U1,136,PD35*%
%TO.N,/Memory Bus/PD35*%
X106597000Y-101750500D03*
%TO.P,U1,137,VDD*%
%TO.N,VCC*%
X106097000Y-101750500D03*
%TO.P,U1,138,PD44*%
%TO.N,/Memory Bus/PD44*%
X105597000Y-101750500D03*
%TO.P,U1,139,PD34*%
%TO.N,/Memory Bus/PD34*%
X105097000Y-101750500D03*
%TO.P,U1,140,PD45*%
%TO.N,/Memory Bus/PD45*%
X104597000Y-101750500D03*
%TO.P,U1,141,PD33*%
%TO.N,/Memory Bus/PD33*%
X104097000Y-101750500D03*
%TO.P,U1,142,PD46*%
%TO.N,/Memory Bus/PD46*%
X103597000Y-101750500D03*
%TO.P,U1,143,PD32*%
%TO.N,/Memory Bus/PD32*%
X103097000Y-101750500D03*
%TO.P,U1,144,PD47*%
%TO.N,/Memory Bus/PD47*%
X102597000Y-101750500D03*
%TO.P,U1,145,VSS*%
%TO.N,GND*%
X102097000Y-101750500D03*
%TO.P,U1,146,LD0/PA0*%
%TO.N,Net-(U1D-LD0{slash}PA0)*%
X101597000Y-101750500D03*
%TO.P,U1,147,LD1/PA1*%
%TO.N,Net-(U1D-LD1{slash}PA1)*%
X101097000Y-101750500D03*
%TO.P,U1,148,LCLK/VCLK*%
%TO.N,/LCLK*%
X100597000Y-101750500D03*
%TO.P,U1,149,HSYNC*%
%TO.N,/HS*%
X100097000Y-101750500D03*
%TO.P,U1,150,VSYNC*%
%TO.N,/VS*%
X99597000Y-101750500D03*
%TO.P,U1,151,~{GPIOSTR}/~{ENFEAT}/GOP0*%
%TO.N,unconnected-(U1H-~{GPIOSTR}{slash}~{ENFEAT}{slash}GOP0-Pad151)*%
X99097000Y-101750500D03*
%TO.P,U1,152,SINTR*%
%TO.N,/VL Bus/SINTR*%
X98597000Y-101750500D03*
%TO.P,U1,153,~{ROMCS}/GOP1*%
%TO.N,/ISA Bus/ROMCS*%
X98097000Y-101750500D03*
%TO.P,U1,154,LD2/PA2*%
%TO.N,Net-(U1D-LD2{slash}PA2)*%
X97597000Y-101750500D03*
%TO.P,U1,155,LD3/PA3*%
%TO.N,Net-(U1D-LD3{slash}PA3)*%
X97097000Y-101750500D03*
%TO.P,U1,156,XIN*%
%TO.N,Net-(U1H-XIN)*%
X96597000Y-101750500D03*
D20*
%TO.P,U1,157,XOUT*%
%TO.N,Net-(U1H-XOUT)*%
X94384500Y-103963000D03*
%TO.P,U1,158,CLKAVDD1*%
%TO.N,VCC*%
X94384500Y-104463000D03*
%TO.P,U1,159,AVSS*%
%TO.N,GND*%
X94384500Y-104963000D03*
%TO.P,U1,160,CLKAVDD2*%
%TO.N,VCC*%
X94384500Y-105463000D03*
%TO.P,U1,161,AVSS*%
%TO.N,GND*%
X94384500Y-105963000D03*
%TO.P,U1,162,VREF*%
%TO.N,Net-(U1H-VREF)*%
X94384500Y-106463000D03*
%TO.P,U1,163,AVSS*%
%TO.N,GND*%
X94384500Y-106963000D03*
%TO.P,U1,164,AVDD*%
%TO.N,VCC*%
X94384500Y-107463000D03*
%TO.P,U1,165,~{PDOWN}*%
%TO.N,Net-(U1H-~{PDOWN})*%
X94384500Y-107963000D03*
%TO.P,U1,166,RSET*%
%TO.N,Net-(U1H-RSET)*%
X94384500Y-108463000D03*
%TO.P,U1,167,AVSS*%
%TO.N,GND*%
X94384500Y-108963000D03*
%TO.P,U1,168,AR*%
%TO.N,/S3_RED*%
X94384500Y-109463000D03*
%TO.P,U1,169,AVDD*%
%TO.N,VCC*%
X94384500Y-109963000D03*
%TO.P,U1,170,AVDD*%
X94384500Y-110463000D03*
%TO.P,U1,171,AG*%
%TO.N,/S3_GREEN*%
X94384500Y-110963000D03*
%TO.P,U1,172,AB*%
%TO.N,/S3_BLUE*%
X94384500Y-111463000D03*
%TO.P,U1,173,AVSS*%
%TO.N,GND*%
X94384500Y-111963000D03*
%TO.P,U1,174,LD4/PA4*%
%TO.N,Net-(U1D-LD4{slash}PA4)*%
X94384500Y-112463000D03*
%TO.P,U1,175,LD5/PA5*%
%TO.N,Net-(U1D-LD5{slash}PA5)*%
X94384500Y-112963000D03*
%TO.P,U1,176,SA2*%
%TO.N,/VL Bus/VL_A2*%
X94384500Y-113463000D03*
%TO.P,U1,177,SA3*%
%TO.N,/VL Bus/VL_A3*%
X94384500Y-113963000D03*
%TO.P,U1,178,SA4*%
%TO.N,/VL Bus/VL_A4*%
X94384500Y-114463000D03*
%TO.P,U1,179,SA5*%
%TO.N,/VL Bus/VL_A5*%
X94384500Y-114963000D03*
%TO.P,U1,180,SA6*%
%TO.N,/VL Bus/VL_A6*%
X94384500Y-115463000D03*
%TO.P,U1,181,SA7*%
%TO.N,/VL Bus/VL_A7*%
X94384500Y-115963000D03*
%TO.P,U1,182,SA8*%
%TO.N,/VL Bus/VL_A8*%
X94384500Y-116463000D03*
%TO.P,U1,183,SA9*%
%TO.N,/VL Bus/VL_A9*%
X94384500Y-116963000D03*
%TO.P,U1,184,LD6/PA6*%
%TO.N,Net-(U1D-LD6{slash}PA6)*%
X94384500Y-117463000D03*
%TO.P,U1,185,SA10*%
%TO.N,/VL Bus/VL_A10*%
X94384500Y-117963000D03*
%TO.P,U1,186,SA11*%
%TO.N,/VL Bus/VL_A11*%
X94384500Y-118463000D03*
%TO.P,U1,187,SA12*%
%TO.N,/VL Bus/VL_A12*%
X94384500Y-118963000D03*
%TO.P,U1,188,SA13*%
%TO.N,/VL Bus/VL_A13*%
X94384500Y-119463000D03*
%TO.P,U1,189,SA14*%
%TO.N,/VL Bus/VL_A14*%
X94384500Y-119963000D03*
%TO.P,U1,190,SA15*%
%TO.N,/VL Bus/VL_A15*%
X94384500Y-120463000D03*
%TO.P,U1,191,SA16*%
%TO.N,/VL Bus/VL_A16*%
X94384500Y-120963000D03*
%TO.P,U1,192,VDD*%
%TO.N,VCC*%
X94384500Y-121463000D03*
%TO.P,U1,193,~{SRESET}*%
%TO.N,Net-(U1G-~{SRESET})*%
X94384500Y-121963000D03*
%TO.P,U1,194,SCLK*%
%TO.N,/VL Bus/LCLK*%
X94384500Y-122463000D03*
%TO.P,U1,195,VSS*%
%TO.N,GND*%
X94384500Y-122963000D03*
%TO.P,U1,196,SA17*%
%TO.N,/VL Bus/VL_A17*%
X94384500Y-123463000D03*
%TO.P,U1,197,SA18*%
%TO.N,/VL Bus/VL_A18*%
X94384500Y-123963000D03*
%TO.P,U1,198,SA19*%
%TO.N,/VL Bus/VL_A19*%
X94384500Y-124463000D03*
%TO.P,U1,199,SA20*%
%TO.N,/VL Bus/VL_A20*%
X94384500Y-124963000D03*
%TO.P,U1,200,SA21*%
%TO.N,/VL Bus/VL_A21*%
X94384500Y-125463000D03*
%TO.P,U1,201,SA22*%
%TO.N,/VL Bus/VL_A22*%
X94384500Y-125963000D03*
%TO.P,U1,202,LD7/PA7*%
%TO.N,Net-(U1D-LD7{slash}PA7)*%
X94384500Y-126463000D03*
%TO.P,U1,203,~{VREQ}/VRDY/EVIDEO*%
%TO.N,/EVIDEO*%
X94384500Y-126963000D03*
%TO.P,U1,204,~{CREQ}/CRDY/EVCLK*%
%TO.N,/EVCLK*%
X94384500Y-127463000D03*
%TO.P,U1,205,SPCLK/ESYNC*%
%TO.N,/ESYNC*%
X94384500Y-127963000D03*
%TO.P,U1,206,SPD/~{BLANK}*%
%TO.N,/BLANK*%
X94384500Y-128463000D03*
%TO.P,U1,207,SD31*%
%TO.N,/VL Bus/VL_D31*%
X94384500Y-128963000D03*
%TO.P,U1,208,SD30*%
%TO.N,/VL Bus/VL_D30*%
X94384500Y-129463000D03*
%TD*%
D21*
%TO.P,R8,1*%
%TO.N,Net-(U1F-~{RAS0})*%
X159385000Y-79137000D03*
%TO.P,R8,2*%
%TO.N,/Memory Bus/RAS*%
X159385000Y-81137000D03*
%TD*%
D11*
%TO.P,C6,1*%
%TO.N,/BLUE*%
X266446000Y-99843500D03*
%TO.P,C6,2*%
%TO.N,GND*%
X266446000Y-97768500D03*
%TD*%
%TO.P,C3,1*%
%TO.N,/S3_BLUE*%
X256159000Y-99843500D03*
%TO.P,C3,2*%
%TO.N,GND*%
X256159000Y-97768500D03*
%TD*%
D10*
%TO.P,R9,1*%
%TO.N,Net-(U1F-~{CAS0})*%
X127905000Y-113157000D03*
%TO.P,R9,2*%
%TO.N,/Memory Bus/CAS0*%
X129905000Y-113157000D03*
%TD*%
D22*
%TO.P,U3,1,VCC*%
%TO.N,VCC*%
X137158000Y-101219000D03*
%TO.P,U3,2,DQ0*%
%TO.N,/Memory Bus/PD0*%
X137158000Y-102489000D03*
%TO.P,U3,3,DQ1*%
%TO.N,/Memory Bus/PD1*%
X137158000Y-103759000D03*
%TO.P,U3,4,DQ2*%
%TO.N,/Memory Bus/PD2*%
X137158000Y-105029000D03*
%TO.P,U3,5,DQ3*%
%TO.N,/Memory Bus/PD3*%
X137158000Y-106299000D03*
%TO.P,U3,6,VCC*%
%TO.N,VCC*%
X137158000Y-107569000D03*
%TO.P,U3,7,DQ4*%
%TO.N,/Memory Bus/PD4*%
X137158000Y-108839000D03*
%TO.P,U3,8,DQ5*%
%TO.N,/Memory Bus/PD5*%
X137158000Y-110109000D03*
%TO.P,U3,9,DQ6*%
%TO.N,/Memory Bus/PD6*%
X137158000Y-111379000D03*
%TO.P,U3,10,DQ7*%
%TO.N,/Memory Bus/PD7*%
X137158000Y-112649000D03*
%TO.P,U3,11,NC*%
%TO.N,unconnected-(U3-NC-Pad11)*%
X137158000Y-113919000D03*
%TO.P,U3,12,NC*%
%TO.N,unconnected-(U3-NC-Pad12)*%
X137158000Y-115189000D03*
%TO.P,U3,13,~{WE}*%
%TO.N,/Memory Bus/WE*%
X137158000Y-116459000D03*
%TO.P,U3,14,~{RAS}*%
%TO.N,/Memory Bus/RAS*%
X137158000Y-117729000D03*
%TO.P,U3,15,NC*%
%TO.N,unconnected-(U3-NC-Pad15)*%
X137158000Y-118999000D03*
%TO.P,U3,16,A0*%
%TO.N,/Memory Bus/MA0*%
X137158000Y-120269000D03*
%TO.P,U3,17,A1*%
%TO.N,/Memory Bus/MA1*%
X137158000Y-121539000D03*
%TO.P,U3,18,A2*%
%TO.N,/Memory Bus/MA2*%
X137158000Y-122809000D03*
%TO.P,U3,19,A3*%
%TO.N,/Memory Bus/MA3*%
X137158000Y-124079000D03*
%TO.P,U3,20,VCC*%
%TO.N,VCC*%
X137158000Y-125349000D03*
%TO.P,U3,21,VSS*%
%TO.N,GND*%
X146558000Y-125349000D03*
%TO.P,U3,22,A4*%
%TO.N,/Memory Bus/MA4*%
X146558000Y-124079000D03*
%TO.P,U3,23,A5*%
%TO.N,/Memory Bus/MA5*%
X146558000Y-122809000D03*
%TO.P,U3,24,A6*%
%TO.N,/Memory Bus/MA6*%
X146558000Y-121539000D03*
%TO.P,U3,25,A7*%
%TO.N,/Memory Bus/MA7*%
X146558000Y-120269000D03*
%TO.P,U3,26,A8*%
%TO.N,/Memory Bus/MA8*%
X146558000Y-118999000D03*
%TO.P,U3,27,OE*%
%TO.N,/Memory Bus/OE*%
X146558000Y-117729000D03*
%TO.P,U3,28,~{UCAS}*%
%TO.N,/Memory Bus/CAS1*%
X146558000Y-116459000D03*
%TO.P,U3,29,~{LCAS}*%
%TO.N,/Memory Bus/CAS0*%
X146558000Y-115189000D03*
%TO.P,U3,30,NC*%
%TO.N,unconnected-(U3-NC-Pad30)*%
X146558000Y-113919000D03*
%TO.P,U3,31,DQ8*%
%TO.N,/Memory Bus/PD8*%
X146558000Y-112649000D03*
%TO.P,U3,32,DQ9*%
%TO.N,/Memory Bus/PD9*%
X146558000Y-111379000D03*
%TO.P,U3,33,DQ10*%
%TO.N,/Memory Bus/PD10*%
X146558000Y-110109000D03*
%TO.P,U3,34,DQ11*%
%TO.N,/Memory Bus/PD11*%
X146558000Y-108839000D03*
%TO.P,U3,35,VSS*%
%TO.N,GND*%
X146558000Y-107569000D03*
%TO.P,U3,36,DQ12*%
%TO.N,/Memory Bus/PD12*%
X146558000Y-106299000D03*
%TO.P,U3,37,DQ13*%
%TO.N,/Memory Bus/PD13*%
X146558000Y-105029000D03*
%TO.P,U3,38,DQ14*%
%TO.N,/Memory Bus/PD14*%
X146558000Y-103759000D03*
%TO.P,U3,39,DQ15*%
%TO.N,/Memory Bus/PD15*%
X146558000Y-102489000D03*
%TO.P,U3,40,VSS*%
%TO.N,GND*%
X146558000Y-101219000D03*
%TD*%
D17*
%TO.P,FB1,1*%
%TO.N,/RED*%
X263407000Y-91567000D03*
%TO.P,FB1,2*%
%TO.N,/S3_RED*%
X261357000Y-91567000D03*
%TD*%
D11*
%TO.P,C5,1*%
%TO.N,/GREEN*%
X266446000Y-95652500D03*
%TO.P,C5,2*%
%TO.N,GND*%
X266446000Y-93577500D03*
%TD*%
D14*
%TO.P,R23,1*%
%TO.N,Net-(U1D-LD5{slash}PA5)*%
X56499000Y-91821000D03*
%TO.P,R23,2*%
%TO.N,Net-(J3-Pin_12)*%
X54499000Y-91821000D03*
%TD*%
%TO.P,R17,1*%
%TO.N,Net-(U1G-~{SRESET})*%
X68818000Y-134874000D03*
%TO.P,R17,2*%
%TO.N,/VL Bus/RST*%
X66818000Y-134874000D03*
%TD*%
D21*
%TO.P,R11,1*%
%TO.N,Net-(U1F-~{CAS2})*%
X177038000Y-128159000D03*
%TO.P,R11,2*%
%TO.N,/Memory Bus/CAS2*%
X177038000Y-130159000D03*
%TD*%
D14*
%TO.P,R25,1*%
%TO.N,Net-(U1D-LD7{slash}PA7)*%
X56499000Y-96901000D03*
%TO.P,R25,2*%
%TO.N,Net-(J3-Pin_16)*%
X54499000Y-96901000D03*
%TD*%
D23*
%TO.P,C10,1*%
%TO.N,VCC*%
X141075500Y-132200000D03*
%TO.P,C10,2*%
%TO.N,GND*%
X143150500Y-132200000D03*
%TD*%
D14*
%TO.P,R24,1*%
%TO.N,Net-(U1D-LD6{slash}PA6)*%
X56499000Y-94361000D03*
%TO.P,R24,2*%
%TO.N,Net-(J3-Pin_14)*%
X54499000Y-94361000D03*
%TD*%
%TO.P,R29,1*%
%TO.N,VCC*%
X65389000Y-95885000D03*
%TO.P,R29,2*%
%TO.N,Net-(J3-Pin_9)*%
X63389000Y-95885000D03*
%TD*%
D10*
%TO.P,R5,1*%
%TO.N,/VS*%
X266716000Y-104140000D03*
%TO.P,R5,2*%
%TO.N,/VSYNC*%
X268716000Y-104140000D03*
%TD*%
D24*
%TO.P,J2,0*%
%TO.N,N/C*%
X274979669Y-109915000D03*
X274979669Y-84915000D03*
D25*
%TO.P,J2,1*%
%TO.N,/RED*%
X273559669Y-93100000D03*
D26*
%TO.P,J2,2*%
%TO.N,/GREEN*%
X273559669Y-95390000D03*
%TO.P,J2,3*%
%TO.N,/BLUE*%
X273559669Y-97680000D03*
%TO.P,J2,4*%
%TO.N,unconnected-(J2-Pad4)*%
X273559669Y-99970000D03*
%TO.P,J2,5*%
%TO.N,GND*%
X273559669Y-102260000D03*
%TO.P,J2,6*%
X275539669Y-91955000D03*
%TO.P,J2,7*%
X275539669Y-94245000D03*
%TO.P,J2,8*%
X275539669Y-96535000D03*
%TO.P,J2,9*%
%TO.N,Net-(JP1-Pin_2)*%
X275539669Y-98825000D03*
%TO.P,J2,10*%
%TO.N,GND*%
X275539669Y-101115000D03*
%TO.P,J2,11*%
%TO.N,unconnected-(J2-Pad11)*%
X277519669Y-93100000D03*
%TO.P,J2,12*%
%TO.N,unconnected-(J2-Pad12)*%
X277519669Y-95390000D03*
%TO.P,J2,13*%
%TO.N,/HSYNC*%
X277519669Y-97680000D03*
%TO.P,J2,14*%
%TO.N,/VSYNC*%
X277519669Y-99970000D03*
%TO.P,J2,15*%
%TO.N,unconnected-(J2-Pad15)*%
X277519669Y-102260000D03*
%TD*%
D10*
%TO.P,R30,1*%
%TO.N,Net-(J3-Pin_11)*%
X54499000Y-101854000D03*
%TO.P,R30,2*%
%TO.N,/EVCLK*%
X56499000Y-101854000D03*
%TD*%
D14*
%TO.P,R38,1*%
%TO.N,GND*%
X175752000Y-105918000D03*
%TO.P,R38,2*%
%TO.N,/Memory Bus/PD3*%
X173752000Y-105918000D03*
%TD*%
D15*
%TO.P,JP2,1,Pin_1*%
%TO.N,unconnected-(JP2-Pin_1-Pad1)*%
X49530000Y-117475000D03*
D16*
%TO.P,JP2,2,Pin_2*%
%TO.N,/VL Bus/SINTR*%
X49530000Y-120015000D03*
%TO.P,JP2,3,Pin_3*%
%TO.N,/VL Bus/IRQ9*%
X49530000Y-122555000D03*
%TD*%
D14*
%TO.P,R19,1*%
%TO.N,Net-(U1D-LD1{slash}PA1)*%
X56499000Y-81661000D03*
%TO.P,R19,2*%
%TO.N,Net-(J3-Pin_4)*%
X54499000Y-81661000D03*
%TD*%
D10*
%TO.P,R54,1*%
%TO.N,Net-(U2-A17)*%
X235601000Y-134239000D03*
%TO.P,R54,2*%
%TO.N,VCC*%
X237601000Y-134239000D03*
%TD*%
D14*
%TO.P,R44,1*%
%TO.N,GND*%
X175752000Y-91694000D03*
%TO.P,R44,2*%
%TO.N,/Memory Bus/PD12*%
X173752000Y-91694000D03*
%TD*%
D10*
%TO.P,R33,1*%
%TO.N,GND*%
X87900000Y-109093000D03*
%TO.P,R33,2*%
%TO.N,Net-(U1H-RSET)*%
X89900000Y-109093000D03*
%TD*%
D14*
%TO.P,R41,1*%
%TO.N,GND*%
X175752000Y-99822000D03*
%TO.P,R41,2*%
%TO.N,/Memory Bus/PD6*%
X173752000Y-99822000D03*
%TD*%
%TO.P,R40,1*%
%TO.N,GND*%
X175752000Y-97790000D03*
%TO.P,R40,2*%
%TO.N,/Memory Bus/PD5*%
X173752000Y-97790000D03*
%TD*%
%TO.P,R50,1*%
%TO.N,GND*%
X175752000Y-122428000D03*
%TO.P,R50,2*%
%TO.N,/Memory Bus/PD25*%
X173752000Y-122428000D03*
%TD*%
D27*
%TO.P,U10,1,A->B*%
%TO.N,/ISA Bus/SMEMR*%
X255303500Y-131191000D03*
%TO.P,U10,2,A0*%
%TO.N,/ISA Bus/ISA_D7*%
X255303500Y-129921000D03*
%TO.P,U10,3,A1*%
%TO.N,/ISA Bus/ISA_D6*%
X255303500Y-128651000D03*
%TO.P,U10,4,A2*%
%TO.N,/ISA Bus/ISA_D5*%
X255303500Y-127381000D03*
%TO.P,U10,5,A3*%
%TO.N,/ISA Bus/ISA_D4*%
X255303500Y-126111000D03*
%TO.P,U10,6,A4*%
%TO.N,/ISA Bus/ISA_D3*%
X255303500Y-124841000D03*
%TO.P,U10,7,A5*%
%TO.N,/ISA Bus/ISA_D2*%
X255303500Y-123571000D03*
%TO.P,U10,8,A6*%
%TO.N,/ISA Bus/ISA_D1*%
X255303500Y-122301000D03*
%TO.P,U10,9,A7*%
%TO.N,/ISA Bus/ISA_D0*%
X255303500Y-121031000D03*
%TO.P,U10,10,GND*%
%TO.N,GND*%
X255303500Y-119761000D03*
%TO.P,U10,11,B7*%
%TO.N,/ISA Bus/R_D0*%
X248378500Y-119761000D03*
%TO.P,U10,12,B6*%
%TO.N,/ISA Bus/R_D1*%
X248378500Y-121031000D03*
%TO.P,U10,13,B5*%
%TO.N,/ISA Bus/R_D2*%
X248378500Y-122301000D03*
%TO.P,U10,14,B4*%
%TO.N,/ISA Bus/R_D3*%
X248378500Y-123571000D03*
%TO.P,U10,15,B3*%
%TO.N,/ISA Bus/R_D4*%
X248378500Y-124841000D03*
%TO.P,U10,16,B2*%
%TO.N,/ISA Bus/R_D5*%
X248378500Y-126111000D03*
%TO.P,U10,17,B1*%
%TO.N,/ISA Bus/R_D6*%
X248378500Y-127381000D03*
%TO.P,U10,18,B0*%
%TO.N,/ISA Bus/R_D7*%
X248378500Y-128651000D03*
%TO.P,U10,19,CE*%
%TO.N,/ISA Bus/ROMCS*%
X248378500Y-129921000D03*
%TO.P,U10,20,VCC*%
%TO.N,VCC*%
X248378500Y-131191000D03*
%TD*%
D11*
%TO.P,C1,1*%
%TO.N,/S3_RED*%
X256159000Y-91588500D03*
%TO.P,C1,2*%
%TO.N,GND*%
X256159000Y-89513500D03*
%TD*%
D28*
%TO.P,U6,1,VCC*%
%TO.N,VCC*%
X122301000Y-90500000D03*
%TO.P,U6,2,DQ0*%
%TO.N,/Memory Bus/PD48*%
X123571000Y-90500000D03*
%TO.P,U6,3,DQ1*%
%TO.N,/Memory Bus/PD49*%
X124841000Y-90500000D03*
%TO.P,U6,4,DQ2*%
%TO.N,/Memory Bus/PD50*%
X126111000Y-90500000D03*
%TO.P,U6,5,DQ3*%
%TO.N,/Memory Bus/PD51*%
X127381000Y-90500000D03*
%TO.P,U6,6,VCC*%
%TO.N,VCC*%
X128651000Y-90500000D03*
%TO.P,U6,7,DQ4*%
%TO.N,/Memory Bus/PD52*%
X129921000Y-90500000D03*
%TO.P,U6,8,DQ5*%
%TO.N,/Memory Bus/PD53*%
X131191000Y-90500000D03*
%TO.P,U6,9,DQ6*%
%TO.N,/Memory Bus/PD54*%
X132461000Y-90500000D03*
%TO.P,U6,10,DQ7*%
%TO.N,/Memory Bus/PD55*%
X133731000Y-90500000D03*
%TO.P,U6,11,NC*%
%TO.N,unconnected-(U6-NC-Pad11)*%
X135001000Y-90500000D03*
%TO.P,U6,12,NC*%
%TO.N,unconnected-(U6-NC-Pad12)*%
X136271000Y-90500000D03*
%TO.P,U6,13,~{WE}*%
%TO.N,/Memory Bus/WE*%
X137541000Y-90500000D03*
%TO.P,U6,14,~{RAS}*%
%TO.N,/Memory Bus/RAS*%
X138811000Y-90500000D03*
%TO.P,U6,15,NC*%
%TO.N,unconnected-(U6-NC-Pad15)*%
X140081000Y-90500000D03*
%TO.P,U6,16,A0*%
%TO.N,/Memory Bus/MA0*%
X141351000Y-90500000D03*
%TO.P,U6,17,A1*%
%TO.N,/Memory Bus/MA1*%
X142621000Y-90500000D03*
%TO.P,U6,18,A2*%
%TO.N,/Memory Bus/MA2*%
X143891000Y-90500000D03*
%TO.P,U6,19,A3*%
%TO.N,/Memory Bus/MA3*%
X145161000Y-90500000D03*
%TO.P,U6,20,VCC*%
%TO.N,VCC*%
X146431000Y-90500000D03*
%TO.P,U6,21,VSS*%
%TO.N,GND*%
X146431000Y-81100000D03*
%TO.P,U6,22,A4*%
%TO.N,/Memory Bus/MA4*%
X145161000Y-81100000D03*
%TO.P,U6,23,A5*%
%TO.N,/Memory Bus/MA5*%
X143891000Y-81100000D03*
%TO.P,U6,24,A6*%
%TO.N,/Memory Bus/MA6*%
X142621000Y-81100000D03*
%TO.P,U6,25,A7*%
%TO.N,/Memory Bus/MA7*%
X141351000Y-81100000D03*
%TO.P,U6,26,A8*%
%TO.N,/Memory Bus/MA8*%
X140081000Y-81100000D03*
%TO.P,U6,27,OE*%
%TO.N,/Memory Bus/OE*%
X138811000Y-81100000D03*
%TO.P,U6,28,~{UCAS}*%
%TO.N,/Memory Bus/CAS7*%
X137541000Y-81100000D03*
%TO.P,U6,29,~{LCAS}*%
%TO.N,/Memory Bus/CAS6*%
X136271000Y-81100000D03*
%TO.P,U6,30,NC*%
%TO.N,unconnected-(U6-NC-Pad30)*%
X135001000Y-81100000D03*
%TO.P,U6,31,DQ8*%
%TO.N,/Memory Bus/PD56*%
X133731000Y-81100000D03*
%TO.P,U6,32,DQ9*%
%TO.N,/Memory Bus/PD57*%
X132461000Y-81100000D03*
%TO.P,U6,33,DQ10*%
%TO.N,/Memory Bus/PD58*%
X131191000Y-81100000D03*
%TO.P,U6,34,DQ11*%
%TO.N,/Memory Bus/PD59*%
X129921000Y-81100000D03*
%TO.P,U6,35,VSS*%
%TO.N,GND*%
X128651000Y-81100000D03*
%TO.P,U6,36,DQ12*%
%TO.N,/Memory Bus/PD60*%
X127381000Y-81100000D03*
%TO.P,U6,37,DQ13*%
%TO.N,/Memory Bus/PD61*%
X126111000Y-81100000D03*
%TO.P,U6,38,DQ14*%
%TO.N,/Memory Bus/PD62*%
X124841000Y-81100000D03*
%TO.P,U6,39,DQ15*%
%TO.N,/Memory Bus/PD63*%
X123571000Y-81100000D03*
%TO.P,U6,40,VSS*%
%TO.N,GND*%
X122301000Y-81100000D03*
%TD*%
D14*
%TO.P,R52,1*%
%TO.N,GND*%
X175752000Y-118110000D03*
%TO.P,R52,2*%
%TO.N,/Memory Bus/PD27*%
X173752000Y-118110000D03*
%TD*%
D12*
%TO.P,R13,1*%
%TO.N,Net-(U1F-~{CAS4})*%
X157353000Y-81137000D03*
%TO.P,R13,2*%
%TO.N,/Memory Bus/CAS4*%
X157353000Y-79137000D03*
%TD*%
D11*
%TO.P,C13,1*%
%TO.N,VCC*%
X80391000Y-83460500D03*
%TO.P,C13,2*%
%TO.N,GND*%
X80391000Y-81385500D03*
%TD*%
D14*
%TO.P,R42,1*%
%TO.N,GND*%
X175752000Y-101854000D03*
%TO.P,R42,2*%
%TO.N,/Memory Bus/PD7*%
X173752000Y-101854000D03*
%TD*%
D29*
%TO.P,C15,1*%
%TO.N,Net-(U1G-~{SRESET})*%
X62738000Y-130407500D03*
%TO.P,C15,2*%
%TO.N,GND*%
X62738000Y-132482500D03*
%TD*%
D14*
%TO.P,R45,1*%
%TO.N,GND*%
X175752000Y-107950000D03*
%TO.P,R45,2*%
%TO.N,/Memory Bus/PD16*%
X173752000Y-107950000D03*
%TD*%
%TO.P,R47,1*%
%TO.N,GND*%
X175752000Y-112014000D03*
%TO.P,R47,2*%
%TO.N,/Memory Bus/PD18*%
X173752000Y-112014000D03*
%TD*%
D12*
%TO.P,R6,1*%
%TO.N,Net-(U1F-~{OE})*%
X113411000Y-98790000D03*
%TO.P,R6,2*%
%TO.N,/Memory Bus/OE*%
X113411000Y-96790000D03*
%TD*%
%TO.P,R3,1*%
%TO.N,/S3_BLUE*%
X258445000Y-99806000D03*
%TO.P,R3,2*%
%TO.N,GND*%
X258445000Y-97806000D03*
%TD*%
D14*
%TO.P,R48,1*%
%TO.N,GND*%
X175752000Y-116078000D03*
%TO.P,R48,2*%
%TO.N,/Memory Bus/PD19*%
X173752000Y-116078000D03*
%TD*%
D30*
%TO.P,J1,A1,D1*%
%TO.N,/VL Bus/VL_D1*%
X118900000Y-142300000D03*
D31*
X118900000Y-144960000D03*
D30*
%TO.P,J1,A2,D3*%
%TO.N,/VL Bus/VL_D3*%
X117630000Y-142300000D03*
D31*
X117630000Y-144960000D03*
D30*
%TO.P,J1,A3,VSS*%
%TO.N,GND*%
X116370000Y-142300000D03*
D31*
X116370000Y-144960000D03*
D30*
%TO.P,J1,A4,D5*%
%TO.N,/VL Bus/VL_D5*%
X115090000Y-142300000D03*
D31*
X115090000Y-144960000D03*
D30*
%TO.P,J1,A5,D7*%
%TO.N,/VL Bus/VL_D7*%
X113820000Y-142300000D03*
D31*
X113820000Y-144960000D03*
D30*
%TO.P,J1,A6,D9*%
%TO.N,/VL Bus/VL_D9*%
X112550000Y-142300000D03*
D31*
X112550000Y-144960000D03*
D30*
%TO.P,J1,A7,D11*%
%TO.N,/VL Bus/VL_D11*%
X111280000Y-142300000D03*
D31*
X111280000Y-144960000D03*
D30*
%TO.P,J1,A8,D13*%
%TO.N,/VL Bus/VL_D13*%
X110010000Y-142300000D03*
D31*
X110010000Y-144960000D03*
D30*
%TO.P,J1,A9,D15*%
%TO.N,/VL Bus/VL_D15*%
X108740000Y-142300000D03*
D31*
X108740000Y-144960000D03*
D30*
%TO.P,J1,A10,VSS*%
%TO.N,GND*%
X107470000Y-142300000D03*
D31*
X107470000Y-144960000D03*
D30*
%TO.P,J1,A11,D17*%
%TO.N,/VL Bus/VL_D17*%
X106200000Y-142300000D03*
D31*
X106200000Y-144960000D03*
D30*
%TO.P,J1,A12,VCC*%
%TO.N,VCC*%
X104940000Y-142300000D03*
D31*
X104940000Y-144960000D03*
D30*
%TO.P,J1,A13,D19*%
%TO.N,/VL Bus/VL_D19*%
X103660000Y-142300000D03*
D31*
X103660000Y-144960000D03*
D30*
%TO.P,J1,A14,D21*%
%TO.N,/VL Bus/VL_D21*%
X102390000Y-142300000D03*
D31*
X102390000Y-144960000D03*
D30*
%TO.P,J1,A15,D23*%
%TO.N,/VL Bus/VL_D23*%
X101120000Y-142300000D03*
D31*
X101120000Y-144960000D03*
D30*
%TO.P,J1,A16,D25*%
%TO.N,/VL Bus/VL_D25*%
X99850000Y-142300000D03*
D31*
X99850000Y-144960000D03*
D30*
%TO.P,J1,A17,VSS*%
%TO.N,GND*%
X98580000Y-142300000D03*
D31*
X98580000Y-144960000D03*
D30*
%TO.P,J1,A18,D27*%
%TO.N,/VL Bus/VL_D27*%
X97310000Y-142300000D03*
D31*
X97310000Y-144960000D03*
D30*
%TO.P,J1,A19,D29*%
%TO.N,/VL Bus/VL_D29*%
X96050000Y-142300000D03*
D31*
X96050000Y-144960000D03*
D30*
%TO.P,J1,A20,D31*%
%TO.N,/VL Bus/VL_D31*%
X94770000Y-142300000D03*
D31*
X94770000Y-144960000D03*
D30*
%TO.P,J1,A21,A30*%
%TO.N,/VL Bus/VL_A30*%
X93510000Y-142300000D03*
D31*
X93510000Y-144960000D03*
D30*
%TO.P,J1,A22,A28*%
%TO.N,/VL Bus/VL_A28*%
X92230000Y-142300000D03*
D31*
X92230000Y-144960000D03*
D30*
%TO.P,J1,A23,A26*%
%TO.N,/VL Bus/VL_A26*%
X90960000Y-142300000D03*
D31*
X90960000Y-144960000D03*
D30*
%TO.P,J1,A24,VSS*%
%TO.N,GND*%
X89690000Y-142300000D03*
D31*
X89690000Y-144960000D03*
D30*
%TO.P,J1,A25,A24*%
%TO.N,/VL Bus/VL_A24*%
X88420000Y-142300000D03*
D31*
X88420000Y-144960000D03*
D30*
%TO.P,J1,A26,A22*%
%TO.N,/VL Bus/VL_A22*%
X87150000Y-142300000D03*
D31*
X87150000Y-144960000D03*
D30*
%TO.P,J1,A27,VCC*%
%TO.N,VCC*%
X85880000Y-142300000D03*
D31*
X85880000Y-144960000D03*
D30*
%TO.P,J1,A28,A20*%
%TO.N,/VL Bus/VL_A20*%
X84610000Y-142300000D03*
D31*
X84610000Y-144960000D03*
D30*
%TO.P,J1,A29,A18*%
%TO.N,/VL Bus/VL_A18*%
X83340000Y-142300000D03*
D31*
X83340000Y-144960000D03*
D30*
%TO.P,J1,A30,A16*%
%TO.N,/VL Bus/VL_A16*%
X82070000Y-142300000D03*
D31*
X82070000Y-144960000D03*
D30*
%TO.P,J1,A31,A14*%
%TO.N,/VL Bus/VL_A14*%
X80800000Y-142300000D03*
D31*
X80800000Y-144960000D03*
D30*
%TO.P,J1,A32,A12*%
%TO.N,/VL Bus/VL_A12*%
X79530000Y-142300000D03*
D31*
X79530000Y-144960000D03*
D30*
%TO.P,J1,A33,A10*%
%TO.N,/VL Bus/VL_A10*%
X78260000Y-142300000D03*
D31*
X78260000Y-144960000D03*
D30*
%TO.P,J1,A34,A8*%
%TO.N,/VL Bus/VL_A8*%
X76990000Y-142300000D03*
D31*
X76990000Y-144960000D03*
D30*
%TO.P,J1,A35,VSS*%
%TO.N,GND*%
X75720000Y-142300000D03*
D31*
X75720000Y-144960000D03*
D30*
%TO.P,J1,A36,A6*%
%TO.N,/VL Bus/VL_A6*%
X74450000Y-142300000D03*
D31*
X74450000Y-144960000D03*
D30*
%TO.P,J1,A37,A4*%
%TO.N,/VL Bus/VL_A4*%
X73180000Y-142300000D03*
D31*
X73180000Y-144960000D03*
D30*
%TO.P,J1,A38,WBACK*%
%TO.N,unconnected-(J1A-WBACK-PadA38)*%
X71910000Y-142300000D03*
D31*
X71910000Y-144960000D03*
D30*
%TO.P,J1,A39,BE0*%
%TO.N,/VL Bus/BE0*%
X70640000Y-142300000D03*
D31*
X70640000Y-144960000D03*
D30*
%TO.P,J1,A40,VCC*%
%TO.N,VCC*%
X69370000Y-142300000D03*
D31*
X69370000Y-144960000D03*
D30*
%TO.P,J1,A41,BE1*%
%TO.N,/VL Bus/BE1*%
X68100000Y-142300000D03*
D31*
X68100000Y-144960000D03*
D30*
%TO.P,J1,A42,BE2*%
%TO.N,/VL Bus/BE2*%
X66830000Y-142300000D03*
D31*
X66830000Y-144960000D03*
D30*
%TO.P,J1,A43,VSS*%
%TO.N,GND*%
X65560000Y-142300000D03*
D31*
X65560000Y-144960000D03*
D30*
%TO.P,J1,A44,BE3*%
%TO.N,/VL Bus/BE3*%
X64290000Y-142300000D03*
D31*
X64290000Y-144960000D03*
D30*
%TO.P,J1,A45,ADS*%
%TO.N,/VL Bus/ADS*%
X63020000Y-142300000D03*
D31*
X63020000Y-144960000D03*
D30*
%TO.P,J1,A48,LRDY*%
%TO.N,/VL Bus/LRDY*%
X59210000Y-142300000D03*
D31*
X59210000Y-144960000D03*
D30*
%TO.P,J1,A49,LDEV*%
%TO.N,/VL Bus/LDEV*%
X57940000Y-142300000D03*
D31*
X57940000Y-144960000D03*
D30*
%TO.P,J1,A50,LREQ*%
%TO.N,unconnected-(J1A-LREQ-PadA50)*%
X56670000Y-142300000D03*
D31*
X56670000Y-144960000D03*
D30*
%TO.P,J1,A51,VSS*%
%TO.N,GND*%
X55400000Y-142300000D03*
D31*
X55400000Y-144960000D03*
D30*
%TO.P,J1,A52,LGNT*%
%TO.N,unconnected-(J1A-LGNT-PadA52)*%
X54130000Y-142300000D03*
D31*
X54130000Y-144960000D03*
D30*
%TO.P,J1,A53,VCC*%
%TO.N,VCC*%
X52860000Y-142300000D03*
D31*
X52860000Y-144960000D03*
D30*
%TO.P,J1,A54,ID2*%
%TO.N,/VL Bus/ID2*%
X51590000Y-142300000D03*
D31*
X51590000Y-144960000D03*
D30*
%TO.P,J1,A55,ID3*%
%TO.N,/VL Bus/ID3*%
X50320000Y-142300000D03*
D31*
X50320000Y-144960000D03*
D30*
%TO.P,J1,A56,ID4*%
%TO.N,/VL Bus/ID4*%
X49050000Y-142300000D03*
D31*
X49050000Y-144960000D03*
D30*
%TO.P,J1,A57,NC*%
%TO.N,unconnected-(J1A-NC-PadA57)*%
X47780000Y-142300000D03*
D31*
X47780000Y-144960000D03*
D30*
%TO.P,J1,A58,LEADS*%
%TO.N,unconnected-(J1A-LEADS-PadA58)*%
X46510000Y-142300000D03*
D31*
X46510000Y-144960000D03*
D32*
%TO.P,J1,C32,IO*%
%TO.N,unconnected-(J1B-IO-PadC32)*%
X261100000Y-142000000D03*
%TO.P,J1,C33,DB7*%
%TO.N,/ISA Bus/ISA_D7*%
X258560000Y-142000000D03*
%TO.P,J1,C34,DB6*%
%TO.N,/ISA Bus/ISA_D6*%
X256020000Y-142000000D03*
%TO.P,J1,C35,DB5*%
%TO.N,/ISA Bus/ISA_D5*%
X253480000Y-142000000D03*
%TO.P,J1,C36,DB4*%
%TO.N,/ISA Bus/ISA_D4*%
X250940000Y-142000000D03*
%TO.P,J1,C37,DB3*%
%TO.N,/ISA Bus/ISA_D3*%
X248400000Y-142000000D03*
%TO.P,J1,C38,DB2*%
%TO.N,/ISA Bus/ISA_D2*%
X245860000Y-142000000D03*
%TO.P,J1,C39,DB1*%
%TO.N,/ISA Bus/ISA_D1*%
X243320000Y-142000000D03*
%TO.P,J1,C40,DB0*%
%TO.N,/ISA Bus/ISA_D0*%
X240780000Y-142000000D03*
%TO.P,J1,C41,IO_READY*%
%TO.N,unconnected-(J1B-IO_READY-PadC41)*%
X238240000Y-142000000D03*
%TO.P,J1,C42,AEN*%
%TO.N,unconnected-(J1B-AEN-PadC42)*%
X235700000Y-142000000D03*
%TO.P,J1,C43,BA19*%
%TO.N,unconnected-(J1B-BA19-PadC43)*%
X233160000Y-142000000D03*
%TO.P,J1,C44,BA18*%
%TO.N,unconnected-(J1B-BA18-PadC44)*%
X230620000Y-142000000D03*
%TO.P,J1,C45,BA17*%
%TO.N,unconnected-(J1B-BA17-PadC45)*%
X228080000Y-142000000D03*
%TO.P,J1,C46,BA16*%
%TO.N,/ISA Bus/R_A16*%
X225540000Y-142000000D03*
%TO.P,J1,C47,BA15*%
%TO.N,/ISA Bus/R_A15*%
X223000000Y-142000000D03*
%TO.P,J1,C48,BA14*%
%TO.N,/ISA Bus/R_A14*%
X220460000Y-142000000D03*
%TO.P,J1,C49,BA13*%
%TO.N,/ISA Bus/R_A13*%
X217920000Y-142000000D03*
%TO.P,J1,C50,BA12*%
%TO.N,/ISA Bus/R_A12*%
X215380000Y-142000000D03*
%TO.P,J1,C51,BA11*%
%TO.N,/ISA Bus/R_A11*%
X212840000Y-142000000D03*
%TO.P,J1,C52,BA10*%
%TO.N,/ISA Bus/R_A10*%
X210300000Y-142000000D03*
%TO.P,J1,C53,BA09*%
%TO.N,/ISA Bus/R_A9*%
X207760000Y-142000000D03*
%TO.P,J1,C54,BA08*%
%TO.N,/ISA Bus/R_A8*%
X205220000Y-142000000D03*
%TO.P,J1,C55,BA07*%
%TO.N,/ISA Bus/R_A7*%
X202680000Y-142000000D03*
%TO.P,J1,C56,BA06*%
%TO.N,/ISA Bus/R_A6*%
X200140000Y-142000000D03*
%TO.P,J1,C57,BA05*%
%TO.N,/ISA Bus/R_A5*%
X197600000Y-142000000D03*
%TO.P,J1,C58,BA04*%
%TO.N,/ISA Bus/R_A4*%
X195060000Y-142000000D03*
%TO.P,J1,C59,BA03*%
%TO.N,/ISA Bus/R_A3*%
X192520000Y-142000000D03*
%TO.P,J1,C60,BA02*%
%TO.N,/ISA Bus/R_A2*%
X189980000Y-142000000D03*
%TO.P,J1,C61,BA01*%
%TO.N,/ISA Bus/R_A1*%
X187440000Y-142000000D03*
%TO.P,J1,C62,BA00*%
%TO.N,/ISA Bus/R_A0*%
X184900000Y-142000000D03*
%TD*%
D29*
%TO.P,C14,1*%
%TO.N,VCC*%
X244348000Y-130788500D03*
%TO.P,C14,2*%
%TO.N,GND*%
X244348000Y-132863500D03*
%TD*%
D10*
%TO.P,R36,1*%
%TO.N,GND*%
X129937000Y-101600000D03*
%TO.P,R36,2*%
%TO.N,/Memory Bus/PD0*%
X131937000Y-101600000D03*
%TD*%
D17*
%TO.P,FB2,1*%
%TO.N,/GREEN*%
X263407000Y-95631000D03*
%TO.P,FB2,2*%
%TO.N,/S3_GREEN*%
X261357000Y-95631000D03*
%TD*%
D23*
%TO.P,C11,1*%
%TO.N,VCC*%
X160760500Y-132200000D03*
%TO.P,C11,2*%
%TO.N,GND*%
X162835500Y-132200000D03*
%TD*%
D11*
%TO.P,C2,1*%
%TO.N,/S3_GREEN*%
X256159000Y-95636500D03*
%TO.P,C2,2*%
%TO.N,GND*%
X256159000Y-93561500D03*
%TD*%
D14*
%TO.P,R31,1*%
%TO.N,VCC*%
X56499000Y-104140000D03*
%TO.P,R31,2*%
%TO.N,Net-(J3-Pin_11)*%
X54499000Y-104140000D03*
%TD*%
D10*
%TO.P,R4,1*%
%TO.N,/HS*%
X266732000Y-110998000D03*
%TO.P,R4,2*%
%TO.N,/HSYNC*%
X268732000Y-110998000D03*
%TD*%
D22*
%TO.P,U4,1,VCC*%
%TO.N,VCC*%
X156972000Y-101219000D03*
%TO.P,U4,2,DQ0*%
%TO.N,/Memory Bus/PD16*%
X156972000Y-102489000D03*
%TO.P,U4,3,DQ1*%
%TO.N,/Memory Bus/PD17*%
X156972000Y-103759000D03*
%TO.P,U4,4,DQ2*%
%TO.N,/Memory Bus/PD18*%
X156972000Y-105029000D03*
%TO.P,U4,5,DQ3*%
%TO.N,/Memory Bus/PD19*%
X156972000Y-106299000D03*
%TO.P,U4,6,VCC*%
%TO.N,VCC*%
X156972000Y-107569000D03*
%TO.P,U4,7,DQ4*%
%TO.N,/Memory Bus/PD20*%
X156972000Y-108839000D03*
%TO.P,U4,8,DQ5*%
%TO.N,/Memory Bus/PD21*%
X156972000Y-110109000D03*
%TO.P,U4,9,DQ6*%
%TO.N,/Memory Bus/PD22*%
X156972000Y-111379000D03*
%TO.P,U4,10,DQ7*%
%TO.N,/Memory Bus/PD23*%
X156972000Y-112649000D03*
%TO.P,U4,11,NC*%
%TO.N,unconnected-(U4-NC-Pad11)*%
X156972000Y-113919000D03*
%TO.P,U4,12,NC*%
%TO.N,unconnected-(U4-NC-Pad12)*%
X156972000Y-115189000D03*
%TO.P,U4,13,~{WE}*%
%TO.N,/Memory Bus/WE*%
X156972000Y-116459000D03*
%TO.P,U4,14,~{RAS}*%
%TO.N,/Memory Bus/RAS*%
X156972000Y-117729000D03*
%TO.P,U4,15,NC*%
%TO.N,unconnected-(U4-NC-Pad15)*%
X156972000Y-118999000D03*
%TO.P,U4,16,A0*%
%TO.N,/Memory Bus/MA0*%
X156972000Y-120269000D03*
%TO.P,U4,17,A1*%
%TO.N,/Memory Bus/MA1*%
X156972000Y-121539000D03*
%TO.P,U4,18,A2*%
%TO.N,/Memory Bus/MA2*%
X156972000Y-122809000D03*
%TO.P,U4,19,A3*%
%TO.N,/Memory Bus/MA3*%
X156972000Y-124079000D03*
%TO.P,U4,20,VCC*%
%TO.N,VCC*%
X156972000Y-125349000D03*
%TO.P,U4,21,VSS*%
%TO.N,GND*%
X166372000Y-125349000D03*
%TO.P,U4,22,A4*%
%TO.N,/Memory Bus/MA4*%
X166372000Y-124079000D03*
%TO.P,U4,23,A5*%
%TO.N,/Memory Bus/MA5*%
X166372000Y-122809000D03*
%TO.P,U4,24,A6*%
%TO.N,/Memory Bus/MA6*%
X166372000Y-121539000D03*
%TO.P,U4,25,A7*%
%TO.N,/Memory Bus/MA7*%
X166372000Y-120269000D03*
%TO.P,U4,26,A8*%
%TO.N,/Memory Bus/MA8*%
X166372000Y-118999000D03*
%TO.P,U4,27,OE*%
%TO.N,/Memory Bus/OE*%
X166372000Y-117729000D03*
%TO.P,U4,28,~{UCAS}*%
%TO.N,/Memory Bus/CAS3*%
X166372000Y-116459000D03*
%TO.P,U4,29,~{LCAS}*%
%TO.N,/Memory Bus/CAS2*%
X166372000Y-115189000D03*
%TO.P,U4,30,NC*%
%TO.N,unconnected-(U4-NC-Pad30)*%
X166372000Y-113919000D03*
%TO.P,U4,31,DQ8*%
%TO.N,/Memory Bus/PD24*%
X166372000Y-112649000D03*
%TO.P,U4,32,DQ9*%
%TO.N,/Memory Bus/PD25*%
X166372000Y-111379000D03*
%TO.P,U4,33,DQ10*%
%TO.N,/Memory Bus/PD26*%
X166372000Y-110109000D03*
%TO.P,U4,34,DQ11*%
%TO.N,/Memory Bus/PD27*%
X166372000Y-108839000D03*
%TO.P,U4,35,VSS*%
%TO.N,GND*%
X166372000Y-107569000D03*
%TO.P,U4,36,DQ12*%
%TO.N,/Memory Bus/PD28*%
X166372000Y-106299000D03*
%TO.P,U4,37,DQ13*%
%TO.N,/Memory Bus/PD29*%
X166372000Y-105029000D03*
%TO.P,U4,38,DQ14*%
%TO.N,/Memory Bus/PD30*%
X166372000Y-103759000D03*
%TO.P,U4,39,DQ15*%
%TO.N,/Memory Bus/PD31*%
X166372000Y-102489000D03*
%TO.P,U4,40,VSS*%
%TO.N,GND*%
X166372000Y-101219000D03*
%TD*%
D12*
%TO.P,R2,1*%
%TO.N,/S3_GREEN*%
X258445000Y-95599000D03*
%TO.P,R2,2*%
%TO.N,GND*%
X258445000Y-93599000D03*
%TD*%
%TO.P,R10,1*%
%TO.N,Net-(U1F-~{CAS1})*%
X172720000Y-130159000D03*
%TO.P,R10,2*%
%TO.N,/Memory Bus/CAS1*%
X172720000Y-128159000D03*
%TD*%
%TO.P,R12,1*%
%TO.N,Net-(U1F-~{CAS3})*%
X174879000Y-130159000D03*
%TO.P,R12,2*%
%TO.N,/Memory Bus/CAS3*%
X174879000Y-128159000D03*
%TD*%
D14*
%TO.P,R22,1*%
%TO.N,Net-(U1D-LD4{slash}PA4)*%
X56499000Y-89281000D03*
%TO.P,R22,2*%
%TO.N,Net-(J3-Pin_10)*%
X54499000Y-89281000D03*
%TD*%
%TO.P,R39,1*%
%TO.N,GND*%
X175752000Y-95758000D03*
%TO.P,R39,2*%
%TO.N,/Memory Bus/PD4*%
X173752000Y-95758000D03*
%TD*%
D21*
%TO.P,R16,1*%
%TO.N,Net-(U1F-~{CAS7})*%
X154051000Y-83963000D03*
%TO.P,R16,2*%
%TO.N,/Memory Bus/CAS7*%
X154051000Y-85963000D03*
%TD*%
D12*
%TO.P,R55,1*%
%TO.N,Net-(U2-A16)*%
X244475000Y-121396000D03*
%TO.P,R55,2*%
%TO.N,VCC*%
X244475000Y-119396000D03*
%TD*%
D25*
%TO.P,U2,1,VPP*%
%TO.N,unconnected-(U2-VPP-Pad1)*%
X239903000Y-116459000D03*
D33*
%TO.P,U2,2,A16*%
%TO.N,Net-(U2-A16)*%
X237363000Y-116459000D03*
%TO.P,U2,3,A15*%
%TO.N,/ISA Bus/R_A15*%
X234823000Y-116459000D03*
%TO.P,U2,4,A12*%
%TO.N,/ISA Bus/R_A12*%
X232283000Y-116459000D03*
%TO.P,U2,5,A7*%
%TO.N,/ISA Bus/R_A7*%
X229743000Y-116459000D03*
%TO.P,U2,6,A6*%
%TO.N,/ISA Bus/R_A6*%
X227203000Y-116459000D03*
%TO.P,U2,7,A5*%
%TO.N,/ISA Bus/R_A5*%
X224663000Y-116459000D03*
%TO.P,U2,8,A4*%
%TO.N,/ISA Bus/R_A4*%
X222123000Y-116459000D03*
%TO.P,U2,9,A3*%
%TO.N,/ISA Bus/R_A3*%
X219583000Y-116459000D03*
%TO.P,U2,10,A2*%
%TO.N,/ISA Bus/R_A2*%
X217043000Y-116459000D03*
%TO.P,U2,11,A1*%
%TO.N,/ISA Bus/R_A1*%
X214503000Y-116459000D03*
%TO.P,U2,12,A0*%
%TO.N,/ISA Bus/R_A0*%
X211963000Y-116459000D03*
%TO.P,U2,13,D0*%
%TO.N,/ISA Bus/R_D0*%
X209423000Y-116459000D03*
%TO.P,U2,14,D1*%
%TO.N,/ISA Bus/R_D1*%
X206883000Y-116459000D03*
%TO.P,U2,15,D2*%
%TO.N,/ISA Bus/R_D2*%
X204343000Y-116459000D03*
%TO.P,U2,16,GND*%
%TO.N,GND*%
X201803000Y-116459000D03*
%TO.P,U2,17,D3*%
%TO.N,/ISA Bus/R_D3*%
X201803000Y-131699000D03*
%TO.P,U2,18,D4*%
%TO.N,/ISA Bus/R_D4*%
X204343000Y-131699000D03*
%TO.P,U2,19,D5*%
%TO.N,/ISA Bus/R_D5*%
X206883000Y-131699000D03*
%TO.P,U2,20,D6*%
%TO.N,/ISA Bus/R_D6*%
X209423000Y-131699000D03*
%TO.P,U2,21,D7*%
%TO.N,/ISA Bus/R_D7*%
X211963000Y-131699000D03*
%TO.P,U2,22,~{CE}*%
%TO.N,/ISA Bus/ROMCS*%
X214503000Y-131699000D03*
%TO.P,U2,23,A10*%
%TO.N,/ISA Bus/R_A10*%
X217043000Y-131699000D03*
%TO.P,U2,24,~{OE}*%
%TO.N,/ISA Bus/SMEMR*%
X219583000Y-131699000D03*
%TO.P,U2,25,A11*%
%TO.N,/ISA Bus/R_A11*%
X222123000Y-131699000D03*
%TO.P,U2,26,A9*%
%TO.N,/ISA Bus/R_A9*%
X224663000Y-131699000D03*
%TO.P,U2,27,A8*%
%TO.N,/ISA Bus/R_A8*%
X227203000Y-131699000D03*
%TO.P,U2,28,A13*%
%TO.N,/ISA Bus/R_A13*%
X229743000Y-131699000D03*
%TO.P,U2,29,A14*%
%TO.N,/ISA Bus/R_A14*%
X232283000Y-131699000D03*
%TO.P,U2,30,A17*%
%TO.N,Net-(U2-A17)*%
X234823000Y-131699000D03*
%TO.P,U2,31,~{PGM}*%
%TO.N,unconnected-(U2-~{PGM}-Pad31)*%
X237363000Y-131699000D03*
%TO.P,U2,32,VCC*%
%TO.N,VCC*%
X239903000Y-131699000D03*
%TD*%
D14*
%TO.P,R43,1*%
%TO.N,GND*%
X175752000Y-93726000D03*
%TO.P,R43,2*%
%TO.N,/Memory Bus/PD10*%
X173752000Y-93726000D03*
%TD*%
D28*
%TO.P,U5,1,VCC*%
%TO.N,VCC*%
X87503000Y-90500000D03*
%TO.P,U5,2,DQ0*%
%TO.N,/Memory Bus/PD32*%
X88773000Y-90500000D03*
%TO.P,U5,3,DQ1*%
%TO.N,/Memory Bus/PD33*%
X90043000Y-90500000D03*
%TO.P,U5,4,DQ2*%
%TO.N,/Memory Bus/PD34*%
X91313000Y-90500000D03*
%TO.P,U5,5,DQ3*%
%TO.N,/Memory Bus/PD35*%
X92583000Y-90500000D03*
%TO.P,U5,6,VCC*%
%TO.N,VCC*%
X93853000Y-90500000D03*
%TO.P,U5,7,DQ4*%
%TO.N,/Memory Bus/PD36*%
X95123000Y-90500000D03*
%TO.P,U5,8,DQ5*%
%TO.N,/Memory Bus/PD37*%
X96393000Y-90500000D03*
%TO.P,U5,9,DQ6*%
%TO.N,/Memory Bus/PD38*%
X97663000Y-90500000D03*
%TO.P,U5,10,DQ7*%
%TO.N,/Memory Bus/PD39*%
X98933000Y-90500000D03*
%TO.P,U5,11,NC*%
%TO.N,unconnected-(U5-NC-Pad11)*%
X100203000Y-90500000D03*
%TO.P,U5,12,NC*%
%TO.N,unconnected-(U5-NC-Pad12)*%
X101473000Y-90500000D03*
%TO.P,U5,13,~{WE}*%
%TO.N,/Memory Bus/WE*%
X102743000Y-90500000D03*
%TO.P,U5,14,~{RAS}*%
%TO.N,/Memory Bus/RAS*%
X104013000Y-90500000D03*
%TO.P,U5,15,NC*%
%TO.N,unconnected-(U5-NC-Pad15)*%
X105283000Y-90500000D03*
%TO.P,U5,16,A0*%
%TO.N,/Memory Bus/MA0*%
X106553000Y-90500000D03*
%TO.P,U5,17,A1*%
%TO.N,/Memory Bus/MA1*%
X107823000Y-90500000D03*
%TO.P,U5,18,A2*%
%TO.N,/Memory Bus/MA2*%
X109093000Y-90500000D03*
%TO.P,U5,19,A3*%
%TO.N,/Memory Bus/MA3*%
X110363000Y-90500000D03*
%TO.P,U5,20,VCC*%
%TO.N,VCC*%
X111633000Y-90500000D03*
%TO.P,U5,21,VSS*%
%TO.N,GND*%
X111633000Y-81100000D03*
%TO.P,U5,22,A4*%
%TO.N,/Memory Bus/MA4*%
X110363000Y-81100000D03*
%TO.P,U5,23,A5*%
%TO.N,/Memory Bus/MA5*%
X109093000Y-81100000D03*
%TO.P,U5,24,A6*%
%TO.N,/Memory Bus/MA6*%
X107823000Y-81100000D03*
%TO.P,U5,25,A7*%
%TO.N,/Memory Bus/MA7*%
X106553000Y-81100000D03*
%TO.P,U5,26,A8*%
%TO.N,/Memory Bus/MA8*%
X105283000Y-81100000D03*
%TO.P,U5,27,OE*%
%TO.N,/Memory Bus/OE*%
X104013000Y-81100000D03*
%TO.P,U5,28,~{UCAS}*%
%TO.N,/Memory Bus/CAS5*%
X102743000Y-81100000D03*
%TO.P,U5,29,~{LCAS}*%
%TO.N,/Memory Bus/CAS4*%
X101473000Y-81100000D03*
%TO.P,U5,30,NC*%
%TO.N,unconnected-(U5-NC-Pad30)*%
X100203000Y-81100000D03*
%TO.P,U5,31,DQ8*%
%TO.N,/Memory Bus/PD40*%
X98933000Y-81100000D03*
%TO.P,U5,32,DQ9*%
%TO.N,/Memory Bus/PD41*%
X97663000Y-81100000D03*
%TO.P,U5,33,DQ10*%
%TO.N,/Memory Bus/PD42*%
X96393000Y-81100000D03*
%TO.P,U5,34,DQ11*%
%TO.N,/Memory Bus/PD43*%
X95123000Y-81100000D03*
%TO.P,U5,35,VSS*%
%TO.N,GND*%
X93853000Y-81100000D03*
%TO.P,U5,36,DQ12*%
%TO.N,/Memory Bus/PD44*%
X92583000Y-81100000D03*
%TO.P,U5,37,DQ13*%
%TO.N,/Memory Bus/PD45*%
X91313000Y-81100000D03*
%TO.P,U5,38,DQ14*%
%TO.N,/Memory Bus/PD46*%
X90043000Y-81100000D03*
%TO.P,U5,39,DQ15*%
%TO.N,/Memory Bus/PD47*%
X88773000Y-81100000D03*
%TO.P,U5,40,VSS*%
%TO.N,GND*%
X87503000Y-81100000D03*
%TD*%
D14*
%TO.P,R51,1*%
%TO.N,GND*%
X175752000Y-120269000D03*
%TO.P,R51,2*%
%TO.N,/Memory Bus/PD26*%
X173752000Y-120269000D03*
%TD*%
%TO.P,R18,1*%
%TO.N,Net-(U1D-LD0{slash}PA0)*%
X56499000Y-79121000D03*
%TO.P,R18,2*%
%TO.N,Net-(J3-Pin_2)*%
X54499000Y-79121000D03*
%TD*%
D23*
%TO.P,C7,1*%
%TO.N,GND*%
X266710500Y-108839000D03*
%TO.P,C7,2*%
%TO.N,/HSYNC*%
X268785500Y-108839000D03*
%TD*%
%TO.P,C8,1*%
%TO.N,GND*%
X266678500Y-106299000D03*
%TO.P,C8,2*%
%TO.N,/VSYNC*%
X268753500Y-106299000D03*
%TD*%
D14*
%TO.P,R32,1*%
%TO.N,/LCLK*%
X56499000Y-99441000D03*
%TO.P,R32,2*%
%TO.N,Net-(J3-Pin_18)*%
X54499000Y-99441000D03*
%TD*%
D21*
%TO.P,R15,1*%
%TO.N,Net-(U1F-~{CAS6})*%
X156083000Y-83963000D03*
%TO.P,R15,2*%
%TO.N,/Memory Bus/CAS6*%
X156083000Y-85963000D03*
%TD*%
D14*
%TO.P,R37,1*%
%TO.N,GND*%
X175752000Y-103886000D03*
%TO.P,R37,2*%
%TO.N,/Memory Bus/PD2*%
X173752000Y-103886000D03*
%TD*%
D11*
%TO.P,C12,1*%
%TO.N,VCC*%
X153289000Y-81174500D03*
%TO.P,C12,2*%
%TO.N,GND*%
X153289000Y-79099500D03*
%TD*%
D14*
%TO.P,R20,1*%
%TO.N,Net-(U1D-LD2{slash}PA2)*%
X56499000Y-84201000D03*
%TO.P,R20,2*%
%TO.N,Net-(J3-Pin_6)*%
X54499000Y-84201000D03*
%TD*%
D34*
%TO.N,GND*%
X87503000Y-82931000D03*
X132461000Y-107442000D03*
X92329000Y-123063000D03*
X72390000Y-137414000D03*
X128651000Y-83058000D03*
X102108000Y-103251000D03*
X107095500Y-129667000D03*
X238252000Y-136271000D03*
X146431000Y-83185000D03*
X57150000Y-137541000D03*
X98078500Y-137541000D03*
X164338000Y-101219000D03*
X65532000Y-137668000D03*
X185547000Y-135890000D03*
X117602000Y-103378000D03*
X50292000Y-137668000D03*
X89662000Y-137541000D03*
X268097000Y-93599000D03*
X128397000Y-101473000D03*
X122682000Y-125984000D03*
X261366000Y-136525000D03*
X122809000Y-106426000D03*
X175752000Y-90043000D03*
X268224000Y-97790000D03*
X122301000Y-82931000D03*
X119634000Y-129921000D03*
X116967000Y-137541000D03*
X76327000Y-137414000D03*
X85979000Y-105156000D03*
X122555000Y-112522000D03*
X82677000Y-137303500D03*
X96139000Y-106426000D03*
X100584000Y-129921000D03*
X108204000Y-136906000D03*
X111633000Y-83312000D03*
X122555000Y-120523000D03*
X144399000Y-107569000D03*
X95631000Y-108712000D03*
X144526000Y-125349000D03*
X92202000Y-137541000D03*
X101854000Y-137033000D03*
X144018000Y-130302000D03*
X92710000Y-104902000D03*
X112522000Y-136906000D03*
X93853000Y-82804000D03*
X55372000Y-137668000D03*
X144526000Y-101219000D03*
X112395000Y-103505000D03*
X112014000Y-133223000D03*
X163957000Y-125349000D03*
X164211000Y-107569000D03*
X96647000Y-112014000D03*
%TO.N,/VL Bus/BE3*%
X99822000Y-128524000D03*
X83368575Y-122180500D03*
%TO.N,/VL Bus/M{slash}IO*%
X100838000Y-128778000D03*
%TO.N,/VL Bus/BE2*%
X105283000Y-128143000D03*
X85217000Y-121031000D03*
%TO.N,/VL Bus/ADS*%
X81915000Y-121793000D03*
X106172000Y-128143000D03*
%TO.N,/VL Bus/W{slash}R*%
X106045000Y-126873000D03*
%TO.N,/VL Bus/BE1*%
X87630000Y-118497500D03*
X109601000Y-129159000D03*
%TO.N,/VL Bus/BE0*%
X115443000Y-128397000D03*
X91567000Y-116205000D03*
%TO.N,/Memory Bus/RAS*%
X159639000Y-115697000D03*
X139319000Y-92583000D03*
X105918000Y-92583000D03*
X141859000Y-117595500D03*
%TO.N,/Memory Bus/CAS0*%
X138811000Y-115189000D03*
X131572000Y-112903000D03*
%TO.N,/Memory Bus/CAS1*%
X144526000Y-116459000D03*
X160528000Y-116459000D03*
%TO.N,/Memory Bus/MA4*%
X110363000Y-83312000D03*
X145161000Y-83312000D03*
X163957000Y-124079000D03*
X144145000Y-124079000D03*
X121031000Y-118999000D03*
%TO.N,/Memory Bus/MA3*%
X122174000Y-119507000D03*
X145161000Y-88265000D03*
X139573000Y-124079000D03*
X110363000Y-88265000D03*
X159512000Y-124079000D03*
%TO.N,/Memory Bus/MA5*%
X121031000Y-117983000D03*
X144145000Y-122809000D03*
X163957000Y-122809000D03*
X109093000Y-83312000D03*
X143891000Y-83312000D03*
%TO.N,/Memory Bus/MA2*%
X143891000Y-88265000D03*
X159512000Y-122809000D03*
X139573000Y-122809000D03*
X122174000Y-118491000D03*
X109093000Y-88265000D03*
%TO.N,/Memory Bus/MA6*%
X144145000Y-121539000D03*
X107823000Y-83312000D03*
X163957000Y-121539000D03*
X142621000Y-83312000D03*
X121031000Y-116967000D03*
%TO.N,/Memory Bus/MA1*%
X159512000Y-121539000D03*
X122174000Y-117475000D03*
X142621000Y-88265000D03*
X107823000Y-88265000D03*
X139573000Y-121539000D03*
%TO.N,/Memory Bus/MA7*%
X141351000Y-83312000D03*
X121031000Y-115824000D03*
X163957000Y-120269000D03*
X144145000Y-120269000D03*
X106553000Y-83312000D03*
%TO.N,/Memory Bus/MA0*%
X141351000Y-88265000D03*
X106553000Y-88265000D03*
X159512000Y-120269000D03*
X139573000Y-120269000D03*
X122174000Y-116459000D03*
%TO.N,/Memory Bus/MA8*%
X122174000Y-114681000D03*
X144145000Y-118999000D03*
X140081000Y-83312000D03*
X163957000Y-118999000D03*
X105283000Y-83312000D03*
%TO.N,/Memory Bus/PD7*%
X149606000Y-102743000D03*
X142748000Y-112649000D03*
%TO.N,/Memory Bus/PD6*%
X148971000Y-101981000D03*
X142367000Y-111379000D03*
%TO.N,/Memory Bus/PD5*%
X148209000Y-101219000D03*
X142494000Y-110109000D03*
%TO.N,/Memory Bus/PD10*%
X147955000Y-99187000D03*
X141732000Y-109474000D03*
%TO.N,/Memory Bus/PD4*%
X148082000Y-100076000D03*
X142875000Y-108839000D03*
%TO.N,/Memory Bus/PD12*%
X154940000Y-99822000D03*
X172085000Y-91694000D03*
%TO.N,/Memory Bus/PD15*%
X143764000Y-102108000D03*
X123317000Y-99949000D03*
%TO.N,/Memory Bus/OE*%
X137795000Y-78867000D03*
X144526000Y-117602000D03*
X163830000Y-117729000D03*
%TO.N,/Memory Bus/WE*%
X137668000Y-93091000D03*
X158623000Y-113792000D03*
X141097000Y-116332000D03*
%TO.N,/ISA Bus/R_A12*%
X229362000Y-124460000D03*
X218313000Y-134874000D03*
%TO.N,/ISA Bus/R_A15*%
X223012000Y-135763000D03*
X232664000Y-124587000D03*
%TO.N,/VL Bus/LCLK*%
X72898000Y-131445000D03*
X49022000Y-137668000D03*
X91440000Y-123190000D03*
%TO.N,/VL Bus/RST*%
X66802000Y-137541000D03*
%TO.N,/VL Bus/VL_A2*%
X70104000Y-137541000D03*
%TO.N,/VL Bus/VL_A3*%
X98044000Y-118745000D03*
%TO.N,/VL Bus/VL_A5*%
X97409000Y-119380000D03*
%TO.N,/VL Bus/VL_A7*%
X97155000Y-120142000D03*
%TO.N,/VL Bus/VL_A9*%
X97155000Y-121031000D03*
%TO.N,/VL Bus/VL_A11*%
X97409000Y-121920000D03*
%TO.N,/VL Bus/VL_A13*%
X98044000Y-122682000D03*
%TO.N,/VL Bus/VL_A15*%
X97282000Y-123317000D03*
%TO.N,/VL Bus/VL_A17*%
X97663000Y-124587000D03*
%TO.N,/VL Bus/VL_A19*%
X96901000Y-125222000D03*
%TO.N,/VL Bus/VL_A21*%
X96520000Y-125961500D03*
%TO.N,/VL Bus/VL_D30*%
X94361000Y-130556000D03*
%TO.N,/VL Bus/VL_D28*%
X97078000Y-129159000D03*
%TO.N,/VL Bus/VL_D26*%
X98078000Y-129159000D03*
%TO.N,/VL Bus/VL_D24*%
X99078000Y-129159000D03*
%TO.N,/VL Bus/VL_D22*%
X101578000Y-129181000D03*
%TO.N,/VL Bus/VL_D20*%
X103078000Y-129205000D03*
%TO.N,/VL Bus/VL_D18*%
X104078000Y-129221000D03*
%TO.N,/VL Bus/VL_D16*%
X105078000Y-129237000D03*
%TO.N,/VL Bus/VL_D14*%
X110617000Y-129159000D03*
%TO.N,/VL Bus/VL_D12*%
X111578000Y-129214000D03*
%TO.N,/VL Bus/VL_D10*%
X113030000Y-129159000D03*
%TO.N,/VL Bus/VL_D8*%
X114046000Y-129159000D03*
%TO.N,/VL Bus/VL_D6*%
X116078000Y-129032000D03*
%TO.N,/VL Bus/VL_D4*%
X117094000Y-129032000D03*
%TO.N,/VL Bus/VL_D2*%
X118110000Y-129032000D03*
%TO.N,/VL Bus/VL_D0*%
X118745000Y-129921000D03*
%TO.N,/VL Bus/LDEV*%
X58547000Y-136525000D03*
X108204000Y-129286000D03*
%TO.N,/VL Bus/LRDY*%
X107569000Y-128270000D03*
X59309000Y-137541000D03*
%TO.N,/VL Bus/RDYR*%
X106680000Y-128778000D03*
%TO.N,/HS*%
X99441000Y-98679000D03*
X263043385Y-111405385D03*
%TO.N,/VS*%
X265303000Y-104140000D03*
X99314000Y-100076000D03*
%TO.N,Net-(U1F-~{RAS0})*%
X139319000Y-93726000D03*
X122809000Y-114046000D03*
%TO.N,Net-(U1F-~{CAS1})*%
X122809000Y-121539000D03*
X170815000Y-130550000D03*
%TO.N,Net-(U1F-~{CAS2})*%
X131318000Y-114173000D03*
X154305000Y-117475000D03*
%TO.N,Net-(U1F-~{CAS3})*%
X155067000Y-117983000D03*
X132334000Y-114046000D03*
%TO.N,Net-(U1F-~{CAS4})*%
X157353000Y-82550000D03*
X151892000Y-129032000D03*
%TO.N,Net-(U1F-~{CAS5})*%
X155067000Y-82296000D03*
X151824271Y-128022500D03*
%TO.N,Net-(U1F-~{CAS6})*%
X151765000Y-127254000D03*
X156083000Y-82677000D03*
%TO.N,Net-(U1F-~{CAS7})*%
X151765000Y-126365000D03*
X154051000Y-82677000D03*
%TO.N,Net-(U1G-~{SRESET})*%
X70485000Y-134747000D03*
X73660000Y-130302000D03*
X90424000Y-122682000D03*
%TO.N,Net-(U1D-LD6{slash}PA6)*%
X92964000Y-117461500D03*
X90551000Y-113464500D03*
%TO.N,Net-(U1D-LD7{slash}PA7)*%
X97917000Y-113411000D03*
X91440000Y-113538000D03*
%TO.N,/EVIDEO*%
X70993000Y-92710000D03*
X99441000Y-110744000D03*
%TO.N,VCC*%
X47752000Y-137668000D03*
X122174000Y-87757000D03*
X94107000Y-137541000D03*
X96266000Y-107442000D03*
X69088000Y-137414000D03*
X70739000Y-88265000D03*
X78867000Y-137668000D03*
X122174000Y-124968000D03*
X242697000Y-119380000D03*
X87503000Y-88265000D03*
X139319000Y-125349000D03*
X122555000Y-107950000D03*
X151384000Y-81153000D03*
X85979000Y-137668000D03*
X96266000Y-104521000D03*
X92075000Y-121666000D03*
X56515000Y-105791000D03*
X96393000Y-109728000D03*
X104394000Y-137541000D03*
X159512000Y-125349000D03*
X86487000Y-107442000D03*
X191135000Y-135636000D03*
X128651000Y-87757000D03*
X140081000Y-130302000D03*
X255016000Y-136144000D03*
X139319000Y-107569000D03*
X114935000Y-129159000D03*
X93853000Y-88265000D03*
X159131000Y-107569000D03*
X139319000Y-101219000D03*
X122682000Y-115316000D03*
X52832000Y-137668000D03*
X159131000Y-101219000D03*
X65405000Y-97409000D03*
X109347000Y-137668000D03*
X106172000Y-100203000D03*
X111887000Y-87757000D03*
X146431000Y-88646000D03*
X102235000Y-129921000D03*
%TO.N,/EVCLK*%
X100330000Y-109982000D03*
X58420000Y-102870000D03*
%TO.N,/LCLK*%
X58420000Y-100457000D03*
X100584000Y-99822000D03*
%TO.N,/VL Bus/SINTR*%
X98598500Y-99568000D03*
%TO.N,/ISA Bus/ROMCS*%
X246126000Y-129921000D03*
X98679000Y-103505000D03*
%TO.N,/BLANK*%
X101219000Y-111887000D03*
X89789000Y-114808000D03*
%TO.N,/ISA Bus/SMEMR*%
X256921000Y-133223000D03*
%TO.N,/ESYNC*%
X101219000Y-110363000D03*
X66929000Y-94615000D03*
%TD*%
D35*
%TO.N,GND*%
X162835500Y-126470500D02*
X162835500Y-132080000D01*
D36*
X100597000Y-129934000D02*
X100584000Y-129921000D01*
D35*
X163957000Y-125349000D02*
X162835500Y-126470500D01*
X258064000Y-120904000D02*
X258064000Y-129794000D01*
X175752000Y-99822000D02*
X175752000Y-101854000D01*
X258482500Y-97768500D02*
X258445000Y-97806000D01*
X86614000Y-109093000D02*
X87900000Y-109093000D01*
D36*
X96139000Y-106426000D02*
X95602000Y-106963000D01*
X112395000Y-103505000D02*
X113097000Y-102803000D01*
D37*
X273559669Y-102260000D02*
X265455000Y-102260000D01*
D35*
X85471000Y-105664000D02*
X85471000Y-107950000D01*
X175752000Y-107950000D02*
X175752000Y-109982000D01*
D37*
X266678500Y-106299000D02*
X266678500Y-108807000D01*
D35*
X89690000Y-142300000D02*
X89690000Y-137569000D01*
X98580000Y-138042500D02*
X98078500Y-137541000D01*
D36*
X111597000Y-101750500D02*
X111597000Y-102707000D01*
D35*
X238252000Y-136271000D02*
X241659500Y-132863500D01*
X268224000Y-97790000D02*
X268202500Y-97768500D01*
X255303500Y-119761000D02*
X256921000Y-119761000D01*
D37*
X262382000Y-105664000D02*
X263017000Y-106299000D01*
D35*
X175752000Y-105918000D02*
X175752000Y-107950000D01*
X175752000Y-118110000D02*
X175752000Y-120269000D01*
X130667000Y-107442000D02*
X132461000Y-107442000D01*
X266446000Y-93577500D02*
X268075500Y-93577500D01*
X175752000Y-116078000D02*
X175752000Y-118110000D01*
D36*
X117602000Y-101755500D02*
X117597000Y-101750500D01*
D35*
X175752000Y-90043000D02*
X175752000Y-95758000D01*
X175752000Y-120269000D02*
X175752000Y-122428000D01*
X146558000Y-125349000D02*
X144526000Y-125349000D01*
X146431000Y-79629000D02*
X146960500Y-79099500D01*
D36*
X112097000Y-133140000D02*
X112014000Y-133223000D01*
D35*
X75720000Y-142300000D02*
X75720000Y-138021000D01*
D36*
X92771000Y-104963000D02*
X92710000Y-104902000D01*
D35*
X175752000Y-103886000D02*
X175752000Y-105918000D01*
D36*
X124309500Y-112463000D02*
X122614000Y-112463000D01*
X95380000Y-108963000D02*
X94384500Y-108963000D01*
D35*
X87735500Y-105156000D02*
X87862500Y-105029000D01*
D37*
X266678500Y-108807000D02*
X266710500Y-108839000D01*
D35*
X146960500Y-79099500D02*
X153289000Y-79099500D01*
X175752000Y-112014000D02*
X175752000Y-114046000D01*
D37*
X263779000Y-102235000D02*
X262382000Y-103632000D01*
D35*
X144018000Y-131332500D02*
X143150500Y-132200000D01*
X122301000Y-82931000D02*
X122301000Y-81100000D01*
X175752000Y-109982000D02*
X175752000Y-112014000D01*
X266446000Y-97768500D02*
X258482500Y-97768500D01*
X268075500Y-93577500D02*
X268097000Y-93599000D01*
D36*
X94384500Y-104963000D02*
X92771000Y-104963000D01*
D35*
X166372000Y-125349000D02*
X163957000Y-125349000D01*
D36*
X124288500Y-125984000D02*
X124309500Y-125963000D01*
D35*
X107470000Y-137640000D02*
X107470000Y-142300000D01*
X98580000Y-142300000D02*
X98580000Y-138042500D01*
X129810000Y-101473000D02*
X129937000Y-101600000D01*
X256159000Y-89513500D02*
X258407500Y-89513500D01*
D37*
X265455000Y-102260000D02*
X265430000Y-102235000D01*
D35*
X261366000Y-133096000D02*
X261366000Y-136525000D01*
D36*
X107097000Y-102580000D02*
X106426000Y-103251000D01*
D35*
X128651000Y-83058000D02*
X128651000Y-81100000D01*
D36*
X112097000Y-131675500D02*
X112097000Y-133140000D01*
D35*
X256196500Y-97806000D02*
X256159000Y-97768500D01*
D36*
X124249500Y-120523000D02*
X124309500Y-120463000D01*
D35*
X111633000Y-83312000D02*
X111633000Y-81100000D01*
X57150000Y-135890000D02*
X60557500Y-132482500D01*
X108204000Y-136906000D02*
X107470000Y-137640000D01*
D37*
X262382000Y-103632000D02*
X262382000Y-105664000D01*
D35*
X175752000Y-114046000D02*
X175752000Y-116078000D01*
X268202500Y-97768500D02*
X266446000Y-97768500D01*
D36*
X107095500Y-129667000D02*
X107097000Y-129668500D01*
D35*
X273098169Y-89513500D02*
X275539669Y-91955000D01*
X164338000Y-101219000D02*
X166372000Y-101219000D01*
D36*
X111597000Y-102707000D02*
X112395000Y-103505000D01*
D35*
X258064000Y-129794000D02*
X261366000Y-133096000D01*
D37*
X265430000Y-102235000D02*
X263779000Y-102235000D01*
D35*
X175752000Y-95758000D02*
X175752000Y-97790000D01*
X65560000Y-137696000D02*
X65532000Y-137668000D01*
D36*
X92429000Y-122963000D02*
X94384500Y-122963000D01*
X119634000Y-131638500D02*
X119597000Y-131675500D01*
D35*
X266446000Y-89513500D02*
X273098169Y-89513500D01*
D36*
X96596000Y-111963000D02*
X94384500Y-111963000D01*
X92329000Y-123063000D02*
X92429000Y-122963000D01*
D35*
X258445000Y-93599000D02*
X266424500Y-93599000D01*
X146558000Y-101219000D02*
X144526000Y-101219000D01*
D36*
X93136000Y-105963000D02*
X92710000Y-105537000D01*
D35*
X256921000Y-119761000D02*
X258064000Y-120904000D01*
D36*
X122614000Y-112463000D02*
X122555000Y-112522000D01*
D35*
X258445000Y-89551000D02*
X266408500Y-89551000D01*
X241659500Y-132863500D02*
X244348000Y-132863500D01*
X82528500Y-81385500D02*
X80391000Y-81385500D01*
D37*
X263017000Y-106299000D02*
X266678500Y-106299000D01*
D35*
X57150000Y-137541000D02*
X57150000Y-135890000D01*
X116370000Y-138138000D02*
X116967000Y-137541000D01*
X87503000Y-82931000D02*
X84074000Y-82931000D01*
X116370000Y-142300000D02*
X116370000Y-138138000D01*
D36*
X119634000Y-129921000D02*
X119634000Y-131638500D01*
D35*
X266467500Y-93472000D02*
X266446000Y-93450500D01*
D36*
X117602000Y-103378000D02*
X117602000Y-101755500D01*
D35*
X55400000Y-137696000D02*
X55372000Y-137668000D01*
D36*
X96647000Y-112014000D02*
X96596000Y-111963000D01*
D35*
X55400000Y-142300000D02*
X55400000Y-137696000D01*
X146558000Y-107569000D02*
X144399000Y-107569000D01*
X128397000Y-101473000D02*
X129810000Y-101473000D01*
D36*
X122555000Y-120523000D02*
X124249500Y-120523000D01*
D35*
X258407500Y-89513500D02*
X258445000Y-89551000D01*
D36*
X266297500Y-93599000D02*
X266446000Y-93450500D01*
D35*
X266424500Y-93599000D02*
X266446000Y-93577500D01*
D36*
X94384500Y-105963000D02*
X93136000Y-105963000D01*
X122682000Y-125984000D02*
X124288500Y-125984000D01*
D35*
X75720000Y-138021000D02*
X76327000Y-137414000D01*
X258445000Y-97806000D02*
X256196500Y-97806000D01*
X256159000Y-93561500D02*
X258407500Y-93561500D01*
X85979000Y-105156000D02*
X85471000Y-105664000D01*
X85979000Y-105156000D02*
X87735500Y-105156000D01*
X144018000Y-130302000D02*
X144018000Y-131332500D01*
D36*
X107097000Y-129668500D02*
X107097000Y-131675500D01*
X106426000Y-103251000D02*
X102108000Y-103251000D01*
X113097000Y-102803000D02*
X113097000Y-101750500D01*
D35*
X258407500Y-93561500D02*
X258445000Y-93599000D01*
X65560000Y-142300000D02*
X65560000Y-137696000D01*
X166372000Y-107569000D02*
X164211000Y-107569000D01*
D36*
X95631000Y-108712000D02*
X95380000Y-108963000D01*
D35*
X84074000Y-82931000D02*
X82528500Y-81385500D01*
D36*
X95602000Y-106963000D02*
X94384500Y-106963000D01*
X92710000Y-105537000D02*
X92710000Y-104902000D01*
X122809000Y-106426000D02*
X124272500Y-106426000D01*
X100597000Y-131675500D02*
X100597000Y-129934000D01*
D35*
X175752000Y-101854000D02*
X175752000Y-103886000D01*
D36*
X124272500Y-106426000D02*
X124309500Y-106463000D01*
X102108000Y-101761500D02*
X102097000Y-101750500D01*
D35*
X93853000Y-82804000D02*
X93853000Y-81100000D01*
X60557500Y-132482500D02*
X62738000Y-132482500D01*
X87503000Y-82931000D02*
X87503000Y-81100000D01*
D36*
X107097000Y-101750500D02*
X107097000Y-102580000D01*
D35*
X87900000Y-109093000D02*
X87900000Y-111125000D01*
D36*
X102108000Y-103251000D02*
X102108000Y-101761500D01*
D35*
X175752000Y-97790000D02*
X175752000Y-99822000D01*
X89690000Y-137569000D02*
X89662000Y-137541000D01*
X85471000Y-107950000D02*
X86614000Y-109093000D01*
X146431000Y-83185000D02*
X146431000Y-81100000D01*
X146431000Y-81100000D02*
X146431000Y-79629000D01*
D38*
%TO.N,/VL Bus/BE3*%
X83368575Y-122244425D02*
X72136000Y-133477000D01*
X72136000Y-133477000D02*
X65786000Y-133477000D01*
X65786000Y-133477000D02*
X64290000Y-134973000D01*
X64290000Y-134973000D02*
X64290000Y-142300000D01*
X99597000Y-128749000D02*
X99822000Y-128524000D01*
X83368575Y-122180500D02*
X83368575Y-122244425D01*
X99597000Y-131675500D02*
X99597000Y-128749000D01*
%TO.N,/VL Bus/M{slash}IO*%
X100082000Y-131660500D02*
X100082000Y-129534000D01*
X100097000Y-131675500D02*
X100082000Y-131660500D01*
X100082000Y-129534000D02*
X100838000Y-128778000D01*
%TO.N,/VL Bus/BE2*%
X69873000Y-136375000D02*
X68677936Y-136375000D01*
X105597000Y-128457000D02*
X105283000Y-128143000D01*
X83870575Y-122377425D02*
X83870575Y-122388436D01*
X66830000Y-138222936D02*
X66830000Y-142300000D01*
X68677936Y-136375000D02*
X66830000Y-138222936D01*
X83870575Y-122388436D02*
X83576511Y-122682500D01*
X85217000Y-121031000D02*
X83870575Y-122377425D01*
X83565500Y-122682500D02*
X69873000Y-136375000D01*
X105597000Y-131675500D02*
X105597000Y-128457000D01*
X83576511Y-122682500D02*
X83565500Y-122682500D01*
%TO.N,/VL Bus/ADS*%
X81915000Y-121793000D02*
X81915000Y-123190000D01*
X106097000Y-128218000D02*
X106172000Y-128143000D01*
X63020000Y-135481000D02*
X63020000Y-142300000D01*
X72771000Y-132334000D02*
X66167000Y-132334000D01*
X81915000Y-123190000D02*
X72771000Y-132334000D01*
X66167000Y-132334000D02*
X63020000Y-135481000D01*
X106097000Y-131675500D02*
X106097000Y-128218000D01*
%TO.N,/VL Bus/W{slash}R*%
X106045000Y-126873000D02*
X106881936Y-126873000D01*
X109097000Y-129088064D02*
X109097000Y-131675500D01*
X106881936Y-126873000D02*
X109097000Y-129088064D01*
%TO.N,/VL Bus/BE1*%
X109601000Y-129159000D02*
X109601000Y-131671500D01*
X68886064Y-136652000D02*
X68100000Y-137438064D01*
X68100000Y-137438064D02*
X68100000Y-142300000D01*
X109601000Y-131671500D02*
X109597000Y-131675500D01*
X87630000Y-118497500D02*
X87630000Y-119327936D01*
X87630000Y-119327936D02*
X70305936Y-136652000D01*
X70305936Y-136652000D02*
X68886064Y-136652000D01*
%TO.N,/VL Bus/BE0*%
X91567000Y-116205000D02*
X91567000Y-116586000D01*
X115443000Y-129667000D02*
X115443000Y-128397000D01*
X70640000Y-137513000D02*
X70640000Y-142300000D01*
X115097000Y-130013000D02*
X115443000Y-129667000D01*
X91567000Y-116586000D02*
X70640000Y-137513000D01*
X115097000Y-131675500D02*
X115097000Y-130013000D01*
%TO.N,/Memory Bus/RAS*%
X156972000Y-117729000D02*
X158369000Y-117729000D01*
X141725500Y-117729000D02*
X137158000Y-117729000D01*
X141859000Y-117595500D02*
X141725500Y-117729000D01*
X159385000Y-81137000D02*
X159385000Y-84317262D01*
X104013000Y-91694000D02*
X104902000Y-92583000D01*
X139319000Y-92583000D02*
X138811000Y-92075000D01*
X104902000Y-92583000D02*
X105918000Y-92583000D01*
X138811000Y-92075000D02*
X138811000Y-90500000D01*
X159639000Y-116459000D02*
X159639000Y-115697000D01*
X151119262Y-92583000D02*
X139319000Y-92583000D01*
X158369000Y-117729000D02*
X159639000Y-116459000D01*
X104013000Y-90500000D02*
X104013000Y-91694000D01*
X159385000Y-84317262D02*
X151119262Y-92583000D01*
%TO.N,/Memory Bus/CAS0*%
X131318000Y-113157000D02*
X131572000Y-112903000D01*
X129905000Y-113157000D02*
X131318000Y-113157000D01*
X146558000Y-115189000D02*
X138811000Y-115189000D01*
%TO.N,/Memory Bus/CAS1*%
X168529000Y-118110000D02*
X168529000Y-122809000D01*
X167513000Y-117094000D02*
X168529000Y-118110000D01*
X146558000Y-116459000D02*
X144526000Y-116459000D01*
X161163000Y-117094000D02*
X167513000Y-117094000D01*
X168529000Y-122809000D02*
X172720000Y-127000000D01*
X172720000Y-127000000D02*
X172720000Y-128159000D01*
X160528000Y-116459000D02*
X161163000Y-117094000D01*
%TO.N,/Memory Bus/CAS2*%
X176022000Y-127508000D02*
X169545000Y-121031000D01*
X169545000Y-121031000D02*
X169545000Y-117348000D01*
X177038000Y-130159000D02*
X176022000Y-129143000D01*
X176022000Y-129143000D02*
X176022000Y-127508000D01*
X167386000Y-115189000D02*
X166372000Y-115189000D01*
X169545000Y-117348000D02*
X167386000Y-115189000D01*
%TO.N,/Memory Bus/CAS3*%
X169037000Y-117729000D02*
X169037000Y-121539000D01*
X166372000Y-116459000D02*
X167767000Y-116459000D01*
X174879000Y-127381000D02*
X174879000Y-128159000D01*
X167767000Y-116459000D02*
X169037000Y-117729000D01*
X169037000Y-121539000D02*
X174879000Y-127381000D01*
%TO.N,/Memory Bus/CAS4*%
X157353000Y-79137000D02*
X155391000Y-77175000D01*
X155391000Y-77175000D02*
X103673000Y-77175000D01*
X101473000Y-79375000D02*
X101473000Y-81100000D01*
X103673000Y-77175000D02*
X101473000Y-79375000D01*
%TO.N,/Memory Bus/CAS5*%
X102743000Y-79375000D02*
X102743000Y-81100000D01*
X155321000Y-79137000D02*
X153654000Y-77470000D01*
X153654000Y-77470000D02*
X104648000Y-77470000D01*
X104648000Y-77470000D02*
X102743000Y-79375000D01*
%TO.N,/Memory Bus/CAS6*%
X141224000Y-87122000D02*
X154924000Y-87122000D01*
X136271000Y-82169000D02*
X141224000Y-87122000D01*
X154924000Y-87122000D02*
X156083000Y-85963000D01*
X136271000Y-81100000D02*
X136271000Y-82169000D01*
%TO.N,/Memory Bus/CAS7*%
X137541000Y-81100000D02*
X137541000Y-82169000D01*
X141462000Y-86090000D02*
X153924000Y-86090000D01*
X153924000Y-86090000D02*
X154051000Y-85963000D01*
X137541000Y-82169000D02*
X141462000Y-86090000D01*
%TO.N,/Memory Bus/PD23*%
X155448000Y-112649000D02*
X156972000Y-112649000D01*
X128016000Y-127635000D02*
X149606000Y-127635000D01*
X124309500Y-129463000D02*
X126188000Y-129463000D01*
X153670000Y-123571000D02*
X153670000Y-114427000D01*
X149606000Y-127635000D02*
X153670000Y-123571000D01*
X153670000Y-114427000D02*
X155448000Y-112649000D01*
X126188000Y-129463000D02*
X128016000Y-127635000D01*
%TO.N,/Memory Bus/PD24*%
X126180000Y-128963000D02*
X127785000Y-127358000D01*
X127785000Y-127358000D02*
X149375000Y-127358000D01*
X154305000Y-112014000D02*
X162814000Y-112014000D01*
X153139000Y-123594000D02*
X153139000Y-113180000D01*
X124309500Y-128963000D02*
X126180000Y-128963000D01*
X149375000Y-127358000D02*
X153139000Y-123594000D01*
X163449000Y-112649000D02*
X166372000Y-112649000D01*
X153139000Y-113180000D02*
X154305000Y-112014000D01*
X162814000Y-112014000D02*
X163449000Y-112649000D01*
%TO.N,/Memory Bus/PD22*%
X149098000Y-127000000D02*
X152781000Y-123317000D01*
X127635000Y-127000000D02*
X149098000Y-127000000D01*
X154178000Y-111379000D02*
X156972000Y-111379000D01*
X152781000Y-112776000D02*
X154178000Y-111379000D01*
X126172000Y-128463000D02*
X127635000Y-127000000D01*
X124309500Y-128463000D02*
X126172000Y-128463000D01*
X152781000Y-123317000D02*
X152781000Y-112776000D01*
%TO.N,/Memory Bus/PD25*%
X152400000Y-112268000D02*
X153924000Y-110744000D01*
X152400000Y-123190000D02*
X152400000Y-112268000D01*
X124309500Y-127963000D02*
X126164000Y-127963000D01*
X153924000Y-110744000D02*
X162941000Y-110744000D01*
X126164000Y-127963000D02*
X127404000Y-126723000D01*
X170434000Y-119110000D02*
X170434000Y-116586000D01*
X148867000Y-126723000D02*
X152400000Y-123190000D01*
X173752000Y-122428000D02*
X170434000Y-119110000D01*
X167894000Y-111760000D02*
X167513000Y-111379000D01*
X162941000Y-110744000D02*
X163576000Y-111379000D01*
X167894000Y-114046000D02*
X167894000Y-111760000D01*
X167513000Y-111379000D02*
X166372000Y-111379000D01*
X127404000Y-126723000D02*
X148867000Y-126723000D01*
X163576000Y-111379000D02*
X166372000Y-111379000D01*
X170434000Y-116586000D02*
X167894000Y-114046000D01*
%TO.N,/Memory Bus/PD21*%
X148717000Y-126365000D02*
X152019000Y-123063000D01*
X124309500Y-127463000D02*
X126156000Y-127463000D01*
X152019000Y-111887000D02*
X153797000Y-110109000D01*
X126156000Y-127463000D02*
X127254000Y-126365000D01*
X152019000Y-123063000D02*
X152019000Y-111887000D01*
X153797000Y-110109000D02*
X156972000Y-110109000D01*
X127254000Y-126365000D02*
X148717000Y-126365000D01*
%TO.N,/Memory Bus/PD26*%
X151638000Y-122682000D02*
X151638000Y-111633000D01*
X151638000Y-111633000D02*
X153797000Y-109474000D01*
X153797000Y-109474000D02*
X163195000Y-109474000D01*
X173752000Y-120269000D02*
X170815000Y-117332000D01*
X163195000Y-109474000D02*
X163830000Y-110109000D01*
X170815000Y-116205000D02*
X168275000Y-113665000D01*
X168275000Y-110871000D02*
X167513000Y-110109000D01*
X135890000Y-125857000D02*
X135896000Y-125851000D01*
X126148000Y-126963000D02*
X127254000Y-125857000D01*
X170815000Y-117332000D02*
X170815000Y-116205000D01*
X148469000Y-125851000D02*
X151638000Y-122682000D01*
X167513000Y-110109000D02*
X166372000Y-110109000D01*
X127254000Y-125857000D02*
X135890000Y-125857000D01*
X163830000Y-110109000D02*
X166372000Y-110109000D01*
X168275000Y-113665000D02*
X168275000Y-110871000D01*
X135896000Y-125851000D02*
X148469000Y-125851000D01*
X124309500Y-126963000D02*
X126148000Y-126963000D01*
%TO.N,/Memory Bus/PD20*%
X126140000Y-126463000D02*
X127762000Y-124841000D01*
X151257000Y-109347000D02*
X151765000Y-108839000D01*
X151765000Y-108839000D02*
X156972000Y-108839000D01*
X127762000Y-124841000D02*
X147955000Y-124841000D01*
X124309500Y-126463000D02*
X126140000Y-126463000D01*
X147955000Y-124841000D02*
X151257000Y-121539000D01*
X151257000Y-121539000D02*
X151257000Y-109347000D01*
%TO.N,/Memory Bus/PD27*%
X164465000Y-108839000D02*
X166372000Y-108839000D01*
X168656000Y-109982000D02*
X168656000Y-113276000D01*
X150876000Y-109093000D02*
X153035000Y-106934000D01*
X147828000Y-123444000D02*
X150876000Y-120396000D01*
X168656000Y-113276000D02*
X173490000Y-118110000D01*
X124309500Y-125463000D02*
X126505000Y-125463000D01*
X150876000Y-120396000D02*
X150876000Y-109093000D01*
X128524000Y-123444000D02*
X147828000Y-123444000D01*
X167513000Y-108839000D02*
X168656000Y-109982000D01*
X166372000Y-108839000D02*
X167513000Y-108839000D01*
X153035000Y-106934000D02*
X162560000Y-106934000D01*
X173490000Y-118110000D02*
X173752000Y-118110000D01*
X162560000Y-106934000D02*
X164465000Y-108839000D01*
X126505000Y-125463000D02*
X128524000Y-123444000D01*
%TO.N,/Memory Bus/PD19*%
X169164000Y-112776000D02*
X172466000Y-116078000D01*
X148209000Y-122174000D02*
X150495000Y-119888000D01*
X126362000Y-124463000D02*
X128651000Y-122174000D01*
X150495000Y-119888000D02*
X150495000Y-108839000D01*
X163322000Y-106934000D02*
X167513000Y-106934000D01*
X128651000Y-122174000D02*
X148209000Y-122174000D01*
X156972000Y-106299000D02*
X162687000Y-106299000D01*
X162687000Y-106299000D02*
X163322000Y-106934000D01*
X172466000Y-116078000D02*
X173752000Y-116078000D01*
X169164000Y-108585000D02*
X169164000Y-112776000D01*
X150495000Y-108839000D02*
X153035000Y-106299000D01*
X167513000Y-106934000D02*
X169164000Y-108585000D01*
X153035000Y-106299000D02*
X156972000Y-106299000D01*
X124309500Y-124463000D02*
X126362000Y-124463000D01*
%TO.N,/Memory Bus/PD28*%
X124309500Y-123963000D02*
X126354000Y-123963000D01*
X150114000Y-118618000D02*
X150114000Y-108712000D01*
X167513000Y-106299000D02*
X169672000Y-108458000D01*
X126354000Y-123963000D02*
X129413000Y-120904000D01*
X169672000Y-112268000D02*
X171450000Y-114046000D01*
X162814000Y-105664000D02*
X163449000Y-106299000D01*
X169672000Y-108458000D02*
X169672000Y-112268000D01*
X171450000Y-114046000D02*
X173752000Y-114046000D01*
X166372000Y-106299000D02*
X167513000Y-106299000D01*
X147828000Y-120904000D02*
X150114000Y-118618000D01*
X129413000Y-120904000D02*
X147828000Y-120904000D01*
X150114000Y-108712000D02*
X153162000Y-105664000D01*
X163449000Y-106299000D02*
X166372000Y-106299000D01*
X153162000Y-105664000D02*
X162814000Y-105664000D01*
%TO.N,/Memory Bus/PD18*%
X156972000Y-105029000D02*
X162941000Y-105029000D01*
X153289000Y-105029000D02*
X156972000Y-105029000D01*
X170053000Y-108204000D02*
X170053000Y-109982000D01*
X149733000Y-108585000D02*
X153289000Y-105029000D01*
X124309500Y-123463000D02*
X126346000Y-123463000D01*
X130175000Y-119634000D02*
X147701000Y-119634000D01*
X163576000Y-105664000D02*
X167513000Y-105664000D01*
X147701000Y-119634000D02*
X149733000Y-117602000D01*
X170053000Y-109982000D02*
X172085000Y-112014000D01*
X149733000Y-117602000D02*
X149733000Y-108585000D01*
X126346000Y-123463000D02*
X130175000Y-119634000D01*
X167513000Y-105664000D02*
X170053000Y-108204000D01*
X172085000Y-112014000D02*
X173752000Y-112014000D01*
X162941000Y-105029000D02*
X163576000Y-105664000D01*
%TO.N,/Memory Bus/PD29*%
X163068000Y-104394000D02*
X163703000Y-105029000D01*
X149352000Y-108458000D02*
X153416000Y-104394000D01*
X130937000Y-118364000D02*
X147270803Y-118364000D01*
X153416000Y-104394000D02*
X163068000Y-104394000D01*
X124309500Y-122963000D02*
X126338000Y-122963000D01*
X126338000Y-122963000D02*
X130937000Y-118364000D01*
X163703000Y-105029000D02*
X166372000Y-105029000D01*
X149352000Y-116282803D02*
X149352000Y-108458000D01*
X147270803Y-118364000D02*
X149352000Y-116282803D01*
%TO.N,/Memory Bus/PD17*%
X163703000Y-104394000D02*
X167513000Y-104394000D01*
X147701000Y-117094000D02*
X131709738Y-117094000D01*
X148971000Y-115824000D02*
X147701000Y-117094000D01*
X131709738Y-117094000D02*
X126340738Y-122463000D01*
X148971000Y-108331000D02*
X148971000Y-115824000D01*
X163068000Y-103759000D02*
X163703000Y-104394000D01*
X156972000Y-103759000D02*
X153543000Y-103759000D01*
X170434000Y-108966000D02*
X171450000Y-109982000D01*
X167513000Y-104394000D02*
X170434000Y-107315000D01*
X156972000Y-103759000D02*
X163068000Y-103759000D01*
X171450000Y-109982000D02*
X173752000Y-109982000D01*
X153543000Y-103759000D02*
X148971000Y-108331000D01*
X126340738Y-122463000D02*
X124309500Y-122463000D01*
X170434000Y-107315000D02*
X170434000Y-108966000D01*
%TO.N,/Memory Bus/PD30*%
X153670000Y-103124000D02*
X163195000Y-103124000D01*
X126390869Y-121963000D02*
X132529869Y-115824000D01*
X163830000Y-103759000D02*
X166372000Y-103759000D01*
X132529869Y-115824000D02*
X147701000Y-115824000D01*
X148613000Y-108181000D02*
X153670000Y-103124000D01*
X163195000Y-103124000D02*
X163830000Y-103759000D01*
X148613000Y-114912000D02*
X148613000Y-108181000D01*
X147701000Y-115824000D02*
X148613000Y-114912000D01*
X124309500Y-121963000D02*
X126390869Y-121963000D01*
%TO.N,/Memory Bus/PD16*%
X148336000Y-107950000D02*
X153797000Y-102489000D01*
X163830000Y-103124000D02*
X167386000Y-103124000D01*
X126441000Y-121463000D02*
X133477000Y-114427000D01*
X124309500Y-121463000D02*
X126441000Y-121463000D01*
X133477000Y-114427000D02*
X147397803Y-114427000D01*
X156972000Y-102489000D02*
X163195000Y-102489000D01*
X147397803Y-114427000D02*
X148336000Y-113488803D01*
X153797000Y-102489000D02*
X156972000Y-102489000D01*
X163195000Y-102489000D02*
X163830000Y-103124000D01*
X167386000Y-103124000D02*
X172212000Y-107950000D01*
X172212000Y-107950000D02*
X173752000Y-107950000D01*
X148336000Y-113488803D02*
X148336000Y-107950000D01*
%TO.N,/Memory Bus/PD31*%
X134112000Y-113284000D02*
X147447000Y-113284000D01*
X124309500Y-120963000D02*
X126433000Y-120963000D01*
X147955000Y-112776000D02*
X147955000Y-107823000D01*
X147447000Y-113284000D02*
X147955000Y-112776000D01*
X164084000Y-102489000D02*
X166372000Y-102489000D01*
X153924000Y-101854000D02*
X163449000Y-101854000D01*
X163449000Y-101854000D02*
X164084000Y-102489000D01*
X126433000Y-120963000D02*
X134112000Y-113284000D01*
X147955000Y-107823000D02*
X153924000Y-101854000D01*
%TO.N,/Memory Bus/MA4*%
X145161000Y-83312000D02*
X145161000Y-81100000D01*
X124263500Y-120009000D02*
X121787000Y-120009000D01*
X124309500Y-119963000D02*
X124263500Y-120009000D01*
X110363000Y-83312000D02*
X110363000Y-81100000D01*
X144145000Y-124079000D02*
X146558000Y-124079000D01*
X163957000Y-124079000D02*
X166372000Y-124079000D01*
X121031000Y-119253000D02*
X121031000Y-118999000D01*
X121787000Y-120009000D02*
X121031000Y-119253000D01*
%TO.N,/Memory Bus/MA3*%
X145161000Y-88265000D02*
X145161000Y-90500000D01*
X122218000Y-119463000D02*
X122174000Y-119507000D01*
X124309500Y-119463000D02*
X122218000Y-119463000D01*
X110363000Y-88265000D02*
X110363000Y-90500000D01*
X159512000Y-124079000D02*
X156972000Y-124079000D01*
X139573000Y-124079000D02*
X137158000Y-124079000D01*
%TO.N,/Memory Bus/MA5*%
X144145000Y-122809000D02*
X146558000Y-122809000D01*
X166372000Y-122809000D02*
X163957000Y-122809000D01*
X121972064Y-118999000D02*
X124273500Y-118999000D01*
X121031000Y-117983000D02*
X121031000Y-118057936D01*
X109093000Y-83312000D02*
X109093000Y-81100000D01*
X121031000Y-118057936D02*
X121972064Y-118999000D01*
X143891000Y-83312000D02*
X143891000Y-81100000D01*
X124273500Y-118999000D02*
X124309500Y-118963000D01*
%TO.N,/Memory Bus/MA2*%
X109093000Y-88265000D02*
X109093000Y-90500000D01*
X122202000Y-118463000D02*
X122174000Y-118491000D01*
X159512000Y-122809000D02*
X156972000Y-122809000D01*
X143891000Y-88265000D02*
X143891000Y-90500000D01*
X139573000Y-122809000D02*
X137158000Y-122809000D01*
X124309500Y-118463000D02*
X122202000Y-118463000D01*
%TO.N,/Memory Bus/MA6*%
X146558000Y-121539000D02*
X144145000Y-121539000D01*
X121031000Y-116967000D02*
X121031000Y-117041936D01*
X121031000Y-117041936D02*
X121972064Y-117983000D01*
X124289500Y-117983000D02*
X124309500Y-117963000D01*
X142621000Y-81100000D02*
X142621000Y-83312000D01*
X107823000Y-83312000D02*
X107823000Y-81100000D01*
X163957000Y-121539000D02*
X166372000Y-121539000D01*
X121972064Y-117983000D02*
X124289500Y-117983000D01*
%TO.N,/Memory Bus/MA1*%
X122186000Y-117463000D02*
X122174000Y-117475000D01*
X142621000Y-88265000D02*
X142621000Y-90500000D01*
X139573000Y-121539000D02*
X137158000Y-121539000D01*
X159512000Y-121539000D02*
X156972000Y-121539000D01*
X124309500Y-117463000D02*
X122186000Y-117463000D01*
X107823000Y-88265000D02*
X107823000Y-90500000D01*
%TO.N,/Memory Bus/MA7*%
X121031000Y-116025936D02*
X121968064Y-116963000D01*
X141351000Y-83312000D02*
X141351000Y-81100000D01*
X144145000Y-120269000D02*
X146558000Y-120269000D01*
X166372000Y-120269000D02*
X163957000Y-120269000D01*
X121968064Y-116963000D02*
X124309500Y-116963000D01*
X121031000Y-115824000D02*
X121031000Y-116025936D01*
X106553000Y-83312000D02*
X106553000Y-81100000D01*
%TO.N,/Memory Bus/MA0*%
X141351000Y-88265000D02*
X141351000Y-90500000D01*
X124305500Y-116459000D02*
X124309500Y-116463000D01*
X106553000Y-88265000D02*
X106553000Y-90500000D01*
X159512000Y-120269000D02*
X156972000Y-120269000D01*
X122174000Y-116459000D02*
X124305500Y-116459000D01*
X139573000Y-120269000D02*
X137158000Y-120269000D01*
%TO.N,/Memory Bus/MA8*%
X122428000Y-115951000D02*
X124297500Y-115951000D01*
X122174000Y-114681000D02*
X122174000Y-115697000D01*
X146558000Y-118999000D02*
X144145000Y-118999000D01*
X122174000Y-115697000D02*
X122428000Y-115951000D01*
X124297500Y-115951000D02*
X124309500Y-115963000D01*
X105283000Y-83312000D02*
X105283000Y-81100000D01*
X163957000Y-118999000D02*
X166372000Y-118999000D01*
X140081000Y-81100000D02*
X140081000Y-83312000D01*
%TO.N,/Memory Bus/PD7*%
X166370000Y-98679000D02*
X169545000Y-101854000D01*
X154559000Y-98679000D02*
X166370000Y-98679000D01*
X133172000Y-111963000D02*
X133858000Y-112649000D01*
X133858000Y-112649000D02*
X137158000Y-112649000D01*
X169545000Y-101854000D02*
X173752000Y-101854000D01*
X149606000Y-102743000D02*
X150495000Y-102743000D01*
X124309500Y-111963000D02*
X133172000Y-111963000D01*
X150495000Y-102743000D02*
X154559000Y-98679000D01*
X137158000Y-112649000D02*
X142748000Y-112649000D01*
%TO.N,/Memory Bus/PD8*%
X124309500Y-111463000D02*
X133423263Y-111463000D01*
X133423263Y-111463000D02*
X133720263Y-111760000D01*
X133985000Y-112014000D02*
X143383000Y-112014000D01*
X133731000Y-111760000D02*
X133985000Y-112014000D01*
X143383000Y-112014000D02*
X144018000Y-112649000D01*
X144018000Y-112649000D02*
X146558000Y-112649000D01*
X133720263Y-111760000D02*
X133731000Y-111760000D01*
%TO.N,/Memory Bus/PD6*%
X154283524Y-98298000D02*
X166751000Y-98298000D01*
X148971000Y-101981000D02*
X150600524Y-101981000D01*
X166751000Y-98298000D02*
X168275000Y-99822000D01*
X133315000Y-110963000D02*
X133731000Y-111379000D01*
X133731000Y-111379000D02*
X137158000Y-111379000D01*
X150600524Y-101981000D02*
X154283524Y-98298000D01*
X124309500Y-110963000D02*
X133315000Y-110963000D01*
X168275000Y-99822000D02*
X173752000Y-99822000D01*
X137158000Y-111379000D02*
X142367000Y-111379000D01*
%TO.N,/Memory Bus/PD9*%
X143637000Y-110744000D02*
X144272000Y-111379000D01*
X124336500Y-110490000D02*
X133477000Y-110490000D01*
X124309500Y-110463000D02*
X124336500Y-110490000D01*
X133477000Y-110490000D02*
X133731000Y-110744000D01*
X133731000Y-110744000D02*
X143637000Y-110744000D01*
X144272000Y-111379000D02*
X146558000Y-111379000D01*
%TO.N,/Memory Bus/PD5*%
X133331000Y-109963000D02*
X133477000Y-110109000D01*
X124309500Y-109963000D02*
X133331000Y-109963000D01*
X150749000Y-101219000D02*
X154178000Y-97790000D01*
X133477000Y-110109000D02*
X137158000Y-110109000D01*
X148209000Y-101219000D02*
X150749000Y-101219000D01*
X137158000Y-110109000D02*
X142494000Y-110109000D01*
X154178000Y-97790000D02*
X173752000Y-97790000D01*
%TO.N,/Memory Bus/PD10*%
X141732000Y-109474000D02*
X124320500Y-109474000D01*
X154114500Y-96774000D02*
X169545000Y-96774000D01*
X144145000Y-110109000D02*
X146558000Y-110109000D01*
X124320500Y-109474000D02*
X124309500Y-109463000D01*
X143510000Y-109474000D02*
X144145000Y-110109000D01*
X172593000Y-93726000D02*
X173752000Y-93726000D01*
X141732000Y-109474000D02*
X143510000Y-109474000D01*
X169545000Y-96774000D02*
X172593000Y-93726000D01*
X151701500Y-99187000D02*
X154114500Y-96774000D01*
X147955000Y-99187000D02*
X151701500Y-99187000D01*
%TO.N,/Memory Bus/PD4*%
X151384000Y-100076000D02*
X154178000Y-97282000D01*
X133353000Y-108963000D02*
X133477000Y-108839000D01*
X154178000Y-97282000D02*
X171069000Y-97282000D01*
X148082000Y-100076000D02*
X151384000Y-100076000D01*
X171069000Y-97282000D02*
X172593000Y-95758000D01*
X172593000Y-95758000D02*
X173752000Y-95758000D01*
X137158000Y-108839000D02*
X142875000Y-108839000D01*
X124309500Y-108963000D02*
X133353000Y-108963000D01*
X133477000Y-108839000D02*
X137158000Y-108839000D01*
%TO.N,/Memory Bus/PD11*%
X143510000Y-108204000D02*
X133350000Y-108204000D01*
X125725000Y-108463000D02*
X125730000Y-108458000D01*
X124309500Y-108463000D02*
X125725000Y-108463000D01*
X132969000Y-108585000D02*
X129921000Y-108585000D01*
X128778000Y-107442000D02*
X128667000Y-107442000D01*
X133350000Y-108204000D02*
X132969000Y-108585000D01*
X125730000Y-108458000D02*
X127651000Y-108458000D01*
X144145000Y-108839000D02*
X143510000Y-108204000D01*
X127651000Y-108458000D02*
X128667000Y-107442000D01*
X146558000Y-108839000D02*
X144145000Y-108839000D01*
X129921000Y-108585000D02*
X128778000Y-107442000D01*
%TO.N,/Memory Bus/PD3*%
X137158000Y-106299000D02*
X143383000Y-106299000D01*
X164211000Y-101854000D02*
X167894000Y-101854000D01*
X171958000Y-105918000D02*
X173752000Y-105918000D01*
X154686000Y-100457000D02*
X162814000Y-100457000D01*
X143383000Y-106299000D02*
X144018000Y-106934000D01*
X144018000Y-106934000D02*
X148209000Y-106934000D01*
X124309500Y-107463000D02*
X126979000Y-107463000D01*
X128143000Y-106299000D02*
X137158000Y-106299000D01*
X148209000Y-106934000D02*
X154686000Y-100457000D01*
X167894000Y-101854000D02*
X171958000Y-105918000D01*
X162814000Y-100457000D02*
X164211000Y-101854000D01*
X126979000Y-107463000D02*
X128143000Y-106299000D01*
%TO.N,/Memory Bus/PD12*%
X143764000Y-105664000D02*
X128016000Y-105664000D01*
X128016000Y-105664000D02*
X126717000Y-106963000D01*
X154813000Y-99822000D02*
X148336000Y-106299000D01*
X154940000Y-99822000D02*
X154813000Y-99822000D01*
X126717000Y-106963000D02*
X124309500Y-106963000D01*
X144399000Y-106299000D02*
X143764000Y-105664000D01*
X148336000Y-106299000D02*
X146558000Y-106299000D01*
X146558000Y-106299000D02*
X144399000Y-106299000D01*
X173752000Y-91694000D02*
X172085000Y-91694000D01*
%TO.N,/Memory Bus/PD2*%
X148209000Y-105664000D02*
X154686000Y-99187000D01*
X127082000Y-105963000D02*
X128016000Y-105029000D01*
X154686000Y-99187000D02*
X166116000Y-99187000D01*
X144907000Y-105664000D02*
X148209000Y-105664000D01*
X170815000Y-103886000D02*
X173752000Y-103886000D01*
X128016000Y-105029000D02*
X137158000Y-105029000D01*
X166116000Y-99187000D02*
X170815000Y-103886000D01*
X124309500Y-105963000D02*
X127082000Y-105963000D01*
X137158000Y-105029000D02*
X144272000Y-105029000D01*
X144272000Y-105029000D02*
X144907000Y-105664000D01*
%TO.N,/Memory Bus/PD13*%
X124309500Y-105463000D02*
X126693000Y-105463000D01*
X127762000Y-104394000D02*
X144653000Y-104394000D01*
X145288000Y-105029000D02*
X146558000Y-105029000D01*
X144653000Y-104394000D02*
X145288000Y-105029000D01*
X126693000Y-105463000D02*
X127762000Y-104394000D01*
%TO.N,/Memory Bus/PD1*%
X127635000Y-103759000D02*
X137158000Y-103759000D01*
X126431000Y-104963000D02*
X127635000Y-103759000D01*
X124309500Y-104963000D02*
X126431000Y-104963000D01*
%TO.N,/Memory Bus/PD14*%
X126296000Y-104463000D02*
X124309500Y-104463000D01*
X146558000Y-103759000D02*
X144653000Y-103759000D01*
X144018000Y-103124000D02*
X127635000Y-103124000D01*
X144653000Y-103759000D02*
X144018000Y-103124000D01*
X127635000Y-103124000D02*
X126296000Y-104463000D01*
%TO.N,/Memory Bus/PD0*%
X130921000Y-102616000D02*
X131937000Y-101600000D01*
X124309500Y-103963000D02*
X125907000Y-103963000D01*
X125907000Y-103963000D02*
X127254000Y-102616000D01*
X132826000Y-102489000D02*
X131937000Y-101600000D01*
X127254000Y-102616000D02*
X130921000Y-102616000D01*
X137158000Y-102489000D02*
X132826000Y-102489000D01*
%TO.N,/Memory Bus/PD15*%
X122097000Y-100407000D02*
X122555000Y-99949000D01*
X143764000Y-102108000D02*
X144145000Y-102489000D01*
X122097000Y-101750500D02*
X122097000Y-100407000D01*
X144145000Y-102489000D02*
X146558000Y-102489000D01*
X122555000Y-99949000D02*
X123317000Y-99949000D01*
%TO.N,/Memory Bus/OE*%
X138811000Y-79883000D02*
X137795000Y-78867000D01*
X146558000Y-117729000D02*
X144653000Y-117729000D01*
X120142000Y-91440000D02*
X114792000Y-96790000D01*
X105664000Y-77851000D02*
X104013000Y-79502000D01*
X120142000Y-80391000D02*
X120142000Y-91440000D01*
X121666000Y-78867000D02*
X120142000Y-80391000D01*
X166372000Y-117729000D02*
X163830000Y-117729000D01*
X120142000Y-80391000D02*
X117602000Y-77851000D01*
X137795000Y-78867000D02*
X121666000Y-78867000D01*
X144653000Y-117729000D02*
X144526000Y-117602000D01*
X104013000Y-79502000D02*
X104013000Y-81100000D01*
X114792000Y-96790000D02*
X113411000Y-96790000D01*
X117602000Y-77851000D02*
X105664000Y-77851000D01*
X138811000Y-81100000D02*
X138811000Y-79883000D01*
%TO.N,/Memory Bus/WE*%
X112141000Y-97790000D02*
X114935000Y-97790000D01*
X135636000Y-86487000D02*
X137541000Y-88392000D01*
X140970000Y-116459000D02*
X137158000Y-116459000D01*
X137541000Y-88392000D02*
X137541000Y-90500000D01*
X120650000Y-92075000D02*
X120650000Y-80899000D01*
X137541000Y-90500000D02*
X137541000Y-92964000D01*
X114935000Y-97790000D02*
X120650000Y-92075000D01*
X141097000Y-116332000D02*
X140970000Y-116459000D01*
X158623000Y-116078000D02*
X158242000Y-116459000D01*
X102743000Y-91313000D02*
X102743000Y-90500000D01*
X111379000Y-96790000D02*
X108220000Y-96790000D01*
X111379000Y-96790000D02*
X111379000Y-97028000D01*
X122405000Y-79144000D02*
X135024000Y-79144000D01*
X158242000Y-116459000D02*
X156972000Y-116459000D01*
X158623000Y-113792000D02*
X158623000Y-116078000D01*
X111379000Y-97028000D02*
X112141000Y-97790000D01*
X108220000Y-96790000D02*
X102743000Y-91313000D01*
X135636000Y-79756000D02*
X135636000Y-86487000D01*
X137541000Y-92964000D02*
X137668000Y-93091000D01*
X120650000Y-80899000D02*
X122405000Y-79144000D01*
X135024000Y-79144000D02*
X135636000Y-79756000D01*
%TO.N,/Memory Bus/PD55*%
X121597000Y-101750500D02*
X121597000Y-100399000D01*
X128270000Y-97155000D02*
X133731000Y-91694000D01*
X133731000Y-91694000D02*
X133731000Y-90500000D01*
X124841000Y-97155000D02*
X128270000Y-97155000D01*
X121597000Y-100399000D02*
X124841000Y-97155000D01*
%TO.N,/Memory Bus/PD56*%
X133096000Y-84963000D02*
X133731000Y-84328000D01*
X128016000Y-96774000D02*
X133096000Y-91694000D01*
X121097000Y-101750500D02*
X121097000Y-100391000D01*
X124714000Y-96774000D02*
X128016000Y-96774000D01*
X133731000Y-84328000D02*
X133731000Y-81100000D01*
X121097000Y-100391000D02*
X124714000Y-96774000D01*
X133096000Y-91694000D02*
X133096000Y-84963000D01*
%TO.N,/Memory Bus/PD54*%
X132461000Y-91694000D02*
X132461000Y-90500000D01*
X127762000Y-96393000D02*
X132461000Y-91694000D01*
X120597000Y-101750500D02*
X120597000Y-100383000D01*
X124587000Y-96393000D02*
X127762000Y-96393000D01*
X120597000Y-100383000D02*
X124587000Y-96393000D01*
%TO.N,/Memory Bus/PD57*%
X131826000Y-91694000D02*
X131826000Y-84582000D01*
X132461000Y-83947000D02*
X132461000Y-81100000D01*
X131826000Y-84582000D02*
X132461000Y-83947000D01*
X124460000Y-96012000D02*
X127508000Y-96012000D01*
X127508000Y-96012000D02*
X131826000Y-91694000D01*
X120097000Y-101750500D02*
X120097000Y-100375000D01*
X120097000Y-100375000D02*
X124460000Y-96012000D01*
%TO.N,/Memory Bus/PD53*%
X131191000Y-91694000D02*
X131191000Y-90500000D01*
X124333000Y-95631000D02*
X127254000Y-95631000D01*
X119597000Y-101750500D02*
X119597000Y-100367000D01*
X127254000Y-95631000D02*
X131191000Y-91694000D01*
X119597000Y-100367000D02*
X124333000Y-95631000D01*
%TO.N,/Memory Bus/PD58*%
X127000000Y-95250000D02*
X130556000Y-91694000D01*
X124206000Y-95250000D02*
X127000000Y-95250000D01*
X130556000Y-84328000D02*
X131191000Y-83693000D01*
X119097000Y-100359000D02*
X124206000Y-95250000D01*
X131191000Y-83693000D02*
X131191000Y-81100000D01*
X119097000Y-101750500D02*
X119097000Y-100359000D01*
X130556000Y-91694000D02*
X130556000Y-84328000D01*
%TO.N,/Memory Bus/PD52*%
X124079000Y-94869000D02*
X126746000Y-94869000D01*
X118597000Y-100351000D02*
X124079000Y-94869000D01*
X126746000Y-94869000D02*
X129921000Y-91694000D01*
X118597000Y-101750500D02*
X118597000Y-100351000D01*
X129921000Y-91694000D02*
X129921000Y-90500000D01*
%TO.N,/Memory Bus/PD59*%
X125095000Y-94488000D02*
X128016000Y-91567000D01*
X128016000Y-91567000D02*
X128016000Y-85471000D01*
X118097000Y-101750500D02*
X118097000Y-100343000D01*
X128016000Y-85471000D02*
X129921000Y-83566000D01*
X129921000Y-83566000D02*
X129921000Y-81100000D01*
X118097000Y-100343000D02*
X123952000Y-94488000D01*
X123952000Y-94488000D02*
X125095000Y-94488000D01*
%TO.N,/Memory Bus/PD51*%
X117097000Y-101750500D02*
X117097000Y-100835000D01*
X124841000Y-94107000D02*
X127381000Y-91567000D01*
X123825000Y-94107000D02*
X124841000Y-94107000D01*
X127381000Y-91567000D02*
X127381000Y-90500000D01*
X117097000Y-100835000D02*
X123825000Y-94107000D01*
%TO.N,/Memory Bus/PD60*%
X116597000Y-101750500D02*
X116597000Y-100827000D01*
X126746000Y-91440000D02*
X126746000Y-84074000D01*
X124460000Y-93726000D02*
X126746000Y-91440000D01*
X116597000Y-100827000D02*
X123698000Y-93726000D01*
X123698000Y-93726000D02*
X124460000Y-93726000D01*
X127381000Y-83439000D02*
X127381000Y-81100000D01*
X126746000Y-84074000D02*
X127381000Y-83439000D01*
%TO.N,/Memory Bus/PD50*%
X124102000Y-93449000D02*
X126111000Y-91440000D01*
X123467000Y-93449000D02*
X124102000Y-93449000D01*
X126111000Y-91440000D02*
X126111000Y-90500000D01*
X116097000Y-100819000D02*
X123467000Y-93449000D01*
X116097000Y-101750500D02*
X116097000Y-100819000D01*
%TO.N,/Memory Bus/PD61*%
X125476000Y-91440000D02*
X125476000Y-89662000D01*
X115597000Y-101750500D02*
X115597000Y-100811000D01*
X123317000Y-93091000D02*
X123825000Y-93091000D01*
X125262000Y-89448000D02*
X125262000Y-84034000D01*
X125476000Y-89662000D02*
X125262000Y-89448000D01*
X123825000Y-93091000D02*
X125476000Y-91440000D01*
X115597000Y-100811000D02*
X123317000Y-93091000D01*
X125262000Y-84034000D02*
X126111000Y-83185000D01*
X126111000Y-83185000D02*
X126111000Y-81100000D01*
%TO.N,/Memory Bus/PD49*%
X123698000Y-92710000D02*
X124841000Y-91567000D01*
X115097000Y-101750500D02*
X115097000Y-100803000D01*
X124841000Y-91567000D02*
X124841000Y-90500000D01*
X123190000Y-92710000D02*
X123698000Y-92710000D01*
X115097000Y-100803000D02*
X123190000Y-92710000D01*
%TO.N,/Memory Bus/PD62*%
X114597000Y-100795000D02*
X123063000Y-92329000D01*
X124206000Y-83947000D02*
X124841000Y-83312000D01*
X123444000Y-92329000D02*
X124206000Y-91567000D01*
X124841000Y-83312000D02*
X124841000Y-81100000D01*
X124206000Y-91567000D02*
X124206000Y-83947000D01*
X114597000Y-101750500D02*
X114597000Y-100795000D01*
X123063000Y-92329000D02*
X123444000Y-92329000D01*
%TO.N,/Memory Bus/PD48*%
X114097000Y-101750500D02*
X114097000Y-100787000D01*
X123086000Y-92052000D02*
X123571000Y-91567000D01*
X123571000Y-91567000D02*
X123571000Y-90500000D01*
X114097000Y-100787000D02*
X122832000Y-92052000D01*
X122832000Y-92052000D02*
X123086000Y-92052000D01*
%TO.N,/Memory Bus/PD63*%
X122936000Y-83439000D02*
X123571000Y-82804000D01*
X113597000Y-100779000D02*
X122936000Y-91440000D01*
X113597000Y-101750500D02*
X113597000Y-100779000D01*
X123571000Y-82804000D02*
X123571000Y-81100000D01*
X122936000Y-91440000D02*
X122936000Y-83439000D01*
%TO.N,/Memory Bus/PD39*%
X111097000Y-101750500D02*
X111097000Y-100302000D01*
X102870000Y-92075000D02*
X99441000Y-92075000D01*
X111097000Y-100302000D02*
X102870000Y-92075000D01*
X98933000Y-91567000D02*
X98933000Y-90500000D01*
X99441000Y-92075000D02*
X98933000Y-91567000D01*
%TO.N,/Memory Bus/PD40*%
X99083000Y-92352000D02*
X98298000Y-91567000D01*
X98298000Y-84328000D02*
X98933000Y-83693000D01*
X98298000Y-91567000D02*
X98298000Y-84328000D01*
X110597000Y-101750500D02*
X110597000Y-100310000D01*
X98933000Y-83693000D02*
X98933000Y-81100000D01*
X102639000Y-92352000D02*
X99083000Y-92352000D01*
X110597000Y-100310000D02*
X102639000Y-92352000D01*
%TO.N,/Memory Bus/PD38*%
X98725000Y-92629000D02*
X97663000Y-91567000D01*
X102402631Y-92629000D02*
X98725000Y-92629000D01*
X110097000Y-101750500D02*
X110097000Y-100323369D01*
X110097000Y-100323369D02*
X102402631Y-92629000D01*
X97663000Y-91567000D02*
X97663000Y-90500000D01*
%TO.N,/Memory Bus/PD41*%
X98367000Y-92906000D02*
X97028000Y-91567000D01*
X102177000Y-92906000D02*
X98367000Y-92906000D01*
X97663000Y-83312000D02*
X97663000Y-81100000D01*
X97028000Y-83947000D02*
X97663000Y-83312000D01*
X109597000Y-100326000D02*
X102177000Y-92906000D01*
X109597000Y-101750500D02*
X109597000Y-100326000D01*
X97028000Y-91567000D02*
X97028000Y-83947000D01*
%TO.N,/Memory Bus/PD37*%
X96393000Y-91567000D02*
X96393000Y-90500000D01*
X98009000Y-93183000D02*
X96393000Y-91567000D01*
X109097000Y-101750500D02*
X109097000Y-100334000D01*
X109097000Y-100334000D02*
X101946000Y-93183000D01*
X101946000Y-93183000D02*
X98009000Y-93183000D01*
%TO.N,/Memory Bus/PD42*%
X108585000Y-101109263D02*
X108585000Y-100330000D01*
X95758000Y-91567000D02*
X95758000Y-83566000D01*
X96393000Y-82931000D02*
X96393000Y-81100000D01*
X108597000Y-101750500D02*
X108597000Y-101121263D01*
X101727000Y-93472000D02*
X97663000Y-93472000D01*
X108585000Y-100330000D02*
X101727000Y-93472000D01*
X97663000Y-93472000D02*
X95758000Y-91567000D01*
X95758000Y-83566000D02*
X96393000Y-82931000D01*
X108597000Y-101121263D02*
X108585000Y-101109263D01*
%TO.N,/Memory Bus/PD36*%
X95123000Y-91567000D02*
X95123000Y-90500000D01*
X108097000Y-101750500D02*
X108097000Y-100350000D01*
X97305000Y-93749000D02*
X95123000Y-91567000D01*
X108097000Y-100350000D02*
X101496000Y-93749000D01*
X101496000Y-93749000D02*
X97305000Y-93749000D01*
%TO.N,/Memory Bus/PD43*%
X95123000Y-82931000D02*
X95123000Y-81100000D01*
X107597000Y-101750500D02*
X107597000Y-100358000D01*
X107597000Y-100358000D02*
X101265000Y-94026000D01*
X94488000Y-83566000D02*
X95123000Y-82931000D01*
X97005131Y-94026000D02*
X94488000Y-91508869D01*
X101265000Y-94026000D02*
X97005131Y-94026000D01*
X94488000Y-91508869D02*
X94488000Y-83566000D01*
%TO.N,/Memory Bus/PD35*%
X106807000Y-100076000D02*
X101034000Y-94303000D01*
X95319000Y-94303000D02*
X92583000Y-91567000D01*
X106597000Y-100794000D02*
X106807000Y-100584000D01*
X106597000Y-101750500D02*
X106597000Y-100794000D01*
X92583000Y-91567000D02*
X92583000Y-90500000D01*
X106807000Y-100584000D02*
X106807000Y-100076000D01*
X101034000Y-94303000D02*
X95319000Y-94303000D01*
%TO.N,/Memory Bus/PD44*%
X105597000Y-99818500D02*
X100358500Y-94580000D01*
X92583000Y-83058000D02*
X92583000Y-81100000D01*
X100358500Y-94580000D02*
X94961000Y-94580000D01*
X105597000Y-101750500D02*
X105597000Y-99818500D01*
X94961000Y-94580000D02*
X91948000Y-91567000D01*
X91948000Y-83693000D02*
X92583000Y-83058000D01*
X91948000Y-91567000D02*
X91948000Y-83693000D01*
%TO.N,/Memory Bus/PD34*%
X100064000Y-94857000D02*
X94603000Y-94857000D01*
X105097000Y-99890000D02*
X100064000Y-94857000D01*
X94603000Y-94857000D02*
X91313000Y-91567000D01*
X91313000Y-91567000D02*
X91313000Y-90500000D01*
X105097000Y-101750500D02*
X105097000Y-99890000D01*
%TO.N,/Memory Bus/PD45*%
X104597000Y-99898000D02*
X99833000Y-95134000D01*
X99833000Y-95134000D02*
X94245000Y-95134000D01*
X91313000Y-83185000D02*
X91313000Y-81100000D01*
X90678000Y-91567000D02*
X90678000Y-83820000D01*
X94245000Y-95134000D02*
X90678000Y-91567000D01*
X90678000Y-83820000D02*
X91313000Y-83185000D01*
X104597000Y-101750500D02*
X104597000Y-99898000D01*
%TO.N,/Memory Bus/PD33*%
X93887000Y-95411000D02*
X90043000Y-91567000D01*
X90043000Y-91567000D02*
X90043000Y-90500000D01*
X99602000Y-95411000D02*
X93887000Y-95411000D01*
X104097000Y-101750500D02*
X104097000Y-99906000D01*
X104097000Y-99906000D02*
X99602000Y-95411000D01*
%TO.N,/Memory Bus/PD46*%
X90043000Y-83185000D02*
X90043000Y-81100000D01*
X89408000Y-83820000D02*
X90043000Y-83185000D01*
X89408000Y-91323738D02*
X89408000Y-83820000D01*
X103597000Y-101750500D02*
X103597000Y-99914000D01*
X103597000Y-99914000D02*
X99371000Y-95688000D01*
X99371000Y-95688000D02*
X93772262Y-95688000D01*
X93772262Y-95688000D02*
X89408000Y-91323738D01*
%TO.N,/Memory Bus/PD32*%
X93552000Y-95965000D02*
X88773000Y-91186000D01*
X88773000Y-91186000D02*
X88773000Y-90500000D01*
X103097000Y-99922000D02*
X99140000Y-95965000D01*
X103097000Y-101750500D02*
X103097000Y-99922000D01*
X99140000Y-95965000D02*
X93552000Y-95965000D01*
%TO.N,/Memory Bus/PD47*%
X102597000Y-99930000D02*
X98933000Y-96266000D01*
X98933000Y-96266000D02*
X93191197Y-96266000D01*
X93191197Y-96266000D02*
X88138000Y-91212803D01*
X102597000Y-101750500D02*
X102597000Y-99930000D01*
X88138000Y-83820000D02*
X88773000Y-83185000D01*
X88773000Y-83185000D02*
X88773000Y-81100000D01*
X88138000Y-91212803D02*
X88138000Y-83820000D01*
%TO.N,/ISA Bus/R_A0*%
X194945000Y-118237000D02*
X210185000Y-118237000D01*
X184900000Y-128282000D02*
X194945000Y-118237000D01*
X184900000Y-142000000D02*
X184900000Y-128282000D01*
X210185000Y-118237000D02*
X211963000Y-116459000D01*
%TO.N,/ISA Bus/R_A1*%
X195707000Y-118872000D02*
X187440000Y-127139000D01*
X212090000Y-118872000D02*
X195707000Y-118872000D01*
X187440000Y-127139000D02*
X187440000Y-142000000D01*
X214503000Y-116459000D02*
X212090000Y-118872000D01*
%TO.N,/ISA Bus/R_A2*%
X189980000Y-142000000D02*
X189980000Y-125996000D01*
X213741000Y-119761000D02*
X217043000Y-116459000D01*
X196215000Y-119761000D02*
X213741000Y-119761000D01*
X189980000Y-125996000D02*
X196215000Y-119761000D01*
%TO.N,/ISA Bus/R_A3*%
X192520000Y-142000000D02*
X192520000Y-125234000D01*
X192520000Y-125234000D02*
X197231000Y-120523000D01*
X215519000Y-120523000D02*
X219583000Y-116459000D01*
X197231000Y-120523000D02*
X215519000Y-120523000D01*
%TO.N,/ISA Bus/R_A4*%
X222123000Y-116459000D02*
X217043000Y-121539000D01*
X195060000Y-124599000D02*
X195060000Y-142000000D01*
X217043000Y-121539000D02*
X198120000Y-121539000D01*
X198120000Y-121539000D02*
X195060000Y-124599000D01*
%TO.N,/ISA Bus/R_A5*%
X197600000Y-142000000D02*
X197600000Y-123837000D01*
X197600000Y-123837000D02*
X199136000Y-122301000D01*
X218821000Y-122301000D02*
X224663000Y-116459000D01*
X199136000Y-122301000D02*
X218821000Y-122301000D01*
%TO.N,/ISA Bus/R_A6*%
X220472000Y-123190000D02*
X227203000Y-116459000D01*
X200140000Y-142000000D02*
X200140000Y-123964000D01*
X200140000Y-123964000D02*
X200914000Y-123190000D01*
X200914000Y-123190000D02*
X220472000Y-123190000D01*
%TO.N,/ISA Bus/R_A7*%
X200660000Y-126111000D02*
X200660000Y-133477000D01*
X221996000Y-124206000D02*
X202565000Y-124206000D01*
X229743000Y-116459000D02*
X221996000Y-124206000D01*
X200660000Y-133477000D02*
X202680000Y-135497000D01*
X202680000Y-135497000D02*
X202680000Y-142000000D01*
X202565000Y-124206000D02*
X200660000Y-126111000D01*
%TO.N,/ISA Bus/R_A8*%
X208661000Y-133477000D02*
X205220000Y-136918000D01*
X227203000Y-131699000D02*
X224282000Y-128778000D01*
X212725000Y-133477000D02*
X208661000Y-133477000D01*
X205220000Y-136918000D02*
X205220000Y-142000000D01*
X224282000Y-128778000D02*
X215138000Y-128778000D01*
X213233000Y-132969000D02*
X212725000Y-133477000D01*
X213233000Y-130683000D02*
X213233000Y-132969000D01*
X215138000Y-128778000D02*
X213233000Y-130683000D01*
%TO.N,/ISA Bus/R_A9*%
X207760000Y-137426000D02*
X211097000Y-134089000D01*
X215773000Y-130302000D02*
X216535000Y-129540000D01*
X216535000Y-129540000D02*
X222504000Y-129540000D01*
X207760000Y-142000000D02*
X207760000Y-137426000D01*
X215773000Y-132842000D02*
X215773000Y-130302000D01*
X214526000Y-134089000D02*
X215773000Y-132842000D01*
X222504000Y-129540000D02*
X224663000Y-131699000D01*
X211097000Y-134089000D02*
X214526000Y-134089000D01*
%TO.N,/ISA Bus/R_A10*%
X217043000Y-132842000D02*
X214630000Y-135255000D01*
X212344000Y-135255000D02*
X210300000Y-137299000D01*
X214630000Y-135255000D02*
X212344000Y-135255000D01*
X210300000Y-137299000D02*
X210300000Y-142000000D01*
X217043000Y-131699000D02*
X217043000Y-132842000D01*
%TO.N,/ISA Bus/R_A11*%
X222123000Y-131953000D02*
X219964000Y-134112000D01*
X212840000Y-137680000D02*
X212840000Y-142000000D01*
X214503000Y-136017000D02*
X212840000Y-137680000D01*
X217170000Y-134112000D02*
X215265000Y-136017000D01*
X219964000Y-134112000D02*
X217170000Y-134112000D01*
X215265000Y-136017000D02*
X214503000Y-136017000D01*
X222123000Y-131699000D02*
X222123000Y-131953000D01*
D39*
%TO.N,/ISA Bus/R_A12*%
X215380000Y-137553000D02*
X217170000Y-135763000D01*
X217932000Y-135763000D02*
X218313000Y-135382000D01*
X217170000Y-135763000D02*
X217932000Y-135763000D01*
X218313000Y-135382000D02*
X218313000Y-134874000D01*
X232283000Y-121539000D02*
X229362000Y-124460000D01*
X232283000Y-116459000D02*
X232283000Y-121539000D01*
X215380000Y-142000000D02*
X215380000Y-137553000D01*
D38*
%TO.N,/ISA Bus/R_A13*%
X222123000Y-133477000D02*
X217920000Y-137680000D01*
X217920000Y-137680000D02*
X217920000Y-142000000D01*
X229743000Y-131699000D02*
X227965000Y-133477000D01*
X227965000Y-133477000D02*
X222123000Y-133477000D01*
%TO.N,/ISA Bus/R_A14*%
X220460000Y-142000000D02*
X220460000Y-137172000D01*
X223266000Y-134366000D02*
X229616000Y-134366000D01*
X229616000Y-134366000D02*
X232283000Y-131699000D01*
X220460000Y-137172000D02*
X223266000Y-134366000D01*
%TO.N,/ISA Bus/R_A15*%
X234823000Y-116459000D02*
X234823000Y-122428000D01*
X234823000Y-122428000D02*
X232664000Y-124587000D01*
X223012000Y-135763000D02*
X223000000Y-135775000D01*
X223000000Y-135775000D02*
X223000000Y-142000000D01*
%TO.N,/ISA Bus/ISA_D0*%
X249809000Y-123190000D02*
X249809000Y-133096000D01*
X255303500Y-121031000D02*
X251968000Y-121031000D01*
X249809000Y-133096000D02*
X248920000Y-133985000D01*
X244348000Y-133985000D02*
X240780000Y-137553000D01*
X240780000Y-137553000D02*
X240780000Y-142000000D01*
X248920000Y-133985000D02*
X244348000Y-133985000D01*
X251968000Y-121031000D02*
X249809000Y-123190000D01*
%TO.N,/ISA Bus/ISA_D1*%
X250444000Y-123952000D02*
X252095000Y-122301000D01*
X243320000Y-142000000D02*
X243320000Y-137553000D01*
X249555000Y-134747000D02*
X250444000Y-133858000D01*
X252095000Y-122301000D02*
X255303500Y-122301000D01*
X250444000Y-133858000D02*
X250444000Y-123952000D01*
X243320000Y-137553000D02*
X246126000Y-134747000D01*
X246126000Y-134747000D02*
X249555000Y-134747000D01*
%TO.N,/ISA Bus/ISA_D2*%
X249936000Y-135636000D02*
X247777000Y-135636000D01*
X247777000Y-135636000D02*
X245860000Y-137553000D01*
X251079000Y-124968000D02*
X251079000Y-134493000D01*
X251079000Y-134493000D02*
X249936000Y-135636000D01*
X252476000Y-123571000D02*
X251079000Y-124968000D01*
X255303500Y-123571000D02*
X252476000Y-123571000D01*
X245860000Y-137553000D02*
X245860000Y-142000000D01*
%TO.N,/ISA Bus/ISA_D3*%
X248400000Y-142000000D02*
X248400000Y-137553000D01*
X251714000Y-135255000D02*
X251714000Y-126111000D01*
X251714000Y-126111000D02*
X252984000Y-124841000D01*
X252984000Y-124841000D02*
X255303500Y-124841000D01*
X248400000Y-137553000D02*
X249555000Y-136398000D01*
X250571000Y-136398000D02*
X251714000Y-135255000D01*
X249555000Y-136398000D02*
X250571000Y-136398000D01*
%TO.N,/ISA Bus/ISA_D4*%
X250940000Y-142000000D02*
X250940000Y-137299000D01*
X252349000Y-127000000D02*
X253238000Y-126111000D01*
X252349000Y-135890000D02*
X252349000Y-127000000D01*
X253238000Y-126111000D02*
X255303500Y-126111000D01*
X250940000Y-137299000D02*
X252349000Y-135890000D01*
%TO.N,/ISA Bus/ISA_D5*%
X252984000Y-128270000D02*
X253873000Y-127381000D01*
X253873000Y-127381000D02*
X255303500Y-127381000D01*
X252984000Y-135660000D02*
X252984000Y-128270000D01*
X253480000Y-142000000D02*
X253480000Y-136156000D01*
X253480000Y-136156000D02*
X252984000Y-135660000D01*
%TO.N,/ISA Bus/ISA_D6*%
X256020000Y-134886000D02*
X253492000Y-132358000D01*
X253492000Y-129413000D02*
X254254000Y-128651000D01*
X253492000Y-132358000D02*
X253492000Y-131826000D01*
X256020000Y-142000000D02*
X256020000Y-134886000D01*
X254254000Y-128651000D02*
X255303500Y-128651000D01*
X253492000Y-131826000D02*
X253492000Y-129413000D01*
%TO.N,/ISA Bus/ISA_D7*%
X256286000Y-129921000D02*
X258560000Y-132195000D01*
X255303500Y-129921000D02*
X256286000Y-129921000D01*
X258560000Y-132195000D02*
X258560000Y-142000000D01*
%TO.N,/VL Bus/LCLK*%
X92167000Y-122463000D02*
X94384500Y-122463000D01*
X72898000Y-131445000D02*
X55245000Y-131445000D01*
X91440000Y-123190000D02*
X92167000Y-122463000D01*
X55245000Y-131445000D02*
X49022000Y-137668000D01*
%TO.N,/VL Bus/RST*%
X66802000Y-137541000D02*
X66802000Y-134890000D01*
X66802000Y-134890000D02*
X66818000Y-134874000D01*
%TO.N,/VL Bus/VL_A2*%
X87907000Y-118976000D02*
X93420000Y-113463000D01*
X93420000Y-113463000D02*
X94384500Y-113463000D01*
X70104000Y-137414000D02*
X87907000Y-119611000D01*
X87907000Y-119611000D02*
X87907000Y-118976000D01*
X70104000Y-137541000D02*
X70104000Y-137414000D01*
%TO.N,/VL Bus/VL_A3*%
X95294000Y-113963000D02*
X94384500Y-113963000D01*
X98044000Y-118745000D02*
X98044000Y-116713000D01*
X98044000Y-116713000D02*
X95294000Y-113963000D01*
%TO.N,/VL Bus/VL_A5*%
X97409000Y-117221000D02*
X95151000Y-114963000D01*
X95151000Y-114963000D02*
X94384500Y-114963000D01*
X97409000Y-119380000D02*
X97409000Y-117221000D01*
%TO.N,/VL Bus/VL_A7*%
X97155000Y-120142000D02*
X96901000Y-119888000D01*
X95389000Y-115963000D02*
X94384500Y-115963000D01*
X96901000Y-117475000D02*
X95389000Y-115963000D01*
X96901000Y-119888000D02*
X96901000Y-117475000D01*
%TO.N,/VL Bus/VL_A9*%
X96520000Y-120396000D02*
X96520000Y-118110000D01*
X95373000Y-116963000D02*
X94384500Y-116963000D01*
X97155000Y-121031000D02*
X96520000Y-120396000D01*
X96520000Y-118110000D02*
X95373000Y-116963000D01*
%TO.N,/VL Bus/VL_A11*%
X96185000Y-119172000D02*
X95476000Y-118463000D01*
X97155000Y-121920000D02*
X96185000Y-120950000D01*
X96185000Y-120950000D02*
X96185000Y-119172000D01*
X95476000Y-118463000D02*
X94384500Y-118463000D01*
X97409000Y-121920000D02*
X97155000Y-121920000D01*
%TO.N,/VL Bus/VL_A13*%
X98044000Y-122682000D02*
X97282000Y-122682000D01*
X95908000Y-121308000D02*
X95908000Y-119911000D01*
X95460000Y-119463000D02*
X94384500Y-119463000D01*
X97282000Y-122682000D02*
X95908000Y-121308000D01*
X95908000Y-119911000D02*
X95460000Y-119463000D01*
%TO.N,/VL Bus/VL_A15*%
X95631000Y-121666000D02*
X95631000Y-120650000D01*
X97282000Y-123317000D02*
X95631000Y-121666000D01*
X95444000Y-120463000D02*
X94384500Y-120463000D01*
X95631000Y-120650000D02*
X95444000Y-120463000D01*
%TO.N,/VL Bus/VL_A17*%
X97663000Y-124587000D02*
X96539000Y-123463000D01*
X96539000Y-123463000D02*
X94384500Y-123463000D01*
%TO.N,/VL Bus/VL_A19*%
X96142000Y-124463000D02*
X94384500Y-124463000D01*
X96901000Y-125222000D02*
X96142000Y-124463000D01*
%TO.N,/VL Bus/VL_A21*%
X96520000Y-125961500D02*
X96021500Y-125463000D01*
X96021500Y-125463000D02*
X94384500Y-125463000D01*
%TO.N,/VL Bus/VL_D30*%
X94361000Y-130556000D02*
X94384500Y-130532500D01*
X94384500Y-130532500D02*
X94384500Y-129463000D01*
%TO.N,/VL Bus/VL_D28*%
X97078000Y-131656500D02*
X97097000Y-131675500D01*
X97078000Y-129159000D02*
X97078000Y-131656500D01*
%TO.N,/VL Bus/VL_D26*%
X98078000Y-129159000D02*
X98078000Y-131656500D01*
X98078000Y-131656500D02*
X98097000Y-131675500D01*
%TO.N,/VL Bus/VL_D24*%
X99078000Y-129159000D02*
X99078000Y-131656500D01*
X99078000Y-131656500D02*
X99097000Y-131675500D01*
%TO.N,/VL Bus/VL_D22*%
X101578000Y-131656500D02*
X101597000Y-131675500D01*
X101578000Y-129181000D02*
X101578000Y-131656500D01*
%TO.N,/VL Bus/VL_D20*%
X103078000Y-129205000D02*
X103078000Y-131656500D01*
X103078000Y-131656500D02*
X103097000Y-131675500D01*
%TO.N,/VL Bus/VL_D18*%
X104078000Y-131656500D02*
X104097000Y-131675500D01*
X104078000Y-129221000D02*
X104078000Y-131656500D01*
%TO.N,/VL Bus/VL_D16*%
X105078000Y-131656500D02*
X105097000Y-131675500D01*
X105078000Y-129237000D02*
X105078000Y-131656500D01*
%TO.N,/VL Bus/VL_D14*%
X110617000Y-131655500D02*
X110597000Y-131675500D01*
X110617000Y-129159000D02*
X110617000Y-131655500D01*
%TO.N,/VL Bus/VL_D12*%
X111578000Y-129214000D02*
X111578000Y-131656500D01*
X111578000Y-131656500D02*
X111597000Y-131675500D01*
%TO.N,/VL Bus/VL_D10*%
X113097000Y-131675500D02*
X113097000Y-129226000D01*
X113097000Y-129226000D02*
X113030000Y-129159000D01*
%TO.N,/VL Bus/VL_D8*%
X114097000Y-129210000D02*
X114046000Y-129159000D01*
X114097000Y-131675500D02*
X114097000Y-129210000D01*
%TO.N,/VL Bus/VL_D6*%
X116078000Y-131656500D02*
X116078000Y-129032000D01*
X116097000Y-131675500D02*
X116078000Y-131656500D01*
%TO.N,/VL Bus/VL_D4*%
X117097000Y-131675500D02*
X117094000Y-131672500D01*
X117094000Y-131672500D02*
X117094000Y-129032000D01*
%TO.N,/VL Bus/VL_D2*%
X118097000Y-131675500D02*
X118097000Y-129045000D01*
X118097000Y-129045000D02*
X118110000Y-129032000D01*
%TO.N,/VL Bus/VL_D0*%
X119097000Y-130273000D02*
X119097000Y-131675500D01*
X118745000Y-129921000D02*
X119097000Y-130273000D01*
%TO.N,/VL Bus/LDEV*%
X108097000Y-129393000D02*
X108204000Y-129286000D01*
X108097000Y-131675500D02*
X108097000Y-129393000D01*
X57940000Y-142300000D02*
X57940000Y-137132000D01*
X57940000Y-137132000D02*
X58547000Y-136525000D01*
%TO.N,/VL Bus/LRDY*%
X107597000Y-128298000D02*
X107569000Y-128270000D01*
X59210000Y-137640000D02*
X59309000Y-137541000D01*
X59210000Y-142300000D02*
X59210000Y-137640000D01*
X107597000Y-131675500D02*
X107597000Y-128298000D01*
%TO.N,/VL Bus/RDYR*%
X106597000Y-131675500D02*
X106597000Y-130346000D01*
X106593500Y-130342500D02*
X106593500Y-128864500D01*
X106597000Y-130346000D02*
X106593500Y-130342500D01*
X106593500Y-128864500D02*
X106680000Y-128778000D01*
%TO.N,/VL Bus/VL_A4*%
X92860000Y-115039000D02*
X92860000Y-115801000D01*
X94384500Y-114463000D02*
X93436000Y-114463000D01*
X92860000Y-115801000D02*
X73180000Y-135481000D01*
X93436000Y-114463000D02*
X92860000Y-115039000D01*
X73180000Y-135481000D02*
X73180000Y-142300000D01*
%TO.N,/VL Bus/VL_A6*%
X83439000Y-128153738D02*
X74450000Y-137142738D01*
X83439000Y-125740738D02*
X83439000Y-128153738D01*
X93137000Y-115651000D02*
X93137000Y-116042738D01*
X93137000Y-116042738D02*
X83439000Y-125740738D01*
X93325000Y-115463000D02*
X93137000Y-115651000D01*
X94384500Y-115463000D02*
X93325000Y-115463000D01*
X74450000Y-137142738D02*
X74450000Y-142300000D01*
%TO.N,/VL Bus/VL_A8*%
X94384500Y-116463000D02*
X93208631Y-116463000D01*
X76990000Y-137259000D02*
X76990000Y-142300000D01*
X84201000Y-125470631D02*
X84201000Y-130048000D01*
X84201000Y-130048000D02*
X76990000Y-137259000D01*
X93208631Y-116463000D02*
X84201000Y-125470631D01*
%TO.N,/VL Bus/VL_A10*%
X84836000Y-130683000D02*
X78260000Y-137259000D01*
X92222000Y-117963000D02*
X84836000Y-125349000D01*
X84836000Y-125349000D02*
X84836000Y-130683000D01*
X94384500Y-117963000D02*
X92222000Y-117963000D01*
X78260000Y-137259000D02*
X78260000Y-142300000D01*
%TO.N,/VL Bus/VL_A12*%
X79530000Y-137259000D02*
X79530000Y-142300000D01*
X85471000Y-125222000D02*
X85471000Y-131318000D01*
X85471000Y-131318000D02*
X79530000Y-137259000D01*
X91730000Y-118963000D02*
X85471000Y-125222000D01*
X94384500Y-118963000D02*
X91730000Y-118963000D01*
%TO.N,/VL Bus/VL_A14*%
X94384500Y-119963000D02*
X91365000Y-119963000D01*
X85979000Y-132080000D02*
X80772000Y-137287000D01*
X85979000Y-125349000D02*
X85979000Y-132080000D01*
X80772000Y-142272000D02*
X80800000Y-142300000D01*
X91365000Y-119963000D02*
X85979000Y-125349000D01*
X80772000Y-137287000D02*
X80772000Y-142272000D01*
%TO.N,/VL Bus/VL_A16*%
X91000000Y-120963000D02*
X86741000Y-125222000D01*
X86741000Y-125222000D02*
X86741000Y-132529564D01*
X82070000Y-137200564D02*
X82070000Y-142300000D01*
X86741000Y-132529564D02*
X82070000Y-137200564D01*
X94384500Y-120963000D02*
X91000000Y-120963000D01*
%TO.N,/VL Bus/VL_A18*%
X87376000Y-133223000D02*
X83340000Y-137259000D01*
X87376000Y-126492000D02*
X87376000Y-133223000D01*
X94384500Y-123963000D02*
X89905000Y-123963000D01*
X83340000Y-137259000D02*
X83340000Y-142300000D01*
X89905000Y-123963000D02*
X87376000Y-126492000D01*
%TO.N,/VL Bus/VL_A20*%
X94384500Y-124963000D02*
X89794000Y-124963000D01*
X88011000Y-133858000D02*
X84610000Y-137259000D01*
X84610000Y-137259000D02*
X84610000Y-142300000D01*
X88011000Y-126746000D02*
X88011000Y-133858000D01*
X89794000Y-124963000D02*
X88011000Y-126746000D01*
%TO.N,/VL Bus/VL_A22*%
X88646000Y-127085000D02*
X88646000Y-135763000D01*
X87150000Y-137259000D02*
X87150000Y-142300000D01*
X89768000Y-125963000D02*
X88646000Y-127085000D01*
X94384500Y-125963000D02*
X89768000Y-125963000D01*
X88646000Y-135763000D02*
X87150000Y-137259000D01*
%TO.N,/VL Bus/VL_D31*%
X95885000Y-131064000D02*
X95885000Y-129413000D01*
X94770000Y-132179000D02*
X95885000Y-131064000D01*
X95435000Y-128963000D02*
X94384500Y-128963000D01*
X95885000Y-129413000D02*
X95435000Y-128963000D01*
X94770000Y-142300000D02*
X94770000Y-132179000D01*
%TO.N,/VL Bus/VL_D29*%
X96578000Y-131694500D02*
X96578000Y-136848000D01*
X96578000Y-136848000D02*
X96050000Y-137376000D01*
X96050000Y-137376000D02*
X96050000Y-142300000D01*
X96597000Y-131675500D02*
X96578000Y-131694500D01*
%TO.N,/VL Bus/VL_D27*%
X97310000Y-137386000D02*
X97578000Y-137118000D01*
X97578000Y-137118000D02*
X97578000Y-131694500D01*
X97578000Y-131694500D02*
X97597000Y-131675500D01*
X97310000Y-142300000D02*
X97310000Y-137386000D01*
%TO.N,/VL Bus/VL_D25*%
X98578000Y-131694500D02*
X98597000Y-131675500D01*
X99850000Y-137315000D02*
X98578000Y-136043000D01*
X99850000Y-142300000D02*
X99850000Y-137315000D01*
X98578000Y-136043000D02*
X98578000Y-131694500D01*
%TO.N,/VL Bus/VL_D23*%
X101120000Y-131698500D02*
X101097000Y-131675500D01*
X101120000Y-142300000D02*
X101120000Y-131698500D01*
%TO.N,/VL Bus/VL_D21*%
X102390000Y-142300000D02*
X102390000Y-137386000D01*
X102578000Y-137198000D02*
X102578000Y-131694500D01*
X102390000Y-137386000D02*
X102578000Y-137198000D01*
X102578000Y-131694500D02*
X102597000Y-131675500D01*
%TO.N,/VL Bus/VL_D19*%
X103597000Y-131675500D02*
X103578000Y-131694500D01*
X103578000Y-131694500D02*
X103578000Y-137233000D01*
X103660000Y-137315000D02*
X103660000Y-142300000D01*
X103578000Y-137233000D02*
X103660000Y-137315000D01*
%TO.N,/VL Bus/VL_D17*%
X106200000Y-142300000D02*
X106200000Y-137315000D01*
X106200000Y-137315000D02*
X104578000Y-135693000D01*
X104578000Y-131694500D02*
X104597000Y-131675500D01*
X104578000Y-135693000D02*
X104578000Y-131694500D01*
%TO.N,/VL Bus/VL_D15*%
X108740000Y-142300000D02*
X108740000Y-137132000D01*
X110078000Y-131694500D02*
X110097000Y-131675500D01*
X110078000Y-135794000D02*
X110078000Y-131694500D01*
X108740000Y-137132000D02*
X110078000Y-135794000D01*
%TO.N,/VL Bus/VL_D13*%
X111078000Y-131694500D02*
X111097000Y-131675500D01*
X110010000Y-137259000D02*
X111078000Y-136191000D01*
X110010000Y-142300000D02*
X110010000Y-137259000D01*
X111078000Y-136191000D02*
X111078000Y-131694500D01*
%TO.N,/VL Bus/VL_D11*%
X111280000Y-136624000D02*
X112578000Y-135326000D01*
X111280000Y-142300000D02*
X111280000Y-136624000D01*
X112578000Y-135326000D02*
X112578000Y-131694500D01*
X112578000Y-131694500D02*
X112597000Y-131675500D01*
%TO.N,/VL Bus/VL_D9*%
X112550000Y-138120000D02*
X113578000Y-137092000D01*
X113578000Y-131694500D02*
X113597000Y-131675500D01*
X113578000Y-137092000D02*
X113578000Y-131694500D01*
X112550000Y-142300000D02*
X112550000Y-138120000D01*
%TO.N,/VL Bus/VL_D7*%
X113820000Y-138021000D02*
X115597000Y-136244000D01*
X115597000Y-136244000D02*
X115597000Y-131675500D01*
X113820000Y-142300000D02*
X113820000Y-138021000D01*
%TO.N,/VL Bus/VL_D5*%
X115090000Y-137640000D02*
X115090000Y-142300000D01*
X116597000Y-131675500D02*
X116597000Y-136133000D01*
X116597000Y-136133000D02*
X115090000Y-137640000D01*
%TO.N,/VL Bus/VL_D3*%
X117630000Y-136144000D02*
X117630000Y-142300000D01*
X117597000Y-136111000D02*
X117630000Y-136144000D01*
X117597000Y-131675500D02*
X117597000Y-136111000D01*
%TO.N,/VL Bus/VL_D1*%
X118597000Y-135869000D02*
X118872000Y-136144000D01*
X118597000Y-131675500D02*
X118597000Y-135869000D01*
X118872000Y-142272000D02*
X118900000Y-142300000D01*
X118872000Y-136144000D02*
X118872000Y-142272000D01*
%TO.N,/ISA Bus/R_D7*%
X211963000Y-130567630D02*
X211963000Y-131699000D01*
X243649500Y-128016000D02*
X214514630Y-128016000D01*
X214514630Y-128016000D02*
X211963000Y-130567630D01*
X248378500Y-128651000D02*
X244284500Y-128651000D01*
X244284500Y-128651000D02*
X243649500Y-128016000D01*
%TO.N,/ISA Bus/R_D6*%
X212344000Y-127381000D02*
X248378500Y-127381000D01*
X209423000Y-131699000D02*
X209423000Y-130302000D01*
X209423000Y-130302000D02*
X212344000Y-127381000D01*
%TO.N,/ISA Bus/R_D5*%
X244348000Y-126111000D02*
X248378500Y-126111000D01*
X211836000Y-126746000D02*
X243713000Y-126746000D01*
X206883000Y-131699000D02*
X211836000Y-126746000D01*
X243713000Y-126746000D02*
X244348000Y-126111000D01*
%TO.N,/ISA Bus/R_D4*%
X244279131Y-124841000D02*
X243009131Y-126111000D01*
X248378500Y-124841000D02*
X244279131Y-124841000D01*
X243009131Y-126111000D02*
X209931000Y-126111000D01*
X209931000Y-126111000D02*
X204343000Y-131699000D01*
%TO.N,/ISA Bus/R_D3*%
X248378500Y-123571000D02*
X244221000Y-123571000D01*
X242316000Y-125476000D02*
X208026000Y-125476000D01*
X208026000Y-125476000D02*
X201803000Y-131699000D01*
X244221000Y-123571000D02*
X242316000Y-125476000D01*
%TO.N,/ISA Bus/R_D2*%
X250698000Y-118872000D02*
X250698000Y-121031000D01*
X244475000Y-112649000D02*
X250698000Y-118872000D01*
X204343000Y-116459000D02*
X208153000Y-112649000D01*
X208153000Y-112649000D02*
X244475000Y-112649000D01*
X250698000Y-121031000D02*
X249428000Y-122301000D01*
X249428000Y-122301000D02*
X248378500Y-122301000D01*
%TO.N,/ISA Bus/R_D1*%
X206883000Y-116459000D02*
X210058000Y-113284000D01*
X210058000Y-113284000D02*
X244094000Y-113284000D01*
X250190000Y-120396000D02*
X249555000Y-121031000D01*
X250190000Y-119380000D02*
X250190000Y-120396000D01*
X244094000Y-113284000D02*
X250190000Y-119380000D01*
X249555000Y-121031000D02*
X248378500Y-121031000D01*
%TO.N,/ISA Bus/R_D0*%
X248378500Y-118584500D02*
X248378500Y-119761000D01*
X209423000Y-116459000D02*
X211582000Y-114300000D01*
X211582000Y-114300000D02*
X244094000Y-114300000D01*
X244094000Y-114300000D02*
X248378500Y-118584500D01*
D36*
%TO.N,/S3_RED*%
X241643896Y-80191000D02*
X253041396Y-91588500D01*
X129658552Y-98352000D02*
X133141552Y-94869000D01*
X95769000Y-109463000D02*
X100530000Y-104702000D01*
X120850000Y-104702000D02*
X127200000Y-98352000D01*
X94384500Y-109463000D02*
X95769000Y-109463000D01*
X155321000Y-94869000D02*
X169999000Y-80191000D01*
X256159000Y-91588500D02*
X258407500Y-91588500D01*
X100530000Y-104702000D02*
X120850000Y-104702000D01*
X133141552Y-94869000D02*
X155321000Y-94869000D01*
X260976000Y-91567000D02*
X258461000Y-91567000D01*
X258407500Y-91588500D02*
X258445000Y-91551000D01*
X127200000Y-98352000D02*
X129658552Y-98352000D01*
X169999000Y-80191000D02*
X241643896Y-80191000D01*
X258461000Y-91567000D02*
X258445000Y-91551000D01*
X253041396Y-91588500D02*
X256159000Y-91588500D01*
%TO.N,/S3_GREEN*%
X101854000Y-105156000D02*
X120904000Y-105156000D01*
X241300000Y-80645000D02*
X252984000Y-92329000D01*
X261357000Y-95631000D02*
X258477000Y-95631000D01*
X255148500Y-95636500D02*
X256159000Y-95636500D01*
X127254000Y-98806000D02*
X130048000Y-98806000D01*
X170307000Y-80645000D02*
X241300000Y-80645000D01*
X252984000Y-93472000D02*
X255148500Y-95636500D01*
X94384500Y-110963000D02*
X96047000Y-110963000D01*
X120904000Y-105156000D02*
X127254000Y-98806000D01*
X258477000Y-95631000D02*
X258445000Y-95599000D01*
X96047000Y-110963000D02*
X101854000Y-105156000D01*
X155575000Y-95377000D02*
X170307000Y-80645000D01*
X130048000Y-98806000D02*
X133477000Y-95377000D01*
X252984000Y-92329000D02*
X252984000Y-93472000D01*
X133477000Y-95377000D02*
X155575000Y-95377000D01*
X258482500Y-95636500D02*
X258445000Y-95599000D01*
X256196500Y-95599000D02*
X256159000Y-95636500D01*
X258445000Y-95599000D02*
X256196500Y-95599000D01*
%TO.N,/S3_BLUE*%
X255164500Y-99843500D02*
X256159000Y-99843500D01*
X256196500Y-99806000D02*
X256159000Y-99843500D01*
X241046000Y-81153000D02*
X252349000Y-92456000D01*
X102489000Y-105664000D02*
X120904000Y-105664000D01*
X258445000Y-99806000D02*
X256196500Y-99806000D01*
X133858000Y-95885000D02*
X155702000Y-95885000D01*
X252349000Y-92456000D02*
X252349000Y-97028000D01*
X252349000Y-97028000D02*
X255164500Y-99843500D01*
X261357000Y-99822000D02*
X258461000Y-99822000D01*
X155702000Y-95885000D02*
X170434000Y-81153000D01*
X96690000Y-111463000D02*
X102489000Y-105664000D01*
X94384500Y-111463000D02*
X96690000Y-111463000D01*
X258461000Y-99822000D02*
X258445000Y-99806000D01*
X120904000Y-105664000D02*
X127254000Y-99314000D01*
X127254000Y-99314000D02*
X130429000Y-99314000D01*
X130429000Y-99314000D02*
X133858000Y-95885000D01*
X170434000Y-81153000D02*
X241046000Y-81153000D01*
%TO.N,/RED*%
X268118500Y-91588500D02*
X266446000Y-91588500D01*
X273559669Y-93100000D02*
X269630000Y-93100000D01*
X269630000Y-93100000D02*
X268118500Y-91588500D01*
X266446000Y-91588500D02*
X263047500Y-91588500D01*
%TO.N,/GREEN*%
X263407000Y-95631000D02*
X266340500Y-95631000D01*
X266340500Y-95631000D02*
X266446000Y-95525500D01*
X266581500Y-95390000D02*
X266446000Y-95525500D01*
X273559669Y-95390000D02*
X266581500Y-95390000D01*
%TO.N,/BLUE*%
X270366000Y-97680000D02*
X273559669Y-97680000D01*
X268202500Y-99843500D02*
X270366000Y-97680000D01*
X263428500Y-99843500D02*
X263407000Y-99822000D01*
X266446000Y-99843500D02*
X268202500Y-99843500D01*
X266446000Y-99843500D02*
X263428500Y-99843500D01*
D38*
%TO.N,/HSYNC*%
X268732000Y-108892500D02*
X268732000Y-110998000D01*
X268785500Y-108839000D02*
X268732000Y-108892500D01*
X273558000Y-105664000D02*
X270383000Y-108839000D01*
X279654000Y-103505000D02*
X277495000Y-105664000D01*
X279654000Y-99814331D02*
X279654000Y-103505000D01*
X277519669Y-97680000D02*
X279654000Y-99814331D01*
X277495000Y-105664000D02*
X273558000Y-105664000D01*
X270383000Y-108839000D02*
X268785500Y-108839000D01*
%TO.N,/VSYNC*%
X279273000Y-101723331D02*
X279273000Y-103251000D01*
X268716000Y-106261500D02*
X268753500Y-106299000D01*
X278384000Y-104140000D02*
X268716000Y-104140000D01*
X277519669Y-99970000D02*
X279273000Y-101723331D01*
X268716000Y-104140000D02*
X268716000Y-106261500D01*
X279273000Y-103251000D02*
X278384000Y-104140000D01*
%TO.N,Net-(U1H-VREF)*%
X94384500Y-106463000D02*
X91371500Y-106463000D01*
X91371500Y-106463000D02*
X89937500Y-105029000D01*
%TO.N,Net-(JP1-Pin_2)*%
X262768000Y-101600000D02*
X256921000Y-107447000D01*
X275539669Y-98825000D02*
X273031000Y-98825000D01*
X273031000Y-98825000D02*
X270256000Y-101600000D01*
X270256000Y-101600000D02*
X262768000Y-101600000D01*
%TO.N,/HS*%
X99441000Y-99388936D02*
X99441000Y-98679000D01*
X100097000Y-100044936D02*
X99441000Y-99388936D01*
X100097000Y-101750500D02*
X100097000Y-100044936D01*
X263043385Y-111405385D02*
X263450770Y-110998000D01*
X263450770Y-110998000D02*
X266732000Y-110998000D01*
%TO.N,/VS*%
X265303000Y-104140000D02*
X266716000Y-104140000D01*
X99314000Y-100076000D02*
X99597000Y-100359000D01*
X99597000Y-100359000D02*
X99597000Y-101750500D01*
%TO.N,Net-(U1F-~{OE})*%
X113411000Y-99441000D02*
X113411000Y-98790000D01*
X112597000Y-100255000D02*
X113411000Y-99441000D01*
X112597000Y-101750500D02*
X112597000Y-100255000D01*
%TO.N,Net-(U1F-~{WE})*%
X112141000Y-100330000D02*
X111379000Y-99568000D01*
X111379000Y-99568000D02*
X111379000Y-98790000D01*
X112097000Y-101750500D02*
X112097000Y-100374000D01*
X112097000Y-100374000D02*
X112141000Y-100330000D01*
%TO.N,Net-(U1F-~{RAS0})*%
X160655000Y-80407000D02*
X159385000Y-79137000D01*
X160655000Y-83439000D02*
X160655000Y-80407000D01*
X150495000Y-93599000D02*
X160655000Y-83439000D01*
X139319000Y-93726000D02*
X139446000Y-93599000D01*
X122892000Y-113963000D02*
X122809000Y-114046000D01*
X124309500Y-113963000D02*
X122892000Y-113963000D01*
X139446000Y-93599000D02*
X150495000Y-93599000D01*
%TO.N,Net-(U1F-~{CAS0})*%
X127711000Y-112963000D02*
X127905000Y-113157000D01*
X124309500Y-112963000D02*
X127711000Y-112963000D01*
%TO.N,Net-(U1F-~{CAS1})*%
X124309500Y-113463000D02*
X121995000Y-113463000D01*
X121995000Y-113463000D02*
X120269000Y-115189000D01*
X171206000Y-130159000D02*
X172720000Y-130159000D01*
X120269000Y-115189000D02*
X120269000Y-118999000D01*
X120269000Y-118999000D02*
X122809000Y-121539000D01*
X170815000Y-130550000D02*
X171206000Y-130159000D01*
%TO.N,Net-(U1F-~{CAS2})*%
X154305000Y-117475000D02*
X154305000Y-115062000D01*
X177038000Y-127889000D02*
X177038000Y-128159000D01*
X154305000Y-115062000D02*
X156083000Y-113284000D01*
X156083000Y-113284000D02*
X162433000Y-113284000D01*
X169926000Y-120777000D02*
X177038000Y-127889000D01*
X131028000Y-114463000D02*
X124309500Y-114463000D01*
X131318000Y-114173000D02*
X131028000Y-114463000D01*
X169926000Y-116840000D02*
X169926000Y-120777000D01*
X162433000Y-113284000D02*
X163703000Y-114554000D01*
X167640000Y-114554000D02*
X169926000Y-116840000D01*
X163703000Y-114554000D02*
X167640000Y-114554000D01*
%TO.N,Net-(U1F-~{CAS3})*%
X171577000Y-129159000D02*
X168021000Y-125603000D01*
X132334000Y-114046000D02*
X131417000Y-114963000D01*
X167640000Y-118364000D02*
X155448000Y-118364000D01*
X173879000Y-129159000D02*
X171577000Y-129159000D01*
X155448000Y-118364000D02*
X155067000Y-117983000D01*
X168021000Y-118745000D02*
X167640000Y-118364000D01*
X174879000Y-130159000D02*
X173879000Y-129159000D01*
X131417000Y-114963000D02*
X124309500Y-114963000D01*
X168021000Y-125603000D02*
X168021000Y-118745000D01*
%TO.N,Net-(U1F-~{CAS4})*%
X121810631Y-134643000D02*
X120097000Y-132929369D01*
X120097000Y-132929369D02*
X120097000Y-131675500D01*
X126596000Y-134643000D02*
X121810631Y-134643000D01*
X157353000Y-82550000D02*
X157353000Y-81137000D01*
X151892000Y-129032000D02*
X132207000Y-129032000D01*
X132207000Y-129032000D02*
X126596000Y-134643000D01*
%TO.N,Net-(U1F-~{CAS5})*%
X155067000Y-82296000D02*
X155067000Y-81391000D01*
X122047000Y-134366000D02*
X120597000Y-132916000D01*
X151824271Y-128022500D02*
X151195771Y-128651000D01*
X132080000Y-128651000D02*
X126365000Y-134366000D01*
X126365000Y-134366000D02*
X122047000Y-134366000D01*
X155067000Y-81391000D02*
X155321000Y-81137000D01*
X120597000Y-132916000D02*
X120597000Y-131675500D01*
X151195771Y-128651000D02*
X132080000Y-128651000D01*
%TO.N,Net-(U1F-~{CAS6})*%
X132034000Y-128189000D02*
X126238000Y-133985000D01*
X156083000Y-82677000D02*
X156083000Y-83963000D01*
X151765000Y-127254000D02*
X150830000Y-128189000D01*
X122428000Y-133985000D02*
X121597000Y-133154000D01*
X126238000Y-133985000D02*
X122428000Y-133985000D01*
X150830000Y-128189000D02*
X132034000Y-128189000D01*
X121597000Y-133154000D02*
X121597000Y-131675500D01*
%TO.N,Net-(U1F-~{CAS7})*%
X127837564Y-131675500D02*
X122097000Y-131675500D01*
X150218000Y-127912000D02*
X131601064Y-127912000D01*
X151765000Y-126365000D02*
X150218000Y-127912000D01*
X131601064Y-127912000D02*
X127837564Y-131675500D01*
X154051000Y-82677000D02*
X154051000Y-83963000D01*
%TO.N,Net-(U1G-~{SRESET})*%
X94384500Y-121963000D02*
X92540000Y-121963000D01*
X70485000Y-134747000D02*
X68945000Y-134747000D01*
D39*
X62843500Y-130302000D02*
X62738000Y-130407500D01*
X73660000Y-130302000D02*
X62843500Y-130302000D01*
D38*
X92317000Y-122186000D02*
X90920000Y-122186000D01*
X68945000Y-134747000D02*
X68818000Y-134874000D01*
X90920000Y-122186000D02*
X90424000Y-122682000D01*
X92540000Y-121963000D02*
X92317000Y-122186000D01*
%TO.N,Net-(U1D-LD0{slash}PA0)*%
X80010000Y-85598000D02*
X64262000Y-85598000D01*
X101597000Y-101750500D02*
X101597000Y-99438000D01*
X64262000Y-85598000D02*
X57785000Y-79121000D01*
X80137000Y-85598000D02*
X80010000Y-85598000D01*
X101597000Y-99438000D02*
X98806000Y-96647000D01*
X98806000Y-96647000D02*
X91186000Y-96647000D01*
X91186000Y-96647000D02*
X80137000Y-85598000D01*
X57785000Y-79121000D02*
X56499000Y-79121000D01*
%TO.N,Net-(U1D-LD1{slash}PA1)*%
X101097000Y-99446000D02*
X98575000Y-96924000D01*
X101097000Y-101750500D02*
X101097000Y-99446000D01*
X98575000Y-96924000D02*
X90838738Y-96924000D01*
X62103000Y-85979000D02*
X57785000Y-81661000D01*
X79893738Y-85979000D02*
X62103000Y-85979000D01*
X90838738Y-96924000D02*
X79893738Y-85979000D01*
X57785000Y-81661000D02*
X56499000Y-81661000D01*
%TO.N,Net-(U1D-LD2{slash}PA2)*%
X90805000Y-97282000D02*
X79883000Y-86360000D01*
X59563000Y-86360000D02*
X57404000Y-84201000D01*
X96393000Y-97282000D02*
X90805000Y-97282000D01*
X97597000Y-98486000D02*
X96393000Y-97282000D01*
X79883000Y-86360000D02*
X59563000Y-86360000D01*
X57404000Y-84201000D02*
X56499000Y-84201000D01*
X97597000Y-101750500D02*
X97597000Y-98486000D01*
%TO.N,Net-(U1D-LD3{slash}PA3)*%
X90551000Y-97663000D02*
X79629000Y-86741000D01*
X79629000Y-86741000D02*
X56499000Y-86741000D01*
X96139000Y-97663000D02*
X90551000Y-97663000D01*
X97097000Y-98621000D02*
X96139000Y-97663000D01*
X97097000Y-101750500D02*
X97097000Y-98621000D01*
%TO.N,Net-(U1D-LD4{slash}PA4)*%
X56499000Y-89281000D02*
X63500000Y-89281000D01*
X63500000Y-89281000D02*
X86682000Y-112463000D01*
X86682000Y-112463000D02*
X94384500Y-112463000D01*
%TO.N,Net-(U1D-LD5{slash}PA5)*%
X72771000Y-99060000D02*
X86674000Y-112963000D01*
X63738000Y-99060000D02*
X72771000Y-99060000D01*
X86674000Y-112963000D02*
X94384500Y-112963000D01*
X56499000Y-91821000D02*
X63738000Y-99060000D01*
%TO.N,Net-(U1D-LD6{slash}PA6)*%
X86667500Y-113464500D02*
X72621000Y-99418000D01*
X94383000Y-117461500D02*
X94384500Y-117463000D01*
X92964000Y-117461500D02*
X94383000Y-117461500D01*
X90551000Y-113464500D02*
X86667500Y-113464500D01*
X72621000Y-99418000D02*
X61556000Y-99418000D01*
X61556000Y-99418000D02*
X56499000Y-94361000D01*
%TO.N,Net-(U1D-LD7{slash}PA7)*%
X91440000Y-113538000D02*
X90684000Y-114294000D01*
X61341000Y-99822000D02*
X58420000Y-96901000D01*
X86989000Y-114294000D02*
X72517000Y-99822000D01*
X90684000Y-114294000D02*
X86989000Y-114294000D01*
X96792262Y-126463000D02*
X94384500Y-126463000D01*
X98679000Y-124576262D02*
X96792262Y-126463000D01*
X98679000Y-114173000D02*
X98679000Y-124576262D01*
X72517000Y-99822000D02*
X61341000Y-99822000D01*
X58420000Y-96901000D02*
X56499000Y-96901000D01*
X97917000Y-113411000D02*
X98679000Y-114173000D01*
%TO.N,/EVIDEO*%
X70993000Y-92710000D02*
X70993000Y-91964000D01*
X99441000Y-110744000D02*
X99441000Y-124206000D01*
X99441000Y-124206000D02*
X96684000Y-126963000D01*
X70993000Y-91964000D02*
X69326000Y-90297000D01*
X96684000Y-126963000D02*
X94384500Y-126963000D01*
D35*
%TO.N,VCC*%
X159512000Y-125349000D02*
X160760500Y-126597500D01*
D36*
X95049092Y-104463000D02*
X94384500Y-104463000D01*
D35*
X69326000Y-88265000D02*
X70739000Y-88265000D01*
X244326500Y-130810000D02*
X244348000Y-130788500D01*
X65389000Y-95885000D02*
X65389000Y-97393000D01*
D36*
X124309500Y-124963000D02*
X122179000Y-124963000D01*
D35*
X156972000Y-107569000D02*
X159131000Y-107569000D01*
X56515000Y-104156000D02*
X56499000Y-104140000D01*
D36*
X114597000Y-129497000D02*
X114935000Y-129159000D01*
D35*
X104940000Y-142300000D02*
X104940000Y-138087000D01*
X65389000Y-97393000D02*
X65405000Y-97409000D01*
D36*
X92075000Y-121666000D02*
X92278000Y-121463000D01*
X122829000Y-115463000D02*
X122682000Y-115316000D01*
D35*
X137158000Y-125349000D02*
X139319000Y-125349000D01*
D36*
X102097000Y-131675500D02*
X102097000Y-130059000D01*
D35*
X242697000Y-119380000D02*
X244459000Y-119380000D01*
X151384000Y-81153000D02*
X151405500Y-81174500D01*
X122301000Y-90500000D02*
X122301000Y-87884000D01*
X122301000Y-87884000D02*
X122174000Y-87757000D01*
X69088000Y-137414000D02*
X69370000Y-137696000D01*
D36*
X94384500Y-107463000D02*
X96245000Y-107463000D01*
X94384500Y-110463000D02*
X95658000Y-110463000D01*
D35*
X244459000Y-119380000D02*
X244475000Y-119396000D01*
D36*
X95107092Y-104521000D02*
X95049092Y-104463000D01*
D35*
X111633000Y-90500000D02*
X111633000Y-88011000D01*
X237728000Y-134239000D02*
X237601000Y-134239000D01*
X146431000Y-90500000D02*
X146431000Y-88646000D01*
X82698500Y-83460500D02*
X80391000Y-83460500D01*
X245469500Y-130788500D02*
X244348000Y-130788500D01*
X52860000Y-137696000D02*
X52832000Y-137668000D01*
D36*
X95921291Y-105463000D02*
X94384500Y-105463000D01*
X114597000Y-131675500D02*
X114597000Y-129497000D01*
D35*
X104940000Y-138087000D02*
X104394000Y-137541000D01*
D36*
X122179000Y-124963000D02*
X122174000Y-124968000D01*
D35*
X87503000Y-88265000D02*
X82698500Y-83460500D01*
X239903000Y-131699000D02*
X241300000Y-131699000D01*
X93853000Y-90500000D02*
X93853000Y-88265000D01*
X239903000Y-132064000D02*
X237728000Y-134239000D01*
X140081000Y-130302000D02*
X140081000Y-131205500D01*
X52860000Y-142300000D02*
X52860000Y-137696000D01*
X56515000Y-105791000D02*
X56515000Y-104156000D01*
X248378500Y-131191000D02*
X245872000Y-131191000D01*
D36*
X96158000Y-109963000D02*
X96393000Y-109728000D01*
X106172000Y-100203000D02*
X106097000Y-100278000D01*
D35*
X137158000Y-101219000D02*
X139319000Y-101219000D01*
X140081000Y-131205500D02*
X141075500Y-132200000D01*
X128651000Y-90500000D02*
X128651000Y-87757000D01*
X245872000Y-131191000D02*
X245469500Y-130788500D01*
X156972000Y-101219000D02*
X159131000Y-101219000D01*
D36*
X96245000Y-107463000D02*
X96266000Y-107442000D01*
D35*
X85880000Y-137767000D02*
X85979000Y-137668000D01*
D36*
X92278000Y-121463000D02*
X94384500Y-121463000D01*
X96266000Y-105118291D02*
X95921291Y-105463000D01*
D35*
X151405500Y-81174500D02*
X153289000Y-81174500D01*
X86487000Y-107442000D02*
X87519000Y-107442000D01*
D36*
X124296500Y-107950000D02*
X124309500Y-107963000D01*
D35*
X85880000Y-142300000D02*
X85880000Y-137767000D01*
X87519000Y-107442000D02*
X87900000Y-107061000D01*
X242189000Y-130810000D02*
X244326500Y-130810000D01*
D36*
X95658000Y-110463000D02*
X96393000Y-109728000D01*
D35*
X156972000Y-125349000D02*
X159512000Y-125349000D01*
D36*
X102097000Y-130059000D02*
X102235000Y-129921000D01*
D35*
X160760500Y-126597500D02*
X160760500Y-132080000D01*
X87503000Y-88265000D02*
X87503000Y-90500000D01*
X111633000Y-88011000D02*
X111887000Y-87757000D01*
X137158000Y-107569000D02*
X139319000Y-107569000D01*
D36*
X96266000Y-104521000D02*
X95107092Y-104521000D01*
D35*
X69370000Y-137696000D02*
X69370000Y-142300000D01*
X239903000Y-131699000D02*
X239903000Y-132064000D01*
X241300000Y-131699000D02*
X242189000Y-130810000D01*
D36*
X106097000Y-100278000D02*
X106097000Y-101750500D01*
X124309500Y-115463000D02*
X122829000Y-115463000D01*
X94384500Y-109963000D02*
X96158000Y-109963000D01*
X96266000Y-104521000D02*
X96266000Y-105118291D01*
X122555000Y-107950000D02*
X124296500Y-107950000D01*
D38*
%TO.N,/EVCLK*%
X57404000Y-101854000D02*
X58420000Y-102870000D01*
X56499000Y-101854000D02*
X57404000Y-101854000D01*
X100076000Y-123962738D02*
X96575738Y-127463000D01*
X100076000Y-110236000D02*
X100076000Y-123962738D01*
X96575738Y-127463000D02*
X94384500Y-127463000D01*
X100330000Y-109982000D02*
X100076000Y-110236000D01*
%TO.N,/LCLK*%
X100584000Y-101737500D02*
X100597000Y-101750500D01*
X100584000Y-99822000D02*
X100584000Y-101737500D01*
X57404000Y-99441000D02*
X58420000Y-100457000D01*
X56499000Y-99441000D02*
X57404000Y-99441000D01*
%TO.N,Net-(U1H-RSET)*%
X89900000Y-109093000D02*
X89900000Y-111125000D01*
X93086000Y-108463000D02*
X92456000Y-109093000D01*
X94384500Y-108463000D02*
X93086000Y-108463000D01*
X92456000Y-109093000D02*
X89900000Y-109093000D01*
%TO.N,/VL Bus/SINTR*%
X98597000Y-99569500D02*
X98597000Y-101750500D01*
X98598500Y-99568000D02*
X98597000Y-99569500D01*
%TO.N,/ISA Bus/ROMCS*%
X98097000Y-102923000D02*
X98097000Y-101750500D01*
X98679000Y-103505000D02*
X98097000Y-102923000D01*
X248378500Y-129921000D02*
X246126000Y-129921000D01*
D36*
%TO.N,Net-(U1H-XIN)*%
X85799000Y-101420000D02*
X85799000Y-99822000D01*
X86129500Y-101750500D02*
X85799000Y-101420000D01*
X96597000Y-101750500D02*
X86129500Y-101750500D01*
%TO.N,Net-(U1H-XOUT)*%
X83442000Y-103963000D02*
X80899000Y-101420000D01*
X80899000Y-101420000D02*
X80899000Y-99822000D01*
X94384500Y-103963000D02*
X83442000Y-103963000D01*
D38*
%TO.N,/BLANK*%
X97216000Y-128463000D02*
X94384500Y-128463000D01*
X59817000Y-104013000D02*
X59817000Y-102997000D01*
X100965000Y-124714000D02*
X97216000Y-128463000D01*
X100965000Y-112141000D02*
X100965000Y-124714000D01*
X57404000Y-106426000D02*
X59817000Y-104013000D01*
X52959000Y-104140000D02*
X52959000Y-104648000D01*
X54737000Y-106426000D02*
X57404000Y-106426000D01*
X59817000Y-102997000D02*
X62611000Y-100203000D01*
X50800000Y-101981000D02*
X52959000Y-104140000D01*
X101219000Y-111887000D02*
X100965000Y-112141000D01*
X62611000Y-100203000D02*
X72390000Y-100203000D01*
X52959000Y-104648000D02*
X54737000Y-106426000D01*
X86995000Y-114808000D02*
X89789000Y-114808000D01*
X72390000Y-100203000D02*
X86995000Y-114808000D01*
%TO.N,/ISA Bus/SMEMR*%
X255303500Y-131191000D02*
X255303500Y-131605500D01*
X255303500Y-131605500D02*
X256921000Y-133223000D01*
%TO.N,Net-(J3-Pin_2)*%
X54499000Y-79121000D02*
X50800000Y-79121000D01*
%TO.N,Net-(J3-Pin_4)*%
X50800000Y-81661000D02*
X54499000Y-81661000D01*
%TO.N,Net-(J3-Pin_6)*%
X50800000Y-84201000D02*
X54499000Y-84201000D01*
%TO.N,Net-(J3-Pin_7)*%
X49530000Y-88011000D02*
X63373000Y-88011000D01*
X67326000Y-88265000D02*
X67326000Y-90297000D01*
X48260000Y-86741000D02*
X49530000Y-88011000D01*
X63373000Y-88011000D02*
X63627000Y-88265000D01*
X63627000Y-88265000D02*
X67326000Y-88265000D01*
%TO.N,Net-(J3-Pin_8)*%
X50800000Y-86741000D02*
X54499000Y-86741000D01*
%TO.N,Net-(J3-Pin_9)*%
X49530000Y-90551000D02*
X61722000Y-90551000D01*
X63389000Y-95885000D02*
X63389000Y-93726000D01*
X63389000Y-92218000D02*
X63389000Y-93726000D01*
X48260000Y-89281000D02*
X49530000Y-90551000D01*
X61722000Y-90551000D02*
X63389000Y-92218000D01*
%TO.N,Net-(J3-Pin_10)*%
X50800000Y-89281000D02*
X54499000Y-89281000D01*
%TO.N,Net-(J3-Pin_11)*%
X49530000Y-99949000D02*
X50292000Y-100711000D01*
X50292000Y-100711000D02*
X52070000Y-100711000D01*
X53213000Y-101854000D02*
X54499000Y-101854000D01*
X49530000Y-93091000D02*
X49530000Y-99949000D01*
X52070000Y-100711000D02*
X53213000Y-101854000D01*
X54499000Y-104140000D02*
X54499000Y-101854000D01*
X48260000Y-91821000D02*
X49530000Y-93091000D01*
%TO.N,Net-(J3-Pin_12)*%
X50800000Y-91821000D02*
X54499000Y-91821000D01*
%TO.N,Net-(J3-Pin_14)*%
X50800000Y-94361000D02*
X54499000Y-94361000D01*
%TO.N,Net-(J3-Pin_16)*%
X50800000Y-96901000D02*
X54499000Y-96901000D01*
%TO.N,Net-(J3-Pin_18)*%
X50800000Y-99441000D02*
X54499000Y-99441000D01*
%TO.N,/ESYNC*%
X97227579Y-127963000D02*
X94384500Y-127963000D01*
X65389000Y-93726000D02*
X66040000Y-93726000D01*
X100577500Y-124613079D02*
X97227579Y-127963000D01*
X66040000Y-93726000D02*
X66929000Y-94615000D01*
X100577500Y-111004500D02*
X100577500Y-124613079D01*
X101219000Y-110363000D02*
X100577500Y-111004500D01*
%TO.N,Net-(U1H-~{PDOWN})*%
X91160000Y-107061000D02*
X89900000Y-107061000D01*
X94384500Y-107963000D02*
X92062000Y-107963000D01*
X92062000Y-107963000D02*
X91160000Y-107061000D01*
D35*
%TO.N,Net-(U2-A17)*%
X234823000Y-131699000D02*
X234823000Y-133461000D01*
X234823000Y-133461000D02*
X235601000Y-134239000D01*
D38*
%TO.N,Net-(U2-A16)*%
X237363000Y-116459000D02*
X242300000Y-121396000D01*
X242300000Y-121396000D02*
X244475000Y-121396000D01*
%TD*%
M02*
