%TF.GenerationSoftware,KiCad,Pcbnew,7.0.1*%
%TF.CreationDate,2023-06-12T23:07:52+03:00*%
%TF.ProjectId,virge-vlb,76697267-652d-4766-9c62-2e6b69636164,rev?*%
%TF.SameCoordinates,Original*%
%TF.FileFunction,Copper,L4,Bot*%
%TF.FilePolarity,Positive*%
%FSLAX46Y46*%
G04 Gerber Fmt 4.6, Leading zero omitted, Abs format (unit mm)*
G04 Created by KiCad (PCBNEW 7.0.1) date 2023-06-12 23:07:52*
%MOMM*%
%LPD*%
G01*
G04 APERTURE LIST*
%TA.AperFunction,ComponentPad*%
%ADD10R,1.700000X1.700000*%
%TD*%
%TA.AperFunction,ComponentPad*%
%ADD11O,1.700000X1.700000*%
%TD*%
%TA.AperFunction,ComponentPad*%
%ADD12C,1.500000*%
%TD*%
%TA.AperFunction,ComponentPad*%
%ADD13C,4.000000*%
%TD*%
%TA.AperFunction,ComponentPad*%
%ADD14R,1.600000X1.600000*%
%TD*%
%TA.AperFunction,ComponentPad*%
%ADD15C,1.600000*%
%TD*%
%TA.AperFunction,ConnectorPad*%
%ADD16R,1.020000X4.570000*%
%TD*%
%TA.AperFunction,ConnectorPad*%
%ADD17R,0.510000X0.760000*%
%TD*%
%TA.AperFunction,ConnectorPad*%
%ADD18R,1.780000X7.620000*%
%TD*%
%TA.AperFunction,ComponentPad*%
%ADD19O,1.600000X1.600000*%
%TD*%
%TA.AperFunction,ViaPad*%
%ADD20C,0.600000*%
%TD*%
%TA.AperFunction,Conductor*%
%ADD21C,0.400000*%
%TD*%
%TA.AperFunction,Conductor*%
%ADD22C,0.600000*%
%TD*%
%TA.AperFunction,Conductor*%
%ADD23C,0.150000*%
%TD*%
%TA.AperFunction,Conductor*%
%ADD24C,0.127000*%
%TD*%
G04 APERTURE END LIST*
D10*
%TO.P,J3,1,Pin_1*%
%TO.N,GND*%
X48260000Y-79121000D03*
D11*
%TO.P,J3,2,Pin_2*%
%TO.N,Net-(J3-Pin_2)*%
X50800000Y-79121000D03*
%TO.P,J3,3,Pin_3*%
%TO.N,GND*%
X48260000Y-81661000D03*
%TO.P,J3,4,Pin_4*%
%TO.N,Net-(J3-Pin_4)*%
X50800000Y-81661000D03*
%TO.P,J3,5,Pin_5*%
%TO.N,GND*%
X48260000Y-84201000D03*
%TO.P,J3,6,Pin_6*%
%TO.N,Net-(J3-Pin_6)*%
X50800000Y-84201000D03*
%TO.P,J3,7,Pin_7*%
%TO.N,Net-(J3-Pin_7)*%
X48260000Y-86741000D03*
%TO.P,J3,8,Pin_8*%
%TO.N,Net-(J3-Pin_8)*%
X50800000Y-86741000D03*
%TO.P,J3,9,Pin_9*%
%TO.N,Net-(J3-Pin_9)*%
X48260000Y-89281000D03*
%TO.P,J3,10,Pin_10*%
%TO.N,Net-(J3-Pin_10)*%
X50800000Y-89281000D03*
%TO.P,J3,11,Pin_11*%
%TO.N,Net-(J3-Pin_11)*%
X48260000Y-91821000D03*
%TO.P,J3,12,Pin_12*%
%TO.N,Net-(J3-Pin_12)*%
X50800000Y-91821000D03*
%TO.P,J3,13,Pin_13*%
%TO.N,unconnected-(J3-Pin_13-Pad13)*%
X48260000Y-94361000D03*
%TO.P,J3,14,Pin_14*%
%TO.N,Net-(J3-Pin_14)*%
X50800000Y-94361000D03*
%TO.P,J3,15,Pin_15*%
%TO.N,GND*%
X48260000Y-96901000D03*
%TO.P,J3,16,Pin_16*%
%TO.N,Net-(J3-Pin_16)*%
X50800000Y-96901000D03*
%TO.P,J3,17,Pin_17*%
%TO.N,GND*%
X48260000Y-99441000D03*
%TO.P,J3,18,Pin_18*%
%TO.N,Net-(J3-Pin_18)*%
X50800000Y-99441000D03*
%TO.P,J3,19,Pin_19*%
%TO.N,GND*%
X48260000Y-101981000D03*
%TO.P,J3,20,Pin_20*%
%TO.N,/BLANK*%
X50800000Y-101981000D03*
%TO.P,J3,21,Pin_21*%
%TO.N,GND*%
X48260000Y-104521000D03*
%TO.P,J3,22,Pin_22*%
%TO.N,/HS*%
X50800000Y-104521000D03*
%TO.P,J3,23,Pin_23*%
%TO.N,unconnected-(J3-Pin_23-Pad23)*%
X48260000Y-107061000D03*
%TO.P,J3,24,Pin_24*%
%TO.N,/VS*%
X50800000Y-107061000D03*
%TO.P,J3,25,Pin_25*%
%TO.N,unconnected-(J3-Pin_25-Pad25)*%
X48260000Y-109601000D03*
%TO.P,J3,26,Pin_26*%
%TO.N,GND*%
X50800000Y-109601000D03*
%TD*%
D10*
%TO.P,JP1,1,Pin_1*%
%TO.N,VCC*%
X256921000Y-109987000D03*
D11*
%TO.P,JP1,2,Pin_2*%
%TO.N,Net-(JP1-Pin_2)*%
X256921000Y-107447000D03*
%TD*%
D12*
%TO.P,Y1,1,1*%
%TO.N,Net-(U1H-XOUT)*%
X80952000Y-99822000D03*
%TO.P,Y1,2,2*%
%TO.N,Net-(U1H-XIN)*%
X85852000Y-99822000D03*
%TD*%
D13*
%TO.P,J2,0*%
%TO.N,N/C*%
X274979669Y-109915000D03*
X274979669Y-84915000D03*
D14*
%TO.P,J2,1*%
%TO.N,/RED*%
X273559669Y-93100000D03*
D15*
%TO.P,J2,2*%
%TO.N,/GREEN*%
X273559669Y-95390000D03*
%TO.P,J2,3*%
%TO.N,/BLUE*%
X273559669Y-97680000D03*
%TO.P,J2,4*%
%TO.N,unconnected-(J2-Pad4)*%
X273559669Y-99970000D03*
%TO.P,J2,5*%
%TO.N,GND*%
X273559669Y-102260000D03*
%TO.P,J2,6*%
X275539669Y-91955000D03*
%TO.P,J2,7*%
X275539669Y-94245000D03*
%TO.P,J2,8*%
X275539669Y-96535000D03*
%TO.P,J2,9*%
%TO.N,Net-(JP1-Pin_2)*%
X275539669Y-98825000D03*
%TO.P,J2,10*%
%TO.N,GND*%
X275539669Y-101115000D03*
%TO.P,J2,11*%
%TO.N,unconnected-(J2-Pad11)*%
X277519669Y-93100000D03*
%TO.P,J2,12*%
%TO.N,unconnected-(J2-Pad12)*%
X277519669Y-95390000D03*
%TO.P,J2,13*%
%TO.N,/HSYNC*%
X277519669Y-97680000D03*
%TO.P,J2,14*%
%TO.N,/VSYNC*%
X277519669Y-99970000D03*
%TO.P,J2,15*%
%TO.N,unconnected-(J2-Pad15)*%
X277519669Y-102260000D03*
%TD*%
D10*
%TO.P,JP2,1,Pin_1*%
%TO.N,unconnected-(JP2-Pin_1-Pad1)*%
X49530000Y-117475000D03*
D11*
%TO.P,JP2,2,Pin_2*%
%TO.N,/VL Bus/SINTR*%
X49530000Y-120015000D03*
%TO.P,JP2,3,Pin_3*%
%TO.N,/VL Bus/IRQ9*%
X49530000Y-122555000D03*
%TD*%
D16*
%TO.P,J1,B1,D0*%
%TO.N,/VL Bus/VL_D0*%
X118900000Y-142300000D03*
D17*
X118900000Y-144960000D03*
D16*
%TO.P,J1,B2,D2*%
%TO.N,/VL Bus/VL_D2*%
X117630000Y-142300000D03*
D17*
X117630000Y-144960000D03*
D16*
%TO.P,J1,B3,D4*%
%TO.N,/VL Bus/VL_D4*%
X116370000Y-142300000D03*
D17*
X116370000Y-144960000D03*
D16*
%TO.P,J1,B4,D6*%
%TO.N,/VL Bus/VL_D6*%
X115090000Y-142300000D03*
D17*
X115090000Y-144960000D03*
D16*
%TO.P,J1,B5,D8*%
%TO.N,/VL Bus/VL_D8*%
X113820000Y-142300000D03*
D17*
X113820000Y-144960000D03*
D16*
%TO.P,J1,B6,VSS*%
%TO.N,GND*%
X112550000Y-142300000D03*
D17*
X112550000Y-144960000D03*
D16*
%TO.P,J1,B7,D10*%
%TO.N,/VL Bus/VL_D10*%
X111280000Y-142300000D03*
D17*
X111280000Y-144960000D03*
D16*
%TO.P,J1,B8,D12*%
%TO.N,/VL Bus/VL_D12*%
X110010000Y-142300000D03*
D17*
X110010000Y-144960000D03*
D16*
%TO.P,J1,B9,VCC*%
%TO.N,VCC*%
X108740000Y-142300000D03*
D17*
X108740000Y-144960000D03*
D16*
%TO.P,J1,B10,D14*%
%TO.N,/VL Bus/VL_D14*%
X107470000Y-142300000D03*
D17*
X107470000Y-144960000D03*
D16*
%TO.P,J1,B11,D16*%
%TO.N,/VL Bus/VL_D16*%
X106200000Y-142300000D03*
D17*
X106200000Y-144960000D03*
D16*
%TO.P,J1,B12,D18*%
%TO.N,/VL Bus/VL_D18*%
X104940000Y-142300000D03*
D17*
X104940000Y-144960000D03*
D16*
%TO.P,J1,B13,D20*%
%TO.N,/VL Bus/VL_D20*%
X103660000Y-142300000D03*
D17*
X103660000Y-144960000D03*
D16*
%TO.P,J1,B14,VSS*%
%TO.N,GND*%
X102390000Y-142300000D03*
D17*
X102390000Y-144960000D03*
D16*
%TO.P,J1,B15,D22*%
%TO.N,/VL Bus/VL_D22*%
X101120000Y-142300000D03*
D17*
X101120000Y-144960000D03*
D16*
%TO.P,J1,B16,D24*%
%TO.N,/VL Bus/VL_D24*%
X99850000Y-142300000D03*
D17*
X99850000Y-144960000D03*
D16*
%TO.P,J1,B17,D26*%
%TO.N,/VL Bus/VL_D26*%
X98580000Y-142300000D03*
D17*
X98580000Y-144960000D03*
D16*
%TO.P,J1,B18,D28*%
%TO.N,/VL Bus/VL_D28*%
X97310000Y-142300000D03*
D17*
X97310000Y-144960000D03*
D16*
%TO.P,J1,B19,D30*%
%TO.N,/VL Bus/VL_D30*%
X96050000Y-142300000D03*
D17*
X96050000Y-144960000D03*
D16*
%TO.P,J1,B20,VCC*%
%TO.N,VCC*%
X94770000Y-142300000D03*
D17*
X94770000Y-144960000D03*
D16*
%TO.P,J1,B21,A31*%
%TO.N,/VL Bus/VL_A31*%
X93510000Y-142300000D03*
D17*
X93510000Y-144960000D03*
D16*
%TO.P,J1,B22,VSS*%
%TO.N,GND*%
X92230000Y-142300000D03*
D17*
X92230000Y-144960000D03*
D16*
%TO.P,J1,B23,A29*%
%TO.N,/VL Bus/VL_A29*%
X90960000Y-142300000D03*
D17*
X90960000Y-144960000D03*
D16*
%TO.P,J1,B24,A27*%
%TO.N,/VL Bus/VL_A27*%
X89690000Y-142300000D03*
D17*
X89690000Y-144960000D03*
D16*
%TO.P,J1,B25,A25*%
%TO.N,/VL Bus/VL_A25*%
X88420000Y-142300000D03*
D17*
X88420000Y-144960000D03*
D16*
%TO.P,J1,B26,A23*%
%TO.N,/VL Bus/VL_A23*%
X87150000Y-142300000D03*
D17*
X87150000Y-144960000D03*
D16*
%TO.P,J1,B27,A21*%
%TO.N,/VL Bus/VL_A21*%
X85880000Y-142300000D03*
D17*
X85880000Y-144960000D03*
D16*
%TO.P,J1,B28,A19*%
%TO.N,/VL Bus/VL_A19*%
X84610000Y-142300000D03*
D17*
X84610000Y-144960000D03*
D16*
%TO.P,J1,B29,VSS*%
%TO.N,GND*%
X83340000Y-142300000D03*
D17*
X83340000Y-144960000D03*
D16*
%TO.P,J1,B30,A17*%
%TO.N,/VL Bus/VL_A17*%
X82070000Y-142300000D03*
D17*
X82070000Y-144960000D03*
D16*
%TO.P,J1,B31,A15*%
%TO.N,/VL Bus/VL_A15*%
X80800000Y-142300000D03*
D17*
X80800000Y-144960000D03*
D16*
%TO.P,J1,B32,VCC*%
%TO.N,VCC*%
X79530000Y-142300000D03*
D17*
X79530000Y-144960000D03*
D16*
%TO.P,J1,B33,A13*%
%TO.N,/VL Bus/VL_A13*%
X78260000Y-142300000D03*
D17*
X78260000Y-144960000D03*
D16*
%TO.P,J1,B34,A11*%
%TO.N,/VL Bus/VL_A11*%
X76990000Y-142300000D03*
D17*
X76990000Y-144960000D03*
D16*
%TO.P,J1,B35,A9*%
%TO.N,/VL Bus/VL_A9*%
X75720000Y-142300000D03*
D17*
X75720000Y-144960000D03*
D16*
%TO.P,J1,B36,A7*%
%TO.N,/VL Bus/VL_A7*%
X74450000Y-142300000D03*
D17*
X74450000Y-144960000D03*
D16*
%TO.P,J1,B37,A5*%
%TO.N,/VL Bus/VL_A5*%
X73180000Y-142300000D03*
D17*
X73180000Y-144960000D03*
D16*
%TO.P,J1,B38,VSS*%
%TO.N,GND*%
X71910000Y-142300000D03*
D17*
X71910000Y-144960000D03*
D16*
%TO.P,J1,B39,A3*%
%TO.N,/VL Bus/VL_A3*%
X70640000Y-142300000D03*
D17*
X70640000Y-144960000D03*
D16*
%TO.P,J1,B40,A2*%
%TO.N,/VL Bus/VL_A2*%
X69370000Y-142300000D03*
D17*
X69370000Y-144960000D03*
D16*
%TO.P,J1,B41,NC*%
%TO.N,unconnected-(J1A-NC-PadB41)*%
X68100000Y-142300000D03*
D17*
X68100000Y-144960000D03*
D16*
%TO.P,J1,B42,~{RESET}*%
%TO.N,/VL Bus/RST*%
X66830000Y-142300000D03*
D17*
X66830000Y-144960000D03*
D16*
%TO.P,J1,B43,D/C*%
%TO.N,unconnected-(J1A-D{slash}C-PadB43)*%
X65560000Y-142300000D03*
D17*
X65560000Y-144960000D03*
D16*
%TO.P,J1,B44,M/IO*%
%TO.N,/VL Bus/M{slash}IO*%
X64290000Y-142300000D03*
D17*
X64290000Y-144960000D03*
D16*
%TO.P,J1,B45,W/R*%
%TO.N,/VL Bus/W{slash}R*%
X63020000Y-142300000D03*
D17*
X63020000Y-144960000D03*
D16*
%TO.P,J1,B48,RDYRTN*%
%TO.N,/VL Bus/RDYR*%
X59210000Y-142300000D03*
D17*
X59210000Y-144960000D03*
D16*
%TO.P,J1,B49,VSS*%
%TO.N,GND*%
X57940000Y-142300000D03*
D17*
X57940000Y-144960000D03*
D16*
%TO.P,J1,B50,IRQ9*%
%TO.N,/VL Bus/IRQ9*%
X56670000Y-142300000D03*
D17*
X56670000Y-144960000D03*
D16*
%TO.P,J1,B51,BRDY*%
%TO.N,unconnected-(J1A-BRDY-PadB51)*%
X55400000Y-142300000D03*
D17*
X55400000Y-144960000D03*
D16*
%TO.P,J1,B52,BLAST*%
%TO.N,unconnected-(J1A-BLAST-PadB52)*%
X54130000Y-142300000D03*
D17*
X54130000Y-144960000D03*
D16*
%TO.P,J1,B53,ID0*%
%TO.N,/VL Bus/ID0*%
X52860000Y-142300000D03*
D17*
X52860000Y-144960000D03*
D16*
%TO.P,J1,B54,ID1*%
%TO.N,/VL Bus/ID1*%
X51590000Y-142300000D03*
D17*
X51590000Y-144960000D03*
D16*
%TO.P,J1,B55,VSS*%
%TO.N,GND*%
X50320000Y-142300000D03*
D17*
X50320000Y-144960000D03*
D16*
%TO.P,J1,B56,LCLK*%
%TO.N,/VL Bus/LCLK*%
X49050000Y-142300000D03*
D17*
X49050000Y-144960000D03*
D16*
%TO.P,J1,B57,VCC*%
%TO.N,VCC*%
X47780000Y-142300000D03*
D17*
X47780000Y-144960000D03*
D16*
%TO.P,J1,B58,LBS16*%
%TO.N,unconnected-(J1A-LBS16-PadB58)*%
X46510000Y-142300000D03*
D17*
X46510000Y-144960000D03*
D18*
%TO.P,J1,C1,GND*%
%TO.N,GND*%
X261100000Y-142000000D03*
%TO.P,J1,C2,RESET*%
%TO.N,unconnected-(J1B-RESET-PadC2)*%
X258560000Y-142000000D03*
%TO.P,J1,C3,VCC*%
%TO.N,VCC*%
X256020000Y-142000000D03*
%TO.P,J1,C4,IRQ2*%
%TO.N,unconnected-(J1B-IRQ2-PadC4)*%
X253480000Y-142000000D03*
%TO.P,J1,C5,-5V*%
%TO.N,unconnected-(J1B--5V-PadC5)*%
X250940000Y-142000000D03*
%TO.P,J1,C6,DRQ2*%
%TO.N,unconnected-(J1B-DRQ2-PadC6)*%
X248400000Y-142000000D03*
%TO.P,J1,C7,-12V*%
%TO.N,unconnected-(J1B--12V-PadC7)*%
X245860000Y-142000000D03*
%TO.P,J1,C8,UNUSED*%
%TO.N,unconnected-(J1B-UNUSED-PadC8)*%
X243320000Y-142000000D03*
%TO.P,J1,C9,+12V*%
%TO.N,unconnected-(J1B-+12V-PadC9)*%
X240780000Y-142000000D03*
%TO.P,J1,C10,GND*%
%TO.N,GND*%
X238240000Y-142000000D03*
%TO.P,J1,C11,~{SMEMW}*%
%TO.N,unconnected-(J1B-~{SMEMW}-PadC11)*%
X235700000Y-142000000D03*
%TO.P,J1,C12,~{SMEMR}*%
%TO.N,/ISA Bus/SMEMR*%
X233160000Y-142000000D03*
%TO.P,J1,C13,~{IOW}*%
%TO.N,unconnected-(J1B-~{IOW}-PadC13)*%
X230620000Y-142000000D03*
%TO.P,J1,C14,~{IOR}*%
%TO.N,unconnected-(J1B-~{IOR}-PadC14)*%
X228080000Y-142000000D03*
%TO.P,J1,C15,~{DACK3}*%
%TO.N,unconnected-(J1B-~{DACK3}-PadC15)*%
X225540000Y-142000000D03*
%TO.P,J1,C16,DRQ3*%
%TO.N,unconnected-(J1B-DRQ3-PadC16)*%
X223000000Y-142000000D03*
%TO.P,J1,C17,~{DACK1}*%
%TO.N,unconnected-(J1B-~{DACK1}-PadC17)*%
X220460000Y-142000000D03*
%TO.P,J1,C18,DRQ1*%
%TO.N,unconnected-(J1B-DRQ1-PadC18)*%
X217920000Y-142000000D03*
%TO.P,J1,C19,~{DACK0}*%
%TO.N,unconnected-(J1B-~{DACK0}-PadC19)*%
X215380000Y-142000000D03*
%TO.P,J1,C20,CLK*%
%TO.N,unconnected-(J1B-CLK-PadC20)*%
X212840000Y-142000000D03*
%TO.P,J1,C21,IRQ7*%
%TO.N,unconnected-(J1B-IRQ7-PadC21)*%
X210300000Y-142000000D03*
%TO.P,J1,C22,IRQ6*%
%TO.N,unconnected-(J1B-IRQ6-PadC22)*%
X207760000Y-142000000D03*
%TO.P,J1,C23,IRQ5*%
%TO.N,unconnected-(J1B-IRQ5-PadC23)*%
X205220000Y-142000000D03*
%TO.P,J1,C24,IRQ4*%
%TO.N,unconnected-(J1B-IRQ4-PadC24)*%
X202680000Y-142000000D03*
%TO.P,J1,C25,IRQ3*%
%TO.N,unconnected-(J1B-IRQ3-PadC25)*%
X200140000Y-142000000D03*
%TO.P,J1,C26,~{DACK2}*%
%TO.N,unconnected-(J1B-~{DACK2}-PadC26)*%
X197600000Y-142000000D03*
%TO.P,J1,C27,TC*%
%TO.N,unconnected-(J1B-TC-PadC27)*%
X195060000Y-142000000D03*
%TO.P,J1,C28,ALE*%
%TO.N,unconnected-(J1B-ALE-PadC28)*%
X192520000Y-142000000D03*
%TO.P,J1,C29,VCC*%
%TO.N,VCC*%
X189980000Y-142000000D03*
%TO.P,J1,C30,OSC*%
%TO.N,unconnected-(J1B-OSC-PadC30)*%
X187440000Y-142000000D03*
%TO.P,J1,C31,GND*%
%TO.N,GND*%
X184900000Y-142000000D03*
%TD*%
D14*
%TO.P,U2,1,VPP*%
%TO.N,unconnected-(U2-VPP-Pad1)*%
X239903000Y-116459000D03*
D19*
%TO.P,U2,2,A16*%
%TO.N,Net-(U2-A16)*%
X237363000Y-116459000D03*
%TO.P,U2,3,A15*%
%TO.N,/ISA Bus/R_A15*%
X234823000Y-116459000D03*
%TO.P,U2,4,A12*%
%TO.N,/ISA Bus/R_A12*%
X232283000Y-116459000D03*
%TO.P,U2,5,A7*%
%TO.N,/ISA Bus/R_A7*%
X229743000Y-116459000D03*
%TO.P,U2,6,A6*%
%TO.N,/ISA Bus/R_A6*%
X227203000Y-116459000D03*
%TO.P,U2,7,A5*%
%TO.N,/ISA Bus/R_A5*%
X224663000Y-116459000D03*
%TO.P,U2,8,A4*%
%TO.N,/ISA Bus/R_A4*%
X222123000Y-116459000D03*
%TO.P,U2,9,A3*%
%TO.N,/ISA Bus/R_A3*%
X219583000Y-116459000D03*
%TO.P,U2,10,A2*%
%TO.N,/ISA Bus/R_A2*%
X217043000Y-116459000D03*
%TO.P,U2,11,A1*%
%TO.N,/ISA Bus/R_A1*%
X214503000Y-116459000D03*
%TO.P,U2,12,A0*%
%TO.N,/ISA Bus/R_A0*%
X211963000Y-116459000D03*
%TO.P,U2,13,D0*%
%TO.N,/ISA Bus/R_D0*%
X209423000Y-116459000D03*
%TO.P,U2,14,D1*%
%TO.N,/ISA Bus/R_D1*%
X206883000Y-116459000D03*
%TO.P,U2,15,D2*%
%TO.N,/ISA Bus/R_D2*%
X204343000Y-116459000D03*
%TO.P,U2,16,GND*%
%TO.N,GND*%
X201803000Y-116459000D03*
%TO.P,U2,17,D3*%
%TO.N,/ISA Bus/R_D3*%
X201803000Y-131699000D03*
%TO.P,U2,18,D4*%
%TO.N,/ISA Bus/R_D4*%
X204343000Y-131699000D03*
%TO.P,U2,19,D5*%
%TO.N,/ISA Bus/R_D5*%
X206883000Y-131699000D03*
%TO.P,U2,20,D6*%
%TO.N,/ISA Bus/R_D6*%
X209423000Y-131699000D03*
%TO.P,U2,21,D7*%
%TO.N,/ISA Bus/R_D7*%
X211963000Y-131699000D03*
%TO.P,U2,22,~{CE}*%
%TO.N,/ISA Bus/ROMCS*%
X214503000Y-131699000D03*
%TO.P,U2,23,A10*%
%TO.N,/ISA Bus/R_A10*%
X217043000Y-131699000D03*
%TO.P,U2,24,~{OE}*%
%TO.N,/ISA Bus/SMEMR*%
X219583000Y-131699000D03*
%TO.P,U2,25,A11*%
%TO.N,/ISA Bus/R_A11*%
X222123000Y-131699000D03*
%TO.P,U2,26,A9*%
%TO.N,/ISA Bus/R_A9*%
X224663000Y-131699000D03*
%TO.P,U2,27,A8*%
%TO.N,/ISA Bus/R_A8*%
X227203000Y-131699000D03*
%TO.P,U2,28,A13*%
%TO.N,/ISA Bus/R_A13*%
X229743000Y-131699000D03*
%TO.P,U2,29,A14*%
%TO.N,/ISA Bus/R_A14*%
X232283000Y-131699000D03*
%TO.P,U2,30,A17*%
%TO.N,Net-(U2-A17)*%
X234823000Y-131699000D03*
%TO.P,U2,31,~{PGM}*%
%TO.N,unconnected-(U2-~{PGM}-Pad31)*%
X237363000Y-131699000D03*
%TO.P,U2,32,VCC*%
%TO.N,VCC*%
X239903000Y-131699000D03*
%TD*%
D20*
%TO.N,GND*%
X87503000Y-82931000D03*
X132461000Y-107442000D03*
X92329000Y-123063000D03*
X72390000Y-137414000D03*
X128651000Y-83058000D03*
X102108000Y-103251000D03*
X107095500Y-129667000D03*
X238252000Y-136271000D03*
X146431000Y-83185000D03*
X57150000Y-137541000D03*
X98078500Y-137541000D03*
X164338000Y-101219000D03*
X65532000Y-137668000D03*
X185547000Y-135890000D03*
X117602000Y-103378000D03*
X50292000Y-137668000D03*
X89662000Y-137541000D03*
X268097000Y-93599000D03*
X128397000Y-101473000D03*
X122682000Y-125984000D03*
X261366000Y-136525000D03*
X122809000Y-106426000D03*
X175752000Y-90043000D03*
X268224000Y-97790000D03*
X122301000Y-82931000D03*
X119634000Y-129921000D03*
X116967000Y-137541000D03*
X76327000Y-137414000D03*
X85979000Y-105156000D03*
X122555000Y-112522000D03*
X82677000Y-137303500D03*
X96139000Y-106426000D03*
X100584000Y-129921000D03*
X108204000Y-136906000D03*
X111633000Y-83312000D03*
X122555000Y-120523000D03*
X144399000Y-107569000D03*
X95631000Y-108712000D03*
X144526000Y-125349000D03*
X92202000Y-137541000D03*
X101854000Y-137033000D03*
X144018000Y-130302000D03*
X92710000Y-104902000D03*
X112522000Y-136906000D03*
X93853000Y-82804000D03*
X55372000Y-137668000D03*
X144526000Y-101219000D03*
X112395000Y-103505000D03*
X112014000Y-133223000D03*
X163957000Y-125349000D03*
X164211000Y-107569000D03*
X96647000Y-112014000D03*
%TO.N,/VL Bus/BE3*%
X99822000Y-128524000D03*
X83368575Y-122180500D03*
%TO.N,/VL Bus/M{slash}IO*%
X100838000Y-128778000D03*
%TO.N,/VL Bus/BE2*%
X105283000Y-128143000D03*
X85217000Y-121031000D03*
%TO.N,/VL Bus/ADS*%
X81915000Y-121793000D03*
X106172000Y-128143000D03*
%TO.N,/VL Bus/W{slash}R*%
X106045000Y-126873000D03*
%TO.N,/VL Bus/BE1*%
X87630000Y-118497500D03*
X109601000Y-129159000D03*
%TO.N,/VL Bus/BE0*%
X115443000Y-128397000D03*
X91567000Y-116205000D03*
%TO.N,/Memory Bus/RAS*%
X159639000Y-115697000D03*
X139319000Y-92583000D03*
X105918000Y-92583000D03*
X141859000Y-117595500D03*
%TO.N,/Memory Bus/CAS0*%
X138811000Y-115189000D03*
X131572000Y-112903000D03*
%TO.N,/Memory Bus/CAS1*%
X144526000Y-116459000D03*
X160528000Y-116459000D03*
%TO.N,/Memory Bus/MA4*%
X110363000Y-83312000D03*
X145161000Y-83312000D03*
X163957000Y-124079000D03*
X144145000Y-124079000D03*
X121031000Y-118999000D03*
%TO.N,/Memory Bus/MA3*%
X122174000Y-119507000D03*
X145161000Y-88265000D03*
X139573000Y-124079000D03*
X110363000Y-88265000D03*
X159512000Y-124079000D03*
%TO.N,/Memory Bus/MA5*%
X121031000Y-117983000D03*
X144145000Y-122809000D03*
X163957000Y-122809000D03*
X109093000Y-83312000D03*
X143891000Y-83312000D03*
%TO.N,/Memory Bus/MA2*%
X143891000Y-88265000D03*
X159512000Y-122809000D03*
X139573000Y-122809000D03*
X122174000Y-118491000D03*
X109093000Y-88265000D03*
%TO.N,/Memory Bus/MA6*%
X144145000Y-121539000D03*
X107823000Y-83312000D03*
X163957000Y-121539000D03*
X142621000Y-83312000D03*
X121031000Y-116967000D03*
%TO.N,/Memory Bus/MA1*%
X159512000Y-121539000D03*
X122174000Y-117475000D03*
X142621000Y-88265000D03*
X107823000Y-88265000D03*
X139573000Y-121539000D03*
%TO.N,/Memory Bus/MA7*%
X141351000Y-83312000D03*
X121031000Y-115824000D03*
X163957000Y-120269000D03*
X144145000Y-120269000D03*
X106553000Y-83312000D03*
%TO.N,/Memory Bus/MA0*%
X141351000Y-88265000D03*
X106553000Y-88265000D03*
X159512000Y-120269000D03*
X139573000Y-120269000D03*
X122174000Y-116459000D03*
%TO.N,/Memory Bus/MA8*%
X122174000Y-114681000D03*
X144145000Y-118999000D03*
X140081000Y-83312000D03*
X163957000Y-118999000D03*
X105283000Y-83312000D03*
%TO.N,/Memory Bus/PD7*%
X149606000Y-102743000D03*
X142748000Y-112649000D03*
%TO.N,/Memory Bus/PD6*%
X148971000Y-101981000D03*
X142367000Y-111379000D03*
%TO.N,/Memory Bus/PD5*%
X148209000Y-101219000D03*
X142494000Y-110109000D03*
%TO.N,/Memory Bus/PD10*%
X147955000Y-99187000D03*
X141732000Y-109474000D03*
%TO.N,/Memory Bus/PD4*%
X148082000Y-100076000D03*
X142875000Y-108839000D03*
%TO.N,/Memory Bus/PD12*%
X154940000Y-99822000D03*
X172085000Y-91694000D03*
%TO.N,/Memory Bus/PD15*%
X143764000Y-102108000D03*
X123317000Y-99949000D03*
%TO.N,/Memory Bus/OE*%
X137795000Y-78867000D03*
X144526000Y-117602000D03*
X163830000Y-117729000D03*
%TO.N,/Memory Bus/WE*%
X137668000Y-93091000D03*
X158623000Y-113792000D03*
X141097000Y-116332000D03*
%TO.N,/ISA Bus/R_A12*%
X229362000Y-124460000D03*
X218313000Y-134874000D03*
%TO.N,/ISA Bus/R_A15*%
X223012000Y-135763000D03*
X232664000Y-124587000D03*
%TO.N,/VL Bus/LCLK*%
X72898000Y-131445000D03*
X49022000Y-137668000D03*
X91440000Y-123190000D03*
%TO.N,/VL Bus/RST*%
X66802000Y-137541000D03*
%TO.N,/VL Bus/VL_A2*%
X70104000Y-137541000D03*
%TO.N,/VL Bus/VL_A3*%
X98044000Y-118745000D03*
%TO.N,/VL Bus/VL_A5*%
X97409000Y-119380000D03*
%TO.N,/VL Bus/VL_A7*%
X97155000Y-120142000D03*
%TO.N,/VL Bus/VL_A9*%
X97155000Y-121031000D03*
%TO.N,/VL Bus/VL_A11*%
X97409000Y-121920000D03*
%TO.N,/VL Bus/VL_A13*%
X98044000Y-122682000D03*
%TO.N,/VL Bus/VL_A15*%
X97282000Y-123317000D03*
%TO.N,/VL Bus/VL_A17*%
X97663000Y-124587000D03*
%TO.N,/VL Bus/VL_A19*%
X96901000Y-125222000D03*
%TO.N,/VL Bus/VL_A21*%
X96520000Y-125961500D03*
%TO.N,/VL Bus/VL_D30*%
X94361000Y-130556000D03*
%TO.N,/VL Bus/VL_D28*%
X97078000Y-129159000D03*
%TO.N,/VL Bus/VL_D26*%
X98078000Y-129159000D03*
%TO.N,/VL Bus/VL_D24*%
X99078000Y-129159000D03*
%TO.N,/VL Bus/VL_D22*%
X101578000Y-129181000D03*
%TO.N,/VL Bus/VL_D20*%
X103078000Y-129205000D03*
%TO.N,/VL Bus/VL_D18*%
X104078000Y-129221000D03*
%TO.N,/VL Bus/VL_D16*%
X105078000Y-129237000D03*
%TO.N,/VL Bus/VL_D14*%
X110617000Y-129159000D03*
%TO.N,/VL Bus/VL_D12*%
X111578000Y-129214000D03*
%TO.N,/VL Bus/VL_D10*%
X113030000Y-129159000D03*
%TO.N,/VL Bus/VL_D8*%
X114046000Y-129159000D03*
%TO.N,/VL Bus/VL_D6*%
X116078000Y-129032000D03*
%TO.N,/VL Bus/VL_D4*%
X117094000Y-129032000D03*
%TO.N,/VL Bus/VL_D2*%
X118110000Y-129032000D03*
%TO.N,/VL Bus/VL_D0*%
X118745000Y-129921000D03*
%TO.N,/VL Bus/LDEV*%
X58547000Y-136525000D03*
X108204000Y-129286000D03*
%TO.N,/VL Bus/LRDY*%
X107569000Y-128270000D03*
X59309000Y-137541000D03*
%TO.N,/VL Bus/RDYR*%
X106680000Y-128778000D03*
%TO.N,/HS*%
X99441000Y-98679000D03*
X263043385Y-111405385D03*
%TO.N,/VS*%
X265303000Y-104140000D03*
X99314000Y-100076000D03*
%TO.N,Net-(U1F-~{RAS0})*%
X139319000Y-93726000D03*
X122809000Y-114046000D03*
%TO.N,Net-(U1F-~{CAS1})*%
X122809000Y-121539000D03*
X170815000Y-130550000D03*
%TO.N,Net-(U1F-~{CAS2})*%
X131318000Y-114173000D03*
X154305000Y-117475000D03*
%TO.N,Net-(U1F-~{CAS3})*%
X155067000Y-117983000D03*
X132334000Y-114046000D03*
%TO.N,Net-(U1F-~{CAS4})*%
X157353000Y-82550000D03*
X151892000Y-129032000D03*
%TO.N,Net-(U1F-~{CAS5})*%
X155067000Y-82296000D03*
X151824271Y-128022500D03*
%TO.N,Net-(U1F-~{CAS6})*%
X151765000Y-127254000D03*
X156083000Y-82677000D03*
%TO.N,Net-(U1F-~{CAS7})*%
X151765000Y-126365000D03*
X154051000Y-82677000D03*
%TO.N,Net-(U1G-~{SRESET})*%
X70485000Y-134747000D03*
X73660000Y-130302000D03*
X90424000Y-122682000D03*
%TO.N,Net-(U1D-LD6{slash}PA6)*%
X92964000Y-117461500D03*
X90551000Y-113464500D03*
%TO.N,Net-(U1D-LD7{slash}PA7)*%
X97917000Y-113411000D03*
X91440000Y-113538000D03*
%TO.N,/EVIDEO*%
X70993000Y-92710000D03*
X99441000Y-110744000D03*
%TO.N,VCC*%
X47752000Y-137668000D03*
X122174000Y-87757000D03*
X94107000Y-137541000D03*
X96266000Y-107442000D03*
X69088000Y-137414000D03*
X70739000Y-88265000D03*
X78867000Y-137668000D03*
X122174000Y-124968000D03*
X242697000Y-119380000D03*
X87503000Y-88265000D03*
X139319000Y-125349000D03*
X122555000Y-107950000D03*
X151384000Y-81153000D03*
X85979000Y-137668000D03*
X96266000Y-104521000D03*
X92075000Y-121666000D03*
X56515000Y-105791000D03*
X96393000Y-109728000D03*
X104394000Y-137541000D03*
X159512000Y-125349000D03*
X86487000Y-107442000D03*
X191135000Y-135636000D03*
X128651000Y-87757000D03*
X140081000Y-130302000D03*
X255016000Y-136144000D03*
X139319000Y-107569000D03*
X114935000Y-129159000D03*
X93853000Y-88265000D03*
X159131000Y-107569000D03*
X139319000Y-101219000D03*
X122682000Y-115316000D03*
X52832000Y-137668000D03*
X159131000Y-101219000D03*
X65405000Y-97409000D03*
X109347000Y-137668000D03*
X106172000Y-100203000D03*
X111887000Y-87757000D03*
X146431000Y-88646000D03*
X102235000Y-129921000D03*
%TO.N,/EVCLK*%
X100330000Y-109982000D03*
X58420000Y-102870000D03*
%TO.N,/LCLK*%
X58420000Y-100457000D03*
X100584000Y-99822000D03*
%TO.N,/VL Bus/SINTR*%
X98598500Y-99568000D03*
%TO.N,/ISA Bus/ROMCS*%
X246126000Y-129921000D03*
X98679000Y-103505000D03*
%TO.N,/BLANK*%
X101219000Y-111887000D03*
X89789000Y-114808000D03*
%TO.N,/ISA Bus/SMEMR*%
X256921000Y-133223000D03*
%TO.N,/ESYNC*%
X101219000Y-110363000D03*
X66929000Y-94615000D03*
%TD*%
D21*
%TO.N,GND*%
X184900000Y-136537000D02*
X185547000Y-135890000D01*
X112522000Y-136906000D02*
X112550000Y-136934000D01*
X112550000Y-136934000D02*
X112550000Y-142300000D01*
X102390000Y-137569000D02*
X102390000Y-142300000D01*
X50320000Y-137696000D02*
X50320000Y-142300000D01*
X83340000Y-142300000D02*
X83340000Y-137966500D01*
X83340000Y-137966500D02*
X82677000Y-137303500D01*
X57940000Y-138331000D02*
X57940000Y-142300000D01*
D22*
X274394669Y-102260000D02*
X275539669Y-101115000D01*
D21*
X184900000Y-142000000D02*
X184900000Y-136537000D01*
X144526000Y-125349000D02*
X144526000Y-129794000D01*
X92202000Y-137541000D02*
X92230000Y-137569000D01*
X261366000Y-136525000D02*
X261100000Y-136791000D01*
X238240000Y-136283000D02*
X238252000Y-136271000D01*
D22*
X275539669Y-96535000D02*
X275539669Y-94245000D01*
X273559669Y-102260000D02*
X274394669Y-102260000D01*
D21*
X261100000Y-136791000D02*
X261100000Y-142000000D01*
D22*
X275539669Y-94245000D02*
X275539669Y-91955000D01*
D21*
X92230000Y-137569000D02*
X92230000Y-142300000D01*
X72390000Y-137414000D02*
X71910000Y-137894000D01*
X57150000Y-137541000D02*
X57940000Y-138331000D01*
X238240000Y-142000000D02*
X238240000Y-136283000D01*
X101854000Y-137033000D02*
X102390000Y-137569000D01*
X144526000Y-129794000D02*
X144018000Y-130302000D01*
X50292000Y-137668000D02*
X50320000Y-137696000D01*
X71910000Y-137894000D02*
X71910000Y-142300000D01*
D23*
%TO.N,/VL Bus/BE3*%
X97017262Y-118237000D02*
X98245936Y-118237000D01*
X83368575Y-122180500D02*
X83375075Y-122174000D01*
X98245936Y-118237000D02*
X99822000Y-119813064D01*
X99822000Y-119813064D02*
X99822000Y-128524000D01*
X93080262Y-122174000D02*
X97017262Y-118237000D01*
X83375075Y-122174000D02*
X93080262Y-122174000D01*
%TO.N,/VL Bus/M{slash}IO*%
X100838000Y-120437326D02*
X100838000Y-128778000D01*
X80459564Y-122405000D02*
X82192000Y-122405000D01*
X98360674Y-117960000D02*
X100838000Y-120437326D01*
X64848000Y-139200936D02*
X66167000Y-137881936D01*
X64290000Y-142300000D02*
X64848000Y-141742000D01*
X96902525Y-117960000D02*
X98360674Y-117960000D01*
X93698525Y-121164000D02*
X96902525Y-117960000D01*
X82192000Y-122405000D02*
X82931000Y-121666000D01*
X82931000Y-121666000D02*
X91365064Y-121666000D01*
X64848000Y-141742000D02*
X64848000Y-139200936D01*
X91365064Y-121666000D02*
X91867064Y-121164000D01*
X66167000Y-137881936D02*
X66167000Y-136697564D01*
X91867064Y-121164000D02*
X93698525Y-121164000D01*
X66167000Y-136697564D02*
X80459564Y-122405000D01*
%TO.N,/VL Bus/BE2*%
X85361000Y-120887000D02*
X93583787Y-120887000D01*
X96868787Y-117602000D02*
X98394412Y-117602000D01*
X98394412Y-117602000D02*
X105156000Y-124363588D01*
X105156000Y-128016000D02*
X105283000Y-128143000D01*
X93583787Y-120887000D02*
X96868787Y-117602000D01*
X105156000Y-124363588D02*
X105156000Y-128016000D01*
X85217000Y-121031000D02*
X85361000Y-120887000D01*
%TO.N,/VL Bus/ADS*%
X105543000Y-127514000D02*
X106172000Y-128143000D01*
X96565738Y-117313000D02*
X100422000Y-117313000D01*
X105543000Y-122434000D02*
X105543000Y-127514000D01*
X93459737Y-120419000D02*
X96565738Y-117313000D01*
X83289000Y-120419000D02*
X93459737Y-120419000D01*
X100422000Y-117313000D02*
X105543000Y-122434000D01*
X81915000Y-121793000D02*
X83289000Y-120419000D01*
%TO.N,/VL Bus/W{slash}R*%
X81988351Y-120142000D02*
X93345000Y-120142000D01*
X93345000Y-120142000D02*
X96451000Y-117036000D01*
X63020000Y-142300000D02*
X63020000Y-139110351D01*
X63020000Y-139110351D02*
X81988351Y-120142000D01*
X100780000Y-117036000D02*
X106045000Y-122301000D01*
X96451000Y-117036000D02*
X100780000Y-117036000D01*
X106045000Y-122301000D02*
X106045000Y-126873000D01*
%TO.N,/VL Bus/BE1*%
X87630000Y-118497500D02*
X87636500Y-118491000D01*
X109601000Y-123825000D02*
X109601000Y-129159000D01*
X101704000Y-115928000D02*
X109601000Y-123825000D01*
X92964000Y-118491000D02*
X95527000Y-115928000D01*
X87636500Y-118491000D02*
X92964000Y-118491000D01*
X95527000Y-115928000D02*
X101704000Y-115928000D01*
%TO.N,/VL Bus/BE0*%
X92121000Y-115651000D02*
X102697000Y-115651000D01*
X91567000Y-116205000D02*
X92121000Y-115651000D01*
X102697000Y-115651000D02*
X115443000Y-128397000D01*
%TO.N,/Memory Bus/RAS*%
X152377000Y-97513000D02*
X152377000Y-106530000D01*
X150114000Y-95250000D02*
X152377000Y-97513000D01*
X139319000Y-92583000D02*
X140472737Y-92583000D01*
X105918000Y-92583000D02*
X139319000Y-92583000D01*
X152377000Y-106530000D02*
X159258000Y-113411000D01*
X140472737Y-92583000D02*
X143139737Y-95250000D01*
X143256000Y-116205000D02*
X143764000Y-115697000D01*
X159639000Y-114300000D02*
X159258000Y-113919000D01*
X159639000Y-115697000D02*
X159639000Y-114300000D01*
X143764000Y-115697000D02*
X159639000Y-115697000D01*
X143139737Y-95250000D02*
X150114000Y-95250000D01*
X159258000Y-113411000D02*
X159258000Y-113919000D01*
X141859000Y-117595500D02*
X143249500Y-116205000D01*
X143249500Y-116205000D02*
X143256000Y-116205000D01*
%TO.N,/Memory Bus/CAS0*%
X136525000Y-112903000D02*
X131572000Y-112903000D01*
X138811000Y-115189000D02*
X136525000Y-112903000D01*
%TO.N,/Memory Bus/CAS1*%
X160528000Y-116459000D02*
X144526000Y-116459000D01*
%TO.N,/Memory Bus/MA4*%
X110288064Y-88900000D02*
X130556000Y-88900000D01*
X110363000Y-83312000D02*
X110363000Y-87503000D01*
X144145000Y-124079000D02*
X140451262Y-124079000D01*
X109861000Y-88005000D02*
X109861000Y-88472936D01*
X120396000Y-118999000D02*
X102859000Y-101462000D01*
X110363000Y-87503000D02*
X109861000Y-88005000D01*
X140451262Y-124079000D02*
X139683262Y-123311000D01*
X139196738Y-123311000D02*
X134884738Y-118999000D01*
X142875000Y-81026000D02*
X145161000Y-83312000D01*
X138430000Y-81026000D02*
X142875000Y-81026000D01*
X102859000Y-82496576D02*
X104375578Y-80980000D01*
X108031000Y-80980000D02*
X110363000Y-83312000D01*
X163322000Y-123444000D02*
X159437064Y-123444000D01*
X104375578Y-80980000D02*
X108031000Y-80980000D01*
X109861000Y-88472936D02*
X110288064Y-88900000D01*
X159437064Y-123444000D02*
X158802064Y-124079000D01*
X163957000Y-124079000D02*
X163322000Y-123444000D01*
X134884738Y-118999000D02*
X121031000Y-118999000D01*
X130556000Y-88900000D02*
X138430000Y-81026000D01*
X139683262Y-123311000D02*
X139196738Y-123311000D01*
X121031000Y-118999000D02*
X120396000Y-118999000D01*
X158802064Y-124079000D02*
X144145000Y-124079000D01*
X102859000Y-101462000D02*
X102859000Y-82496576D01*
%TO.N,/Memory Bus/MA3*%
X104260841Y-80703000D02*
X108463936Y-80703000D01*
X130429000Y-88519000D02*
X138199000Y-80749000D01*
X110363000Y-88265000D02*
X110617000Y-88519000D01*
X145663000Y-87763000D02*
X145161000Y-88265000D01*
X108463936Y-80703000D02*
X110871000Y-83110064D01*
X110617000Y-88519000D02*
X130429000Y-88519000D01*
X159512000Y-124079000D02*
X158877000Y-124714000D01*
X102582001Y-82381838D02*
X104260841Y-80703000D01*
X145663000Y-83052000D02*
X145663000Y-87763000D01*
X135001000Y-119507000D02*
X139573000Y-124079000D01*
X140208000Y-124714000D02*
X139573000Y-124079000D01*
X102582001Y-101693001D02*
X102582001Y-82381838D01*
X110871000Y-83110064D02*
X110871000Y-87757000D01*
X122174000Y-119507000D02*
X135001000Y-119507000D01*
X143891000Y-81280000D02*
X145663000Y-83052000D01*
X158877000Y-124714000D02*
X140208000Y-124714000D01*
X110871000Y-87757000D02*
X110363000Y-88265000D01*
X143891000Y-81407000D02*
X143891000Y-81280000D01*
X138199000Y-80749000D02*
X143233000Y-80749000D01*
X143233000Y-80749000D02*
X143891000Y-81407000D01*
X122174000Y-119507000D02*
X120396000Y-119507000D01*
X120396000Y-119507000D02*
X102582001Y-101693001D01*
%TO.N,/Memory Bus/MA5*%
X163322000Y-122174000D02*
X163957000Y-122809000D01*
X108712000Y-89916000D02*
X108458000Y-89662000D01*
X144145000Y-122809000D02*
X140451262Y-122809000D01*
X139683262Y-122041000D02*
X139196738Y-122041000D01*
X103413000Y-82726052D02*
X104605052Y-81534000D01*
X159437064Y-122174000D02*
X163322000Y-122174000D01*
X108458000Y-89662000D02*
X108458000Y-88021738D01*
X139151000Y-81702000D02*
X130937000Y-89916000D01*
X143891000Y-83047262D02*
X142545738Y-81702000D01*
X107315000Y-81534000D02*
X109093000Y-83312000D01*
X142545738Y-81702000D02*
X139151000Y-81702000D01*
X120396000Y-117983000D02*
X103413000Y-101000000D01*
X109093000Y-87386738D02*
X109093000Y-83312000D01*
X158802064Y-122809000D02*
X159437064Y-122174000D01*
X143891000Y-83312000D02*
X143891000Y-83047262D01*
X144145000Y-122809000D02*
X158802064Y-122809000D01*
X121031000Y-117983000D02*
X120396000Y-117983000D01*
X135138738Y-117983000D02*
X121031000Y-117983000D01*
X108458000Y-88021738D02*
X109093000Y-87386738D01*
X140451262Y-122809000D02*
X139683262Y-122041000D01*
X103413000Y-101000000D02*
X103413000Y-82726052D01*
X104605052Y-81534000D02*
X107315000Y-81534000D01*
X130937000Y-89916000D02*
X108712000Y-89916000D01*
X139196738Y-122041000D02*
X135138738Y-117983000D01*
%TO.N,/Memory Bus/MA2*%
X131284262Y-89177000D02*
X139036263Y-81425000D01*
X109093000Y-88265000D02*
X110005000Y-89177000D01*
X144393000Y-87763000D02*
X143891000Y-88265000D01*
X103136000Y-82611314D02*
X104490315Y-81257000D01*
X107747936Y-81257000D02*
X109595000Y-83104064D01*
X135255000Y-118491000D02*
X122174000Y-118491000D01*
X144393000Y-83104064D02*
X144393000Y-87763000D01*
X140075000Y-123311000D02*
X159010000Y-123311000D01*
X159010000Y-123311000D02*
X159512000Y-122809000D01*
X122174000Y-118491000D02*
X120396000Y-118491000D01*
X109595000Y-87763000D02*
X109093000Y-88265000D01*
X139036263Y-81425000D02*
X142713936Y-81425000D01*
X110005000Y-89177000D02*
X131284262Y-89177000D01*
X103136000Y-101231000D02*
X103136000Y-82611314D01*
X139573000Y-122809000D02*
X135255000Y-118491000D01*
X120396000Y-118491000D02*
X103136000Y-101231000D01*
X104490315Y-81257000D02*
X107747936Y-81257000D01*
X109595000Y-83104064D02*
X109595000Y-87763000D01*
X142713936Y-81425000D02*
X144393000Y-83104064D01*
X139573000Y-122809000D02*
X140075000Y-123311000D01*
%TO.N,/Memory Bus/MA6*%
X104799525Y-82123000D02*
X106898737Y-82123000D01*
X103967000Y-100538000D02*
X103967000Y-82955526D01*
X107823000Y-87402032D02*
X107188000Y-88037032D01*
X107823000Y-83047262D02*
X107823000Y-83312000D01*
X139613000Y-82256000D02*
X141565000Y-82256000D01*
X144145000Y-121539000D02*
X140282936Y-121539000D01*
X140282936Y-121539000D02*
X139520936Y-120777000D01*
X121031000Y-116967000D02*
X120396000Y-116967000D01*
X158802064Y-121539000D02*
X159437064Y-120904000D01*
X106898737Y-82123000D02*
X107823000Y-83047262D01*
X159437064Y-120904000D02*
X163322000Y-120904000D01*
X103967000Y-82955526D02*
X104799525Y-82123000D01*
X107188000Y-88037032D02*
X107188000Y-90043000D01*
X107188000Y-90043000D02*
X107823000Y-90678000D01*
X135392738Y-116967000D02*
X121031000Y-116967000D01*
X163322000Y-120904000D02*
X163957000Y-121539000D01*
X139202738Y-120777000D02*
X135392738Y-116967000D01*
X139520936Y-120777000D02*
X139202738Y-120777000D01*
X144145000Y-121539000D02*
X158802064Y-121539000D01*
X120396000Y-116967000D02*
X103967000Y-100538000D01*
X107823000Y-90678000D02*
X131191000Y-90678000D01*
X141565000Y-82256000D02*
X142621000Y-83312000D01*
X131191000Y-90678000D02*
X139613000Y-82256000D01*
X107823000Y-83312000D02*
X107823000Y-87402032D01*
%TO.N,/Memory Bus/MA1*%
X107823000Y-89916000D02*
X108204000Y-90297000D01*
X103690000Y-82840789D02*
X104684787Y-81846001D01*
X142431000Y-81979000D02*
X143129000Y-82677000D01*
X104684787Y-81846001D02*
X107125000Y-81846000D01*
X143129000Y-87757000D02*
X142621000Y-88265000D01*
X108325000Y-83046000D02*
X108325000Y-87763000D01*
X158877000Y-122174000D02*
X159512000Y-121539000D01*
X139382000Y-81979000D02*
X142431000Y-81979000D01*
X107125000Y-81846000D02*
X108325000Y-83046000D01*
X122174000Y-117475000D02*
X135509000Y-117475000D01*
X103690000Y-100769000D02*
X103690000Y-82840789D01*
X143129000Y-82677000D02*
X143129000Y-87757000D01*
X107823000Y-88265000D02*
X107823000Y-89916000D01*
X122174000Y-117475000D02*
X120396000Y-117475000D01*
X108325000Y-87763000D02*
X107823000Y-88265000D01*
X108204000Y-90297000D02*
X131064000Y-90297000D01*
X140208000Y-122174000D02*
X158877000Y-122174000D01*
X120396000Y-117475000D02*
X103690000Y-100769000D01*
X131064000Y-90297000D02*
X139382000Y-81979000D01*
X135509000Y-117475000D02*
X139573000Y-121539000D01*
X139573000Y-121539000D02*
X140208000Y-122174000D01*
%TO.N,/Memory Bus/MA7*%
X139579000Y-88005000D02*
X139579000Y-83104064D01*
X139579000Y-83104064D02*
X139873064Y-82810000D01*
X144780000Y-119634000D02*
X163322000Y-119634000D01*
X144145000Y-120269000D02*
X144780000Y-119634000D01*
X163322000Y-119634000D02*
X163957000Y-120269000D01*
X140849000Y-82810000D02*
X141351000Y-83312000D01*
X144145000Y-120269000D02*
X140335000Y-120269000D01*
X136144000Y-91440000D02*
X139579000Y-88005000D01*
X104521000Y-83185000D02*
X104896000Y-82810000D01*
X135890000Y-115824000D02*
X121031000Y-115824000D01*
X104896000Y-82810000D02*
X106051000Y-82810000D01*
X120269000Y-115824000D02*
X104521000Y-100076000D01*
X139873064Y-82810000D02*
X140849000Y-82810000D01*
X121031000Y-115824000D02*
X120269000Y-115824000D01*
X106553000Y-83312000D02*
X105664000Y-84201000D01*
X105664000Y-90043000D02*
X107061000Y-91440000D01*
X106051000Y-82810000D02*
X106553000Y-83312000D01*
X105664000Y-84201000D02*
X105664000Y-90043000D01*
X107061000Y-91440000D02*
X136144000Y-91440000D01*
X140335000Y-120269000D02*
X135890000Y-115824000D01*
X104521000Y-100076000D02*
X104521000Y-83185000D01*
%TO.N,/Memory Bus/MA0*%
X106553000Y-88265000D02*
X106553000Y-90170000D01*
X141853000Y-87763000D02*
X141351000Y-88265000D01*
X104244000Y-83070263D02*
X104914262Y-82400000D01*
X141853000Y-83104064D02*
X141853000Y-87763000D01*
X104244000Y-100307000D02*
X104244000Y-83070263D01*
X158877000Y-120904000D02*
X159512000Y-120269000D01*
X106784000Y-82400000D02*
X107188000Y-82804000D01*
X139758326Y-82533000D02*
X141281936Y-82533000D01*
X122174000Y-116459000D02*
X120396000Y-116459000D01*
X107442000Y-91059000D02*
X131232326Y-91059000D01*
X120396000Y-116459000D02*
X104244000Y-100307000D01*
X141281936Y-82533000D02*
X141853000Y-83104064D01*
X107188000Y-87630000D02*
X106553000Y-88265000D01*
X135763000Y-116459000D02*
X139573000Y-120269000D01*
X106553000Y-90170000D02*
X107442000Y-91059000D01*
X131232326Y-91059000D02*
X139758326Y-82533000D01*
X122174000Y-116459000D02*
X135763000Y-116459000D01*
X139573000Y-120269000D02*
X140208000Y-120904000D01*
X104914262Y-82400000D02*
X106784000Y-82400000D01*
X107188000Y-82804000D02*
X107188000Y-87630000D01*
X140208000Y-120904000D02*
X158877000Y-120904000D01*
%TO.N,/Memory Bus/MA8*%
X105283000Y-83312000D02*
X105283000Y-90551000D01*
X119634000Y-114681000D02*
X104798000Y-99845000D01*
X140081000Y-89789000D02*
X140081000Y-83312000D01*
X122174000Y-114681000D02*
X119634000Y-114681000D01*
X144145000Y-118999000D02*
X163957000Y-118999000D01*
X138049000Y-91821000D02*
X140081000Y-89789000D01*
X135763000Y-114681000D02*
X140081000Y-118999000D01*
X140081000Y-118999000D02*
X144145000Y-118999000D01*
X105283000Y-90551000D02*
X106553000Y-91821000D01*
X104798000Y-99845000D02*
X104798000Y-83797000D01*
X122174000Y-114681000D02*
X135763000Y-114681000D01*
X106553000Y-91821000D02*
X138049000Y-91821000D01*
X104798000Y-83797000D02*
X105283000Y-83312000D01*
%TO.N,/Memory Bus/PD7*%
X149606000Y-105791000D02*
X142748000Y-112649000D01*
X149606000Y-102743000D02*
X149606000Y-105791000D01*
%TO.N,/Memory Bus/PD6*%
X148971000Y-101981000D02*
X148971000Y-104775000D01*
X148971000Y-104775000D02*
X142367000Y-111379000D01*
%TO.N,/Memory Bus/PD5*%
X142568936Y-110109000D02*
X148209000Y-104468936D01*
X148209000Y-104468936D02*
X148209000Y-101219000D01*
X142494000Y-110109000D02*
X142568936Y-110109000D01*
%TO.N,/Memory Bus/PD10*%
X146939000Y-100203000D02*
X147955000Y-99187000D01*
X146939000Y-102870000D02*
X146939000Y-100203000D01*
X141732000Y-108077000D02*
X146939000Y-102870000D01*
X141732000Y-109474000D02*
X141732000Y-108077000D01*
%TO.N,/Memory Bus/PD4*%
X142875000Y-107950000D02*
X147447000Y-103378000D01*
X147447000Y-103378000D02*
X147447000Y-100711000D01*
X142875000Y-108839000D02*
X142875000Y-107950000D01*
X147447000Y-100711000D02*
X148082000Y-100076000D01*
%TO.N,/Memory Bus/PD12*%
X163957000Y-99822000D02*
X172085000Y-91694000D01*
X154940000Y-99822000D02*
X163957000Y-99822000D01*
%TO.N,/Memory Bus/PD15*%
X141605000Y-99949000D02*
X143764000Y-102108000D01*
X123317000Y-99949000D02*
X141605000Y-99949000D01*
%TO.N,/Memory Bus/OE*%
X163830000Y-117348000D02*
X152654000Y-106172000D01*
X163830000Y-117729000D02*
X163830000Y-117348000D01*
X150241000Y-78867000D02*
X137795000Y-78867000D01*
X159893000Y-116967000D02*
X153797000Y-116967000D01*
X153162000Y-117602000D02*
X144526000Y-117602000D01*
X160655000Y-117729000D02*
X159893000Y-116967000D01*
X153797000Y-116967000D02*
X153162000Y-117602000D01*
X152654000Y-106172000D02*
X152654000Y-81280000D01*
X152654000Y-81280000D02*
X150241000Y-78867000D01*
X163830000Y-117729000D02*
X160655000Y-117729000D01*
%TO.N,/Memory Bus/WE*%
X140335000Y-93218000D02*
X145161000Y-98044000D01*
X145161000Y-98044000D02*
X145161000Y-102997000D01*
X137668000Y-93091000D02*
X137795000Y-93218000D01*
X141097000Y-107061000D02*
X141097000Y-116332000D01*
X141097000Y-116332000D02*
X142113000Y-116332000D01*
X137795000Y-93218000D02*
X140335000Y-93218000D01*
X151765000Y-115062000D02*
X153035000Y-113792000D01*
X143383000Y-115062000D02*
X151765000Y-115062000D01*
X153035000Y-113792000D02*
X158623000Y-113792000D01*
X145161000Y-102997000D02*
X141097000Y-107061000D01*
X142113000Y-116332000D02*
X143383000Y-115062000D01*
D24*
%TO.N,/ISA Bus/R_A12*%
X215900000Y-131441221D02*
X218944221Y-128397000D01*
X217678000Y-134874000D02*
X215900000Y-133096000D01*
X225425000Y-128397000D02*
X229362000Y-124460000D01*
X218313000Y-134874000D02*
X217678000Y-134874000D01*
X215900000Y-133096000D02*
X215900000Y-131441221D01*
X218944221Y-128397000D02*
X225425000Y-128397000D01*
D23*
%TO.N,/ISA Bus/R_A15*%
X228092000Y-129159000D02*
X232664000Y-124587000D01*
X218313000Y-130810000D02*
X219964000Y-129159000D01*
X223012000Y-135763000D02*
X221361000Y-135763000D01*
X218313000Y-132715000D02*
X218313000Y-130810000D01*
X221361000Y-135763000D02*
X218313000Y-132715000D01*
X219964000Y-129159000D02*
X228092000Y-129159000D01*
%TO.N,/VL Bus/LCLK*%
X89916000Y-123190000D02*
X91440000Y-123190000D01*
X49022000Y-137668000D02*
X49050000Y-137696000D01*
X72898000Y-131445000D02*
X81661000Y-131445000D01*
X49050000Y-137696000D02*
X49050000Y-142300000D01*
X81661000Y-131445000D02*
X89916000Y-123190000D01*
%TO.N,/VL Bus/RST*%
X66830000Y-137569000D02*
X66802000Y-137541000D01*
X66830000Y-142300000D02*
X66830000Y-137569000D01*
%TO.N,/VL Bus/VL_A2*%
X70104000Y-137922000D02*
X69370000Y-138656000D01*
X70104000Y-137541000D02*
X70104000Y-137922000D01*
X69370000Y-138656000D02*
X69370000Y-142300000D01*
%TO.N,/VL Bus/VL_A3*%
X98044000Y-118745000D02*
X96901000Y-118745000D01*
X95631000Y-120523000D02*
X92462000Y-123692000D01*
X81915000Y-132207000D02*
X76887064Y-132207000D01*
X92462000Y-123692000D02*
X90430000Y-123692000D01*
X95631000Y-120015000D02*
X95631000Y-120523000D01*
X90430000Y-123692000D02*
X81915000Y-132207000D01*
X76887064Y-132207000D02*
X70640000Y-138454064D01*
X70640000Y-138454064D02*
X70640000Y-142300000D01*
X96901000Y-118745000D02*
X95631000Y-120015000D01*
%TO.N,/VL Bus/VL_A5*%
X97207064Y-119380000D02*
X96012000Y-120575064D01*
X82423000Y-132842000D02*
X77851000Y-132842000D01*
X97409000Y-119380000D02*
X97207064Y-119380000D01*
X92710000Y-124206000D02*
X91059000Y-124206000D01*
X77851000Y-132842000D02*
X73180000Y-137513000D01*
X91059000Y-124206000D02*
X82423000Y-132842000D01*
X73180000Y-137513000D02*
X73180000Y-142300000D01*
X96012000Y-120575064D02*
X96012000Y-120904000D01*
X96012000Y-120904000D02*
X92710000Y-124206000D01*
%TO.N,/VL Bus/VL_A7*%
X96393000Y-120904000D02*
X96393000Y-121031000D01*
X78359000Y-133604000D02*
X74450000Y-137513000D01*
X82677000Y-133604000D02*
X78359000Y-133604000D01*
X92710000Y-124714000D02*
X91567000Y-124714000D01*
X91567000Y-124714000D02*
X82677000Y-133604000D01*
X97155000Y-120142000D02*
X96393000Y-120904000D01*
X74450000Y-137513000D02*
X74450000Y-142300000D01*
X96393000Y-121031000D02*
X92710000Y-124714000D01*
%TO.N,/VL Bus/VL_A9*%
X78792064Y-134239000D02*
X75720000Y-137311064D01*
X92941000Y-124991000D02*
X92306000Y-124991000D01*
X92306000Y-124991000D02*
X83058000Y-134239000D01*
X75720000Y-137311064D02*
X75720000Y-142300000D01*
X83058000Y-134239000D02*
X78792064Y-134239000D01*
X96774000Y-121412000D02*
X96520000Y-121412000D01*
X96520000Y-121412000D02*
X92941000Y-124991000D01*
X97155000Y-121031000D02*
X96774000Y-121412000D01*
%TO.N,/VL Bus/VL_A11*%
X93045000Y-125268000D02*
X83624262Y-134688738D01*
X76990000Y-137121262D02*
X76990000Y-142300000D01*
X83624262Y-134688738D02*
X79422524Y-134688738D01*
X97409000Y-121920000D02*
X96647000Y-121920000D01*
X79422524Y-134688738D02*
X76990000Y-137121262D01*
X96647000Y-121920000D02*
X93299000Y-125268000D01*
X93299000Y-125268000D02*
X93045000Y-125268000D01*
%TO.N,/VL Bus/VL_A13*%
X80264000Y-135255000D02*
X78260000Y-137259000D01*
X83947000Y-135255000D02*
X80264000Y-135255000D01*
X98044000Y-122682000D02*
X96520000Y-122682000D01*
X78260000Y-137259000D02*
X78260000Y-142300000D01*
X96520000Y-122682000D02*
X83947000Y-135255000D01*
%TO.N,/VL Bus/VL_A15*%
X80800000Y-137259000D02*
X80800000Y-142300000D01*
X97282000Y-123317000D02*
X96647000Y-123317000D01*
X82423000Y-135636000D02*
X80800000Y-137259000D01*
X84328000Y-135636000D02*
X82423000Y-135636000D01*
X96647000Y-123317000D02*
X84328000Y-135636000D01*
%TO.N,/VL Bus/VL_A17*%
X96393000Y-124587000D02*
X84709000Y-136271000D01*
X84709000Y-136271000D02*
X82804000Y-136271000D01*
X97663000Y-124587000D02*
X96393000Y-124587000D01*
X82804000Y-136271000D02*
X82070000Y-137005000D01*
X82070000Y-137005000D02*
X82070000Y-142300000D01*
%TO.N,/VL Bus/VL_A19*%
X84610000Y-137259000D02*
X84610000Y-142300000D01*
X96901000Y-125222000D02*
X96422564Y-125222000D01*
X95891000Y-125753564D02*
X95891000Y-125978000D01*
X95891000Y-125978000D02*
X84610000Y-137259000D01*
X96422564Y-125222000D02*
X95891000Y-125753564D01*
%TO.N,/VL Bus/VL_A21*%
X85477000Y-141897000D02*
X85880000Y-142300000D01*
X96520000Y-125961500D02*
X96520000Y-126238000D01*
X85477000Y-137281000D02*
X85477000Y-141897000D01*
X96520000Y-126238000D02*
X85477000Y-137281000D01*
%TO.N,/VL Bus/VL_D30*%
X94361000Y-130556000D02*
X96050000Y-132245000D01*
X96050000Y-132245000D02*
X96050000Y-142300000D01*
%TO.N,/VL Bus/VL_D28*%
X97078000Y-129159000D02*
X97078000Y-138734000D01*
X97310000Y-138966000D02*
X97310000Y-142300000D01*
X97078000Y-138734000D02*
X97310000Y-138966000D01*
%TO.N,/VL Bus/VL_D26*%
X98580000Y-129661000D02*
X98580000Y-142300000D01*
X98078000Y-129159000D02*
X98580000Y-129661000D01*
%TO.N,/VL Bus/VL_D24*%
X99078000Y-129159000D02*
X99850000Y-129931000D01*
X99850000Y-129931000D02*
X99850000Y-142300000D01*
%TO.N,/VL Bus/VL_D22*%
X101120000Y-129639000D02*
X101120000Y-142300000D01*
X101578000Y-129181000D02*
X101120000Y-129639000D01*
%TO.N,/VL Bus/VL_D20*%
X103078000Y-129205000D02*
X103660000Y-129787000D01*
X103660000Y-129787000D02*
X103660000Y-142300000D01*
%TO.N,/VL Bus/VL_D18*%
X104078000Y-129221000D02*
X104940000Y-130083000D01*
X104940000Y-130083000D02*
X104940000Y-142300000D01*
%TO.N,/VL Bus/VL_D16*%
X106200000Y-130359000D02*
X106200000Y-142300000D01*
X105078000Y-129237000D02*
X106200000Y-130359000D01*
%TO.N,/VL Bus/VL_D14*%
X110617000Y-129159000D02*
X107470000Y-132306000D01*
X107470000Y-132306000D02*
X107470000Y-142300000D01*
%TO.N,/VL Bus/VL_D12*%
X111578000Y-129214000D02*
X110010000Y-130782000D01*
X110010000Y-130782000D02*
X110010000Y-142300000D01*
%TO.N,/VL Bus/VL_D10*%
X113030000Y-129159000D02*
X111280000Y-130909000D01*
X111280000Y-130909000D02*
X111280000Y-142300000D01*
%TO.N,/VL Bus/VL_D8*%
X114046000Y-129159000D02*
X113820000Y-129385000D01*
X113820000Y-129385000D02*
X113820000Y-142300000D01*
%TO.N,/VL Bus/VL_D6*%
X116078000Y-129032000D02*
X115090000Y-130020000D01*
X115090000Y-130020000D02*
X115090000Y-142300000D01*
%TO.N,/VL Bus/VL_D4*%
X116370000Y-129756000D02*
X116370000Y-142300000D01*
X117094000Y-129032000D02*
X116370000Y-129756000D01*
%TO.N,/VL Bus/VL_D2*%
X118110000Y-129032000D02*
X117630000Y-129512000D01*
X117630000Y-129512000D02*
X117630000Y-142300000D01*
%TO.N,/VL Bus/VL_D0*%
X118745000Y-129921000D02*
X118900000Y-130076000D01*
X118900000Y-130076000D02*
X118900000Y-142300000D01*
%TO.N,/VL Bus/LDEV*%
X108204000Y-129286000D02*
X108204000Y-122936000D01*
X101473000Y-116205000D02*
X95758000Y-116205000D01*
X108204000Y-122936000D02*
X101473000Y-116205000D01*
X95758000Y-116205000D02*
X92964000Y-118999000D01*
X63881000Y-135636000D02*
X59436000Y-135636000D01*
X80518000Y-118999000D02*
X63881000Y-135636000D01*
X92964000Y-118999000D02*
X80518000Y-118999000D01*
X59436000Y-135636000D02*
X58547000Y-136525000D01*
%TO.N,/VL Bus/LRDY*%
X93091000Y-119380000D02*
X95989000Y-116482000D01*
X95989000Y-116482000D02*
X101252738Y-116482000D01*
X107569000Y-122798262D02*
X107569000Y-128270000D01*
X80645000Y-119380000D02*
X93091000Y-119380000D01*
X101252738Y-116482000D02*
X107569000Y-122798262D01*
X59309000Y-137541000D02*
X60833000Y-136017000D01*
X64008000Y-136017000D02*
X80645000Y-119380000D01*
X60833000Y-136017000D02*
X64008000Y-136017000D01*
%TO.N,/VL Bus/RDYR*%
X61688827Y-136398000D02*
X64135000Y-136398000D01*
X106680000Y-122301000D02*
X106680000Y-128778000D01*
X101138000Y-116759000D02*
X106680000Y-122301000D01*
X96220000Y-116759000D02*
X101138000Y-116759000D01*
X59210000Y-138876827D02*
X61688827Y-136398000D01*
X80772000Y-119761000D02*
X93218000Y-119761000D01*
X93218000Y-119761000D02*
X96220000Y-116759000D01*
X64135000Y-136398000D02*
X80772000Y-119761000D01*
X59210000Y-142300000D02*
X59210000Y-138876827D01*
%TO.N,/HS*%
X89154000Y-95123000D02*
X82804000Y-95123000D01*
X82804000Y-95123000D02*
X77320000Y-89639000D01*
X99441000Y-98679000D02*
X101473000Y-98679000D01*
X59603000Y-99401000D02*
X57825000Y-99401000D01*
X101473000Y-98679000D02*
X102235000Y-99441000D01*
X99441000Y-98679000D02*
X99187000Y-98425000D01*
X194818000Y-122936000D02*
X251714000Y-122936000D01*
X99187000Y-98425000D02*
X92456000Y-98425000D01*
X133223000Y-132842000D02*
X184912000Y-132842000D01*
X102235000Y-99441000D02*
X102235000Y-101854000D01*
X184912000Y-132842000D02*
X194818000Y-122936000D01*
X263043385Y-111606615D02*
X263043385Y-111405385D01*
X251714000Y-122936000D02*
X263043385Y-111606615D01*
X69365000Y-89639000D02*
X59603000Y-99401000D01*
X102235000Y-101854000D02*
X133223000Y-132842000D01*
X77320000Y-89639000D02*
X69365000Y-89639000D01*
X92456000Y-98425000D02*
X89154000Y-95123000D01*
X57825000Y-99401000D02*
X52705000Y-104521000D01*
X52705000Y-104521000D02*
X50800000Y-104521000D01*
%TO.N,/VS*%
X185039000Y-133223000D02*
X194964000Y-123298000D01*
X101242000Y-98956000D02*
X101958000Y-99672000D01*
X69596000Y-89916000D02*
X59834000Y-99678000D01*
X251860000Y-123298000D02*
X265303000Y-109855000D01*
X92339738Y-98806000D02*
X89014737Y-95481000D01*
X265303000Y-109855000D02*
X265303000Y-104140000D01*
X194964000Y-123298000D02*
X251860000Y-123298000D01*
X101958000Y-102085000D02*
X133096000Y-133223000D01*
X59834000Y-99678000D02*
X58097326Y-99678000D01*
X50800000Y-106975326D02*
X50800000Y-107061000D01*
X133096000Y-133223000D02*
X185039000Y-133223000D01*
X82654000Y-95481000D02*
X77089000Y-89916000D01*
X89014737Y-95481000D02*
X82654000Y-95481000D01*
X100434000Y-98956000D02*
X101242000Y-98956000D01*
X98679000Y-98806000D02*
X92339738Y-98806000D01*
X77089000Y-89916000D02*
X69596000Y-89916000D01*
X58097326Y-99678000D02*
X50800000Y-106975326D01*
X99314000Y-99441000D02*
X98679000Y-98806000D01*
X99314000Y-100076000D02*
X99314000Y-99441000D01*
X101958000Y-99672000D02*
X101958000Y-102085000D01*
X99314000Y-100076000D02*
X100434000Y-98956000D01*
%TO.N,Net-(U1F-~{RAS0})*%
X122053000Y-113290000D02*
X122809000Y-114046000D01*
X122053000Y-100503064D02*
X122053000Y-113290000D01*
X139319000Y-93726000D02*
X138811000Y-94234000D01*
X138811000Y-94234000D02*
X128322064Y-94234000D01*
X128322064Y-94234000D02*
X122053000Y-100503064D01*
%TO.N,Net-(U1F-~{CAS1})*%
X133477000Y-132461000D02*
X122809000Y-121793000D01*
X168904000Y-132461000D02*
X133477000Y-132461000D01*
X122809000Y-121793000D02*
X122809000Y-121539000D01*
X170815000Y-130550000D02*
X168904000Y-132461000D01*
%TO.N,Net-(U1F-~{CAS2})*%
X135382000Y-113284000D02*
X132207000Y-113284000D01*
X153670000Y-118110000D02*
X140208000Y-118110000D01*
X154305000Y-117475000D02*
X153670000Y-118110000D01*
X132207000Y-113284000D02*
X131318000Y-114173000D01*
X140208000Y-118110000D02*
X135382000Y-113284000D01*
%TO.N,Net-(U1F-~{CAS3})*%
X140087000Y-118497000D02*
X135890000Y-114300000D01*
X132588000Y-114300000D02*
X132334000Y-114046000D01*
X154553000Y-118497000D02*
X140087000Y-118497000D01*
X155067000Y-117983000D02*
X154553000Y-118497000D01*
X135890000Y-114300000D02*
X132588000Y-114300000D01*
%TO.N,Net-(U1F-~{CAS4})*%
X165989000Y-117348000D02*
X165989000Y-126365000D01*
X154178000Y-87884000D02*
X154178000Y-105537000D01*
X154178000Y-105537000D02*
X165989000Y-117348000D01*
X157353000Y-84709000D02*
X154178000Y-87884000D01*
X157353000Y-82550000D02*
X157353000Y-84709000D01*
X165989000Y-126365000D02*
X163830000Y-128524000D01*
X152400000Y-128524000D02*
X151892000Y-129032000D01*
X163830000Y-128524000D02*
X152400000Y-128524000D01*
%TO.N,Net-(U1F-~{CAS5})*%
X153797000Y-87630000D02*
X153797000Y-105664000D01*
X163581369Y-128143000D02*
X151944771Y-128143000D01*
X153797000Y-105664000D02*
X165608000Y-117475000D01*
X165608000Y-117475000D02*
X165608000Y-126116369D01*
X155448000Y-81915000D02*
X156337000Y-81915000D01*
X151944771Y-128143000D02*
X151824271Y-128022500D01*
X165608000Y-126116369D02*
X163581369Y-128143000D01*
X156337000Y-81915000D02*
X156718000Y-82296000D01*
X155067000Y-82296000D02*
X155448000Y-81915000D01*
X156718000Y-84709000D02*
X153797000Y-87630000D01*
X156718000Y-82296000D02*
X156718000Y-84709000D01*
%TO.N,Net-(U1F-~{CAS6})*%
X165227000Y-117602000D02*
X153416000Y-105791000D01*
X165227000Y-125984000D02*
X165227000Y-117602000D01*
X156083000Y-83058000D02*
X156083000Y-82677000D01*
X153416000Y-105791000D02*
X153416000Y-85725000D01*
X153416000Y-85725000D02*
X156083000Y-83058000D01*
X163449000Y-127762000D02*
X165227000Y-125984000D01*
X151765000Y-127254000D02*
X152273000Y-127762000D01*
X152273000Y-127762000D02*
X163449000Y-127762000D01*
%TO.N,Net-(U1F-~{CAS7})*%
X154051000Y-82677000D02*
X153035000Y-83693000D01*
X164846000Y-125857000D02*
X163322000Y-127381000D01*
X153035000Y-105918000D02*
X164846000Y-117729000D01*
X163322000Y-127381000D02*
X152781000Y-127381000D01*
X152781000Y-127381000D02*
X151765000Y-126365000D01*
X153035000Y-83693000D02*
X153035000Y-105918000D01*
X164846000Y-117729000D02*
X164846000Y-125857000D01*
%TO.N,Net-(U1G-~{SRESET})*%
X70485000Y-133148064D02*
X73077064Y-130556000D01*
X70485000Y-134747000D02*
X70485000Y-133148064D01*
X81280000Y-122682000D02*
X90424000Y-122682000D01*
X73406000Y-130556000D02*
X81280000Y-122682000D01*
X73077064Y-130556000D02*
X73406000Y-130556000D01*
%TO.N,Net-(U1D-LD6{slash}PA6)*%
X90551000Y-115898936D02*
X90551000Y-113464500D01*
X92964000Y-117461500D02*
X92113564Y-117461500D01*
X92113564Y-117461500D02*
X90551000Y-115898936D01*
%TO.N,Net-(U1D-LD7{slash}PA7)*%
X91440000Y-113538000D02*
X92052000Y-112926000D01*
X92052000Y-112926000D02*
X96924000Y-112926000D01*
X97409000Y-113411000D02*
X97917000Y-113411000D01*
X96924000Y-112926000D02*
X97409000Y-113411000D01*
%TO.N,/EVIDEO*%
X77343000Y-92710000D02*
X70993000Y-92710000D01*
X81534000Y-96901000D02*
X77343000Y-92710000D01*
X93599000Y-100457000D02*
X91567000Y-100457000D01*
X91567000Y-100457000D02*
X88011000Y-96901000D01*
X99441000Y-106299000D02*
X93599000Y-100457000D01*
X99441000Y-110744000D02*
X99441000Y-106299000D01*
X88011000Y-96901000D02*
X81534000Y-96901000D01*
D21*
%TO.N,VCC*%
X151384000Y-81153000D02*
X151384000Y-83693000D01*
X255016000Y-136144000D02*
X256020000Y-137148000D01*
X189980000Y-142000000D02*
X189980000Y-136791000D01*
X47780000Y-137696000D02*
X47780000Y-142300000D01*
X94770000Y-142300000D02*
X94770000Y-138204000D01*
X79530000Y-138331000D02*
X78867000Y-137668000D01*
X109347000Y-137668000D02*
X108740000Y-138275000D01*
X256020000Y-137148000D02*
X256020000Y-142000000D01*
X189980000Y-136791000D02*
X191135000Y-135636000D01*
X94770000Y-138204000D02*
X94107000Y-137541000D01*
X108740000Y-138275000D02*
X108740000Y-142300000D01*
X79530000Y-142300000D02*
X79530000Y-138331000D01*
X47752000Y-137668000D02*
X47780000Y-137696000D01*
X151384000Y-83693000D02*
X146431000Y-88646000D01*
X139319000Y-129540000D02*
X140081000Y-130302000D01*
X139319000Y-125349000D02*
X139319000Y-129540000D01*
D23*
%TO.N,/EVCLK*%
X67691000Y-93980000D02*
X67691000Y-94742000D01*
X66040000Y-95250000D02*
X58420000Y-102870000D01*
X70231000Y-91440000D02*
X67691000Y-93980000D01*
X67183000Y-95250000D02*
X66040000Y-95250000D01*
X81730000Y-96589000D02*
X76581000Y-91440000D01*
X91718526Y-100122000D02*
X88185524Y-96589000D01*
X76581000Y-91440000D02*
X70231000Y-91440000D01*
X67691000Y-94742000D02*
X67183000Y-95250000D01*
X93772000Y-100122000D02*
X91718526Y-100122000D01*
X88185524Y-96589000D02*
X81730000Y-96589000D01*
X100330000Y-106680000D02*
X93772000Y-100122000D01*
X100330000Y-109982000D02*
X100330000Y-106680000D01*
%TO.N,/LCLK*%
X76835000Y-90678000D02*
X69850000Y-90678000D01*
X98679000Y-100584000D02*
X97663000Y-99568000D01*
X69850000Y-90678000D02*
X60071000Y-100457000D01*
X60071000Y-100457000D02*
X58420000Y-100457000D01*
X100584000Y-99822000D02*
X99822000Y-100584000D01*
X88415000Y-96035000D02*
X82192000Y-96035000D01*
X99822000Y-100584000D02*
X98679000Y-100584000D01*
X97663000Y-99568000D02*
X91948000Y-99568000D01*
X82192000Y-96035000D02*
X76835000Y-90678000D01*
X91948000Y-99568000D02*
X88415000Y-96035000D01*
%TO.N,/VL Bus/SINTR*%
X55118000Y-103049064D02*
X55118000Y-114427000D01*
X82423000Y-95758000D02*
X76962000Y-90297000D01*
X55118000Y-114427000D02*
X49530000Y-120015000D01*
X60065000Y-99955000D02*
X58212064Y-99955000D01*
X98598500Y-99568000D02*
X98217500Y-99187000D01*
X58212064Y-99955000D02*
X55118000Y-103049064D01*
X88773000Y-95758000D02*
X82423000Y-95758000D01*
X69723000Y-90297000D02*
X60065000Y-99955000D01*
X76962000Y-90297000D02*
X69723000Y-90297000D01*
X98217500Y-99187000D02*
X92202000Y-99187000D01*
X92202000Y-99187000D02*
X88773000Y-95758000D01*
%TO.N,/ISA Bus/ROMCS*%
X132969000Y-133604000D02*
X212598000Y-133604000D01*
X222377000Y-123825000D02*
X214503000Y-131699000D01*
X100076000Y-103505000D02*
X100584000Y-104013000D01*
X100584000Y-104013000D02*
X103378000Y-104013000D01*
X98679000Y-103505000D02*
X100076000Y-103505000D01*
X103378000Y-104013000D02*
X132969000Y-133604000D01*
X212598000Y-133604000D02*
X214503000Y-131699000D01*
X246126000Y-129921000D02*
X240030000Y-123825000D01*
X240030000Y-123825000D02*
X222377000Y-123825000D01*
%TO.N,/BLANK*%
X96774000Y-111252000D02*
X92053564Y-111252000D01*
X89789000Y-113516564D02*
X89789000Y-114808000D01*
X92053564Y-111252000D02*
X89789000Y-113516564D01*
X97409000Y-111887000D02*
X96774000Y-111252000D01*
X101219000Y-111887000D02*
X97409000Y-111887000D01*
%TO.N,/ISA Bus/SMEMR*%
X221869000Y-133985000D02*
X231164000Y-133985000D01*
X234545000Y-134620000D02*
X233172000Y-135993000D01*
X219583000Y-131699000D02*
X221869000Y-133985000D01*
X233160000Y-136005000D02*
X233172000Y-136017000D01*
X231164000Y-133985000D02*
X233172000Y-135993000D01*
X255524000Y-134620000D02*
X234545000Y-134620000D01*
X233172000Y-135993000D02*
X233160000Y-136005000D01*
X256921000Y-133223000D02*
X255524000Y-134620000D01*
X233172000Y-136017000D02*
X233160000Y-142000000D01*
%TO.N,/VL Bus/IRQ9*%
X56670000Y-137770936D02*
X49530000Y-130630936D01*
X56670000Y-142300000D02*
X56670000Y-137770936D01*
X49530000Y-130630936D02*
X49530000Y-122555000D01*
%TO.N,/ESYNC*%
X94013738Y-99845000D02*
X91833263Y-99845000D01*
X91833263Y-99845000D02*
X88300262Y-96312000D01*
X101219000Y-110363000D02*
X101219000Y-107050262D01*
X88300262Y-96312000D02*
X81961000Y-96312000D01*
X81961000Y-96312000D02*
X76708000Y-91059000D01*
X70104000Y-91059000D02*
X66929000Y-94234000D01*
X101219000Y-107050262D02*
X94013738Y-99845000D01*
X76708000Y-91059000D02*
X70104000Y-91059000D01*
X66929000Y-94234000D02*
X66929000Y-94615000D01*
%TD*%
M02*
