%TF.GenerationSoftware,KiCad,Pcbnew,7.0.1*%
%TF.CreationDate,2023-07-13T14:22:02+03:00*%
%TF.ProjectId,virge-vlb,76697267-652d-4766-9c62-2e6b69636164,rev?*%
%TF.SameCoordinates,Original*%
%TF.FileFunction,Drillmap*%
%TF.FilePolarity,Positive*%
%FSLAX45Y45*%
G04 Gerber Fmt 4.5, Leading zero omitted, Abs format (unit mm)*
G04 Created by KiCad (PCBNEW 7.0.1) date 2023-07-13 14:22:02*
%MOMM*%
%LPD*%
G01*
G04 APERTURE LIST*
%ADD10C,0.200000*%
G04 APERTURE END LIST*
D10*
X3379219Y-14783924D02*
X3379219Y-14583924D01*
X3379219Y-14583924D02*
X3426838Y-14583924D01*
X3426838Y-14583924D02*
X3455409Y-14593448D01*
X3455409Y-14593448D02*
X3474457Y-14612495D01*
X3474457Y-14612495D02*
X3483981Y-14631543D01*
X3483981Y-14631543D02*
X3493505Y-14669638D01*
X3493505Y-14669638D02*
X3493505Y-14698209D01*
X3493505Y-14698209D02*
X3483981Y-14736305D01*
X3483981Y-14736305D02*
X3474457Y-14755352D01*
X3474457Y-14755352D02*
X3455409Y-14774400D01*
X3455409Y-14774400D02*
X3426838Y-14783924D01*
X3426838Y-14783924D02*
X3379219Y-14783924D01*
X3579219Y-14783924D02*
X3579219Y-14650590D01*
X3579219Y-14688686D02*
X3588743Y-14669638D01*
X3588743Y-14669638D02*
X3598267Y-14660114D01*
X3598267Y-14660114D02*
X3617314Y-14650590D01*
X3617314Y-14650590D02*
X3636362Y-14650590D01*
X3703028Y-14783924D02*
X3703028Y-14650590D01*
X3703028Y-14583924D02*
X3693505Y-14593448D01*
X3693505Y-14593448D02*
X3703028Y-14602971D01*
X3703028Y-14602971D02*
X3712552Y-14593448D01*
X3712552Y-14593448D02*
X3703028Y-14583924D01*
X3703028Y-14583924D02*
X3703028Y-14602971D01*
X3826838Y-14783924D02*
X3807790Y-14774400D01*
X3807790Y-14774400D02*
X3798267Y-14755352D01*
X3798267Y-14755352D02*
X3798267Y-14583924D01*
X3931600Y-14783924D02*
X3912552Y-14774400D01*
X3912552Y-14774400D02*
X3903028Y-14755352D01*
X3903028Y-14755352D02*
X3903028Y-14583924D01*
X4160171Y-14783924D02*
X4160171Y-14583924D01*
X4160171Y-14583924D02*
X4226838Y-14726781D01*
X4226838Y-14726781D02*
X4293505Y-14583924D01*
X4293505Y-14583924D02*
X4293505Y-14783924D01*
X4474457Y-14783924D02*
X4474457Y-14679162D01*
X4474457Y-14679162D02*
X4464933Y-14660114D01*
X4464933Y-14660114D02*
X4445886Y-14650590D01*
X4445886Y-14650590D02*
X4407790Y-14650590D01*
X4407790Y-14650590D02*
X4388743Y-14660114D01*
X4474457Y-14774400D02*
X4455410Y-14783924D01*
X4455410Y-14783924D02*
X4407790Y-14783924D01*
X4407790Y-14783924D02*
X4388743Y-14774400D01*
X4388743Y-14774400D02*
X4379219Y-14755352D01*
X4379219Y-14755352D02*
X4379219Y-14736305D01*
X4379219Y-14736305D02*
X4388743Y-14717257D01*
X4388743Y-14717257D02*
X4407790Y-14707733D01*
X4407790Y-14707733D02*
X4455410Y-14707733D01*
X4455410Y-14707733D02*
X4474457Y-14698209D01*
X4569695Y-14650590D02*
X4569695Y-14850590D01*
X4569695Y-14660114D02*
X4588743Y-14650590D01*
X4588743Y-14650590D02*
X4626838Y-14650590D01*
X4626838Y-14650590D02*
X4645886Y-14660114D01*
X4645886Y-14660114D02*
X4655410Y-14669638D01*
X4655410Y-14669638D02*
X4664933Y-14688686D01*
X4664933Y-14688686D02*
X4664933Y-14745828D01*
X4664933Y-14745828D02*
X4655410Y-14764876D01*
X4655410Y-14764876D02*
X4645886Y-14774400D01*
X4645886Y-14774400D02*
X4626838Y-14783924D01*
X4626838Y-14783924D02*
X4588743Y-14783924D01*
X4588743Y-14783924D02*
X4569695Y-14774400D01*
X4750648Y-14764876D02*
X4760171Y-14774400D01*
X4760171Y-14774400D02*
X4750648Y-14783924D01*
X4750648Y-14783924D02*
X4741124Y-14774400D01*
X4741124Y-14774400D02*
X4750648Y-14764876D01*
X4750648Y-14764876D02*
X4750648Y-14783924D01*
X4750648Y-14660114D02*
X4760171Y-14669638D01*
X4760171Y-14669638D02*
X4750648Y-14679162D01*
X4750648Y-14679162D02*
X4741124Y-14669638D01*
X4741124Y-14669638D02*
X4750648Y-14660114D01*
X4750648Y-14660114D02*
X4750648Y-14679162D01*
M02*
