%TF.GenerationSoftware,KiCad,Pcbnew,7.0.1*%
%TF.CreationDate,2023-07-13T14:21:50+03:00*%
%TF.ProjectId,virge-vlb,76697267-652d-4766-9c62-2e6b69636164,rev?*%
%TF.SameCoordinates,Original*%
%TF.FileFunction,Soldermask,Top*%
%TF.FilePolarity,Negative*%
%FSLAX46Y46*%
G04 Gerber Fmt 4.6, Leading zero omitted, Abs format (unit mm)*
G04 Created by KiCad (PCBNEW 7.0.1) date 2023-07-13 14:21:50*
%MOMM*%
%LPD*%
G01*
G04 APERTURE LIST*
G04 Aperture macros list*
%AMRoundRect*
0 Rectangle with rounded corners*
0 $1 Rounding radius*
0 $2 $3 $4 $5 $6 $7 $8 $9 X,Y pos of 4 corners*
0 Add a 4 corners polygon primitive as box body*
4,1,4,$2,$3,$4,$5,$6,$7,$8,$9,$2,$3,0*
0 Add four circle primitives for the rounded corners*
1,1,$1+$1,$2,$3*
1,1,$1+$1,$4,$5*
1,1,$1+$1,$6,$7*
1,1,$1+$1,$8,$9*
0 Add four rect primitives between the rounded corners*
20,1,$1+$1,$2,$3,$4,$5,0*
20,1,$1+$1,$4,$5,$6,$7,0*
20,1,$1+$1,$6,$7,$8,$9,0*
20,1,$1+$1,$8,$9,$2,$3,0*%
G04 Aperture macros list end*
%TA.AperFunction,Profile*%
%ADD10C,0.120000*%
%TD*%
%ADD11RoundRect,0.288000X0.350000X0.450000X-0.350000X0.450000X-0.350000X-0.450000X0.350000X-0.450000X0*%
%ADD12RoundRect,0.038000X-0.510000X-2.285000X0.510000X-2.285000X0.510000X2.285000X-0.510000X2.285000X0*%
%ADD13RoundRect,0.038000X-0.255000X-0.380000X0.255000X-0.380000X0.255000X0.380000X-0.255000X0.380000X0*%
%ADD14RoundRect,0.038000X-0.890000X-3.500000X0.890000X-3.500000X0.890000X3.500000X-0.890000X3.500000X0*%
%ADD15RoundRect,0.288000X0.450000X-0.350000X0.450000X0.350000X-0.450000X0.350000X-0.450000X-0.350000X0*%
%ADD16RoundRect,0.038000X-0.800000X-0.800000X0.800000X-0.800000X0.800000X0.800000X-0.800000X0.800000X0*%
%ADD17C,1.676000*%
%ADD18RoundRect,0.288000X0.337500X0.475000X-0.337500X0.475000X-0.337500X-0.475000X0.337500X-0.475000X0*%
%ADD19RoundRect,0.288000X-0.475000X0.337500X-0.475000X-0.337500X0.475000X-0.337500X0.475000X0.337500X0*%
%ADD20RoundRect,0.038000X0.850000X-0.850000X0.850000X0.850000X-0.850000X0.850000X-0.850000X-0.850000X0*%
%ADD21O,1.776000X1.776000*%
%ADD22RoundRect,0.288000X-0.350000X-0.450000X0.350000X-0.450000X0.350000X0.450000X-0.350000X0.450000X0*%
%ADD23RoundRect,0.288000X-0.337500X-0.475000X0.337500X-0.475000X0.337500X0.475000X-0.337500X0.475000X0*%
%ADD24C,1.576000*%
%ADD25RoundRect,0.113000X0.075000X-0.662500X0.075000X0.662500X-0.075000X0.662500X-0.075000X-0.662500X0*%
%ADD26RoundRect,0.113000X0.662500X-0.075000X0.662500X0.075000X-0.662500X0.075000X-0.662500X-0.075000X0*%
%ADD27RoundRect,0.288000X-0.450000X0.350000X-0.450000X-0.350000X0.450000X-0.350000X0.450000X0.350000X0*%
%ADD28RoundRect,0.188000X-0.700000X-0.150000X0.700000X-0.150000X0.700000X0.150000X-0.700000X0.150000X0*%
%ADD29RoundRect,0.288000X0.450000X-0.325000X0.450000X0.325000X-0.450000X0.325000X-0.450000X-0.325000X0*%
%ADD30RoundRect,0.188000X0.150000X-0.825000X0.150000X0.825000X-0.150000X0.825000X-0.150000X-0.825000X0*%
%ADD31RoundRect,0.188000X0.150000X-0.700000X0.150000X0.700000X-0.150000X0.700000X-0.150000X-0.700000X0*%
%ADD32C,4.076000*%
%ADD33RoundRect,0.038000X0.800000X-0.800000X0.800000X0.800000X-0.800000X0.800000X-0.800000X-0.800000X0*%
%ADD34RoundRect,0.188000X0.837500X0.150000X-0.837500X0.150000X-0.837500X-0.150000X0.837500X-0.150000X0*%
%ADD35RoundRect,0.038000X-0.800000X0.800000X-0.800000X-0.800000X0.800000X-0.800000X0.800000X0.800000X0*%
%ADD36O,1.676000X1.676000*%
%ADD37RoundRect,0.038000X0.800000X0.800000X-0.800000X0.800000X-0.800000X-0.800000X0.800000X-0.800000X0*%
G04 APERTURE END LIST*
D10*
%TO.C,J1*%
X31376000Y-136854000D02*
X31376000Y-75254000D01*
X31376000Y-136854000D02*
X31376000Y-144654000D01*
X31376000Y-144654000D02*
X45976000Y-144654000D01*
X45976000Y-137354000D02*
X47776000Y-137354000D01*
X45976000Y-144654000D02*
X45976000Y-137354000D01*
X47776000Y-137354000D02*
X47776000Y-144654000D01*
X47776000Y-144654000D02*
X105576000Y-144654000D01*
X105576000Y-136754000D02*
X105576000Y-144654000D01*
X168076000Y-136754000D02*
X105576000Y-136754000D01*
X168076000Y-136754000D02*
X168076000Y-144654000D01*
X168076000Y-144654000D02*
X249476000Y-144654000D01*
X249476000Y-136754000D02*
X271916004Y-136754000D01*
X249476000Y-144654000D02*
X249476000Y-136754000D01*
X271916004Y-75254000D02*
X31376000Y-75254000D01*
X271916004Y-136754000D02*
X271916004Y-75254000D01*
%TD*%
D11*
%TO.C,R48*%
X256905000Y-108331000D03*
X254905000Y-108331000D03*
%TD*%
D12*
%TO.C,J1*%
X104676000Y-140954000D03*
D13*
X104676000Y-143614000D03*
D12*
X103406000Y-140954000D03*
D13*
X103406000Y-143614000D03*
D12*
X102146000Y-140954000D03*
D13*
X102146000Y-143614000D03*
D12*
X100866000Y-140954000D03*
D13*
X100866000Y-143614000D03*
D12*
X99596000Y-140954000D03*
D13*
X99596000Y-143614000D03*
D12*
X98326000Y-140954000D03*
D13*
X98326000Y-143614000D03*
D12*
X97056000Y-140954000D03*
D13*
X97056000Y-143614000D03*
D12*
X95786000Y-140954000D03*
D13*
X95786000Y-143614000D03*
D12*
X94516000Y-140954000D03*
D13*
X94516000Y-143614000D03*
D12*
X93246000Y-140954000D03*
D13*
X93246000Y-143614000D03*
D12*
X91976000Y-140954000D03*
D13*
X91976000Y-143614000D03*
D12*
X90716000Y-140954000D03*
D13*
X90716000Y-143614000D03*
D12*
X89436000Y-140954000D03*
D13*
X89436000Y-143614000D03*
D12*
X88166000Y-140954000D03*
D13*
X88166000Y-143614000D03*
D12*
X86896000Y-140954000D03*
D13*
X86896000Y-143614000D03*
D12*
X85626000Y-140954000D03*
D13*
X85626000Y-143614000D03*
D12*
X84356000Y-140954000D03*
D13*
X84356000Y-143614000D03*
D12*
X83086000Y-140954000D03*
D13*
X83086000Y-143614000D03*
D12*
X81826000Y-140954000D03*
D13*
X81826000Y-143614000D03*
D12*
X80546000Y-140954000D03*
D13*
X80546000Y-143614000D03*
D12*
X79286000Y-140954000D03*
D13*
X79286000Y-143614000D03*
D12*
X78006000Y-140954000D03*
D13*
X78006000Y-143614000D03*
D12*
X76736000Y-140954000D03*
D13*
X76736000Y-143614000D03*
D12*
X75466000Y-140954000D03*
D13*
X75466000Y-143614000D03*
D12*
X74196000Y-140954000D03*
D13*
X74196000Y-143614000D03*
D12*
X72926000Y-140954000D03*
D13*
X72926000Y-143614000D03*
D12*
X71656000Y-140954000D03*
D13*
X71656000Y-143614000D03*
D12*
X70386000Y-140954000D03*
D13*
X70386000Y-143614000D03*
D12*
X69116000Y-140954000D03*
D13*
X69116000Y-143614000D03*
D12*
X67846000Y-140954000D03*
D13*
X67846000Y-143614000D03*
D12*
X66576000Y-140954000D03*
D13*
X66576000Y-143614000D03*
D12*
X65306000Y-140954000D03*
D13*
X65306000Y-143614000D03*
D12*
X64036000Y-140954000D03*
D13*
X64036000Y-143614000D03*
D12*
X62766000Y-140954000D03*
D13*
X62766000Y-143614000D03*
D12*
X61496000Y-140954000D03*
D13*
X61496000Y-143614000D03*
D12*
X60226000Y-140954000D03*
D13*
X60226000Y-143614000D03*
D12*
X58956000Y-140954000D03*
D13*
X58956000Y-143614000D03*
D12*
X57686000Y-140954000D03*
D13*
X57686000Y-143614000D03*
D12*
X56416000Y-140954000D03*
D13*
X56416000Y-143614000D03*
D12*
X55146000Y-140954000D03*
D13*
X55146000Y-143614000D03*
D12*
X53876000Y-140954000D03*
D13*
X53876000Y-143614000D03*
D12*
X52606000Y-140954000D03*
D13*
X52606000Y-143614000D03*
D12*
X51336000Y-140954000D03*
D13*
X51336000Y-143614000D03*
D12*
X50066000Y-140954000D03*
D13*
X50066000Y-143614000D03*
D12*
X48796000Y-140954000D03*
D13*
X48796000Y-143614000D03*
D12*
X44986000Y-140954000D03*
D13*
X44986000Y-143614000D03*
D12*
X43716000Y-140954000D03*
D13*
X43716000Y-143614000D03*
D12*
X42446000Y-140954000D03*
D13*
X42446000Y-143614000D03*
D12*
X41176000Y-140954000D03*
D13*
X41176000Y-143614000D03*
D12*
X39906000Y-140954000D03*
D13*
X39906000Y-143614000D03*
D12*
X38636000Y-140954000D03*
D13*
X38636000Y-143614000D03*
D12*
X37366000Y-140954000D03*
D13*
X37366000Y-143614000D03*
D12*
X36096000Y-140954000D03*
D13*
X36096000Y-143614000D03*
D12*
X34826000Y-140954000D03*
D13*
X34826000Y-143614000D03*
D12*
X33556000Y-140954000D03*
D13*
X33556000Y-143614000D03*
D12*
X32286000Y-140954000D03*
D13*
X32286000Y-143614000D03*
D14*
X246876000Y-140344000D03*
X244336000Y-140344000D03*
X241796000Y-140344000D03*
X239256000Y-140344000D03*
X236716000Y-140344000D03*
X234176000Y-140344000D03*
X231636000Y-140344000D03*
X229096000Y-140344000D03*
X226556000Y-140344000D03*
X224016000Y-140344000D03*
X221476000Y-140344000D03*
X218936000Y-140344000D03*
X216396000Y-140344000D03*
X213856000Y-140344000D03*
X211316000Y-140344000D03*
X208776000Y-140344000D03*
X206236000Y-140344000D03*
X203696000Y-140344000D03*
X201156000Y-140344000D03*
X198616000Y-140344000D03*
X196076000Y-140344000D03*
X193536000Y-140344000D03*
X190996000Y-140344000D03*
X188456000Y-140344000D03*
X185916000Y-140344000D03*
X183376000Y-140344000D03*
X180836000Y-140344000D03*
X178296000Y-140344000D03*
X175756000Y-140354000D03*
X173216000Y-140354000D03*
X170676000Y-140354000D03*
%TD*%
D15*
%TO.C,R47*%
X78232000Y-131734000D03*
X78232000Y-129734000D03*
%TD*%
D16*
%TO.C,C23*%
X38013000Y-125400000D03*
D17*
X40513000Y-125400000D03*
%TD*%
D15*
%TO.C,R21*%
X97155000Y-97444000D03*
X97155000Y-95444000D03*
%TD*%
D18*
%TO.C,C14*%
X74697500Y-103683000D03*
X72622500Y-103683000D03*
%TD*%
D15*
%TO.C,R17*%
X141097000Y-79791000D03*
X141097000Y-77791000D03*
%TD*%
D11*
%TO.C,R39*%
X116443000Y-106096000D03*
X114443000Y-106096000D03*
%TD*%
D19*
%TO.C,C12*%
X138938000Y-78083500D03*
X138938000Y-80158500D03*
%TD*%
D11*
%TO.C,R43*%
X74660000Y-105715000D03*
X72660000Y-105715000D03*
%TD*%
%TO.C,R11*%
X177250000Y-122100000D03*
X175250000Y-122100000D03*
%TD*%
D20*
%TO.C,JP1*%
X249418000Y-108331000D03*
D21*
X251958000Y-108331000D03*
%TD*%
D22*
%TO.C,R41*%
X73676000Y-109779000D03*
X75676000Y-109779000D03*
%TD*%
D23*
%TO.C,C4*%
X247755500Y-86030000D03*
X249830500Y-86030000D03*
%TD*%
D19*
%TO.C,C18*%
X117602000Y-130712500D03*
X117602000Y-132787500D03*
%TD*%
D16*
%TO.C,C22*%
X51550000Y-121350000D03*
D17*
X54050000Y-121350000D03*
%TD*%
D23*
%TO.C,C6*%
X251692500Y-96317000D03*
X253767500Y-96317000D03*
%TD*%
D11*
%TO.C,R34*%
X161528000Y-112700000D03*
X159528000Y-112700000D03*
%TD*%
D22*
%TO.C,R4*%
X247793000Y-88316000D03*
X249793000Y-88316000D03*
%TD*%
D16*
%TO.C,C24*%
X54293888Y-97968000D03*
D17*
X56793888Y-97968000D03*
%TD*%
D11*
%TO.C,R32*%
X161528000Y-108636000D03*
X159528000Y-108636000D03*
%TD*%
D24*
%TO.C,Y1*%
X66728000Y-98476000D03*
X71628000Y-98476000D03*
%TD*%
D18*
%TO.C,C2*%
X253767500Y-116002000D03*
X251692500Y-116002000D03*
%TD*%
D25*
%TO.C,U7*%
X82373000Y-130329500D03*
X82873000Y-130329500D03*
X83373000Y-130329500D03*
X83873000Y-130329500D03*
X84373000Y-130329500D03*
X84873000Y-130329500D03*
X85373000Y-130329500D03*
X85873000Y-130329500D03*
X86373000Y-130329500D03*
X86873000Y-130329500D03*
X87373000Y-130329500D03*
X87873000Y-130329500D03*
X88373000Y-130329500D03*
X88873000Y-130329500D03*
X89373000Y-130329500D03*
X89873000Y-130329500D03*
X90373000Y-130329500D03*
X90873000Y-130329500D03*
X91373000Y-130329500D03*
X91873000Y-130329500D03*
X92373000Y-130329500D03*
X92873000Y-130329500D03*
X93373000Y-130329500D03*
X93873000Y-130329500D03*
X94373000Y-130329500D03*
X94873000Y-130329500D03*
X95373000Y-130329500D03*
X95873000Y-130329500D03*
X96373000Y-130329500D03*
X96873000Y-130329500D03*
X97373000Y-130329500D03*
X97873000Y-130329500D03*
X98373000Y-130329500D03*
X98873000Y-130329500D03*
X99373000Y-130329500D03*
X99873000Y-130329500D03*
X100373000Y-130329500D03*
X100873000Y-130329500D03*
X101373000Y-130329500D03*
X101873000Y-130329500D03*
X102373000Y-130329500D03*
X102873000Y-130329500D03*
X103373000Y-130329500D03*
X103873000Y-130329500D03*
X104373000Y-130329500D03*
X104873000Y-130329500D03*
X105373000Y-130329500D03*
X105873000Y-130329500D03*
X106373000Y-130329500D03*
X106873000Y-130329500D03*
X107373000Y-130329500D03*
X107873000Y-130329500D03*
D26*
X110085500Y-128117000D03*
X110085500Y-127617000D03*
X110085500Y-127117000D03*
X110085500Y-126617000D03*
X110085500Y-126117000D03*
X110085500Y-125617000D03*
X110085500Y-125117000D03*
X110085500Y-124617000D03*
X110085500Y-124117000D03*
X110085500Y-123617000D03*
X110085500Y-123117000D03*
X110085500Y-122617000D03*
X110085500Y-122117000D03*
X110085500Y-121617000D03*
X110085500Y-121117000D03*
X110085500Y-120617000D03*
X110085500Y-120117000D03*
X110085500Y-119617000D03*
X110085500Y-119117000D03*
X110085500Y-118617000D03*
X110085500Y-118117000D03*
X110085500Y-117617000D03*
X110085500Y-117117000D03*
X110085500Y-116617000D03*
X110085500Y-116117000D03*
X110085500Y-115617000D03*
X110085500Y-115117000D03*
X110085500Y-114617000D03*
X110085500Y-114117000D03*
X110085500Y-113617000D03*
X110085500Y-113117000D03*
X110085500Y-112617000D03*
X110085500Y-112117000D03*
X110085500Y-111617000D03*
X110085500Y-111117000D03*
X110085500Y-110617000D03*
X110085500Y-110117000D03*
X110085500Y-109617000D03*
X110085500Y-109117000D03*
X110085500Y-108617000D03*
X110085500Y-108117000D03*
X110085500Y-107617000D03*
X110085500Y-107117000D03*
X110085500Y-106617000D03*
X110085500Y-106117000D03*
X110085500Y-105617000D03*
X110085500Y-105117000D03*
X110085500Y-104617000D03*
X110085500Y-104117000D03*
X110085500Y-103617000D03*
X110085500Y-103117000D03*
X110085500Y-102617000D03*
D25*
X107873000Y-100404500D03*
X107373000Y-100404500D03*
X106873000Y-100404500D03*
X106373000Y-100404500D03*
X105873000Y-100404500D03*
X105373000Y-100404500D03*
X104873000Y-100404500D03*
X104373000Y-100404500D03*
X103873000Y-100404500D03*
X103373000Y-100404500D03*
X102873000Y-100404500D03*
X102373000Y-100404500D03*
X101873000Y-100404500D03*
X101373000Y-100404500D03*
X100873000Y-100404500D03*
X100373000Y-100404500D03*
X99873000Y-100404500D03*
X99373000Y-100404500D03*
X98873000Y-100404500D03*
X98373000Y-100404500D03*
X97873000Y-100404500D03*
X97373000Y-100404500D03*
X96873000Y-100404500D03*
X96373000Y-100404500D03*
X95873000Y-100404500D03*
X95373000Y-100404500D03*
X94873000Y-100404500D03*
X94373000Y-100404500D03*
X93873000Y-100404500D03*
X93373000Y-100404500D03*
X92873000Y-100404500D03*
X92373000Y-100404500D03*
X91873000Y-100404500D03*
X91373000Y-100404500D03*
X90873000Y-100404500D03*
X90373000Y-100404500D03*
X89873000Y-100404500D03*
X89373000Y-100404500D03*
X88873000Y-100404500D03*
X88373000Y-100404500D03*
X87873000Y-100404500D03*
X87373000Y-100404500D03*
X86873000Y-100404500D03*
X86373000Y-100404500D03*
X85873000Y-100404500D03*
X85373000Y-100404500D03*
X84873000Y-100404500D03*
X84373000Y-100404500D03*
X83873000Y-100404500D03*
X83373000Y-100404500D03*
X82873000Y-100404500D03*
X82373000Y-100404500D03*
D26*
X80160500Y-102617000D03*
X80160500Y-103117000D03*
X80160500Y-103617000D03*
X80160500Y-104117000D03*
X80160500Y-104617000D03*
X80160500Y-105117000D03*
X80160500Y-105617000D03*
X80160500Y-106117000D03*
X80160500Y-106617000D03*
X80160500Y-107117000D03*
X80160500Y-107617000D03*
X80160500Y-108117000D03*
X80160500Y-108617000D03*
X80160500Y-109117000D03*
X80160500Y-109617000D03*
X80160500Y-110117000D03*
X80160500Y-110617000D03*
X80160500Y-111117000D03*
X80160500Y-111617000D03*
X80160500Y-112117000D03*
X80160500Y-112617000D03*
X80160500Y-113117000D03*
X80160500Y-113617000D03*
X80160500Y-114117000D03*
X80160500Y-114617000D03*
X80160500Y-115117000D03*
X80160500Y-115617000D03*
X80160500Y-116117000D03*
X80160500Y-116617000D03*
X80160500Y-117117000D03*
X80160500Y-117617000D03*
X80160500Y-118117000D03*
X80160500Y-118617000D03*
X80160500Y-119117000D03*
X80160500Y-119617000D03*
X80160500Y-120117000D03*
X80160500Y-120617000D03*
X80160500Y-121117000D03*
X80160500Y-121617000D03*
X80160500Y-122117000D03*
X80160500Y-122617000D03*
X80160500Y-123117000D03*
X80160500Y-123617000D03*
X80160500Y-124117000D03*
X80160500Y-124617000D03*
X80160500Y-125117000D03*
X80160500Y-125617000D03*
X80160500Y-126117000D03*
X80160500Y-126617000D03*
X80160500Y-127117000D03*
X80160500Y-127617000D03*
X80160500Y-128117000D03*
%TD*%
D18*
%TO.C,C1*%
X253767500Y-118542000D03*
X251692500Y-118542000D03*
%TD*%
D27*
%TO.C,R20*%
X145161000Y-77791000D03*
X145161000Y-79791000D03*
%TD*%
D22*
%TO.C,R12*%
X113681000Y-111811000D03*
X115681000Y-111811000D03*
%TD*%
D28*
%TO.C,U3*%
X122934000Y-99873000D03*
X122934000Y-101143000D03*
X122934000Y-102413000D03*
X122934000Y-103683000D03*
X122934000Y-104953000D03*
X122934000Y-106223000D03*
X122934000Y-107493000D03*
X122934000Y-108763000D03*
X122934000Y-110033000D03*
X122934000Y-111303000D03*
X122934000Y-112573000D03*
X122934000Y-113843000D03*
X122934000Y-115113000D03*
X122934000Y-116383000D03*
X122934000Y-117653000D03*
X122934000Y-118923000D03*
X122934000Y-120193000D03*
X122934000Y-121463000D03*
X122934000Y-122733000D03*
X122934000Y-124003000D03*
X132334000Y-124003000D03*
X132334000Y-122733000D03*
X132334000Y-121463000D03*
X132334000Y-120193000D03*
X132334000Y-118923000D03*
X132334000Y-117653000D03*
X132334000Y-116383000D03*
X132334000Y-115113000D03*
X132334000Y-113843000D03*
X132334000Y-112573000D03*
X132334000Y-111303000D03*
X132334000Y-110033000D03*
X132334000Y-108763000D03*
X132334000Y-107493000D03*
X132334000Y-106223000D03*
X132334000Y-104953000D03*
X132334000Y-103683000D03*
X132334000Y-102413000D03*
X132334000Y-101143000D03*
X132334000Y-99873000D03*
%TD*%
D27*
%TO.C,R44*%
X52250000Y-132700000D03*
X52250000Y-134700000D03*
%TD*%
%TO.C,R14*%
X162814000Y-126813000D03*
X162814000Y-128813000D03*
%TD*%
D23*
%TO.C,C8*%
X243564500Y-96317000D03*
X245639500Y-96317000D03*
%TD*%
D19*
%TO.C,C19*%
X130403600Y-131372700D03*
X130403600Y-133447700D03*
%TD*%
D23*
%TO.C,C5*%
X243564500Y-86030000D03*
X245639500Y-86030000D03*
%TD*%
D22*
%TO.C,R2*%
X251730000Y-113843000D03*
X253730000Y-113843000D03*
%TD*%
D18*
%TO.C,C17*%
X68601500Y-94666000D03*
X66526500Y-94666000D03*
%TD*%
D11*
%TO.C,R30*%
X161528000Y-104572000D03*
X159528000Y-104572000D03*
%TD*%
D29*
%TO.C,FB1*%
X251841000Y-93278000D03*
X251841000Y-91228000D03*
%TD*%
D22*
%TO.C,R7*%
X221377000Y-132893000D03*
X223377000Y-132893000D03*
%TD*%
D11*
%TO.C,R23*%
X161528000Y-90348000D03*
X159528000Y-90348000D03*
%TD*%
D22*
%TO.C,R42*%
X73676000Y-107747000D03*
X75676000Y-107747000D03*
%TD*%
D11*
%TO.C,R27*%
X161528000Y-98476000D03*
X159528000Y-98476000D03*
%TD*%
D23*
%TO.C,C3*%
X251819500Y-86030000D03*
X253894500Y-86030000D03*
%TD*%
D11*
%TO.C,R26*%
X161528000Y-96444000D03*
X159528000Y-96444000D03*
%TD*%
%TO.C,R38*%
X161528000Y-121082000D03*
X159528000Y-121082000D03*
%TD*%
D23*
%TO.C,C11*%
X143562500Y-129600000D03*
X145637500Y-129600000D03*
%TD*%
D11*
%TO.C,R9*%
X173450000Y-120050000D03*
X171450000Y-120050000D03*
%TD*%
D15*
%TO.C,R45*%
X76250800Y-131734000D03*
X76250800Y-129734000D03*
%TD*%
D30*
%TO.C,U8*%
X120396000Y-134682000D03*
X121666000Y-134682000D03*
X122936000Y-134682000D03*
X124206000Y-134682000D03*
X125476000Y-134682000D03*
X126746000Y-134682000D03*
X128016000Y-134682000D03*
X128016000Y-129732000D03*
X126746000Y-129732000D03*
X125476000Y-129732000D03*
X124206000Y-129732000D03*
X122936000Y-129732000D03*
X121666000Y-129732000D03*
X120396000Y-129732000D03*
%TD*%
D31*
%TO.C,U6*%
X108077000Y-89154000D03*
X109347000Y-89154000D03*
X110617000Y-89154000D03*
X111887000Y-89154000D03*
X113157000Y-89154000D03*
X114427000Y-89154000D03*
X115697000Y-89154000D03*
X116967000Y-89154000D03*
X118237000Y-89154000D03*
X119507000Y-89154000D03*
X120777000Y-89154000D03*
X122047000Y-89154000D03*
X123317000Y-89154000D03*
X124587000Y-89154000D03*
X125857000Y-89154000D03*
X127127000Y-89154000D03*
X128397000Y-89154000D03*
X129667000Y-89154000D03*
X130937000Y-89154000D03*
X132207000Y-89154000D03*
X132207000Y-79754000D03*
X130937000Y-79754000D03*
X129667000Y-79754000D03*
X128397000Y-79754000D03*
X127127000Y-79754000D03*
X125857000Y-79754000D03*
X124587000Y-79754000D03*
X123317000Y-79754000D03*
X122047000Y-79754000D03*
X120777000Y-79754000D03*
X119507000Y-79754000D03*
X118237000Y-79754000D03*
X116967000Y-79754000D03*
X115697000Y-79754000D03*
X114427000Y-79754000D03*
X113157000Y-79754000D03*
X111887000Y-79754000D03*
X110617000Y-79754000D03*
X109347000Y-79754000D03*
X108077000Y-79754000D03*
%TD*%
D11*
%TO.C,R36*%
X161528000Y-116764000D03*
X159528000Y-116764000D03*
%TD*%
D15*
%TO.C,R16*%
X143129000Y-79791000D03*
X143129000Y-77791000D03*
%TD*%
D16*
%TO.C,C20*%
X247587888Y-129464000D03*
D17*
X250087888Y-129464000D03*
%TD*%
D11*
%TO.C,R28*%
X161528000Y-100508000D03*
X159528000Y-100508000D03*
%TD*%
D17*
%TO.C,C21*%
X173950000Y-129464000D03*
D16*
X171450000Y-129464000D03*
%TD*%
D18*
%TO.C,C15*%
X48662500Y-128956000D03*
X46587500Y-128956000D03*
%TD*%
D11*
%TO.C,R31*%
X161528000Y-106604000D03*
X159528000Y-106604000D03*
%TD*%
%TO.C,R33*%
X161528000Y-110668000D03*
X159528000Y-110668000D03*
%TD*%
D15*
%TO.C,R22*%
X99187000Y-97444000D03*
X99187000Y-95444000D03*
%TD*%
D29*
%TO.C,FB3*%
X247777000Y-93405000D03*
X247777000Y-91355000D03*
%TD*%
D11*
%TO.C,R35*%
X161528000Y-114732000D03*
X159528000Y-114732000D03*
%TD*%
D22*
%TO.C,R40*%
X115713000Y-100254000D03*
X117713000Y-100254000D03*
%TD*%
%TO.C,R1*%
X251730000Y-120701000D03*
X253730000Y-120701000D03*
%TD*%
D19*
%TO.C,C13*%
X66800000Y-86770500D03*
X66800000Y-88845500D03*
%TD*%
D32*
%TO.C,J2*%
X261906000Y-116699000D03*
X261906000Y-91699000D03*
D33*
X260486000Y-99884000D03*
D17*
X260486000Y-102174000D03*
X260486000Y-104464000D03*
X260486000Y-106754000D03*
X260486000Y-109044000D03*
X262466000Y-98739000D03*
X262466000Y-101029000D03*
X262466000Y-103319000D03*
X262466000Y-105609000D03*
X262466000Y-107899000D03*
X264446000Y-99884000D03*
X264446000Y-102174000D03*
X264446000Y-104464000D03*
X264446000Y-106754000D03*
X264446000Y-109044000D03*
%TD*%
D28*
%TO.C,U4*%
X142748000Y-99873000D03*
X142748000Y-101143000D03*
X142748000Y-102413000D03*
X142748000Y-103683000D03*
X142748000Y-104953000D03*
X142748000Y-106223000D03*
X142748000Y-107493000D03*
X142748000Y-108763000D03*
X142748000Y-110033000D03*
X142748000Y-111303000D03*
X142748000Y-112573000D03*
X142748000Y-113843000D03*
X142748000Y-115113000D03*
X142748000Y-116383000D03*
X142748000Y-117653000D03*
X142748000Y-118923000D03*
X142748000Y-120193000D03*
X142748000Y-121463000D03*
X142748000Y-122733000D03*
X142748000Y-124003000D03*
X152148000Y-124003000D03*
X152148000Y-122733000D03*
X152148000Y-121463000D03*
X152148000Y-120193000D03*
X152148000Y-118923000D03*
X152148000Y-117653000D03*
X152148000Y-116383000D03*
X152148000Y-115113000D03*
X152148000Y-113843000D03*
X152148000Y-112573000D03*
X152148000Y-111303000D03*
X152148000Y-110033000D03*
X152148000Y-108763000D03*
X152148000Y-107493000D03*
X152148000Y-106223000D03*
X152148000Y-104953000D03*
X152148000Y-103683000D03*
X152148000Y-102413000D03*
X152148000Y-101143000D03*
X152148000Y-99873000D03*
%TD*%
D22*
%TO.C,R5*%
X243602000Y-88316000D03*
X245602000Y-88316000D03*
%TD*%
D15*
%TO.C,R13*%
X158496000Y-128813000D03*
X158496000Y-126813000D03*
%TD*%
%TO.C,R15*%
X160655000Y-128813000D03*
X160655000Y-126813000D03*
%TD*%
D11*
%TO.C,R25*%
X161528000Y-94412000D03*
X159528000Y-94412000D03*
%TD*%
D34*
%TO.C,U1*%
X242857500Y-129845000D03*
X242857500Y-128575000D03*
X242857500Y-127305000D03*
X242857500Y-126035000D03*
X242857500Y-124765000D03*
X242857500Y-123495000D03*
X242857500Y-122225000D03*
X242857500Y-120955000D03*
X242857500Y-119685000D03*
X242857500Y-118415000D03*
X235932500Y-118415000D03*
X235932500Y-119685000D03*
X235932500Y-120955000D03*
X235932500Y-122225000D03*
X235932500Y-123495000D03*
X235932500Y-124765000D03*
X235932500Y-126035000D03*
X235932500Y-127305000D03*
X235932500Y-128575000D03*
X235932500Y-129845000D03*
%TD*%
D27*
%TO.C,R19*%
X139827000Y-82617000D03*
X139827000Y-84617000D03*
%TD*%
D22*
%TO.C,R6*%
X229500000Y-118850000D03*
X231500000Y-118850000D03*
%TD*%
D35*
%TO.C,U2*%
X225679000Y-115113000D03*
D36*
X223139000Y-115113000D03*
X220599000Y-115113000D03*
X218059000Y-115113000D03*
X215519000Y-115113000D03*
X212979000Y-115113000D03*
X210439000Y-115113000D03*
X207899000Y-115113000D03*
X205359000Y-115113000D03*
X202819000Y-115113000D03*
X200279000Y-115113000D03*
X197739000Y-115113000D03*
X195199000Y-115113000D03*
X192659000Y-115113000D03*
X190119000Y-115113000D03*
X187579000Y-115113000D03*
X187579000Y-130353000D03*
X190119000Y-130353000D03*
X192659000Y-130353000D03*
X195199000Y-130353000D03*
X197739000Y-130353000D03*
X200279000Y-130353000D03*
X202819000Y-130353000D03*
X205359000Y-130353000D03*
X207899000Y-130353000D03*
X210439000Y-130353000D03*
X212979000Y-130353000D03*
X215519000Y-130353000D03*
X218059000Y-130353000D03*
X220599000Y-130353000D03*
X223139000Y-130353000D03*
X225679000Y-130353000D03*
%TD*%
D19*
%TO.C,C9*%
X232150000Y-129912500D03*
X232150000Y-131987500D03*
%TD*%
D11*
%TO.C,R24*%
X161528000Y-92380000D03*
X159528000Y-92380000D03*
%TD*%
D22*
%TO.C,R3*%
X251857000Y-88316000D03*
X253857000Y-88316000D03*
%TD*%
D30*
%TO.C,U9*%
X132461000Y-134733000D03*
X133731000Y-134733000D03*
X135001000Y-134733000D03*
X136271000Y-134733000D03*
X137541000Y-134733000D03*
X138811000Y-134733000D03*
X140081000Y-134733000D03*
X140081000Y-129783000D03*
X138811000Y-129783000D03*
X137541000Y-129783000D03*
X136271000Y-129783000D03*
X135001000Y-129783000D03*
X133731000Y-129783000D03*
X132461000Y-129783000D03*
%TD*%
D18*
%TO.C,C10*%
X118131500Y-123241000D03*
X116056500Y-123241000D03*
%TD*%
D31*
%TO.C,U5*%
X73279000Y-89154000D03*
X74549000Y-89154000D03*
X75819000Y-89154000D03*
X77089000Y-89154000D03*
X78359000Y-89154000D03*
X79629000Y-89154000D03*
X80899000Y-89154000D03*
X82169000Y-89154000D03*
X83439000Y-89154000D03*
X84709000Y-89154000D03*
X85979000Y-89154000D03*
X87249000Y-89154000D03*
X88519000Y-89154000D03*
X89789000Y-89154000D03*
X91059000Y-89154000D03*
X92329000Y-89154000D03*
X93599000Y-89154000D03*
X94869000Y-89154000D03*
X96139000Y-89154000D03*
X97409000Y-89154000D03*
X97409000Y-79754000D03*
X96139000Y-79754000D03*
X94869000Y-79754000D03*
X93599000Y-79754000D03*
X92329000Y-79754000D03*
X91059000Y-79754000D03*
X89789000Y-79754000D03*
X88519000Y-79754000D03*
X87249000Y-79754000D03*
X85979000Y-79754000D03*
X84709000Y-79754000D03*
X83439000Y-79754000D03*
X82169000Y-79754000D03*
X80899000Y-79754000D03*
X79629000Y-79754000D03*
X78359000Y-79754000D03*
X77089000Y-79754000D03*
X75819000Y-79754000D03*
X74549000Y-79754000D03*
X73279000Y-79754000D03*
%TD*%
D22*
%TO.C,R8*%
X175250000Y-120050000D03*
X177250000Y-120050000D03*
%TD*%
D11*
%TO.C,R37*%
X161528000Y-118923000D03*
X159528000Y-118923000D03*
%TD*%
D22*
%TO.C,R10*%
X171450000Y-122100000D03*
X173450000Y-122100000D03*
%TD*%
D11*
%TO.C,R46*%
X78216000Y-127842000D03*
X76216000Y-127842000D03*
%TD*%
D19*
%TO.C,C16*%
X76200000Y-95914500D03*
X76200000Y-97989500D03*
%TD*%
D37*
%TO.C,C25*%
X159955113Y-84252000D03*
D17*
X157455113Y-84252000D03*
%TD*%
D23*
%TO.C,C7*%
X247628500Y-96317000D03*
X249703500Y-96317000D03*
%TD*%
D27*
%TO.C,R18*%
X141859000Y-82617000D03*
X141859000Y-84617000D03*
%TD*%
D11*
%TO.C,R29*%
X161528000Y-102540000D03*
X159528000Y-102540000D03*
%TD*%
D29*
%TO.C,FB2*%
X243586000Y-93405000D03*
X243586000Y-91355000D03*
%TD*%
G36*
X190640455Y-105782693D02*
G01*
X190686101Y-105828343D01*
X190702615Y-105890752D01*
X190678377Y-111077779D01*
X190661571Y-111139534D01*
X190616211Y-111184684D01*
X190554378Y-111201200D01*
X185290000Y-111201200D01*
X185228000Y-111184587D01*
X185182613Y-111139200D01*
X185166000Y-111077200D01*
X185166000Y-105914433D01*
X185182518Y-105852597D01*
X185227672Y-105807236D01*
X185289431Y-105790434D01*
X190578047Y-105766174D01*
X190640455Y-105782693D01*
G37*
G36*
X107686111Y-129671734D02*
G01*
X107687000Y-129673397D01*
X107687000Y-130985597D01*
X107686111Y-130987260D01*
X107684235Y-130987445D01*
X107683038Y-130985987D01*
X107674702Y-130944075D01*
X107571298Y-130944075D01*
X107562962Y-130985985D01*
X107561765Y-130987443D01*
X107559889Y-130987258D01*
X107559000Y-130985595D01*
X107559000Y-129673409D01*
X107559889Y-129671746D01*
X107561765Y-129671561D01*
X107562962Y-129673019D01*
X107571295Y-129714923D01*
X107674700Y-129714924D01*
X107683038Y-129673007D01*
X107684235Y-129671549D01*
X107686111Y-129671734D01*
G37*
G36*
X107186111Y-129671734D02*
G01*
X107187000Y-129673397D01*
X107187000Y-130985597D01*
X107186111Y-130987260D01*
X107184235Y-130987445D01*
X107183038Y-130985987D01*
X107174702Y-130944075D01*
X107071298Y-130944075D01*
X107062962Y-130985985D01*
X107061765Y-130987443D01*
X107059889Y-130987258D01*
X107059000Y-130985595D01*
X107059000Y-129673409D01*
X107059889Y-129671746D01*
X107061765Y-129671561D01*
X107062962Y-129673019D01*
X107071295Y-129714923D01*
X107174700Y-129714924D01*
X107183038Y-129673007D01*
X107184235Y-129671549D01*
X107186111Y-129671734D01*
G37*
G36*
X106686111Y-129671734D02*
G01*
X106687000Y-129673397D01*
X106687000Y-130985597D01*
X106686111Y-130987260D01*
X106684235Y-130987445D01*
X106683038Y-130985987D01*
X106674702Y-130944075D01*
X106571298Y-130944075D01*
X106562962Y-130985985D01*
X106561765Y-130987443D01*
X106559889Y-130987258D01*
X106559000Y-130985595D01*
X106559000Y-129673409D01*
X106559889Y-129671746D01*
X106561765Y-129671561D01*
X106562962Y-129673019D01*
X106571295Y-129714923D01*
X106674700Y-129714924D01*
X106683038Y-129673007D01*
X106684235Y-129671549D01*
X106686111Y-129671734D01*
G37*
G36*
X106186111Y-129671734D02*
G01*
X106187000Y-129673397D01*
X106187000Y-130985597D01*
X106186111Y-130987260D01*
X106184235Y-130987445D01*
X106183038Y-130985987D01*
X106174702Y-130944075D01*
X106071298Y-130944075D01*
X106062962Y-130985985D01*
X106061765Y-130987443D01*
X106059889Y-130987258D01*
X106059000Y-130985595D01*
X106059000Y-129673409D01*
X106059889Y-129671746D01*
X106061765Y-129671561D01*
X106062962Y-129673019D01*
X106071295Y-129714923D01*
X106174700Y-129714924D01*
X106183038Y-129673007D01*
X106184235Y-129671549D01*
X106186111Y-129671734D01*
G37*
G36*
X105686111Y-129671734D02*
G01*
X105687000Y-129673397D01*
X105687000Y-130985597D01*
X105686111Y-130987260D01*
X105684235Y-130987445D01*
X105683038Y-130985987D01*
X105674702Y-130944075D01*
X105571298Y-130944075D01*
X105562962Y-130985985D01*
X105561765Y-130987443D01*
X105559889Y-130987258D01*
X105559000Y-130985595D01*
X105559000Y-129673409D01*
X105559889Y-129671746D01*
X105561765Y-129671561D01*
X105562962Y-129673019D01*
X105571295Y-129714923D01*
X105674700Y-129714924D01*
X105683038Y-129673007D01*
X105684235Y-129671549D01*
X105686111Y-129671734D01*
G37*
G36*
X105186111Y-129671734D02*
G01*
X105187000Y-129673397D01*
X105187000Y-130985597D01*
X105186111Y-130987260D01*
X105184235Y-130987445D01*
X105183038Y-130985987D01*
X105174702Y-130944075D01*
X105071298Y-130944075D01*
X105062962Y-130985985D01*
X105061765Y-130987443D01*
X105059889Y-130987258D01*
X105059000Y-130985595D01*
X105059000Y-129673409D01*
X105059889Y-129671746D01*
X105061765Y-129671561D01*
X105062962Y-129673019D01*
X105071295Y-129714923D01*
X105174700Y-129714924D01*
X105183038Y-129673007D01*
X105184235Y-129671549D01*
X105186111Y-129671734D01*
G37*
G36*
X104686111Y-129671734D02*
G01*
X104687000Y-129673397D01*
X104687000Y-130985597D01*
X104686111Y-130987260D01*
X104684235Y-130987445D01*
X104683038Y-130985987D01*
X104674702Y-130944075D01*
X104571298Y-130944075D01*
X104562962Y-130985985D01*
X104561765Y-130987443D01*
X104559889Y-130987258D01*
X104559000Y-130985595D01*
X104559000Y-129673409D01*
X104559889Y-129671746D01*
X104561765Y-129671561D01*
X104562962Y-129673019D01*
X104571295Y-129714923D01*
X104674700Y-129714924D01*
X104683038Y-129673007D01*
X104684235Y-129671549D01*
X104686111Y-129671734D01*
G37*
G36*
X104186111Y-129671734D02*
G01*
X104187000Y-129673397D01*
X104187000Y-130985597D01*
X104186111Y-130987260D01*
X104184235Y-130987445D01*
X104183038Y-130985987D01*
X104174702Y-130944075D01*
X104071298Y-130944075D01*
X104062962Y-130985985D01*
X104061765Y-130987443D01*
X104059889Y-130987258D01*
X104059000Y-130985595D01*
X104059000Y-129673409D01*
X104059889Y-129671746D01*
X104061765Y-129671561D01*
X104062962Y-129673019D01*
X104071295Y-129714923D01*
X104174700Y-129714924D01*
X104183038Y-129673007D01*
X104184235Y-129671549D01*
X104186111Y-129671734D01*
G37*
G36*
X103686111Y-129671734D02*
G01*
X103687000Y-129673397D01*
X103687000Y-130985597D01*
X103686111Y-130987260D01*
X103684235Y-130987445D01*
X103683038Y-130985987D01*
X103674702Y-130944075D01*
X103571298Y-130944075D01*
X103562962Y-130985985D01*
X103561765Y-130987443D01*
X103559889Y-130987258D01*
X103559000Y-130985595D01*
X103559000Y-129673409D01*
X103559889Y-129671746D01*
X103561765Y-129671561D01*
X103562962Y-129673019D01*
X103571295Y-129714923D01*
X103674700Y-129714924D01*
X103683038Y-129673007D01*
X103684235Y-129671549D01*
X103686111Y-129671734D01*
G37*
G36*
X103186111Y-129671734D02*
G01*
X103187000Y-129673397D01*
X103187000Y-130985597D01*
X103186111Y-130987260D01*
X103184235Y-130987445D01*
X103183038Y-130985987D01*
X103174702Y-130944075D01*
X103071298Y-130944075D01*
X103062962Y-130985985D01*
X103061765Y-130987443D01*
X103059889Y-130987258D01*
X103059000Y-130985595D01*
X103059000Y-129673409D01*
X103059889Y-129671746D01*
X103061765Y-129671561D01*
X103062962Y-129673019D01*
X103071295Y-129714923D01*
X103174700Y-129714924D01*
X103183038Y-129673007D01*
X103184235Y-129671549D01*
X103186111Y-129671734D01*
G37*
G36*
X102686111Y-129671734D02*
G01*
X102687000Y-129673397D01*
X102687000Y-130985597D01*
X102686111Y-130987260D01*
X102684235Y-130987445D01*
X102683038Y-130985987D01*
X102674702Y-130944075D01*
X102571298Y-130944075D01*
X102562962Y-130985985D01*
X102561765Y-130987443D01*
X102559889Y-130987258D01*
X102559000Y-130985595D01*
X102559000Y-129673409D01*
X102559889Y-129671746D01*
X102561765Y-129671561D01*
X102562962Y-129673019D01*
X102571295Y-129714923D01*
X102674700Y-129714924D01*
X102683038Y-129673007D01*
X102684235Y-129671549D01*
X102686111Y-129671734D01*
G37*
G36*
X102186111Y-129671734D02*
G01*
X102187000Y-129673397D01*
X102187000Y-130985597D01*
X102186111Y-130987260D01*
X102184235Y-130987445D01*
X102183038Y-130985987D01*
X102174702Y-130944075D01*
X102071298Y-130944075D01*
X102062962Y-130985985D01*
X102061765Y-130987443D01*
X102059889Y-130987258D01*
X102059000Y-130985595D01*
X102059000Y-129673409D01*
X102059889Y-129671746D01*
X102061765Y-129671561D01*
X102062962Y-129673019D01*
X102071295Y-129714923D01*
X102174700Y-129714924D01*
X102183038Y-129673007D01*
X102184235Y-129671549D01*
X102186111Y-129671734D01*
G37*
G36*
X101686111Y-129671734D02*
G01*
X101687000Y-129673397D01*
X101687000Y-130985597D01*
X101686111Y-130987260D01*
X101684235Y-130987445D01*
X101683038Y-130985987D01*
X101674702Y-130944075D01*
X101571298Y-130944075D01*
X101562962Y-130985985D01*
X101561765Y-130987443D01*
X101559889Y-130987258D01*
X101559000Y-130985595D01*
X101559000Y-129673409D01*
X101559889Y-129671746D01*
X101561765Y-129671561D01*
X101562962Y-129673019D01*
X101571295Y-129714923D01*
X101674700Y-129714924D01*
X101683038Y-129673007D01*
X101684235Y-129671549D01*
X101686111Y-129671734D01*
G37*
G36*
X101186111Y-129671734D02*
G01*
X101187000Y-129673397D01*
X101187000Y-130985597D01*
X101186111Y-130987260D01*
X101184235Y-130987445D01*
X101183038Y-130985987D01*
X101174702Y-130944075D01*
X101071298Y-130944075D01*
X101062962Y-130985985D01*
X101061765Y-130987443D01*
X101059889Y-130987258D01*
X101059000Y-130985595D01*
X101059000Y-129673409D01*
X101059889Y-129671746D01*
X101061765Y-129671561D01*
X101062962Y-129673019D01*
X101071295Y-129714923D01*
X101174700Y-129714924D01*
X101183038Y-129673007D01*
X101184235Y-129671549D01*
X101186111Y-129671734D01*
G37*
G36*
X100686111Y-129671734D02*
G01*
X100687000Y-129673397D01*
X100687000Y-130985597D01*
X100686111Y-130987260D01*
X100684235Y-130987445D01*
X100683038Y-130985987D01*
X100674702Y-130944075D01*
X100571298Y-130944075D01*
X100562962Y-130985985D01*
X100561765Y-130987443D01*
X100559889Y-130987258D01*
X100559000Y-130985595D01*
X100559000Y-129673409D01*
X100559889Y-129671746D01*
X100561765Y-129671561D01*
X100562962Y-129673019D01*
X100571295Y-129714923D01*
X100674700Y-129714924D01*
X100683038Y-129673007D01*
X100684235Y-129671549D01*
X100686111Y-129671734D01*
G37*
G36*
X100186111Y-129671734D02*
G01*
X100187000Y-129673397D01*
X100187000Y-130985597D01*
X100186111Y-130987260D01*
X100184235Y-130987445D01*
X100183038Y-130985987D01*
X100174702Y-130944075D01*
X100071298Y-130944075D01*
X100062962Y-130985985D01*
X100061765Y-130987443D01*
X100059889Y-130987258D01*
X100059000Y-130985595D01*
X100059000Y-129673409D01*
X100059889Y-129671746D01*
X100061765Y-129671561D01*
X100062962Y-129673019D01*
X100071295Y-129714923D01*
X100174700Y-129714924D01*
X100183038Y-129673007D01*
X100184235Y-129671549D01*
X100186111Y-129671734D01*
G37*
G36*
X99686111Y-129671734D02*
G01*
X99687000Y-129673397D01*
X99687000Y-130985597D01*
X99686111Y-130987260D01*
X99684235Y-130987445D01*
X99683038Y-130985987D01*
X99674702Y-130944075D01*
X99571298Y-130944075D01*
X99562962Y-130985985D01*
X99561765Y-130987443D01*
X99559889Y-130987258D01*
X99559000Y-130985595D01*
X99559000Y-129673409D01*
X99559889Y-129671746D01*
X99561765Y-129671561D01*
X99562962Y-129673019D01*
X99571295Y-129714923D01*
X99674700Y-129714924D01*
X99683038Y-129673007D01*
X99684235Y-129671549D01*
X99686111Y-129671734D01*
G37*
G36*
X99186111Y-129671734D02*
G01*
X99187000Y-129673397D01*
X99187000Y-130985597D01*
X99186111Y-130987260D01*
X99184235Y-130987445D01*
X99183038Y-130985987D01*
X99174702Y-130944075D01*
X99071298Y-130944075D01*
X99062962Y-130985985D01*
X99061765Y-130987443D01*
X99059889Y-130987258D01*
X99059000Y-130985595D01*
X99059000Y-129673409D01*
X99059889Y-129671746D01*
X99061765Y-129671561D01*
X99062962Y-129673019D01*
X99071295Y-129714923D01*
X99174700Y-129714924D01*
X99183038Y-129673007D01*
X99184235Y-129671549D01*
X99186111Y-129671734D01*
G37*
G36*
X98686111Y-129671734D02*
G01*
X98687000Y-129673397D01*
X98687000Y-130985597D01*
X98686111Y-130987260D01*
X98684235Y-130987445D01*
X98683038Y-130985987D01*
X98674702Y-130944075D01*
X98571298Y-130944075D01*
X98562962Y-130985985D01*
X98561765Y-130987443D01*
X98559889Y-130987258D01*
X98559000Y-130985595D01*
X98559000Y-129673409D01*
X98559889Y-129671746D01*
X98561765Y-129671561D01*
X98562962Y-129673019D01*
X98571295Y-129714923D01*
X98674700Y-129714924D01*
X98683038Y-129673007D01*
X98684235Y-129671549D01*
X98686111Y-129671734D01*
G37*
G36*
X98186111Y-129671734D02*
G01*
X98187000Y-129673397D01*
X98187000Y-130985597D01*
X98186111Y-130987260D01*
X98184235Y-130987445D01*
X98183038Y-130985987D01*
X98174702Y-130944075D01*
X98071298Y-130944075D01*
X98062962Y-130985985D01*
X98061765Y-130987443D01*
X98059889Y-130987258D01*
X98059000Y-130985595D01*
X98059000Y-129673409D01*
X98059889Y-129671746D01*
X98061765Y-129671561D01*
X98062962Y-129673019D01*
X98071295Y-129714923D01*
X98174700Y-129714924D01*
X98183038Y-129673007D01*
X98184235Y-129671549D01*
X98186111Y-129671734D01*
G37*
G36*
X97686111Y-129671734D02*
G01*
X97687000Y-129673397D01*
X97687000Y-130985597D01*
X97686111Y-130987260D01*
X97684235Y-130987445D01*
X97683038Y-130985987D01*
X97674702Y-130944075D01*
X97571298Y-130944075D01*
X97562962Y-130985985D01*
X97561765Y-130987443D01*
X97559889Y-130987258D01*
X97559000Y-130985595D01*
X97559000Y-129673409D01*
X97559889Y-129671746D01*
X97561765Y-129671561D01*
X97562962Y-129673019D01*
X97571295Y-129714923D01*
X97674700Y-129714924D01*
X97683038Y-129673007D01*
X97684235Y-129671549D01*
X97686111Y-129671734D01*
G37*
G36*
X97186111Y-129671734D02*
G01*
X97187000Y-129673397D01*
X97187000Y-130985597D01*
X97186111Y-130987260D01*
X97184235Y-130987445D01*
X97183038Y-130985987D01*
X97174702Y-130944075D01*
X97071298Y-130944075D01*
X97062962Y-130985985D01*
X97061765Y-130987443D01*
X97059889Y-130987258D01*
X97059000Y-130985595D01*
X97059000Y-129673409D01*
X97059889Y-129671746D01*
X97061765Y-129671561D01*
X97062962Y-129673019D01*
X97071295Y-129714923D01*
X97174700Y-129714924D01*
X97183038Y-129673007D01*
X97184235Y-129671549D01*
X97186111Y-129671734D01*
G37*
G36*
X96686111Y-129671734D02*
G01*
X96687000Y-129673397D01*
X96687000Y-130985597D01*
X96686111Y-130987260D01*
X96684235Y-130987445D01*
X96683038Y-130985987D01*
X96674702Y-130944075D01*
X96571298Y-130944075D01*
X96562962Y-130985985D01*
X96561765Y-130987443D01*
X96559889Y-130987258D01*
X96559000Y-130985595D01*
X96559000Y-129673409D01*
X96559889Y-129671746D01*
X96561765Y-129671561D01*
X96562962Y-129673019D01*
X96571295Y-129714923D01*
X96674700Y-129714924D01*
X96683038Y-129673007D01*
X96684235Y-129671549D01*
X96686111Y-129671734D01*
G37*
G36*
X96186111Y-129671734D02*
G01*
X96187000Y-129673397D01*
X96187000Y-130985597D01*
X96186111Y-130987260D01*
X96184235Y-130987445D01*
X96183038Y-130985987D01*
X96174702Y-130944075D01*
X96071298Y-130944075D01*
X96062962Y-130985985D01*
X96061765Y-130987443D01*
X96059889Y-130987258D01*
X96059000Y-130985595D01*
X96059000Y-129673409D01*
X96059889Y-129671746D01*
X96061765Y-129671561D01*
X96062962Y-129673019D01*
X96071295Y-129714923D01*
X96174700Y-129714924D01*
X96183038Y-129673007D01*
X96184235Y-129671549D01*
X96186111Y-129671734D01*
G37*
G36*
X95686111Y-129671734D02*
G01*
X95687000Y-129673397D01*
X95687000Y-130985597D01*
X95686111Y-130987260D01*
X95684235Y-130987445D01*
X95683038Y-130985987D01*
X95674702Y-130944075D01*
X95571298Y-130944075D01*
X95562962Y-130985985D01*
X95561765Y-130987443D01*
X95559889Y-130987258D01*
X95559000Y-130985595D01*
X95559000Y-129673409D01*
X95559889Y-129671746D01*
X95561765Y-129671561D01*
X95562962Y-129673019D01*
X95571295Y-129714923D01*
X95674700Y-129714924D01*
X95683038Y-129673007D01*
X95684235Y-129671549D01*
X95686111Y-129671734D01*
G37*
G36*
X95186111Y-129671734D02*
G01*
X95187000Y-129673397D01*
X95187000Y-130985597D01*
X95186111Y-130987260D01*
X95184235Y-130987445D01*
X95183038Y-130985987D01*
X95174702Y-130944075D01*
X95071298Y-130944075D01*
X95062962Y-130985985D01*
X95061765Y-130987443D01*
X95059889Y-130987258D01*
X95059000Y-130985595D01*
X95059000Y-129673409D01*
X95059889Y-129671746D01*
X95061765Y-129671561D01*
X95062962Y-129673019D01*
X95071295Y-129714923D01*
X95174700Y-129714924D01*
X95183038Y-129673007D01*
X95184235Y-129671549D01*
X95186111Y-129671734D01*
G37*
G36*
X94686111Y-129671734D02*
G01*
X94687000Y-129673397D01*
X94687000Y-130985597D01*
X94686111Y-130987260D01*
X94684235Y-130987445D01*
X94683038Y-130985987D01*
X94674702Y-130944075D01*
X94571298Y-130944075D01*
X94562962Y-130985985D01*
X94561765Y-130987443D01*
X94559889Y-130987258D01*
X94559000Y-130985595D01*
X94559000Y-129673409D01*
X94559889Y-129671746D01*
X94561765Y-129671561D01*
X94562962Y-129673019D01*
X94571295Y-129714923D01*
X94674700Y-129714924D01*
X94683038Y-129673007D01*
X94684235Y-129671549D01*
X94686111Y-129671734D01*
G37*
G36*
X94186111Y-129671734D02*
G01*
X94187000Y-129673397D01*
X94187000Y-130985597D01*
X94186111Y-130987260D01*
X94184235Y-130987445D01*
X94183038Y-130985987D01*
X94174702Y-130944075D01*
X94071298Y-130944075D01*
X94062962Y-130985985D01*
X94061765Y-130987443D01*
X94059889Y-130987258D01*
X94059000Y-130985595D01*
X94059000Y-129673409D01*
X94059889Y-129671746D01*
X94061765Y-129671561D01*
X94062962Y-129673019D01*
X94071295Y-129714923D01*
X94174700Y-129714924D01*
X94183038Y-129673007D01*
X94184235Y-129671549D01*
X94186111Y-129671734D01*
G37*
G36*
X93686111Y-129671734D02*
G01*
X93687000Y-129673397D01*
X93687000Y-130985597D01*
X93686111Y-130987260D01*
X93684235Y-130987445D01*
X93683038Y-130985987D01*
X93674702Y-130944075D01*
X93571298Y-130944075D01*
X93562962Y-130985985D01*
X93561765Y-130987443D01*
X93559889Y-130987258D01*
X93559000Y-130985595D01*
X93559000Y-129673409D01*
X93559889Y-129671746D01*
X93561765Y-129671561D01*
X93562962Y-129673019D01*
X93571295Y-129714923D01*
X93674700Y-129714924D01*
X93683038Y-129673007D01*
X93684235Y-129671549D01*
X93686111Y-129671734D01*
G37*
G36*
X93186111Y-129671734D02*
G01*
X93187000Y-129673397D01*
X93187000Y-130985597D01*
X93186111Y-130987260D01*
X93184235Y-130987445D01*
X93183038Y-130985987D01*
X93174702Y-130944075D01*
X93071298Y-130944075D01*
X93062962Y-130985985D01*
X93061765Y-130987443D01*
X93059889Y-130987258D01*
X93059000Y-130985595D01*
X93059000Y-129673409D01*
X93059889Y-129671746D01*
X93061765Y-129671561D01*
X93062962Y-129673019D01*
X93071295Y-129714923D01*
X93174700Y-129714924D01*
X93183038Y-129673007D01*
X93184235Y-129671549D01*
X93186111Y-129671734D01*
G37*
G36*
X92686111Y-129671734D02*
G01*
X92687000Y-129673397D01*
X92687000Y-130985597D01*
X92686111Y-130987260D01*
X92684235Y-130987445D01*
X92683038Y-130985987D01*
X92674702Y-130944075D01*
X92571298Y-130944075D01*
X92562962Y-130985985D01*
X92561765Y-130987443D01*
X92559889Y-130987258D01*
X92559000Y-130985595D01*
X92559000Y-129673409D01*
X92559889Y-129671746D01*
X92561765Y-129671561D01*
X92562962Y-129673019D01*
X92571295Y-129714923D01*
X92674700Y-129714924D01*
X92683038Y-129673007D01*
X92684235Y-129671549D01*
X92686111Y-129671734D01*
G37*
G36*
X92186111Y-129671734D02*
G01*
X92187000Y-129673397D01*
X92187000Y-130985597D01*
X92186111Y-130987260D01*
X92184235Y-130987445D01*
X92183038Y-130985987D01*
X92174702Y-130944075D01*
X92071298Y-130944075D01*
X92062962Y-130985985D01*
X92061765Y-130987443D01*
X92059889Y-130987258D01*
X92059000Y-130985595D01*
X92059000Y-129673409D01*
X92059889Y-129671746D01*
X92061765Y-129671561D01*
X92062962Y-129673019D01*
X92071295Y-129714923D01*
X92174700Y-129714924D01*
X92183038Y-129673007D01*
X92184235Y-129671549D01*
X92186111Y-129671734D01*
G37*
G36*
X91686111Y-129671734D02*
G01*
X91687000Y-129673397D01*
X91687000Y-130985597D01*
X91686111Y-130987260D01*
X91684235Y-130987445D01*
X91683038Y-130985987D01*
X91674702Y-130944075D01*
X91571298Y-130944075D01*
X91562962Y-130985985D01*
X91561765Y-130987443D01*
X91559889Y-130987258D01*
X91559000Y-130985595D01*
X91559000Y-129673409D01*
X91559889Y-129671746D01*
X91561765Y-129671561D01*
X91562962Y-129673019D01*
X91571295Y-129714923D01*
X91674700Y-129714924D01*
X91683038Y-129673007D01*
X91684235Y-129671549D01*
X91686111Y-129671734D01*
G37*
G36*
X91186111Y-129671734D02*
G01*
X91187000Y-129673397D01*
X91187000Y-130985597D01*
X91186111Y-130987260D01*
X91184235Y-130987445D01*
X91183038Y-130985987D01*
X91174702Y-130944075D01*
X91071298Y-130944075D01*
X91062962Y-130985985D01*
X91061765Y-130987443D01*
X91059889Y-130987258D01*
X91059000Y-130985595D01*
X91059000Y-129673409D01*
X91059889Y-129671746D01*
X91061765Y-129671561D01*
X91062962Y-129673019D01*
X91071295Y-129714923D01*
X91174700Y-129714924D01*
X91183038Y-129673007D01*
X91184235Y-129671549D01*
X91186111Y-129671734D01*
G37*
G36*
X90686111Y-129671734D02*
G01*
X90687000Y-129673397D01*
X90687000Y-130985597D01*
X90686111Y-130987260D01*
X90684235Y-130987445D01*
X90683038Y-130985987D01*
X90674702Y-130944075D01*
X90571298Y-130944075D01*
X90562962Y-130985985D01*
X90561765Y-130987443D01*
X90559889Y-130987258D01*
X90559000Y-130985595D01*
X90559000Y-129673409D01*
X90559889Y-129671746D01*
X90561765Y-129671561D01*
X90562962Y-129673019D01*
X90571295Y-129714923D01*
X90674700Y-129714924D01*
X90683038Y-129673007D01*
X90684235Y-129671549D01*
X90686111Y-129671734D01*
G37*
G36*
X90186111Y-129671734D02*
G01*
X90187000Y-129673397D01*
X90187000Y-130985597D01*
X90186111Y-130987260D01*
X90184235Y-130987445D01*
X90183038Y-130985987D01*
X90174702Y-130944075D01*
X90071298Y-130944075D01*
X90062962Y-130985985D01*
X90061765Y-130987443D01*
X90059889Y-130987258D01*
X90059000Y-130985595D01*
X90059000Y-129673409D01*
X90059889Y-129671746D01*
X90061765Y-129671561D01*
X90062962Y-129673019D01*
X90071295Y-129714923D01*
X90174700Y-129714924D01*
X90183038Y-129673007D01*
X90184235Y-129671549D01*
X90186111Y-129671734D01*
G37*
G36*
X89686111Y-129671734D02*
G01*
X89687000Y-129673397D01*
X89687000Y-130985597D01*
X89686111Y-130987260D01*
X89684235Y-130987445D01*
X89683038Y-130985987D01*
X89674702Y-130944075D01*
X89571298Y-130944075D01*
X89562962Y-130985985D01*
X89561765Y-130987443D01*
X89559889Y-130987258D01*
X89559000Y-130985595D01*
X89559000Y-129673409D01*
X89559889Y-129671746D01*
X89561765Y-129671561D01*
X89562962Y-129673019D01*
X89571295Y-129714923D01*
X89674700Y-129714924D01*
X89683038Y-129673007D01*
X89684235Y-129671549D01*
X89686111Y-129671734D01*
G37*
G36*
X89186111Y-129671734D02*
G01*
X89187000Y-129673397D01*
X89187000Y-130985597D01*
X89186111Y-130987260D01*
X89184235Y-130987445D01*
X89183038Y-130985987D01*
X89174702Y-130944075D01*
X89071298Y-130944075D01*
X89062962Y-130985985D01*
X89061765Y-130987443D01*
X89059889Y-130987258D01*
X89059000Y-130985595D01*
X89059000Y-129673409D01*
X89059889Y-129671746D01*
X89061765Y-129671561D01*
X89062962Y-129673019D01*
X89071295Y-129714923D01*
X89174700Y-129714924D01*
X89183038Y-129673007D01*
X89184235Y-129671549D01*
X89186111Y-129671734D01*
G37*
G36*
X88686111Y-129671734D02*
G01*
X88687000Y-129673397D01*
X88687000Y-130985597D01*
X88686111Y-130987260D01*
X88684235Y-130987445D01*
X88683038Y-130985987D01*
X88674702Y-130944075D01*
X88571298Y-130944075D01*
X88562962Y-130985985D01*
X88561765Y-130987443D01*
X88559889Y-130987258D01*
X88559000Y-130985595D01*
X88559000Y-129673409D01*
X88559889Y-129671746D01*
X88561765Y-129671561D01*
X88562962Y-129673019D01*
X88571295Y-129714923D01*
X88674700Y-129714924D01*
X88683038Y-129673007D01*
X88684235Y-129671549D01*
X88686111Y-129671734D01*
G37*
G36*
X88186111Y-129671734D02*
G01*
X88187000Y-129673397D01*
X88187000Y-130985597D01*
X88186111Y-130987260D01*
X88184235Y-130987445D01*
X88183038Y-130985987D01*
X88174702Y-130944075D01*
X88071298Y-130944075D01*
X88062962Y-130985985D01*
X88061765Y-130987443D01*
X88059889Y-130987258D01*
X88059000Y-130985595D01*
X88059000Y-129673409D01*
X88059889Y-129671746D01*
X88061765Y-129671561D01*
X88062962Y-129673019D01*
X88071295Y-129714923D01*
X88174700Y-129714924D01*
X88183038Y-129673007D01*
X88184235Y-129671549D01*
X88186111Y-129671734D01*
G37*
G36*
X87686111Y-129671734D02*
G01*
X87687000Y-129673397D01*
X87687000Y-130985597D01*
X87686111Y-130987260D01*
X87684235Y-130987445D01*
X87683038Y-130985987D01*
X87674702Y-130944075D01*
X87571298Y-130944075D01*
X87562962Y-130985985D01*
X87561765Y-130987443D01*
X87559889Y-130987258D01*
X87559000Y-130985595D01*
X87559000Y-129673409D01*
X87559889Y-129671746D01*
X87561765Y-129671561D01*
X87562962Y-129673019D01*
X87571295Y-129714923D01*
X87674700Y-129714924D01*
X87683038Y-129673007D01*
X87684235Y-129671549D01*
X87686111Y-129671734D01*
G37*
G36*
X87186111Y-129671734D02*
G01*
X87187000Y-129673397D01*
X87187000Y-130985597D01*
X87186111Y-130987260D01*
X87184235Y-130987445D01*
X87183038Y-130985987D01*
X87174702Y-130944075D01*
X87071298Y-130944075D01*
X87062962Y-130985985D01*
X87061765Y-130987443D01*
X87059889Y-130987258D01*
X87059000Y-130985595D01*
X87059000Y-129673409D01*
X87059889Y-129671746D01*
X87061765Y-129671561D01*
X87062962Y-129673019D01*
X87071295Y-129714923D01*
X87174700Y-129714924D01*
X87183038Y-129673007D01*
X87184235Y-129671549D01*
X87186111Y-129671734D01*
G37*
G36*
X86686111Y-129671734D02*
G01*
X86687000Y-129673397D01*
X86687000Y-130985597D01*
X86686111Y-130987260D01*
X86684235Y-130987445D01*
X86683038Y-130985987D01*
X86674702Y-130944075D01*
X86571298Y-130944075D01*
X86562962Y-130985985D01*
X86561765Y-130987443D01*
X86559889Y-130987258D01*
X86559000Y-130985595D01*
X86559000Y-129673409D01*
X86559889Y-129671746D01*
X86561765Y-129671561D01*
X86562962Y-129673019D01*
X86571295Y-129714923D01*
X86674700Y-129714924D01*
X86683038Y-129673007D01*
X86684235Y-129671549D01*
X86686111Y-129671734D01*
G37*
G36*
X86186111Y-129671734D02*
G01*
X86187000Y-129673397D01*
X86187000Y-130985597D01*
X86186111Y-130987260D01*
X86184235Y-130987445D01*
X86183038Y-130985987D01*
X86174702Y-130944075D01*
X86071298Y-130944075D01*
X86062962Y-130985985D01*
X86061765Y-130987443D01*
X86059889Y-130987258D01*
X86059000Y-130985595D01*
X86059000Y-129673409D01*
X86059889Y-129671746D01*
X86061765Y-129671561D01*
X86062962Y-129673019D01*
X86071295Y-129714923D01*
X86174700Y-129714924D01*
X86183038Y-129673007D01*
X86184235Y-129671549D01*
X86186111Y-129671734D01*
G37*
G36*
X85686111Y-129671734D02*
G01*
X85687000Y-129673397D01*
X85687000Y-130985597D01*
X85686111Y-130987260D01*
X85684235Y-130987445D01*
X85683038Y-130985987D01*
X85674702Y-130944075D01*
X85571298Y-130944075D01*
X85562962Y-130985985D01*
X85561765Y-130987443D01*
X85559889Y-130987258D01*
X85559000Y-130985595D01*
X85559000Y-129673409D01*
X85559889Y-129671746D01*
X85561765Y-129671561D01*
X85562962Y-129673019D01*
X85571295Y-129714923D01*
X85674700Y-129714924D01*
X85683038Y-129673007D01*
X85684235Y-129671549D01*
X85686111Y-129671734D01*
G37*
G36*
X85186111Y-129671734D02*
G01*
X85187000Y-129673397D01*
X85187000Y-130985597D01*
X85186111Y-130987260D01*
X85184235Y-130987445D01*
X85183038Y-130985987D01*
X85174702Y-130944075D01*
X85071298Y-130944075D01*
X85062962Y-130985985D01*
X85061765Y-130987443D01*
X85059889Y-130987258D01*
X85059000Y-130985595D01*
X85059000Y-129673409D01*
X85059889Y-129671746D01*
X85061765Y-129671561D01*
X85062962Y-129673019D01*
X85071295Y-129714923D01*
X85174700Y-129714924D01*
X85183038Y-129673007D01*
X85184235Y-129671549D01*
X85186111Y-129671734D01*
G37*
G36*
X84686111Y-129671734D02*
G01*
X84687000Y-129673397D01*
X84687000Y-130985597D01*
X84686111Y-130987260D01*
X84684235Y-130987445D01*
X84683038Y-130985987D01*
X84674702Y-130944075D01*
X84571298Y-130944075D01*
X84562962Y-130985985D01*
X84561765Y-130987443D01*
X84559889Y-130987258D01*
X84559000Y-130985595D01*
X84559000Y-129673409D01*
X84559889Y-129671746D01*
X84561765Y-129671561D01*
X84562962Y-129673019D01*
X84571295Y-129714923D01*
X84674700Y-129714924D01*
X84683038Y-129673007D01*
X84684235Y-129671549D01*
X84686111Y-129671734D01*
G37*
G36*
X84186111Y-129671734D02*
G01*
X84187000Y-129673397D01*
X84187000Y-130985597D01*
X84186111Y-130987260D01*
X84184235Y-130987445D01*
X84183038Y-130985987D01*
X84174702Y-130944075D01*
X84071298Y-130944075D01*
X84062962Y-130985985D01*
X84061765Y-130987443D01*
X84059889Y-130987258D01*
X84059000Y-130985595D01*
X84059000Y-129673409D01*
X84059889Y-129671746D01*
X84061765Y-129671561D01*
X84062962Y-129673019D01*
X84071295Y-129714923D01*
X84174700Y-129714924D01*
X84183038Y-129673007D01*
X84184235Y-129671549D01*
X84186111Y-129671734D01*
G37*
G36*
X83686111Y-129671734D02*
G01*
X83687000Y-129673397D01*
X83687000Y-130985597D01*
X83686111Y-130987260D01*
X83684235Y-130987445D01*
X83683038Y-130985987D01*
X83674702Y-130944075D01*
X83571298Y-130944075D01*
X83562962Y-130985985D01*
X83561765Y-130987443D01*
X83559889Y-130987258D01*
X83559000Y-130985595D01*
X83559000Y-129673409D01*
X83559889Y-129671746D01*
X83561765Y-129671561D01*
X83562962Y-129673019D01*
X83571295Y-129714923D01*
X83674700Y-129714924D01*
X83683038Y-129673007D01*
X83684235Y-129671549D01*
X83686111Y-129671734D01*
G37*
G36*
X83186111Y-129671734D02*
G01*
X83187000Y-129673397D01*
X83187000Y-130985597D01*
X83186111Y-130987260D01*
X83184235Y-130987445D01*
X83183038Y-130985987D01*
X83174702Y-130944075D01*
X83071298Y-130944075D01*
X83062962Y-130985985D01*
X83061765Y-130987443D01*
X83059889Y-130987258D01*
X83059000Y-130985595D01*
X83059000Y-129673409D01*
X83059889Y-129671746D01*
X83061765Y-129671561D01*
X83062962Y-129673019D01*
X83071295Y-129714923D01*
X83174700Y-129714924D01*
X83183038Y-129673007D01*
X83184235Y-129671549D01*
X83186111Y-129671734D01*
G37*
G36*
X82686111Y-129671734D02*
G01*
X82687000Y-129673397D01*
X82687000Y-130985597D01*
X82686111Y-130987260D01*
X82684235Y-130987445D01*
X82683038Y-130985987D01*
X82674702Y-130944075D01*
X82571298Y-130944075D01*
X82562962Y-130985985D01*
X82561765Y-130987443D01*
X82559889Y-130987258D01*
X82559000Y-130985595D01*
X82559000Y-129673409D01*
X82559889Y-129671746D01*
X82561765Y-129671561D01*
X82562962Y-129673019D01*
X82571295Y-129714923D01*
X82674700Y-129714924D01*
X82683038Y-129673007D01*
X82684235Y-129671549D01*
X82686111Y-129671734D01*
G37*
G36*
X110743251Y-127803889D02*
G01*
X110743436Y-127805765D01*
X110741978Y-127806962D01*
X110700075Y-127815295D01*
X110700074Y-127918700D01*
X110741992Y-127927038D01*
X110743450Y-127928235D01*
X110743265Y-127930111D01*
X110741602Y-127931000D01*
X109429402Y-127931000D01*
X109427739Y-127930111D01*
X109427554Y-127928235D01*
X109429012Y-127927038D01*
X109470924Y-127918702D01*
X109470924Y-127815298D01*
X109429014Y-127806962D01*
X109427556Y-127805765D01*
X109427741Y-127803889D01*
X109429404Y-127803000D01*
X110741588Y-127803000D01*
X110743251Y-127803889D01*
G37*
G36*
X80818251Y-127803889D02*
G01*
X80818436Y-127805765D01*
X80816978Y-127806962D01*
X80775075Y-127815295D01*
X80775074Y-127918700D01*
X80816992Y-127927038D01*
X80818450Y-127928235D01*
X80818265Y-127930111D01*
X80816602Y-127931000D01*
X79504402Y-127931000D01*
X79502739Y-127930111D01*
X79502554Y-127928235D01*
X79504012Y-127927038D01*
X79545924Y-127918702D01*
X79545924Y-127815298D01*
X79504014Y-127806962D01*
X79502556Y-127805765D01*
X79502741Y-127803889D01*
X79504404Y-127803000D01*
X80816588Y-127803000D01*
X80818251Y-127803889D01*
G37*
G36*
X110743251Y-127303889D02*
G01*
X110743436Y-127305765D01*
X110741978Y-127306962D01*
X110700075Y-127315295D01*
X110700074Y-127418700D01*
X110741992Y-127427038D01*
X110743450Y-127428235D01*
X110743265Y-127430111D01*
X110741602Y-127431000D01*
X109429402Y-127431000D01*
X109427739Y-127430111D01*
X109427554Y-127428235D01*
X109429012Y-127427038D01*
X109470924Y-127418702D01*
X109470924Y-127315298D01*
X109429014Y-127306962D01*
X109427556Y-127305765D01*
X109427741Y-127303889D01*
X109429404Y-127303000D01*
X110741588Y-127303000D01*
X110743251Y-127303889D01*
G37*
G36*
X80818251Y-127303889D02*
G01*
X80818436Y-127305765D01*
X80816978Y-127306962D01*
X80775075Y-127315295D01*
X80775074Y-127418700D01*
X80816992Y-127427038D01*
X80818450Y-127428235D01*
X80818265Y-127430111D01*
X80816602Y-127431000D01*
X79504402Y-127431000D01*
X79502739Y-127430111D01*
X79502554Y-127428235D01*
X79504012Y-127427038D01*
X79545924Y-127418702D01*
X79545924Y-127315298D01*
X79504014Y-127306962D01*
X79502556Y-127305765D01*
X79502741Y-127303889D01*
X79504404Y-127303000D01*
X80816588Y-127303000D01*
X80818251Y-127303889D01*
G37*
G36*
X110743251Y-126803889D02*
G01*
X110743436Y-126805765D01*
X110741978Y-126806962D01*
X110700075Y-126815295D01*
X110700074Y-126918700D01*
X110741992Y-126927038D01*
X110743450Y-126928235D01*
X110743265Y-126930111D01*
X110741602Y-126931000D01*
X109429402Y-126931000D01*
X109427739Y-126930111D01*
X109427554Y-126928235D01*
X109429012Y-126927038D01*
X109470924Y-126918702D01*
X109470924Y-126815298D01*
X109429014Y-126806962D01*
X109427556Y-126805765D01*
X109427741Y-126803889D01*
X109429404Y-126803000D01*
X110741588Y-126803000D01*
X110743251Y-126803889D01*
G37*
G36*
X80818251Y-126803889D02*
G01*
X80818436Y-126805765D01*
X80816978Y-126806962D01*
X80775075Y-126815295D01*
X80775074Y-126918700D01*
X80816992Y-126927038D01*
X80818450Y-126928235D01*
X80818265Y-126930111D01*
X80816602Y-126931000D01*
X79504402Y-126931000D01*
X79502739Y-126930111D01*
X79502554Y-126928235D01*
X79504012Y-126927038D01*
X79545924Y-126918702D01*
X79545924Y-126815298D01*
X79504014Y-126806962D01*
X79502556Y-126805765D01*
X79502741Y-126803889D01*
X79504404Y-126803000D01*
X80816588Y-126803000D01*
X80818251Y-126803889D01*
G37*
G36*
X110743251Y-126303889D02*
G01*
X110743436Y-126305765D01*
X110741978Y-126306962D01*
X110700075Y-126315295D01*
X110700074Y-126418700D01*
X110741992Y-126427038D01*
X110743450Y-126428235D01*
X110743265Y-126430111D01*
X110741602Y-126431000D01*
X109429402Y-126431000D01*
X109427739Y-126430111D01*
X109427554Y-126428235D01*
X109429012Y-126427038D01*
X109470924Y-126418702D01*
X109470924Y-126315298D01*
X109429014Y-126306962D01*
X109427556Y-126305765D01*
X109427741Y-126303889D01*
X109429404Y-126303000D01*
X110741588Y-126303000D01*
X110743251Y-126303889D01*
G37*
G36*
X80818251Y-126303889D02*
G01*
X80818436Y-126305765D01*
X80816978Y-126306962D01*
X80775075Y-126315295D01*
X80775074Y-126418700D01*
X80816992Y-126427038D01*
X80818450Y-126428235D01*
X80818265Y-126430111D01*
X80816602Y-126431000D01*
X79504402Y-126431000D01*
X79502739Y-126430111D01*
X79502554Y-126428235D01*
X79504012Y-126427038D01*
X79545924Y-126418702D01*
X79545924Y-126315298D01*
X79504014Y-126306962D01*
X79502556Y-126305765D01*
X79502741Y-126303889D01*
X79504404Y-126303000D01*
X80816588Y-126303000D01*
X80818251Y-126303889D01*
G37*
G36*
X110743251Y-125803889D02*
G01*
X110743436Y-125805765D01*
X110741978Y-125806962D01*
X110700075Y-125815295D01*
X110700074Y-125918700D01*
X110741992Y-125927038D01*
X110743450Y-125928235D01*
X110743265Y-125930111D01*
X110741602Y-125931000D01*
X109429402Y-125931000D01*
X109427739Y-125930111D01*
X109427554Y-125928235D01*
X109429012Y-125927038D01*
X109470924Y-125918702D01*
X109470924Y-125815298D01*
X109429014Y-125806962D01*
X109427556Y-125805765D01*
X109427741Y-125803889D01*
X109429404Y-125803000D01*
X110741588Y-125803000D01*
X110743251Y-125803889D01*
G37*
G36*
X80818251Y-125803889D02*
G01*
X80818436Y-125805765D01*
X80816978Y-125806962D01*
X80775075Y-125815295D01*
X80775074Y-125918700D01*
X80816992Y-125927038D01*
X80818450Y-125928235D01*
X80818265Y-125930111D01*
X80816602Y-125931000D01*
X79504402Y-125931000D01*
X79502739Y-125930111D01*
X79502554Y-125928235D01*
X79504012Y-125927038D01*
X79545924Y-125918702D01*
X79545924Y-125815298D01*
X79504014Y-125806962D01*
X79502556Y-125805765D01*
X79502741Y-125803889D01*
X79504404Y-125803000D01*
X80816588Y-125803000D01*
X80818251Y-125803889D01*
G37*
G36*
X110743251Y-125303889D02*
G01*
X110743436Y-125305765D01*
X110741978Y-125306962D01*
X110700075Y-125315295D01*
X110700074Y-125418700D01*
X110741992Y-125427038D01*
X110743450Y-125428235D01*
X110743265Y-125430111D01*
X110741602Y-125431000D01*
X109429402Y-125431000D01*
X109427739Y-125430111D01*
X109427554Y-125428235D01*
X109429012Y-125427038D01*
X109470924Y-125418702D01*
X109470924Y-125315298D01*
X109429014Y-125306962D01*
X109427556Y-125305765D01*
X109427741Y-125303889D01*
X109429404Y-125303000D01*
X110741588Y-125303000D01*
X110743251Y-125303889D01*
G37*
G36*
X80818251Y-125303889D02*
G01*
X80818436Y-125305765D01*
X80816978Y-125306962D01*
X80775075Y-125315295D01*
X80775074Y-125418700D01*
X80816992Y-125427038D01*
X80818450Y-125428235D01*
X80818265Y-125430111D01*
X80816602Y-125431000D01*
X79504402Y-125431000D01*
X79502739Y-125430111D01*
X79502554Y-125428235D01*
X79504012Y-125427038D01*
X79545924Y-125418702D01*
X79545924Y-125315298D01*
X79504014Y-125306962D01*
X79502556Y-125305765D01*
X79502741Y-125303889D01*
X79504404Y-125303000D01*
X80816588Y-125303000D01*
X80818251Y-125303889D01*
G37*
G36*
X110743251Y-124803889D02*
G01*
X110743436Y-124805765D01*
X110741978Y-124806962D01*
X110700075Y-124815295D01*
X110700074Y-124918700D01*
X110741992Y-124927038D01*
X110743450Y-124928235D01*
X110743265Y-124930111D01*
X110741602Y-124931000D01*
X109429402Y-124931000D01*
X109427739Y-124930111D01*
X109427554Y-124928235D01*
X109429012Y-124927038D01*
X109470924Y-124918702D01*
X109470924Y-124815298D01*
X109429014Y-124806962D01*
X109427556Y-124805765D01*
X109427741Y-124803889D01*
X109429404Y-124803000D01*
X110741588Y-124803000D01*
X110743251Y-124803889D01*
G37*
G36*
X80818251Y-124803889D02*
G01*
X80818436Y-124805765D01*
X80816978Y-124806962D01*
X80775075Y-124815295D01*
X80775074Y-124918700D01*
X80816992Y-124927038D01*
X80818450Y-124928235D01*
X80818265Y-124930111D01*
X80816602Y-124931000D01*
X79504402Y-124931000D01*
X79502739Y-124930111D01*
X79502554Y-124928235D01*
X79504012Y-124927038D01*
X79545924Y-124918702D01*
X79545924Y-124815298D01*
X79504014Y-124806962D01*
X79502556Y-124805765D01*
X79502741Y-124803889D01*
X79504404Y-124803000D01*
X80816588Y-124803000D01*
X80818251Y-124803889D01*
G37*
G36*
X110743251Y-124303889D02*
G01*
X110743436Y-124305765D01*
X110741978Y-124306962D01*
X110700075Y-124315295D01*
X110700074Y-124418700D01*
X110741992Y-124427038D01*
X110743450Y-124428235D01*
X110743265Y-124430111D01*
X110741602Y-124431000D01*
X109429402Y-124431000D01*
X109427739Y-124430111D01*
X109427554Y-124428235D01*
X109429012Y-124427038D01*
X109470924Y-124418702D01*
X109470924Y-124315298D01*
X109429014Y-124306962D01*
X109427556Y-124305765D01*
X109427741Y-124303889D01*
X109429404Y-124303000D01*
X110741588Y-124303000D01*
X110743251Y-124303889D01*
G37*
G36*
X80818251Y-124303889D02*
G01*
X80818436Y-124305765D01*
X80816978Y-124306962D01*
X80775075Y-124315295D01*
X80775074Y-124418700D01*
X80816992Y-124427038D01*
X80818450Y-124428235D01*
X80818265Y-124430111D01*
X80816602Y-124431000D01*
X79504402Y-124431000D01*
X79502739Y-124430111D01*
X79502554Y-124428235D01*
X79504012Y-124427038D01*
X79545924Y-124418702D01*
X79545924Y-124315298D01*
X79504014Y-124306962D01*
X79502556Y-124305765D01*
X79502741Y-124303889D01*
X79504404Y-124303000D01*
X80816588Y-124303000D01*
X80818251Y-124303889D01*
G37*
G36*
X110743251Y-123803889D02*
G01*
X110743436Y-123805765D01*
X110741978Y-123806962D01*
X110700075Y-123815295D01*
X110700074Y-123918700D01*
X110741992Y-123927038D01*
X110743450Y-123928235D01*
X110743265Y-123930111D01*
X110741602Y-123931000D01*
X109429402Y-123931000D01*
X109427739Y-123930111D01*
X109427554Y-123928235D01*
X109429012Y-123927038D01*
X109470924Y-123918702D01*
X109470924Y-123815298D01*
X109429014Y-123806962D01*
X109427556Y-123805765D01*
X109427741Y-123803889D01*
X109429404Y-123803000D01*
X110741588Y-123803000D01*
X110743251Y-123803889D01*
G37*
G36*
X80818251Y-123803889D02*
G01*
X80818436Y-123805765D01*
X80816978Y-123806962D01*
X80775075Y-123815295D01*
X80775074Y-123918700D01*
X80816992Y-123927038D01*
X80818450Y-123928235D01*
X80818265Y-123930111D01*
X80816602Y-123931000D01*
X79504402Y-123931000D01*
X79502739Y-123930111D01*
X79502554Y-123928235D01*
X79504012Y-123927038D01*
X79545924Y-123918702D01*
X79545924Y-123815298D01*
X79504014Y-123806962D01*
X79502556Y-123805765D01*
X79502741Y-123803889D01*
X79504404Y-123803000D01*
X80816588Y-123803000D01*
X80818251Y-123803889D01*
G37*
G36*
X110743251Y-123303889D02*
G01*
X110743436Y-123305765D01*
X110741978Y-123306962D01*
X110700075Y-123315295D01*
X110700074Y-123418700D01*
X110741992Y-123427038D01*
X110743450Y-123428235D01*
X110743265Y-123430111D01*
X110741602Y-123431000D01*
X109429402Y-123431000D01*
X109427739Y-123430111D01*
X109427554Y-123428235D01*
X109429012Y-123427038D01*
X109470924Y-123418702D01*
X109470924Y-123315298D01*
X109429014Y-123306962D01*
X109427556Y-123305765D01*
X109427741Y-123303889D01*
X109429404Y-123303000D01*
X110741588Y-123303000D01*
X110743251Y-123303889D01*
G37*
G36*
X80818251Y-123303889D02*
G01*
X80818436Y-123305765D01*
X80816978Y-123306962D01*
X80775075Y-123315295D01*
X80775074Y-123418700D01*
X80816992Y-123427038D01*
X80818450Y-123428235D01*
X80818265Y-123430111D01*
X80816602Y-123431000D01*
X79504402Y-123431000D01*
X79502739Y-123430111D01*
X79502554Y-123428235D01*
X79504012Y-123427038D01*
X79545924Y-123418702D01*
X79545924Y-123315298D01*
X79504014Y-123306962D01*
X79502556Y-123305765D01*
X79502741Y-123303889D01*
X79504404Y-123303000D01*
X80816588Y-123303000D01*
X80818251Y-123303889D01*
G37*
G36*
X110743251Y-122803889D02*
G01*
X110743436Y-122805765D01*
X110741978Y-122806962D01*
X110700075Y-122815295D01*
X110700074Y-122918700D01*
X110741992Y-122927038D01*
X110743450Y-122928235D01*
X110743265Y-122930111D01*
X110741602Y-122931000D01*
X109429402Y-122931000D01*
X109427739Y-122930111D01*
X109427554Y-122928235D01*
X109429012Y-122927038D01*
X109470924Y-122918702D01*
X109470924Y-122815298D01*
X109429014Y-122806962D01*
X109427556Y-122805765D01*
X109427741Y-122803889D01*
X109429404Y-122803000D01*
X110741588Y-122803000D01*
X110743251Y-122803889D01*
G37*
G36*
X80818251Y-122803889D02*
G01*
X80818436Y-122805765D01*
X80816978Y-122806962D01*
X80775075Y-122815295D01*
X80775074Y-122918700D01*
X80816992Y-122927038D01*
X80818450Y-122928235D01*
X80818265Y-122930111D01*
X80816602Y-122931000D01*
X79504402Y-122931000D01*
X79502739Y-122930111D01*
X79502554Y-122928235D01*
X79504012Y-122927038D01*
X79545924Y-122918702D01*
X79545924Y-122815298D01*
X79504014Y-122806962D01*
X79502556Y-122805765D01*
X79502741Y-122803889D01*
X79504404Y-122803000D01*
X80816588Y-122803000D01*
X80818251Y-122803889D01*
G37*
G36*
X110743251Y-122303889D02*
G01*
X110743436Y-122305765D01*
X110741978Y-122306962D01*
X110700075Y-122315295D01*
X110700074Y-122418700D01*
X110741992Y-122427038D01*
X110743450Y-122428235D01*
X110743265Y-122430111D01*
X110741602Y-122431000D01*
X109429402Y-122431000D01*
X109427739Y-122430111D01*
X109427554Y-122428235D01*
X109429012Y-122427038D01*
X109470924Y-122418702D01*
X109470924Y-122315298D01*
X109429014Y-122306962D01*
X109427556Y-122305765D01*
X109427741Y-122303889D01*
X109429404Y-122303000D01*
X110741588Y-122303000D01*
X110743251Y-122303889D01*
G37*
G36*
X80818251Y-122303889D02*
G01*
X80818436Y-122305765D01*
X80816978Y-122306962D01*
X80775075Y-122315295D01*
X80775074Y-122418700D01*
X80816992Y-122427038D01*
X80818450Y-122428235D01*
X80818265Y-122430111D01*
X80816602Y-122431000D01*
X79504402Y-122431000D01*
X79502739Y-122430111D01*
X79502554Y-122428235D01*
X79504012Y-122427038D01*
X79545924Y-122418702D01*
X79545924Y-122315298D01*
X79504014Y-122306962D01*
X79502556Y-122305765D01*
X79502741Y-122303889D01*
X79504404Y-122303000D01*
X80816588Y-122303000D01*
X80818251Y-122303889D01*
G37*
G36*
X110743251Y-121803889D02*
G01*
X110743436Y-121805765D01*
X110741978Y-121806962D01*
X110700075Y-121815295D01*
X110700074Y-121918700D01*
X110741992Y-121927038D01*
X110743450Y-121928235D01*
X110743265Y-121930111D01*
X110741602Y-121931000D01*
X109429402Y-121931000D01*
X109427739Y-121930111D01*
X109427554Y-121928235D01*
X109429012Y-121927038D01*
X109470924Y-121918702D01*
X109470924Y-121815298D01*
X109429014Y-121806962D01*
X109427556Y-121805765D01*
X109427741Y-121803889D01*
X109429404Y-121803000D01*
X110741588Y-121803000D01*
X110743251Y-121803889D01*
G37*
G36*
X80818251Y-121803889D02*
G01*
X80818436Y-121805765D01*
X80816978Y-121806962D01*
X80775075Y-121815295D01*
X80775074Y-121918700D01*
X80816992Y-121927038D01*
X80818450Y-121928235D01*
X80818265Y-121930111D01*
X80816602Y-121931000D01*
X79504402Y-121931000D01*
X79502739Y-121930111D01*
X79502554Y-121928235D01*
X79504012Y-121927038D01*
X79545924Y-121918702D01*
X79545924Y-121815298D01*
X79504014Y-121806962D01*
X79502556Y-121805765D01*
X79502741Y-121803889D01*
X79504404Y-121803000D01*
X80816588Y-121803000D01*
X80818251Y-121803889D01*
G37*
G36*
X110743251Y-121303889D02*
G01*
X110743436Y-121305765D01*
X110741978Y-121306962D01*
X110700075Y-121315295D01*
X110700074Y-121418700D01*
X110741992Y-121427038D01*
X110743450Y-121428235D01*
X110743265Y-121430111D01*
X110741602Y-121431000D01*
X109429402Y-121431000D01*
X109427739Y-121430111D01*
X109427554Y-121428235D01*
X109429012Y-121427038D01*
X109470924Y-121418702D01*
X109470924Y-121315298D01*
X109429014Y-121306962D01*
X109427556Y-121305765D01*
X109427741Y-121303889D01*
X109429404Y-121303000D01*
X110741588Y-121303000D01*
X110743251Y-121303889D01*
G37*
G36*
X80818251Y-121303889D02*
G01*
X80818436Y-121305765D01*
X80816978Y-121306962D01*
X80775075Y-121315295D01*
X80775074Y-121418700D01*
X80816992Y-121427038D01*
X80818450Y-121428235D01*
X80818265Y-121430111D01*
X80816602Y-121431000D01*
X79504402Y-121431000D01*
X79502739Y-121430111D01*
X79502554Y-121428235D01*
X79504012Y-121427038D01*
X79545924Y-121418702D01*
X79545924Y-121315298D01*
X79504014Y-121306962D01*
X79502556Y-121305765D01*
X79502741Y-121303889D01*
X79504404Y-121303000D01*
X80816588Y-121303000D01*
X80818251Y-121303889D01*
G37*
G36*
X110743251Y-120803889D02*
G01*
X110743436Y-120805765D01*
X110741978Y-120806962D01*
X110700075Y-120815295D01*
X110700074Y-120918700D01*
X110741992Y-120927038D01*
X110743450Y-120928235D01*
X110743265Y-120930111D01*
X110741602Y-120931000D01*
X109429402Y-120931000D01*
X109427739Y-120930111D01*
X109427554Y-120928235D01*
X109429012Y-120927038D01*
X109470924Y-120918702D01*
X109470924Y-120815298D01*
X109429014Y-120806962D01*
X109427556Y-120805765D01*
X109427741Y-120803889D01*
X109429404Y-120803000D01*
X110741588Y-120803000D01*
X110743251Y-120803889D01*
G37*
G36*
X80818251Y-120803889D02*
G01*
X80818436Y-120805765D01*
X80816978Y-120806962D01*
X80775075Y-120815295D01*
X80775074Y-120918700D01*
X80816992Y-120927038D01*
X80818450Y-120928235D01*
X80818265Y-120930111D01*
X80816602Y-120931000D01*
X79504402Y-120931000D01*
X79502739Y-120930111D01*
X79502554Y-120928235D01*
X79504012Y-120927038D01*
X79545924Y-120918702D01*
X79545924Y-120815298D01*
X79504014Y-120806962D01*
X79502556Y-120805765D01*
X79502741Y-120803889D01*
X79504404Y-120803000D01*
X80816588Y-120803000D01*
X80818251Y-120803889D01*
G37*
G36*
X110743251Y-120303889D02*
G01*
X110743436Y-120305765D01*
X110741978Y-120306962D01*
X110700075Y-120315295D01*
X110700074Y-120418700D01*
X110741992Y-120427038D01*
X110743450Y-120428235D01*
X110743265Y-120430111D01*
X110741602Y-120431000D01*
X109429402Y-120431000D01*
X109427739Y-120430111D01*
X109427554Y-120428235D01*
X109429012Y-120427038D01*
X109470924Y-120418702D01*
X109470924Y-120315298D01*
X109429014Y-120306962D01*
X109427556Y-120305765D01*
X109427741Y-120303889D01*
X109429404Y-120303000D01*
X110741588Y-120303000D01*
X110743251Y-120303889D01*
G37*
G36*
X80818251Y-120303889D02*
G01*
X80818436Y-120305765D01*
X80816978Y-120306962D01*
X80775075Y-120315295D01*
X80775074Y-120418700D01*
X80816992Y-120427038D01*
X80818450Y-120428235D01*
X80818265Y-120430111D01*
X80816602Y-120431000D01*
X79504402Y-120431000D01*
X79502739Y-120430111D01*
X79502554Y-120428235D01*
X79504012Y-120427038D01*
X79545924Y-120418702D01*
X79545924Y-120315298D01*
X79504014Y-120306962D01*
X79502556Y-120305765D01*
X79502741Y-120303889D01*
X79504404Y-120303000D01*
X80816588Y-120303000D01*
X80818251Y-120303889D01*
G37*
G36*
X110743251Y-119803889D02*
G01*
X110743436Y-119805765D01*
X110741978Y-119806962D01*
X110700075Y-119815295D01*
X110700074Y-119918700D01*
X110741992Y-119927038D01*
X110743450Y-119928235D01*
X110743265Y-119930111D01*
X110741602Y-119931000D01*
X109429402Y-119931000D01*
X109427739Y-119930111D01*
X109427554Y-119928235D01*
X109429012Y-119927038D01*
X109470924Y-119918702D01*
X109470924Y-119815298D01*
X109429014Y-119806962D01*
X109427556Y-119805765D01*
X109427741Y-119803889D01*
X109429404Y-119803000D01*
X110741588Y-119803000D01*
X110743251Y-119803889D01*
G37*
G36*
X80818251Y-119803889D02*
G01*
X80818436Y-119805765D01*
X80816978Y-119806962D01*
X80775075Y-119815295D01*
X80775074Y-119918700D01*
X80816992Y-119927038D01*
X80818450Y-119928235D01*
X80818265Y-119930111D01*
X80816602Y-119931000D01*
X79504402Y-119931000D01*
X79502739Y-119930111D01*
X79502554Y-119928235D01*
X79504012Y-119927038D01*
X79545924Y-119918702D01*
X79545924Y-119815298D01*
X79504014Y-119806962D01*
X79502556Y-119805765D01*
X79502741Y-119803889D01*
X79504404Y-119803000D01*
X80816588Y-119803000D01*
X80818251Y-119803889D01*
G37*
G36*
X110743251Y-119303889D02*
G01*
X110743436Y-119305765D01*
X110741978Y-119306962D01*
X110700075Y-119315295D01*
X110700074Y-119418700D01*
X110741992Y-119427038D01*
X110743450Y-119428235D01*
X110743265Y-119430111D01*
X110741602Y-119431000D01*
X109429402Y-119431000D01*
X109427739Y-119430111D01*
X109427554Y-119428235D01*
X109429012Y-119427038D01*
X109470924Y-119418702D01*
X109470924Y-119315298D01*
X109429014Y-119306962D01*
X109427556Y-119305765D01*
X109427741Y-119303889D01*
X109429404Y-119303000D01*
X110741588Y-119303000D01*
X110743251Y-119303889D01*
G37*
G36*
X80818251Y-119303889D02*
G01*
X80818436Y-119305765D01*
X80816978Y-119306962D01*
X80775075Y-119315295D01*
X80775074Y-119418700D01*
X80816992Y-119427038D01*
X80818450Y-119428235D01*
X80818265Y-119430111D01*
X80816602Y-119431000D01*
X79504402Y-119431000D01*
X79502739Y-119430111D01*
X79502554Y-119428235D01*
X79504012Y-119427038D01*
X79545924Y-119418702D01*
X79545924Y-119315298D01*
X79504014Y-119306962D01*
X79502556Y-119305765D01*
X79502741Y-119303889D01*
X79504404Y-119303000D01*
X80816588Y-119303000D01*
X80818251Y-119303889D01*
G37*
G36*
X110743251Y-118803889D02*
G01*
X110743436Y-118805765D01*
X110741978Y-118806962D01*
X110700075Y-118815295D01*
X110700074Y-118918700D01*
X110741992Y-118927038D01*
X110743450Y-118928235D01*
X110743265Y-118930111D01*
X110741602Y-118931000D01*
X109429402Y-118931000D01*
X109427739Y-118930111D01*
X109427554Y-118928235D01*
X109429012Y-118927038D01*
X109470924Y-118918702D01*
X109470924Y-118815298D01*
X109429014Y-118806962D01*
X109427556Y-118805765D01*
X109427741Y-118803889D01*
X109429404Y-118803000D01*
X110741588Y-118803000D01*
X110743251Y-118803889D01*
G37*
G36*
X80818251Y-118803889D02*
G01*
X80818436Y-118805765D01*
X80816978Y-118806962D01*
X80775075Y-118815295D01*
X80775074Y-118918700D01*
X80816992Y-118927038D01*
X80818450Y-118928235D01*
X80818265Y-118930111D01*
X80816602Y-118931000D01*
X79504402Y-118931000D01*
X79502739Y-118930111D01*
X79502554Y-118928235D01*
X79504012Y-118927038D01*
X79545924Y-118918702D01*
X79545924Y-118815298D01*
X79504014Y-118806962D01*
X79502556Y-118805765D01*
X79502741Y-118803889D01*
X79504404Y-118803000D01*
X80816588Y-118803000D01*
X80818251Y-118803889D01*
G37*
G36*
X110743251Y-118303889D02*
G01*
X110743436Y-118305765D01*
X110741978Y-118306962D01*
X110700075Y-118315295D01*
X110700074Y-118418700D01*
X110741992Y-118427038D01*
X110743450Y-118428235D01*
X110743265Y-118430111D01*
X110741602Y-118431000D01*
X109429402Y-118431000D01*
X109427739Y-118430111D01*
X109427554Y-118428235D01*
X109429012Y-118427038D01*
X109470924Y-118418702D01*
X109470924Y-118315298D01*
X109429014Y-118306962D01*
X109427556Y-118305765D01*
X109427741Y-118303889D01*
X109429404Y-118303000D01*
X110741588Y-118303000D01*
X110743251Y-118303889D01*
G37*
G36*
X80818251Y-118303889D02*
G01*
X80818436Y-118305765D01*
X80816978Y-118306962D01*
X80775075Y-118315295D01*
X80775074Y-118418700D01*
X80816992Y-118427038D01*
X80818450Y-118428235D01*
X80818265Y-118430111D01*
X80816602Y-118431000D01*
X79504402Y-118431000D01*
X79502739Y-118430111D01*
X79502554Y-118428235D01*
X79504012Y-118427038D01*
X79545924Y-118418702D01*
X79545924Y-118315298D01*
X79504014Y-118306962D01*
X79502556Y-118305765D01*
X79502741Y-118303889D01*
X79504404Y-118303000D01*
X80816588Y-118303000D01*
X80818251Y-118303889D01*
G37*
G36*
X110743251Y-117803889D02*
G01*
X110743436Y-117805765D01*
X110741978Y-117806962D01*
X110700075Y-117815295D01*
X110700074Y-117918700D01*
X110741992Y-117927038D01*
X110743450Y-117928235D01*
X110743265Y-117930111D01*
X110741602Y-117931000D01*
X109429402Y-117931000D01*
X109427739Y-117930111D01*
X109427554Y-117928235D01*
X109429012Y-117927038D01*
X109470924Y-117918702D01*
X109470924Y-117815298D01*
X109429014Y-117806962D01*
X109427556Y-117805765D01*
X109427741Y-117803889D01*
X109429404Y-117803000D01*
X110741588Y-117803000D01*
X110743251Y-117803889D01*
G37*
G36*
X80818251Y-117803889D02*
G01*
X80818436Y-117805765D01*
X80816978Y-117806962D01*
X80775075Y-117815295D01*
X80775074Y-117918700D01*
X80816992Y-117927038D01*
X80818450Y-117928235D01*
X80818265Y-117930111D01*
X80816602Y-117931000D01*
X79504402Y-117931000D01*
X79502739Y-117930111D01*
X79502554Y-117928235D01*
X79504012Y-117927038D01*
X79545924Y-117918702D01*
X79545924Y-117815298D01*
X79504014Y-117806962D01*
X79502556Y-117805765D01*
X79502741Y-117803889D01*
X79504404Y-117803000D01*
X80816588Y-117803000D01*
X80818251Y-117803889D01*
G37*
G36*
X110743251Y-117303889D02*
G01*
X110743436Y-117305765D01*
X110741978Y-117306962D01*
X110700075Y-117315295D01*
X110700074Y-117418700D01*
X110741992Y-117427038D01*
X110743450Y-117428235D01*
X110743265Y-117430111D01*
X110741602Y-117431000D01*
X109429402Y-117431000D01*
X109427739Y-117430111D01*
X109427554Y-117428235D01*
X109429012Y-117427038D01*
X109470924Y-117418702D01*
X109470924Y-117315298D01*
X109429014Y-117306962D01*
X109427556Y-117305765D01*
X109427741Y-117303889D01*
X109429404Y-117303000D01*
X110741588Y-117303000D01*
X110743251Y-117303889D01*
G37*
G36*
X80818251Y-117303889D02*
G01*
X80818436Y-117305765D01*
X80816978Y-117306962D01*
X80775075Y-117315295D01*
X80775074Y-117418700D01*
X80816992Y-117427038D01*
X80818450Y-117428235D01*
X80818265Y-117430111D01*
X80816602Y-117431000D01*
X79504402Y-117431000D01*
X79502739Y-117430111D01*
X79502554Y-117428235D01*
X79504012Y-117427038D01*
X79545924Y-117418702D01*
X79545924Y-117315298D01*
X79504014Y-117306962D01*
X79502556Y-117305765D01*
X79502741Y-117303889D01*
X79504404Y-117303000D01*
X80816588Y-117303000D01*
X80818251Y-117303889D01*
G37*
G36*
X110743251Y-116803889D02*
G01*
X110743436Y-116805765D01*
X110741978Y-116806962D01*
X110700075Y-116815295D01*
X110700074Y-116918700D01*
X110741992Y-116927038D01*
X110743450Y-116928235D01*
X110743265Y-116930111D01*
X110741602Y-116931000D01*
X109429402Y-116931000D01*
X109427739Y-116930111D01*
X109427554Y-116928235D01*
X109429012Y-116927038D01*
X109470924Y-116918702D01*
X109470924Y-116815298D01*
X109429014Y-116806962D01*
X109427556Y-116805765D01*
X109427741Y-116803889D01*
X109429404Y-116803000D01*
X110741588Y-116803000D01*
X110743251Y-116803889D01*
G37*
G36*
X80818251Y-116803889D02*
G01*
X80818436Y-116805765D01*
X80816978Y-116806962D01*
X80775075Y-116815295D01*
X80775074Y-116918700D01*
X80816992Y-116927038D01*
X80818450Y-116928235D01*
X80818265Y-116930111D01*
X80816602Y-116931000D01*
X79504402Y-116931000D01*
X79502739Y-116930111D01*
X79502554Y-116928235D01*
X79504012Y-116927038D01*
X79545924Y-116918702D01*
X79545924Y-116815298D01*
X79504014Y-116806962D01*
X79502556Y-116805765D01*
X79502741Y-116803889D01*
X79504404Y-116803000D01*
X80816588Y-116803000D01*
X80818251Y-116803889D01*
G37*
G36*
X110743251Y-116303889D02*
G01*
X110743436Y-116305765D01*
X110741978Y-116306962D01*
X110700075Y-116315295D01*
X110700074Y-116418700D01*
X110741992Y-116427038D01*
X110743450Y-116428235D01*
X110743265Y-116430111D01*
X110741602Y-116431000D01*
X109429402Y-116431000D01*
X109427739Y-116430111D01*
X109427554Y-116428235D01*
X109429012Y-116427038D01*
X109470924Y-116418702D01*
X109470924Y-116315298D01*
X109429014Y-116306962D01*
X109427556Y-116305765D01*
X109427741Y-116303889D01*
X109429404Y-116303000D01*
X110741588Y-116303000D01*
X110743251Y-116303889D01*
G37*
G36*
X80818251Y-116303889D02*
G01*
X80818436Y-116305765D01*
X80816978Y-116306962D01*
X80775075Y-116315295D01*
X80775074Y-116418700D01*
X80816992Y-116427038D01*
X80818450Y-116428235D01*
X80818265Y-116430111D01*
X80816602Y-116431000D01*
X79504402Y-116431000D01*
X79502739Y-116430111D01*
X79502554Y-116428235D01*
X79504012Y-116427038D01*
X79545924Y-116418702D01*
X79545924Y-116315298D01*
X79504014Y-116306962D01*
X79502556Y-116305765D01*
X79502741Y-116303889D01*
X79504404Y-116303000D01*
X80816588Y-116303000D01*
X80818251Y-116303889D01*
G37*
G36*
X110743251Y-115803889D02*
G01*
X110743436Y-115805765D01*
X110741978Y-115806962D01*
X110700075Y-115815295D01*
X110700074Y-115918700D01*
X110741992Y-115927038D01*
X110743450Y-115928235D01*
X110743265Y-115930111D01*
X110741602Y-115931000D01*
X109429402Y-115931000D01*
X109427739Y-115930111D01*
X109427554Y-115928235D01*
X109429012Y-115927038D01*
X109470924Y-115918702D01*
X109470924Y-115815298D01*
X109429014Y-115806962D01*
X109427556Y-115805765D01*
X109427741Y-115803889D01*
X109429404Y-115803000D01*
X110741588Y-115803000D01*
X110743251Y-115803889D01*
G37*
G36*
X80818251Y-115803889D02*
G01*
X80818436Y-115805765D01*
X80816978Y-115806962D01*
X80775075Y-115815295D01*
X80775074Y-115918700D01*
X80816992Y-115927038D01*
X80818450Y-115928235D01*
X80818265Y-115930111D01*
X80816602Y-115931000D01*
X79504402Y-115931000D01*
X79502739Y-115930111D01*
X79502554Y-115928235D01*
X79504012Y-115927038D01*
X79545924Y-115918702D01*
X79545924Y-115815298D01*
X79504014Y-115806962D01*
X79502556Y-115805765D01*
X79502741Y-115803889D01*
X79504404Y-115803000D01*
X80816588Y-115803000D01*
X80818251Y-115803889D01*
G37*
G36*
X110743251Y-115303889D02*
G01*
X110743436Y-115305765D01*
X110741978Y-115306962D01*
X110700075Y-115315295D01*
X110700074Y-115418700D01*
X110741992Y-115427038D01*
X110743450Y-115428235D01*
X110743265Y-115430111D01*
X110741602Y-115431000D01*
X109429402Y-115431000D01*
X109427739Y-115430111D01*
X109427554Y-115428235D01*
X109429012Y-115427038D01*
X109470924Y-115418702D01*
X109470924Y-115315298D01*
X109429014Y-115306962D01*
X109427556Y-115305765D01*
X109427741Y-115303889D01*
X109429404Y-115303000D01*
X110741588Y-115303000D01*
X110743251Y-115303889D01*
G37*
G36*
X80818251Y-115303889D02*
G01*
X80818436Y-115305765D01*
X80816978Y-115306962D01*
X80775075Y-115315295D01*
X80775074Y-115418700D01*
X80816992Y-115427038D01*
X80818450Y-115428235D01*
X80818265Y-115430111D01*
X80816602Y-115431000D01*
X79504402Y-115431000D01*
X79502739Y-115430111D01*
X79502554Y-115428235D01*
X79504012Y-115427038D01*
X79545924Y-115418702D01*
X79545924Y-115315298D01*
X79504014Y-115306962D01*
X79502556Y-115305765D01*
X79502741Y-115303889D01*
X79504404Y-115303000D01*
X80816588Y-115303000D01*
X80818251Y-115303889D01*
G37*
G36*
X110743251Y-114803889D02*
G01*
X110743436Y-114805765D01*
X110741978Y-114806962D01*
X110700075Y-114815295D01*
X110700074Y-114918700D01*
X110741992Y-114927038D01*
X110743450Y-114928235D01*
X110743265Y-114930111D01*
X110741602Y-114931000D01*
X109429402Y-114931000D01*
X109427739Y-114930111D01*
X109427554Y-114928235D01*
X109429012Y-114927038D01*
X109470924Y-114918702D01*
X109470924Y-114815298D01*
X109429014Y-114806962D01*
X109427556Y-114805765D01*
X109427741Y-114803889D01*
X109429404Y-114803000D01*
X110741588Y-114803000D01*
X110743251Y-114803889D01*
G37*
G36*
X80818251Y-114803889D02*
G01*
X80818436Y-114805765D01*
X80816978Y-114806962D01*
X80775075Y-114815295D01*
X80775074Y-114918700D01*
X80816992Y-114927038D01*
X80818450Y-114928235D01*
X80818265Y-114930111D01*
X80816602Y-114931000D01*
X79504402Y-114931000D01*
X79502739Y-114930111D01*
X79502554Y-114928235D01*
X79504012Y-114927038D01*
X79545924Y-114918702D01*
X79545924Y-114815298D01*
X79504014Y-114806962D01*
X79502556Y-114805765D01*
X79502741Y-114803889D01*
X79504404Y-114803000D01*
X80816588Y-114803000D01*
X80818251Y-114803889D01*
G37*
G36*
X110743251Y-114303889D02*
G01*
X110743436Y-114305765D01*
X110741978Y-114306962D01*
X110700075Y-114315295D01*
X110700074Y-114418700D01*
X110741992Y-114427038D01*
X110743450Y-114428235D01*
X110743265Y-114430111D01*
X110741602Y-114431000D01*
X109429402Y-114431000D01*
X109427739Y-114430111D01*
X109427554Y-114428235D01*
X109429012Y-114427038D01*
X109470924Y-114418702D01*
X109470924Y-114315298D01*
X109429014Y-114306962D01*
X109427556Y-114305765D01*
X109427741Y-114303889D01*
X109429404Y-114303000D01*
X110741588Y-114303000D01*
X110743251Y-114303889D01*
G37*
G36*
X80818251Y-114303889D02*
G01*
X80818436Y-114305765D01*
X80816978Y-114306962D01*
X80775075Y-114315295D01*
X80775074Y-114418700D01*
X80816992Y-114427038D01*
X80818450Y-114428235D01*
X80818265Y-114430111D01*
X80816602Y-114431000D01*
X79504402Y-114431000D01*
X79502739Y-114430111D01*
X79502554Y-114428235D01*
X79504012Y-114427038D01*
X79545924Y-114418702D01*
X79545924Y-114315298D01*
X79504014Y-114306962D01*
X79502556Y-114305765D01*
X79502741Y-114303889D01*
X79504404Y-114303000D01*
X80816588Y-114303000D01*
X80818251Y-114303889D01*
G37*
G36*
X110743251Y-113803889D02*
G01*
X110743436Y-113805765D01*
X110741978Y-113806962D01*
X110700075Y-113815295D01*
X110700074Y-113918700D01*
X110741992Y-113927038D01*
X110743450Y-113928235D01*
X110743265Y-113930111D01*
X110741602Y-113931000D01*
X109429402Y-113931000D01*
X109427739Y-113930111D01*
X109427554Y-113928235D01*
X109429012Y-113927038D01*
X109470924Y-113918702D01*
X109470924Y-113815298D01*
X109429014Y-113806962D01*
X109427556Y-113805765D01*
X109427741Y-113803889D01*
X109429404Y-113803000D01*
X110741588Y-113803000D01*
X110743251Y-113803889D01*
G37*
G36*
X80818251Y-113803889D02*
G01*
X80818436Y-113805765D01*
X80816978Y-113806962D01*
X80775075Y-113815295D01*
X80775074Y-113918700D01*
X80816992Y-113927038D01*
X80818450Y-113928235D01*
X80818265Y-113930111D01*
X80816602Y-113931000D01*
X79504402Y-113931000D01*
X79502739Y-113930111D01*
X79502554Y-113928235D01*
X79504012Y-113927038D01*
X79545924Y-113918702D01*
X79545924Y-113815298D01*
X79504014Y-113806962D01*
X79502556Y-113805765D01*
X79502741Y-113803889D01*
X79504404Y-113803000D01*
X80816588Y-113803000D01*
X80818251Y-113803889D01*
G37*
G36*
X110743251Y-113303889D02*
G01*
X110743436Y-113305765D01*
X110741978Y-113306962D01*
X110700075Y-113315295D01*
X110700074Y-113418700D01*
X110741992Y-113427038D01*
X110743450Y-113428235D01*
X110743265Y-113430111D01*
X110741602Y-113431000D01*
X109429402Y-113431000D01*
X109427739Y-113430111D01*
X109427554Y-113428235D01*
X109429012Y-113427038D01*
X109470924Y-113418702D01*
X109470924Y-113315298D01*
X109429014Y-113306962D01*
X109427556Y-113305765D01*
X109427741Y-113303889D01*
X109429404Y-113303000D01*
X110741588Y-113303000D01*
X110743251Y-113303889D01*
G37*
G36*
X80818251Y-113303889D02*
G01*
X80818436Y-113305765D01*
X80816978Y-113306962D01*
X80775075Y-113315295D01*
X80775074Y-113418700D01*
X80816992Y-113427038D01*
X80818450Y-113428235D01*
X80818265Y-113430111D01*
X80816602Y-113431000D01*
X79504402Y-113431000D01*
X79502739Y-113430111D01*
X79502554Y-113428235D01*
X79504012Y-113427038D01*
X79545924Y-113418702D01*
X79545924Y-113315298D01*
X79504014Y-113306962D01*
X79502556Y-113305765D01*
X79502741Y-113303889D01*
X79504404Y-113303000D01*
X80816588Y-113303000D01*
X80818251Y-113303889D01*
G37*
G36*
X110743251Y-112803889D02*
G01*
X110743436Y-112805765D01*
X110741978Y-112806962D01*
X110700075Y-112815295D01*
X110700074Y-112918700D01*
X110741992Y-112927038D01*
X110743450Y-112928235D01*
X110743265Y-112930111D01*
X110741602Y-112931000D01*
X109429402Y-112931000D01*
X109427739Y-112930111D01*
X109427554Y-112928235D01*
X109429012Y-112927038D01*
X109470924Y-112918702D01*
X109470924Y-112815298D01*
X109429014Y-112806962D01*
X109427556Y-112805765D01*
X109427741Y-112803889D01*
X109429404Y-112803000D01*
X110741588Y-112803000D01*
X110743251Y-112803889D01*
G37*
G36*
X80818251Y-112803889D02*
G01*
X80818436Y-112805765D01*
X80816978Y-112806962D01*
X80775075Y-112815295D01*
X80775074Y-112918700D01*
X80816992Y-112927038D01*
X80818450Y-112928235D01*
X80818265Y-112930111D01*
X80816602Y-112931000D01*
X79504402Y-112931000D01*
X79502739Y-112930111D01*
X79502554Y-112928235D01*
X79504012Y-112927038D01*
X79545924Y-112918702D01*
X79545924Y-112815298D01*
X79504014Y-112806962D01*
X79502556Y-112805765D01*
X79502741Y-112803889D01*
X79504404Y-112803000D01*
X80816588Y-112803000D01*
X80818251Y-112803889D01*
G37*
G36*
X110743251Y-112303889D02*
G01*
X110743436Y-112305765D01*
X110741978Y-112306962D01*
X110700075Y-112315295D01*
X110700074Y-112418700D01*
X110741992Y-112427038D01*
X110743450Y-112428235D01*
X110743265Y-112430111D01*
X110741602Y-112431000D01*
X109429402Y-112431000D01*
X109427739Y-112430111D01*
X109427554Y-112428235D01*
X109429012Y-112427038D01*
X109470924Y-112418702D01*
X109470924Y-112315298D01*
X109429014Y-112306962D01*
X109427556Y-112305765D01*
X109427741Y-112303889D01*
X109429404Y-112303000D01*
X110741588Y-112303000D01*
X110743251Y-112303889D01*
G37*
G36*
X80818251Y-112303889D02*
G01*
X80818436Y-112305765D01*
X80816978Y-112306962D01*
X80775075Y-112315295D01*
X80775074Y-112418700D01*
X80816992Y-112427038D01*
X80818450Y-112428235D01*
X80818265Y-112430111D01*
X80816602Y-112431000D01*
X79504402Y-112431000D01*
X79502739Y-112430111D01*
X79502554Y-112428235D01*
X79504012Y-112427038D01*
X79545924Y-112418702D01*
X79545924Y-112315298D01*
X79504014Y-112306962D01*
X79502556Y-112305765D01*
X79502741Y-112303889D01*
X79504404Y-112303000D01*
X80816588Y-112303000D01*
X80818251Y-112303889D01*
G37*
G36*
X110743251Y-111803889D02*
G01*
X110743436Y-111805765D01*
X110741978Y-111806962D01*
X110700075Y-111815295D01*
X110700074Y-111918700D01*
X110741992Y-111927038D01*
X110743450Y-111928235D01*
X110743265Y-111930111D01*
X110741602Y-111931000D01*
X109429402Y-111931000D01*
X109427739Y-111930111D01*
X109427554Y-111928235D01*
X109429012Y-111927038D01*
X109470924Y-111918702D01*
X109470924Y-111815298D01*
X109429014Y-111806962D01*
X109427556Y-111805765D01*
X109427741Y-111803889D01*
X109429404Y-111803000D01*
X110741588Y-111803000D01*
X110743251Y-111803889D01*
G37*
G36*
X80818251Y-111803889D02*
G01*
X80818436Y-111805765D01*
X80816978Y-111806962D01*
X80775075Y-111815295D01*
X80775074Y-111918700D01*
X80816992Y-111927038D01*
X80818450Y-111928235D01*
X80818265Y-111930111D01*
X80816602Y-111931000D01*
X79504402Y-111931000D01*
X79502739Y-111930111D01*
X79502554Y-111928235D01*
X79504012Y-111927038D01*
X79545924Y-111918702D01*
X79545924Y-111815298D01*
X79504014Y-111806962D01*
X79502556Y-111805765D01*
X79502741Y-111803889D01*
X79504404Y-111803000D01*
X80816588Y-111803000D01*
X80818251Y-111803889D01*
G37*
G36*
X190691037Y-104946152D02*
G01*
X190703107Y-104951152D01*
X190704017Y-104952190D01*
X190705048Y-104953094D01*
X190710048Y-104965163D01*
X190710200Y-104965928D01*
X190710200Y-105762690D01*
X190710195Y-105762829D01*
X190709570Y-105771811D01*
X190710092Y-105773772D01*
X190710159Y-105774295D01*
X190684950Y-111168666D01*
X190702312Y-111194785D01*
X190702494Y-111195127D01*
X190704693Y-111200435D01*
X190704643Y-111200937D01*
X190705048Y-111201293D01*
X190710048Y-111213363D01*
X190710200Y-111214128D01*
X190710200Y-111671072D01*
X190710048Y-111671838D01*
X190705048Y-111683906D01*
X190704013Y-111684813D01*
X190703106Y-111685848D01*
X190691038Y-111690848D01*
X190690272Y-111691000D01*
X183654928Y-111691000D01*
X183654163Y-111690848D01*
X183642094Y-111685848D01*
X183641190Y-111684817D01*
X183640152Y-111683907D01*
X183635152Y-111671837D01*
X183635000Y-111671072D01*
X183635000Y-104965928D01*
X183635152Y-104965163D01*
X183639362Y-104955000D01*
X183644000Y-104955000D01*
X183644000Y-111682000D01*
X190701200Y-111682000D01*
X190701200Y-111203200D01*
X190677800Y-111203200D01*
X190676382Y-111202611D01*
X190675800Y-111201191D01*
X190701190Y-105767609D01*
X185318409Y-105792301D01*
X185316989Y-105791718D01*
X185316400Y-105790301D01*
X185316400Y-105765600D01*
X185316986Y-105764186D01*
X185318400Y-105763600D01*
X190701200Y-105763600D01*
X190701200Y-104955000D01*
X183644000Y-104955000D01*
X183639362Y-104955000D01*
X183640152Y-104953092D01*
X183641185Y-104952185D01*
X183642092Y-104951152D01*
X183654163Y-104946152D01*
X183654928Y-104946000D01*
X190690272Y-104946000D01*
X190691037Y-104946152D01*
G37*
G36*
X110743251Y-111303889D02*
G01*
X110743436Y-111305765D01*
X110741978Y-111306962D01*
X110700075Y-111315295D01*
X110700074Y-111418700D01*
X110741992Y-111427038D01*
X110743450Y-111428235D01*
X110743265Y-111430111D01*
X110741602Y-111431000D01*
X109429402Y-111431000D01*
X109427739Y-111430111D01*
X109427554Y-111428235D01*
X109429012Y-111427038D01*
X109470924Y-111418702D01*
X109470924Y-111315298D01*
X109429014Y-111306962D01*
X109427556Y-111305765D01*
X109427741Y-111303889D01*
X109429404Y-111303000D01*
X110741588Y-111303000D01*
X110743251Y-111303889D01*
G37*
G36*
X80818251Y-111303889D02*
G01*
X80818436Y-111305765D01*
X80816978Y-111306962D01*
X80775075Y-111315295D01*
X80775074Y-111418700D01*
X80816992Y-111427038D01*
X80818450Y-111428235D01*
X80818265Y-111430111D01*
X80816602Y-111431000D01*
X79504402Y-111431000D01*
X79502739Y-111430111D01*
X79502554Y-111428235D01*
X79504012Y-111427038D01*
X79545924Y-111418702D01*
X79545924Y-111315298D01*
X79504014Y-111306962D01*
X79502556Y-111305765D01*
X79502741Y-111303889D01*
X79504404Y-111303000D01*
X80816588Y-111303000D01*
X80818251Y-111303889D01*
G37*
G36*
X110743251Y-110803889D02*
G01*
X110743436Y-110805765D01*
X110741978Y-110806962D01*
X110700075Y-110815295D01*
X110700074Y-110918700D01*
X110741992Y-110927038D01*
X110743450Y-110928235D01*
X110743265Y-110930111D01*
X110741602Y-110931000D01*
X109429402Y-110931000D01*
X109427739Y-110930111D01*
X109427554Y-110928235D01*
X109429012Y-110927038D01*
X109470924Y-110918702D01*
X109470924Y-110815298D01*
X109429014Y-110806962D01*
X109427556Y-110805765D01*
X109427741Y-110803889D01*
X109429404Y-110803000D01*
X110741588Y-110803000D01*
X110743251Y-110803889D01*
G37*
G36*
X80818251Y-110803889D02*
G01*
X80818436Y-110805765D01*
X80816978Y-110806962D01*
X80775075Y-110815295D01*
X80775074Y-110918700D01*
X80816992Y-110927038D01*
X80818450Y-110928235D01*
X80818265Y-110930111D01*
X80816602Y-110931000D01*
X79504402Y-110931000D01*
X79502739Y-110930111D01*
X79502554Y-110928235D01*
X79504012Y-110927038D01*
X79545924Y-110918702D01*
X79545924Y-110815298D01*
X79504014Y-110806962D01*
X79502556Y-110805765D01*
X79502741Y-110803889D01*
X79504404Y-110803000D01*
X80816588Y-110803000D01*
X80818251Y-110803889D01*
G37*
G36*
X110743251Y-110303889D02*
G01*
X110743436Y-110305765D01*
X110741978Y-110306962D01*
X110700075Y-110315295D01*
X110700074Y-110418700D01*
X110741992Y-110427038D01*
X110743450Y-110428235D01*
X110743265Y-110430111D01*
X110741602Y-110431000D01*
X109429402Y-110431000D01*
X109427739Y-110430111D01*
X109427554Y-110428235D01*
X109429012Y-110427038D01*
X109470924Y-110418702D01*
X109470924Y-110315298D01*
X109429014Y-110306962D01*
X109427556Y-110305765D01*
X109427741Y-110303889D01*
X109429404Y-110303000D01*
X110741588Y-110303000D01*
X110743251Y-110303889D01*
G37*
G36*
X80818251Y-110303889D02*
G01*
X80818436Y-110305765D01*
X80816978Y-110306962D01*
X80775075Y-110315295D01*
X80775074Y-110418700D01*
X80816992Y-110427038D01*
X80818450Y-110428235D01*
X80818265Y-110430111D01*
X80816602Y-110431000D01*
X79504402Y-110431000D01*
X79502739Y-110430111D01*
X79502554Y-110428235D01*
X79504012Y-110427038D01*
X79545924Y-110418702D01*
X79545924Y-110315298D01*
X79504014Y-110306962D01*
X79502556Y-110305765D01*
X79502741Y-110303889D01*
X79504404Y-110303000D01*
X80816588Y-110303000D01*
X80818251Y-110303889D01*
G37*
G36*
X110743251Y-109803889D02*
G01*
X110743436Y-109805765D01*
X110741978Y-109806962D01*
X110700075Y-109815295D01*
X110700074Y-109918700D01*
X110741992Y-109927038D01*
X110743450Y-109928235D01*
X110743265Y-109930111D01*
X110741602Y-109931000D01*
X109429402Y-109931000D01*
X109427739Y-109930111D01*
X109427554Y-109928235D01*
X109429012Y-109927038D01*
X109470924Y-109918702D01*
X109470924Y-109815298D01*
X109429014Y-109806962D01*
X109427556Y-109805765D01*
X109427741Y-109803889D01*
X109429404Y-109803000D01*
X110741588Y-109803000D01*
X110743251Y-109803889D01*
G37*
G36*
X80818251Y-109803889D02*
G01*
X80818436Y-109805765D01*
X80816978Y-109806962D01*
X80775075Y-109815295D01*
X80775074Y-109918700D01*
X80816992Y-109927038D01*
X80818450Y-109928235D01*
X80818265Y-109930111D01*
X80816602Y-109931000D01*
X79504402Y-109931000D01*
X79502739Y-109930111D01*
X79502554Y-109928235D01*
X79504012Y-109927038D01*
X79545924Y-109918702D01*
X79545924Y-109815298D01*
X79504014Y-109806962D01*
X79502556Y-109805765D01*
X79502741Y-109803889D01*
X79504404Y-109803000D01*
X80816588Y-109803000D01*
X80818251Y-109803889D01*
G37*
G36*
X110743251Y-109303889D02*
G01*
X110743436Y-109305765D01*
X110741978Y-109306962D01*
X110700075Y-109315295D01*
X110700074Y-109418700D01*
X110741992Y-109427038D01*
X110743450Y-109428235D01*
X110743265Y-109430111D01*
X110741602Y-109431000D01*
X109429402Y-109431000D01*
X109427739Y-109430111D01*
X109427554Y-109428235D01*
X109429012Y-109427038D01*
X109470924Y-109418702D01*
X109470924Y-109315298D01*
X109429014Y-109306962D01*
X109427556Y-109305765D01*
X109427741Y-109303889D01*
X109429404Y-109303000D01*
X110741588Y-109303000D01*
X110743251Y-109303889D01*
G37*
G36*
X80818251Y-109303889D02*
G01*
X80818436Y-109305765D01*
X80816978Y-109306962D01*
X80775075Y-109315295D01*
X80775074Y-109418700D01*
X80816992Y-109427038D01*
X80818450Y-109428235D01*
X80818265Y-109430111D01*
X80816602Y-109431000D01*
X79504402Y-109431000D01*
X79502739Y-109430111D01*
X79502554Y-109428235D01*
X79504012Y-109427038D01*
X79545924Y-109418702D01*
X79545924Y-109315298D01*
X79504014Y-109306962D01*
X79502556Y-109305765D01*
X79502741Y-109303889D01*
X79504404Y-109303000D01*
X80816588Y-109303000D01*
X80818251Y-109303889D01*
G37*
G36*
X110743251Y-108803889D02*
G01*
X110743436Y-108805765D01*
X110741978Y-108806962D01*
X110700075Y-108815295D01*
X110700074Y-108918700D01*
X110741992Y-108927038D01*
X110743450Y-108928235D01*
X110743265Y-108930111D01*
X110741602Y-108931000D01*
X109429402Y-108931000D01*
X109427739Y-108930111D01*
X109427554Y-108928235D01*
X109429012Y-108927038D01*
X109470924Y-108918702D01*
X109470924Y-108815298D01*
X109429014Y-108806962D01*
X109427556Y-108805765D01*
X109427741Y-108803889D01*
X109429404Y-108803000D01*
X110741588Y-108803000D01*
X110743251Y-108803889D01*
G37*
G36*
X80818251Y-108803889D02*
G01*
X80818436Y-108805765D01*
X80816978Y-108806962D01*
X80775075Y-108815295D01*
X80775074Y-108918700D01*
X80816992Y-108927038D01*
X80818450Y-108928235D01*
X80818265Y-108930111D01*
X80816602Y-108931000D01*
X79504402Y-108931000D01*
X79502739Y-108930111D01*
X79502554Y-108928235D01*
X79504012Y-108927038D01*
X79545924Y-108918702D01*
X79545924Y-108815298D01*
X79504014Y-108806962D01*
X79502556Y-108805765D01*
X79502741Y-108803889D01*
X79504404Y-108803000D01*
X80816588Y-108803000D01*
X80818251Y-108803889D01*
G37*
G36*
X110743251Y-108303889D02*
G01*
X110743436Y-108305765D01*
X110741978Y-108306962D01*
X110700075Y-108315295D01*
X110700074Y-108418700D01*
X110741992Y-108427038D01*
X110743450Y-108428235D01*
X110743265Y-108430111D01*
X110741602Y-108431000D01*
X109429402Y-108431000D01*
X109427739Y-108430111D01*
X109427554Y-108428235D01*
X109429012Y-108427038D01*
X109470924Y-108418702D01*
X109470924Y-108315298D01*
X109429014Y-108306962D01*
X109427556Y-108305765D01*
X109427741Y-108303889D01*
X109429404Y-108303000D01*
X110741588Y-108303000D01*
X110743251Y-108303889D01*
G37*
G36*
X80818251Y-108303889D02*
G01*
X80818436Y-108305765D01*
X80816978Y-108306962D01*
X80775075Y-108315295D01*
X80775074Y-108418700D01*
X80816992Y-108427038D01*
X80818450Y-108428235D01*
X80818265Y-108430111D01*
X80816602Y-108431000D01*
X79504402Y-108431000D01*
X79502739Y-108430111D01*
X79502554Y-108428235D01*
X79504012Y-108427038D01*
X79545924Y-108418702D01*
X79545924Y-108315298D01*
X79504014Y-108306962D01*
X79502556Y-108305765D01*
X79502741Y-108303889D01*
X79504404Y-108303000D01*
X80816588Y-108303000D01*
X80818251Y-108303889D01*
G37*
G36*
X110743251Y-107803889D02*
G01*
X110743436Y-107805765D01*
X110741978Y-107806962D01*
X110700075Y-107815295D01*
X110700074Y-107918700D01*
X110741992Y-107927038D01*
X110743450Y-107928235D01*
X110743265Y-107930111D01*
X110741602Y-107931000D01*
X109429402Y-107931000D01*
X109427739Y-107930111D01*
X109427554Y-107928235D01*
X109429012Y-107927038D01*
X109470924Y-107918702D01*
X109470924Y-107815298D01*
X109429014Y-107806962D01*
X109427556Y-107805765D01*
X109427741Y-107803889D01*
X109429404Y-107803000D01*
X110741588Y-107803000D01*
X110743251Y-107803889D01*
G37*
G36*
X80818251Y-107803889D02*
G01*
X80818436Y-107805765D01*
X80816978Y-107806962D01*
X80775075Y-107815295D01*
X80775074Y-107918700D01*
X80816992Y-107927038D01*
X80818450Y-107928235D01*
X80818265Y-107930111D01*
X80816602Y-107931000D01*
X79504402Y-107931000D01*
X79502739Y-107930111D01*
X79502554Y-107928235D01*
X79504012Y-107927038D01*
X79545924Y-107918702D01*
X79545924Y-107815298D01*
X79504014Y-107806962D01*
X79502556Y-107805765D01*
X79502741Y-107803889D01*
X79504404Y-107803000D01*
X80816588Y-107803000D01*
X80818251Y-107803889D01*
G37*
G36*
X110743251Y-107303889D02*
G01*
X110743436Y-107305765D01*
X110741978Y-107306962D01*
X110700075Y-107315295D01*
X110700074Y-107418700D01*
X110741992Y-107427038D01*
X110743450Y-107428235D01*
X110743265Y-107430111D01*
X110741602Y-107431000D01*
X109429402Y-107431000D01*
X109427739Y-107430111D01*
X109427554Y-107428235D01*
X109429012Y-107427038D01*
X109470924Y-107418702D01*
X109470924Y-107315298D01*
X109429014Y-107306962D01*
X109427556Y-107305765D01*
X109427741Y-107303889D01*
X109429404Y-107303000D01*
X110741588Y-107303000D01*
X110743251Y-107303889D01*
G37*
G36*
X80818251Y-107303889D02*
G01*
X80818436Y-107305765D01*
X80816978Y-107306962D01*
X80775075Y-107315295D01*
X80775074Y-107418700D01*
X80816992Y-107427038D01*
X80818450Y-107428235D01*
X80818265Y-107430111D01*
X80816602Y-107431000D01*
X79504402Y-107431000D01*
X79502739Y-107430111D01*
X79502554Y-107428235D01*
X79504012Y-107427038D01*
X79545924Y-107418702D01*
X79545924Y-107315298D01*
X79504014Y-107306962D01*
X79502556Y-107305765D01*
X79502741Y-107303889D01*
X79504404Y-107303000D01*
X80816588Y-107303000D01*
X80818251Y-107303889D01*
G37*
G36*
X110743251Y-106803889D02*
G01*
X110743436Y-106805765D01*
X110741978Y-106806962D01*
X110700075Y-106815295D01*
X110700074Y-106918700D01*
X110741992Y-106927038D01*
X110743450Y-106928235D01*
X110743265Y-106930111D01*
X110741602Y-106931000D01*
X109429402Y-106931000D01*
X109427739Y-106930111D01*
X109427554Y-106928235D01*
X109429012Y-106927038D01*
X109470924Y-106918702D01*
X109470924Y-106815298D01*
X109429014Y-106806962D01*
X109427556Y-106805765D01*
X109427741Y-106803889D01*
X109429404Y-106803000D01*
X110741588Y-106803000D01*
X110743251Y-106803889D01*
G37*
G36*
X80818251Y-106803889D02*
G01*
X80818436Y-106805765D01*
X80816978Y-106806962D01*
X80775075Y-106815295D01*
X80775074Y-106918700D01*
X80816992Y-106927038D01*
X80818450Y-106928235D01*
X80818265Y-106930111D01*
X80816602Y-106931000D01*
X79504402Y-106931000D01*
X79502739Y-106930111D01*
X79502554Y-106928235D01*
X79504012Y-106927038D01*
X79545924Y-106918702D01*
X79545924Y-106815298D01*
X79504014Y-106806962D01*
X79502556Y-106805765D01*
X79502741Y-106803889D01*
X79504404Y-106803000D01*
X80816588Y-106803000D01*
X80818251Y-106803889D01*
G37*
G36*
X110743251Y-106303889D02*
G01*
X110743436Y-106305765D01*
X110741978Y-106306962D01*
X110700075Y-106315295D01*
X110700074Y-106418700D01*
X110741992Y-106427038D01*
X110743450Y-106428235D01*
X110743265Y-106430111D01*
X110741602Y-106431000D01*
X109429402Y-106431000D01*
X109427739Y-106430111D01*
X109427554Y-106428235D01*
X109429012Y-106427038D01*
X109470924Y-106418702D01*
X109470924Y-106315298D01*
X109429014Y-106306962D01*
X109427556Y-106305765D01*
X109427741Y-106303889D01*
X109429404Y-106303000D01*
X110741588Y-106303000D01*
X110743251Y-106303889D01*
G37*
G36*
X80818251Y-106303889D02*
G01*
X80818436Y-106305765D01*
X80816978Y-106306962D01*
X80775075Y-106315295D01*
X80775074Y-106418700D01*
X80816992Y-106427038D01*
X80818450Y-106428235D01*
X80818265Y-106430111D01*
X80816602Y-106431000D01*
X79504402Y-106431000D01*
X79502739Y-106430111D01*
X79502554Y-106428235D01*
X79504012Y-106427038D01*
X79545924Y-106418702D01*
X79545924Y-106315298D01*
X79504014Y-106306962D01*
X79502556Y-106305765D01*
X79502741Y-106303889D01*
X79504404Y-106303000D01*
X80816588Y-106303000D01*
X80818251Y-106303889D01*
G37*
G36*
X110743251Y-105803889D02*
G01*
X110743436Y-105805765D01*
X110741978Y-105806962D01*
X110700075Y-105815295D01*
X110700074Y-105918700D01*
X110741992Y-105927038D01*
X110743450Y-105928235D01*
X110743265Y-105930111D01*
X110741602Y-105931000D01*
X109429402Y-105931000D01*
X109427739Y-105930111D01*
X109427554Y-105928235D01*
X109429012Y-105927038D01*
X109470924Y-105918702D01*
X109470924Y-105815298D01*
X109429014Y-105806962D01*
X109427556Y-105805765D01*
X109427741Y-105803889D01*
X109429404Y-105803000D01*
X110741588Y-105803000D01*
X110743251Y-105803889D01*
G37*
G36*
X80818251Y-105803889D02*
G01*
X80818436Y-105805765D01*
X80816978Y-105806962D01*
X80775075Y-105815295D01*
X80775074Y-105918700D01*
X80816992Y-105927038D01*
X80818450Y-105928235D01*
X80818265Y-105930111D01*
X80816602Y-105931000D01*
X79504402Y-105931000D01*
X79502739Y-105930111D01*
X79502554Y-105928235D01*
X79504012Y-105927038D01*
X79545924Y-105918702D01*
X79545924Y-105815298D01*
X79504014Y-105806962D01*
X79502556Y-105805765D01*
X79502741Y-105803889D01*
X79504404Y-105803000D01*
X80816588Y-105803000D01*
X80818251Y-105803889D01*
G37*
G36*
X110743251Y-105303889D02*
G01*
X110743436Y-105305765D01*
X110741978Y-105306962D01*
X110700075Y-105315295D01*
X110700074Y-105418700D01*
X110741992Y-105427038D01*
X110743450Y-105428235D01*
X110743265Y-105430111D01*
X110741602Y-105431000D01*
X109429402Y-105431000D01*
X109427739Y-105430111D01*
X109427554Y-105428235D01*
X109429012Y-105427038D01*
X109470924Y-105418702D01*
X109470924Y-105315298D01*
X109429014Y-105306962D01*
X109427556Y-105305765D01*
X109427741Y-105303889D01*
X109429404Y-105303000D01*
X110741588Y-105303000D01*
X110743251Y-105303889D01*
G37*
G36*
X80818251Y-105303889D02*
G01*
X80818436Y-105305765D01*
X80816978Y-105306962D01*
X80775075Y-105315295D01*
X80775074Y-105418700D01*
X80816992Y-105427038D01*
X80818450Y-105428235D01*
X80818265Y-105430111D01*
X80816602Y-105431000D01*
X79504402Y-105431000D01*
X79502739Y-105430111D01*
X79502554Y-105428235D01*
X79504012Y-105427038D01*
X79545924Y-105418702D01*
X79545924Y-105315298D01*
X79504014Y-105306962D01*
X79502556Y-105305765D01*
X79502741Y-105303889D01*
X79504404Y-105303000D01*
X80816588Y-105303000D01*
X80818251Y-105303889D01*
G37*
G36*
X110743251Y-104803889D02*
G01*
X110743436Y-104805765D01*
X110741978Y-104806962D01*
X110700075Y-104815295D01*
X110700074Y-104918700D01*
X110741992Y-104927038D01*
X110743450Y-104928235D01*
X110743265Y-104930111D01*
X110741602Y-104931000D01*
X109429402Y-104931000D01*
X109427739Y-104930111D01*
X109427554Y-104928235D01*
X109429012Y-104927038D01*
X109470924Y-104918702D01*
X109470924Y-104815298D01*
X109429014Y-104806962D01*
X109427556Y-104805765D01*
X109427741Y-104803889D01*
X109429404Y-104803000D01*
X110741588Y-104803000D01*
X110743251Y-104803889D01*
G37*
G36*
X80818251Y-104803889D02*
G01*
X80818436Y-104805765D01*
X80816978Y-104806962D01*
X80775075Y-104815295D01*
X80775074Y-104918700D01*
X80816992Y-104927038D01*
X80818450Y-104928235D01*
X80818265Y-104930111D01*
X80816602Y-104931000D01*
X79504402Y-104931000D01*
X79502739Y-104930111D01*
X79502554Y-104928235D01*
X79504012Y-104927038D01*
X79545924Y-104918702D01*
X79545924Y-104815298D01*
X79504014Y-104806962D01*
X79502556Y-104805765D01*
X79502741Y-104803889D01*
X79504404Y-104803000D01*
X80816588Y-104803000D01*
X80818251Y-104803889D01*
G37*
G36*
X110743251Y-104303889D02*
G01*
X110743436Y-104305765D01*
X110741978Y-104306962D01*
X110700075Y-104315295D01*
X110700074Y-104418700D01*
X110741992Y-104427038D01*
X110743450Y-104428235D01*
X110743265Y-104430111D01*
X110741602Y-104431000D01*
X109429402Y-104431000D01*
X109427739Y-104430111D01*
X109427554Y-104428235D01*
X109429012Y-104427038D01*
X109470924Y-104418702D01*
X109470924Y-104315298D01*
X109429014Y-104306962D01*
X109427556Y-104305765D01*
X109427741Y-104303889D01*
X109429404Y-104303000D01*
X110741588Y-104303000D01*
X110743251Y-104303889D01*
G37*
G36*
X80818251Y-104303889D02*
G01*
X80818436Y-104305765D01*
X80816978Y-104306962D01*
X80775075Y-104315295D01*
X80775074Y-104418700D01*
X80816992Y-104427038D01*
X80818450Y-104428235D01*
X80818265Y-104430111D01*
X80816602Y-104431000D01*
X79504402Y-104431000D01*
X79502739Y-104430111D01*
X79502554Y-104428235D01*
X79504012Y-104427038D01*
X79545924Y-104418702D01*
X79545924Y-104315298D01*
X79504014Y-104306962D01*
X79502556Y-104305765D01*
X79502741Y-104303889D01*
X79504404Y-104303000D01*
X80816588Y-104303000D01*
X80818251Y-104303889D01*
G37*
G36*
X110743251Y-103803889D02*
G01*
X110743436Y-103805765D01*
X110741978Y-103806962D01*
X110700075Y-103815295D01*
X110700074Y-103918700D01*
X110741992Y-103927038D01*
X110743450Y-103928235D01*
X110743265Y-103930111D01*
X110741602Y-103931000D01*
X109429402Y-103931000D01*
X109427739Y-103930111D01*
X109427554Y-103928235D01*
X109429012Y-103927038D01*
X109470924Y-103918702D01*
X109470924Y-103815298D01*
X109429014Y-103806962D01*
X109427556Y-103805765D01*
X109427741Y-103803889D01*
X109429404Y-103803000D01*
X110741588Y-103803000D01*
X110743251Y-103803889D01*
G37*
G36*
X80818251Y-103803889D02*
G01*
X80818436Y-103805765D01*
X80816978Y-103806962D01*
X80775075Y-103815295D01*
X80775074Y-103918700D01*
X80816992Y-103927038D01*
X80818450Y-103928235D01*
X80818265Y-103930111D01*
X80816602Y-103931000D01*
X79504402Y-103931000D01*
X79502739Y-103930111D01*
X79502554Y-103928235D01*
X79504012Y-103927038D01*
X79545924Y-103918702D01*
X79545924Y-103815298D01*
X79504014Y-103806962D01*
X79502556Y-103805765D01*
X79502741Y-103803889D01*
X79504404Y-103803000D01*
X80816588Y-103803000D01*
X80818251Y-103803889D01*
G37*
G36*
X110743251Y-103303889D02*
G01*
X110743436Y-103305765D01*
X110741978Y-103306962D01*
X110700075Y-103315295D01*
X110700074Y-103418700D01*
X110741992Y-103427038D01*
X110743450Y-103428235D01*
X110743265Y-103430111D01*
X110741602Y-103431000D01*
X109429402Y-103431000D01*
X109427739Y-103430111D01*
X109427554Y-103428235D01*
X109429012Y-103427038D01*
X109470924Y-103418702D01*
X109470924Y-103315298D01*
X109429014Y-103306962D01*
X109427556Y-103305765D01*
X109427741Y-103303889D01*
X109429404Y-103303000D01*
X110741588Y-103303000D01*
X110743251Y-103303889D01*
G37*
G36*
X80818251Y-103303889D02*
G01*
X80818436Y-103305765D01*
X80816978Y-103306962D01*
X80775075Y-103315295D01*
X80775074Y-103418700D01*
X80816992Y-103427038D01*
X80818450Y-103428235D01*
X80818265Y-103430111D01*
X80816602Y-103431000D01*
X79504402Y-103431000D01*
X79502739Y-103430111D01*
X79502554Y-103428235D01*
X79504012Y-103427038D01*
X79545924Y-103418702D01*
X79545924Y-103315298D01*
X79504014Y-103306962D01*
X79502556Y-103305765D01*
X79502741Y-103303889D01*
X79504404Y-103303000D01*
X80816588Y-103303000D01*
X80818251Y-103303889D01*
G37*
G36*
X110743251Y-102803889D02*
G01*
X110743436Y-102805765D01*
X110741978Y-102806962D01*
X110700075Y-102815295D01*
X110700074Y-102918700D01*
X110741992Y-102927038D01*
X110743450Y-102928235D01*
X110743265Y-102930111D01*
X110741602Y-102931000D01*
X109429402Y-102931000D01*
X109427739Y-102930111D01*
X109427554Y-102928235D01*
X109429012Y-102927038D01*
X109470924Y-102918702D01*
X109470924Y-102815298D01*
X109429014Y-102806962D01*
X109427556Y-102805765D01*
X109427741Y-102803889D01*
X109429404Y-102803000D01*
X110741588Y-102803000D01*
X110743251Y-102803889D01*
G37*
G36*
X80818251Y-102803889D02*
G01*
X80818436Y-102805765D01*
X80816978Y-102806962D01*
X80775075Y-102815295D01*
X80775074Y-102918700D01*
X80816992Y-102927038D01*
X80818450Y-102928235D01*
X80818265Y-102930111D01*
X80816602Y-102931000D01*
X79504402Y-102931000D01*
X79502739Y-102930111D01*
X79502554Y-102928235D01*
X79504012Y-102927038D01*
X79545924Y-102918702D01*
X79545924Y-102815298D01*
X79504014Y-102806962D01*
X79502556Y-102805765D01*
X79502741Y-102803889D01*
X79504404Y-102803000D01*
X80816588Y-102803000D01*
X80818251Y-102803889D01*
G37*
G36*
X107686111Y-99746734D02*
G01*
X107687000Y-99748397D01*
X107687000Y-101060597D01*
X107686111Y-101062260D01*
X107684235Y-101062445D01*
X107683038Y-101060987D01*
X107674702Y-101019075D01*
X107571298Y-101019075D01*
X107562962Y-101060985D01*
X107561765Y-101062443D01*
X107559889Y-101062258D01*
X107559000Y-101060595D01*
X107559000Y-99748409D01*
X107559889Y-99746746D01*
X107561765Y-99746561D01*
X107562962Y-99748019D01*
X107571295Y-99789923D01*
X107674700Y-99789924D01*
X107683038Y-99748007D01*
X107684235Y-99746549D01*
X107686111Y-99746734D01*
G37*
G36*
X107186111Y-99746734D02*
G01*
X107187000Y-99748397D01*
X107187000Y-101060597D01*
X107186111Y-101062260D01*
X107184235Y-101062445D01*
X107183038Y-101060987D01*
X107174702Y-101019075D01*
X107071298Y-101019075D01*
X107062962Y-101060985D01*
X107061765Y-101062443D01*
X107059889Y-101062258D01*
X107059000Y-101060595D01*
X107059000Y-99748409D01*
X107059889Y-99746746D01*
X107061765Y-99746561D01*
X107062962Y-99748019D01*
X107071295Y-99789923D01*
X107174700Y-99789924D01*
X107183038Y-99748007D01*
X107184235Y-99746549D01*
X107186111Y-99746734D01*
G37*
G36*
X106686111Y-99746734D02*
G01*
X106687000Y-99748397D01*
X106687000Y-101060597D01*
X106686111Y-101062260D01*
X106684235Y-101062445D01*
X106683038Y-101060987D01*
X106674702Y-101019075D01*
X106571298Y-101019075D01*
X106562962Y-101060985D01*
X106561765Y-101062443D01*
X106559889Y-101062258D01*
X106559000Y-101060595D01*
X106559000Y-99748409D01*
X106559889Y-99746746D01*
X106561765Y-99746561D01*
X106562962Y-99748019D01*
X106571295Y-99789923D01*
X106674700Y-99789924D01*
X106683038Y-99748007D01*
X106684235Y-99746549D01*
X106686111Y-99746734D01*
G37*
G36*
X106186111Y-99746734D02*
G01*
X106187000Y-99748397D01*
X106187000Y-101060597D01*
X106186111Y-101062260D01*
X106184235Y-101062445D01*
X106183038Y-101060987D01*
X106174702Y-101019075D01*
X106071298Y-101019075D01*
X106062962Y-101060985D01*
X106061765Y-101062443D01*
X106059889Y-101062258D01*
X106059000Y-101060595D01*
X106059000Y-99748409D01*
X106059889Y-99746746D01*
X106061765Y-99746561D01*
X106062962Y-99748019D01*
X106071295Y-99789923D01*
X106174700Y-99789924D01*
X106183038Y-99748007D01*
X106184235Y-99746549D01*
X106186111Y-99746734D01*
G37*
G36*
X105686111Y-99746734D02*
G01*
X105687000Y-99748397D01*
X105687000Y-101060597D01*
X105686111Y-101062260D01*
X105684235Y-101062445D01*
X105683038Y-101060987D01*
X105674702Y-101019075D01*
X105571298Y-101019075D01*
X105562962Y-101060985D01*
X105561765Y-101062443D01*
X105559889Y-101062258D01*
X105559000Y-101060595D01*
X105559000Y-99748409D01*
X105559889Y-99746746D01*
X105561765Y-99746561D01*
X105562962Y-99748019D01*
X105571295Y-99789923D01*
X105674700Y-99789924D01*
X105683038Y-99748007D01*
X105684235Y-99746549D01*
X105686111Y-99746734D01*
G37*
G36*
X105186111Y-99746734D02*
G01*
X105187000Y-99748397D01*
X105187000Y-101060597D01*
X105186111Y-101062260D01*
X105184235Y-101062445D01*
X105183038Y-101060987D01*
X105174702Y-101019075D01*
X105071298Y-101019075D01*
X105062962Y-101060985D01*
X105061765Y-101062443D01*
X105059889Y-101062258D01*
X105059000Y-101060595D01*
X105059000Y-99748409D01*
X105059889Y-99746746D01*
X105061765Y-99746561D01*
X105062962Y-99748019D01*
X105071295Y-99789923D01*
X105174700Y-99789924D01*
X105183038Y-99748007D01*
X105184235Y-99746549D01*
X105186111Y-99746734D01*
G37*
G36*
X104686111Y-99746734D02*
G01*
X104687000Y-99748397D01*
X104687000Y-101060597D01*
X104686111Y-101062260D01*
X104684235Y-101062445D01*
X104683038Y-101060987D01*
X104674702Y-101019075D01*
X104571298Y-101019075D01*
X104562962Y-101060985D01*
X104561765Y-101062443D01*
X104559889Y-101062258D01*
X104559000Y-101060595D01*
X104559000Y-99748409D01*
X104559889Y-99746746D01*
X104561765Y-99746561D01*
X104562962Y-99748019D01*
X104571295Y-99789923D01*
X104674700Y-99789924D01*
X104683038Y-99748007D01*
X104684235Y-99746549D01*
X104686111Y-99746734D01*
G37*
G36*
X104186111Y-99746734D02*
G01*
X104187000Y-99748397D01*
X104187000Y-101060597D01*
X104186111Y-101062260D01*
X104184235Y-101062445D01*
X104183038Y-101060987D01*
X104174702Y-101019075D01*
X104071298Y-101019075D01*
X104062962Y-101060985D01*
X104061765Y-101062443D01*
X104059889Y-101062258D01*
X104059000Y-101060595D01*
X104059000Y-99748409D01*
X104059889Y-99746746D01*
X104061765Y-99746561D01*
X104062962Y-99748019D01*
X104071295Y-99789923D01*
X104174700Y-99789924D01*
X104183038Y-99748007D01*
X104184235Y-99746549D01*
X104186111Y-99746734D01*
G37*
G36*
X103686111Y-99746734D02*
G01*
X103687000Y-99748397D01*
X103687000Y-101060597D01*
X103686111Y-101062260D01*
X103684235Y-101062445D01*
X103683038Y-101060987D01*
X103674702Y-101019075D01*
X103571298Y-101019075D01*
X103562962Y-101060985D01*
X103561765Y-101062443D01*
X103559889Y-101062258D01*
X103559000Y-101060595D01*
X103559000Y-99748409D01*
X103559889Y-99746746D01*
X103561765Y-99746561D01*
X103562962Y-99748019D01*
X103571295Y-99789923D01*
X103674700Y-99789924D01*
X103683038Y-99748007D01*
X103684235Y-99746549D01*
X103686111Y-99746734D01*
G37*
G36*
X103186111Y-99746734D02*
G01*
X103187000Y-99748397D01*
X103187000Y-101060597D01*
X103186111Y-101062260D01*
X103184235Y-101062445D01*
X103183038Y-101060987D01*
X103174702Y-101019075D01*
X103071298Y-101019075D01*
X103062962Y-101060985D01*
X103061765Y-101062443D01*
X103059889Y-101062258D01*
X103059000Y-101060595D01*
X103059000Y-99748409D01*
X103059889Y-99746746D01*
X103061765Y-99746561D01*
X103062962Y-99748019D01*
X103071295Y-99789923D01*
X103174700Y-99789924D01*
X103183038Y-99748007D01*
X103184235Y-99746549D01*
X103186111Y-99746734D01*
G37*
G36*
X102686111Y-99746734D02*
G01*
X102687000Y-99748397D01*
X102687000Y-101060597D01*
X102686111Y-101062260D01*
X102684235Y-101062445D01*
X102683038Y-101060987D01*
X102674702Y-101019075D01*
X102571298Y-101019075D01*
X102562962Y-101060985D01*
X102561765Y-101062443D01*
X102559889Y-101062258D01*
X102559000Y-101060595D01*
X102559000Y-99748409D01*
X102559889Y-99746746D01*
X102561765Y-99746561D01*
X102562962Y-99748019D01*
X102571295Y-99789923D01*
X102674700Y-99789924D01*
X102683038Y-99748007D01*
X102684235Y-99746549D01*
X102686111Y-99746734D01*
G37*
G36*
X102186111Y-99746734D02*
G01*
X102187000Y-99748397D01*
X102187000Y-101060597D01*
X102186111Y-101062260D01*
X102184235Y-101062445D01*
X102183038Y-101060987D01*
X102174702Y-101019075D01*
X102071298Y-101019075D01*
X102062962Y-101060985D01*
X102061765Y-101062443D01*
X102059889Y-101062258D01*
X102059000Y-101060595D01*
X102059000Y-99748409D01*
X102059889Y-99746746D01*
X102061765Y-99746561D01*
X102062962Y-99748019D01*
X102071295Y-99789923D01*
X102174700Y-99789924D01*
X102183038Y-99748007D01*
X102184235Y-99746549D01*
X102186111Y-99746734D01*
G37*
G36*
X101686111Y-99746734D02*
G01*
X101687000Y-99748397D01*
X101687000Y-101060597D01*
X101686111Y-101062260D01*
X101684235Y-101062445D01*
X101683038Y-101060987D01*
X101674702Y-101019075D01*
X101571298Y-101019075D01*
X101562962Y-101060985D01*
X101561765Y-101062443D01*
X101559889Y-101062258D01*
X101559000Y-101060595D01*
X101559000Y-99748409D01*
X101559889Y-99746746D01*
X101561765Y-99746561D01*
X101562962Y-99748019D01*
X101571295Y-99789923D01*
X101674700Y-99789924D01*
X101683038Y-99748007D01*
X101684235Y-99746549D01*
X101686111Y-99746734D01*
G37*
G36*
X101186111Y-99746734D02*
G01*
X101187000Y-99748397D01*
X101187000Y-101060597D01*
X101186111Y-101062260D01*
X101184235Y-101062445D01*
X101183038Y-101060987D01*
X101174702Y-101019075D01*
X101071298Y-101019075D01*
X101062962Y-101060985D01*
X101061765Y-101062443D01*
X101059889Y-101062258D01*
X101059000Y-101060595D01*
X101059000Y-99748409D01*
X101059889Y-99746746D01*
X101061765Y-99746561D01*
X101062962Y-99748019D01*
X101071295Y-99789923D01*
X101174700Y-99789924D01*
X101183038Y-99748007D01*
X101184235Y-99746549D01*
X101186111Y-99746734D01*
G37*
G36*
X100686111Y-99746734D02*
G01*
X100687000Y-99748397D01*
X100687000Y-101060597D01*
X100686111Y-101062260D01*
X100684235Y-101062445D01*
X100683038Y-101060987D01*
X100674702Y-101019075D01*
X100571298Y-101019075D01*
X100562962Y-101060985D01*
X100561765Y-101062443D01*
X100559889Y-101062258D01*
X100559000Y-101060595D01*
X100559000Y-99748409D01*
X100559889Y-99746746D01*
X100561765Y-99746561D01*
X100562962Y-99748019D01*
X100571295Y-99789923D01*
X100674700Y-99789924D01*
X100683038Y-99748007D01*
X100684235Y-99746549D01*
X100686111Y-99746734D01*
G37*
G36*
X100186111Y-99746734D02*
G01*
X100187000Y-99748397D01*
X100187000Y-101060597D01*
X100186111Y-101062260D01*
X100184235Y-101062445D01*
X100183038Y-101060987D01*
X100174702Y-101019075D01*
X100071298Y-101019075D01*
X100062962Y-101060985D01*
X100061765Y-101062443D01*
X100059889Y-101062258D01*
X100059000Y-101060595D01*
X100059000Y-99748409D01*
X100059889Y-99746746D01*
X100061765Y-99746561D01*
X100062962Y-99748019D01*
X100071295Y-99789923D01*
X100174700Y-99789924D01*
X100183038Y-99748007D01*
X100184235Y-99746549D01*
X100186111Y-99746734D01*
G37*
G36*
X99686111Y-99746734D02*
G01*
X99687000Y-99748397D01*
X99687000Y-101060597D01*
X99686111Y-101062260D01*
X99684235Y-101062445D01*
X99683038Y-101060987D01*
X99674702Y-101019075D01*
X99571298Y-101019075D01*
X99562962Y-101060985D01*
X99561765Y-101062443D01*
X99559889Y-101062258D01*
X99559000Y-101060595D01*
X99559000Y-99748409D01*
X99559889Y-99746746D01*
X99561765Y-99746561D01*
X99562962Y-99748019D01*
X99571295Y-99789923D01*
X99674700Y-99789924D01*
X99683038Y-99748007D01*
X99684235Y-99746549D01*
X99686111Y-99746734D01*
G37*
G36*
X99186111Y-99746734D02*
G01*
X99187000Y-99748397D01*
X99187000Y-101060597D01*
X99186111Y-101062260D01*
X99184235Y-101062445D01*
X99183038Y-101060987D01*
X99174702Y-101019075D01*
X99071298Y-101019075D01*
X99062962Y-101060985D01*
X99061765Y-101062443D01*
X99059889Y-101062258D01*
X99059000Y-101060595D01*
X99059000Y-99748409D01*
X99059889Y-99746746D01*
X99061765Y-99746561D01*
X99062962Y-99748019D01*
X99071295Y-99789923D01*
X99174700Y-99789924D01*
X99183038Y-99748007D01*
X99184235Y-99746549D01*
X99186111Y-99746734D01*
G37*
G36*
X98686111Y-99746734D02*
G01*
X98687000Y-99748397D01*
X98687000Y-101060597D01*
X98686111Y-101062260D01*
X98684235Y-101062445D01*
X98683038Y-101060987D01*
X98674702Y-101019075D01*
X98571298Y-101019075D01*
X98562962Y-101060985D01*
X98561765Y-101062443D01*
X98559889Y-101062258D01*
X98559000Y-101060595D01*
X98559000Y-99748409D01*
X98559889Y-99746746D01*
X98561765Y-99746561D01*
X98562962Y-99748019D01*
X98571295Y-99789923D01*
X98674700Y-99789924D01*
X98683038Y-99748007D01*
X98684235Y-99746549D01*
X98686111Y-99746734D01*
G37*
G36*
X98186111Y-99746734D02*
G01*
X98187000Y-99748397D01*
X98187000Y-101060597D01*
X98186111Y-101062260D01*
X98184235Y-101062445D01*
X98183038Y-101060987D01*
X98174702Y-101019075D01*
X98071298Y-101019075D01*
X98062962Y-101060985D01*
X98061765Y-101062443D01*
X98059889Y-101062258D01*
X98059000Y-101060595D01*
X98059000Y-99748409D01*
X98059889Y-99746746D01*
X98061765Y-99746561D01*
X98062962Y-99748019D01*
X98071295Y-99789923D01*
X98174700Y-99789924D01*
X98183038Y-99748007D01*
X98184235Y-99746549D01*
X98186111Y-99746734D01*
G37*
G36*
X97686111Y-99746734D02*
G01*
X97687000Y-99748397D01*
X97687000Y-101060597D01*
X97686111Y-101062260D01*
X97684235Y-101062445D01*
X97683038Y-101060987D01*
X97674702Y-101019075D01*
X97571298Y-101019075D01*
X97562962Y-101060985D01*
X97561765Y-101062443D01*
X97559889Y-101062258D01*
X97559000Y-101060595D01*
X97559000Y-99748409D01*
X97559889Y-99746746D01*
X97561765Y-99746561D01*
X97562962Y-99748019D01*
X97571295Y-99789923D01*
X97674700Y-99789924D01*
X97683038Y-99748007D01*
X97684235Y-99746549D01*
X97686111Y-99746734D01*
G37*
G36*
X97186111Y-99746734D02*
G01*
X97187000Y-99748397D01*
X97187000Y-101060597D01*
X97186111Y-101062260D01*
X97184235Y-101062445D01*
X97183038Y-101060987D01*
X97174702Y-101019075D01*
X97071298Y-101019075D01*
X97062962Y-101060985D01*
X97061765Y-101062443D01*
X97059889Y-101062258D01*
X97059000Y-101060595D01*
X97059000Y-99748409D01*
X97059889Y-99746746D01*
X97061765Y-99746561D01*
X97062962Y-99748019D01*
X97071295Y-99789923D01*
X97174700Y-99789924D01*
X97183038Y-99748007D01*
X97184235Y-99746549D01*
X97186111Y-99746734D01*
G37*
G36*
X96686111Y-99746734D02*
G01*
X96687000Y-99748397D01*
X96687000Y-101060597D01*
X96686111Y-101062260D01*
X96684235Y-101062445D01*
X96683038Y-101060987D01*
X96674702Y-101019075D01*
X96571298Y-101019075D01*
X96562962Y-101060985D01*
X96561765Y-101062443D01*
X96559889Y-101062258D01*
X96559000Y-101060595D01*
X96559000Y-99748409D01*
X96559889Y-99746746D01*
X96561765Y-99746561D01*
X96562962Y-99748019D01*
X96571295Y-99789923D01*
X96674700Y-99789924D01*
X96683038Y-99748007D01*
X96684235Y-99746549D01*
X96686111Y-99746734D01*
G37*
G36*
X96186111Y-99746734D02*
G01*
X96187000Y-99748397D01*
X96187000Y-101060597D01*
X96186111Y-101062260D01*
X96184235Y-101062445D01*
X96183038Y-101060987D01*
X96174702Y-101019075D01*
X96071298Y-101019075D01*
X96062962Y-101060985D01*
X96061765Y-101062443D01*
X96059889Y-101062258D01*
X96059000Y-101060595D01*
X96059000Y-99748409D01*
X96059889Y-99746746D01*
X96061765Y-99746561D01*
X96062962Y-99748019D01*
X96071295Y-99789923D01*
X96174700Y-99789924D01*
X96183038Y-99748007D01*
X96184235Y-99746549D01*
X96186111Y-99746734D01*
G37*
G36*
X95686111Y-99746734D02*
G01*
X95687000Y-99748397D01*
X95687000Y-101060597D01*
X95686111Y-101062260D01*
X95684235Y-101062445D01*
X95683038Y-101060987D01*
X95674702Y-101019075D01*
X95571298Y-101019075D01*
X95562962Y-101060985D01*
X95561765Y-101062443D01*
X95559889Y-101062258D01*
X95559000Y-101060595D01*
X95559000Y-99748409D01*
X95559889Y-99746746D01*
X95561765Y-99746561D01*
X95562962Y-99748019D01*
X95571295Y-99789923D01*
X95674700Y-99789924D01*
X95683038Y-99748007D01*
X95684235Y-99746549D01*
X95686111Y-99746734D01*
G37*
G36*
X95186111Y-99746734D02*
G01*
X95187000Y-99748397D01*
X95187000Y-101060597D01*
X95186111Y-101062260D01*
X95184235Y-101062445D01*
X95183038Y-101060987D01*
X95174702Y-101019075D01*
X95071298Y-101019075D01*
X95062962Y-101060985D01*
X95061765Y-101062443D01*
X95059889Y-101062258D01*
X95059000Y-101060595D01*
X95059000Y-99748409D01*
X95059889Y-99746746D01*
X95061765Y-99746561D01*
X95062962Y-99748019D01*
X95071295Y-99789923D01*
X95174700Y-99789924D01*
X95183038Y-99748007D01*
X95184235Y-99746549D01*
X95186111Y-99746734D01*
G37*
G36*
X94686111Y-99746734D02*
G01*
X94687000Y-99748397D01*
X94687000Y-101060597D01*
X94686111Y-101062260D01*
X94684235Y-101062445D01*
X94683038Y-101060987D01*
X94674702Y-101019075D01*
X94571298Y-101019075D01*
X94562962Y-101060985D01*
X94561765Y-101062443D01*
X94559889Y-101062258D01*
X94559000Y-101060595D01*
X94559000Y-99748409D01*
X94559889Y-99746746D01*
X94561765Y-99746561D01*
X94562962Y-99748019D01*
X94571295Y-99789923D01*
X94674700Y-99789924D01*
X94683038Y-99748007D01*
X94684235Y-99746549D01*
X94686111Y-99746734D01*
G37*
G36*
X94186111Y-99746734D02*
G01*
X94187000Y-99748397D01*
X94187000Y-101060597D01*
X94186111Y-101062260D01*
X94184235Y-101062445D01*
X94183038Y-101060987D01*
X94174702Y-101019075D01*
X94071298Y-101019075D01*
X94062962Y-101060985D01*
X94061765Y-101062443D01*
X94059889Y-101062258D01*
X94059000Y-101060595D01*
X94059000Y-99748409D01*
X94059889Y-99746746D01*
X94061765Y-99746561D01*
X94062962Y-99748019D01*
X94071295Y-99789923D01*
X94174700Y-99789924D01*
X94183038Y-99748007D01*
X94184235Y-99746549D01*
X94186111Y-99746734D01*
G37*
G36*
X93686111Y-99746734D02*
G01*
X93687000Y-99748397D01*
X93687000Y-101060597D01*
X93686111Y-101062260D01*
X93684235Y-101062445D01*
X93683038Y-101060987D01*
X93674702Y-101019075D01*
X93571298Y-101019075D01*
X93562962Y-101060985D01*
X93561765Y-101062443D01*
X93559889Y-101062258D01*
X93559000Y-101060595D01*
X93559000Y-99748409D01*
X93559889Y-99746746D01*
X93561765Y-99746561D01*
X93562962Y-99748019D01*
X93571295Y-99789923D01*
X93674700Y-99789924D01*
X93683038Y-99748007D01*
X93684235Y-99746549D01*
X93686111Y-99746734D01*
G37*
G36*
X93186111Y-99746734D02*
G01*
X93187000Y-99748397D01*
X93187000Y-101060597D01*
X93186111Y-101062260D01*
X93184235Y-101062445D01*
X93183038Y-101060987D01*
X93174702Y-101019075D01*
X93071298Y-101019075D01*
X93062962Y-101060985D01*
X93061765Y-101062443D01*
X93059889Y-101062258D01*
X93059000Y-101060595D01*
X93059000Y-99748409D01*
X93059889Y-99746746D01*
X93061765Y-99746561D01*
X93062962Y-99748019D01*
X93071295Y-99789923D01*
X93174700Y-99789924D01*
X93183038Y-99748007D01*
X93184235Y-99746549D01*
X93186111Y-99746734D01*
G37*
G36*
X92686111Y-99746734D02*
G01*
X92687000Y-99748397D01*
X92687000Y-101060597D01*
X92686111Y-101062260D01*
X92684235Y-101062445D01*
X92683038Y-101060987D01*
X92674702Y-101019075D01*
X92571298Y-101019075D01*
X92562962Y-101060985D01*
X92561765Y-101062443D01*
X92559889Y-101062258D01*
X92559000Y-101060595D01*
X92559000Y-99748409D01*
X92559889Y-99746746D01*
X92561765Y-99746561D01*
X92562962Y-99748019D01*
X92571295Y-99789923D01*
X92674700Y-99789924D01*
X92683038Y-99748007D01*
X92684235Y-99746549D01*
X92686111Y-99746734D01*
G37*
G36*
X92186111Y-99746734D02*
G01*
X92187000Y-99748397D01*
X92187000Y-101060597D01*
X92186111Y-101062260D01*
X92184235Y-101062445D01*
X92183038Y-101060987D01*
X92174702Y-101019075D01*
X92071298Y-101019075D01*
X92062962Y-101060985D01*
X92061765Y-101062443D01*
X92059889Y-101062258D01*
X92059000Y-101060595D01*
X92059000Y-99748409D01*
X92059889Y-99746746D01*
X92061765Y-99746561D01*
X92062962Y-99748019D01*
X92071295Y-99789923D01*
X92174700Y-99789924D01*
X92183038Y-99748007D01*
X92184235Y-99746549D01*
X92186111Y-99746734D01*
G37*
G36*
X91686111Y-99746734D02*
G01*
X91687000Y-99748397D01*
X91687000Y-101060597D01*
X91686111Y-101062260D01*
X91684235Y-101062445D01*
X91683038Y-101060987D01*
X91674702Y-101019075D01*
X91571298Y-101019075D01*
X91562962Y-101060985D01*
X91561765Y-101062443D01*
X91559889Y-101062258D01*
X91559000Y-101060595D01*
X91559000Y-99748409D01*
X91559889Y-99746746D01*
X91561765Y-99746561D01*
X91562962Y-99748019D01*
X91571295Y-99789923D01*
X91674700Y-99789924D01*
X91683038Y-99748007D01*
X91684235Y-99746549D01*
X91686111Y-99746734D01*
G37*
G36*
X91186111Y-99746734D02*
G01*
X91187000Y-99748397D01*
X91187000Y-101060597D01*
X91186111Y-101062260D01*
X91184235Y-101062445D01*
X91183038Y-101060987D01*
X91174702Y-101019075D01*
X91071298Y-101019075D01*
X91062962Y-101060985D01*
X91061765Y-101062443D01*
X91059889Y-101062258D01*
X91059000Y-101060595D01*
X91059000Y-99748409D01*
X91059889Y-99746746D01*
X91061765Y-99746561D01*
X91062962Y-99748019D01*
X91071295Y-99789923D01*
X91174700Y-99789924D01*
X91183038Y-99748007D01*
X91184235Y-99746549D01*
X91186111Y-99746734D01*
G37*
G36*
X90686111Y-99746734D02*
G01*
X90687000Y-99748397D01*
X90687000Y-101060597D01*
X90686111Y-101062260D01*
X90684235Y-101062445D01*
X90683038Y-101060987D01*
X90674702Y-101019075D01*
X90571298Y-101019075D01*
X90562962Y-101060985D01*
X90561765Y-101062443D01*
X90559889Y-101062258D01*
X90559000Y-101060595D01*
X90559000Y-99748409D01*
X90559889Y-99746746D01*
X90561765Y-99746561D01*
X90562962Y-99748019D01*
X90571295Y-99789923D01*
X90674700Y-99789924D01*
X90683038Y-99748007D01*
X90684235Y-99746549D01*
X90686111Y-99746734D01*
G37*
G36*
X90186111Y-99746734D02*
G01*
X90187000Y-99748397D01*
X90187000Y-101060597D01*
X90186111Y-101062260D01*
X90184235Y-101062445D01*
X90183038Y-101060987D01*
X90174702Y-101019075D01*
X90071298Y-101019075D01*
X90062962Y-101060985D01*
X90061765Y-101062443D01*
X90059889Y-101062258D01*
X90059000Y-101060595D01*
X90059000Y-99748409D01*
X90059889Y-99746746D01*
X90061765Y-99746561D01*
X90062962Y-99748019D01*
X90071295Y-99789923D01*
X90174700Y-99789924D01*
X90183038Y-99748007D01*
X90184235Y-99746549D01*
X90186111Y-99746734D01*
G37*
G36*
X89686111Y-99746734D02*
G01*
X89687000Y-99748397D01*
X89687000Y-101060597D01*
X89686111Y-101062260D01*
X89684235Y-101062445D01*
X89683038Y-101060987D01*
X89674702Y-101019075D01*
X89571298Y-101019075D01*
X89562962Y-101060985D01*
X89561765Y-101062443D01*
X89559889Y-101062258D01*
X89559000Y-101060595D01*
X89559000Y-99748409D01*
X89559889Y-99746746D01*
X89561765Y-99746561D01*
X89562962Y-99748019D01*
X89571295Y-99789923D01*
X89674700Y-99789924D01*
X89683038Y-99748007D01*
X89684235Y-99746549D01*
X89686111Y-99746734D01*
G37*
G36*
X89186111Y-99746734D02*
G01*
X89187000Y-99748397D01*
X89187000Y-101060597D01*
X89186111Y-101062260D01*
X89184235Y-101062445D01*
X89183038Y-101060987D01*
X89174702Y-101019075D01*
X89071298Y-101019075D01*
X89062962Y-101060985D01*
X89061765Y-101062443D01*
X89059889Y-101062258D01*
X89059000Y-101060595D01*
X89059000Y-99748409D01*
X89059889Y-99746746D01*
X89061765Y-99746561D01*
X89062962Y-99748019D01*
X89071295Y-99789923D01*
X89174700Y-99789924D01*
X89183038Y-99748007D01*
X89184235Y-99746549D01*
X89186111Y-99746734D01*
G37*
G36*
X88686111Y-99746734D02*
G01*
X88687000Y-99748397D01*
X88687000Y-101060597D01*
X88686111Y-101062260D01*
X88684235Y-101062445D01*
X88683038Y-101060987D01*
X88674702Y-101019075D01*
X88571298Y-101019075D01*
X88562962Y-101060985D01*
X88561765Y-101062443D01*
X88559889Y-101062258D01*
X88559000Y-101060595D01*
X88559000Y-99748409D01*
X88559889Y-99746746D01*
X88561765Y-99746561D01*
X88562962Y-99748019D01*
X88571295Y-99789923D01*
X88674700Y-99789924D01*
X88683038Y-99748007D01*
X88684235Y-99746549D01*
X88686111Y-99746734D01*
G37*
G36*
X88186111Y-99746734D02*
G01*
X88187000Y-99748397D01*
X88187000Y-101060597D01*
X88186111Y-101062260D01*
X88184235Y-101062445D01*
X88183038Y-101060987D01*
X88174702Y-101019075D01*
X88071298Y-101019075D01*
X88062962Y-101060985D01*
X88061765Y-101062443D01*
X88059889Y-101062258D01*
X88059000Y-101060595D01*
X88059000Y-99748409D01*
X88059889Y-99746746D01*
X88061765Y-99746561D01*
X88062962Y-99748019D01*
X88071295Y-99789923D01*
X88174700Y-99789924D01*
X88183038Y-99748007D01*
X88184235Y-99746549D01*
X88186111Y-99746734D01*
G37*
G36*
X87686111Y-99746734D02*
G01*
X87687000Y-99748397D01*
X87687000Y-101060597D01*
X87686111Y-101062260D01*
X87684235Y-101062445D01*
X87683038Y-101060987D01*
X87674702Y-101019075D01*
X87571298Y-101019075D01*
X87562962Y-101060985D01*
X87561765Y-101062443D01*
X87559889Y-101062258D01*
X87559000Y-101060595D01*
X87559000Y-99748409D01*
X87559889Y-99746746D01*
X87561765Y-99746561D01*
X87562962Y-99748019D01*
X87571295Y-99789923D01*
X87674700Y-99789924D01*
X87683038Y-99748007D01*
X87684235Y-99746549D01*
X87686111Y-99746734D01*
G37*
G36*
X87186111Y-99746734D02*
G01*
X87187000Y-99748397D01*
X87187000Y-101060597D01*
X87186111Y-101062260D01*
X87184235Y-101062445D01*
X87183038Y-101060987D01*
X87174702Y-101019075D01*
X87071298Y-101019075D01*
X87062962Y-101060985D01*
X87061765Y-101062443D01*
X87059889Y-101062258D01*
X87059000Y-101060595D01*
X87059000Y-99748409D01*
X87059889Y-99746746D01*
X87061765Y-99746561D01*
X87062962Y-99748019D01*
X87071295Y-99789923D01*
X87174700Y-99789924D01*
X87183038Y-99748007D01*
X87184235Y-99746549D01*
X87186111Y-99746734D01*
G37*
G36*
X86686111Y-99746734D02*
G01*
X86687000Y-99748397D01*
X86687000Y-101060597D01*
X86686111Y-101062260D01*
X86684235Y-101062445D01*
X86683038Y-101060987D01*
X86674702Y-101019075D01*
X86571298Y-101019075D01*
X86562962Y-101060985D01*
X86561765Y-101062443D01*
X86559889Y-101062258D01*
X86559000Y-101060595D01*
X86559000Y-99748409D01*
X86559889Y-99746746D01*
X86561765Y-99746561D01*
X86562962Y-99748019D01*
X86571295Y-99789923D01*
X86674700Y-99789924D01*
X86683038Y-99748007D01*
X86684235Y-99746549D01*
X86686111Y-99746734D01*
G37*
G36*
X86186111Y-99746734D02*
G01*
X86187000Y-99748397D01*
X86187000Y-101060597D01*
X86186111Y-101062260D01*
X86184235Y-101062445D01*
X86183038Y-101060987D01*
X86174702Y-101019075D01*
X86071298Y-101019075D01*
X86062962Y-101060985D01*
X86061765Y-101062443D01*
X86059889Y-101062258D01*
X86059000Y-101060595D01*
X86059000Y-99748409D01*
X86059889Y-99746746D01*
X86061765Y-99746561D01*
X86062962Y-99748019D01*
X86071295Y-99789923D01*
X86174700Y-99789924D01*
X86183038Y-99748007D01*
X86184235Y-99746549D01*
X86186111Y-99746734D01*
G37*
G36*
X85686111Y-99746734D02*
G01*
X85687000Y-99748397D01*
X85687000Y-101060597D01*
X85686111Y-101062260D01*
X85684235Y-101062445D01*
X85683038Y-101060987D01*
X85674702Y-101019075D01*
X85571298Y-101019075D01*
X85562962Y-101060985D01*
X85561765Y-101062443D01*
X85559889Y-101062258D01*
X85559000Y-101060595D01*
X85559000Y-99748409D01*
X85559889Y-99746746D01*
X85561765Y-99746561D01*
X85562962Y-99748019D01*
X85571295Y-99789923D01*
X85674700Y-99789924D01*
X85683038Y-99748007D01*
X85684235Y-99746549D01*
X85686111Y-99746734D01*
G37*
G36*
X85186111Y-99746734D02*
G01*
X85187000Y-99748397D01*
X85187000Y-101060597D01*
X85186111Y-101062260D01*
X85184235Y-101062445D01*
X85183038Y-101060987D01*
X85174702Y-101019075D01*
X85071298Y-101019075D01*
X85062962Y-101060985D01*
X85061765Y-101062443D01*
X85059889Y-101062258D01*
X85059000Y-101060595D01*
X85059000Y-99748409D01*
X85059889Y-99746746D01*
X85061765Y-99746561D01*
X85062962Y-99748019D01*
X85071295Y-99789923D01*
X85174700Y-99789924D01*
X85183038Y-99748007D01*
X85184235Y-99746549D01*
X85186111Y-99746734D01*
G37*
G36*
X84686111Y-99746734D02*
G01*
X84687000Y-99748397D01*
X84687000Y-101060597D01*
X84686111Y-101062260D01*
X84684235Y-101062445D01*
X84683038Y-101060987D01*
X84674702Y-101019075D01*
X84571298Y-101019075D01*
X84562962Y-101060985D01*
X84561765Y-101062443D01*
X84559889Y-101062258D01*
X84559000Y-101060595D01*
X84559000Y-99748409D01*
X84559889Y-99746746D01*
X84561765Y-99746561D01*
X84562962Y-99748019D01*
X84571295Y-99789923D01*
X84674700Y-99789924D01*
X84683038Y-99748007D01*
X84684235Y-99746549D01*
X84686111Y-99746734D01*
G37*
G36*
X84186111Y-99746734D02*
G01*
X84187000Y-99748397D01*
X84187000Y-101060597D01*
X84186111Y-101062260D01*
X84184235Y-101062445D01*
X84183038Y-101060987D01*
X84174702Y-101019075D01*
X84071298Y-101019075D01*
X84062962Y-101060985D01*
X84061765Y-101062443D01*
X84059889Y-101062258D01*
X84059000Y-101060595D01*
X84059000Y-99748409D01*
X84059889Y-99746746D01*
X84061765Y-99746561D01*
X84062962Y-99748019D01*
X84071295Y-99789923D01*
X84174700Y-99789924D01*
X84183038Y-99748007D01*
X84184235Y-99746549D01*
X84186111Y-99746734D01*
G37*
G36*
X83686111Y-99746734D02*
G01*
X83687000Y-99748397D01*
X83687000Y-101060597D01*
X83686111Y-101062260D01*
X83684235Y-101062445D01*
X83683038Y-101060987D01*
X83674702Y-101019075D01*
X83571298Y-101019075D01*
X83562962Y-101060985D01*
X83561765Y-101062443D01*
X83559889Y-101062258D01*
X83559000Y-101060595D01*
X83559000Y-99748409D01*
X83559889Y-99746746D01*
X83561765Y-99746561D01*
X83562962Y-99748019D01*
X83571295Y-99789923D01*
X83674700Y-99789924D01*
X83683038Y-99748007D01*
X83684235Y-99746549D01*
X83686111Y-99746734D01*
G37*
G36*
X83186111Y-99746734D02*
G01*
X83187000Y-99748397D01*
X83187000Y-101060597D01*
X83186111Y-101062260D01*
X83184235Y-101062445D01*
X83183038Y-101060987D01*
X83174702Y-101019075D01*
X83071298Y-101019075D01*
X83062962Y-101060985D01*
X83061765Y-101062443D01*
X83059889Y-101062258D01*
X83059000Y-101060595D01*
X83059000Y-99748409D01*
X83059889Y-99746746D01*
X83061765Y-99746561D01*
X83062962Y-99748019D01*
X83071295Y-99789923D01*
X83174700Y-99789924D01*
X83183038Y-99748007D01*
X83184235Y-99746549D01*
X83186111Y-99746734D01*
G37*
G36*
X82686111Y-99746734D02*
G01*
X82687000Y-99748397D01*
X82687000Y-101060597D01*
X82686111Y-101062260D01*
X82684235Y-101062445D01*
X82683038Y-101060987D01*
X82674702Y-101019075D01*
X82571298Y-101019075D01*
X82562962Y-101060985D01*
X82561765Y-101062443D01*
X82559889Y-101062258D01*
X82559000Y-101060595D01*
X82559000Y-99748409D01*
X82559889Y-99746746D01*
X82561765Y-99746561D01*
X82562962Y-99748019D01*
X82571295Y-99789923D01*
X82674700Y-99789924D01*
X82683038Y-99748007D01*
X82684235Y-99746549D01*
X82686111Y-99746734D01*
G37*
M02*
