%TF.GenerationSoftware,KiCad,Pcbnew,7.0.1*%
%TF.CreationDate,2023-07-13T14:21:50+03:00*%
%TF.ProjectId,virge-vlb,76697267-652d-4766-9c62-2e6b69636164,rev?*%
%TF.SameCoordinates,Original*%
%TF.FileFunction,Legend,Bot*%
%TF.FilePolarity,Positive*%
%FSLAX46Y46*%
G04 Gerber Fmt 4.6, Leading zero omitted, Abs format (unit mm)*
G04 Created by KiCad (PCBNEW 7.0.1) date 2023-07-13 14:21:50*
%MOMM*%
%LPD*%
G01*
G04 APERTURE LIST*
%ADD10C,0.125000*%
%ADD11C,0.152400*%
%ADD12C,0.101600*%
G04 APERTURE END LIST*
D10*
X270494190Y-134640619D02*
X270494190Y-135354904D01*
X270494190Y-135354904D02*
X270541809Y-135497761D01*
X270541809Y-135497761D02*
X270637047Y-135593000D01*
X270637047Y-135593000D02*
X270779904Y-135640619D01*
X270779904Y-135640619D02*
X270875142Y-135640619D01*
X269541809Y-135640619D02*
X270017999Y-135640619D01*
X270017999Y-135640619D02*
X270017999Y-134640619D01*
X268637047Y-135545380D02*
X268684666Y-135593000D01*
X268684666Y-135593000D02*
X268827523Y-135640619D01*
X268827523Y-135640619D02*
X268922761Y-135640619D01*
X268922761Y-135640619D02*
X269065618Y-135593000D01*
X269065618Y-135593000D02*
X269160856Y-135497761D01*
X269160856Y-135497761D02*
X269208475Y-135402523D01*
X269208475Y-135402523D02*
X269256094Y-135212047D01*
X269256094Y-135212047D02*
X269256094Y-135069190D01*
X269256094Y-135069190D02*
X269208475Y-134878714D01*
X269208475Y-134878714D02*
X269160856Y-134783476D01*
X269160856Y-134783476D02*
X269065618Y-134688238D01*
X269065618Y-134688238D02*
X268922761Y-134640619D01*
X268922761Y-134640619D02*
X268827523Y-134640619D01*
X268827523Y-134640619D02*
X268684666Y-134688238D01*
X268684666Y-134688238D02*
X268637047Y-134735857D01*
X267922761Y-134640619D02*
X267922761Y-135354904D01*
X267922761Y-135354904D02*
X267970380Y-135497761D01*
X267970380Y-135497761D02*
X268065618Y-135593000D01*
X268065618Y-135593000D02*
X268208475Y-135640619D01*
X268208475Y-135640619D02*
X268303713Y-135640619D01*
X266970380Y-135640619D02*
X267446570Y-135640619D01*
X267446570Y-135640619D02*
X267446570Y-134640619D01*
X266065618Y-135545380D02*
X266113237Y-135593000D01*
X266113237Y-135593000D02*
X266256094Y-135640619D01*
X266256094Y-135640619D02*
X266351332Y-135640619D01*
X266351332Y-135640619D02*
X266494189Y-135593000D01*
X266494189Y-135593000D02*
X266589427Y-135497761D01*
X266589427Y-135497761D02*
X266637046Y-135402523D01*
X266637046Y-135402523D02*
X266684665Y-135212047D01*
X266684665Y-135212047D02*
X266684665Y-135069190D01*
X266684665Y-135069190D02*
X266637046Y-134878714D01*
X266637046Y-134878714D02*
X266589427Y-134783476D01*
X266589427Y-134783476D02*
X266494189Y-134688238D01*
X266494189Y-134688238D02*
X266351332Y-134640619D01*
X266351332Y-134640619D02*
X266256094Y-134640619D01*
X266256094Y-134640619D02*
X266113237Y-134688238D01*
X266113237Y-134688238D02*
X266065618Y-134735857D01*
X265351332Y-134640619D02*
X265351332Y-135354904D01*
X265351332Y-135354904D02*
X265398951Y-135497761D01*
X265398951Y-135497761D02*
X265494189Y-135593000D01*
X265494189Y-135593000D02*
X265637046Y-135640619D01*
X265637046Y-135640619D02*
X265732284Y-135640619D01*
X264398951Y-135640619D02*
X264875141Y-135640619D01*
X264875141Y-135640619D02*
X264875141Y-134640619D01*
X263494189Y-135545380D02*
X263541808Y-135593000D01*
X263541808Y-135593000D02*
X263684665Y-135640619D01*
X263684665Y-135640619D02*
X263779903Y-135640619D01*
X263779903Y-135640619D02*
X263922760Y-135593000D01*
X263922760Y-135593000D02*
X264017998Y-135497761D01*
X264017998Y-135497761D02*
X264065617Y-135402523D01*
X264065617Y-135402523D02*
X264113236Y-135212047D01*
X264113236Y-135212047D02*
X264113236Y-135069190D01*
X264113236Y-135069190D02*
X264065617Y-134878714D01*
X264065617Y-134878714D02*
X264017998Y-134783476D01*
X264017998Y-134783476D02*
X263922760Y-134688238D01*
X263922760Y-134688238D02*
X263779903Y-134640619D01*
X263779903Y-134640619D02*
X263684665Y-134640619D01*
X263684665Y-134640619D02*
X263541808Y-134688238D01*
X263541808Y-134688238D02*
X263494189Y-134735857D01*
X262779903Y-134640619D02*
X262779903Y-135354904D01*
X262779903Y-135354904D02*
X262827522Y-135497761D01*
X262827522Y-135497761D02*
X262922760Y-135593000D01*
X262922760Y-135593000D02*
X263065617Y-135640619D01*
X263065617Y-135640619D02*
X263160855Y-135640619D01*
X261827522Y-135640619D02*
X262303712Y-135640619D01*
X262303712Y-135640619D02*
X262303712Y-134640619D01*
X260922760Y-135545380D02*
X260970379Y-135593000D01*
X260970379Y-135593000D02*
X261113236Y-135640619D01*
X261113236Y-135640619D02*
X261208474Y-135640619D01*
X261208474Y-135640619D02*
X261351331Y-135593000D01*
X261351331Y-135593000D02*
X261446569Y-135497761D01*
X261446569Y-135497761D02*
X261494188Y-135402523D01*
X261494188Y-135402523D02*
X261541807Y-135212047D01*
X261541807Y-135212047D02*
X261541807Y-135069190D01*
X261541807Y-135069190D02*
X261494188Y-134878714D01*
X261494188Y-134878714D02*
X261446569Y-134783476D01*
X261446569Y-134783476D02*
X261351331Y-134688238D01*
X261351331Y-134688238D02*
X261208474Y-134640619D01*
X261208474Y-134640619D02*
X261113236Y-134640619D01*
X261113236Y-134640619D02*
X260970379Y-134688238D01*
X260970379Y-134688238D02*
X260922760Y-134735857D01*
D11*
X68913375Y-131254500D02*
X67484625Y-131254500D01*
X71326375Y-130873500D02*
X73231375Y-130873500D01*
X73231375Y-131635500D01*
X71326375Y-131635500D01*
X71326375Y-130873500D01*
X63119000Y-129762250D02*
X63881000Y-129762250D01*
X63881000Y-131667250D01*
X63119000Y-131667250D01*
X63119000Y-129762250D01*
X62484000Y-126904750D02*
X66167000Y-126904750D01*
X66167000Y-131984750D01*
X62484000Y-131984750D01*
X62484000Y-126904750D01*
X72850375Y-128936750D02*
X72850375Y-130365500D01*
X72469375Y-128714500D02*
X73231375Y-128714500D01*
X73231375Y-130619500D01*
X72469375Y-130619500D01*
X72469375Y-128714500D01*
X64801750Y-129127250D02*
X63373000Y-129127250D01*
X68913375Y-130238500D02*
X67484625Y-130238500D01*
X71326375Y-128714500D02*
X72088375Y-128714500D01*
X72088375Y-130619500D01*
X71326375Y-130619500D01*
X71326375Y-128714500D01*
X71707375Y-128936750D02*
X71707375Y-130365500D01*
X67230625Y-128778000D02*
X69135625Y-128778000D01*
X69135625Y-129540000D01*
X67230625Y-129540000D01*
X67230625Y-128778000D01*
X63119000Y-128746250D02*
X65024000Y-128746250D01*
X65024000Y-129508250D01*
X63119000Y-129508250D01*
X63119000Y-128746250D01*
X63500000Y-129984500D02*
X63500000Y-131413250D01*
X64262000Y-129762250D02*
X65024000Y-129762250D01*
X65024000Y-131667250D01*
X64262000Y-131667250D01*
X64262000Y-129762250D01*
X67230625Y-129857500D02*
X69135625Y-129857500D01*
X69135625Y-130619500D01*
X67230625Y-130619500D01*
X67230625Y-129857500D01*
X70612000Y-126936500D02*
X74422000Y-126936500D01*
X74422000Y-132016500D01*
X70612000Y-132016500D01*
X70612000Y-126936500D01*
X66500375Y-126936500D02*
X70310375Y-126936500D01*
X70310375Y-132016500D01*
X66500375Y-132016500D01*
X66500375Y-126936500D01*
X67230625Y-130873500D02*
X69135625Y-130873500D01*
X69135625Y-131635500D01*
X67230625Y-131635500D01*
X67230625Y-130873500D01*
X64643000Y-129984500D02*
X64643000Y-131413250D01*
X73009125Y-131254500D02*
X71580375Y-131254500D01*
X68913375Y-129159000D02*
X67484625Y-129159000D01*
X74739523Y-125575904D02*
X74263333Y-125575904D01*
X74834761Y-125861619D02*
X74501428Y-124861619D01*
X74501428Y-124861619D02*
X74168095Y-125861619D01*
X73406190Y-125861619D02*
X73406190Y-124861619D01*
X73406190Y-125814000D02*
X73501428Y-125861619D01*
X73501428Y-125861619D02*
X73691904Y-125861619D01*
X73691904Y-125861619D02*
X73787142Y-125814000D01*
X73787142Y-125814000D02*
X73834761Y-125766380D01*
X73834761Y-125766380D02*
X73882380Y-125671142D01*
X73882380Y-125671142D02*
X73882380Y-125385428D01*
X73882380Y-125385428D02*
X73834761Y-125290190D01*
X73834761Y-125290190D02*
X73787142Y-125242571D01*
X73787142Y-125242571D02*
X73691904Y-125194952D01*
X73691904Y-125194952D02*
X73501428Y-125194952D01*
X73501428Y-125194952D02*
X73406190Y-125242571D01*
X72501428Y-125861619D02*
X72501428Y-124861619D01*
X72501428Y-125814000D02*
X72596666Y-125861619D01*
X72596666Y-125861619D02*
X72787142Y-125861619D01*
X72787142Y-125861619D02*
X72882380Y-125814000D01*
X72882380Y-125814000D02*
X72929999Y-125766380D01*
X72929999Y-125766380D02*
X72977618Y-125671142D01*
X72977618Y-125671142D02*
X72977618Y-125385428D01*
X72977618Y-125385428D02*
X72929999Y-125290190D01*
X72929999Y-125290190D02*
X72882380Y-125242571D01*
X72882380Y-125242571D02*
X72787142Y-125194952D01*
X72787142Y-125194952D02*
X72596666Y-125194952D01*
X72596666Y-125194952D02*
X72501428Y-125242571D01*
X72025237Y-125861619D02*
X72025237Y-125194952D01*
X72025237Y-125385428D02*
X71977618Y-125290190D01*
X71977618Y-125290190D02*
X71929999Y-125242571D01*
X71929999Y-125242571D02*
X71834761Y-125194952D01*
X71834761Y-125194952D02*
X71739523Y-125194952D01*
X71025237Y-125814000D02*
X71120475Y-125861619D01*
X71120475Y-125861619D02*
X71310951Y-125861619D01*
X71310951Y-125861619D02*
X71406189Y-125814000D01*
X71406189Y-125814000D02*
X71453808Y-125718761D01*
X71453808Y-125718761D02*
X71453808Y-125337809D01*
X71453808Y-125337809D02*
X71406189Y-125242571D01*
X71406189Y-125242571D02*
X71310951Y-125194952D01*
X71310951Y-125194952D02*
X71120475Y-125194952D01*
X71120475Y-125194952D02*
X71025237Y-125242571D01*
X71025237Y-125242571D02*
X70977618Y-125337809D01*
X70977618Y-125337809D02*
X70977618Y-125433047D01*
X70977618Y-125433047D02*
X71453808Y-125528285D01*
X70596665Y-125814000D02*
X70501427Y-125861619D01*
X70501427Y-125861619D02*
X70310951Y-125861619D01*
X70310951Y-125861619D02*
X70215713Y-125814000D01*
X70215713Y-125814000D02*
X70168094Y-125718761D01*
X70168094Y-125718761D02*
X70168094Y-125671142D01*
X70168094Y-125671142D02*
X70215713Y-125575904D01*
X70215713Y-125575904D02*
X70310951Y-125528285D01*
X70310951Y-125528285D02*
X70453808Y-125528285D01*
X70453808Y-125528285D02*
X70549046Y-125480666D01*
X70549046Y-125480666D02*
X70596665Y-125385428D01*
X70596665Y-125385428D02*
X70596665Y-125337809D01*
X70596665Y-125337809D02*
X70549046Y-125242571D01*
X70549046Y-125242571D02*
X70453808Y-125194952D01*
X70453808Y-125194952D02*
X70310951Y-125194952D01*
X70310951Y-125194952D02*
X70215713Y-125242571D01*
X69787141Y-125814000D02*
X69691903Y-125861619D01*
X69691903Y-125861619D02*
X69501427Y-125861619D01*
X69501427Y-125861619D02*
X69406189Y-125814000D01*
X69406189Y-125814000D02*
X69358570Y-125718761D01*
X69358570Y-125718761D02*
X69358570Y-125671142D01*
X69358570Y-125671142D02*
X69406189Y-125575904D01*
X69406189Y-125575904D02*
X69501427Y-125528285D01*
X69501427Y-125528285D02*
X69644284Y-125528285D01*
X69644284Y-125528285D02*
X69739522Y-125480666D01*
X69739522Y-125480666D02*
X69787141Y-125385428D01*
X69787141Y-125385428D02*
X69787141Y-125337809D01*
X69787141Y-125337809D02*
X69739522Y-125242571D01*
X69739522Y-125242571D02*
X69644284Y-125194952D01*
X69644284Y-125194952D02*
X69501427Y-125194952D01*
X69501427Y-125194952D02*
X69406189Y-125242571D01*
X68025236Y-125861619D02*
X68120474Y-125814000D01*
X68120474Y-125814000D02*
X68168093Y-125718761D01*
X68168093Y-125718761D02*
X68168093Y-124861619D01*
X67501426Y-125861619D02*
X67596664Y-125814000D01*
X67596664Y-125814000D02*
X67644283Y-125766380D01*
X67644283Y-125766380D02*
X67691902Y-125671142D01*
X67691902Y-125671142D02*
X67691902Y-125385428D01*
X67691902Y-125385428D02*
X67644283Y-125290190D01*
X67644283Y-125290190D02*
X67596664Y-125242571D01*
X67596664Y-125242571D02*
X67501426Y-125194952D01*
X67501426Y-125194952D02*
X67358569Y-125194952D01*
X67358569Y-125194952D02*
X67263331Y-125242571D01*
X67263331Y-125242571D02*
X67215712Y-125290190D01*
X67215712Y-125290190D02*
X67168093Y-125385428D01*
X67168093Y-125385428D02*
X67168093Y-125671142D01*
X67168093Y-125671142D02*
X67215712Y-125766380D01*
X67215712Y-125766380D02*
X67263331Y-125814000D01*
X67263331Y-125814000D02*
X67358569Y-125861619D01*
X67358569Y-125861619D02*
X67501426Y-125861619D01*
X66310950Y-125814000D02*
X66406188Y-125861619D01*
X66406188Y-125861619D02*
X66596664Y-125861619D01*
X66596664Y-125861619D02*
X66691902Y-125814000D01*
X66691902Y-125814000D02*
X66739521Y-125766380D01*
X66739521Y-125766380D02*
X66787140Y-125671142D01*
X66787140Y-125671142D02*
X66787140Y-125385428D01*
X66787140Y-125385428D02*
X66739521Y-125290190D01*
X66739521Y-125290190D02*
X66691902Y-125242571D01*
X66691902Y-125242571D02*
X66596664Y-125194952D01*
X66596664Y-125194952D02*
X66406188Y-125194952D01*
X66406188Y-125194952D02*
X66310950Y-125242571D01*
X65453807Y-125861619D02*
X65453807Y-125337809D01*
X65453807Y-125337809D02*
X65501426Y-125242571D01*
X65501426Y-125242571D02*
X65596664Y-125194952D01*
X65596664Y-125194952D02*
X65787140Y-125194952D01*
X65787140Y-125194952D02*
X65882378Y-125242571D01*
X65453807Y-125814000D02*
X65549045Y-125861619D01*
X65549045Y-125861619D02*
X65787140Y-125861619D01*
X65787140Y-125861619D02*
X65882378Y-125814000D01*
X65882378Y-125814000D02*
X65929997Y-125718761D01*
X65929997Y-125718761D02*
X65929997Y-125623523D01*
X65929997Y-125623523D02*
X65882378Y-125528285D01*
X65882378Y-125528285D02*
X65787140Y-125480666D01*
X65787140Y-125480666D02*
X65549045Y-125480666D01*
X65549045Y-125480666D02*
X65453807Y-125433047D01*
X65120473Y-125194952D02*
X64739521Y-125194952D01*
X64977616Y-124861619D02*
X64977616Y-125718761D01*
X64977616Y-125718761D02*
X64929997Y-125814000D01*
X64929997Y-125814000D02*
X64834759Y-125861619D01*
X64834759Y-125861619D02*
X64739521Y-125861619D01*
X64406187Y-125861619D02*
X64406187Y-125194952D01*
X64406187Y-124861619D02*
X64453806Y-124909238D01*
X64453806Y-124909238D02*
X64406187Y-124956857D01*
X64406187Y-124956857D02*
X64358568Y-124909238D01*
X64358568Y-124909238D02*
X64406187Y-124861619D01*
X64406187Y-124861619D02*
X64406187Y-124956857D01*
X63787140Y-125861619D02*
X63882378Y-125814000D01*
X63882378Y-125814000D02*
X63929997Y-125766380D01*
X63929997Y-125766380D02*
X63977616Y-125671142D01*
X63977616Y-125671142D02*
X63977616Y-125385428D01*
X63977616Y-125385428D02*
X63929997Y-125290190D01*
X63929997Y-125290190D02*
X63882378Y-125242571D01*
X63882378Y-125242571D02*
X63787140Y-125194952D01*
X63787140Y-125194952D02*
X63644283Y-125194952D01*
X63644283Y-125194952D02*
X63549045Y-125242571D01*
X63549045Y-125242571D02*
X63501426Y-125290190D01*
X63501426Y-125290190D02*
X63453807Y-125385428D01*
X63453807Y-125385428D02*
X63453807Y-125671142D01*
X63453807Y-125671142D02*
X63501426Y-125766380D01*
X63501426Y-125766380D02*
X63549045Y-125814000D01*
X63549045Y-125814000D02*
X63644283Y-125861619D01*
X63644283Y-125861619D02*
X63787140Y-125861619D01*
X63025235Y-125194952D02*
X63025235Y-125861619D01*
X63025235Y-125290190D02*
X62977616Y-125242571D01*
X62977616Y-125242571D02*
X62882378Y-125194952D01*
X62882378Y-125194952D02*
X62739521Y-125194952D01*
X62739521Y-125194952D02*
X62644283Y-125242571D01*
X62644283Y-125242571D02*
X62596664Y-125337809D01*
X62596664Y-125337809D02*
X62596664Y-125861619D01*
X62120473Y-125766380D02*
X62072854Y-125814000D01*
X62072854Y-125814000D02*
X62120473Y-125861619D01*
X62120473Y-125861619D02*
X62168092Y-125814000D01*
X62168092Y-125814000D02*
X62120473Y-125766380D01*
X62120473Y-125766380D02*
X62120473Y-125861619D01*
X62120473Y-125242571D02*
X62072854Y-125290190D01*
X62072854Y-125290190D02*
X62120473Y-125337809D01*
X62120473Y-125337809D02*
X62168092Y-125290190D01*
X62168092Y-125290190D02*
X62120473Y-125242571D01*
X62120473Y-125242571D02*
X62120473Y-125337809D01*
D12*
X64928428Y-128401619D02*
X65385571Y-128401619D01*
X65157000Y-128401619D02*
X65032000Y-127401619D01*
X65032000Y-127401619D02*
X65126047Y-127544476D01*
X65126047Y-127544476D02*
X65214142Y-127639714D01*
X65214142Y-127639714D02*
X65296285Y-127687333D01*
X64053428Y-127449238D02*
X64123667Y-127401619D01*
X64123667Y-127401619D02*
X64237952Y-127401619D01*
X64237952Y-127401619D02*
X64358190Y-127449238D01*
X64358190Y-127449238D02*
X64446286Y-127544476D01*
X64446286Y-127544476D02*
X64496286Y-127639714D01*
X64496286Y-127639714D02*
X64558190Y-127830190D01*
X64558190Y-127830190D02*
X64576048Y-127973047D01*
X64576048Y-127973047D02*
X64561762Y-128163523D01*
X64561762Y-128163523D02*
X64535571Y-128258761D01*
X64535571Y-128258761D02*
X64471286Y-128354000D01*
X64471286Y-128354000D02*
X64362952Y-128401619D01*
X64362952Y-128401619D02*
X64286762Y-128401619D01*
X64286762Y-128401619D02*
X64166524Y-128354000D01*
X64166524Y-128354000D02*
X64122476Y-128306380D01*
X64122476Y-128306380D02*
X64080809Y-127973047D01*
X64080809Y-127973047D02*
X64233190Y-127973047D01*
X63465333Y-127877809D02*
X63357000Y-127925428D01*
X63357000Y-127925428D02*
X63324857Y-127973047D01*
X63324857Y-127973047D02*
X63298666Y-128068285D01*
X63298666Y-128068285D02*
X63316523Y-128211142D01*
X63316523Y-128211142D02*
X63366523Y-128306380D01*
X63366523Y-128306380D02*
X63410571Y-128354000D01*
X63410571Y-128354000D02*
X63492714Y-128401619D01*
X63492714Y-128401619D02*
X63797476Y-128401619D01*
X63797476Y-128401619D02*
X63672476Y-127401619D01*
X63672476Y-127401619D02*
X63405809Y-127401619D01*
X63405809Y-127401619D02*
X63335571Y-127449238D01*
X63335571Y-127449238D02*
X63303428Y-127496857D01*
X63303428Y-127496857D02*
X63277238Y-127592095D01*
X63277238Y-127592095D02*
X63289142Y-127687333D01*
X63289142Y-127687333D02*
X63339142Y-127782571D01*
X63339142Y-127782571D02*
X63383190Y-127830190D01*
X63383190Y-127830190D02*
X63465333Y-127877809D01*
X63465333Y-127877809D02*
X63732000Y-127877809D01*
X69403994Y-127401619D02*
X69556375Y-127401619D01*
X69556375Y-127401619D02*
X69638517Y-127449238D01*
X69638517Y-127449238D02*
X69682565Y-127496857D01*
X69682565Y-127496857D02*
X69776613Y-127639714D01*
X69776613Y-127639714D02*
X69838517Y-127830190D01*
X69838517Y-127830190D02*
X69886136Y-128211142D01*
X69886136Y-128211142D02*
X69859946Y-128306380D01*
X69859946Y-128306380D02*
X69827803Y-128354000D01*
X69827803Y-128354000D02*
X69757565Y-128401619D01*
X69757565Y-128401619D02*
X69605184Y-128401619D01*
X69605184Y-128401619D02*
X69523041Y-128354000D01*
X69523041Y-128354000D02*
X69478994Y-128306380D01*
X69478994Y-128306380D02*
X69428994Y-128211142D01*
X69428994Y-128211142D02*
X69399232Y-127973047D01*
X69399232Y-127973047D02*
X69425422Y-127877809D01*
X69425422Y-127877809D02*
X69457565Y-127830190D01*
X69457565Y-127830190D02*
X69527803Y-127782571D01*
X69527803Y-127782571D02*
X69680184Y-127782571D01*
X69680184Y-127782571D02*
X69762327Y-127830190D01*
X69762327Y-127830190D02*
X69806375Y-127877809D01*
X69806375Y-127877809D02*
X69856375Y-127973047D01*
X68689708Y-127734952D02*
X68773042Y-128401619D01*
X68832565Y-127354000D02*
X69112327Y-128068285D01*
X69112327Y-128068285D02*
X68617089Y-128068285D01*
X68359947Y-128401619D02*
X68234947Y-127401619D01*
X68234947Y-127401619D02*
X68057566Y-128115904D01*
X68057566Y-128115904D02*
X67701613Y-127401619D01*
X67701613Y-127401619D02*
X67826613Y-128401619D01*
X67119471Y-127877809D02*
X67011138Y-127925428D01*
X67011138Y-127925428D02*
X66978995Y-127973047D01*
X66978995Y-127973047D02*
X66952804Y-128068285D01*
X66952804Y-128068285D02*
X66970661Y-128211142D01*
X66970661Y-128211142D02*
X67020661Y-128306380D01*
X67020661Y-128306380D02*
X67064709Y-128354000D01*
X67064709Y-128354000D02*
X67146852Y-128401619D01*
X67146852Y-128401619D02*
X67451614Y-128401619D01*
X67451614Y-128401619D02*
X67326614Y-127401619D01*
X67326614Y-127401619D02*
X67059947Y-127401619D01*
X67059947Y-127401619D02*
X66989709Y-127449238D01*
X66989709Y-127449238D02*
X66957566Y-127496857D01*
X66957566Y-127496857D02*
X66931376Y-127592095D01*
X66931376Y-127592095D02*
X66943280Y-127687333D01*
X66943280Y-127687333D02*
X66993280Y-127782571D01*
X66993280Y-127782571D02*
X67037328Y-127830190D01*
X67037328Y-127830190D02*
X67119471Y-127877809D01*
X67119471Y-127877809D02*
X67386138Y-127877809D01*
X238085380Y-78125619D02*
X237990142Y-78125619D01*
X237990142Y-78125619D02*
X237900857Y-78173238D01*
X237900857Y-78173238D02*
X237859190Y-78220857D01*
X237859190Y-78220857D02*
X237823476Y-78316095D01*
X237823476Y-78316095D02*
X237799666Y-78506571D01*
X237799666Y-78506571D02*
X237829428Y-78744666D01*
X237829428Y-78744666D02*
X237900857Y-78935142D01*
X237900857Y-78935142D02*
X237960380Y-79030380D01*
X237960380Y-79030380D02*
X238013952Y-79078000D01*
X238013952Y-79078000D02*
X238115142Y-79125619D01*
X238115142Y-79125619D02*
X238210380Y-79125619D01*
X238210380Y-79125619D02*
X238299666Y-79078000D01*
X238299666Y-79078000D02*
X238341333Y-79030380D01*
X238341333Y-79030380D02*
X238377047Y-78935142D01*
X238377047Y-78935142D02*
X238400857Y-78744666D01*
X238400857Y-78744666D02*
X238371095Y-78506571D01*
X238371095Y-78506571D02*
X238299666Y-78316095D01*
X238299666Y-78316095D02*
X238240142Y-78220857D01*
X238240142Y-78220857D02*
X238186571Y-78173238D01*
X238186571Y-78173238D02*
X238085380Y-78125619D01*
X237549666Y-79125619D02*
X236942523Y-78458952D01*
X237466332Y-78458952D02*
X237025856Y-79125619D01*
X236067523Y-79030380D02*
X236121095Y-79078000D01*
X236121095Y-79078000D02*
X236269904Y-79125619D01*
X236269904Y-79125619D02*
X236365142Y-79125619D01*
X236365142Y-79125619D02*
X236502047Y-79078000D01*
X236502047Y-79078000D02*
X236585380Y-78982761D01*
X236585380Y-78982761D02*
X236621095Y-78887523D01*
X236621095Y-78887523D02*
X236644904Y-78697047D01*
X236644904Y-78697047D02*
X236627047Y-78554190D01*
X236627047Y-78554190D02*
X236555619Y-78363714D01*
X236555619Y-78363714D02*
X236496095Y-78268476D01*
X236496095Y-78268476D02*
X236388952Y-78173238D01*
X236388952Y-78173238D02*
X236240142Y-78125619D01*
X236240142Y-78125619D02*
X236144904Y-78125619D01*
X236144904Y-78125619D02*
X236008000Y-78173238D01*
X236008000Y-78173238D02*
X235966333Y-78220857D01*
X235228237Y-79125619D02*
X235162761Y-78601809D01*
X235162761Y-78601809D02*
X235198475Y-78506571D01*
X235198475Y-78506571D02*
X235287761Y-78458952D01*
X235287761Y-78458952D02*
X235478237Y-78458952D01*
X235478237Y-78458952D02*
X235579428Y-78506571D01*
X235222285Y-79078000D02*
X235323475Y-79125619D01*
X235323475Y-79125619D02*
X235561571Y-79125619D01*
X235561571Y-79125619D02*
X235650856Y-79078000D01*
X235650856Y-79078000D02*
X235686571Y-78982761D01*
X235686571Y-78982761D02*
X235674666Y-78887523D01*
X235674666Y-78887523D02*
X235615142Y-78792285D01*
X235615142Y-78792285D02*
X235513952Y-78744666D01*
X235513952Y-78744666D02*
X235275856Y-78744666D01*
X235275856Y-78744666D02*
X235174666Y-78697047D01*
X234817522Y-78458952D02*
X234436570Y-78458952D01*
X234632999Y-78125619D02*
X234740142Y-78982761D01*
X234740142Y-78982761D02*
X234704427Y-79078000D01*
X234704427Y-79078000D02*
X234615142Y-79125619D01*
X234615142Y-79125619D02*
X234519903Y-79125619D01*
X234234189Y-79078000D02*
X234144904Y-79125619D01*
X234144904Y-79125619D02*
X233954427Y-79125619D01*
X233954427Y-79125619D02*
X233853237Y-79078000D01*
X233853237Y-79078000D02*
X233793713Y-78982761D01*
X233793713Y-78982761D02*
X233787761Y-78935142D01*
X233787761Y-78935142D02*
X233823475Y-78839904D01*
X233823475Y-78839904D02*
X233912761Y-78792285D01*
X233912761Y-78792285D02*
X234055618Y-78792285D01*
X234055618Y-78792285D02*
X234144904Y-78744666D01*
X234144904Y-78744666D02*
X234180618Y-78649428D01*
X234180618Y-78649428D02*
X234174666Y-78601809D01*
X234174666Y-78601809D02*
X234115142Y-78506571D01*
X234115142Y-78506571D02*
X234013951Y-78458952D01*
X234013951Y-78458952D02*
X233871094Y-78458952D01*
X233871094Y-78458952D02*
X233781808Y-78506571D01*
X232388951Y-79506571D02*
X232430618Y-79458952D01*
X232430618Y-79458952D02*
X232507999Y-79316095D01*
X232507999Y-79316095D02*
X232543713Y-79220857D01*
X232543713Y-79220857D02*
X232573475Y-79078000D01*
X232573475Y-79078000D02*
X232591332Y-78839904D01*
X232591332Y-78839904D02*
X232567523Y-78649428D01*
X232567523Y-78649428D02*
X232490142Y-78411333D01*
X232490142Y-78411333D02*
X232424666Y-78268476D01*
X232424666Y-78268476D02*
X232365142Y-78173238D01*
X232365142Y-78173238D02*
X232252047Y-78030380D01*
X232252047Y-78030380D02*
X232198475Y-77982761D01*
X232013952Y-79125619D02*
X231888952Y-78125619D01*
X231888952Y-78125619D02*
X231507999Y-78125619D01*
X231507999Y-78125619D02*
X231418714Y-78173238D01*
X231418714Y-78173238D02*
X231377047Y-78220857D01*
X231377047Y-78220857D02*
X231341333Y-78316095D01*
X231341333Y-78316095D02*
X231359190Y-78458952D01*
X231359190Y-78458952D02*
X231418714Y-78554190D01*
X231418714Y-78554190D02*
X231472285Y-78601809D01*
X231472285Y-78601809D02*
X231573475Y-78649428D01*
X231573475Y-78649428D02*
X231954428Y-78649428D01*
X230436570Y-79030380D02*
X230490142Y-79078000D01*
X230490142Y-79078000D02*
X230638951Y-79125619D01*
X230638951Y-79125619D02*
X230734189Y-79125619D01*
X230734189Y-79125619D02*
X230871094Y-79078000D01*
X230871094Y-79078000D02*
X230954427Y-78982761D01*
X230954427Y-78982761D02*
X230990142Y-78887523D01*
X230990142Y-78887523D02*
X231013951Y-78697047D01*
X231013951Y-78697047D02*
X230996094Y-78554190D01*
X230996094Y-78554190D02*
X230924666Y-78363714D01*
X230924666Y-78363714D02*
X230865142Y-78268476D01*
X230865142Y-78268476D02*
X230757999Y-78173238D01*
X230757999Y-78173238D02*
X230609189Y-78125619D01*
X230609189Y-78125619D02*
X230513951Y-78125619D01*
X230513951Y-78125619D02*
X230377047Y-78173238D01*
X230377047Y-78173238D02*
X230335380Y-78220857D01*
X229627046Y-78601809D02*
X229490141Y-78649428D01*
X229490141Y-78649428D02*
X229448475Y-78697047D01*
X229448475Y-78697047D02*
X229412760Y-78792285D01*
X229412760Y-78792285D02*
X229430618Y-78935142D01*
X229430618Y-78935142D02*
X229490141Y-79030380D01*
X229490141Y-79030380D02*
X229543713Y-79078000D01*
X229543713Y-79078000D02*
X229644903Y-79125619D01*
X229644903Y-79125619D02*
X230025856Y-79125619D01*
X230025856Y-79125619D02*
X229900856Y-78125619D01*
X229900856Y-78125619D02*
X229567522Y-78125619D01*
X229567522Y-78125619D02*
X229478237Y-78173238D01*
X229478237Y-78173238D02*
X229436570Y-78220857D01*
X229436570Y-78220857D02*
X229400856Y-78316095D01*
X229400856Y-78316095D02*
X229412760Y-78411333D01*
X229412760Y-78411333D02*
X229472284Y-78506571D01*
X229472284Y-78506571D02*
X229525856Y-78554190D01*
X229525856Y-78554190D02*
X229627046Y-78601809D01*
X229627046Y-78601809D02*
X229960379Y-78601809D01*
X229174665Y-79506571D02*
X229121093Y-79458952D01*
X229121093Y-79458952D02*
X229007998Y-79316095D01*
X229007998Y-79316095D02*
X228948474Y-79220857D01*
X228948474Y-79220857D02*
X228882998Y-79078000D01*
X228882998Y-79078000D02*
X228805617Y-78839904D01*
X228805617Y-78839904D02*
X228781808Y-78649428D01*
X228781808Y-78649428D02*
X228799665Y-78411333D01*
X228799665Y-78411333D02*
X228829427Y-78268476D01*
X228829427Y-78268476D02*
X228865141Y-78173238D01*
X228865141Y-78173238D02*
X228942522Y-78030380D01*
X228942522Y-78030380D02*
X228984189Y-77982761D01*
X238258000Y-81284619D02*
X238347285Y-81237000D01*
X238347285Y-81237000D02*
X238383000Y-81141761D01*
X238383000Y-81141761D02*
X238275857Y-80284619D01*
X237883000Y-81284619D02*
X237799666Y-80617952D01*
X237758000Y-80284619D02*
X237811571Y-80332238D01*
X237811571Y-80332238D02*
X237769904Y-80379857D01*
X237769904Y-80379857D02*
X237716333Y-80332238D01*
X237716333Y-80332238D02*
X237758000Y-80284619D01*
X237758000Y-80284619D02*
X237769904Y-80379857D01*
X237412762Y-81284619D02*
X237329428Y-80617952D01*
X237341333Y-80713190D02*
X237287762Y-80665571D01*
X237287762Y-80665571D02*
X237186571Y-80617952D01*
X237186571Y-80617952D02*
X237043714Y-80617952D01*
X237043714Y-80617952D02*
X236954428Y-80665571D01*
X236954428Y-80665571D02*
X236918714Y-80760809D01*
X236918714Y-80760809D02*
X236984190Y-81284619D01*
X236918714Y-80760809D02*
X236859190Y-80665571D01*
X236859190Y-80665571D02*
X236758000Y-80617952D01*
X236758000Y-80617952D02*
X236615143Y-80617952D01*
X236615143Y-80617952D02*
X236525857Y-80665571D01*
X236525857Y-80665571D02*
X236490143Y-80760809D01*
X236490143Y-80760809D02*
X236555619Y-81284619D01*
X236127047Y-81237000D02*
X236037762Y-81284619D01*
X236037762Y-81284619D02*
X235847285Y-81284619D01*
X235847285Y-81284619D02*
X235746095Y-81237000D01*
X235746095Y-81237000D02*
X235686571Y-81141761D01*
X235686571Y-81141761D02*
X235680619Y-81094142D01*
X235680619Y-81094142D02*
X235716333Y-80998904D01*
X235716333Y-80998904D02*
X235805619Y-80951285D01*
X235805619Y-80951285D02*
X235948476Y-80951285D01*
X235948476Y-80951285D02*
X236037762Y-80903666D01*
X236037762Y-80903666D02*
X236073476Y-80808428D01*
X236073476Y-80808428D02*
X236067524Y-80760809D01*
X236067524Y-80760809D02*
X236008000Y-80665571D01*
X236008000Y-80665571D02*
X235906809Y-80617952D01*
X235906809Y-80617952D02*
X235763952Y-80617952D01*
X235763952Y-80617952D02*
X235674666Y-80665571D01*
X234769905Y-80617952D02*
X234853238Y-81284619D01*
X235198476Y-80617952D02*
X235263953Y-81141761D01*
X235263953Y-81141761D02*
X235228238Y-81237000D01*
X235228238Y-81237000D02*
X235138953Y-81284619D01*
X235138953Y-81284619D02*
X234996095Y-81284619D01*
X234996095Y-81284619D02*
X234894905Y-81237000D01*
X234894905Y-81237000D02*
X234841333Y-81189380D01*
X234299666Y-80617952D02*
X234424666Y-81617952D01*
X234305619Y-80665571D02*
X234204428Y-80617952D01*
X234204428Y-80617952D02*
X234013952Y-80617952D01*
X234013952Y-80617952D02*
X233924666Y-80665571D01*
X233924666Y-80665571D02*
X233883000Y-80713190D01*
X233883000Y-80713190D02*
X233847285Y-80808428D01*
X233847285Y-80808428D02*
X233883000Y-81094142D01*
X233883000Y-81094142D02*
X233942523Y-81189380D01*
X233942523Y-81189380D02*
X233996095Y-81237000D01*
X233996095Y-81237000D02*
X234097285Y-81284619D01*
X234097285Y-81284619D02*
X234287762Y-81284619D01*
X234287762Y-81284619D02*
X234377047Y-81237000D01*
X232525856Y-81665571D02*
X232567523Y-81617952D01*
X232567523Y-81617952D02*
X232644904Y-81475095D01*
X232644904Y-81475095D02*
X232680618Y-81379857D01*
X232680618Y-81379857D02*
X232710380Y-81237000D01*
X232710380Y-81237000D02*
X232728237Y-80998904D01*
X232728237Y-80998904D02*
X232704428Y-80808428D01*
X232704428Y-80808428D02*
X232627047Y-80570333D01*
X232627047Y-80570333D02*
X232561571Y-80427476D01*
X232561571Y-80427476D02*
X232502047Y-80332238D01*
X232502047Y-80332238D02*
X232388952Y-80189380D01*
X232388952Y-80189380D02*
X232335380Y-80141761D01*
X231722285Y-81284619D02*
X231656809Y-80760809D01*
X231656809Y-80760809D02*
X231692523Y-80665571D01*
X231692523Y-80665571D02*
X231781809Y-80617952D01*
X231781809Y-80617952D02*
X231972285Y-80617952D01*
X231972285Y-80617952D02*
X232073476Y-80665571D01*
X231716333Y-81237000D02*
X231817523Y-81284619D01*
X231817523Y-81284619D02*
X232055619Y-81284619D01*
X232055619Y-81284619D02*
X232144904Y-81237000D01*
X232144904Y-81237000D02*
X232180619Y-81141761D01*
X232180619Y-81141761D02*
X232168714Y-81046523D01*
X232168714Y-81046523D02*
X232109190Y-80951285D01*
X232109190Y-80951285D02*
X232008000Y-80903666D01*
X232008000Y-80903666D02*
X231769904Y-80903666D01*
X231769904Y-80903666D02*
X231668714Y-80856047D01*
X231252047Y-81284619D02*
X231168713Y-80617952D01*
X231192523Y-80808428D02*
X231132999Y-80713190D01*
X231132999Y-80713190D02*
X231079428Y-80665571D01*
X231079428Y-80665571D02*
X230978237Y-80617952D01*
X230978237Y-80617952D02*
X230882999Y-80617952D01*
X230698475Y-80617952D02*
X230317523Y-80617952D01*
X230513952Y-80284619D02*
X230621095Y-81141761D01*
X230621095Y-81141761D02*
X230585380Y-81237000D01*
X230585380Y-81237000D02*
X230496095Y-81284619D01*
X230496095Y-81284619D02*
X230400856Y-81284619D01*
X228882999Y-81284619D02*
X228757999Y-80284619D01*
X228877047Y-81237000D02*
X228978237Y-81284619D01*
X228978237Y-81284619D02*
X229168714Y-81284619D01*
X229168714Y-81284619D02*
X229257999Y-81237000D01*
X229257999Y-81237000D02*
X229299666Y-81189380D01*
X229299666Y-81189380D02*
X229335380Y-81094142D01*
X229335380Y-81094142D02*
X229299666Y-80808428D01*
X229299666Y-80808428D02*
X229240142Y-80713190D01*
X229240142Y-80713190D02*
X229186571Y-80665571D01*
X229186571Y-80665571D02*
X229085380Y-80617952D01*
X229085380Y-80617952D02*
X228894904Y-80617952D01*
X228894904Y-80617952D02*
X228805618Y-80665571D01*
X228025856Y-81237000D02*
X228127046Y-81284619D01*
X228127046Y-81284619D02*
X228317523Y-81284619D01*
X228317523Y-81284619D02*
X228406808Y-81237000D01*
X228406808Y-81237000D02*
X228442523Y-81141761D01*
X228442523Y-81141761D02*
X228394904Y-80760809D01*
X228394904Y-80760809D02*
X228335380Y-80665571D01*
X228335380Y-80665571D02*
X228234189Y-80617952D01*
X228234189Y-80617952D02*
X228043713Y-80617952D01*
X228043713Y-80617952D02*
X227954427Y-80665571D01*
X227954427Y-80665571D02*
X227918713Y-80760809D01*
X227918713Y-80760809D02*
X227930618Y-80856047D01*
X227930618Y-80856047D02*
X228418713Y-80951285D01*
X227603237Y-81237000D02*
X227513952Y-81284619D01*
X227513952Y-81284619D02*
X227323475Y-81284619D01*
X227323475Y-81284619D02*
X227222285Y-81237000D01*
X227222285Y-81237000D02*
X227162761Y-81141761D01*
X227162761Y-81141761D02*
X227156809Y-81094142D01*
X227156809Y-81094142D02*
X227192523Y-80998904D01*
X227192523Y-80998904D02*
X227281809Y-80951285D01*
X227281809Y-80951285D02*
X227424666Y-80951285D01*
X227424666Y-80951285D02*
X227513952Y-80903666D01*
X227513952Y-80903666D02*
X227549666Y-80808428D01*
X227549666Y-80808428D02*
X227543714Y-80760809D01*
X227543714Y-80760809D02*
X227484190Y-80665571D01*
X227484190Y-80665571D02*
X227382999Y-80617952D01*
X227382999Y-80617952D02*
X227240142Y-80617952D01*
X227240142Y-80617952D02*
X227150856Y-80665571D01*
X226758000Y-81284619D02*
X226674666Y-80617952D01*
X226633000Y-80284619D02*
X226686571Y-80332238D01*
X226686571Y-80332238D02*
X226644904Y-80379857D01*
X226644904Y-80379857D02*
X226591333Y-80332238D01*
X226591333Y-80332238D02*
X226633000Y-80284619D01*
X226633000Y-80284619D02*
X226644904Y-80379857D01*
X225775857Y-80617952D02*
X225877047Y-81427476D01*
X225877047Y-81427476D02*
X225936571Y-81522714D01*
X225936571Y-81522714D02*
X225990143Y-81570333D01*
X225990143Y-81570333D02*
X226091333Y-81617952D01*
X226091333Y-81617952D02*
X226234190Y-81617952D01*
X226234190Y-81617952D02*
X226323476Y-81570333D01*
X225853238Y-81237000D02*
X225954428Y-81284619D01*
X225954428Y-81284619D02*
X226144905Y-81284619D01*
X226144905Y-81284619D02*
X226234190Y-81237000D01*
X226234190Y-81237000D02*
X226275857Y-81189380D01*
X226275857Y-81189380D02*
X226311571Y-81094142D01*
X226311571Y-81094142D02*
X226275857Y-80808428D01*
X226275857Y-80808428D02*
X226216333Y-80713190D01*
X226216333Y-80713190D02*
X226162762Y-80665571D01*
X226162762Y-80665571D02*
X226061571Y-80617952D01*
X226061571Y-80617952D02*
X225871095Y-80617952D01*
X225871095Y-80617952D02*
X225781809Y-80665571D01*
X225347285Y-80617952D02*
X225430619Y-81284619D01*
X225359190Y-80713190D02*
X225305619Y-80665571D01*
X225305619Y-80665571D02*
X225204428Y-80617952D01*
X225204428Y-80617952D02*
X225061571Y-80617952D01*
X225061571Y-80617952D02*
X224972285Y-80665571D01*
X224972285Y-80665571D02*
X224936571Y-80760809D01*
X224936571Y-80760809D02*
X225002047Y-81284619D01*
X224674666Y-81665571D02*
X224621094Y-81617952D01*
X224621094Y-81617952D02*
X224507999Y-81475095D01*
X224507999Y-81475095D02*
X224448475Y-81379857D01*
X224448475Y-81379857D02*
X224382999Y-81237000D01*
X224382999Y-81237000D02*
X224305618Y-80998904D01*
X224305618Y-80998904D02*
X224281809Y-80808428D01*
X224281809Y-80808428D02*
X224299666Y-80570333D01*
X224299666Y-80570333D02*
X224329428Y-80427476D01*
X224329428Y-80427476D02*
X224365142Y-80332238D01*
X224365142Y-80332238D02*
X224442523Y-80189380D01*
X224442523Y-80189380D02*
X224484190Y-80141761D01*
X74014041Y-127401619D02*
X73518803Y-127401619D01*
X73518803Y-127401619D02*
X73833089Y-127782571D01*
X73833089Y-127782571D02*
X73718803Y-127782571D01*
X73718803Y-127782571D02*
X73648565Y-127830190D01*
X73648565Y-127830190D02*
X73616422Y-127877809D01*
X73616422Y-127877809D02*
X73590232Y-127973047D01*
X73590232Y-127973047D02*
X73619994Y-128211142D01*
X73619994Y-128211142D02*
X73669994Y-128306380D01*
X73669994Y-128306380D02*
X73714041Y-128354000D01*
X73714041Y-128354000D02*
X73796184Y-128401619D01*
X73796184Y-128401619D02*
X74024755Y-128401619D01*
X74024755Y-128401619D02*
X74094994Y-128354000D01*
X74094994Y-128354000D02*
X74127136Y-128306380D01*
X73231899Y-127496857D02*
X73187851Y-127449238D01*
X73187851Y-127449238D02*
X73105708Y-127401619D01*
X73105708Y-127401619D02*
X72915232Y-127401619D01*
X72915232Y-127401619D02*
X72844994Y-127449238D01*
X72844994Y-127449238D02*
X72812851Y-127496857D01*
X72812851Y-127496857D02*
X72786661Y-127592095D01*
X72786661Y-127592095D02*
X72798565Y-127687333D01*
X72798565Y-127687333D02*
X72854518Y-127830190D01*
X72854518Y-127830190D02*
X73383089Y-128401619D01*
X73383089Y-128401619D02*
X72887851Y-128401619D01*
X72550947Y-128401619D02*
X72425947Y-127401619D01*
X72425947Y-127401619D02*
X72248566Y-128115904D01*
X72248566Y-128115904D02*
X71892613Y-127401619D01*
X71892613Y-127401619D02*
X72017613Y-128401619D01*
X71310471Y-127877809D02*
X71202138Y-127925428D01*
X71202138Y-127925428D02*
X71169995Y-127973047D01*
X71169995Y-127973047D02*
X71143804Y-128068285D01*
X71143804Y-128068285D02*
X71161661Y-128211142D01*
X71161661Y-128211142D02*
X71211661Y-128306380D01*
X71211661Y-128306380D02*
X71255709Y-128354000D01*
X71255709Y-128354000D02*
X71337852Y-128401619D01*
X71337852Y-128401619D02*
X71642614Y-128401619D01*
X71642614Y-128401619D02*
X71517614Y-127401619D01*
X71517614Y-127401619D02*
X71250947Y-127401619D01*
X71250947Y-127401619D02*
X71180709Y-127449238D01*
X71180709Y-127449238D02*
X71148566Y-127496857D01*
X71148566Y-127496857D02*
X71122376Y-127592095D01*
X71122376Y-127592095D02*
X71134280Y-127687333D01*
X71134280Y-127687333D02*
X71184280Y-127782571D01*
X71184280Y-127782571D02*
X71228328Y-127830190D01*
X71228328Y-127830190D02*
X71310471Y-127877809D01*
X71310471Y-127877809D02*
X71577138Y-127877809D01*
D10*
X252793523Y-78951000D02*
X252650666Y-78998619D01*
X252650666Y-78998619D02*
X252412571Y-78998619D01*
X252412571Y-78998619D02*
X252317333Y-78951000D01*
X252317333Y-78951000D02*
X252269714Y-78903380D01*
X252269714Y-78903380D02*
X252222095Y-78808142D01*
X252222095Y-78808142D02*
X252222095Y-78712904D01*
X252222095Y-78712904D02*
X252269714Y-78617666D01*
X252269714Y-78617666D02*
X252317333Y-78570047D01*
X252317333Y-78570047D02*
X252412571Y-78522428D01*
X252412571Y-78522428D02*
X252603047Y-78474809D01*
X252603047Y-78474809D02*
X252698285Y-78427190D01*
X252698285Y-78427190D02*
X252745904Y-78379571D01*
X252745904Y-78379571D02*
X252793523Y-78284333D01*
X252793523Y-78284333D02*
X252793523Y-78189095D01*
X252793523Y-78189095D02*
X252745904Y-78093857D01*
X252745904Y-78093857D02*
X252698285Y-78046238D01*
X252698285Y-78046238D02*
X252603047Y-77998619D01*
X252603047Y-77998619D02*
X252364952Y-77998619D01*
X252364952Y-77998619D02*
X252222095Y-78046238D01*
X251793523Y-78331952D02*
X251793523Y-79331952D01*
X251793523Y-78379571D02*
X251698285Y-78331952D01*
X251698285Y-78331952D02*
X251507809Y-78331952D01*
X251507809Y-78331952D02*
X251412571Y-78379571D01*
X251412571Y-78379571D02*
X251364952Y-78427190D01*
X251364952Y-78427190D02*
X251317333Y-78522428D01*
X251317333Y-78522428D02*
X251317333Y-78808142D01*
X251317333Y-78808142D02*
X251364952Y-78903380D01*
X251364952Y-78903380D02*
X251412571Y-78951000D01*
X251412571Y-78951000D02*
X251507809Y-78998619D01*
X251507809Y-78998619D02*
X251698285Y-78998619D01*
X251698285Y-78998619D02*
X251793523Y-78951000D01*
X250507809Y-78951000D02*
X250603047Y-78998619D01*
X250603047Y-78998619D02*
X250793523Y-78998619D01*
X250793523Y-78998619D02*
X250888761Y-78951000D01*
X250888761Y-78951000D02*
X250936380Y-78855761D01*
X250936380Y-78855761D02*
X250936380Y-78474809D01*
X250936380Y-78474809D02*
X250888761Y-78379571D01*
X250888761Y-78379571D02*
X250793523Y-78331952D01*
X250793523Y-78331952D02*
X250603047Y-78331952D01*
X250603047Y-78331952D02*
X250507809Y-78379571D01*
X250507809Y-78379571D02*
X250460190Y-78474809D01*
X250460190Y-78474809D02*
X250460190Y-78570047D01*
X250460190Y-78570047D02*
X250936380Y-78665285D01*
X249603047Y-78951000D02*
X249698285Y-78998619D01*
X249698285Y-78998619D02*
X249888761Y-78998619D01*
X249888761Y-78998619D02*
X249983999Y-78951000D01*
X249983999Y-78951000D02*
X250031618Y-78903380D01*
X250031618Y-78903380D02*
X250079237Y-78808142D01*
X250079237Y-78808142D02*
X250079237Y-78522428D01*
X250079237Y-78522428D02*
X250031618Y-78427190D01*
X250031618Y-78427190D02*
X249983999Y-78379571D01*
X249983999Y-78379571D02*
X249888761Y-78331952D01*
X249888761Y-78331952D02*
X249698285Y-78331952D01*
X249698285Y-78331952D02*
X249603047Y-78379571D01*
X249174475Y-78998619D02*
X249174475Y-78331952D01*
X249174475Y-77998619D02*
X249222094Y-78046238D01*
X249222094Y-78046238D02*
X249174475Y-78093857D01*
X249174475Y-78093857D02*
X249126856Y-78046238D01*
X249126856Y-78046238D02*
X249174475Y-77998619D01*
X249174475Y-77998619D02*
X249174475Y-78093857D01*
X248269714Y-78998619D02*
X248269714Y-78474809D01*
X248269714Y-78474809D02*
X248317333Y-78379571D01*
X248317333Y-78379571D02*
X248412571Y-78331952D01*
X248412571Y-78331952D02*
X248603047Y-78331952D01*
X248603047Y-78331952D02*
X248698285Y-78379571D01*
X248269714Y-78951000D02*
X248364952Y-78998619D01*
X248364952Y-78998619D02*
X248603047Y-78998619D01*
X248603047Y-78998619D02*
X248698285Y-78951000D01*
X248698285Y-78951000D02*
X248745904Y-78855761D01*
X248745904Y-78855761D02*
X248745904Y-78760523D01*
X248745904Y-78760523D02*
X248698285Y-78665285D01*
X248698285Y-78665285D02*
X248603047Y-78617666D01*
X248603047Y-78617666D02*
X248364952Y-78617666D01*
X248364952Y-78617666D02*
X248269714Y-78570047D01*
X247650666Y-78998619D02*
X247745904Y-78951000D01*
X247745904Y-78951000D02*
X247793523Y-78855761D01*
X247793523Y-78855761D02*
X247793523Y-77998619D01*
X246650665Y-78331952D02*
X246269713Y-78331952D01*
X246507808Y-77998619D02*
X246507808Y-78855761D01*
X246507808Y-78855761D02*
X246460189Y-78951000D01*
X246460189Y-78951000D02*
X246364951Y-78998619D01*
X246364951Y-78998619D02*
X246269713Y-78998619D01*
X245936379Y-78998619D02*
X245936379Y-77998619D01*
X245507808Y-78998619D02*
X245507808Y-78474809D01*
X245507808Y-78474809D02*
X245555427Y-78379571D01*
X245555427Y-78379571D02*
X245650665Y-78331952D01*
X245650665Y-78331952D02*
X245793522Y-78331952D01*
X245793522Y-78331952D02*
X245888760Y-78379571D01*
X245888760Y-78379571D02*
X245936379Y-78427190D01*
X244603046Y-78998619D02*
X244603046Y-78474809D01*
X244603046Y-78474809D02*
X244650665Y-78379571D01*
X244650665Y-78379571D02*
X244745903Y-78331952D01*
X244745903Y-78331952D02*
X244936379Y-78331952D01*
X244936379Y-78331952D02*
X245031617Y-78379571D01*
X244603046Y-78951000D02*
X244698284Y-78998619D01*
X244698284Y-78998619D02*
X244936379Y-78998619D01*
X244936379Y-78998619D02*
X245031617Y-78951000D01*
X245031617Y-78951000D02*
X245079236Y-78855761D01*
X245079236Y-78855761D02*
X245079236Y-78760523D01*
X245079236Y-78760523D02*
X245031617Y-78665285D01*
X245031617Y-78665285D02*
X244936379Y-78617666D01*
X244936379Y-78617666D02*
X244698284Y-78617666D01*
X244698284Y-78617666D02*
X244603046Y-78570047D01*
X244126855Y-78331952D02*
X244126855Y-78998619D01*
X244126855Y-78427190D02*
X244079236Y-78379571D01*
X244079236Y-78379571D02*
X243983998Y-78331952D01*
X243983998Y-78331952D02*
X243841141Y-78331952D01*
X243841141Y-78331952D02*
X243745903Y-78379571D01*
X243745903Y-78379571D02*
X243698284Y-78474809D01*
X243698284Y-78474809D02*
X243698284Y-78998619D01*
X243222093Y-78998619D02*
X243222093Y-77998619D01*
X243126855Y-78617666D02*
X242841141Y-78998619D01*
X242841141Y-78331952D02*
X243222093Y-78712904D01*
X242460188Y-78951000D02*
X242364950Y-78998619D01*
X242364950Y-78998619D02*
X242174474Y-78998619D01*
X242174474Y-78998619D02*
X242079236Y-78951000D01*
X242079236Y-78951000D02*
X242031617Y-78855761D01*
X242031617Y-78855761D02*
X242031617Y-78808142D01*
X242031617Y-78808142D02*
X242079236Y-78712904D01*
X242079236Y-78712904D02*
X242174474Y-78665285D01*
X242174474Y-78665285D02*
X242317331Y-78665285D01*
X242317331Y-78665285D02*
X242412569Y-78617666D01*
X242412569Y-78617666D02*
X242460188Y-78522428D01*
X242460188Y-78522428D02*
X242460188Y-78474809D01*
X242460188Y-78474809D02*
X242412569Y-78379571D01*
X242412569Y-78379571D02*
X242317331Y-78331952D01*
X242317331Y-78331952D02*
X242174474Y-78331952D01*
X242174474Y-78331952D02*
X242079236Y-78379571D01*
X240983997Y-78331952D02*
X240603045Y-78331952D01*
X240841140Y-77998619D02*
X240841140Y-78855761D01*
X240841140Y-78855761D02*
X240793521Y-78951000D01*
X240793521Y-78951000D02*
X240698283Y-78998619D01*
X240698283Y-78998619D02*
X240603045Y-78998619D01*
X240126854Y-78998619D02*
X240222092Y-78951000D01*
X240222092Y-78951000D02*
X240269711Y-78903380D01*
X240269711Y-78903380D02*
X240317330Y-78808142D01*
X240317330Y-78808142D02*
X240317330Y-78522428D01*
X240317330Y-78522428D02*
X240269711Y-78427190D01*
X240269711Y-78427190D02*
X240222092Y-78379571D01*
X240222092Y-78379571D02*
X240126854Y-78331952D01*
X240126854Y-78331952D02*
X239983997Y-78331952D01*
X239983997Y-78331952D02*
X239888759Y-78379571D01*
X239888759Y-78379571D02*
X239841140Y-78427190D01*
X239841140Y-78427190D02*
X239793521Y-78522428D01*
X239793521Y-78522428D02*
X239793521Y-78808142D01*
X239793521Y-78808142D02*
X239841140Y-78903380D01*
X239841140Y-78903380D02*
X239888759Y-78951000D01*
X239888759Y-78951000D02*
X239983997Y-78998619D01*
X239983997Y-78998619D02*
X240126854Y-78998619D01*
X239364949Y-78903380D02*
X239317330Y-78951000D01*
X239317330Y-78951000D02*
X239364949Y-78998619D01*
X239364949Y-78998619D02*
X239412568Y-78951000D01*
X239412568Y-78951000D02*
X239364949Y-78903380D01*
X239364949Y-78903380D02*
X239364949Y-78998619D01*
X239364949Y-78379571D02*
X239317330Y-78427190D01*
X239317330Y-78427190D02*
X239364949Y-78474809D01*
X239364949Y-78474809D02*
X239412568Y-78427190D01*
X239412568Y-78427190D02*
X239364949Y-78379571D01*
X239364949Y-78379571D02*
X239364949Y-78474809D01*
M02*
