%TF.GenerationSoftware,KiCad,Pcbnew,7.0.1*%
%TF.CreationDate,2023-12-26T01:25:44+02:00*%
%TF.ProjectId,virge-vlb,76697267-652d-4766-9c62-2e6b69636164,rev?*%
%TF.SameCoordinates,Original*%
%TF.FileFunction,Soldermask,Top*%
%TF.FilePolarity,Negative*%
%FSLAX46Y46*%
G04 Gerber Fmt 4.6, Leading zero omitted, Abs format (unit mm)*
G04 Created by KiCad (PCBNEW 7.0.1) date 2023-12-26 01:25:44*
%MOMM*%
%LPD*%
G01*
G04 APERTURE LIST*
G04 Aperture macros list*
%AMRoundRect*
0 Rectangle with rounded corners*
0 $1 Rounding radius*
0 $2 $3 $4 $5 $6 $7 $8 $9 X,Y pos of 4 corners*
0 Add a 4 corners polygon primitive as box body*
4,1,4,$2,$3,$4,$5,$6,$7,$8,$9,$2,$3,0*
0 Add four circle primitives for the rounded corners*
1,1,$1+$1,$2,$3*
1,1,$1+$1,$4,$5*
1,1,$1+$1,$6,$7*
1,1,$1+$1,$8,$9*
0 Add four rect primitives between the rounded corners*
20,1,$1+$1,$2,$3,$4,$5,0*
20,1,$1+$1,$4,$5,$6,$7,0*
20,1,$1+$1,$6,$7,$8,$9,0*
20,1,$1+$1,$8,$9,$2,$3,0*%
G04 Aperture macros list end*
%TA.AperFunction,Profile*%
%ADD10C,0.120000*%
%TD*%
%ADD11RoundRect,0.113000X0.075000X-0.662500X0.075000X0.662500X-0.075000X0.662500X-0.075000X-0.662500X0*%
%ADD12RoundRect,0.113000X0.662500X-0.075000X0.662500X0.075000X-0.662500X0.075000X-0.662500X-0.075000X0*%
%ADD13RoundRect,0.288000X0.350000X0.450000X-0.350000X0.450000X-0.350000X-0.450000X0.350000X-0.450000X0*%
%ADD14RoundRect,0.288000X0.450000X-0.350000X0.450000X0.350000X-0.450000X0.350000X-0.450000X-0.350000X0*%
%ADD15RoundRect,0.288000X-0.412500X-0.650000X0.412500X-0.650000X0.412500X0.650000X-0.412500X0.650000X0*%
%ADD16RoundRect,0.288000X0.650000X-0.412500X0.650000X0.412500X-0.650000X0.412500X-0.650000X-0.412500X0*%
%ADD17RoundRect,0.288000X0.337500X0.475000X-0.337500X0.475000X-0.337500X-0.475000X0.337500X-0.475000X0*%
%ADD18RoundRect,0.288000X-0.475000X0.337500X-0.475000X-0.337500X0.475000X-0.337500X0.475000X0.337500X0*%
%ADD19RoundRect,0.038000X0.850000X-0.850000X0.850000X0.850000X-0.850000X0.850000X-0.850000X-0.850000X0*%
%ADD20O,1.776000X1.776000*%
%ADD21RoundRect,0.288000X-0.337500X-0.475000X0.337500X-0.475000X0.337500X0.475000X-0.337500X0.475000X0*%
%ADD22RoundRect,0.288000X-0.350000X-0.450000X0.350000X-0.450000X0.350000X0.450000X-0.350000X0.450000X0*%
%ADD23C,1.576000*%
%ADD24RoundRect,0.288000X-0.450000X0.350000X-0.450000X-0.350000X0.450000X-0.350000X0.450000X0.350000X0*%
%ADD25RoundRect,0.188000X-0.700000X-0.150000X0.700000X-0.150000X0.700000X0.150000X-0.700000X0.150000X0*%
%ADD26RoundRect,0.288000X0.450000X-0.325000X0.450000X0.325000X-0.450000X0.325000X-0.450000X-0.325000X0*%
%ADD27RoundRect,0.188000X0.150000X-0.825000X0.150000X0.825000X-0.150000X0.825000X-0.150000X-0.825000X0*%
%ADD28RoundRect,0.188000X0.150000X-0.700000X0.150000X0.700000X-0.150000X0.700000X-0.150000X-0.700000X0*%
%ADD29RoundRect,0.038000X-0.510000X-2.285000X0.510000X-2.285000X0.510000X2.285000X-0.510000X2.285000X0*%
%ADD30RoundRect,0.038000X-0.255000X-0.380000X0.255000X-0.380000X0.255000X0.380000X-0.255000X0.380000X0*%
%ADD31RoundRect,0.038000X-0.890000X-3.500000X0.890000X-3.500000X0.890000X3.500000X-0.890000X3.500000X0*%
%ADD32RoundRect,0.038000X0.800000X-0.800000X0.800000X0.800000X-0.800000X0.800000X-0.800000X-0.800000X0*%
%ADD33C,1.676000*%
%ADD34C,4.076000*%
%ADD35RoundRect,0.038000X0.300000X-0.750000X0.300000X0.750000X-0.300000X0.750000X-0.300000X-0.750000X0*%
%ADD36RoundRect,0.038000X0.962500X-0.350000X0.962500X0.350000X-0.962500X0.350000X-0.962500X-0.350000X0*%
%ADD37O,1.676000X1.676000*%
%ADD38RoundRect,0.038000X0.350000X-0.962500X0.350000X0.962500X-0.350000X0.962500X-0.350000X-0.962500X0*%
G04 APERTURE END LIST*
D10*
%TO.C,J1*%
X31376000Y-136854000D02*
X31376000Y-75254000D01*
X31376000Y-136854000D02*
X31376000Y-144654000D01*
X31376000Y-144654000D02*
X45976000Y-144654000D01*
X45976000Y-137354000D02*
X47776000Y-137354000D01*
X45976000Y-144654000D02*
X45976000Y-137354000D01*
X47776000Y-137354000D02*
X47776000Y-144654000D01*
X47776000Y-144654000D02*
X105576000Y-144654000D01*
X105576000Y-136754000D02*
X105576000Y-144654000D01*
X168076000Y-136754000D02*
X105576000Y-136754000D01*
X168076000Y-136754000D02*
X168076000Y-144654000D01*
X168076000Y-144654000D02*
X249476000Y-144654000D01*
X249476000Y-136754000D02*
X271916004Y-136754000D01*
X249476000Y-144654000D02*
X249476000Y-136754000D01*
X271916004Y-75254000D02*
X31376000Y-75254000D01*
X271916004Y-136754000D02*
X271916004Y-75254000D01*
%TD*%
D11*
%TO.C,U7*%
X82350000Y-131025000D03*
X82850000Y-131025000D03*
X83350000Y-131025000D03*
X83850000Y-131025000D03*
X84350000Y-131025000D03*
X84850000Y-131025000D03*
X85350000Y-131025000D03*
X85850000Y-131025000D03*
X86350000Y-131025000D03*
X86850000Y-131025000D03*
X87350000Y-131025000D03*
X87850000Y-131025000D03*
X88350000Y-131025000D03*
X88850000Y-131025000D03*
X89350000Y-131025000D03*
X89850000Y-131025000D03*
X90350000Y-131025000D03*
X90850000Y-131025000D03*
X91350000Y-131025000D03*
X91850000Y-131025000D03*
X92350000Y-131025000D03*
X92850000Y-131025000D03*
X93350000Y-131025000D03*
X93850000Y-131025000D03*
X94350000Y-131025000D03*
X94850000Y-131025000D03*
X95350000Y-131025000D03*
X95850000Y-131025000D03*
X96350000Y-131025000D03*
X96850000Y-131025000D03*
X97350000Y-131025000D03*
X97850000Y-131025000D03*
X98350000Y-131025000D03*
X98850000Y-131025000D03*
X99350000Y-131025000D03*
X99850000Y-131025000D03*
X100350000Y-131025000D03*
X100850000Y-131025000D03*
X101350000Y-131025000D03*
X101850000Y-131025000D03*
X102350000Y-131025000D03*
X102850000Y-131025000D03*
X103350000Y-131025000D03*
X103850000Y-131025000D03*
X104350000Y-131025000D03*
X104850000Y-131025000D03*
X105350000Y-131025000D03*
X105850000Y-131025000D03*
X106350000Y-131025000D03*
X106850000Y-131025000D03*
X107350000Y-131025000D03*
X107850000Y-131025000D03*
D12*
X110762500Y-128112500D03*
X110762500Y-127612500D03*
X110762500Y-127112500D03*
X110762500Y-126612500D03*
X110762500Y-126112500D03*
X110762500Y-125612500D03*
X110762500Y-125112500D03*
X110762500Y-124612500D03*
X110762500Y-124112500D03*
X110762500Y-123612500D03*
X110762500Y-123112500D03*
X110762500Y-122612500D03*
X110762500Y-122112500D03*
X110762500Y-121612500D03*
X110762500Y-121112500D03*
X110762500Y-120612500D03*
X110762500Y-120112500D03*
X110762500Y-119612500D03*
X110762500Y-119112500D03*
X110762500Y-118612500D03*
X110762500Y-118112500D03*
X110762500Y-117612500D03*
X110762500Y-117112500D03*
X110762500Y-116612500D03*
X110762500Y-116112500D03*
X110762500Y-115612500D03*
X110762500Y-115112500D03*
X110762500Y-114612500D03*
X110762500Y-114112500D03*
X110762500Y-113612500D03*
X110762500Y-113112500D03*
X110762500Y-112612500D03*
X110762500Y-112112500D03*
X110762500Y-111612500D03*
X110762500Y-111112500D03*
X110762500Y-110612500D03*
X110762500Y-110112500D03*
X110762500Y-109612500D03*
X110762500Y-109112500D03*
X110762500Y-108612500D03*
X110762500Y-108112500D03*
X110762500Y-107612500D03*
X110762500Y-107112500D03*
X110762500Y-106612500D03*
X110762500Y-106112500D03*
X110762500Y-105612500D03*
X110762500Y-105112500D03*
X110762500Y-104612500D03*
X110762500Y-104112500D03*
X110762500Y-103612500D03*
X110762500Y-103112500D03*
X110762500Y-102612500D03*
D11*
X107850000Y-99700000D03*
X107350000Y-99700000D03*
X106850000Y-99700000D03*
X106350000Y-99700000D03*
X105850000Y-99700000D03*
X105350000Y-99700000D03*
X104850000Y-99700000D03*
X104350000Y-99700000D03*
X103850000Y-99700000D03*
X103350000Y-99700000D03*
X102850000Y-99700000D03*
X102350000Y-99700000D03*
X101850000Y-99700000D03*
X101350000Y-99700000D03*
X100850000Y-99700000D03*
X100350000Y-99700000D03*
X99850000Y-99700000D03*
X99350000Y-99700000D03*
X98850000Y-99700000D03*
X98350000Y-99700000D03*
X97850000Y-99700000D03*
X97350000Y-99700000D03*
X96850000Y-99700000D03*
X96350000Y-99700000D03*
X95850000Y-99700000D03*
X95350000Y-99700000D03*
X94850000Y-99700000D03*
X94350000Y-99700000D03*
X93850000Y-99700000D03*
X93350000Y-99700000D03*
X92850000Y-99700000D03*
X92350000Y-99700000D03*
X91850000Y-99700000D03*
X91350000Y-99700000D03*
X90850000Y-99700000D03*
X90350000Y-99700000D03*
X89850000Y-99700000D03*
X89350000Y-99700000D03*
X88850000Y-99700000D03*
X88350000Y-99700000D03*
X87850000Y-99700000D03*
X87350000Y-99700000D03*
X86850000Y-99700000D03*
X86350000Y-99700000D03*
X85850000Y-99700000D03*
X85350000Y-99700000D03*
X84850000Y-99700000D03*
X84350000Y-99700000D03*
X83850000Y-99700000D03*
X83350000Y-99700000D03*
X82850000Y-99700000D03*
X82350000Y-99700000D03*
D12*
X79437500Y-102612500D03*
X79437500Y-103112500D03*
X79437500Y-103612500D03*
X79437500Y-104112500D03*
X79437500Y-104612500D03*
X79437500Y-105112500D03*
X79437500Y-105612500D03*
X79437500Y-106112500D03*
X79437500Y-106612500D03*
X79437500Y-107112500D03*
X79437500Y-107612500D03*
X79437500Y-108112500D03*
X79437500Y-108612500D03*
X79437500Y-109112500D03*
X79437500Y-109612500D03*
X79437500Y-110112500D03*
X79437500Y-110612500D03*
X79437500Y-111112500D03*
X79437500Y-111612500D03*
X79437500Y-112112500D03*
X79437500Y-112612500D03*
X79437500Y-113112500D03*
X79437500Y-113612500D03*
X79437500Y-114112500D03*
X79437500Y-114612500D03*
X79437500Y-115112500D03*
X79437500Y-115612500D03*
X79437500Y-116112500D03*
X79437500Y-116612500D03*
X79437500Y-117112500D03*
X79437500Y-117612500D03*
X79437500Y-118112500D03*
X79437500Y-118612500D03*
X79437500Y-119112500D03*
X79437500Y-119612500D03*
X79437500Y-120112500D03*
X79437500Y-120612500D03*
X79437500Y-121112500D03*
X79437500Y-121612500D03*
X79437500Y-122112500D03*
X79437500Y-122612500D03*
X79437500Y-123112500D03*
X79437500Y-123612500D03*
X79437500Y-124112500D03*
X79437500Y-124612500D03*
X79437500Y-125112500D03*
X79437500Y-125612500D03*
X79437500Y-126112500D03*
X79437500Y-126612500D03*
X79437500Y-127112500D03*
X79437500Y-127612500D03*
X79437500Y-128112500D03*
%TD*%
D13*
%TO.C,R43*%
X77050000Y-125500000D03*
X75050000Y-125500000D03*
%TD*%
D14*
%TO.C,R6*%
X77100000Y-133550000D03*
X77100000Y-131550000D03*
%TD*%
D15*
%TO.C,C30*%
X252637500Y-130300000D03*
X255762500Y-130300000D03*
%TD*%
D16*
%TO.C,C23*%
X33550000Y-134612500D03*
X33550000Y-131487500D03*
%TD*%
D14*
%TO.C,R10*%
X97100000Y-96850000D03*
X97100000Y-94850000D03*
%TD*%
D17*
%TO.C,C14*%
X74697500Y-103683000D03*
X72622500Y-103683000D03*
%TD*%
D14*
%TO.C,R17*%
X141097000Y-79791000D03*
X141097000Y-77791000D03*
%TD*%
D13*
%TO.C,R41*%
X117950000Y-106100000D03*
X115950000Y-106100000D03*
%TD*%
D18*
%TO.C,C12*%
X138938000Y-78083500D03*
X138938000Y-80158500D03*
%TD*%
D13*
%TO.C,R22*%
X74660000Y-105715000D03*
X72660000Y-105715000D03*
%TD*%
D19*
%TO.C,JP1*%
X249418000Y-108331000D03*
D20*
X251958000Y-108331000D03*
%TD*%
D21*
%TO.C,C2*%
X247755500Y-86030000D03*
X249830500Y-86030000D03*
%TD*%
D18*
%TO.C,C18*%
X117602000Y-130712500D03*
X117602000Y-132787500D03*
%TD*%
D15*
%TO.C,C22*%
X57437500Y-115600000D03*
X60562500Y-115600000D03*
%TD*%
D21*
%TO.C,C4*%
X251692500Y-96317000D03*
X253767500Y-96317000D03*
%TD*%
D19*
%TO.C,JP2*%
X196410000Y-133400000D03*
D20*
X198950000Y-133400000D03*
X201490000Y-133400000D03*
%TD*%
D13*
%TO.C,R42*%
X77050000Y-127500000D03*
X75050000Y-127500000D03*
%TD*%
%TO.C,R34*%
X161528000Y-112700000D03*
X159528000Y-112700000D03*
%TD*%
D22*
%TO.C,R2*%
X247793000Y-88316000D03*
X249793000Y-88316000D03*
%TD*%
D15*
%TO.C,C24*%
X57437500Y-91850000D03*
X60562500Y-91850000D03*
%TD*%
%TO.C,C27*%
X57437500Y-108150000D03*
X60562500Y-108150000D03*
%TD*%
D13*
%TO.C,R32*%
X161528000Y-108636000D03*
X159528000Y-108636000D03*
%TD*%
D23*
%TO.C,Y1*%
X72950000Y-95950000D03*
X77850000Y-95950000D03*
%TD*%
D17*
%TO.C,C8*%
X253767500Y-116002000D03*
X251692500Y-116002000D03*
%TD*%
%TO.C,C7*%
X253767500Y-118542000D03*
X251692500Y-118542000D03*
%TD*%
D24*
%TO.C,R9*%
X145161000Y-77791000D03*
X145161000Y-79791000D03*
%TD*%
D15*
%TO.C,C26*%
X151087500Y-91050000D03*
X154212500Y-91050000D03*
%TD*%
D22*
%TO.C,R12*%
X113681000Y-111811000D03*
X115681000Y-111811000D03*
%TD*%
%TO.C,R45*%
X175350000Y-120050000D03*
X177350000Y-120050000D03*
%TD*%
D25*
%TO.C,U3*%
X122934000Y-99873000D03*
X122934000Y-101143000D03*
X122934000Y-102413000D03*
X122934000Y-103683000D03*
X122934000Y-104953000D03*
X122934000Y-106223000D03*
X122934000Y-107493000D03*
X122934000Y-108763000D03*
X122934000Y-110033000D03*
X122934000Y-111303000D03*
X122934000Y-112573000D03*
X122934000Y-113843000D03*
X122934000Y-115113000D03*
X122934000Y-116383000D03*
X122934000Y-117653000D03*
X122934000Y-118923000D03*
X122934000Y-120193000D03*
X122934000Y-121463000D03*
X122934000Y-122733000D03*
X122934000Y-124003000D03*
X132334000Y-124003000D03*
X132334000Y-122733000D03*
X132334000Y-121463000D03*
X132334000Y-120193000D03*
X132334000Y-118923000D03*
X132334000Y-117653000D03*
X132334000Y-116383000D03*
X132334000Y-115113000D03*
X132334000Y-113843000D03*
X132334000Y-112573000D03*
X132334000Y-111303000D03*
X132334000Y-110033000D03*
X132334000Y-108763000D03*
X132334000Y-107493000D03*
X132334000Y-106223000D03*
X132334000Y-104953000D03*
X132334000Y-103683000D03*
X132334000Y-102413000D03*
X132334000Y-101143000D03*
X132334000Y-99873000D03*
%TD*%
D24*
%TO.C,R47*%
X52250000Y-132700000D03*
X52250000Y-134700000D03*
%TD*%
%TO.C,R14*%
X162814000Y-126813000D03*
X162814000Y-128813000D03*
%TD*%
D21*
%TO.C,C6*%
X243564500Y-96317000D03*
X245639500Y-96317000D03*
%TD*%
D18*
%TO.C,C15*%
X130403600Y-131372700D03*
X130403600Y-133447700D03*
%TD*%
D21*
%TO.C,C3*%
X243564500Y-86030000D03*
X245639500Y-86030000D03*
%TD*%
D22*
%TO.C,R8*%
X251730000Y-113843000D03*
X253730000Y-113843000D03*
%TD*%
D13*
%TO.C,R30*%
X161528000Y-104572000D03*
X159528000Y-104572000D03*
%TD*%
D26*
%TO.C,FB1*%
X251841000Y-93278000D03*
X251841000Y-91228000D03*
%TD*%
D13*
%TO.C,R23*%
X161528000Y-90348000D03*
X159528000Y-90348000D03*
%TD*%
D21*
%TO.C,C20*%
X182575000Y-115150000D03*
X184650000Y-115150000D03*
%TD*%
D22*
%TO.C,R46*%
X72700000Y-107800000D03*
X74700000Y-107800000D03*
%TD*%
D13*
%TO.C,R27*%
X161528000Y-98476000D03*
X159528000Y-98476000D03*
%TD*%
D21*
%TO.C,C1*%
X251819500Y-86030000D03*
X253894500Y-86030000D03*
%TD*%
D13*
%TO.C,R39*%
X161550000Y-123400000D03*
X159550000Y-123400000D03*
%TD*%
%TO.C,R26*%
X161528000Y-96444000D03*
X159528000Y-96444000D03*
%TD*%
%TO.C,R38*%
X161528000Y-121082000D03*
X159528000Y-121082000D03*
%TD*%
D21*
%TO.C,C19*%
X143562500Y-129600000D03*
X145637500Y-129600000D03*
%TD*%
D14*
%TO.C,R5*%
X75050000Y-133550000D03*
X75050000Y-131550000D03*
%TD*%
D27*
%TO.C,U8*%
X120396000Y-134682000D03*
X121666000Y-134682000D03*
X122936000Y-134682000D03*
X124206000Y-134682000D03*
X125476000Y-134682000D03*
X126746000Y-134682000D03*
X128016000Y-134682000D03*
X128016000Y-129732000D03*
X126746000Y-129732000D03*
X125476000Y-129732000D03*
X124206000Y-129732000D03*
X122936000Y-129732000D03*
X121666000Y-129732000D03*
X120396000Y-129732000D03*
%TD*%
D28*
%TO.C,U6*%
X108077000Y-89154000D03*
X109347000Y-89154000D03*
X110617000Y-89154000D03*
X111887000Y-89154000D03*
X113157000Y-89154000D03*
X114427000Y-89154000D03*
X115697000Y-89154000D03*
X116967000Y-89154000D03*
X118237000Y-89154000D03*
X119507000Y-89154000D03*
X120777000Y-89154000D03*
X122047000Y-89154000D03*
X123317000Y-89154000D03*
X124587000Y-89154000D03*
X125857000Y-89154000D03*
X127127000Y-89154000D03*
X128397000Y-89154000D03*
X129667000Y-89154000D03*
X130937000Y-89154000D03*
X132207000Y-89154000D03*
X132207000Y-79754000D03*
X130937000Y-79754000D03*
X129667000Y-79754000D03*
X128397000Y-79754000D03*
X127127000Y-79754000D03*
X125857000Y-79754000D03*
X124587000Y-79754000D03*
X123317000Y-79754000D03*
X122047000Y-79754000D03*
X120777000Y-79754000D03*
X119507000Y-79754000D03*
X118237000Y-79754000D03*
X116967000Y-79754000D03*
X115697000Y-79754000D03*
X114427000Y-79754000D03*
X113157000Y-79754000D03*
X111887000Y-79754000D03*
X110617000Y-79754000D03*
X109347000Y-79754000D03*
X108077000Y-79754000D03*
%TD*%
D13*
%TO.C,R36*%
X161528000Y-116764000D03*
X159528000Y-116764000D03*
%TD*%
D14*
%TO.C,R16*%
X143129000Y-79791000D03*
X143129000Y-77791000D03*
%TD*%
D13*
%TO.C,R28*%
X161528000Y-100508000D03*
X159528000Y-100508000D03*
%TD*%
D15*
%TO.C,C21*%
X169887500Y-129464000D03*
X173012500Y-129464000D03*
%TD*%
D17*
%TO.C,C11*%
X48662500Y-128956000D03*
X46587500Y-128956000D03*
%TD*%
D13*
%TO.C,R31*%
X161528000Y-106604000D03*
X159528000Y-106604000D03*
%TD*%
%TO.C,R33*%
X161528000Y-110668000D03*
X159528000Y-110668000D03*
%TD*%
D14*
%TO.C,R11*%
X99150000Y-96850000D03*
X99150000Y-94850000D03*
%TD*%
D26*
%TO.C,FB2*%
X247777000Y-93405000D03*
X247777000Y-91355000D03*
%TD*%
D13*
%TO.C,R35*%
X161528000Y-114732000D03*
X159528000Y-114732000D03*
%TD*%
D29*
%TO.C,J1*%
X104676000Y-140954000D03*
D30*
X104676000Y-143614000D03*
D29*
X103406000Y-140954000D03*
D30*
X103406000Y-143614000D03*
D29*
X102146000Y-140954000D03*
D30*
X102146000Y-143614000D03*
D29*
X100866000Y-140954000D03*
D30*
X100866000Y-143614000D03*
D29*
X99596000Y-140954000D03*
D30*
X99596000Y-143614000D03*
D29*
X98326000Y-140954000D03*
D30*
X98326000Y-143614000D03*
D29*
X97056000Y-140954000D03*
D30*
X97056000Y-143614000D03*
D29*
X95786000Y-140954000D03*
D30*
X95786000Y-143614000D03*
D29*
X94516000Y-140954000D03*
D30*
X94516000Y-143614000D03*
D29*
X93246000Y-140954000D03*
D30*
X93246000Y-143614000D03*
D29*
X91976000Y-140954000D03*
D30*
X91976000Y-143614000D03*
D29*
X90716000Y-140954000D03*
D30*
X90716000Y-143614000D03*
D29*
X89436000Y-140954000D03*
D30*
X89436000Y-143614000D03*
D29*
X88166000Y-140954000D03*
D30*
X88166000Y-143614000D03*
D29*
X86896000Y-140954000D03*
D30*
X86896000Y-143614000D03*
D29*
X85626000Y-140954000D03*
D30*
X85626000Y-143614000D03*
D29*
X84356000Y-140954000D03*
D30*
X84356000Y-143614000D03*
D29*
X83086000Y-140954000D03*
D30*
X83086000Y-143614000D03*
D29*
X81826000Y-140954000D03*
D30*
X81826000Y-143614000D03*
D29*
X80546000Y-140954000D03*
D30*
X80546000Y-143614000D03*
D29*
X79286000Y-140954000D03*
D30*
X79286000Y-143614000D03*
D29*
X78006000Y-140954000D03*
D30*
X78006000Y-143614000D03*
D29*
X76736000Y-140954000D03*
D30*
X76736000Y-143614000D03*
D29*
X75466000Y-140954000D03*
D30*
X75466000Y-143614000D03*
D29*
X74196000Y-140954000D03*
D30*
X74196000Y-143614000D03*
D29*
X72926000Y-140954000D03*
D30*
X72926000Y-143614000D03*
D29*
X71656000Y-140954000D03*
D30*
X71656000Y-143614000D03*
D29*
X70386000Y-140954000D03*
D30*
X70386000Y-143614000D03*
D29*
X69116000Y-140954000D03*
D30*
X69116000Y-143614000D03*
D29*
X67846000Y-140954000D03*
D30*
X67846000Y-143614000D03*
D29*
X66576000Y-140954000D03*
D30*
X66576000Y-143614000D03*
D29*
X65306000Y-140954000D03*
D30*
X65306000Y-143614000D03*
D29*
X64036000Y-140954000D03*
D30*
X64036000Y-143614000D03*
D29*
X62766000Y-140954000D03*
D30*
X62766000Y-143614000D03*
D29*
X61496000Y-140954000D03*
D30*
X61496000Y-143614000D03*
D29*
X60226000Y-140954000D03*
D30*
X60226000Y-143614000D03*
D29*
X58956000Y-140954000D03*
D30*
X58956000Y-143614000D03*
D29*
X57686000Y-140954000D03*
D30*
X57686000Y-143614000D03*
D29*
X56416000Y-140954000D03*
D30*
X56416000Y-143614000D03*
D29*
X55146000Y-140954000D03*
D30*
X55146000Y-143614000D03*
D29*
X53876000Y-140954000D03*
D30*
X53876000Y-143614000D03*
D29*
X52606000Y-140954000D03*
D30*
X52606000Y-143614000D03*
D29*
X51336000Y-140954000D03*
D30*
X51336000Y-143614000D03*
D29*
X50066000Y-140954000D03*
D30*
X50066000Y-143614000D03*
D29*
X48796000Y-140954000D03*
D30*
X48796000Y-143614000D03*
D29*
X44986000Y-140954000D03*
D30*
X44986000Y-143614000D03*
D29*
X43716000Y-140954000D03*
D30*
X43716000Y-143614000D03*
D29*
X42446000Y-140954000D03*
D30*
X42446000Y-143614000D03*
D29*
X41176000Y-140954000D03*
D30*
X41176000Y-143614000D03*
D29*
X39906000Y-140954000D03*
D30*
X39906000Y-143614000D03*
D29*
X38636000Y-140954000D03*
D30*
X38636000Y-143614000D03*
D29*
X37366000Y-140954000D03*
D30*
X37366000Y-143614000D03*
D29*
X36096000Y-140954000D03*
D30*
X36096000Y-143614000D03*
D29*
X34826000Y-140954000D03*
D30*
X34826000Y-143614000D03*
D29*
X33556000Y-140954000D03*
D30*
X33556000Y-143614000D03*
D29*
X32286000Y-140954000D03*
D30*
X32286000Y-143614000D03*
D31*
X246876000Y-140344000D03*
X244336000Y-140344000D03*
X241796000Y-140344000D03*
X239256000Y-140344000D03*
X236716000Y-140344000D03*
X234176000Y-140344000D03*
X231636000Y-140344000D03*
X229096000Y-140344000D03*
X226556000Y-140344000D03*
X224016000Y-140344000D03*
X221476000Y-140344000D03*
X218936000Y-140344000D03*
X216396000Y-140344000D03*
X213856000Y-140344000D03*
X211316000Y-140344000D03*
X208776000Y-140344000D03*
X206236000Y-140344000D03*
X203696000Y-140344000D03*
X201156000Y-140344000D03*
X198616000Y-140344000D03*
X196076000Y-140344000D03*
X193536000Y-140344000D03*
X190996000Y-140344000D03*
X188456000Y-140344000D03*
X185916000Y-140344000D03*
X183376000Y-140344000D03*
X180836000Y-140344000D03*
X178296000Y-140344000D03*
X175756000Y-140354000D03*
X173216000Y-140354000D03*
X170676000Y-140354000D03*
%TD*%
D13*
%TO.C,R40*%
X117950000Y-101850000D03*
X115950000Y-101850000D03*
%TD*%
D22*
%TO.C,R7*%
X251730000Y-120701000D03*
X253730000Y-120701000D03*
%TD*%
D18*
%TO.C,C13*%
X66800000Y-86770500D03*
X66800000Y-88845500D03*
%TD*%
D32*
%TO.C,CN1*%
X260490000Y-99885000D03*
D33*
X260490000Y-102175000D03*
X260490000Y-104465000D03*
X260490000Y-106755000D03*
D34*
X261910000Y-116700000D03*
D33*
X260490000Y-109045000D03*
D34*
X261910000Y-91700000D03*
D33*
X262470000Y-98740000D03*
X262470000Y-101030000D03*
X262470000Y-103320000D03*
X262470000Y-105610000D03*
X262470000Y-107900000D03*
X264450000Y-99885000D03*
X264450000Y-102175000D03*
X264450000Y-104465000D03*
X264450000Y-106755000D03*
X264450000Y-109045000D03*
%TD*%
D19*
%TO.C,JP3*%
X209500000Y-109100000D03*
D20*
X212040000Y-109100000D03*
X214580000Y-109100000D03*
%TD*%
D25*
%TO.C,U4*%
X142748000Y-99873000D03*
X142748000Y-101143000D03*
X142748000Y-102413000D03*
X142748000Y-103683000D03*
X142748000Y-104953000D03*
X142748000Y-106223000D03*
X142748000Y-107493000D03*
X142748000Y-108763000D03*
X142748000Y-110033000D03*
X142748000Y-111303000D03*
X142748000Y-112573000D03*
X142748000Y-113843000D03*
X142748000Y-115113000D03*
X142748000Y-116383000D03*
X142748000Y-117653000D03*
X142748000Y-118923000D03*
X142748000Y-120193000D03*
X142748000Y-121463000D03*
X142748000Y-122733000D03*
X142748000Y-124003000D03*
X152148000Y-124003000D03*
X152148000Y-122733000D03*
X152148000Y-121463000D03*
X152148000Y-120193000D03*
X152148000Y-118923000D03*
X152148000Y-117653000D03*
X152148000Y-116383000D03*
X152148000Y-115113000D03*
X152148000Y-113843000D03*
X152148000Y-112573000D03*
X152148000Y-111303000D03*
X152148000Y-110033000D03*
X152148000Y-108763000D03*
X152148000Y-107493000D03*
X152148000Y-106223000D03*
X152148000Y-104953000D03*
X152148000Y-103683000D03*
X152148000Y-102413000D03*
X152148000Y-101143000D03*
X152148000Y-99873000D03*
%TD*%
D22*
%TO.C,R3*%
X243602000Y-88316000D03*
X245602000Y-88316000D03*
%TD*%
D14*
%TO.C,R13*%
X158496000Y-128813000D03*
X158496000Y-126813000D03*
%TD*%
%TO.C,R15*%
X160655000Y-128813000D03*
X160655000Y-126813000D03*
%TD*%
D21*
%TO.C,C10*%
X71012500Y-99900000D03*
X73087500Y-99900000D03*
%TD*%
D13*
%TO.C,R25*%
X161528000Y-94412000D03*
X159528000Y-94412000D03*
%TD*%
D35*
%TO.C,U1*%
X233450000Y-127450000D03*
X234720000Y-127450000D03*
X235990000Y-127450000D03*
X237260000Y-127450000D03*
X238530000Y-127450000D03*
X239800000Y-127450000D03*
X241070000Y-127450000D03*
X242340000Y-127450000D03*
X243610000Y-127450000D03*
X244880000Y-127450000D03*
X244880000Y-117950000D03*
X243610000Y-117950000D03*
X242340000Y-117950000D03*
X241070000Y-117950000D03*
X239800000Y-117950000D03*
X238530000Y-117950000D03*
X237260000Y-117950000D03*
X235990000Y-117950000D03*
X234720000Y-117950000D03*
X233450000Y-117950000D03*
%TD*%
D24*
%TO.C,R19*%
X139827000Y-82617000D03*
X139827000Y-84617000D03*
%TD*%
D32*
%TO.C,U2*%
X187421000Y-130387000D03*
D36*
X199878500Y-122772000D03*
D37*
X189961000Y-130387000D03*
D36*
X199878500Y-124042000D03*
D37*
X192501000Y-130387000D03*
D36*
X199878500Y-125312000D03*
D37*
X195041000Y-130387000D03*
D36*
X199878500Y-126582000D03*
D37*
X197581000Y-130387000D03*
D38*
X201391000Y-128094500D03*
D37*
X200121000Y-130387000D03*
D38*
X202661000Y-128094500D03*
D37*
X202661000Y-130387000D03*
D38*
X203931000Y-128094500D03*
D37*
X205201000Y-130387000D03*
D38*
X205201000Y-128094500D03*
D37*
X207741000Y-130387000D03*
D38*
X206471000Y-128094500D03*
D37*
X210281000Y-130387000D03*
D38*
X207741000Y-128094500D03*
D37*
X212821000Y-130387000D03*
D38*
X209011000Y-128094500D03*
D37*
X215361000Y-130387000D03*
D38*
X210281000Y-128094500D03*
D37*
X217901000Y-130387000D03*
D38*
X211551000Y-128094500D03*
D37*
X220441000Y-130387000D03*
D36*
X213063500Y-126582000D03*
D37*
X222981000Y-130387000D03*
D36*
X213063500Y-125312000D03*
D37*
X225521000Y-130387000D03*
D36*
X213063500Y-124042000D03*
X213063500Y-122772000D03*
D37*
X225521000Y-115147000D03*
D36*
X213063500Y-121502000D03*
D37*
X222981000Y-115147000D03*
D36*
X213063500Y-120232000D03*
D37*
X220441000Y-115147000D03*
D36*
X213063500Y-118962000D03*
D37*
X217901000Y-115147000D03*
D38*
X211551000Y-117449500D03*
D37*
X215361000Y-115147000D03*
D38*
X210281000Y-117449500D03*
D37*
X212821000Y-115147000D03*
D38*
X209011000Y-117449500D03*
D37*
X210281000Y-115147000D03*
D38*
X207741000Y-117449500D03*
D37*
X207741000Y-115147000D03*
D38*
X206471000Y-117449500D03*
D37*
X205201000Y-115147000D03*
D38*
X205201000Y-117449500D03*
D37*
X202661000Y-115147000D03*
D38*
X203931000Y-117449500D03*
D37*
X200121000Y-115147000D03*
D38*
X202661000Y-117449500D03*
D37*
X197581000Y-115147000D03*
D38*
X201391000Y-117449500D03*
D37*
X195041000Y-115147000D03*
D36*
X199878500Y-118962000D03*
D37*
X192501000Y-115147000D03*
D36*
X199878500Y-120232000D03*
D37*
X189961000Y-115147000D03*
D36*
X199878500Y-121502000D03*
D37*
X187421000Y-115147000D03*
%TD*%
D18*
%TO.C,C17*%
X231200000Y-117762500D03*
X231200000Y-119837500D03*
%TD*%
D13*
%TO.C,R24*%
X161528000Y-92380000D03*
X159528000Y-92380000D03*
%TD*%
D22*
%TO.C,R1*%
X251857000Y-88316000D03*
X253857000Y-88316000D03*
%TD*%
D15*
%TO.C,C29*%
X262987500Y-81150000D03*
X266112500Y-81150000D03*
%TD*%
D27*
%TO.C,U9*%
X132461000Y-134733000D03*
X133731000Y-134733000D03*
X135001000Y-134733000D03*
X136271000Y-134733000D03*
X137541000Y-134733000D03*
X138811000Y-134733000D03*
X140081000Y-134733000D03*
X140081000Y-129783000D03*
X138811000Y-129783000D03*
X137541000Y-129783000D03*
X136271000Y-129783000D03*
X135001000Y-129783000D03*
X133731000Y-129783000D03*
X132461000Y-129783000D03*
%TD*%
D17*
%TO.C,C16*%
X118131500Y-123571000D03*
X116056500Y-123571000D03*
%TD*%
D28*
%TO.C,U5*%
X73279000Y-89154000D03*
X74549000Y-89154000D03*
X75819000Y-89154000D03*
X77089000Y-89154000D03*
X78359000Y-89154000D03*
X79629000Y-89154000D03*
X80899000Y-89154000D03*
X82169000Y-89154000D03*
X83439000Y-89154000D03*
X84709000Y-89154000D03*
X85979000Y-89154000D03*
X87249000Y-89154000D03*
X88519000Y-89154000D03*
X89789000Y-89154000D03*
X91059000Y-89154000D03*
X92329000Y-89154000D03*
X93599000Y-89154000D03*
X94869000Y-89154000D03*
X96139000Y-89154000D03*
X97409000Y-89154000D03*
X97409000Y-79754000D03*
X96139000Y-79754000D03*
X94869000Y-79754000D03*
X93599000Y-79754000D03*
X92329000Y-79754000D03*
X91059000Y-79754000D03*
X89789000Y-79754000D03*
X88519000Y-79754000D03*
X87249000Y-79754000D03*
X85979000Y-79754000D03*
X84709000Y-79754000D03*
X83439000Y-79754000D03*
X82169000Y-79754000D03*
X80899000Y-79754000D03*
X79629000Y-79754000D03*
X78359000Y-79754000D03*
X77089000Y-79754000D03*
X75819000Y-79754000D03*
X74549000Y-79754000D03*
X73279000Y-79754000D03*
%TD*%
D13*
%TO.C,R37*%
X161528000Y-118923000D03*
X159528000Y-118923000D03*
%TD*%
D22*
%TO.C,R21*%
X175350000Y-122300000D03*
X177350000Y-122300000D03*
%TD*%
D13*
%TO.C,R4*%
X77050000Y-129500000D03*
X75050000Y-129500000D03*
%TD*%
D15*
%TO.C,C28*%
X59437500Y-81100000D03*
X62562500Y-81100000D03*
%TD*%
%TO.C,C25*%
X163287500Y-85950000D03*
X166412500Y-85950000D03*
%TD*%
D21*
%TO.C,C9*%
X75912500Y-99900000D03*
X77987500Y-99900000D03*
%TD*%
D13*
%TO.C,R20*%
X173400000Y-122300000D03*
X171400000Y-122300000D03*
%TD*%
D21*
%TO.C,C5*%
X247628500Y-96317000D03*
X249703500Y-96317000D03*
%TD*%
D13*
%TO.C,R44*%
X173400000Y-120050000D03*
X171400000Y-120050000D03*
%TD*%
D24*
%TO.C,R18*%
X141859000Y-82617000D03*
X141859000Y-84617000D03*
%TD*%
D13*
%TO.C,R29*%
X161528000Y-102540000D03*
X159528000Y-102540000D03*
%TD*%
D26*
%TO.C,FB3*%
X243586000Y-93405000D03*
X243586000Y-91355000D03*
%TD*%
G36*
X107663111Y-130367234D02*
G01*
X107664000Y-130368897D01*
X107664000Y-131681097D01*
X107663111Y-131682760D01*
X107661235Y-131682945D01*
X107660038Y-131681487D01*
X107651702Y-131639575D01*
X107548298Y-131639575D01*
X107539962Y-131681485D01*
X107538765Y-131682943D01*
X107536889Y-131682758D01*
X107536000Y-131681095D01*
X107536000Y-130368909D01*
X107536889Y-130367246D01*
X107538765Y-130367061D01*
X107539962Y-130368519D01*
X107548295Y-130410423D01*
X107651700Y-130410424D01*
X107660038Y-130368507D01*
X107661235Y-130367049D01*
X107663111Y-130367234D01*
G37*
G36*
X107163111Y-130367234D02*
G01*
X107164000Y-130368897D01*
X107164000Y-131681097D01*
X107163111Y-131682760D01*
X107161235Y-131682945D01*
X107160038Y-131681487D01*
X107151702Y-131639575D01*
X107048298Y-131639575D01*
X107039962Y-131681485D01*
X107038765Y-131682943D01*
X107036889Y-131682758D01*
X107036000Y-131681095D01*
X107036000Y-130368909D01*
X107036889Y-130367246D01*
X107038765Y-130367061D01*
X107039962Y-130368519D01*
X107048295Y-130410423D01*
X107151700Y-130410424D01*
X107160038Y-130368507D01*
X107161235Y-130367049D01*
X107163111Y-130367234D01*
G37*
G36*
X106663111Y-130367234D02*
G01*
X106664000Y-130368897D01*
X106664000Y-131681097D01*
X106663111Y-131682760D01*
X106661235Y-131682945D01*
X106660038Y-131681487D01*
X106651702Y-131639575D01*
X106548298Y-131639575D01*
X106539962Y-131681485D01*
X106538765Y-131682943D01*
X106536889Y-131682758D01*
X106536000Y-131681095D01*
X106536000Y-130368909D01*
X106536889Y-130367246D01*
X106538765Y-130367061D01*
X106539962Y-130368519D01*
X106548295Y-130410423D01*
X106651700Y-130410424D01*
X106660038Y-130368507D01*
X106661235Y-130367049D01*
X106663111Y-130367234D01*
G37*
G36*
X106163111Y-130367234D02*
G01*
X106164000Y-130368897D01*
X106164000Y-131681097D01*
X106163111Y-131682760D01*
X106161235Y-131682945D01*
X106160038Y-131681487D01*
X106151702Y-131639575D01*
X106048298Y-131639575D01*
X106039962Y-131681485D01*
X106038765Y-131682943D01*
X106036889Y-131682758D01*
X106036000Y-131681095D01*
X106036000Y-130368909D01*
X106036889Y-130367246D01*
X106038765Y-130367061D01*
X106039962Y-130368519D01*
X106048295Y-130410423D01*
X106151700Y-130410424D01*
X106160038Y-130368507D01*
X106161235Y-130367049D01*
X106163111Y-130367234D01*
G37*
G36*
X105663111Y-130367234D02*
G01*
X105664000Y-130368897D01*
X105664000Y-131681097D01*
X105663111Y-131682760D01*
X105661235Y-131682945D01*
X105660038Y-131681487D01*
X105651702Y-131639575D01*
X105548298Y-131639575D01*
X105539962Y-131681485D01*
X105538765Y-131682943D01*
X105536889Y-131682758D01*
X105536000Y-131681095D01*
X105536000Y-130368909D01*
X105536889Y-130367246D01*
X105538765Y-130367061D01*
X105539962Y-130368519D01*
X105548295Y-130410423D01*
X105651700Y-130410424D01*
X105660038Y-130368507D01*
X105661235Y-130367049D01*
X105663111Y-130367234D01*
G37*
G36*
X105163111Y-130367234D02*
G01*
X105164000Y-130368897D01*
X105164000Y-131681097D01*
X105163111Y-131682760D01*
X105161235Y-131682945D01*
X105160038Y-131681487D01*
X105151702Y-131639575D01*
X105048298Y-131639575D01*
X105039962Y-131681485D01*
X105038765Y-131682943D01*
X105036889Y-131682758D01*
X105036000Y-131681095D01*
X105036000Y-130368909D01*
X105036889Y-130367246D01*
X105038765Y-130367061D01*
X105039962Y-130368519D01*
X105048295Y-130410423D01*
X105151700Y-130410424D01*
X105160038Y-130368507D01*
X105161235Y-130367049D01*
X105163111Y-130367234D01*
G37*
G36*
X104663111Y-130367234D02*
G01*
X104664000Y-130368897D01*
X104664000Y-131681097D01*
X104663111Y-131682760D01*
X104661235Y-131682945D01*
X104660038Y-131681487D01*
X104651702Y-131639575D01*
X104548298Y-131639575D01*
X104539962Y-131681485D01*
X104538765Y-131682943D01*
X104536889Y-131682758D01*
X104536000Y-131681095D01*
X104536000Y-130368909D01*
X104536889Y-130367246D01*
X104538765Y-130367061D01*
X104539962Y-130368519D01*
X104548295Y-130410423D01*
X104651700Y-130410424D01*
X104660038Y-130368507D01*
X104661235Y-130367049D01*
X104663111Y-130367234D01*
G37*
G36*
X104163111Y-130367234D02*
G01*
X104164000Y-130368897D01*
X104164000Y-131681097D01*
X104163111Y-131682760D01*
X104161235Y-131682945D01*
X104160038Y-131681487D01*
X104151702Y-131639575D01*
X104048298Y-131639575D01*
X104039962Y-131681485D01*
X104038765Y-131682943D01*
X104036889Y-131682758D01*
X104036000Y-131681095D01*
X104036000Y-130368909D01*
X104036889Y-130367246D01*
X104038765Y-130367061D01*
X104039962Y-130368519D01*
X104048295Y-130410423D01*
X104151700Y-130410424D01*
X104160038Y-130368507D01*
X104161235Y-130367049D01*
X104163111Y-130367234D01*
G37*
G36*
X103663111Y-130367234D02*
G01*
X103664000Y-130368897D01*
X103664000Y-131681097D01*
X103663111Y-131682760D01*
X103661235Y-131682945D01*
X103660038Y-131681487D01*
X103651702Y-131639575D01*
X103548298Y-131639575D01*
X103539962Y-131681485D01*
X103538765Y-131682943D01*
X103536889Y-131682758D01*
X103536000Y-131681095D01*
X103536000Y-130368909D01*
X103536889Y-130367246D01*
X103538765Y-130367061D01*
X103539962Y-130368519D01*
X103548295Y-130410423D01*
X103651700Y-130410424D01*
X103660038Y-130368507D01*
X103661235Y-130367049D01*
X103663111Y-130367234D01*
G37*
G36*
X103163111Y-130367234D02*
G01*
X103164000Y-130368897D01*
X103164000Y-131681097D01*
X103163111Y-131682760D01*
X103161235Y-131682945D01*
X103160038Y-131681487D01*
X103151702Y-131639575D01*
X103048298Y-131639575D01*
X103039962Y-131681485D01*
X103038765Y-131682943D01*
X103036889Y-131682758D01*
X103036000Y-131681095D01*
X103036000Y-130368909D01*
X103036889Y-130367246D01*
X103038765Y-130367061D01*
X103039962Y-130368519D01*
X103048295Y-130410423D01*
X103151700Y-130410424D01*
X103160038Y-130368507D01*
X103161235Y-130367049D01*
X103163111Y-130367234D01*
G37*
G36*
X102663111Y-130367234D02*
G01*
X102664000Y-130368897D01*
X102664000Y-131681097D01*
X102663111Y-131682760D01*
X102661235Y-131682945D01*
X102660038Y-131681487D01*
X102651702Y-131639575D01*
X102548298Y-131639575D01*
X102539962Y-131681485D01*
X102538765Y-131682943D01*
X102536889Y-131682758D01*
X102536000Y-131681095D01*
X102536000Y-130368909D01*
X102536889Y-130367246D01*
X102538765Y-130367061D01*
X102539962Y-130368519D01*
X102548295Y-130410423D01*
X102651700Y-130410424D01*
X102660038Y-130368507D01*
X102661235Y-130367049D01*
X102663111Y-130367234D01*
G37*
G36*
X102163111Y-130367234D02*
G01*
X102164000Y-130368897D01*
X102164000Y-131681097D01*
X102163111Y-131682760D01*
X102161235Y-131682945D01*
X102160038Y-131681487D01*
X102151702Y-131639575D01*
X102048298Y-131639575D01*
X102039962Y-131681485D01*
X102038765Y-131682943D01*
X102036889Y-131682758D01*
X102036000Y-131681095D01*
X102036000Y-130368909D01*
X102036889Y-130367246D01*
X102038765Y-130367061D01*
X102039962Y-130368519D01*
X102048295Y-130410423D01*
X102151700Y-130410424D01*
X102160038Y-130368507D01*
X102161235Y-130367049D01*
X102163111Y-130367234D01*
G37*
G36*
X101663111Y-130367234D02*
G01*
X101664000Y-130368897D01*
X101664000Y-131681097D01*
X101663111Y-131682760D01*
X101661235Y-131682945D01*
X101660038Y-131681487D01*
X101651702Y-131639575D01*
X101548298Y-131639575D01*
X101539962Y-131681485D01*
X101538765Y-131682943D01*
X101536889Y-131682758D01*
X101536000Y-131681095D01*
X101536000Y-130368909D01*
X101536889Y-130367246D01*
X101538765Y-130367061D01*
X101539962Y-130368519D01*
X101548295Y-130410423D01*
X101651700Y-130410424D01*
X101660038Y-130368507D01*
X101661235Y-130367049D01*
X101663111Y-130367234D01*
G37*
G36*
X101163111Y-130367234D02*
G01*
X101164000Y-130368897D01*
X101164000Y-131681097D01*
X101163111Y-131682760D01*
X101161235Y-131682945D01*
X101160038Y-131681487D01*
X101151702Y-131639575D01*
X101048298Y-131639575D01*
X101039962Y-131681485D01*
X101038765Y-131682943D01*
X101036889Y-131682758D01*
X101036000Y-131681095D01*
X101036000Y-130368909D01*
X101036889Y-130367246D01*
X101038765Y-130367061D01*
X101039962Y-130368519D01*
X101048295Y-130410423D01*
X101151700Y-130410424D01*
X101160038Y-130368507D01*
X101161235Y-130367049D01*
X101163111Y-130367234D01*
G37*
G36*
X100663111Y-130367234D02*
G01*
X100664000Y-130368897D01*
X100664000Y-131681097D01*
X100663111Y-131682760D01*
X100661235Y-131682945D01*
X100660038Y-131681487D01*
X100651702Y-131639575D01*
X100548298Y-131639575D01*
X100539962Y-131681485D01*
X100538765Y-131682943D01*
X100536889Y-131682758D01*
X100536000Y-131681095D01*
X100536000Y-130368909D01*
X100536889Y-130367246D01*
X100538765Y-130367061D01*
X100539962Y-130368519D01*
X100548295Y-130410423D01*
X100651700Y-130410424D01*
X100660038Y-130368507D01*
X100661235Y-130367049D01*
X100663111Y-130367234D01*
G37*
G36*
X100163111Y-130367234D02*
G01*
X100164000Y-130368897D01*
X100164000Y-131681097D01*
X100163111Y-131682760D01*
X100161235Y-131682945D01*
X100160038Y-131681487D01*
X100151702Y-131639575D01*
X100048298Y-131639575D01*
X100039962Y-131681485D01*
X100038765Y-131682943D01*
X100036889Y-131682758D01*
X100036000Y-131681095D01*
X100036000Y-130368909D01*
X100036889Y-130367246D01*
X100038765Y-130367061D01*
X100039962Y-130368519D01*
X100048295Y-130410423D01*
X100151700Y-130410424D01*
X100160038Y-130368507D01*
X100161235Y-130367049D01*
X100163111Y-130367234D01*
G37*
G36*
X99663111Y-130367234D02*
G01*
X99664000Y-130368897D01*
X99664000Y-131681097D01*
X99663111Y-131682760D01*
X99661235Y-131682945D01*
X99660038Y-131681487D01*
X99651702Y-131639575D01*
X99548298Y-131639575D01*
X99539962Y-131681485D01*
X99538765Y-131682943D01*
X99536889Y-131682758D01*
X99536000Y-131681095D01*
X99536000Y-130368909D01*
X99536889Y-130367246D01*
X99538765Y-130367061D01*
X99539962Y-130368519D01*
X99548295Y-130410423D01*
X99651700Y-130410424D01*
X99660038Y-130368507D01*
X99661235Y-130367049D01*
X99663111Y-130367234D01*
G37*
G36*
X99163111Y-130367234D02*
G01*
X99164000Y-130368897D01*
X99164000Y-131681097D01*
X99163111Y-131682760D01*
X99161235Y-131682945D01*
X99160038Y-131681487D01*
X99151702Y-131639575D01*
X99048298Y-131639575D01*
X99039962Y-131681485D01*
X99038765Y-131682943D01*
X99036889Y-131682758D01*
X99036000Y-131681095D01*
X99036000Y-130368909D01*
X99036889Y-130367246D01*
X99038765Y-130367061D01*
X99039962Y-130368519D01*
X99048295Y-130410423D01*
X99151700Y-130410424D01*
X99160038Y-130368507D01*
X99161235Y-130367049D01*
X99163111Y-130367234D01*
G37*
G36*
X98663111Y-130367234D02*
G01*
X98664000Y-130368897D01*
X98664000Y-131681097D01*
X98663111Y-131682760D01*
X98661235Y-131682945D01*
X98660038Y-131681487D01*
X98651702Y-131639575D01*
X98548298Y-131639575D01*
X98539962Y-131681485D01*
X98538765Y-131682943D01*
X98536889Y-131682758D01*
X98536000Y-131681095D01*
X98536000Y-130368909D01*
X98536889Y-130367246D01*
X98538765Y-130367061D01*
X98539962Y-130368519D01*
X98548295Y-130410423D01*
X98651700Y-130410424D01*
X98660038Y-130368507D01*
X98661235Y-130367049D01*
X98663111Y-130367234D01*
G37*
G36*
X98163111Y-130367234D02*
G01*
X98164000Y-130368897D01*
X98164000Y-131681097D01*
X98163111Y-131682760D01*
X98161235Y-131682945D01*
X98160038Y-131681487D01*
X98151702Y-131639575D01*
X98048298Y-131639575D01*
X98039962Y-131681485D01*
X98038765Y-131682943D01*
X98036889Y-131682758D01*
X98036000Y-131681095D01*
X98036000Y-130368909D01*
X98036889Y-130367246D01*
X98038765Y-130367061D01*
X98039962Y-130368519D01*
X98048295Y-130410423D01*
X98151700Y-130410424D01*
X98160038Y-130368507D01*
X98161235Y-130367049D01*
X98163111Y-130367234D01*
G37*
G36*
X97663111Y-130367234D02*
G01*
X97664000Y-130368897D01*
X97664000Y-131681097D01*
X97663111Y-131682760D01*
X97661235Y-131682945D01*
X97660038Y-131681487D01*
X97651702Y-131639575D01*
X97548298Y-131639575D01*
X97539962Y-131681485D01*
X97538765Y-131682943D01*
X97536889Y-131682758D01*
X97536000Y-131681095D01*
X97536000Y-130368909D01*
X97536889Y-130367246D01*
X97538765Y-130367061D01*
X97539962Y-130368519D01*
X97548295Y-130410423D01*
X97651700Y-130410424D01*
X97660038Y-130368507D01*
X97661235Y-130367049D01*
X97663111Y-130367234D01*
G37*
G36*
X97163111Y-130367234D02*
G01*
X97164000Y-130368897D01*
X97164000Y-131681097D01*
X97163111Y-131682760D01*
X97161235Y-131682945D01*
X97160038Y-131681487D01*
X97151702Y-131639575D01*
X97048298Y-131639575D01*
X97039962Y-131681485D01*
X97038765Y-131682943D01*
X97036889Y-131682758D01*
X97036000Y-131681095D01*
X97036000Y-130368909D01*
X97036889Y-130367246D01*
X97038765Y-130367061D01*
X97039962Y-130368519D01*
X97048295Y-130410423D01*
X97151700Y-130410424D01*
X97160038Y-130368507D01*
X97161235Y-130367049D01*
X97163111Y-130367234D01*
G37*
G36*
X96663111Y-130367234D02*
G01*
X96664000Y-130368897D01*
X96664000Y-131681097D01*
X96663111Y-131682760D01*
X96661235Y-131682945D01*
X96660038Y-131681487D01*
X96651702Y-131639575D01*
X96548298Y-131639575D01*
X96539962Y-131681485D01*
X96538765Y-131682943D01*
X96536889Y-131682758D01*
X96536000Y-131681095D01*
X96536000Y-130368909D01*
X96536889Y-130367246D01*
X96538765Y-130367061D01*
X96539962Y-130368519D01*
X96548295Y-130410423D01*
X96651700Y-130410424D01*
X96660038Y-130368507D01*
X96661235Y-130367049D01*
X96663111Y-130367234D01*
G37*
G36*
X96163111Y-130367234D02*
G01*
X96164000Y-130368897D01*
X96164000Y-131681097D01*
X96163111Y-131682760D01*
X96161235Y-131682945D01*
X96160038Y-131681487D01*
X96151702Y-131639575D01*
X96048298Y-131639575D01*
X96039962Y-131681485D01*
X96038765Y-131682943D01*
X96036889Y-131682758D01*
X96036000Y-131681095D01*
X96036000Y-130368909D01*
X96036889Y-130367246D01*
X96038765Y-130367061D01*
X96039962Y-130368519D01*
X96048295Y-130410423D01*
X96151700Y-130410424D01*
X96160038Y-130368507D01*
X96161235Y-130367049D01*
X96163111Y-130367234D01*
G37*
G36*
X95663111Y-130367234D02*
G01*
X95664000Y-130368897D01*
X95664000Y-131681097D01*
X95663111Y-131682760D01*
X95661235Y-131682945D01*
X95660038Y-131681487D01*
X95651702Y-131639575D01*
X95548298Y-131639575D01*
X95539962Y-131681485D01*
X95538765Y-131682943D01*
X95536889Y-131682758D01*
X95536000Y-131681095D01*
X95536000Y-130368909D01*
X95536889Y-130367246D01*
X95538765Y-130367061D01*
X95539962Y-130368519D01*
X95548295Y-130410423D01*
X95651700Y-130410424D01*
X95660038Y-130368507D01*
X95661235Y-130367049D01*
X95663111Y-130367234D01*
G37*
G36*
X95163111Y-130367234D02*
G01*
X95164000Y-130368897D01*
X95164000Y-131681097D01*
X95163111Y-131682760D01*
X95161235Y-131682945D01*
X95160038Y-131681487D01*
X95151702Y-131639575D01*
X95048298Y-131639575D01*
X95039962Y-131681485D01*
X95038765Y-131682943D01*
X95036889Y-131682758D01*
X95036000Y-131681095D01*
X95036000Y-130368909D01*
X95036889Y-130367246D01*
X95038765Y-130367061D01*
X95039962Y-130368519D01*
X95048295Y-130410423D01*
X95151700Y-130410424D01*
X95160038Y-130368507D01*
X95161235Y-130367049D01*
X95163111Y-130367234D01*
G37*
G36*
X94663111Y-130367234D02*
G01*
X94664000Y-130368897D01*
X94664000Y-131681097D01*
X94663111Y-131682760D01*
X94661235Y-131682945D01*
X94660038Y-131681487D01*
X94651702Y-131639575D01*
X94548298Y-131639575D01*
X94539962Y-131681485D01*
X94538765Y-131682943D01*
X94536889Y-131682758D01*
X94536000Y-131681095D01*
X94536000Y-130368909D01*
X94536889Y-130367246D01*
X94538765Y-130367061D01*
X94539962Y-130368519D01*
X94548295Y-130410423D01*
X94651700Y-130410424D01*
X94660038Y-130368507D01*
X94661235Y-130367049D01*
X94663111Y-130367234D01*
G37*
G36*
X94163111Y-130367234D02*
G01*
X94164000Y-130368897D01*
X94164000Y-131681097D01*
X94163111Y-131682760D01*
X94161235Y-131682945D01*
X94160038Y-131681487D01*
X94151702Y-131639575D01*
X94048298Y-131639575D01*
X94039962Y-131681485D01*
X94038765Y-131682943D01*
X94036889Y-131682758D01*
X94036000Y-131681095D01*
X94036000Y-130368909D01*
X94036889Y-130367246D01*
X94038765Y-130367061D01*
X94039962Y-130368519D01*
X94048295Y-130410423D01*
X94151700Y-130410424D01*
X94160038Y-130368507D01*
X94161235Y-130367049D01*
X94163111Y-130367234D01*
G37*
G36*
X93663111Y-130367234D02*
G01*
X93664000Y-130368897D01*
X93664000Y-131681097D01*
X93663111Y-131682760D01*
X93661235Y-131682945D01*
X93660038Y-131681487D01*
X93651702Y-131639575D01*
X93548298Y-131639575D01*
X93539962Y-131681485D01*
X93538765Y-131682943D01*
X93536889Y-131682758D01*
X93536000Y-131681095D01*
X93536000Y-130368909D01*
X93536889Y-130367246D01*
X93538765Y-130367061D01*
X93539962Y-130368519D01*
X93548295Y-130410423D01*
X93651700Y-130410424D01*
X93660038Y-130368507D01*
X93661235Y-130367049D01*
X93663111Y-130367234D01*
G37*
G36*
X93163111Y-130367234D02*
G01*
X93164000Y-130368897D01*
X93164000Y-131681097D01*
X93163111Y-131682760D01*
X93161235Y-131682945D01*
X93160038Y-131681487D01*
X93151702Y-131639575D01*
X93048298Y-131639575D01*
X93039962Y-131681485D01*
X93038765Y-131682943D01*
X93036889Y-131682758D01*
X93036000Y-131681095D01*
X93036000Y-130368909D01*
X93036889Y-130367246D01*
X93038765Y-130367061D01*
X93039962Y-130368519D01*
X93048295Y-130410423D01*
X93151700Y-130410424D01*
X93160038Y-130368507D01*
X93161235Y-130367049D01*
X93163111Y-130367234D01*
G37*
G36*
X92663111Y-130367234D02*
G01*
X92664000Y-130368897D01*
X92664000Y-131681097D01*
X92663111Y-131682760D01*
X92661235Y-131682945D01*
X92660038Y-131681487D01*
X92651702Y-131639575D01*
X92548298Y-131639575D01*
X92539962Y-131681485D01*
X92538765Y-131682943D01*
X92536889Y-131682758D01*
X92536000Y-131681095D01*
X92536000Y-130368909D01*
X92536889Y-130367246D01*
X92538765Y-130367061D01*
X92539962Y-130368519D01*
X92548295Y-130410423D01*
X92651700Y-130410424D01*
X92660038Y-130368507D01*
X92661235Y-130367049D01*
X92663111Y-130367234D01*
G37*
G36*
X92163111Y-130367234D02*
G01*
X92164000Y-130368897D01*
X92164000Y-131681097D01*
X92163111Y-131682760D01*
X92161235Y-131682945D01*
X92160038Y-131681487D01*
X92151702Y-131639575D01*
X92048298Y-131639575D01*
X92039962Y-131681485D01*
X92038765Y-131682943D01*
X92036889Y-131682758D01*
X92036000Y-131681095D01*
X92036000Y-130368909D01*
X92036889Y-130367246D01*
X92038765Y-130367061D01*
X92039962Y-130368519D01*
X92048295Y-130410423D01*
X92151700Y-130410424D01*
X92160038Y-130368507D01*
X92161235Y-130367049D01*
X92163111Y-130367234D01*
G37*
G36*
X91663111Y-130367234D02*
G01*
X91664000Y-130368897D01*
X91664000Y-131681097D01*
X91663111Y-131682760D01*
X91661235Y-131682945D01*
X91660038Y-131681487D01*
X91651702Y-131639575D01*
X91548298Y-131639575D01*
X91539962Y-131681485D01*
X91538765Y-131682943D01*
X91536889Y-131682758D01*
X91536000Y-131681095D01*
X91536000Y-130368909D01*
X91536889Y-130367246D01*
X91538765Y-130367061D01*
X91539962Y-130368519D01*
X91548295Y-130410423D01*
X91651700Y-130410424D01*
X91660038Y-130368507D01*
X91661235Y-130367049D01*
X91663111Y-130367234D01*
G37*
G36*
X91163111Y-130367234D02*
G01*
X91164000Y-130368897D01*
X91164000Y-131681097D01*
X91163111Y-131682760D01*
X91161235Y-131682945D01*
X91160038Y-131681487D01*
X91151702Y-131639575D01*
X91048298Y-131639575D01*
X91039962Y-131681485D01*
X91038765Y-131682943D01*
X91036889Y-131682758D01*
X91036000Y-131681095D01*
X91036000Y-130368909D01*
X91036889Y-130367246D01*
X91038765Y-130367061D01*
X91039962Y-130368519D01*
X91048295Y-130410423D01*
X91151700Y-130410424D01*
X91160038Y-130368507D01*
X91161235Y-130367049D01*
X91163111Y-130367234D01*
G37*
G36*
X90663111Y-130367234D02*
G01*
X90664000Y-130368897D01*
X90664000Y-131681097D01*
X90663111Y-131682760D01*
X90661235Y-131682945D01*
X90660038Y-131681487D01*
X90651702Y-131639575D01*
X90548298Y-131639575D01*
X90539962Y-131681485D01*
X90538765Y-131682943D01*
X90536889Y-131682758D01*
X90536000Y-131681095D01*
X90536000Y-130368909D01*
X90536889Y-130367246D01*
X90538765Y-130367061D01*
X90539962Y-130368519D01*
X90548295Y-130410423D01*
X90651700Y-130410424D01*
X90660038Y-130368507D01*
X90661235Y-130367049D01*
X90663111Y-130367234D01*
G37*
G36*
X90163111Y-130367234D02*
G01*
X90164000Y-130368897D01*
X90164000Y-131681097D01*
X90163111Y-131682760D01*
X90161235Y-131682945D01*
X90160038Y-131681487D01*
X90151702Y-131639575D01*
X90048298Y-131639575D01*
X90039962Y-131681485D01*
X90038765Y-131682943D01*
X90036889Y-131682758D01*
X90036000Y-131681095D01*
X90036000Y-130368909D01*
X90036889Y-130367246D01*
X90038765Y-130367061D01*
X90039962Y-130368519D01*
X90048295Y-130410423D01*
X90151700Y-130410424D01*
X90160038Y-130368507D01*
X90161235Y-130367049D01*
X90163111Y-130367234D01*
G37*
G36*
X89663111Y-130367234D02*
G01*
X89664000Y-130368897D01*
X89664000Y-131681097D01*
X89663111Y-131682760D01*
X89661235Y-131682945D01*
X89660038Y-131681487D01*
X89651702Y-131639575D01*
X89548298Y-131639575D01*
X89539962Y-131681485D01*
X89538765Y-131682943D01*
X89536889Y-131682758D01*
X89536000Y-131681095D01*
X89536000Y-130368909D01*
X89536889Y-130367246D01*
X89538765Y-130367061D01*
X89539962Y-130368519D01*
X89548295Y-130410423D01*
X89651700Y-130410424D01*
X89660038Y-130368507D01*
X89661235Y-130367049D01*
X89663111Y-130367234D01*
G37*
G36*
X89163111Y-130367234D02*
G01*
X89164000Y-130368897D01*
X89164000Y-131681097D01*
X89163111Y-131682760D01*
X89161235Y-131682945D01*
X89160038Y-131681487D01*
X89151702Y-131639575D01*
X89048298Y-131639575D01*
X89039962Y-131681485D01*
X89038765Y-131682943D01*
X89036889Y-131682758D01*
X89036000Y-131681095D01*
X89036000Y-130368909D01*
X89036889Y-130367246D01*
X89038765Y-130367061D01*
X89039962Y-130368519D01*
X89048295Y-130410423D01*
X89151700Y-130410424D01*
X89160038Y-130368507D01*
X89161235Y-130367049D01*
X89163111Y-130367234D01*
G37*
G36*
X88663111Y-130367234D02*
G01*
X88664000Y-130368897D01*
X88664000Y-131681097D01*
X88663111Y-131682760D01*
X88661235Y-131682945D01*
X88660038Y-131681487D01*
X88651702Y-131639575D01*
X88548298Y-131639575D01*
X88539962Y-131681485D01*
X88538765Y-131682943D01*
X88536889Y-131682758D01*
X88536000Y-131681095D01*
X88536000Y-130368909D01*
X88536889Y-130367246D01*
X88538765Y-130367061D01*
X88539962Y-130368519D01*
X88548295Y-130410423D01*
X88651700Y-130410424D01*
X88660038Y-130368507D01*
X88661235Y-130367049D01*
X88663111Y-130367234D01*
G37*
G36*
X88163111Y-130367234D02*
G01*
X88164000Y-130368897D01*
X88164000Y-131681097D01*
X88163111Y-131682760D01*
X88161235Y-131682945D01*
X88160038Y-131681487D01*
X88151702Y-131639575D01*
X88048298Y-131639575D01*
X88039962Y-131681485D01*
X88038765Y-131682943D01*
X88036889Y-131682758D01*
X88036000Y-131681095D01*
X88036000Y-130368909D01*
X88036889Y-130367246D01*
X88038765Y-130367061D01*
X88039962Y-130368519D01*
X88048295Y-130410423D01*
X88151700Y-130410424D01*
X88160038Y-130368507D01*
X88161235Y-130367049D01*
X88163111Y-130367234D01*
G37*
G36*
X87663111Y-130367234D02*
G01*
X87664000Y-130368897D01*
X87664000Y-131681097D01*
X87663111Y-131682760D01*
X87661235Y-131682945D01*
X87660038Y-131681487D01*
X87651702Y-131639575D01*
X87548298Y-131639575D01*
X87539962Y-131681485D01*
X87538765Y-131682943D01*
X87536889Y-131682758D01*
X87536000Y-131681095D01*
X87536000Y-130368909D01*
X87536889Y-130367246D01*
X87538765Y-130367061D01*
X87539962Y-130368519D01*
X87548295Y-130410423D01*
X87651700Y-130410424D01*
X87660038Y-130368507D01*
X87661235Y-130367049D01*
X87663111Y-130367234D01*
G37*
G36*
X87163111Y-130367234D02*
G01*
X87164000Y-130368897D01*
X87164000Y-131681097D01*
X87163111Y-131682760D01*
X87161235Y-131682945D01*
X87160038Y-131681487D01*
X87151702Y-131639575D01*
X87048298Y-131639575D01*
X87039962Y-131681485D01*
X87038765Y-131682943D01*
X87036889Y-131682758D01*
X87036000Y-131681095D01*
X87036000Y-130368909D01*
X87036889Y-130367246D01*
X87038765Y-130367061D01*
X87039962Y-130368519D01*
X87048295Y-130410423D01*
X87151700Y-130410424D01*
X87160038Y-130368507D01*
X87161235Y-130367049D01*
X87163111Y-130367234D01*
G37*
G36*
X86663111Y-130367234D02*
G01*
X86664000Y-130368897D01*
X86664000Y-131681097D01*
X86663111Y-131682760D01*
X86661235Y-131682945D01*
X86660038Y-131681487D01*
X86651702Y-131639575D01*
X86548298Y-131639575D01*
X86539962Y-131681485D01*
X86538765Y-131682943D01*
X86536889Y-131682758D01*
X86536000Y-131681095D01*
X86536000Y-130368909D01*
X86536889Y-130367246D01*
X86538765Y-130367061D01*
X86539962Y-130368519D01*
X86548295Y-130410423D01*
X86651700Y-130410424D01*
X86660038Y-130368507D01*
X86661235Y-130367049D01*
X86663111Y-130367234D01*
G37*
G36*
X86163111Y-130367234D02*
G01*
X86164000Y-130368897D01*
X86164000Y-131681097D01*
X86163111Y-131682760D01*
X86161235Y-131682945D01*
X86160038Y-131681487D01*
X86151702Y-131639575D01*
X86048298Y-131639575D01*
X86039962Y-131681485D01*
X86038765Y-131682943D01*
X86036889Y-131682758D01*
X86036000Y-131681095D01*
X86036000Y-130368909D01*
X86036889Y-130367246D01*
X86038765Y-130367061D01*
X86039962Y-130368519D01*
X86048295Y-130410423D01*
X86151700Y-130410424D01*
X86160038Y-130368507D01*
X86161235Y-130367049D01*
X86163111Y-130367234D01*
G37*
G36*
X85663111Y-130367234D02*
G01*
X85664000Y-130368897D01*
X85664000Y-131681097D01*
X85663111Y-131682760D01*
X85661235Y-131682945D01*
X85660038Y-131681487D01*
X85651702Y-131639575D01*
X85548298Y-131639575D01*
X85539962Y-131681485D01*
X85538765Y-131682943D01*
X85536889Y-131682758D01*
X85536000Y-131681095D01*
X85536000Y-130368909D01*
X85536889Y-130367246D01*
X85538765Y-130367061D01*
X85539962Y-130368519D01*
X85548295Y-130410423D01*
X85651700Y-130410424D01*
X85660038Y-130368507D01*
X85661235Y-130367049D01*
X85663111Y-130367234D01*
G37*
G36*
X85163111Y-130367234D02*
G01*
X85164000Y-130368897D01*
X85164000Y-131681097D01*
X85163111Y-131682760D01*
X85161235Y-131682945D01*
X85160038Y-131681487D01*
X85151702Y-131639575D01*
X85048298Y-131639575D01*
X85039962Y-131681485D01*
X85038765Y-131682943D01*
X85036889Y-131682758D01*
X85036000Y-131681095D01*
X85036000Y-130368909D01*
X85036889Y-130367246D01*
X85038765Y-130367061D01*
X85039962Y-130368519D01*
X85048295Y-130410423D01*
X85151700Y-130410424D01*
X85160038Y-130368507D01*
X85161235Y-130367049D01*
X85163111Y-130367234D01*
G37*
G36*
X84663111Y-130367234D02*
G01*
X84664000Y-130368897D01*
X84664000Y-131681097D01*
X84663111Y-131682760D01*
X84661235Y-131682945D01*
X84660038Y-131681487D01*
X84651702Y-131639575D01*
X84548298Y-131639575D01*
X84539962Y-131681485D01*
X84538765Y-131682943D01*
X84536889Y-131682758D01*
X84536000Y-131681095D01*
X84536000Y-130368909D01*
X84536889Y-130367246D01*
X84538765Y-130367061D01*
X84539962Y-130368519D01*
X84548295Y-130410423D01*
X84651700Y-130410424D01*
X84660038Y-130368507D01*
X84661235Y-130367049D01*
X84663111Y-130367234D01*
G37*
G36*
X84163111Y-130367234D02*
G01*
X84164000Y-130368897D01*
X84164000Y-131681097D01*
X84163111Y-131682760D01*
X84161235Y-131682945D01*
X84160038Y-131681487D01*
X84151702Y-131639575D01*
X84048298Y-131639575D01*
X84039962Y-131681485D01*
X84038765Y-131682943D01*
X84036889Y-131682758D01*
X84036000Y-131681095D01*
X84036000Y-130368909D01*
X84036889Y-130367246D01*
X84038765Y-130367061D01*
X84039962Y-130368519D01*
X84048295Y-130410423D01*
X84151700Y-130410424D01*
X84160038Y-130368507D01*
X84161235Y-130367049D01*
X84163111Y-130367234D01*
G37*
G36*
X83663111Y-130367234D02*
G01*
X83664000Y-130368897D01*
X83664000Y-131681097D01*
X83663111Y-131682760D01*
X83661235Y-131682945D01*
X83660038Y-131681487D01*
X83651702Y-131639575D01*
X83548298Y-131639575D01*
X83539962Y-131681485D01*
X83538765Y-131682943D01*
X83536889Y-131682758D01*
X83536000Y-131681095D01*
X83536000Y-130368909D01*
X83536889Y-130367246D01*
X83538765Y-130367061D01*
X83539962Y-130368519D01*
X83548295Y-130410423D01*
X83651700Y-130410424D01*
X83660038Y-130368507D01*
X83661235Y-130367049D01*
X83663111Y-130367234D01*
G37*
G36*
X83163111Y-130367234D02*
G01*
X83164000Y-130368897D01*
X83164000Y-131681097D01*
X83163111Y-131682760D01*
X83161235Y-131682945D01*
X83160038Y-131681487D01*
X83151702Y-131639575D01*
X83048298Y-131639575D01*
X83039962Y-131681485D01*
X83038765Y-131682943D01*
X83036889Y-131682758D01*
X83036000Y-131681095D01*
X83036000Y-130368909D01*
X83036889Y-130367246D01*
X83038765Y-130367061D01*
X83039962Y-130368519D01*
X83048295Y-130410423D01*
X83151700Y-130410424D01*
X83160038Y-130368507D01*
X83161235Y-130367049D01*
X83163111Y-130367234D01*
G37*
G36*
X82663111Y-130367234D02*
G01*
X82664000Y-130368897D01*
X82664000Y-131681097D01*
X82663111Y-131682760D01*
X82661235Y-131682945D01*
X82660038Y-131681487D01*
X82651702Y-131639575D01*
X82548298Y-131639575D01*
X82539962Y-131681485D01*
X82538765Y-131682943D01*
X82536889Y-131682758D01*
X82536000Y-131681095D01*
X82536000Y-130368909D01*
X82536889Y-130367246D01*
X82538765Y-130367061D01*
X82539962Y-130368519D01*
X82548295Y-130410423D01*
X82651700Y-130410424D01*
X82660038Y-130368507D01*
X82661235Y-130367049D01*
X82663111Y-130367234D01*
G37*
G36*
X111420251Y-127799389D02*
G01*
X111420436Y-127801265D01*
X111418978Y-127802462D01*
X111377075Y-127810795D01*
X111377074Y-127914200D01*
X111418992Y-127922538D01*
X111420450Y-127923735D01*
X111420265Y-127925611D01*
X111418602Y-127926500D01*
X110106402Y-127926500D01*
X110104739Y-127925611D01*
X110104554Y-127923735D01*
X110106012Y-127922538D01*
X110147924Y-127914202D01*
X110147924Y-127810798D01*
X110106014Y-127802462D01*
X110104556Y-127801265D01*
X110104741Y-127799389D01*
X110106404Y-127798500D01*
X111418588Y-127798500D01*
X111420251Y-127799389D01*
G37*
G36*
X80095251Y-127799389D02*
G01*
X80095436Y-127801265D01*
X80093978Y-127802462D01*
X80052075Y-127810795D01*
X80052074Y-127914200D01*
X80093992Y-127922538D01*
X80095450Y-127923735D01*
X80095265Y-127925611D01*
X80093602Y-127926500D01*
X78781402Y-127926500D01*
X78779739Y-127925611D01*
X78779554Y-127923735D01*
X78781012Y-127922538D01*
X78822924Y-127914202D01*
X78822924Y-127810798D01*
X78781014Y-127802462D01*
X78779556Y-127801265D01*
X78779741Y-127799389D01*
X78781404Y-127798500D01*
X80093588Y-127798500D01*
X80095251Y-127799389D01*
G37*
G36*
X111420251Y-127299389D02*
G01*
X111420436Y-127301265D01*
X111418978Y-127302462D01*
X111377075Y-127310795D01*
X111377074Y-127414200D01*
X111418992Y-127422538D01*
X111420450Y-127423735D01*
X111420265Y-127425611D01*
X111418602Y-127426500D01*
X110106402Y-127426500D01*
X110104739Y-127425611D01*
X110104554Y-127423735D01*
X110106012Y-127422538D01*
X110147924Y-127414202D01*
X110147924Y-127310798D01*
X110106014Y-127302462D01*
X110104556Y-127301265D01*
X110104741Y-127299389D01*
X110106404Y-127298500D01*
X111418588Y-127298500D01*
X111420251Y-127299389D01*
G37*
G36*
X80095251Y-127299389D02*
G01*
X80095436Y-127301265D01*
X80093978Y-127302462D01*
X80052075Y-127310795D01*
X80052074Y-127414200D01*
X80093992Y-127422538D01*
X80095450Y-127423735D01*
X80095265Y-127425611D01*
X80093602Y-127426500D01*
X78781402Y-127426500D01*
X78779739Y-127425611D01*
X78779554Y-127423735D01*
X78781012Y-127422538D01*
X78822924Y-127414202D01*
X78822924Y-127310798D01*
X78781014Y-127302462D01*
X78779556Y-127301265D01*
X78779741Y-127299389D01*
X78781404Y-127298500D01*
X80093588Y-127298500D01*
X80095251Y-127299389D01*
G37*
G36*
X111420251Y-126799389D02*
G01*
X111420436Y-126801265D01*
X111418978Y-126802462D01*
X111377075Y-126810795D01*
X111377074Y-126914200D01*
X111418992Y-126922538D01*
X111420450Y-126923735D01*
X111420265Y-126925611D01*
X111418602Y-126926500D01*
X110106402Y-126926500D01*
X110104739Y-126925611D01*
X110104554Y-126923735D01*
X110106012Y-126922538D01*
X110147924Y-126914202D01*
X110147924Y-126810798D01*
X110106014Y-126802462D01*
X110104556Y-126801265D01*
X110104741Y-126799389D01*
X110106404Y-126798500D01*
X111418588Y-126798500D01*
X111420251Y-126799389D01*
G37*
G36*
X80095251Y-126799389D02*
G01*
X80095436Y-126801265D01*
X80093978Y-126802462D01*
X80052075Y-126810795D01*
X80052074Y-126914200D01*
X80093992Y-126922538D01*
X80095450Y-126923735D01*
X80095265Y-126925611D01*
X80093602Y-126926500D01*
X78781402Y-126926500D01*
X78779739Y-126925611D01*
X78779554Y-126923735D01*
X78781012Y-126922538D01*
X78822924Y-126914202D01*
X78822924Y-126810798D01*
X78781014Y-126802462D01*
X78779556Y-126801265D01*
X78779741Y-126799389D01*
X78781404Y-126798500D01*
X80093588Y-126798500D01*
X80095251Y-126799389D01*
G37*
G36*
X111420251Y-126299389D02*
G01*
X111420436Y-126301265D01*
X111418978Y-126302462D01*
X111377075Y-126310795D01*
X111377074Y-126414200D01*
X111418992Y-126422538D01*
X111420450Y-126423735D01*
X111420265Y-126425611D01*
X111418602Y-126426500D01*
X110106402Y-126426500D01*
X110104739Y-126425611D01*
X110104554Y-126423735D01*
X110106012Y-126422538D01*
X110147924Y-126414202D01*
X110147924Y-126310798D01*
X110106014Y-126302462D01*
X110104556Y-126301265D01*
X110104741Y-126299389D01*
X110106404Y-126298500D01*
X111418588Y-126298500D01*
X111420251Y-126299389D01*
G37*
G36*
X80095251Y-126299389D02*
G01*
X80095436Y-126301265D01*
X80093978Y-126302462D01*
X80052075Y-126310795D01*
X80052074Y-126414200D01*
X80093992Y-126422538D01*
X80095450Y-126423735D01*
X80095265Y-126425611D01*
X80093602Y-126426500D01*
X78781402Y-126426500D01*
X78779739Y-126425611D01*
X78779554Y-126423735D01*
X78781012Y-126422538D01*
X78822924Y-126414202D01*
X78822924Y-126310798D01*
X78781014Y-126302462D01*
X78779556Y-126301265D01*
X78779741Y-126299389D01*
X78781404Y-126298500D01*
X80093588Y-126298500D01*
X80095251Y-126299389D01*
G37*
G36*
X111420251Y-125799389D02*
G01*
X111420436Y-125801265D01*
X111418978Y-125802462D01*
X111377075Y-125810795D01*
X111377074Y-125914200D01*
X111418992Y-125922538D01*
X111420450Y-125923735D01*
X111420265Y-125925611D01*
X111418602Y-125926500D01*
X110106402Y-125926500D01*
X110104739Y-125925611D01*
X110104554Y-125923735D01*
X110106012Y-125922538D01*
X110147924Y-125914202D01*
X110147924Y-125810798D01*
X110106014Y-125802462D01*
X110104556Y-125801265D01*
X110104741Y-125799389D01*
X110106404Y-125798500D01*
X111418588Y-125798500D01*
X111420251Y-125799389D01*
G37*
G36*
X80095251Y-125799389D02*
G01*
X80095436Y-125801265D01*
X80093978Y-125802462D01*
X80052075Y-125810795D01*
X80052074Y-125914200D01*
X80093992Y-125922538D01*
X80095450Y-125923735D01*
X80095265Y-125925611D01*
X80093602Y-125926500D01*
X78781402Y-125926500D01*
X78779739Y-125925611D01*
X78779554Y-125923735D01*
X78781012Y-125922538D01*
X78822924Y-125914202D01*
X78822924Y-125810798D01*
X78781014Y-125802462D01*
X78779556Y-125801265D01*
X78779741Y-125799389D01*
X78781404Y-125798500D01*
X80093588Y-125798500D01*
X80095251Y-125799389D01*
G37*
G36*
X111420251Y-125299389D02*
G01*
X111420436Y-125301265D01*
X111418978Y-125302462D01*
X111377075Y-125310795D01*
X111377074Y-125414200D01*
X111418992Y-125422538D01*
X111420450Y-125423735D01*
X111420265Y-125425611D01*
X111418602Y-125426500D01*
X110106402Y-125426500D01*
X110104739Y-125425611D01*
X110104554Y-125423735D01*
X110106012Y-125422538D01*
X110147924Y-125414202D01*
X110147924Y-125310798D01*
X110106014Y-125302462D01*
X110104556Y-125301265D01*
X110104741Y-125299389D01*
X110106404Y-125298500D01*
X111418588Y-125298500D01*
X111420251Y-125299389D01*
G37*
G36*
X80095251Y-125299389D02*
G01*
X80095436Y-125301265D01*
X80093978Y-125302462D01*
X80052075Y-125310795D01*
X80052074Y-125414200D01*
X80093992Y-125422538D01*
X80095450Y-125423735D01*
X80095265Y-125425611D01*
X80093602Y-125426500D01*
X78781402Y-125426500D01*
X78779739Y-125425611D01*
X78779554Y-125423735D01*
X78781012Y-125422538D01*
X78822924Y-125414202D01*
X78822924Y-125310798D01*
X78781014Y-125302462D01*
X78779556Y-125301265D01*
X78779741Y-125299389D01*
X78781404Y-125298500D01*
X80093588Y-125298500D01*
X80095251Y-125299389D01*
G37*
G36*
X111420251Y-124799389D02*
G01*
X111420436Y-124801265D01*
X111418978Y-124802462D01*
X111377075Y-124810795D01*
X111377074Y-124914200D01*
X111418992Y-124922538D01*
X111420450Y-124923735D01*
X111420265Y-124925611D01*
X111418602Y-124926500D01*
X110106402Y-124926500D01*
X110104739Y-124925611D01*
X110104554Y-124923735D01*
X110106012Y-124922538D01*
X110147924Y-124914202D01*
X110147924Y-124810798D01*
X110106014Y-124802462D01*
X110104556Y-124801265D01*
X110104741Y-124799389D01*
X110106404Y-124798500D01*
X111418588Y-124798500D01*
X111420251Y-124799389D01*
G37*
G36*
X80095251Y-124799389D02*
G01*
X80095436Y-124801265D01*
X80093978Y-124802462D01*
X80052075Y-124810795D01*
X80052074Y-124914200D01*
X80093992Y-124922538D01*
X80095450Y-124923735D01*
X80095265Y-124925611D01*
X80093602Y-124926500D01*
X78781402Y-124926500D01*
X78779739Y-124925611D01*
X78779554Y-124923735D01*
X78781012Y-124922538D01*
X78822924Y-124914202D01*
X78822924Y-124810798D01*
X78781014Y-124802462D01*
X78779556Y-124801265D01*
X78779741Y-124799389D01*
X78781404Y-124798500D01*
X80093588Y-124798500D01*
X80095251Y-124799389D01*
G37*
G36*
X111420251Y-124299389D02*
G01*
X111420436Y-124301265D01*
X111418978Y-124302462D01*
X111377075Y-124310795D01*
X111377074Y-124414200D01*
X111418992Y-124422538D01*
X111420450Y-124423735D01*
X111420265Y-124425611D01*
X111418602Y-124426500D01*
X110106402Y-124426500D01*
X110104739Y-124425611D01*
X110104554Y-124423735D01*
X110106012Y-124422538D01*
X110147924Y-124414202D01*
X110147924Y-124310798D01*
X110106014Y-124302462D01*
X110104556Y-124301265D01*
X110104741Y-124299389D01*
X110106404Y-124298500D01*
X111418588Y-124298500D01*
X111420251Y-124299389D01*
G37*
G36*
X80095251Y-124299389D02*
G01*
X80095436Y-124301265D01*
X80093978Y-124302462D01*
X80052075Y-124310795D01*
X80052074Y-124414200D01*
X80093992Y-124422538D01*
X80095450Y-124423735D01*
X80095265Y-124425611D01*
X80093602Y-124426500D01*
X78781402Y-124426500D01*
X78779739Y-124425611D01*
X78779554Y-124423735D01*
X78781012Y-124422538D01*
X78822924Y-124414202D01*
X78822924Y-124310798D01*
X78781014Y-124302462D01*
X78779556Y-124301265D01*
X78779741Y-124299389D01*
X78781404Y-124298500D01*
X80093588Y-124298500D01*
X80095251Y-124299389D01*
G37*
G36*
X111420251Y-123799389D02*
G01*
X111420436Y-123801265D01*
X111418978Y-123802462D01*
X111377075Y-123810795D01*
X111377074Y-123914200D01*
X111418992Y-123922538D01*
X111420450Y-123923735D01*
X111420265Y-123925611D01*
X111418602Y-123926500D01*
X110106402Y-123926500D01*
X110104739Y-123925611D01*
X110104554Y-123923735D01*
X110106012Y-123922538D01*
X110147924Y-123914202D01*
X110147924Y-123810798D01*
X110106014Y-123802462D01*
X110104556Y-123801265D01*
X110104741Y-123799389D01*
X110106404Y-123798500D01*
X111418588Y-123798500D01*
X111420251Y-123799389D01*
G37*
G36*
X80095251Y-123799389D02*
G01*
X80095436Y-123801265D01*
X80093978Y-123802462D01*
X80052075Y-123810795D01*
X80052074Y-123914200D01*
X80093992Y-123922538D01*
X80095450Y-123923735D01*
X80095265Y-123925611D01*
X80093602Y-123926500D01*
X78781402Y-123926500D01*
X78779739Y-123925611D01*
X78779554Y-123923735D01*
X78781012Y-123922538D01*
X78822924Y-123914202D01*
X78822924Y-123810798D01*
X78781014Y-123802462D01*
X78779556Y-123801265D01*
X78779741Y-123799389D01*
X78781404Y-123798500D01*
X80093588Y-123798500D01*
X80095251Y-123799389D01*
G37*
G36*
X111420251Y-123299389D02*
G01*
X111420436Y-123301265D01*
X111418978Y-123302462D01*
X111377075Y-123310795D01*
X111377074Y-123414200D01*
X111418992Y-123422538D01*
X111420450Y-123423735D01*
X111420265Y-123425611D01*
X111418602Y-123426500D01*
X110106402Y-123426500D01*
X110104739Y-123425611D01*
X110104554Y-123423735D01*
X110106012Y-123422538D01*
X110147924Y-123414202D01*
X110147924Y-123310798D01*
X110106014Y-123302462D01*
X110104556Y-123301265D01*
X110104741Y-123299389D01*
X110106404Y-123298500D01*
X111418588Y-123298500D01*
X111420251Y-123299389D01*
G37*
G36*
X80095251Y-123299389D02*
G01*
X80095436Y-123301265D01*
X80093978Y-123302462D01*
X80052075Y-123310795D01*
X80052074Y-123414200D01*
X80093992Y-123422538D01*
X80095450Y-123423735D01*
X80095265Y-123425611D01*
X80093602Y-123426500D01*
X78781402Y-123426500D01*
X78779739Y-123425611D01*
X78779554Y-123423735D01*
X78781012Y-123422538D01*
X78822924Y-123414202D01*
X78822924Y-123310798D01*
X78781014Y-123302462D01*
X78779556Y-123301265D01*
X78779741Y-123299389D01*
X78781404Y-123298500D01*
X80093588Y-123298500D01*
X80095251Y-123299389D01*
G37*
G36*
X111420251Y-122799389D02*
G01*
X111420436Y-122801265D01*
X111418978Y-122802462D01*
X111377075Y-122810795D01*
X111377074Y-122914200D01*
X111418992Y-122922538D01*
X111420450Y-122923735D01*
X111420265Y-122925611D01*
X111418602Y-122926500D01*
X110106402Y-122926500D01*
X110104739Y-122925611D01*
X110104554Y-122923735D01*
X110106012Y-122922538D01*
X110147924Y-122914202D01*
X110147924Y-122810798D01*
X110106014Y-122802462D01*
X110104556Y-122801265D01*
X110104741Y-122799389D01*
X110106404Y-122798500D01*
X111418588Y-122798500D01*
X111420251Y-122799389D01*
G37*
G36*
X80095251Y-122799389D02*
G01*
X80095436Y-122801265D01*
X80093978Y-122802462D01*
X80052075Y-122810795D01*
X80052074Y-122914200D01*
X80093992Y-122922538D01*
X80095450Y-122923735D01*
X80095265Y-122925611D01*
X80093602Y-122926500D01*
X78781402Y-122926500D01*
X78779739Y-122925611D01*
X78779554Y-122923735D01*
X78781012Y-122922538D01*
X78822924Y-122914202D01*
X78822924Y-122810798D01*
X78781014Y-122802462D01*
X78779556Y-122801265D01*
X78779741Y-122799389D01*
X78781404Y-122798500D01*
X80093588Y-122798500D01*
X80095251Y-122799389D01*
G37*
G36*
X111420251Y-122299389D02*
G01*
X111420436Y-122301265D01*
X111418978Y-122302462D01*
X111377075Y-122310795D01*
X111377074Y-122414200D01*
X111418992Y-122422538D01*
X111420450Y-122423735D01*
X111420265Y-122425611D01*
X111418602Y-122426500D01*
X110106402Y-122426500D01*
X110104739Y-122425611D01*
X110104554Y-122423735D01*
X110106012Y-122422538D01*
X110147924Y-122414202D01*
X110147924Y-122310798D01*
X110106014Y-122302462D01*
X110104556Y-122301265D01*
X110104741Y-122299389D01*
X110106404Y-122298500D01*
X111418588Y-122298500D01*
X111420251Y-122299389D01*
G37*
G36*
X80095251Y-122299389D02*
G01*
X80095436Y-122301265D01*
X80093978Y-122302462D01*
X80052075Y-122310795D01*
X80052074Y-122414200D01*
X80093992Y-122422538D01*
X80095450Y-122423735D01*
X80095265Y-122425611D01*
X80093602Y-122426500D01*
X78781402Y-122426500D01*
X78779739Y-122425611D01*
X78779554Y-122423735D01*
X78781012Y-122422538D01*
X78822924Y-122414202D01*
X78822924Y-122310798D01*
X78781014Y-122302462D01*
X78779556Y-122301265D01*
X78779741Y-122299389D01*
X78781404Y-122298500D01*
X80093588Y-122298500D01*
X80095251Y-122299389D01*
G37*
G36*
X111420251Y-121799389D02*
G01*
X111420436Y-121801265D01*
X111418978Y-121802462D01*
X111377075Y-121810795D01*
X111377074Y-121914200D01*
X111418992Y-121922538D01*
X111420450Y-121923735D01*
X111420265Y-121925611D01*
X111418602Y-121926500D01*
X110106402Y-121926500D01*
X110104739Y-121925611D01*
X110104554Y-121923735D01*
X110106012Y-121922538D01*
X110147924Y-121914202D01*
X110147924Y-121810798D01*
X110106014Y-121802462D01*
X110104556Y-121801265D01*
X110104741Y-121799389D01*
X110106404Y-121798500D01*
X111418588Y-121798500D01*
X111420251Y-121799389D01*
G37*
G36*
X80095251Y-121799389D02*
G01*
X80095436Y-121801265D01*
X80093978Y-121802462D01*
X80052075Y-121810795D01*
X80052074Y-121914200D01*
X80093992Y-121922538D01*
X80095450Y-121923735D01*
X80095265Y-121925611D01*
X80093602Y-121926500D01*
X78781402Y-121926500D01*
X78779739Y-121925611D01*
X78779554Y-121923735D01*
X78781012Y-121922538D01*
X78822924Y-121914202D01*
X78822924Y-121810798D01*
X78781014Y-121802462D01*
X78779556Y-121801265D01*
X78779741Y-121799389D01*
X78781404Y-121798500D01*
X80093588Y-121798500D01*
X80095251Y-121799389D01*
G37*
G36*
X111420251Y-121299389D02*
G01*
X111420436Y-121301265D01*
X111418978Y-121302462D01*
X111377075Y-121310795D01*
X111377074Y-121414200D01*
X111418992Y-121422538D01*
X111420450Y-121423735D01*
X111420265Y-121425611D01*
X111418602Y-121426500D01*
X110106402Y-121426500D01*
X110104739Y-121425611D01*
X110104554Y-121423735D01*
X110106012Y-121422538D01*
X110147924Y-121414202D01*
X110147924Y-121310798D01*
X110106014Y-121302462D01*
X110104556Y-121301265D01*
X110104741Y-121299389D01*
X110106404Y-121298500D01*
X111418588Y-121298500D01*
X111420251Y-121299389D01*
G37*
G36*
X80095251Y-121299389D02*
G01*
X80095436Y-121301265D01*
X80093978Y-121302462D01*
X80052075Y-121310795D01*
X80052074Y-121414200D01*
X80093992Y-121422538D01*
X80095450Y-121423735D01*
X80095265Y-121425611D01*
X80093602Y-121426500D01*
X78781402Y-121426500D01*
X78779739Y-121425611D01*
X78779554Y-121423735D01*
X78781012Y-121422538D01*
X78822924Y-121414202D01*
X78822924Y-121310798D01*
X78781014Y-121302462D01*
X78779556Y-121301265D01*
X78779741Y-121299389D01*
X78781404Y-121298500D01*
X80093588Y-121298500D01*
X80095251Y-121299389D01*
G37*
G36*
X111420251Y-120799389D02*
G01*
X111420436Y-120801265D01*
X111418978Y-120802462D01*
X111377075Y-120810795D01*
X111377074Y-120914200D01*
X111418992Y-120922538D01*
X111420450Y-120923735D01*
X111420265Y-120925611D01*
X111418602Y-120926500D01*
X110106402Y-120926500D01*
X110104739Y-120925611D01*
X110104554Y-120923735D01*
X110106012Y-120922538D01*
X110147924Y-120914202D01*
X110147924Y-120810798D01*
X110106014Y-120802462D01*
X110104556Y-120801265D01*
X110104741Y-120799389D01*
X110106404Y-120798500D01*
X111418588Y-120798500D01*
X111420251Y-120799389D01*
G37*
G36*
X80095251Y-120799389D02*
G01*
X80095436Y-120801265D01*
X80093978Y-120802462D01*
X80052075Y-120810795D01*
X80052074Y-120914200D01*
X80093992Y-120922538D01*
X80095450Y-120923735D01*
X80095265Y-120925611D01*
X80093602Y-120926500D01*
X78781402Y-120926500D01*
X78779739Y-120925611D01*
X78779554Y-120923735D01*
X78781012Y-120922538D01*
X78822924Y-120914202D01*
X78822924Y-120810798D01*
X78781014Y-120802462D01*
X78779556Y-120801265D01*
X78779741Y-120799389D01*
X78781404Y-120798500D01*
X80093588Y-120798500D01*
X80095251Y-120799389D01*
G37*
G36*
X111420251Y-120299389D02*
G01*
X111420436Y-120301265D01*
X111418978Y-120302462D01*
X111377075Y-120310795D01*
X111377074Y-120414200D01*
X111418992Y-120422538D01*
X111420450Y-120423735D01*
X111420265Y-120425611D01*
X111418602Y-120426500D01*
X110106402Y-120426500D01*
X110104739Y-120425611D01*
X110104554Y-120423735D01*
X110106012Y-120422538D01*
X110147924Y-120414202D01*
X110147924Y-120310798D01*
X110106014Y-120302462D01*
X110104556Y-120301265D01*
X110104741Y-120299389D01*
X110106404Y-120298500D01*
X111418588Y-120298500D01*
X111420251Y-120299389D01*
G37*
G36*
X80095251Y-120299389D02*
G01*
X80095436Y-120301265D01*
X80093978Y-120302462D01*
X80052075Y-120310795D01*
X80052074Y-120414200D01*
X80093992Y-120422538D01*
X80095450Y-120423735D01*
X80095265Y-120425611D01*
X80093602Y-120426500D01*
X78781402Y-120426500D01*
X78779739Y-120425611D01*
X78779554Y-120423735D01*
X78781012Y-120422538D01*
X78822924Y-120414202D01*
X78822924Y-120310798D01*
X78781014Y-120302462D01*
X78779556Y-120301265D01*
X78779741Y-120299389D01*
X78781404Y-120298500D01*
X80093588Y-120298500D01*
X80095251Y-120299389D01*
G37*
G36*
X111420251Y-119799389D02*
G01*
X111420436Y-119801265D01*
X111418978Y-119802462D01*
X111377075Y-119810795D01*
X111377074Y-119914200D01*
X111418992Y-119922538D01*
X111420450Y-119923735D01*
X111420265Y-119925611D01*
X111418602Y-119926500D01*
X110106402Y-119926500D01*
X110104739Y-119925611D01*
X110104554Y-119923735D01*
X110106012Y-119922538D01*
X110147924Y-119914202D01*
X110147924Y-119810798D01*
X110106014Y-119802462D01*
X110104556Y-119801265D01*
X110104741Y-119799389D01*
X110106404Y-119798500D01*
X111418588Y-119798500D01*
X111420251Y-119799389D01*
G37*
G36*
X80095251Y-119799389D02*
G01*
X80095436Y-119801265D01*
X80093978Y-119802462D01*
X80052075Y-119810795D01*
X80052074Y-119914200D01*
X80093992Y-119922538D01*
X80095450Y-119923735D01*
X80095265Y-119925611D01*
X80093602Y-119926500D01*
X78781402Y-119926500D01*
X78779739Y-119925611D01*
X78779554Y-119923735D01*
X78781012Y-119922538D01*
X78822924Y-119914202D01*
X78822924Y-119810798D01*
X78781014Y-119802462D01*
X78779556Y-119801265D01*
X78779741Y-119799389D01*
X78781404Y-119798500D01*
X80093588Y-119798500D01*
X80095251Y-119799389D01*
G37*
G36*
X111420251Y-119299389D02*
G01*
X111420436Y-119301265D01*
X111418978Y-119302462D01*
X111377075Y-119310795D01*
X111377074Y-119414200D01*
X111418992Y-119422538D01*
X111420450Y-119423735D01*
X111420265Y-119425611D01*
X111418602Y-119426500D01*
X110106402Y-119426500D01*
X110104739Y-119425611D01*
X110104554Y-119423735D01*
X110106012Y-119422538D01*
X110147924Y-119414202D01*
X110147924Y-119310798D01*
X110106014Y-119302462D01*
X110104556Y-119301265D01*
X110104741Y-119299389D01*
X110106404Y-119298500D01*
X111418588Y-119298500D01*
X111420251Y-119299389D01*
G37*
G36*
X80095251Y-119299389D02*
G01*
X80095436Y-119301265D01*
X80093978Y-119302462D01*
X80052075Y-119310795D01*
X80052074Y-119414200D01*
X80093992Y-119422538D01*
X80095450Y-119423735D01*
X80095265Y-119425611D01*
X80093602Y-119426500D01*
X78781402Y-119426500D01*
X78779739Y-119425611D01*
X78779554Y-119423735D01*
X78781012Y-119422538D01*
X78822924Y-119414202D01*
X78822924Y-119310798D01*
X78781014Y-119302462D01*
X78779556Y-119301265D01*
X78779741Y-119299389D01*
X78781404Y-119298500D01*
X80093588Y-119298500D01*
X80095251Y-119299389D01*
G37*
G36*
X111420251Y-118799389D02*
G01*
X111420436Y-118801265D01*
X111418978Y-118802462D01*
X111377075Y-118810795D01*
X111377074Y-118914200D01*
X111418992Y-118922538D01*
X111420450Y-118923735D01*
X111420265Y-118925611D01*
X111418602Y-118926500D01*
X110106402Y-118926500D01*
X110104739Y-118925611D01*
X110104554Y-118923735D01*
X110106012Y-118922538D01*
X110147924Y-118914202D01*
X110147924Y-118810798D01*
X110106014Y-118802462D01*
X110104556Y-118801265D01*
X110104741Y-118799389D01*
X110106404Y-118798500D01*
X111418588Y-118798500D01*
X111420251Y-118799389D01*
G37*
G36*
X80095251Y-118799389D02*
G01*
X80095436Y-118801265D01*
X80093978Y-118802462D01*
X80052075Y-118810795D01*
X80052074Y-118914200D01*
X80093992Y-118922538D01*
X80095450Y-118923735D01*
X80095265Y-118925611D01*
X80093602Y-118926500D01*
X78781402Y-118926500D01*
X78779739Y-118925611D01*
X78779554Y-118923735D01*
X78781012Y-118922538D01*
X78822924Y-118914202D01*
X78822924Y-118810798D01*
X78781014Y-118802462D01*
X78779556Y-118801265D01*
X78779741Y-118799389D01*
X78781404Y-118798500D01*
X80093588Y-118798500D01*
X80095251Y-118799389D01*
G37*
G36*
X111420251Y-118299389D02*
G01*
X111420436Y-118301265D01*
X111418978Y-118302462D01*
X111377075Y-118310795D01*
X111377074Y-118414200D01*
X111418992Y-118422538D01*
X111420450Y-118423735D01*
X111420265Y-118425611D01*
X111418602Y-118426500D01*
X110106402Y-118426500D01*
X110104739Y-118425611D01*
X110104554Y-118423735D01*
X110106012Y-118422538D01*
X110147924Y-118414202D01*
X110147924Y-118310798D01*
X110106014Y-118302462D01*
X110104556Y-118301265D01*
X110104741Y-118299389D01*
X110106404Y-118298500D01*
X111418588Y-118298500D01*
X111420251Y-118299389D01*
G37*
G36*
X80095251Y-118299389D02*
G01*
X80095436Y-118301265D01*
X80093978Y-118302462D01*
X80052075Y-118310795D01*
X80052074Y-118414200D01*
X80093992Y-118422538D01*
X80095450Y-118423735D01*
X80095265Y-118425611D01*
X80093602Y-118426500D01*
X78781402Y-118426500D01*
X78779739Y-118425611D01*
X78779554Y-118423735D01*
X78781012Y-118422538D01*
X78822924Y-118414202D01*
X78822924Y-118310798D01*
X78781014Y-118302462D01*
X78779556Y-118301265D01*
X78779741Y-118299389D01*
X78781404Y-118298500D01*
X80093588Y-118298500D01*
X80095251Y-118299389D01*
G37*
G36*
X111420251Y-117799389D02*
G01*
X111420436Y-117801265D01*
X111418978Y-117802462D01*
X111377075Y-117810795D01*
X111377074Y-117914200D01*
X111418992Y-117922538D01*
X111420450Y-117923735D01*
X111420265Y-117925611D01*
X111418602Y-117926500D01*
X110106402Y-117926500D01*
X110104739Y-117925611D01*
X110104554Y-117923735D01*
X110106012Y-117922538D01*
X110147924Y-117914202D01*
X110147924Y-117810798D01*
X110106014Y-117802462D01*
X110104556Y-117801265D01*
X110104741Y-117799389D01*
X110106404Y-117798500D01*
X111418588Y-117798500D01*
X111420251Y-117799389D01*
G37*
G36*
X80095251Y-117799389D02*
G01*
X80095436Y-117801265D01*
X80093978Y-117802462D01*
X80052075Y-117810795D01*
X80052074Y-117914200D01*
X80093992Y-117922538D01*
X80095450Y-117923735D01*
X80095265Y-117925611D01*
X80093602Y-117926500D01*
X78781402Y-117926500D01*
X78779739Y-117925611D01*
X78779554Y-117923735D01*
X78781012Y-117922538D01*
X78822924Y-117914202D01*
X78822924Y-117810798D01*
X78781014Y-117802462D01*
X78779556Y-117801265D01*
X78779741Y-117799389D01*
X78781404Y-117798500D01*
X80093588Y-117798500D01*
X80095251Y-117799389D01*
G37*
G36*
X111420251Y-117299389D02*
G01*
X111420436Y-117301265D01*
X111418978Y-117302462D01*
X111377075Y-117310795D01*
X111377074Y-117414200D01*
X111418992Y-117422538D01*
X111420450Y-117423735D01*
X111420265Y-117425611D01*
X111418602Y-117426500D01*
X110106402Y-117426500D01*
X110104739Y-117425611D01*
X110104554Y-117423735D01*
X110106012Y-117422538D01*
X110147924Y-117414202D01*
X110147924Y-117310798D01*
X110106014Y-117302462D01*
X110104556Y-117301265D01*
X110104741Y-117299389D01*
X110106404Y-117298500D01*
X111418588Y-117298500D01*
X111420251Y-117299389D01*
G37*
G36*
X80095251Y-117299389D02*
G01*
X80095436Y-117301265D01*
X80093978Y-117302462D01*
X80052075Y-117310795D01*
X80052074Y-117414200D01*
X80093992Y-117422538D01*
X80095450Y-117423735D01*
X80095265Y-117425611D01*
X80093602Y-117426500D01*
X78781402Y-117426500D01*
X78779739Y-117425611D01*
X78779554Y-117423735D01*
X78781012Y-117422538D01*
X78822924Y-117414202D01*
X78822924Y-117310798D01*
X78781014Y-117302462D01*
X78779556Y-117301265D01*
X78779741Y-117299389D01*
X78781404Y-117298500D01*
X80093588Y-117298500D01*
X80095251Y-117299389D01*
G37*
G36*
X111420251Y-116799389D02*
G01*
X111420436Y-116801265D01*
X111418978Y-116802462D01*
X111377075Y-116810795D01*
X111377074Y-116914200D01*
X111418992Y-116922538D01*
X111420450Y-116923735D01*
X111420265Y-116925611D01*
X111418602Y-116926500D01*
X110106402Y-116926500D01*
X110104739Y-116925611D01*
X110104554Y-116923735D01*
X110106012Y-116922538D01*
X110147924Y-116914202D01*
X110147924Y-116810798D01*
X110106014Y-116802462D01*
X110104556Y-116801265D01*
X110104741Y-116799389D01*
X110106404Y-116798500D01*
X111418588Y-116798500D01*
X111420251Y-116799389D01*
G37*
G36*
X80095251Y-116799389D02*
G01*
X80095436Y-116801265D01*
X80093978Y-116802462D01*
X80052075Y-116810795D01*
X80052074Y-116914200D01*
X80093992Y-116922538D01*
X80095450Y-116923735D01*
X80095265Y-116925611D01*
X80093602Y-116926500D01*
X78781402Y-116926500D01*
X78779739Y-116925611D01*
X78779554Y-116923735D01*
X78781012Y-116922538D01*
X78822924Y-116914202D01*
X78822924Y-116810798D01*
X78781014Y-116802462D01*
X78779556Y-116801265D01*
X78779741Y-116799389D01*
X78781404Y-116798500D01*
X80093588Y-116798500D01*
X80095251Y-116799389D01*
G37*
G36*
X111420251Y-116299389D02*
G01*
X111420436Y-116301265D01*
X111418978Y-116302462D01*
X111377075Y-116310795D01*
X111377074Y-116414200D01*
X111418992Y-116422538D01*
X111420450Y-116423735D01*
X111420265Y-116425611D01*
X111418602Y-116426500D01*
X110106402Y-116426500D01*
X110104739Y-116425611D01*
X110104554Y-116423735D01*
X110106012Y-116422538D01*
X110147924Y-116414202D01*
X110147924Y-116310798D01*
X110106014Y-116302462D01*
X110104556Y-116301265D01*
X110104741Y-116299389D01*
X110106404Y-116298500D01*
X111418588Y-116298500D01*
X111420251Y-116299389D01*
G37*
G36*
X80095251Y-116299389D02*
G01*
X80095436Y-116301265D01*
X80093978Y-116302462D01*
X80052075Y-116310795D01*
X80052074Y-116414200D01*
X80093992Y-116422538D01*
X80095450Y-116423735D01*
X80095265Y-116425611D01*
X80093602Y-116426500D01*
X78781402Y-116426500D01*
X78779739Y-116425611D01*
X78779554Y-116423735D01*
X78781012Y-116422538D01*
X78822924Y-116414202D01*
X78822924Y-116310798D01*
X78781014Y-116302462D01*
X78779556Y-116301265D01*
X78779741Y-116299389D01*
X78781404Y-116298500D01*
X80093588Y-116298500D01*
X80095251Y-116299389D01*
G37*
G36*
X111420251Y-115799389D02*
G01*
X111420436Y-115801265D01*
X111418978Y-115802462D01*
X111377075Y-115810795D01*
X111377074Y-115914200D01*
X111418992Y-115922538D01*
X111420450Y-115923735D01*
X111420265Y-115925611D01*
X111418602Y-115926500D01*
X110106402Y-115926500D01*
X110104739Y-115925611D01*
X110104554Y-115923735D01*
X110106012Y-115922538D01*
X110147924Y-115914202D01*
X110147924Y-115810798D01*
X110106014Y-115802462D01*
X110104556Y-115801265D01*
X110104741Y-115799389D01*
X110106404Y-115798500D01*
X111418588Y-115798500D01*
X111420251Y-115799389D01*
G37*
G36*
X80095251Y-115799389D02*
G01*
X80095436Y-115801265D01*
X80093978Y-115802462D01*
X80052075Y-115810795D01*
X80052074Y-115914200D01*
X80093992Y-115922538D01*
X80095450Y-115923735D01*
X80095265Y-115925611D01*
X80093602Y-115926500D01*
X78781402Y-115926500D01*
X78779739Y-115925611D01*
X78779554Y-115923735D01*
X78781012Y-115922538D01*
X78822924Y-115914202D01*
X78822924Y-115810798D01*
X78781014Y-115802462D01*
X78779556Y-115801265D01*
X78779741Y-115799389D01*
X78781404Y-115798500D01*
X80093588Y-115798500D01*
X80095251Y-115799389D01*
G37*
G36*
X111420251Y-115299389D02*
G01*
X111420436Y-115301265D01*
X111418978Y-115302462D01*
X111377075Y-115310795D01*
X111377074Y-115414200D01*
X111418992Y-115422538D01*
X111420450Y-115423735D01*
X111420265Y-115425611D01*
X111418602Y-115426500D01*
X110106402Y-115426500D01*
X110104739Y-115425611D01*
X110104554Y-115423735D01*
X110106012Y-115422538D01*
X110147924Y-115414202D01*
X110147924Y-115310798D01*
X110106014Y-115302462D01*
X110104556Y-115301265D01*
X110104741Y-115299389D01*
X110106404Y-115298500D01*
X111418588Y-115298500D01*
X111420251Y-115299389D01*
G37*
G36*
X80095251Y-115299389D02*
G01*
X80095436Y-115301265D01*
X80093978Y-115302462D01*
X80052075Y-115310795D01*
X80052074Y-115414200D01*
X80093992Y-115422538D01*
X80095450Y-115423735D01*
X80095265Y-115425611D01*
X80093602Y-115426500D01*
X78781402Y-115426500D01*
X78779739Y-115425611D01*
X78779554Y-115423735D01*
X78781012Y-115422538D01*
X78822924Y-115414202D01*
X78822924Y-115310798D01*
X78781014Y-115302462D01*
X78779556Y-115301265D01*
X78779741Y-115299389D01*
X78781404Y-115298500D01*
X80093588Y-115298500D01*
X80095251Y-115299389D01*
G37*
G36*
X111420251Y-114799389D02*
G01*
X111420436Y-114801265D01*
X111418978Y-114802462D01*
X111377075Y-114810795D01*
X111377074Y-114914200D01*
X111418992Y-114922538D01*
X111420450Y-114923735D01*
X111420265Y-114925611D01*
X111418602Y-114926500D01*
X110106402Y-114926500D01*
X110104739Y-114925611D01*
X110104554Y-114923735D01*
X110106012Y-114922538D01*
X110147924Y-114914202D01*
X110147924Y-114810798D01*
X110106014Y-114802462D01*
X110104556Y-114801265D01*
X110104741Y-114799389D01*
X110106404Y-114798500D01*
X111418588Y-114798500D01*
X111420251Y-114799389D01*
G37*
G36*
X80095251Y-114799389D02*
G01*
X80095436Y-114801265D01*
X80093978Y-114802462D01*
X80052075Y-114810795D01*
X80052074Y-114914200D01*
X80093992Y-114922538D01*
X80095450Y-114923735D01*
X80095265Y-114925611D01*
X80093602Y-114926500D01*
X78781402Y-114926500D01*
X78779739Y-114925611D01*
X78779554Y-114923735D01*
X78781012Y-114922538D01*
X78822924Y-114914202D01*
X78822924Y-114810798D01*
X78781014Y-114802462D01*
X78779556Y-114801265D01*
X78779741Y-114799389D01*
X78781404Y-114798500D01*
X80093588Y-114798500D01*
X80095251Y-114799389D01*
G37*
G36*
X111420251Y-114299389D02*
G01*
X111420436Y-114301265D01*
X111418978Y-114302462D01*
X111377075Y-114310795D01*
X111377074Y-114414200D01*
X111418992Y-114422538D01*
X111420450Y-114423735D01*
X111420265Y-114425611D01*
X111418602Y-114426500D01*
X110106402Y-114426500D01*
X110104739Y-114425611D01*
X110104554Y-114423735D01*
X110106012Y-114422538D01*
X110147924Y-114414202D01*
X110147924Y-114310798D01*
X110106014Y-114302462D01*
X110104556Y-114301265D01*
X110104741Y-114299389D01*
X110106404Y-114298500D01*
X111418588Y-114298500D01*
X111420251Y-114299389D01*
G37*
G36*
X80095251Y-114299389D02*
G01*
X80095436Y-114301265D01*
X80093978Y-114302462D01*
X80052075Y-114310795D01*
X80052074Y-114414200D01*
X80093992Y-114422538D01*
X80095450Y-114423735D01*
X80095265Y-114425611D01*
X80093602Y-114426500D01*
X78781402Y-114426500D01*
X78779739Y-114425611D01*
X78779554Y-114423735D01*
X78781012Y-114422538D01*
X78822924Y-114414202D01*
X78822924Y-114310798D01*
X78781014Y-114302462D01*
X78779556Y-114301265D01*
X78779741Y-114299389D01*
X78781404Y-114298500D01*
X80093588Y-114298500D01*
X80095251Y-114299389D01*
G37*
G36*
X111420251Y-113799389D02*
G01*
X111420436Y-113801265D01*
X111418978Y-113802462D01*
X111377075Y-113810795D01*
X111377074Y-113914200D01*
X111418992Y-113922538D01*
X111420450Y-113923735D01*
X111420265Y-113925611D01*
X111418602Y-113926500D01*
X110106402Y-113926500D01*
X110104739Y-113925611D01*
X110104554Y-113923735D01*
X110106012Y-113922538D01*
X110147924Y-113914202D01*
X110147924Y-113810798D01*
X110106014Y-113802462D01*
X110104556Y-113801265D01*
X110104741Y-113799389D01*
X110106404Y-113798500D01*
X111418588Y-113798500D01*
X111420251Y-113799389D01*
G37*
G36*
X80095251Y-113799389D02*
G01*
X80095436Y-113801265D01*
X80093978Y-113802462D01*
X80052075Y-113810795D01*
X80052074Y-113914200D01*
X80093992Y-113922538D01*
X80095450Y-113923735D01*
X80095265Y-113925611D01*
X80093602Y-113926500D01*
X78781402Y-113926500D01*
X78779739Y-113925611D01*
X78779554Y-113923735D01*
X78781012Y-113922538D01*
X78822924Y-113914202D01*
X78822924Y-113810798D01*
X78781014Y-113802462D01*
X78779556Y-113801265D01*
X78779741Y-113799389D01*
X78781404Y-113798500D01*
X80093588Y-113798500D01*
X80095251Y-113799389D01*
G37*
G36*
X111420251Y-113299389D02*
G01*
X111420436Y-113301265D01*
X111418978Y-113302462D01*
X111377075Y-113310795D01*
X111377074Y-113414200D01*
X111418992Y-113422538D01*
X111420450Y-113423735D01*
X111420265Y-113425611D01*
X111418602Y-113426500D01*
X110106402Y-113426500D01*
X110104739Y-113425611D01*
X110104554Y-113423735D01*
X110106012Y-113422538D01*
X110147924Y-113414202D01*
X110147924Y-113310798D01*
X110106014Y-113302462D01*
X110104556Y-113301265D01*
X110104741Y-113299389D01*
X110106404Y-113298500D01*
X111418588Y-113298500D01*
X111420251Y-113299389D01*
G37*
G36*
X80095251Y-113299389D02*
G01*
X80095436Y-113301265D01*
X80093978Y-113302462D01*
X80052075Y-113310795D01*
X80052074Y-113414200D01*
X80093992Y-113422538D01*
X80095450Y-113423735D01*
X80095265Y-113425611D01*
X80093602Y-113426500D01*
X78781402Y-113426500D01*
X78779739Y-113425611D01*
X78779554Y-113423735D01*
X78781012Y-113422538D01*
X78822924Y-113414202D01*
X78822924Y-113310798D01*
X78781014Y-113302462D01*
X78779556Y-113301265D01*
X78779741Y-113299389D01*
X78781404Y-113298500D01*
X80093588Y-113298500D01*
X80095251Y-113299389D01*
G37*
G36*
X111420251Y-112799389D02*
G01*
X111420436Y-112801265D01*
X111418978Y-112802462D01*
X111377075Y-112810795D01*
X111377074Y-112914200D01*
X111418992Y-112922538D01*
X111420450Y-112923735D01*
X111420265Y-112925611D01*
X111418602Y-112926500D01*
X110106402Y-112926500D01*
X110104739Y-112925611D01*
X110104554Y-112923735D01*
X110106012Y-112922538D01*
X110147924Y-112914202D01*
X110147924Y-112810798D01*
X110106014Y-112802462D01*
X110104556Y-112801265D01*
X110104741Y-112799389D01*
X110106404Y-112798500D01*
X111418588Y-112798500D01*
X111420251Y-112799389D01*
G37*
G36*
X80095251Y-112799389D02*
G01*
X80095436Y-112801265D01*
X80093978Y-112802462D01*
X80052075Y-112810795D01*
X80052074Y-112914200D01*
X80093992Y-112922538D01*
X80095450Y-112923735D01*
X80095265Y-112925611D01*
X80093602Y-112926500D01*
X78781402Y-112926500D01*
X78779739Y-112925611D01*
X78779554Y-112923735D01*
X78781012Y-112922538D01*
X78822924Y-112914202D01*
X78822924Y-112810798D01*
X78781014Y-112802462D01*
X78779556Y-112801265D01*
X78779741Y-112799389D01*
X78781404Y-112798500D01*
X80093588Y-112798500D01*
X80095251Y-112799389D01*
G37*
G36*
X111420251Y-112299389D02*
G01*
X111420436Y-112301265D01*
X111418978Y-112302462D01*
X111377075Y-112310795D01*
X111377074Y-112414200D01*
X111418992Y-112422538D01*
X111420450Y-112423735D01*
X111420265Y-112425611D01*
X111418602Y-112426500D01*
X110106402Y-112426500D01*
X110104739Y-112425611D01*
X110104554Y-112423735D01*
X110106012Y-112422538D01*
X110147924Y-112414202D01*
X110147924Y-112310798D01*
X110106014Y-112302462D01*
X110104556Y-112301265D01*
X110104741Y-112299389D01*
X110106404Y-112298500D01*
X111418588Y-112298500D01*
X111420251Y-112299389D01*
G37*
G36*
X80095251Y-112299389D02*
G01*
X80095436Y-112301265D01*
X80093978Y-112302462D01*
X80052075Y-112310795D01*
X80052074Y-112414200D01*
X80093992Y-112422538D01*
X80095450Y-112423735D01*
X80095265Y-112425611D01*
X80093602Y-112426500D01*
X78781402Y-112426500D01*
X78779739Y-112425611D01*
X78779554Y-112423735D01*
X78781012Y-112422538D01*
X78822924Y-112414202D01*
X78822924Y-112310798D01*
X78781014Y-112302462D01*
X78779556Y-112301265D01*
X78779741Y-112299389D01*
X78781404Y-112298500D01*
X80093588Y-112298500D01*
X80095251Y-112299389D01*
G37*
G36*
X111420251Y-111799389D02*
G01*
X111420436Y-111801265D01*
X111418978Y-111802462D01*
X111377075Y-111810795D01*
X111377074Y-111914200D01*
X111418992Y-111922538D01*
X111420450Y-111923735D01*
X111420265Y-111925611D01*
X111418602Y-111926500D01*
X110106402Y-111926500D01*
X110104739Y-111925611D01*
X110104554Y-111923735D01*
X110106012Y-111922538D01*
X110147924Y-111914202D01*
X110147924Y-111810798D01*
X110106014Y-111802462D01*
X110104556Y-111801265D01*
X110104741Y-111799389D01*
X110106404Y-111798500D01*
X111418588Y-111798500D01*
X111420251Y-111799389D01*
G37*
G36*
X80095251Y-111799389D02*
G01*
X80095436Y-111801265D01*
X80093978Y-111802462D01*
X80052075Y-111810795D01*
X80052074Y-111914200D01*
X80093992Y-111922538D01*
X80095450Y-111923735D01*
X80095265Y-111925611D01*
X80093602Y-111926500D01*
X78781402Y-111926500D01*
X78779739Y-111925611D01*
X78779554Y-111923735D01*
X78781012Y-111922538D01*
X78822924Y-111914202D01*
X78822924Y-111810798D01*
X78781014Y-111802462D01*
X78779556Y-111801265D01*
X78779741Y-111799389D01*
X78781404Y-111798500D01*
X80093588Y-111798500D01*
X80095251Y-111799389D01*
G37*
G36*
X111420251Y-111299389D02*
G01*
X111420436Y-111301265D01*
X111418978Y-111302462D01*
X111377075Y-111310795D01*
X111377074Y-111414200D01*
X111418992Y-111422538D01*
X111420450Y-111423735D01*
X111420265Y-111425611D01*
X111418602Y-111426500D01*
X110106402Y-111426500D01*
X110104739Y-111425611D01*
X110104554Y-111423735D01*
X110106012Y-111422538D01*
X110147924Y-111414202D01*
X110147924Y-111310798D01*
X110106014Y-111302462D01*
X110104556Y-111301265D01*
X110104741Y-111299389D01*
X110106404Y-111298500D01*
X111418588Y-111298500D01*
X111420251Y-111299389D01*
G37*
G36*
X80095251Y-111299389D02*
G01*
X80095436Y-111301265D01*
X80093978Y-111302462D01*
X80052075Y-111310795D01*
X80052074Y-111414200D01*
X80093992Y-111422538D01*
X80095450Y-111423735D01*
X80095265Y-111425611D01*
X80093602Y-111426500D01*
X78781402Y-111426500D01*
X78779739Y-111425611D01*
X78779554Y-111423735D01*
X78781012Y-111422538D01*
X78822924Y-111414202D01*
X78822924Y-111310798D01*
X78781014Y-111302462D01*
X78779556Y-111301265D01*
X78779741Y-111299389D01*
X78781404Y-111298500D01*
X80093588Y-111298500D01*
X80095251Y-111299389D01*
G37*
G36*
X111420251Y-110799389D02*
G01*
X111420436Y-110801265D01*
X111418978Y-110802462D01*
X111377075Y-110810795D01*
X111377074Y-110914200D01*
X111418992Y-110922538D01*
X111420450Y-110923735D01*
X111420265Y-110925611D01*
X111418602Y-110926500D01*
X110106402Y-110926500D01*
X110104739Y-110925611D01*
X110104554Y-110923735D01*
X110106012Y-110922538D01*
X110147924Y-110914202D01*
X110147924Y-110810798D01*
X110106014Y-110802462D01*
X110104556Y-110801265D01*
X110104741Y-110799389D01*
X110106404Y-110798500D01*
X111418588Y-110798500D01*
X111420251Y-110799389D01*
G37*
G36*
X80095251Y-110799389D02*
G01*
X80095436Y-110801265D01*
X80093978Y-110802462D01*
X80052075Y-110810795D01*
X80052074Y-110914200D01*
X80093992Y-110922538D01*
X80095450Y-110923735D01*
X80095265Y-110925611D01*
X80093602Y-110926500D01*
X78781402Y-110926500D01*
X78779739Y-110925611D01*
X78779554Y-110923735D01*
X78781012Y-110922538D01*
X78822924Y-110914202D01*
X78822924Y-110810798D01*
X78781014Y-110802462D01*
X78779556Y-110801265D01*
X78779741Y-110799389D01*
X78781404Y-110798500D01*
X80093588Y-110798500D01*
X80095251Y-110799389D01*
G37*
G36*
X111420251Y-110299389D02*
G01*
X111420436Y-110301265D01*
X111418978Y-110302462D01*
X111377075Y-110310795D01*
X111377074Y-110414200D01*
X111418992Y-110422538D01*
X111420450Y-110423735D01*
X111420265Y-110425611D01*
X111418602Y-110426500D01*
X110106402Y-110426500D01*
X110104739Y-110425611D01*
X110104554Y-110423735D01*
X110106012Y-110422538D01*
X110147924Y-110414202D01*
X110147924Y-110310798D01*
X110106014Y-110302462D01*
X110104556Y-110301265D01*
X110104741Y-110299389D01*
X110106404Y-110298500D01*
X111418588Y-110298500D01*
X111420251Y-110299389D01*
G37*
G36*
X80095251Y-110299389D02*
G01*
X80095436Y-110301265D01*
X80093978Y-110302462D01*
X80052075Y-110310795D01*
X80052074Y-110414200D01*
X80093992Y-110422538D01*
X80095450Y-110423735D01*
X80095265Y-110425611D01*
X80093602Y-110426500D01*
X78781402Y-110426500D01*
X78779739Y-110425611D01*
X78779554Y-110423735D01*
X78781012Y-110422538D01*
X78822924Y-110414202D01*
X78822924Y-110310798D01*
X78781014Y-110302462D01*
X78779556Y-110301265D01*
X78779741Y-110299389D01*
X78781404Y-110298500D01*
X80093588Y-110298500D01*
X80095251Y-110299389D01*
G37*
G36*
X111420251Y-109799389D02*
G01*
X111420436Y-109801265D01*
X111418978Y-109802462D01*
X111377075Y-109810795D01*
X111377074Y-109914200D01*
X111418992Y-109922538D01*
X111420450Y-109923735D01*
X111420265Y-109925611D01*
X111418602Y-109926500D01*
X110106402Y-109926500D01*
X110104739Y-109925611D01*
X110104554Y-109923735D01*
X110106012Y-109922538D01*
X110147924Y-109914202D01*
X110147924Y-109810798D01*
X110106014Y-109802462D01*
X110104556Y-109801265D01*
X110104741Y-109799389D01*
X110106404Y-109798500D01*
X111418588Y-109798500D01*
X111420251Y-109799389D01*
G37*
G36*
X80095251Y-109799389D02*
G01*
X80095436Y-109801265D01*
X80093978Y-109802462D01*
X80052075Y-109810795D01*
X80052074Y-109914200D01*
X80093992Y-109922538D01*
X80095450Y-109923735D01*
X80095265Y-109925611D01*
X80093602Y-109926500D01*
X78781402Y-109926500D01*
X78779739Y-109925611D01*
X78779554Y-109923735D01*
X78781012Y-109922538D01*
X78822924Y-109914202D01*
X78822924Y-109810798D01*
X78781014Y-109802462D01*
X78779556Y-109801265D01*
X78779741Y-109799389D01*
X78781404Y-109798500D01*
X80093588Y-109798500D01*
X80095251Y-109799389D01*
G37*
G36*
X111420251Y-109299389D02*
G01*
X111420436Y-109301265D01*
X111418978Y-109302462D01*
X111377075Y-109310795D01*
X111377074Y-109414200D01*
X111418992Y-109422538D01*
X111420450Y-109423735D01*
X111420265Y-109425611D01*
X111418602Y-109426500D01*
X110106402Y-109426500D01*
X110104739Y-109425611D01*
X110104554Y-109423735D01*
X110106012Y-109422538D01*
X110147924Y-109414202D01*
X110147924Y-109310798D01*
X110106014Y-109302462D01*
X110104556Y-109301265D01*
X110104741Y-109299389D01*
X110106404Y-109298500D01*
X111418588Y-109298500D01*
X111420251Y-109299389D01*
G37*
G36*
X80095251Y-109299389D02*
G01*
X80095436Y-109301265D01*
X80093978Y-109302462D01*
X80052075Y-109310795D01*
X80052074Y-109414200D01*
X80093992Y-109422538D01*
X80095450Y-109423735D01*
X80095265Y-109425611D01*
X80093602Y-109426500D01*
X78781402Y-109426500D01*
X78779739Y-109425611D01*
X78779554Y-109423735D01*
X78781012Y-109422538D01*
X78822924Y-109414202D01*
X78822924Y-109310798D01*
X78781014Y-109302462D01*
X78779556Y-109301265D01*
X78779741Y-109299389D01*
X78781404Y-109298500D01*
X80093588Y-109298500D01*
X80095251Y-109299389D01*
G37*
G36*
X111420251Y-108799389D02*
G01*
X111420436Y-108801265D01*
X111418978Y-108802462D01*
X111377075Y-108810795D01*
X111377074Y-108914200D01*
X111418992Y-108922538D01*
X111420450Y-108923735D01*
X111420265Y-108925611D01*
X111418602Y-108926500D01*
X110106402Y-108926500D01*
X110104739Y-108925611D01*
X110104554Y-108923735D01*
X110106012Y-108922538D01*
X110147924Y-108914202D01*
X110147924Y-108810798D01*
X110106014Y-108802462D01*
X110104556Y-108801265D01*
X110104741Y-108799389D01*
X110106404Y-108798500D01*
X111418588Y-108798500D01*
X111420251Y-108799389D01*
G37*
G36*
X80095251Y-108799389D02*
G01*
X80095436Y-108801265D01*
X80093978Y-108802462D01*
X80052075Y-108810795D01*
X80052074Y-108914200D01*
X80093992Y-108922538D01*
X80095450Y-108923735D01*
X80095265Y-108925611D01*
X80093602Y-108926500D01*
X78781402Y-108926500D01*
X78779739Y-108925611D01*
X78779554Y-108923735D01*
X78781012Y-108922538D01*
X78822924Y-108914202D01*
X78822924Y-108810798D01*
X78781014Y-108802462D01*
X78779556Y-108801265D01*
X78779741Y-108799389D01*
X78781404Y-108798500D01*
X80093588Y-108798500D01*
X80095251Y-108799389D01*
G37*
G36*
X111420251Y-108299389D02*
G01*
X111420436Y-108301265D01*
X111418978Y-108302462D01*
X111377075Y-108310795D01*
X111377074Y-108414200D01*
X111418992Y-108422538D01*
X111420450Y-108423735D01*
X111420265Y-108425611D01*
X111418602Y-108426500D01*
X110106402Y-108426500D01*
X110104739Y-108425611D01*
X110104554Y-108423735D01*
X110106012Y-108422538D01*
X110147924Y-108414202D01*
X110147924Y-108310798D01*
X110106014Y-108302462D01*
X110104556Y-108301265D01*
X110104741Y-108299389D01*
X110106404Y-108298500D01*
X111418588Y-108298500D01*
X111420251Y-108299389D01*
G37*
G36*
X80095251Y-108299389D02*
G01*
X80095436Y-108301265D01*
X80093978Y-108302462D01*
X80052075Y-108310795D01*
X80052074Y-108414200D01*
X80093992Y-108422538D01*
X80095450Y-108423735D01*
X80095265Y-108425611D01*
X80093602Y-108426500D01*
X78781402Y-108426500D01*
X78779739Y-108425611D01*
X78779554Y-108423735D01*
X78781012Y-108422538D01*
X78822924Y-108414202D01*
X78822924Y-108310798D01*
X78781014Y-108302462D01*
X78779556Y-108301265D01*
X78779741Y-108299389D01*
X78781404Y-108298500D01*
X80093588Y-108298500D01*
X80095251Y-108299389D01*
G37*
G36*
X111420251Y-107799389D02*
G01*
X111420436Y-107801265D01*
X111418978Y-107802462D01*
X111377075Y-107810795D01*
X111377074Y-107914200D01*
X111418992Y-107922538D01*
X111420450Y-107923735D01*
X111420265Y-107925611D01*
X111418602Y-107926500D01*
X110106402Y-107926500D01*
X110104739Y-107925611D01*
X110104554Y-107923735D01*
X110106012Y-107922538D01*
X110147924Y-107914202D01*
X110147924Y-107810798D01*
X110106014Y-107802462D01*
X110104556Y-107801265D01*
X110104741Y-107799389D01*
X110106404Y-107798500D01*
X111418588Y-107798500D01*
X111420251Y-107799389D01*
G37*
G36*
X80095251Y-107799389D02*
G01*
X80095436Y-107801265D01*
X80093978Y-107802462D01*
X80052075Y-107810795D01*
X80052074Y-107914200D01*
X80093992Y-107922538D01*
X80095450Y-107923735D01*
X80095265Y-107925611D01*
X80093602Y-107926500D01*
X78781402Y-107926500D01*
X78779739Y-107925611D01*
X78779554Y-107923735D01*
X78781012Y-107922538D01*
X78822924Y-107914202D01*
X78822924Y-107810798D01*
X78781014Y-107802462D01*
X78779556Y-107801265D01*
X78779741Y-107799389D01*
X78781404Y-107798500D01*
X80093588Y-107798500D01*
X80095251Y-107799389D01*
G37*
G36*
X111420251Y-107299389D02*
G01*
X111420436Y-107301265D01*
X111418978Y-107302462D01*
X111377075Y-107310795D01*
X111377074Y-107414200D01*
X111418992Y-107422538D01*
X111420450Y-107423735D01*
X111420265Y-107425611D01*
X111418602Y-107426500D01*
X110106402Y-107426500D01*
X110104739Y-107425611D01*
X110104554Y-107423735D01*
X110106012Y-107422538D01*
X110147924Y-107414202D01*
X110147924Y-107310798D01*
X110106014Y-107302462D01*
X110104556Y-107301265D01*
X110104741Y-107299389D01*
X110106404Y-107298500D01*
X111418588Y-107298500D01*
X111420251Y-107299389D01*
G37*
G36*
X80095251Y-107299389D02*
G01*
X80095436Y-107301265D01*
X80093978Y-107302462D01*
X80052075Y-107310795D01*
X80052074Y-107414200D01*
X80093992Y-107422538D01*
X80095450Y-107423735D01*
X80095265Y-107425611D01*
X80093602Y-107426500D01*
X78781402Y-107426500D01*
X78779739Y-107425611D01*
X78779554Y-107423735D01*
X78781012Y-107422538D01*
X78822924Y-107414202D01*
X78822924Y-107310798D01*
X78781014Y-107302462D01*
X78779556Y-107301265D01*
X78779741Y-107299389D01*
X78781404Y-107298500D01*
X80093588Y-107298500D01*
X80095251Y-107299389D01*
G37*
G36*
X111420251Y-106799389D02*
G01*
X111420436Y-106801265D01*
X111418978Y-106802462D01*
X111377075Y-106810795D01*
X111377074Y-106914200D01*
X111418992Y-106922538D01*
X111420450Y-106923735D01*
X111420265Y-106925611D01*
X111418602Y-106926500D01*
X110106402Y-106926500D01*
X110104739Y-106925611D01*
X110104554Y-106923735D01*
X110106012Y-106922538D01*
X110147924Y-106914202D01*
X110147924Y-106810798D01*
X110106014Y-106802462D01*
X110104556Y-106801265D01*
X110104741Y-106799389D01*
X110106404Y-106798500D01*
X111418588Y-106798500D01*
X111420251Y-106799389D01*
G37*
G36*
X80095251Y-106799389D02*
G01*
X80095436Y-106801265D01*
X80093978Y-106802462D01*
X80052075Y-106810795D01*
X80052074Y-106914200D01*
X80093992Y-106922538D01*
X80095450Y-106923735D01*
X80095265Y-106925611D01*
X80093602Y-106926500D01*
X78781402Y-106926500D01*
X78779739Y-106925611D01*
X78779554Y-106923735D01*
X78781012Y-106922538D01*
X78822924Y-106914202D01*
X78822924Y-106810798D01*
X78781014Y-106802462D01*
X78779556Y-106801265D01*
X78779741Y-106799389D01*
X78781404Y-106798500D01*
X80093588Y-106798500D01*
X80095251Y-106799389D01*
G37*
G36*
X111420251Y-106299389D02*
G01*
X111420436Y-106301265D01*
X111418978Y-106302462D01*
X111377075Y-106310795D01*
X111377074Y-106414200D01*
X111418992Y-106422538D01*
X111420450Y-106423735D01*
X111420265Y-106425611D01*
X111418602Y-106426500D01*
X110106402Y-106426500D01*
X110104739Y-106425611D01*
X110104554Y-106423735D01*
X110106012Y-106422538D01*
X110147924Y-106414202D01*
X110147924Y-106310798D01*
X110106014Y-106302462D01*
X110104556Y-106301265D01*
X110104741Y-106299389D01*
X110106404Y-106298500D01*
X111418588Y-106298500D01*
X111420251Y-106299389D01*
G37*
G36*
X80095251Y-106299389D02*
G01*
X80095436Y-106301265D01*
X80093978Y-106302462D01*
X80052075Y-106310795D01*
X80052074Y-106414200D01*
X80093992Y-106422538D01*
X80095450Y-106423735D01*
X80095265Y-106425611D01*
X80093602Y-106426500D01*
X78781402Y-106426500D01*
X78779739Y-106425611D01*
X78779554Y-106423735D01*
X78781012Y-106422538D01*
X78822924Y-106414202D01*
X78822924Y-106310798D01*
X78781014Y-106302462D01*
X78779556Y-106301265D01*
X78779741Y-106299389D01*
X78781404Y-106298500D01*
X80093588Y-106298500D01*
X80095251Y-106299389D01*
G37*
G36*
X111420251Y-105799389D02*
G01*
X111420436Y-105801265D01*
X111418978Y-105802462D01*
X111377075Y-105810795D01*
X111377074Y-105914200D01*
X111418992Y-105922538D01*
X111420450Y-105923735D01*
X111420265Y-105925611D01*
X111418602Y-105926500D01*
X110106402Y-105926500D01*
X110104739Y-105925611D01*
X110104554Y-105923735D01*
X110106012Y-105922538D01*
X110147924Y-105914202D01*
X110147924Y-105810798D01*
X110106014Y-105802462D01*
X110104556Y-105801265D01*
X110104741Y-105799389D01*
X110106404Y-105798500D01*
X111418588Y-105798500D01*
X111420251Y-105799389D01*
G37*
G36*
X80095251Y-105799389D02*
G01*
X80095436Y-105801265D01*
X80093978Y-105802462D01*
X80052075Y-105810795D01*
X80052074Y-105914200D01*
X80093992Y-105922538D01*
X80095450Y-105923735D01*
X80095265Y-105925611D01*
X80093602Y-105926500D01*
X78781402Y-105926500D01*
X78779739Y-105925611D01*
X78779554Y-105923735D01*
X78781012Y-105922538D01*
X78822924Y-105914202D01*
X78822924Y-105810798D01*
X78781014Y-105802462D01*
X78779556Y-105801265D01*
X78779741Y-105799389D01*
X78781404Y-105798500D01*
X80093588Y-105798500D01*
X80095251Y-105799389D01*
G37*
G36*
X111420251Y-105299389D02*
G01*
X111420436Y-105301265D01*
X111418978Y-105302462D01*
X111377075Y-105310795D01*
X111377074Y-105414200D01*
X111418992Y-105422538D01*
X111420450Y-105423735D01*
X111420265Y-105425611D01*
X111418602Y-105426500D01*
X110106402Y-105426500D01*
X110104739Y-105425611D01*
X110104554Y-105423735D01*
X110106012Y-105422538D01*
X110147924Y-105414202D01*
X110147924Y-105310798D01*
X110106014Y-105302462D01*
X110104556Y-105301265D01*
X110104741Y-105299389D01*
X110106404Y-105298500D01*
X111418588Y-105298500D01*
X111420251Y-105299389D01*
G37*
G36*
X80095251Y-105299389D02*
G01*
X80095436Y-105301265D01*
X80093978Y-105302462D01*
X80052075Y-105310795D01*
X80052074Y-105414200D01*
X80093992Y-105422538D01*
X80095450Y-105423735D01*
X80095265Y-105425611D01*
X80093602Y-105426500D01*
X78781402Y-105426500D01*
X78779739Y-105425611D01*
X78779554Y-105423735D01*
X78781012Y-105422538D01*
X78822924Y-105414202D01*
X78822924Y-105310798D01*
X78781014Y-105302462D01*
X78779556Y-105301265D01*
X78779741Y-105299389D01*
X78781404Y-105298500D01*
X80093588Y-105298500D01*
X80095251Y-105299389D01*
G37*
G36*
X111420251Y-104799389D02*
G01*
X111420436Y-104801265D01*
X111418978Y-104802462D01*
X111377075Y-104810795D01*
X111377074Y-104914200D01*
X111418992Y-104922538D01*
X111420450Y-104923735D01*
X111420265Y-104925611D01*
X111418602Y-104926500D01*
X110106402Y-104926500D01*
X110104739Y-104925611D01*
X110104554Y-104923735D01*
X110106012Y-104922538D01*
X110147924Y-104914202D01*
X110147924Y-104810798D01*
X110106014Y-104802462D01*
X110104556Y-104801265D01*
X110104741Y-104799389D01*
X110106404Y-104798500D01*
X111418588Y-104798500D01*
X111420251Y-104799389D01*
G37*
G36*
X80095251Y-104799389D02*
G01*
X80095436Y-104801265D01*
X80093978Y-104802462D01*
X80052075Y-104810795D01*
X80052074Y-104914200D01*
X80093992Y-104922538D01*
X80095450Y-104923735D01*
X80095265Y-104925611D01*
X80093602Y-104926500D01*
X78781402Y-104926500D01*
X78779739Y-104925611D01*
X78779554Y-104923735D01*
X78781012Y-104922538D01*
X78822924Y-104914202D01*
X78822924Y-104810798D01*
X78781014Y-104802462D01*
X78779556Y-104801265D01*
X78779741Y-104799389D01*
X78781404Y-104798500D01*
X80093588Y-104798500D01*
X80095251Y-104799389D01*
G37*
G36*
X111420251Y-104299389D02*
G01*
X111420436Y-104301265D01*
X111418978Y-104302462D01*
X111377075Y-104310795D01*
X111377074Y-104414200D01*
X111418992Y-104422538D01*
X111420450Y-104423735D01*
X111420265Y-104425611D01*
X111418602Y-104426500D01*
X110106402Y-104426500D01*
X110104739Y-104425611D01*
X110104554Y-104423735D01*
X110106012Y-104422538D01*
X110147924Y-104414202D01*
X110147924Y-104310798D01*
X110106014Y-104302462D01*
X110104556Y-104301265D01*
X110104741Y-104299389D01*
X110106404Y-104298500D01*
X111418588Y-104298500D01*
X111420251Y-104299389D01*
G37*
G36*
X80095251Y-104299389D02*
G01*
X80095436Y-104301265D01*
X80093978Y-104302462D01*
X80052075Y-104310795D01*
X80052074Y-104414200D01*
X80093992Y-104422538D01*
X80095450Y-104423735D01*
X80095265Y-104425611D01*
X80093602Y-104426500D01*
X78781402Y-104426500D01*
X78779739Y-104425611D01*
X78779554Y-104423735D01*
X78781012Y-104422538D01*
X78822924Y-104414202D01*
X78822924Y-104310798D01*
X78781014Y-104302462D01*
X78779556Y-104301265D01*
X78779741Y-104299389D01*
X78781404Y-104298500D01*
X80093588Y-104298500D01*
X80095251Y-104299389D01*
G37*
G36*
X111420251Y-103799389D02*
G01*
X111420436Y-103801265D01*
X111418978Y-103802462D01*
X111377075Y-103810795D01*
X111377074Y-103914200D01*
X111418992Y-103922538D01*
X111420450Y-103923735D01*
X111420265Y-103925611D01*
X111418602Y-103926500D01*
X110106402Y-103926500D01*
X110104739Y-103925611D01*
X110104554Y-103923735D01*
X110106012Y-103922538D01*
X110147924Y-103914202D01*
X110147924Y-103810798D01*
X110106014Y-103802462D01*
X110104556Y-103801265D01*
X110104741Y-103799389D01*
X110106404Y-103798500D01*
X111418588Y-103798500D01*
X111420251Y-103799389D01*
G37*
G36*
X80095251Y-103799389D02*
G01*
X80095436Y-103801265D01*
X80093978Y-103802462D01*
X80052075Y-103810795D01*
X80052074Y-103914200D01*
X80093992Y-103922538D01*
X80095450Y-103923735D01*
X80095265Y-103925611D01*
X80093602Y-103926500D01*
X78781402Y-103926500D01*
X78779739Y-103925611D01*
X78779554Y-103923735D01*
X78781012Y-103922538D01*
X78822924Y-103914202D01*
X78822924Y-103810798D01*
X78781014Y-103802462D01*
X78779556Y-103801265D01*
X78779741Y-103799389D01*
X78781404Y-103798500D01*
X80093588Y-103798500D01*
X80095251Y-103799389D01*
G37*
G36*
X111420251Y-103299389D02*
G01*
X111420436Y-103301265D01*
X111418978Y-103302462D01*
X111377075Y-103310795D01*
X111377074Y-103414200D01*
X111418992Y-103422538D01*
X111420450Y-103423735D01*
X111420265Y-103425611D01*
X111418602Y-103426500D01*
X110106402Y-103426500D01*
X110104739Y-103425611D01*
X110104554Y-103423735D01*
X110106012Y-103422538D01*
X110147924Y-103414202D01*
X110147924Y-103310798D01*
X110106014Y-103302462D01*
X110104556Y-103301265D01*
X110104741Y-103299389D01*
X110106404Y-103298500D01*
X111418588Y-103298500D01*
X111420251Y-103299389D01*
G37*
G36*
X80095251Y-103299389D02*
G01*
X80095436Y-103301265D01*
X80093978Y-103302462D01*
X80052075Y-103310795D01*
X80052074Y-103414200D01*
X80093992Y-103422538D01*
X80095450Y-103423735D01*
X80095265Y-103425611D01*
X80093602Y-103426500D01*
X78781402Y-103426500D01*
X78779739Y-103425611D01*
X78779554Y-103423735D01*
X78781012Y-103422538D01*
X78822924Y-103414202D01*
X78822924Y-103310798D01*
X78781014Y-103302462D01*
X78779556Y-103301265D01*
X78779741Y-103299389D01*
X78781404Y-103298500D01*
X80093588Y-103298500D01*
X80095251Y-103299389D01*
G37*
G36*
X111420251Y-102799389D02*
G01*
X111420436Y-102801265D01*
X111418978Y-102802462D01*
X111377075Y-102810795D01*
X111377074Y-102914200D01*
X111418992Y-102922538D01*
X111420450Y-102923735D01*
X111420265Y-102925611D01*
X111418602Y-102926500D01*
X110106402Y-102926500D01*
X110104739Y-102925611D01*
X110104554Y-102923735D01*
X110106012Y-102922538D01*
X110147924Y-102914202D01*
X110147924Y-102810798D01*
X110106014Y-102802462D01*
X110104556Y-102801265D01*
X110104741Y-102799389D01*
X110106404Y-102798500D01*
X111418588Y-102798500D01*
X111420251Y-102799389D01*
G37*
G36*
X80095251Y-102799389D02*
G01*
X80095436Y-102801265D01*
X80093978Y-102802462D01*
X80052075Y-102810795D01*
X80052074Y-102914200D01*
X80093992Y-102922538D01*
X80095450Y-102923735D01*
X80095265Y-102925611D01*
X80093602Y-102926500D01*
X78781402Y-102926500D01*
X78779739Y-102925611D01*
X78779554Y-102923735D01*
X78781012Y-102922538D01*
X78822924Y-102914202D01*
X78822924Y-102810798D01*
X78781014Y-102802462D01*
X78779556Y-102801265D01*
X78779741Y-102799389D01*
X78781404Y-102798500D01*
X80093588Y-102798500D01*
X80095251Y-102799389D01*
G37*
G36*
X107663111Y-99042234D02*
G01*
X107664000Y-99043897D01*
X107664000Y-100356097D01*
X107663111Y-100357760D01*
X107661235Y-100357945D01*
X107660038Y-100356487D01*
X107651702Y-100314575D01*
X107548298Y-100314575D01*
X107539962Y-100356485D01*
X107538765Y-100357943D01*
X107536889Y-100357758D01*
X107536000Y-100356095D01*
X107536000Y-99043909D01*
X107536889Y-99042246D01*
X107538765Y-99042061D01*
X107539962Y-99043519D01*
X107548295Y-99085423D01*
X107651700Y-99085424D01*
X107660038Y-99043507D01*
X107661235Y-99042049D01*
X107663111Y-99042234D01*
G37*
G36*
X107163111Y-99042234D02*
G01*
X107164000Y-99043897D01*
X107164000Y-100356097D01*
X107163111Y-100357760D01*
X107161235Y-100357945D01*
X107160038Y-100356487D01*
X107151702Y-100314575D01*
X107048298Y-100314575D01*
X107039962Y-100356485D01*
X107038765Y-100357943D01*
X107036889Y-100357758D01*
X107036000Y-100356095D01*
X107036000Y-99043909D01*
X107036889Y-99042246D01*
X107038765Y-99042061D01*
X107039962Y-99043519D01*
X107048295Y-99085423D01*
X107151700Y-99085424D01*
X107160038Y-99043507D01*
X107161235Y-99042049D01*
X107163111Y-99042234D01*
G37*
G36*
X106663111Y-99042234D02*
G01*
X106664000Y-99043897D01*
X106664000Y-100356097D01*
X106663111Y-100357760D01*
X106661235Y-100357945D01*
X106660038Y-100356487D01*
X106651702Y-100314575D01*
X106548298Y-100314575D01*
X106539962Y-100356485D01*
X106538765Y-100357943D01*
X106536889Y-100357758D01*
X106536000Y-100356095D01*
X106536000Y-99043909D01*
X106536889Y-99042246D01*
X106538765Y-99042061D01*
X106539962Y-99043519D01*
X106548295Y-99085423D01*
X106651700Y-99085424D01*
X106660038Y-99043507D01*
X106661235Y-99042049D01*
X106663111Y-99042234D01*
G37*
G36*
X106163111Y-99042234D02*
G01*
X106164000Y-99043897D01*
X106164000Y-100356097D01*
X106163111Y-100357760D01*
X106161235Y-100357945D01*
X106160038Y-100356487D01*
X106151702Y-100314575D01*
X106048298Y-100314575D01*
X106039962Y-100356485D01*
X106038765Y-100357943D01*
X106036889Y-100357758D01*
X106036000Y-100356095D01*
X106036000Y-99043909D01*
X106036889Y-99042246D01*
X106038765Y-99042061D01*
X106039962Y-99043519D01*
X106048295Y-99085423D01*
X106151700Y-99085424D01*
X106160038Y-99043507D01*
X106161235Y-99042049D01*
X106163111Y-99042234D01*
G37*
G36*
X105663111Y-99042234D02*
G01*
X105664000Y-99043897D01*
X105664000Y-100356097D01*
X105663111Y-100357760D01*
X105661235Y-100357945D01*
X105660038Y-100356487D01*
X105651702Y-100314575D01*
X105548298Y-100314575D01*
X105539962Y-100356485D01*
X105538765Y-100357943D01*
X105536889Y-100357758D01*
X105536000Y-100356095D01*
X105536000Y-99043909D01*
X105536889Y-99042246D01*
X105538765Y-99042061D01*
X105539962Y-99043519D01*
X105548295Y-99085423D01*
X105651700Y-99085424D01*
X105660038Y-99043507D01*
X105661235Y-99042049D01*
X105663111Y-99042234D01*
G37*
G36*
X105163111Y-99042234D02*
G01*
X105164000Y-99043897D01*
X105164000Y-100356097D01*
X105163111Y-100357760D01*
X105161235Y-100357945D01*
X105160038Y-100356487D01*
X105151702Y-100314575D01*
X105048298Y-100314575D01*
X105039962Y-100356485D01*
X105038765Y-100357943D01*
X105036889Y-100357758D01*
X105036000Y-100356095D01*
X105036000Y-99043909D01*
X105036889Y-99042246D01*
X105038765Y-99042061D01*
X105039962Y-99043519D01*
X105048295Y-99085423D01*
X105151700Y-99085424D01*
X105160038Y-99043507D01*
X105161235Y-99042049D01*
X105163111Y-99042234D01*
G37*
G36*
X104663111Y-99042234D02*
G01*
X104664000Y-99043897D01*
X104664000Y-100356097D01*
X104663111Y-100357760D01*
X104661235Y-100357945D01*
X104660038Y-100356487D01*
X104651702Y-100314575D01*
X104548298Y-100314575D01*
X104539962Y-100356485D01*
X104538765Y-100357943D01*
X104536889Y-100357758D01*
X104536000Y-100356095D01*
X104536000Y-99043909D01*
X104536889Y-99042246D01*
X104538765Y-99042061D01*
X104539962Y-99043519D01*
X104548295Y-99085423D01*
X104651700Y-99085424D01*
X104660038Y-99043507D01*
X104661235Y-99042049D01*
X104663111Y-99042234D01*
G37*
G36*
X104163111Y-99042234D02*
G01*
X104164000Y-99043897D01*
X104164000Y-100356097D01*
X104163111Y-100357760D01*
X104161235Y-100357945D01*
X104160038Y-100356487D01*
X104151702Y-100314575D01*
X104048298Y-100314575D01*
X104039962Y-100356485D01*
X104038765Y-100357943D01*
X104036889Y-100357758D01*
X104036000Y-100356095D01*
X104036000Y-99043909D01*
X104036889Y-99042246D01*
X104038765Y-99042061D01*
X104039962Y-99043519D01*
X104048295Y-99085423D01*
X104151700Y-99085424D01*
X104160038Y-99043507D01*
X104161235Y-99042049D01*
X104163111Y-99042234D01*
G37*
G36*
X103663111Y-99042234D02*
G01*
X103664000Y-99043897D01*
X103664000Y-100356097D01*
X103663111Y-100357760D01*
X103661235Y-100357945D01*
X103660038Y-100356487D01*
X103651702Y-100314575D01*
X103548298Y-100314575D01*
X103539962Y-100356485D01*
X103538765Y-100357943D01*
X103536889Y-100357758D01*
X103536000Y-100356095D01*
X103536000Y-99043909D01*
X103536889Y-99042246D01*
X103538765Y-99042061D01*
X103539962Y-99043519D01*
X103548295Y-99085423D01*
X103651700Y-99085424D01*
X103660038Y-99043507D01*
X103661235Y-99042049D01*
X103663111Y-99042234D01*
G37*
G36*
X103163111Y-99042234D02*
G01*
X103164000Y-99043897D01*
X103164000Y-100356097D01*
X103163111Y-100357760D01*
X103161235Y-100357945D01*
X103160038Y-100356487D01*
X103151702Y-100314575D01*
X103048298Y-100314575D01*
X103039962Y-100356485D01*
X103038765Y-100357943D01*
X103036889Y-100357758D01*
X103036000Y-100356095D01*
X103036000Y-99043909D01*
X103036889Y-99042246D01*
X103038765Y-99042061D01*
X103039962Y-99043519D01*
X103048295Y-99085423D01*
X103151700Y-99085424D01*
X103160038Y-99043507D01*
X103161235Y-99042049D01*
X103163111Y-99042234D01*
G37*
G36*
X102663111Y-99042234D02*
G01*
X102664000Y-99043897D01*
X102664000Y-100356097D01*
X102663111Y-100357760D01*
X102661235Y-100357945D01*
X102660038Y-100356487D01*
X102651702Y-100314575D01*
X102548298Y-100314575D01*
X102539962Y-100356485D01*
X102538765Y-100357943D01*
X102536889Y-100357758D01*
X102536000Y-100356095D01*
X102536000Y-99043909D01*
X102536889Y-99042246D01*
X102538765Y-99042061D01*
X102539962Y-99043519D01*
X102548295Y-99085423D01*
X102651700Y-99085424D01*
X102660038Y-99043507D01*
X102661235Y-99042049D01*
X102663111Y-99042234D01*
G37*
G36*
X102163111Y-99042234D02*
G01*
X102164000Y-99043897D01*
X102164000Y-100356097D01*
X102163111Y-100357760D01*
X102161235Y-100357945D01*
X102160038Y-100356487D01*
X102151702Y-100314575D01*
X102048298Y-100314575D01*
X102039962Y-100356485D01*
X102038765Y-100357943D01*
X102036889Y-100357758D01*
X102036000Y-100356095D01*
X102036000Y-99043909D01*
X102036889Y-99042246D01*
X102038765Y-99042061D01*
X102039962Y-99043519D01*
X102048295Y-99085423D01*
X102151700Y-99085424D01*
X102160038Y-99043507D01*
X102161235Y-99042049D01*
X102163111Y-99042234D01*
G37*
G36*
X101663111Y-99042234D02*
G01*
X101664000Y-99043897D01*
X101664000Y-100356097D01*
X101663111Y-100357760D01*
X101661235Y-100357945D01*
X101660038Y-100356487D01*
X101651702Y-100314575D01*
X101548298Y-100314575D01*
X101539962Y-100356485D01*
X101538765Y-100357943D01*
X101536889Y-100357758D01*
X101536000Y-100356095D01*
X101536000Y-99043909D01*
X101536889Y-99042246D01*
X101538765Y-99042061D01*
X101539962Y-99043519D01*
X101548295Y-99085423D01*
X101651700Y-99085424D01*
X101660038Y-99043507D01*
X101661235Y-99042049D01*
X101663111Y-99042234D01*
G37*
G36*
X101163111Y-99042234D02*
G01*
X101164000Y-99043897D01*
X101164000Y-100356097D01*
X101163111Y-100357760D01*
X101161235Y-100357945D01*
X101160038Y-100356487D01*
X101151702Y-100314575D01*
X101048298Y-100314575D01*
X101039962Y-100356485D01*
X101038765Y-100357943D01*
X101036889Y-100357758D01*
X101036000Y-100356095D01*
X101036000Y-99043909D01*
X101036889Y-99042246D01*
X101038765Y-99042061D01*
X101039962Y-99043519D01*
X101048295Y-99085423D01*
X101151700Y-99085424D01*
X101160038Y-99043507D01*
X101161235Y-99042049D01*
X101163111Y-99042234D01*
G37*
G36*
X100663111Y-99042234D02*
G01*
X100664000Y-99043897D01*
X100664000Y-100356097D01*
X100663111Y-100357760D01*
X100661235Y-100357945D01*
X100660038Y-100356487D01*
X100651702Y-100314575D01*
X100548298Y-100314575D01*
X100539962Y-100356485D01*
X100538765Y-100357943D01*
X100536889Y-100357758D01*
X100536000Y-100356095D01*
X100536000Y-99043909D01*
X100536889Y-99042246D01*
X100538765Y-99042061D01*
X100539962Y-99043519D01*
X100548295Y-99085423D01*
X100651700Y-99085424D01*
X100660038Y-99043507D01*
X100661235Y-99042049D01*
X100663111Y-99042234D01*
G37*
G36*
X100163111Y-99042234D02*
G01*
X100164000Y-99043897D01*
X100164000Y-100356097D01*
X100163111Y-100357760D01*
X100161235Y-100357945D01*
X100160038Y-100356487D01*
X100151702Y-100314575D01*
X100048298Y-100314575D01*
X100039962Y-100356485D01*
X100038765Y-100357943D01*
X100036889Y-100357758D01*
X100036000Y-100356095D01*
X100036000Y-99043909D01*
X100036889Y-99042246D01*
X100038765Y-99042061D01*
X100039962Y-99043519D01*
X100048295Y-99085423D01*
X100151700Y-99085424D01*
X100160038Y-99043507D01*
X100161235Y-99042049D01*
X100163111Y-99042234D01*
G37*
G36*
X99663111Y-99042234D02*
G01*
X99664000Y-99043897D01*
X99664000Y-100356097D01*
X99663111Y-100357760D01*
X99661235Y-100357945D01*
X99660038Y-100356487D01*
X99651702Y-100314575D01*
X99548298Y-100314575D01*
X99539962Y-100356485D01*
X99538765Y-100357943D01*
X99536889Y-100357758D01*
X99536000Y-100356095D01*
X99536000Y-99043909D01*
X99536889Y-99042246D01*
X99538765Y-99042061D01*
X99539962Y-99043519D01*
X99548295Y-99085423D01*
X99651700Y-99085424D01*
X99660038Y-99043507D01*
X99661235Y-99042049D01*
X99663111Y-99042234D01*
G37*
G36*
X99163111Y-99042234D02*
G01*
X99164000Y-99043897D01*
X99164000Y-100356097D01*
X99163111Y-100357760D01*
X99161235Y-100357945D01*
X99160038Y-100356487D01*
X99151702Y-100314575D01*
X99048298Y-100314575D01*
X99039962Y-100356485D01*
X99038765Y-100357943D01*
X99036889Y-100357758D01*
X99036000Y-100356095D01*
X99036000Y-99043909D01*
X99036889Y-99042246D01*
X99038765Y-99042061D01*
X99039962Y-99043519D01*
X99048295Y-99085423D01*
X99151700Y-99085424D01*
X99160038Y-99043507D01*
X99161235Y-99042049D01*
X99163111Y-99042234D01*
G37*
G36*
X98663111Y-99042234D02*
G01*
X98664000Y-99043897D01*
X98664000Y-100356097D01*
X98663111Y-100357760D01*
X98661235Y-100357945D01*
X98660038Y-100356487D01*
X98651702Y-100314575D01*
X98548298Y-100314575D01*
X98539962Y-100356485D01*
X98538765Y-100357943D01*
X98536889Y-100357758D01*
X98536000Y-100356095D01*
X98536000Y-99043909D01*
X98536889Y-99042246D01*
X98538765Y-99042061D01*
X98539962Y-99043519D01*
X98548295Y-99085423D01*
X98651700Y-99085424D01*
X98660038Y-99043507D01*
X98661235Y-99042049D01*
X98663111Y-99042234D01*
G37*
G36*
X98163111Y-99042234D02*
G01*
X98164000Y-99043897D01*
X98164000Y-100356097D01*
X98163111Y-100357760D01*
X98161235Y-100357945D01*
X98160038Y-100356487D01*
X98151702Y-100314575D01*
X98048298Y-100314575D01*
X98039962Y-100356485D01*
X98038765Y-100357943D01*
X98036889Y-100357758D01*
X98036000Y-100356095D01*
X98036000Y-99043909D01*
X98036889Y-99042246D01*
X98038765Y-99042061D01*
X98039962Y-99043519D01*
X98048295Y-99085423D01*
X98151700Y-99085424D01*
X98160038Y-99043507D01*
X98161235Y-99042049D01*
X98163111Y-99042234D01*
G37*
G36*
X97663111Y-99042234D02*
G01*
X97664000Y-99043897D01*
X97664000Y-100356097D01*
X97663111Y-100357760D01*
X97661235Y-100357945D01*
X97660038Y-100356487D01*
X97651702Y-100314575D01*
X97548298Y-100314575D01*
X97539962Y-100356485D01*
X97538765Y-100357943D01*
X97536889Y-100357758D01*
X97536000Y-100356095D01*
X97536000Y-99043909D01*
X97536889Y-99042246D01*
X97538765Y-99042061D01*
X97539962Y-99043519D01*
X97548295Y-99085423D01*
X97651700Y-99085424D01*
X97660038Y-99043507D01*
X97661235Y-99042049D01*
X97663111Y-99042234D01*
G37*
G36*
X97163111Y-99042234D02*
G01*
X97164000Y-99043897D01*
X97164000Y-100356097D01*
X97163111Y-100357760D01*
X97161235Y-100357945D01*
X97160038Y-100356487D01*
X97151702Y-100314575D01*
X97048298Y-100314575D01*
X97039962Y-100356485D01*
X97038765Y-100357943D01*
X97036889Y-100357758D01*
X97036000Y-100356095D01*
X97036000Y-99043909D01*
X97036889Y-99042246D01*
X97038765Y-99042061D01*
X97039962Y-99043519D01*
X97048295Y-99085423D01*
X97151700Y-99085424D01*
X97160038Y-99043507D01*
X97161235Y-99042049D01*
X97163111Y-99042234D01*
G37*
G36*
X96663111Y-99042234D02*
G01*
X96664000Y-99043897D01*
X96664000Y-100356097D01*
X96663111Y-100357760D01*
X96661235Y-100357945D01*
X96660038Y-100356487D01*
X96651702Y-100314575D01*
X96548298Y-100314575D01*
X96539962Y-100356485D01*
X96538765Y-100357943D01*
X96536889Y-100357758D01*
X96536000Y-100356095D01*
X96536000Y-99043909D01*
X96536889Y-99042246D01*
X96538765Y-99042061D01*
X96539962Y-99043519D01*
X96548295Y-99085423D01*
X96651700Y-99085424D01*
X96660038Y-99043507D01*
X96661235Y-99042049D01*
X96663111Y-99042234D01*
G37*
G36*
X96163111Y-99042234D02*
G01*
X96164000Y-99043897D01*
X96164000Y-100356097D01*
X96163111Y-100357760D01*
X96161235Y-100357945D01*
X96160038Y-100356487D01*
X96151702Y-100314575D01*
X96048298Y-100314575D01*
X96039962Y-100356485D01*
X96038765Y-100357943D01*
X96036889Y-100357758D01*
X96036000Y-100356095D01*
X96036000Y-99043909D01*
X96036889Y-99042246D01*
X96038765Y-99042061D01*
X96039962Y-99043519D01*
X96048295Y-99085423D01*
X96151700Y-99085424D01*
X96160038Y-99043507D01*
X96161235Y-99042049D01*
X96163111Y-99042234D01*
G37*
G36*
X95663111Y-99042234D02*
G01*
X95664000Y-99043897D01*
X95664000Y-100356097D01*
X95663111Y-100357760D01*
X95661235Y-100357945D01*
X95660038Y-100356487D01*
X95651702Y-100314575D01*
X95548298Y-100314575D01*
X95539962Y-100356485D01*
X95538765Y-100357943D01*
X95536889Y-100357758D01*
X95536000Y-100356095D01*
X95536000Y-99043909D01*
X95536889Y-99042246D01*
X95538765Y-99042061D01*
X95539962Y-99043519D01*
X95548295Y-99085423D01*
X95651700Y-99085424D01*
X95660038Y-99043507D01*
X95661235Y-99042049D01*
X95663111Y-99042234D01*
G37*
G36*
X95163111Y-99042234D02*
G01*
X95164000Y-99043897D01*
X95164000Y-100356097D01*
X95163111Y-100357760D01*
X95161235Y-100357945D01*
X95160038Y-100356487D01*
X95151702Y-100314575D01*
X95048298Y-100314575D01*
X95039962Y-100356485D01*
X95038765Y-100357943D01*
X95036889Y-100357758D01*
X95036000Y-100356095D01*
X95036000Y-99043909D01*
X95036889Y-99042246D01*
X95038765Y-99042061D01*
X95039962Y-99043519D01*
X95048295Y-99085423D01*
X95151700Y-99085424D01*
X95160038Y-99043507D01*
X95161235Y-99042049D01*
X95163111Y-99042234D01*
G37*
G36*
X94663111Y-99042234D02*
G01*
X94664000Y-99043897D01*
X94664000Y-100356097D01*
X94663111Y-100357760D01*
X94661235Y-100357945D01*
X94660038Y-100356487D01*
X94651702Y-100314575D01*
X94548298Y-100314575D01*
X94539962Y-100356485D01*
X94538765Y-100357943D01*
X94536889Y-100357758D01*
X94536000Y-100356095D01*
X94536000Y-99043909D01*
X94536889Y-99042246D01*
X94538765Y-99042061D01*
X94539962Y-99043519D01*
X94548295Y-99085423D01*
X94651700Y-99085424D01*
X94660038Y-99043507D01*
X94661235Y-99042049D01*
X94663111Y-99042234D01*
G37*
G36*
X94163111Y-99042234D02*
G01*
X94164000Y-99043897D01*
X94164000Y-100356097D01*
X94163111Y-100357760D01*
X94161235Y-100357945D01*
X94160038Y-100356487D01*
X94151702Y-100314575D01*
X94048298Y-100314575D01*
X94039962Y-100356485D01*
X94038765Y-100357943D01*
X94036889Y-100357758D01*
X94036000Y-100356095D01*
X94036000Y-99043909D01*
X94036889Y-99042246D01*
X94038765Y-99042061D01*
X94039962Y-99043519D01*
X94048295Y-99085423D01*
X94151700Y-99085424D01*
X94160038Y-99043507D01*
X94161235Y-99042049D01*
X94163111Y-99042234D01*
G37*
G36*
X93663111Y-99042234D02*
G01*
X93664000Y-99043897D01*
X93664000Y-100356097D01*
X93663111Y-100357760D01*
X93661235Y-100357945D01*
X93660038Y-100356487D01*
X93651702Y-100314575D01*
X93548298Y-100314575D01*
X93539962Y-100356485D01*
X93538765Y-100357943D01*
X93536889Y-100357758D01*
X93536000Y-100356095D01*
X93536000Y-99043909D01*
X93536889Y-99042246D01*
X93538765Y-99042061D01*
X93539962Y-99043519D01*
X93548295Y-99085423D01*
X93651700Y-99085424D01*
X93660038Y-99043507D01*
X93661235Y-99042049D01*
X93663111Y-99042234D01*
G37*
G36*
X93163111Y-99042234D02*
G01*
X93164000Y-99043897D01*
X93164000Y-100356097D01*
X93163111Y-100357760D01*
X93161235Y-100357945D01*
X93160038Y-100356487D01*
X93151702Y-100314575D01*
X93048298Y-100314575D01*
X93039962Y-100356485D01*
X93038765Y-100357943D01*
X93036889Y-100357758D01*
X93036000Y-100356095D01*
X93036000Y-99043909D01*
X93036889Y-99042246D01*
X93038765Y-99042061D01*
X93039962Y-99043519D01*
X93048295Y-99085423D01*
X93151700Y-99085424D01*
X93160038Y-99043507D01*
X93161235Y-99042049D01*
X93163111Y-99042234D01*
G37*
G36*
X92663111Y-99042234D02*
G01*
X92664000Y-99043897D01*
X92664000Y-100356097D01*
X92663111Y-100357760D01*
X92661235Y-100357945D01*
X92660038Y-100356487D01*
X92651702Y-100314575D01*
X92548298Y-100314575D01*
X92539962Y-100356485D01*
X92538765Y-100357943D01*
X92536889Y-100357758D01*
X92536000Y-100356095D01*
X92536000Y-99043909D01*
X92536889Y-99042246D01*
X92538765Y-99042061D01*
X92539962Y-99043519D01*
X92548295Y-99085423D01*
X92651700Y-99085424D01*
X92660038Y-99043507D01*
X92661235Y-99042049D01*
X92663111Y-99042234D01*
G37*
G36*
X92163111Y-99042234D02*
G01*
X92164000Y-99043897D01*
X92164000Y-100356097D01*
X92163111Y-100357760D01*
X92161235Y-100357945D01*
X92160038Y-100356487D01*
X92151702Y-100314575D01*
X92048298Y-100314575D01*
X92039962Y-100356485D01*
X92038765Y-100357943D01*
X92036889Y-100357758D01*
X92036000Y-100356095D01*
X92036000Y-99043909D01*
X92036889Y-99042246D01*
X92038765Y-99042061D01*
X92039962Y-99043519D01*
X92048295Y-99085423D01*
X92151700Y-99085424D01*
X92160038Y-99043507D01*
X92161235Y-99042049D01*
X92163111Y-99042234D01*
G37*
G36*
X91663111Y-99042234D02*
G01*
X91664000Y-99043897D01*
X91664000Y-100356097D01*
X91663111Y-100357760D01*
X91661235Y-100357945D01*
X91660038Y-100356487D01*
X91651702Y-100314575D01*
X91548298Y-100314575D01*
X91539962Y-100356485D01*
X91538765Y-100357943D01*
X91536889Y-100357758D01*
X91536000Y-100356095D01*
X91536000Y-99043909D01*
X91536889Y-99042246D01*
X91538765Y-99042061D01*
X91539962Y-99043519D01*
X91548295Y-99085423D01*
X91651700Y-99085424D01*
X91660038Y-99043507D01*
X91661235Y-99042049D01*
X91663111Y-99042234D01*
G37*
G36*
X91163111Y-99042234D02*
G01*
X91164000Y-99043897D01*
X91164000Y-100356097D01*
X91163111Y-100357760D01*
X91161235Y-100357945D01*
X91160038Y-100356487D01*
X91151702Y-100314575D01*
X91048298Y-100314575D01*
X91039962Y-100356485D01*
X91038765Y-100357943D01*
X91036889Y-100357758D01*
X91036000Y-100356095D01*
X91036000Y-99043909D01*
X91036889Y-99042246D01*
X91038765Y-99042061D01*
X91039962Y-99043519D01*
X91048295Y-99085423D01*
X91151700Y-99085424D01*
X91160038Y-99043507D01*
X91161235Y-99042049D01*
X91163111Y-99042234D01*
G37*
G36*
X90663111Y-99042234D02*
G01*
X90664000Y-99043897D01*
X90664000Y-100356097D01*
X90663111Y-100357760D01*
X90661235Y-100357945D01*
X90660038Y-100356487D01*
X90651702Y-100314575D01*
X90548298Y-100314575D01*
X90539962Y-100356485D01*
X90538765Y-100357943D01*
X90536889Y-100357758D01*
X90536000Y-100356095D01*
X90536000Y-99043909D01*
X90536889Y-99042246D01*
X90538765Y-99042061D01*
X90539962Y-99043519D01*
X90548295Y-99085423D01*
X90651700Y-99085424D01*
X90660038Y-99043507D01*
X90661235Y-99042049D01*
X90663111Y-99042234D01*
G37*
G36*
X90163111Y-99042234D02*
G01*
X90164000Y-99043897D01*
X90164000Y-100356097D01*
X90163111Y-100357760D01*
X90161235Y-100357945D01*
X90160038Y-100356487D01*
X90151702Y-100314575D01*
X90048298Y-100314575D01*
X90039962Y-100356485D01*
X90038765Y-100357943D01*
X90036889Y-100357758D01*
X90036000Y-100356095D01*
X90036000Y-99043909D01*
X90036889Y-99042246D01*
X90038765Y-99042061D01*
X90039962Y-99043519D01*
X90048295Y-99085423D01*
X90151700Y-99085424D01*
X90160038Y-99043507D01*
X90161235Y-99042049D01*
X90163111Y-99042234D01*
G37*
G36*
X89663111Y-99042234D02*
G01*
X89664000Y-99043897D01*
X89664000Y-100356097D01*
X89663111Y-100357760D01*
X89661235Y-100357945D01*
X89660038Y-100356487D01*
X89651702Y-100314575D01*
X89548298Y-100314575D01*
X89539962Y-100356485D01*
X89538765Y-100357943D01*
X89536889Y-100357758D01*
X89536000Y-100356095D01*
X89536000Y-99043909D01*
X89536889Y-99042246D01*
X89538765Y-99042061D01*
X89539962Y-99043519D01*
X89548295Y-99085423D01*
X89651700Y-99085424D01*
X89660038Y-99043507D01*
X89661235Y-99042049D01*
X89663111Y-99042234D01*
G37*
G36*
X89163111Y-99042234D02*
G01*
X89164000Y-99043897D01*
X89164000Y-100356097D01*
X89163111Y-100357760D01*
X89161235Y-100357945D01*
X89160038Y-100356487D01*
X89151702Y-100314575D01*
X89048298Y-100314575D01*
X89039962Y-100356485D01*
X89038765Y-100357943D01*
X89036889Y-100357758D01*
X89036000Y-100356095D01*
X89036000Y-99043909D01*
X89036889Y-99042246D01*
X89038765Y-99042061D01*
X89039962Y-99043519D01*
X89048295Y-99085423D01*
X89151700Y-99085424D01*
X89160038Y-99043507D01*
X89161235Y-99042049D01*
X89163111Y-99042234D01*
G37*
G36*
X88663111Y-99042234D02*
G01*
X88664000Y-99043897D01*
X88664000Y-100356097D01*
X88663111Y-100357760D01*
X88661235Y-100357945D01*
X88660038Y-100356487D01*
X88651702Y-100314575D01*
X88548298Y-100314575D01*
X88539962Y-100356485D01*
X88538765Y-100357943D01*
X88536889Y-100357758D01*
X88536000Y-100356095D01*
X88536000Y-99043909D01*
X88536889Y-99042246D01*
X88538765Y-99042061D01*
X88539962Y-99043519D01*
X88548295Y-99085423D01*
X88651700Y-99085424D01*
X88660038Y-99043507D01*
X88661235Y-99042049D01*
X88663111Y-99042234D01*
G37*
G36*
X88163111Y-99042234D02*
G01*
X88164000Y-99043897D01*
X88164000Y-100356097D01*
X88163111Y-100357760D01*
X88161235Y-100357945D01*
X88160038Y-100356487D01*
X88151702Y-100314575D01*
X88048298Y-100314575D01*
X88039962Y-100356485D01*
X88038765Y-100357943D01*
X88036889Y-100357758D01*
X88036000Y-100356095D01*
X88036000Y-99043909D01*
X88036889Y-99042246D01*
X88038765Y-99042061D01*
X88039962Y-99043519D01*
X88048295Y-99085423D01*
X88151700Y-99085424D01*
X88160038Y-99043507D01*
X88161235Y-99042049D01*
X88163111Y-99042234D01*
G37*
G36*
X87663111Y-99042234D02*
G01*
X87664000Y-99043897D01*
X87664000Y-100356097D01*
X87663111Y-100357760D01*
X87661235Y-100357945D01*
X87660038Y-100356487D01*
X87651702Y-100314575D01*
X87548298Y-100314575D01*
X87539962Y-100356485D01*
X87538765Y-100357943D01*
X87536889Y-100357758D01*
X87536000Y-100356095D01*
X87536000Y-99043909D01*
X87536889Y-99042246D01*
X87538765Y-99042061D01*
X87539962Y-99043519D01*
X87548295Y-99085423D01*
X87651700Y-99085424D01*
X87660038Y-99043507D01*
X87661235Y-99042049D01*
X87663111Y-99042234D01*
G37*
G36*
X87163111Y-99042234D02*
G01*
X87164000Y-99043897D01*
X87164000Y-100356097D01*
X87163111Y-100357760D01*
X87161235Y-100357945D01*
X87160038Y-100356487D01*
X87151702Y-100314575D01*
X87048298Y-100314575D01*
X87039962Y-100356485D01*
X87038765Y-100357943D01*
X87036889Y-100357758D01*
X87036000Y-100356095D01*
X87036000Y-99043909D01*
X87036889Y-99042246D01*
X87038765Y-99042061D01*
X87039962Y-99043519D01*
X87048295Y-99085423D01*
X87151700Y-99085424D01*
X87160038Y-99043507D01*
X87161235Y-99042049D01*
X87163111Y-99042234D01*
G37*
G36*
X86663111Y-99042234D02*
G01*
X86664000Y-99043897D01*
X86664000Y-100356097D01*
X86663111Y-100357760D01*
X86661235Y-100357945D01*
X86660038Y-100356487D01*
X86651702Y-100314575D01*
X86548298Y-100314575D01*
X86539962Y-100356485D01*
X86538765Y-100357943D01*
X86536889Y-100357758D01*
X86536000Y-100356095D01*
X86536000Y-99043909D01*
X86536889Y-99042246D01*
X86538765Y-99042061D01*
X86539962Y-99043519D01*
X86548295Y-99085423D01*
X86651700Y-99085424D01*
X86660038Y-99043507D01*
X86661235Y-99042049D01*
X86663111Y-99042234D01*
G37*
G36*
X86163111Y-99042234D02*
G01*
X86164000Y-99043897D01*
X86164000Y-100356097D01*
X86163111Y-100357760D01*
X86161235Y-100357945D01*
X86160038Y-100356487D01*
X86151702Y-100314575D01*
X86048298Y-100314575D01*
X86039962Y-100356485D01*
X86038765Y-100357943D01*
X86036889Y-100357758D01*
X86036000Y-100356095D01*
X86036000Y-99043909D01*
X86036889Y-99042246D01*
X86038765Y-99042061D01*
X86039962Y-99043519D01*
X86048295Y-99085423D01*
X86151700Y-99085424D01*
X86160038Y-99043507D01*
X86161235Y-99042049D01*
X86163111Y-99042234D01*
G37*
G36*
X85663111Y-99042234D02*
G01*
X85664000Y-99043897D01*
X85664000Y-100356097D01*
X85663111Y-100357760D01*
X85661235Y-100357945D01*
X85660038Y-100356487D01*
X85651702Y-100314575D01*
X85548298Y-100314575D01*
X85539962Y-100356485D01*
X85538765Y-100357943D01*
X85536889Y-100357758D01*
X85536000Y-100356095D01*
X85536000Y-99043909D01*
X85536889Y-99042246D01*
X85538765Y-99042061D01*
X85539962Y-99043519D01*
X85548295Y-99085423D01*
X85651700Y-99085424D01*
X85660038Y-99043507D01*
X85661235Y-99042049D01*
X85663111Y-99042234D01*
G37*
G36*
X85163111Y-99042234D02*
G01*
X85164000Y-99043897D01*
X85164000Y-100356097D01*
X85163111Y-100357760D01*
X85161235Y-100357945D01*
X85160038Y-100356487D01*
X85151702Y-100314575D01*
X85048298Y-100314575D01*
X85039962Y-100356485D01*
X85038765Y-100357943D01*
X85036889Y-100357758D01*
X85036000Y-100356095D01*
X85036000Y-99043909D01*
X85036889Y-99042246D01*
X85038765Y-99042061D01*
X85039962Y-99043519D01*
X85048295Y-99085423D01*
X85151700Y-99085424D01*
X85160038Y-99043507D01*
X85161235Y-99042049D01*
X85163111Y-99042234D01*
G37*
G36*
X84663111Y-99042234D02*
G01*
X84664000Y-99043897D01*
X84664000Y-100356097D01*
X84663111Y-100357760D01*
X84661235Y-100357945D01*
X84660038Y-100356487D01*
X84651702Y-100314575D01*
X84548298Y-100314575D01*
X84539962Y-100356485D01*
X84538765Y-100357943D01*
X84536889Y-100357758D01*
X84536000Y-100356095D01*
X84536000Y-99043909D01*
X84536889Y-99042246D01*
X84538765Y-99042061D01*
X84539962Y-99043519D01*
X84548295Y-99085423D01*
X84651700Y-99085424D01*
X84660038Y-99043507D01*
X84661235Y-99042049D01*
X84663111Y-99042234D01*
G37*
G36*
X84163111Y-99042234D02*
G01*
X84164000Y-99043897D01*
X84164000Y-100356097D01*
X84163111Y-100357760D01*
X84161235Y-100357945D01*
X84160038Y-100356487D01*
X84151702Y-100314575D01*
X84048298Y-100314575D01*
X84039962Y-100356485D01*
X84038765Y-100357943D01*
X84036889Y-100357758D01*
X84036000Y-100356095D01*
X84036000Y-99043909D01*
X84036889Y-99042246D01*
X84038765Y-99042061D01*
X84039962Y-99043519D01*
X84048295Y-99085423D01*
X84151700Y-99085424D01*
X84160038Y-99043507D01*
X84161235Y-99042049D01*
X84163111Y-99042234D01*
G37*
G36*
X83663111Y-99042234D02*
G01*
X83664000Y-99043897D01*
X83664000Y-100356097D01*
X83663111Y-100357760D01*
X83661235Y-100357945D01*
X83660038Y-100356487D01*
X83651702Y-100314575D01*
X83548298Y-100314575D01*
X83539962Y-100356485D01*
X83538765Y-100357943D01*
X83536889Y-100357758D01*
X83536000Y-100356095D01*
X83536000Y-99043909D01*
X83536889Y-99042246D01*
X83538765Y-99042061D01*
X83539962Y-99043519D01*
X83548295Y-99085423D01*
X83651700Y-99085424D01*
X83660038Y-99043507D01*
X83661235Y-99042049D01*
X83663111Y-99042234D01*
G37*
G36*
X83163111Y-99042234D02*
G01*
X83164000Y-99043897D01*
X83164000Y-100356097D01*
X83163111Y-100357760D01*
X83161235Y-100357945D01*
X83160038Y-100356487D01*
X83151702Y-100314575D01*
X83048298Y-100314575D01*
X83039962Y-100356485D01*
X83038765Y-100357943D01*
X83036889Y-100357758D01*
X83036000Y-100356095D01*
X83036000Y-99043909D01*
X83036889Y-99042246D01*
X83038765Y-99042061D01*
X83039962Y-99043519D01*
X83048295Y-99085423D01*
X83151700Y-99085424D01*
X83160038Y-99043507D01*
X83161235Y-99042049D01*
X83163111Y-99042234D01*
G37*
G36*
X82663111Y-99042234D02*
G01*
X82664000Y-99043897D01*
X82664000Y-100356097D01*
X82663111Y-100357760D01*
X82661235Y-100357945D01*
X82660038Y-100356487D01*
X82651702Y-100314575D01*
X82548298Y-100314575D01*
X82539962Y-100356485D01*
X82538765Y-100357943D01*
X82536889Y-100357758D01*
X82536000Y-100356095D01*
X82536000Y-99043909D01*
X82536889Y-99042246D01*
X82538765Y-99042061D01*
X82539962Y-99043519D01*
X82548295Y-99085423D01*
X82651700Y-99085424D01*
X82660038Y-99043507D01*
X82661235Y-99042049D01*
X82663111Y-99042234D01*
G37*
M02*
