%TF.GenerationSoftware,KiCad,Pcbnew,7.0.1*%
%TF.CreationDate,2024-04-07T18:59:33+03:00*%
%TF.ProjectId,virge-vlb,76697267-652d-4766-9c62-2e6b69636164,rev?*%
%TF.SameCoordinates,Original*%
%TF.FileFunction,Soldermask,Bot*%
%TF.FilePolarity,Negative*%
%FSLAX46Y46*%
G04 Gerber Fmt 4.6, Leading zero omitted, Abs format (unit mm)*
G04 Created by KiCad (PCBNEW 7.0.1) date 2024-04-07 18:59:33*
%MOMM*%
%LPD*%
G01*
G04 APERTURE LIST*
G04 Aperture macros list*
%AMRoundRect*
0 Rectangle with rounded corners*
0 $1 Rounding radius*
0 $2 $3 $4 $5 $6 $7 $8 $9 X,Y pos of 4 corners*
0 Add a 4 corners polygon primitive as box body*
4,1,4,$2,$3,$4,$5,$6,$7,$8,$9,$2,$3,0*
0 Add four circle primitives for the rounded corners*
1,1,$1+$1,$2,$3*
1,1,$1+$1,$4,$5*
1,1,$1+$1,$6,$7*
1,1,$1+$1,$8,$9*
0 Add four rect primitives between the rounded corners*
20,1,$1+$1,$2,$3,$4,$5,0*
20,1,$1+$1,$4,$5,$6,$7,0*
20,1,$1+$1,$6,$7,$8,$9,0*
20,1,$1+$1,$8,$9,$2,$3,0*%
G04 Aperture macros list end*
%TA.AperFunction,Profile*%
%ADD10C,0.120000*%
%TD*%
%ADD11RoundRect,0.038000X0.850000X-0.850000X0.850000X0.850000X-0.850000X0.850000X-0.850000X-0.850000X0*%
%ADD12O,1.776000X1.776000*%
%ADD13RoundRect,0.038000X-0.510000X-2.285000X0.510000X-2.285000X0.510000X2.285000X-0.510000X2.285000X0*%
%ADD14RoundRect,0.038000X-0.255000X-0.380000X0.255000X-0.380000X0.255000X0.380000X-0.255000X0.380000X0*%
%ADD15RoundRect,0.038000X-0.890000X-3.500000X0.890000X-3.500000X0.890000X3.500000X-0.890000X3.500000X0*%
%ADD16C,1.576000*%
%ADD17RoundRect,0.038000X0.850000X0.850000X-0.850000X0.850000X-0.850000X-0.850000X0.850000X-0.850000X0*%
%ADD18RoundRect,0.038000X0.800000X-0.800000X0.800000X0.800000X-0.800000X0.800000X-0.800000X-0.800000X0*%
%ADD19C,1.676000*%
%ADD20C,4.076000*%
%ADD21O,1.676000X1.676000*%
G04 APERTURE END LIST*
D10*
%TO.C,J1*%
X31376000Y-136854000D02*
X31376000Y-75254000D01*
X31376000Y-136854000D02*
X31376000Y-144654000D01*
X31376000Y-144654000D02*
X45776000Y-144654000D01*
X45776000Y-137354000D02*
X47926000Y-137354000D01*
X45776000Y-144654000D02*
X45776000Y-137354000D01*
X47926000Y-137354000D02*
X47926000Y-144654000D01*
X47926000Y-144654000D02*
X105576000Y-144654000D01*
X105576000Y-136754000D02*
X105576000Y-144654000D01*
X168226000Y-136754000D02*
X105576000Y-136754000D01*
X168226000Y-136754000D02*
X168226000Y-144654000D01*
X168226000Y-144654000D02*
X249326000Y-144654000D01*
X249326000Y-136754000D02*
X271916004Y-136754000D01*
X249326000Y-144654000D02*
X249326000Y-136754000D01*
X271916004Y-75254000D02*
X31376000Y-75254000D01*
X271916004Y-136754000D02*
X271916004Y-75254000D01*
%TD*%
D11*
%TO.C,JP1*%
X249418000Y-108331000D03*
D12*
X251958000Y-108331000D03*
%TD*%
D11*
%TO.C,JP3*%
X196410000Y-133400000D03*
D12*
X198950000Y-133400000D03*
X201490000Y-133400000D03*
%TD*%
D13*
%TO.C,J1*%
X104676000Y-140954000D03*
D14*
X104676000Y-143614000D03*
D13*
X103406000Y-140954000D03*
D14*
X103406000Y-143614000D03*
D13*
X102146000Y-140954000D03*
D14*
X102146000Y-143614000D03*
D13*
X100866000Y-140954000D03*
D14*
X100866000Y-143614000D03*
D13*
X99596000Y-140954000D03*
D14*
X99596000Y-143614000D03*
D13*
X98326000Y-140954000D03*
D14*
X98326000Y-143614000D03*
D13*
X97056000Y-140954000D03*
D14*
X97056000Y-143614000D03*
D13*
X95786000Y-140954000D03*
D14*
X95786000Y-143614000D03*
D13*
X94516000Y-140954000D03*
D14*
X94516000Y-143614000D03*
D13*
X93246000Y-140954000D03*
D14*
X93246000Y-143614000D03*
D13*
X91976000Y-140954000D03*
D14*
X91976000Y-143614000D03*
D13*
X90716000Y-140954000D03*
D14*
X90716000Y-143614000D03*
D13*
X89436000Y-140954000D03*
D14*
X89436000Y-143614000D03*
D13*
X88166000Y-140954000D03*
D14*
X88166000Y-143614000D03*
D13*
X86896000Y-140954000D03*
D14*
X86896000Y-143614000D03*
D13*
X85626000Y-140954000D03*
D14*
X85626000Y-143614000D03*
D13*
X84356000Y-140954000D03*
D14*
X84356000Y-143614000D03*
D13*
X83086000Y-140954000D03*
D14*
X83086000Y-143614000D03*
D13*
X81826000Y-140954000D03*
D14*
X81826000Y-143614000D03*
D13*
X80546000Y-140954000D03*
D14*
X80546000Y-143614000D03*
D13*
X79286000Y-140954000D03*
D14*
X79286000Y-143614000D03*
D13*
X78006000Y-140954000D03*
D14*
X78006000Y-143614000D03*
D13*
X76736000Y-140954000D03*
D14*
X76736000Y-143614000D03*
D13*
X75466000Y-140954000D03*
D14*
X75466000Y-143614000D03*
D13*
X74196000Y-140954000D03*
D14*
X74196000Y-143614000D03*
D13*
X72926000Y-140954000D03*
D14*
X72926000Y-143614000D03*
D13*
X71656000Y-140954000D03*
D14*
X71656000Y-143614000D03*
D13*
X70386000Y-140954000D03*
D14*
X70386000Y-143614000D03*
D13*
X69116000Y-140954000D03*
D14*
X69116000Y-143614000D03*
D13*
X67846000Y-140954000D03*
D14*
X67846000Y-143614000D03*
D13*
X66576000Y-140954000D03*
D14*
X66576000Y-143614000D03*
D13*
X65306000Y-140954000D03*
D14*
X65306000Y-143614000D03*
D13*
X64036000Y-140954000D03*
D14*
X64036000Y-143614000D03*
D13*
X62766000Y-140954000D03*
D14*
X62766000Y-143614000D03*
D13*
X61496000Y-140954000D03*
D14*
X61496000Y-143614000D03*
D13*
X60226000Y-140954000D03*
D14*
X60226000Y-143614000D03*
D13*
X58956000Y-140954000D03*
D14*
X58956000Y-143614000D03*
D13*
X57686000Y-140954000D03*
D14*
X57686000Y-143614000D03*
D13*
X56416000Y-140954000D03*
D14*
X56416000Y-143614000D03*
D13*
X55146000Y-140954000D03*
D14*
X55146000Y-143614000D03*
D13*
X53876000Y-140954000D03*
D14*
X53876000Y-143614000D03*
D13*
X52606000Y-140954000D03*
D14*
X52606000Y-143614000D03*
D13*
X51336000Y-140954000D03*
D14*
X51336000Y-143614000D03*
D13*
X50066000Y-140954000D03*
D14*
X50066000Y-143614000D03*
D13*
X48796000Y-140954000D03*
D14*
X48796000Y-143614000D03*
D13*
X44986000Y-140954000D03*
D14*
X44986000Y-143614000D03*
D13*
X43716000Y-140954000D03*
D14*
X43716000Y-143614000D03*
D13*
X42446000Y-140954000D03*
D14*
X42446000Y-143614000D03*
D13*
X41176000Y-140954000D03*
D14*
X41176000Y-143614000D03*
D13*
X39906000Y-140954000D03*
D14*
X39906000Y-143614000D03*
D13*
X38636000Y-140954000D03*
D14*
X38636000Y-143614000D03*
D13*
X37366000Y-140954000D03*
D14*
X37366000Y-143614000D03*
D13*
X36096000Y-140954000D03*
D14*
X36096000Y-143614000D03*
D13*
X34826000Y-140954000D03*
D14*
X34826000Y-143614000D03*
D13*
X33556000Y-140954000D03*
D14*
X33556000Y-143614000D03*
D13*
X32286000Y-140954000D03*
D14*
X32286000Y-143614000D03*
D15*
X246876000Y-140344000D03*
X244336000Y-140344000D03*
X241796000Y-140344000D03*
X239256000Y-140344000D03*
X236716000Y-140344000D03*
X234176000Y-140344000D03*
X231636000Y-140344000D03*
X229096000Y-140344000D03*
X226556000Y-140344000D03*
X224016000Y-140344000D03*
X221476000Y-140344000D03*
X218936000Y-140344000D03*
X216396000Y-140344000D03*
X213856000Y-140344000D03*
X211316000Y-140344000D03*
X208776000Y-140344000D03*
X206236000Y-140344000D03*
X203696000Y-140344000D03*
X201156000Y-140344000D03*
X198616000Y-140344000D03*
X196076000Y-140344000D03*
X193536000Y-140344000D03*
X190996000Y-140344000D03*
X188456000Y-140344000D03*
X185916000Y-140344000D03*
X183376000Y-140344000D03*
X180836000Y-140344000D03*
X178296000Y-140344000D03*
X175756000Y-140354000D03*
X173216000Y-140354000D03*
X170676000Y-140354000D03*
%TD*%
D16*
%TO.C,Y1*%
X70750000Y-95900000D03*
X75650000Y-95900000D03*
%TD*%
D17*
%TO.C,JP4*%
X48150000Y-121725000D03*
D12*
X48150000Y-119185000D03*
X48150000Y-116645000D03*
%TD*%
D18*
%TO.C,CN1*%
X259350000Y-99850000D03*
D19*
X259350000Y-102140000D03*
X259350000Y-104430000D03*
X259350000Y-106720000D03*
D20*
X261940000Y-116695000D03*
D19*
X259350000Y-109010000D03*
D20*
X261940000Y-91695000D03*
D19*
X261890000Y-98705000D03*
X261890000Y-100995000D03*
X261890000Y-103285000D03*
X261890000Y-105575000D03*
X261890000Y-107865000D03*
X264430000Y-99850000D03*
X264430000Y-102140000D03*
X264430000Y-104430000D03*
X264430000Y-106720000D03*
X264430000Y-109010000D03*
%TD*%
D11*
%TO.C,JP2*%
X189410000Y-111900000D03*
D12*
X191950000Y-111900000D03*
X194490000Y-111900000D03*
%TD*%
D18*
%TO.C,U2*%
X187421000Y-130387000D03*
D21*
X189961000Y-130387000D03*
X192501000Y-130387000D03*
X195041000Y-130387000D03*
X197581000Y-130387000D03*
X200121000Y-130387000D03*
X202661000Y-130387000D03*
X205201000Y-130387000D03*
X207741000Y-130387000D03*
X210281000Y-130387000D03*
X212821000Y-130387000D03*
X215361000Y-130387000D03*
X217901000Y-130387000D03*
X220441000Y-130387000D03*
X222981000Y-130387000D03*
X225521000Y-130387000D03*
X225521000Y-115147000D03*
X222981000Y-115147000D03*
X220441000Y-115147000D03*
X217901000Y-115147000D03*
X215361000Y-115147000D03*
X212821000Y-115147000D03*
X210281000Y-115147000D03*
X207741000Y-115147000D03*
X205201000Y-115147000D03*
X202661000Y-115147000D03*
X200121000Y-115147000D03*
X197581000Y-115147000D03*
X195041000Y-115147000D03*
X192501000Y-115147000D03*
X189961000Y-115147000D03*
X187421000Y-115147000D03*
%TD*%
M02*
