%TF.GenerationSoftware,KiCad,Pcbnew,7.0.1*%
%TF.CreationDate,2024-04-07T18:59:33+03:00*%
%TF.ProjectId,virge-vlb,76697267-652d-4766-9c62-2e6b69636164,rev?*%
%TF.SameCoordinates,Original*%
%TF.FileFunction,Paste,Top*%
%TF.FilePolarity,Positive*%
%FSLAX46Y46*%
G04 Gerber Fmt 4.6, Leading zero omitted, Abs format (unit mm)*
G04 Created by KiCad (PCBNEW 7.0.1) date 2024-04-07 18:59:33*
%MOMM*%
%LPD*%
G01*
G04 APERTURE LIST*
G04 Aperture macros list*
%AMRoundRect*
0 Rectangle with rounded corners*
0 $1 Rounding radius*
0 $2 $3 $4 $5 $6 $7 $8 $9 X,Y pos of 4 corners*
0 Add a 4 corners polygon primitive as box body*
4,1,4,$2,$3,$4,$5,$6,$7,$8,$9,$2,$3,0*
0 Add four circle primitives for the rounded corners*
1,1,$1+$1,$2,$3*
1,1,$1+$1,$4,$5*
1,1,$1+$1,$6,$7*
1,1,$1+$1,$8,$9*
0 Add four rect primitives between the rounded corners*
20,1,$1+$1,$2,$3,$4,$5,0*
20,1,$1+$1,$4,$5,$6,$7,0*
20,1,$1+$1,$6,$7,$8,$9,0*
20,1,$1+$1,$8,$9,$2,$3,0*%
G04 Aperture macros list end*
%ADD10RoundRect,0.250000X0.450000X-0.350000X0.450000X0.350000X-0.450000X0.350000X-0.450000X-0.350000X0*%
%ADD11RoundRect,0.250000X-0.412500X-0.650000X0.412500X-0.650000X0.412500X0.650000X-0.412500X0.650000X0*%
%ADD12RoundRect,0.250000X0.650000X-0.412500X0.650000X0.412500X-0.650000X0.412500X-0.650000X-0.412500X0*%
%ADD13RoundRect,0.250000X0.337500X0.475000X-0.337500X0.475000X-0.337500X-0.475000X0.337500X-0.475000X0*%
%ADD14RoundRect,0.250000X0.350000X0.450000X-0.350000X0.450000X-0.350000X-0.450000X0.350000X-0.450000X0*%
%ADD15RoundRect,0.250000X-0.475000X0.337500X-0.475000X-0.337500X0.475000X-0.337500X0.475000X0.337500X0*%
%ADD16RoundRect,0.250000X-0.337500X-0.475000X0.337500X-0.475000X0.337500X0.475000X-0.337500X0.475000X0*%
%ADD17RoundRect,0.150000X0.150000X-0.825000X0.150000X0.825000X-0.150000X0.825000X-0.150000X-0.825000X0*%
%ADD18RoundRect,0.075000X0.075000X-0.662500X0.075000X0.662500X-0.075000X0.662500X-0.075000X-0.662500X0*%
%ADD19RoundRect,0.075000X0.662500X-0.075000X0.662500X0.075000X-0.662500X0.075000X-0.662500X-0.075000X0*%
%ADD20RoundRect,0.250000X-0.350000X-0.450000X0.350000X-0.450000X0.350000X0.450000X-0.350000X0.450000X0*%
%ADD21RoundRect,0.250000X0.412500X0.650000X-0.412500X0.650000X-0.412500X-0.650000X0.412500X-0.650000X0*%
%ADD22RoundRect,0.250000X-0.450000X0.350000X-0.450000X-0.350000X0.450000X-0.350000X0.450000X0.350000X0*%
%ADD23RoundRect,0.150000X-0.900000X-0.150000X0.900000X-0.150000X0.900000X0.150000X-0.900000X0.150000X0*%
%ADD24RoundRect,0.250000X0.450000X-0.325000X0.450000X0.325000X-0.450000X0.325000X-0.450000X-0.325000X0*%
%ADD25RoundRect,0.150000X0.150000X-0.900000X0.150000X0.900000X-0.150000X0.900000X-0.150000X-0.900000X0*%
%ADD26RoundRect,0.250000X0.475000X-0.337500X0.475000X0.337500X-0.475000X0.337500X-0.475000X-0.337500X0*%
%ADD27R,1.500000X0.600000*%
%ADD28R,1.925000X0.700000*%
%ADD29R,0.700000X1.925000*%
G04 APERTURE END LIST*
D10*
%TO.C,R6*%
X56050000Y-114600000D03*
X56050000Y-112600000D03*
%TD*%
D11*
%TO.C,C30*%
X252637500Y-130300000D03*
X255762500Y-130300000D03*
%TD*%
D12*
%TO.C,C23*%
X44100000Y-122462500D03*
X44100000Y-119337500D03*
%TD*%
D10*
%TO.C,R10*%
X97050000Y-96400000D03*
X97050000Y-94400000D03*
%TD*%
D13*
%TO.C,C14*%
X74697500Y-103683000D03*
X72622500Y-103683000D03*
%TD*%
D10*
%TO.C,R17*%
X141097000Y-79791000D03*
X141097000Y-77791000D03*
%TD*%
D14*
%TO.C,R39*%
X161500000Y-123150000D03*
X159500000Y-123150000D03*
%TD*%
D15*
%TO.C,C12*%
X138938000Y-78083500D03*
X138938000Y-80158500D03*
%TD*%
D14*
%TO.C,R22*%
X74660000Y-105715000D03*
X72660000Y-105715000D03*
%TD*%
D16*
%TO.C,C2*%
X247755500Y-86030000D03*
X249830500Y-86030000D03*
%TD*%
D11*
%TO.C,C22*%
X49250000Y-97600000D03*
X52375000Y-97600000D03*
%TD*%
D16*
%TO.C,C4*%
X251692500Y-96317000D03*
X253767500Y-96317000D03*
%TD*%
D17*
%TO.C,U9*%
X57090000Y-106525000D03*
X58360000Y-106525000D03*
X59630000Y-106525000D03*
X60900000Y-106525000D03*
X62170000Y-106525000D03*
X63440000Y-106525000D03*
X64710000Y-106525000D03*
X64710000Y-101575000D03*
X63440000Y-101575000D03*
X62170000Y-101575000D03*
X60900000Y-101575000D03*
X59630000Y-101575000D03*
X58360000Y-101575000D03*
X57090000Y-101575000D03*
%TD*%
D18*
%TO.C,U7*%
X82350000Y-131025000D03*
X82850000Y-131025000D03*
X83350000Y-131025000D03*
X83850000Y-131025000D03*
X84350000Y-131025000D03*
X84850000Y-131025000D03*
X85350000Y-131025000D03*
X85850000Y-131025000D03*
X86350000Y-131025000D03*
X86850000Y-131025000D03*
X87350000Y-131025000D03*
X87850000Y-131025000D03*
X88350000Y-131025000D03*
X88850000Y-131025000D03*
X89350000Y-131025000D03*
X89850000Y-131025000D03*
X90350000Y-131025000D03*
X90850000Y-131025000D03*
X91350000Y-131025000D03*
X91850000Y-131025000D03*
X92350000Y-131025000D03*
X92850000Y-131025000D03*
X93350000Y-131025000D03*
X93850000Y-131025000D03*
X94350000Y-131025000D03*
X94850000Y-131025000D03*
X95350000Y-131025000D03*
X95850000Y-131025000D03*
X96350000Y-131025000D03*
X96850000Y-131025000D03*
X97350000Y-131025000D03*
X97850000Y-131025000D03*
X98350000Y-131025000D03*
X98850000Y-131025000D03*
X99350000Y-131025000D03*
X99850000Y-131025000D03*
X100350000Y-131025000D03*
X100850000Y-131025000D03*
X101350000Y-131025000D03*
X101850000Y-131025000D03*
X102350000Y-131025000D03*
X102850000Y-131025000D03*
X103350000Y-131025000D03*
X103850000Y-131025000D03*
X104350000Y-131025000D03*
X104850000Y-131025000D03*
X105350000Y-131025000D03*
X105850000Y-131025000D03*
X106350000Y-131025000D03*
X106850000Y-131025000D03*
X107350000Y-131025000D03*
X107850000Y-131025000D03*
D19*
X110762500Y-128112500D03*
X110762500Y-127612500D03*
X110762500Y-127112500D03*
X110762500Y-126612500D03*
X110762500Y-126112500D03*
X110762500Y-125612500D03*
X110762500Y-125112500D03*
X110762500Y-124612500D03*
X110762500Y-124112500D03*
X110762500Y-123612500D03*
X110762500Y-123112500D03*
X110762500Y-122612500D03*
X110762500Y-122112500D03*
X110762500Y-121612500D03*
X110762500Y-121112500D03*
X110762500Y-120612500D03*
X110762500Y-120112500D03*
X110762500Y-119612500D03*
X110762500Y-119112500D03*
X110762500Y-118612500D03*
X110762500Y-118112500D03*
X110762500Y-117612500D03*
X110762500Y-117112500D03*
X110762500Y-116612500D03*
X110762500Y-116112500D03*
X110762500Y-115612500D03*
X110762500Y-115112500D03*
X110762500Y-114612500D03*
X110762500Y-114112500D03*
X110762500Y-113612500D03*
X110762500Y-113112500D03*
X110762500Y-112612500D03*
X110762500Y-112112500D03*
X110762500Y-111612500D03*
X110762500Y-111112500D03*
X110762500Y-110612500D03*
X110762500Y-110112500D03*
X110762500Y-109612500D03*
X110762500Y-109112500D03*
X110762500Y-108612500D03*
X110762500Y-108112500D03*
X110762500Y-107612500D03*
X110762500Y-107112500D03*
X110762500Y-106612500D03*
X110762500Y-106112500D03*
X110762500Y-105612500D03*
X110762500Y-105112500D03*
X110762500Y-104612500D03*
X110762500Y-104112500D03*
X110762500Y-103612500D03*
X110762500Y-103112500D03*
X110762500Y-102612500D03*
D18*
X107850000Y-99700000D03*
X107350000Y-99700000D03*
X106850000Y-99700000D03*
X106350000Y-99700000D03*
X105850000Y-99700000D03*
X105350000Y-99700000D03*
X104850000Y-99700000D03*
X104350000Y-99700000D03*
X103850000Y-99700000D03*
X103350000Y-99700000D03*
X102850000Y-99700000D03*
X102350000Y-99700000D03*
X101850000Y-99700000D03*
X101350000Y-99700000D03*
X100850000Y-99700000D03*
X100350000Y-99700000D03*
X99850000Y-99700000D03*
X99350000Y-99700000D03*
X98850000Y-99700000D03*
X98350000Y-99700000D03*
X97850000Y-99700000D03*
X97350000Y-99700000D03*
X96850000Y-99700000D03*
X96350000Y-99700000D03*
X95850000Y-99700000D03*
X95350000Y-99700000D03*
X94850000Y-99700000D03*
X94350000Y-99700000D03*
X93850000Y-99700000D03*
X93350000Y-99700000D03*
X92850000Y-99700000D03*
X92350000Y-99700000D03*
X91850000Y-99700000D03*
X91350000Y-99700000D03*
X90850000Y-99700000D03*
X90350000Y-99700000D03*
X89850000Y-99700000D03*
X89350000Y-99700000D03*
X88850000Y-99700000D03*
X88350000Y-99700000D03*
X87850000Y-99700000D03*
X87350000Y-99700000D03*
X86850000Y-99700000D03*
X86350000Y-99700000D03*
X85850000Y-99700000D03*
X85350000Y-99700000D03*
X84850000Y-99700000D03*
X84350000Y-99700000D03*
X83850000Y-99700000D03*
X83350000Y-99700000D03*
X82850000Y-99700000D03*
X82350000Y-99700000D03*
D19*
X79437500Y-102612500D03*
X79437500Y-103112500D03*
X79437500Y-103612500D03*
X79437500Y-104112500D03*
X79437500Y-104612500D03*
X79437500Y-105112500D03*
X79437500Y-105612500D03*
X79437500Y-106112500D03*
X79437500Y-106612500D03*
X79437500Y-107112500D03*
X79437500Y-107612500D03*
X79437500Y-108112500D03*
X79437500Y-108612500D03*
X79437500Y-109112500D03*
X79437500Y-109612500D03*
X79437500Y-110112500D03*
X79437500Y-110612500D03*
X79437500Y-111112500D03*
X79437500Y-111612500D03*
X79437500Y-112112500D03*
X79437500Y-112612500D03*
X79437500Y-113112500D03*
X79437500Y-113612500D03*
X79437500Y-114112500D03*
X79437500Y-114612500D03*
X79437500Y-115112500D03*
X79437500Y-115612500D03*
X79437500Y-116112500D03*
X79437500Y-116612500D03*
X79437500Y-117112500D03*
X79437500Y-117612500D03*
X79437500Y-118112500D03*
X79437500Y-118612500D03*
X79437500Y-119112500D03*
X79437500Y-119612500D03*
X79437500Y-120112500D03*
X79437500Y-120612500D03*
X79437500Y-121112500D03*
X79437500Y-121612500D03*
X79437500Y-122112500D03*
X79437500Y-122612500D03*
X79437500Y-123112500D03*
X79437500Y-123612500D03*
X79437500Y-124112500D03*
X79437500Y-124612500D03*
X79437500Y-125112500D03*
X79437500Y-125612500D03*
X79437500Y-126112500D03*
X79437500Y-126612500D03*
X79437500Y-127112500D03*
X79437500Y-127612500D03*
X79437500Y-128112500D03*
%TD*%
D14*
%TO.C,R42*%
X78200000Y-130650000D03*
X76200000Y-130650000D03*
%TD*%
%TO.C,R34*%
X161528000Y-112700000D03*
X159528000Y-112700000D03*
%TD*%
D20*
%TO.C,R2*%
X247793000Y-88316000D03*
X249793000Y-88316000D03*
%TD*%
D11*
%TO.C,C24*%
X59237500Y-97600000D03*
X62362500Y-97600000D03*
%TD*%
D21*
%TO.C,C27*%
X118812500Y-133150000D03*
X115687500Y-133150000D03*
%TD*%
D14*
%TO.C,R32*%
X161528000Y-108636000D03*
X159528000Y-108636000D03*
%TD*%
D13*
%TO.C,C8*%
X253767500Y-116002000D03*
X251692500Y-116002000D03*
%TD*%
%TO.C,C7*%
X253767500Y-118542000D03*
X251692500Y-118542000D03*
%TD*%
D22*
%TO.C,R9*%
X145161000Y-77791000D03*
X145161000Y-79791000D03*
%TD*%
D11*
%TO.C,C26*%
X151087500Y-91050000D03*
X154212500Y-91050000D03*
%TD*%
D20*
%TO.C,R12*%
X113681000Y-111811000D03*
X115681000Y-111811000D03*
%TD*%
%TO.C,R45*%
X175350000Y-120050000D03*
X177350000Y-120050000D03*
%TD*%
D17*
%TO.C,U8*%
X47040000Y-106325000D03*
X48310000Y-106325000D03*
X49580000Y-106325000D03*
X50850000Y-106325000D03*
X52120000Y-106325000D03*
X53390000Y-106325000D03*
X54660000Y-106325000D03*
X54660000Y-101375000D03*
X53390000Y-101375000D03*
X52120000Y-101375000D03*
X50850000Y-101375000D03*
X49580000Y-101375000D03*
X48310000Y-101375000D03*
X47040000Y-101375000D03*
%TD*%
D23*
%TO.C,U3*%
X122734000Y-99873000D03*
X122734000Y-101143000D03*
X122734000Y-102413000D03*
X122734000Y-103683000D03*
X122734000Y-104953000D03*
X122734000Y-106223000D03*
X122734000Y-107493000D03*
X122734000Y-108763000D03*
X122734000Y-110033000D03*
X122734000Y-111303000D03*
X122734000Y-112573000D03*
X122734000Y-113843000D03*
X122734000Y-115113000D03*
X122734000Y-116383000D03*
X122734000Y-117653000D03*
X122734000Y-118923000D03*
X122734000Y-120193000D03*
X122734000Y-121463000D03*
X122734000Y-122733000D03*
X122734000Y-124003000D03*
X132534000Y-124003000D03*
X132534000Y-122733000D03*
X132534000Y-121463000D03*
X132534000Y-120193000D03*
X132534000Y-118923000D03*
X132534000Y-117653000D03*
X132534000Y-116383000D03*
X132534000Y-115113000D03*
X132534000Y-113843000D03*
X132534000Y-112573000D03*
X132534000Y-111303000D03*
X132534000Y-110033000D03*
X132534000Y-108763000D03*
X132534000Y-107493000D03*
X132534000Y-106223000D03*
X132534000Y-104953000D03*
X132534000Y-103683000D03*
X132534000Y-102413000D03*
X132534000Y-101143000D03*
X132534000Y-99873000D03*
%TD*%
D22*
%TO.C,R47*%
X55400000Y-131700000D03*
X55400000Y-133700000D03*
%TD*%
%TO.C,R14*%
X162900000Y-128150000D03*
X162900000Y-130150000D03*
%TD*%
D16*
%TO.C,C6*%
X243564500Y-96317000D03*
X245639500Y-96317000D03*
%TD*%
D15*
%TO.C,C15*%
X67050000Y-103162500D03*
X67050000Y-105237500D03*
%TD*%
D16*
%TO.C,C3*%
X243564500Y-86030000D03*
X245639500Y-86030000D03*
%TD*%
D22*
%TO.C,R43*%
X76300000Y-125750000D03*
X76300000Y-127750000D03*
%TD*%
D20*
%TO.C,R8*%
X251730000Y-113843000D03*
X253730000Y-113843000D03*
%TD*%
D14*
%TO.C,R30*%
X161528000Y-104572000D03*
X159528000Y-104572000D03*
%TD*%
D24*
%TO.C,FB1*%
X251841000Y-93278000D03*
X251841000Y-91228000D03*
%TD*%
D14*
%TO.C,R23*%
X161528000Y-90348000D03*
X159528000Y-90348000D03*
%TD*%
D16*
%TO.C,C20*%
X182575000Y-115150000D03*
X184650000Y-115150000D03*
%TD*%
D20*
%TO.C,R46*%
X72700000Y-107800000D03*
X74700000Y-107800000D03*
%TD*%
D14*
%TO.C,R27*%
X161528000Y-98476000D03*
X159528000Y-98476000D03*
%TD*%
D16*
%TO.C,C1*%
X251819500Y-86030000D03*
X253894500Y-86030000D03*
%TD*%
D14*
%TO.C,R40*%
X161500000Y-125250000D03*
X159500000Y-125250000D03*
%TD*%
%TO.C,R26*%
X161528000Y-96444000D03*
X159528000Y-96444000D03*
%TD*%
%TO.C,R38*%
X161528000Y-121082000D03*
X159528000Y-121082000D03*
%TD*%
D16*
%TO.C,C19*%
X143562500Y-129600000D03*
X145637500Y-129600000D03*
%TD*%
D10*
%TO.C,R5*%
X54050000Y-114600000D03*
X54050000Y-112600000D03*
%TD*%
D25*
%TO.C,U6*%
X108077000Y-88954000D03*
X109347000Y-88954000D03*
X110617000Y-88954000D03*
X111887000Y-88954000D03*
X113157000Y-88954000D03*
X114427000Y-88954000D03*
X115697000Y-88954000D03*
X116967000Y-88954000D03*
X118237000Y-88954000D03*
X119507000Y-88954000D03*
X120777000Y-88954000D03*
X122047000Y-88954000D03*
X123317000Y-88954000D03*
X124587000Y-88954000D03*
X125857000Y-88954000D03*
X127127000Y-88954000D03*
X128397000Y-88954000D03*
X129667000Y-88954000D03*
X130937000Y-88954000D03*
X132207000Y-88954000D03*
X132207000Y-79154000D03*
X130937000Y-79154000D03*
X129667000Y-79154000D03*
X128397000Y-79154000D03*
X127127000Y-79154000D03*
X125857000Y-79154000D03*
X124587000Y-79154000D03*
X123317000Y-79154000D03*
X122047000Y-79154000D03*
X120777000Y-79154000D03*
X119507000Y-79154000D03*
X118237000Y-79154000D03*
X116967000Y-79154000D03*
X115697000Y-79154000D03*
X114427000Y-79154000D03*
X113157000Y-79154000D03*
X111887000Y-79154000D03*
X110617000Y-79154000D03*
X109347000Y-79154000D03*
X108077000Y-79154000D03*
%TD*%
D14*
%TO.C,R36*%
X161528000Y-116764000D03*
X159528000Y-116764000D03*
%TD*%
D10*
%TO.C,R16*%
X143129000Y-79791000D03*
X143129000Y-77791000D03*
%TD*%
D14*
%TO.C,R28*%
X161528000Y-100508000D03*
X159528000Y-100508000D03*
%TD*%
D21*
%TO.C,C21*%
X174012500Y-128800000D03*
X170887500Y-128800000D03*
%TD*%
D26*
%TO.C,C11*%
X57500000Y-131687500D03*
X57500000Y-129612500D03*
%TD*%
D14*
%TO.C,R31*%
X161528000Y-106604000D03*
X159528000Y-106604000D03*
%TD*%
%TO.C,R33*%
X161528000Y-110668000D03*
X159528000Y-110668000D03*
%TD*%
D10*
%TO.C,R11*%
X99150000Y-96400000D03*
X99150000Y-94400000D03*
%TD*%
D24*
%TO.C,FB2*%
X247777000Y-93405000D03*
X247777000Y-91355000D03*
%TD*%
D14*
%TO.C,R35*%
X161528000Y-114732000D03*
X159528000Y-114732000D03*
%TD*%
%TO.C,R41*%
X117950000Y-101850000D03*
X115950000Y-101850000D03*
%TD*%
D20*
%TO.C,R7*%
X251730000Y-120701000D03*
X253730000Y-120701000D03*
%TD*%
D15*
%TO.C,C18*%
X44950000Y-103012500D03*
X44950000Y-105087500D03*
%TD*%
%TO.C,C13*%
X66800000Y-86770500D03*
X66800000Y-88845500D03*
%TD*%
D23*
%TO.C,U4*%
X142548000Y-99873000D03*
X142548000Y-101143000D03*
X142548000Y-102413000D03*
X142548000Y-103683000D03*
X142548000Y-104953000D03*
X142548000Y-106223000D03*
X142548000Y-107493000D03*
X142548000Y-108763000D03*
X142548000Y-110033000D03*
X142548000Y-111303000D03*
X142548000Y-112573000D03*
X142548000Y-113843000D03*
X142548000Y-115113000D03*
X142548000Y-116383000D03*
X142548000Y-117653000D03*
X142548000Y-118923000D03*
X142548000Y-120193000D03*
X142548000Y-121463000D03*
X142548000Y-122733000D03*
X142548000Y-124003000D03*
X152348000Y-124003000D03*
X152348000Y-122733000D03*
X152348000Y-121463000D03*
X152348000Y-120193000D03*
X152348000Y-118923000D03*
X152348000Y-117653000D03*
X152348000Y-116383000D03*
X152348000Y-115113000D03*
X152348000Y-113843000D03*
X152348000Y-112573000D03*
X152348000Y-111303000D03*
X152348000Y-110033000D03*
X152348000Y-108763000D03*
X152348000Y-107493000D03*
X152348000Y-106223000D03*
X152348000Y-104953000D03*
X152348000Y-103683000D03*
X152348000Y-102413000D03*
X152348000Y-101143000D03*
X152348000Y-99873000D03*
%TD*%
D20*
%TO.C,R3*%
X243602000Y-88316000D03*
X245602000Y-88316000D03*
%TD*%
%TO.C,R13*%
X156800000Y-128800000D03*
X158800000Y-128800000D03*
%TD*%
D10*
%TO.C,R15*%
X160700000Y-130150000D03*
X160700000Y-128150000D03*
%TD*%
D16*
%TO.C,C10*%
X71012500Y-99900000D03*
X73087500Y-99900000D03*
%TD*%
D27*
%TO.C,U1*%
X239450000Y-127615000D03*
X239450000Y-126345000D03*
X239450000Y-125075000D03*
X239450000Y-123805000D03*
X239450000Y-122535000D03*
X239450000Y-121265000D03*
X239450000Y-119995000D03*
X239450000Y-118725000D03*
X239450000Y-117455000D03*
X239450000Y-116185000D03*
X229950000Y-116185000D03*
X229950000Y-117455000D03*
X229950000Y-118725000D03*
X229950000Y-119995000D03*
X229950000Y-121265000D03*
X229950000Y-122535000D03*
X229950000Y-123805000D03*
X229950000Y-125075000D03*
X229950000Y-126345000D03*
X229950000Y-127615000D03*
%TD*%
D14*
%TO.C,R25*%
X161528000Y-94412000D03*
X159528000Y-94412000D03*
%TD*%
D22*
%TO.C,R19*%
X139827000Y-82617000D03*
X139827000Y-84617000D03*
%TD*%
D28*
%TO.C,U2*%
X199878500Y-122772000D03*
X199878500Y-124042000D03*
X199878500Y-125312000D03*
X199878500Y-126582000D03*
D29*
X201391000Y-128094500D03*
X202661000Y-128094500D03*
X203931000Y-128094500D03*
X205201000Y-128094500D03*
X206471000Y-128094500D03*
X207741000Y-128094500D03*
X209011000Y-128094500D03*
X210281000Y-128094500D03*
X211551000Y-128094500D03*
D28*
X213063500Y-126582000D03*
X213063500Y-125312000D03*
X213063500Y-124042000D03*
X213063500Y-122772000D03*
X213063500Y-121502000D03*
X213063500Y-120232000D03*
X213063500Y-118962000D03*
D29*
X211551000Y-117449500D03*
X210281000Y-117449500D03*
X209011000Y-117449500D03*
X207741000Y-117449500D03*
X206471000Y-117449500D03*
X205201000Y-117449500D03*
X203931000Y-117449500D03*
X202661000Y-117449500D03*
X201391000Y-117449500D03*
D28*
X199878500Y-118962000D03*
X199878500Y-120232000D03*
X199878500Y-121502000D03*
%TD*%
D16*
%TO.C,C17*%
X229862500Y-130250000D03*
X231937500Y-130250000D03*
%TD*%
D14*
%TO.C,R24*%
X161528000Y-92380000D03*
X159528000Y-92380000D03*
%TD*%
D20*
%TO.C,R1*%
X251857000Y-88316000D03*
X253857000Y-88316000D03*
%TD*%
D11*
%TO.C,C29*%
X262987500Y-81150000D03*
X266112500Y-81150000D03*
%TD*%
D13*
%TO.C,C16*%
X118131500Y-123571000D03*
X116056500Y-123571000D03*
%TD*%
D25*
%TO.C,U5*%
X73279000Y-88954000D03*
X74549000Y-88954000D03*
X75819000Y-88954000D03*
X77089000Y-88954000D03*
X78359000Y-88954000D03*
X79629000Y-88954000D03*
X80899000Y-88954000D03*
X82169000Y-88954000D03*
X83439000Y-88954000D03*
X84709000Y-88954000D03*
X85979000Y-88954000D03*
X87249000Y-88954000D03*
X88519000Y-88954000D03*
X89789000Y-88954000D03*
X91059000Y-88954000D03*
X92329000Y-88954000D03*
X93599000Y-88954000D03*
X94869000Y-88954000D03*
X96139000Y-88954000D03*
X97409000Y-88954000D03*
X97409000Y-79154000D03*
X96139000Y-79154000D03*
X94869000Y-79154000D03*
X93599000Y-79154000D03*
X92329000Y-79154000D03*
X91059000Y-79154000D03*
X89789000Y-79154000D03*
X88519000Y-79154000D03*
X87249000Y-79154000D03*
X85979000Y-79154000D03*
X84709000Y-79154000D03*
X83439000Y-79154000D03*
X82169000Y-79154000D03*
X80899000Y-79154000D03*
X79629000Y-79154000D03*
X78359000Y-79154000D03*
X77089000Y-79154000D03*
X75819000Y-79154000D03*
X74549000Y-79154000D03*
X73279000Y-79154000D03*
%TD*%
D14*
%TO.C,R37*%
X161528000Y-118923000D03*
X159528000Y-118923000D03*
%TD*%
D20*
%TO.C,R21*%
X175350000Y-122300000D03*
X177350000Y-122300000D03*
%TD*%
D14*
%TO.C,R4*%
X56100000Y-110600000D03*
X54100000Y-110600000D03*
%TD*%
D11*
%TO.C,C28*%
X63400000Y-81450000D03*
X66525000Y-81450000D03*
%TD*%
%TO.C,C25*%
X161087500Y-85750000D03*
X164212500Y-85750000D03*
%TD*%
D16*
%TO.C,C9*%
X75912500Y-99900000D03*
X77987500Y-99900000D03*
%TD*%
D14*
%TO.C,R20*%
X173400000Y-122300000D03*
X171400000Y-122300000D03*
%TD*%
D16*
%TO.C,C5*%
X247628500Y-96317000D03*
X249703500Y-96317000D03*
%TD*%
D14*
%TO.C,R44*%
X173400000Y-120050000D03*
X171400000Y-120050000D03*
%TD*%
D22*
%TO.C,R18*%
X141859000Y-82617000D03*
X141859000Y-84617000D03*
%TD*%
D14*
%TO.C,R29*%
X161528000Y-102540000D03*
X159528000Y-102540000D03*
%TD*%
D24*
%TO.C,FB3*%
X243586000Y-93405000D03*
X243586000Y-91355000D03*
%TD*%
M02*
